<svg xmlns="http://www.w3.org/2000/svg" xmlns:xlink="http://www.w3.org/1999/xlink" width="40" zoomAndPan="magnify" viewBox="0 0 30 30.000001" height="40" preserveAspectRatio="xMidYMid meet" version="1.0"><defs><clipPath id="688591d0d8"><path d="M 2.148438 0.347656 L 27.550781 0.347656 L 27.550781 28.652344 L 2.148438 28.652344 Z M 2.148438 0.347656 " clip-rule="nonzero"/></clipPath></defs><g clip-path="url(#688591d0d8)"><path fill="#16a34a" d="M 4.890625 12.710938 L 5.976562 12.886719 L 9.984375 7.109375 L 10.707031 6.066406 L 14.476562 0.621094 C 14.5 0.59375 14.527344 0.558594 14.554688 0.535156 L 14.5625 0.523438 C 14.609375 0.480469 14.660156 0.445312 14.714844 0.417969 L 14.730469 0.410156 C 14.820312 0.367188 14.90625 0.347656 14.996094 0.347656 C 15.085938 0.347656 15.171875 0.367188 15.261719 0.410156 L 15.277344 0.417969 C 15.339844 0.445312 15.382812 0.480469 15.429688 0.523438 L 15.4375 0.535156 C 15.464844 0.558594 15.488281 0.59375 15.515625 0.621094 L 19.285156 6.066406 L 20.007812 7.109375 L 24.015625 12.886719 L 25.101562 12.710938 L 26.433594 4.40625 L 20.007812 7.109375 L 21.023438 6.683594 L 20.300781 5.644531 L 26.960938 2.835938 C 27.070312 2.792969 27.191406 2.765625 27.324219 2.792969 C 27.660156 2.847656 27.890625 3.164062 27.835938 3.5 L 26.257812 13.355469 C 26.210938 13.636719 25.984375 13.839844 25.71875 13.875 L 21.660156 14.511719 L 25.71875 15.148438 C 25.984375 15.183594 26.210938 15.386719 26.257812 15.667969 L 27.835938 25.527344 C 27.890625 25.859375 27.660156 26.1875 27.324219 26.242188 C 27.191406 26.257812 27.070312 26.242188 26.960938 26.1875 L 20.300781 23.382812 L 21.023438 22.339844 L 20.007812 21.917969 L 19.285156 22.957031 L 15.515625 28.402344 C 15.488281 28.4375 15.464844 28.464844 15.4375 28.492188 L 15.429688 28.5 C 15.382812 28.542969 15.339844 28.578125 15.277344 28.605469 L 15.261719 28.625 C 15.171875 28.660156 15.085938 28.675781 14.996094 28.675781 C 14.90625 28.675781 14.820312 28.660156 14.730469 28.625 L 14.714844 28.605469 C 14.660156 28.578125 14.609375 28.542969 14.5625 28.5 L 14.554688 28.492188 C 14.527344 28.464844 14.5 28.4375 14.476562 28.402344 L 10.707031 22.957031 L 9.984375 21.917969 L 8.96875 22.339844 L 9.691406 23.382812 L 3.03125 26.1875 C 2.921875 26.242188 2.800781 26.257812 2.667969 26.242188 C 2.332031 26.1875 2.101562 25.859375 2.15625 25.527344 L 3.734375 15.667969 C 3.78125 15.386719 4.007812 15.183594 4.28125 15.148438 L 8.332031 14.511719 L 4.28125 13.875 C 4.007812 13.839844 3.78125 13.636719 3.734375 13.355469 L 2.15625 3.5 C 2.101562 3.164062 2.332031 2.847656 2.667969 2.792969 C 2.800781 2.765625 2.921875 2.792969 3.03125 2.835938 L 9.691406 5.644531 L 8.96875 6.683594 L 9.984375 7.109375 L 3.558594 4.40625 Z M 4.890625 16.3125 L 3.558594 24.617188 L 9.984375 21.917969 L 5.976562 16.136719 Z M 7.34375 15.925781 L 11.15625 21.421875 L 12.59375 20.820312 C 13.152344 18.835938 13.707031 16.4375 14.371094 14.511719 C 13.707031 12.597656 13.152344 10.195312 12.59375 8.210938 L 11.15625 7.601562 L 7.34375 13.101562 L 12.417969 13.894531 C 12.445312 13.902344 12.472656 13.902344 12.488281 13.914062 L 12.5 13.914062 L 12.507812 13.921875 L 12.523438 13.921875 L 12.535156 13.929688 L 12.542969 13.929688 C 12.621094 13.957031 12.691406 14 12.746094 14.054688 L 12.761719 14.070312 L 12.773438 14.070312 L 12.78125 14.078125 L 12.789062 14.089844 L 12.796875 14.097656 C 12.851562 14.160156 12.886719 14.230469 12.921875 14.300781 L 12.921875 14.328125 L 12.929688 14.335938 L 12.929688 14.351562 C 12.949219 14.390625 12.949219 14.433594 12.957031 14.46875 L 12.957031 14.566406 C 12.949219 14.601562 12.949219 14.636719 12.929688 14.671875 L 12.929688 14.699219 L 12.921875 14.699219 L 12.921875 14.722656 C 12.886719 14.804688 12.851562 14.867188 12.796875 14.925781 L 12.789062 14.9375 L 12.773438 14.953125 L 12.761719 14.960938 L 12.753906 14.972656 L 12.746094 14.980469 C 12.691406 15.03125 12.621094 15.066406 12.542969 15.09375 L 12.535156 15.105469 L 12.515625 15.105469 L 12.507812 15.113281 L 12.488281 15.113281 C 12.472656 15.121094 12.445312 15.121094 12.417969 15.128906 Z M 15.621094 14.511719 C 16.285156 16.4375 16.839844 18.835938 17.394531 20.820312 L 18.835938 21.421875 L 22.648438 15.925781 L 17.574219 15.128906 C 17.546875 15.121094 17.519531 15.121094 17.503906 15.113281 L 17.484375 15.113281 L 17.476562 15.105469 L 17.457031 15.105469 L 17.449219 15.09375 C 17.371094 15.066406 17.300781 15.03125 17.246094 14.980469 L 17.238281 14.972656 L 17.230469 14.960938 L 17.21875 14.953125 L 17.191406 14.925781 C 17.140625 14.867188 17.105469 14.804688 17.070312 14.722656 L 17.070312 14.699219 L 17.0625 14.699219 L 17.0625 14.671875 C 17.050781 14.636719 17.042969 14.601562 17.042969 14.566406 L 17.035156 14.554688 L 17.035156 14.46875 L 17.042969 14.46875 C 17.042969 14.433594 17.050781 14.390625 17.0625 14.351562 L 17.0625 14.335938 L 17.070312 14.328125 L 17.070312 14.300781 C 17.105469 14.230469 17.140625 14.160156 17.191406 14.097656 L 17.203125 14.089844 L 17.210938 14.078125 L 17.21875 14.070312 L 17.230469 14.070312 L 17.246094 14.054688 C 17.300781 14 17.371094 13.957031 17.449219 13.929688 L 17.457031 13.929688 L 17.46875 13.921875 L 17.484375 13.921875 L 17.492188 13.914062 L 17.503906 13.914062 C 17.519531 13.902344 17.546875 13.902344 17.574219 13.894531 L 22.648438 13.101562 L 18.835938 7.601562 L 17.394531 8.210938 C 16.839844 10.195312 16.285156 12.597656 15.621094 14.511719 Z M 24.015625 16.136719 L 20.007812 21.917969 L 26.433594 24.617188 L 25.101562 16.3125 Z M 11.878906 22.464844 L 14.996094 26.964844 L 18.121094 22.464844 L 16.636719 21.847656 C 16.460938 21.765625 16.335938 21.617188 16.285156 21.441406 L 14.996094 16.894531 L 13.707031 21.441406 C 13.65625 21.617188 13.53125 21.765625 13.355469 21.847656 Z M 14.996094 2.058594 L 11.878906 6.5625 L 13.355469 7.179688 C 13.53125 7.257812 13.65625 7.410156 13.707031 7.585938 L 14.996094 12.128906 L 16.285156 7.585938 C 16.335938 7.410156 16.460938 7.257812 16.636719 7.179688 L 18.121094 6.5625 Z M 14.996094 2.058594 " fill-opacity="1" fill-rule="nonzero"/></g></svg>