<svg xmlns="http://www.w3.org/2000/svg" xmlns:xlink="http://www.w3.org/1999/xlink" width="177" zoomAndPan="magnify" viewBox="0 0 132.75 30.000001" height="40" preserveAspectRatio="xMidYMid meet" version="1.0"><defs><g/><clipPath id="5a6f67f01b"><path d="M 0.773438 0.671875 L 25.847656 0.671875 L 25.847656 28.296875 L 0.773438 28.296875 Z M 0.773438 0.671875 " clip-rule="nonzero"/></clipPath><clipPath id="380389db09"><path d="M 27 8 L 88.089844 8 L 88.089844 21 L 27 21 Z M 27 8 " clip-rule="nonzero"/></clipPath><clipPath id="2e7fd2767f"><rect x="0" width="62" y="0" height="13"/></clipPath><clipPath id="3c150caf46"><rect x="0" width="89" y="0" height="29"/></clipPath></defs><g transform="matrix(1, 0, 0, 1, 21, 0.000000000000005718)"><g clip-path="url(#3c150caf46)"><g clip-path="url(#5a6f67f01b)"><path fill="#16a34a" d="M 3.457031 12.753906 L 4.519531 12.929688 L 8.433594 7.28125 L 9.140625 6.261719 L 12.824219 0.941406 C 12.847656 0.914062 12.875 0.878906 12.902344 0.855469 L 12.910156 0.84375 C 12.953125 0.800781 13.003906 0.769531 13.054688 0.742188 L 13.074219 0.734375 C 13.160156 0.691406 13.246094 0.671875 13.332031 0.671875 C 13.417969 0.671875 13.503906 0.691406 13.589844 0.734375 L 13.609375 0.742188 C 13.667969 0.769531 13.710938 0.800781 13.753906 0.84375 L 13.761719 0.855469 C 13.789062 0.878906 13.816406 0.914062 13.839844 0.941406 L 17.523438 6.261719 L 18.230469 7.28125 L 22.144531 12.929688 L 23.207031 12.753906 L 24.507812 4.640625 L 18.230469 7.28125 L 19.222656 6.867188 L 18.515625 5.847656 L 25.027344 3.105469 C 25.128906 3.0625 25.25 3.035156 25.378906 3.0625 C 25.707031 3.113281 25.929688 3.425781 25.878906 3.753906 L 24.335938 13.386719 C 24.292969 13.660156 24.070312 13.859375 23.808594 13.894531 L 19.84375 14.515625 L 23.808594 15.136719 C 24.070312 15.171875 24.292969 15.367188 24.335938 15.644531 L 25.878906 25.277344 C 25.929688 25.605469 25.707031 25.925781 25.378906 25.976562 C 25.25 25.992188 25.128906 25.976562 25.027344 25.925781 L 18.515625 23.183594 L 19.222656 22.164062 L 18.230469 21.75 L 17.523438 22.769531 L 13.839844 28.089844 C 13.816406 28.125 13.789062 28.148438 13.761719 28.175781 L 13.753906 28.183594 C 13.710938 28.226562 13.667969 28.261719 13.609375 28.289062 L 13.589844 28.304688 C 13.503906 28.339844 13.417969 28.355469 13.332031 28.355469 C 13.246094 28.355469 13.160156 28.339844 13.074219 28.304688 L 13.054688 28.289062 C 13.003906 28.261719 12.953125 28.226562 12.910156 28.183594 L 12.902344 28.175781 C 12.875 28.148438 12.847656 28.125 12.824219 28.089844 L 9.140625 22.769531 L 8.433594 21.75 L 7.441406 22.164062 L 8.148438 23.183594 L 1.636719 25.925781 C 1.535156 25.976562 1.414062 25.992188 1.285156 25.976562 C 0.957031 25.925781 0.730469 25.605469 0.785156 25.277344 L 2.328125 15.644531 C 2.371094 15.367188 2.59375 15.171875 2.863281 15.136719 L 6.820312 14.515625 L 2.863281 13.894531 C 2.59375 13.859375 2.371094 13.660156 2.328125 13.386719 L 0.785156 3.753906 C 0.730469 3.425781 0.957031 3.113281 1.285156 3.0625 C 1.414062 3.035156 1.535156 3.0625 1.636719 3.105469 L 8.148438 5.847656 L 7.441406 6.867188 L 8.433594 7.28125 L 2.15625 4.640625 Z M 3.457031 16.273438 L 2.15625 24.390625 L 8.433594 21.75 L 4.519531 16.101562 Z M 5.855469 15.894531 L 9.582031 21.269531 L 10.984375 20.679688 C 11.527344 18.742188 12.074219 16.394531 12.71875 14.515625 C 12.074219 12.644531 11.527344 10.296875 10.984375 8.355469 L 9.582031 7.761719 L 5.855469 13.136719 L 10.8125 13.910156 C 10.839844 13.921875 10.863281 13.921875 10.882812 13.929688 L 10.890625 13.929688 L 10.898438 13.9375 L 10.917969 13.9375 L 10.925781 13.945312 L 10.933594 13.945312 C 11.011719 13.972656 11.082031 14.015625 11.132812 14.066406 L 11.148438 14.082031 L 11.160156 14.082031 L 11.167969 14.09375 L 11.183594 14.109375 C 11.234375 14.171875 11.269531 14.238281 11.304688 14.308594 L 11.304688 14.332031 L 11.3125 14.34375 L 11.3125 14.359375 C 11.332031 14.394531 11.332031 14.4375 11.339844 14.472656 L 11.339844 14.566406 C 11.332031 14.601562 11.332031 14.636719 11.3125 14.671875 L 11.3125 14.695312 L 11.304688 14.695312 L 11.304688 14.722656 C 11.269531 14.800781 11.234375 14.859375 11.183594 14.921875 L 11.160156 14.945312 L 11.148438 14.953125 L 11.140625 14.964844 L 11.132812 14.972656 C 11.082031 15.023438 11.011719 15.058594 10.933594 15.085938 L 10.925781 15.09375 L 10.910156 15.09375 L 10.898438 15.101562 L 10.882812 15.101562 C 10.863281 15.109375 10.839844 15.109375 10.8125 15.117188 Z M 13.945312 14.515625 C 14.589844 16.394531 15.132812 18.742188 15.675781 20.679688 L 17.082031 21.269531 L 20.808594 15.894531 L 15.851562 15.117188 C 15.824219 15.109375 15.796875 15.109375 15.78125 15.101562 L 15.765625 15.101562 L 15.753906 15.09375 L 15.738281 15.09375 L 15.730469 15.085938 C 15.652344 15.058594 15.582031 15.023438 15.53125 14.972656 L 15.480469 14.921875 C 15.425781 14.859375 15.394531 14.800781 15.359375 14.722656 L 15.359375 14.695312 L 15.351562 14.695312 L 15.351562 14.671875 C 15.339844 14.636719 15.332031 14.601562 15.332031 14.566406 L 15.324219 14.558594 L 15.324219 14.472656 L 15.332031 14.472656 C 15.332031 14.4375 15.339844 14.394531 15.351562 14.359375 L 15.351562 14.34375 L 15.359375 14.332031 L 15.359375 14.308594 C 15.394531 14.238281 15.425781 14.171875 15.480469 14.109375 L 15.496094 14.09375 L 15.503906 14.082031 L 15.511719 14.082031 L 15.523438 14.074219 L 15.53125 14.066406 C 15.582031 14.015625 15.652344 13.972656 15.730469 13.945312 L 15.738281 13.945312 L 15.746094 13.9375 L 15.765625 13.9375 L 15.773438 13.929688 L 15.78125 13.929688 C 15.796875 13.921875 15.824219 13.921875 15.851562 13.910156 L 20.808594 13.136719 L 17.082031 7.761719 L 15.675781 8.355469 C 15.132812 10.296875 14.589844 12.644531 13.945312 14.515625 Z M 22.144531 16.101562 L 18.230469 21.75 L 24.507812 24.390625 L 23.207031 16.273438 Z M 10.289062 22.285156 L 13.332031 26.683594 L 16.382812 22.285156 L 14.9375 21.683594 C 14.761719 21.605469 14.640625 21.457031 14.589844 21.285156 L 13.332031 16.84375 L 12.074219 21.285156 C 12.019531 21.457031 11.898438 21.605469 11.726562 21.683594 Z M 13.332031 2.347656 L 10.289062 6.746094 L 11.726562 7.347656 C 11.898438 7.425781 12.019531 7.574219 12.074219 7.746094 L 13.332031 12.1875 L 14.589844 7.746094 C 14.640625 7.574219 14.761719 7.425781 14.9375 7.347656 L 16.382812 6.746094 Z M 13.332031 2.347656 " fill-opacity="1" fill-rule="nonzero"/></g><g clip-path="url(#380389db09)"><g transform="matrix(1, 0, 0, 1, 27, 8)"><g clip-path="url(#2e7fd2767f)"><g fill="#ffffff" fill-opacity="1"><g transform="translate(1.067909, 10.183829)"><g><path d="M 0.34375 -7.25 L 4.09375 -7.25 L 4.09375 -6.3125 L 3.15625 -6.3125 L 3.15625 -0.9375 L 4.09375 -0.9375 L 4.09375 0 L 0.34375 0 L 0.34375 -0.9375 L 1.28125 -0.9375 L 1.28125 -6.3125 L 0.34375 -6.3125 Z M 0.34375 -7.25 "/></g></g></g><g fill="#ffffff" fill-opacity="1"><g transform="translate(5.508594, 10.183829)"><g><path d="M 4.09375 -5.5 C 4.363281 -5.5 4.597656 -5.457031 4.796875 -5.375 C 5.003906 -5.300781 5.171875 -5.195312 5.296875 -5.0625 C 5.429688 -4.9375 5.539062 -4.773438 5.625 -4.578125 C 5.707031 -4.378906 5.765625 -4.164062 5.796875 -3.9375 C 5.828125 -3.707031 5.84375 -3.445312 5.84375 -3.15625 L 5.84375 -0.9375 L 6.421875 -0.9375 L 6.421875 0 L 3.625 0 L 3.625 -0.9375 L 4.203125 -0.9375 L 4.203125 -3.265625 C 4.203125 -3.578125 4.175781 -3.816406 4.125 -3.984375 C 4.070312 -4.160156 3.992188 -4.28125 3.890625 -4.34375 C 3.785156 -4.40625 3.640625 -4.4375 3.453125 -4.4375 C 3.296875 -4.4375 3.128906 -4.367188 2.953125 -4.234375 C 2.785156 -4.097656 2.625 -3.90625 2.46875 -3.65625 L 2.453125 -0.9375 L 3.03125 -0.9375 L 3.03125 0 L 0.234375 0 L 0.234375 -0.9375 L 0.8125 -0.9375 L 0.8125 -4.4375 L 0.234375 -4.4375 L 0.234375 -5.375 L 2.046875 -5.375 L 2.453125 -4.578125 C 2.523438 -4.710938 2.609375 -4.832031 2.703125 -4.9375 C 2.796875 -5.039062 2.910156 -5.132812 3.046875 -5.21875 C 3.179688 -5.3125 3.335938 -5.378906 3.515625 -5.421875 C 3.691406 -5.472656 3.882812 -5.5 4.09375 -5.5 Z M 4.09375 -5.5 "/></g></g></g><g fill="#ffffff" fill-opacity="1"><g transform="translate(12.169621, 10.183829)"><g><path d="M 0.234375 -4.4375 L 0.234375 -5.375 L 1.046875 -5.375 C 1.046875 -6.101562 1.253906 -6.675781 1.671875 -7.09375 C 2.085938 -7.507812 2.695312 -7.71875 3.5 -7.71875 C 3.800781 -7.71875 4.054688 -7.691406 4.265625 -7.640625 C 4.472656 -7.585938 4.628906 -7.519531 4.734375 -7.4375 C 4.847656 -7.351562 4.941406 -7.25 5.015625 -7.125 C 5.097656 -6.988281 5.140625 -6.832031 5.140625 -6.65625 C 5.140625 -6.40625 5.046875 -6.1875 4.859375 -6 C 4.679688 -5.820312 4.460938 -5.734375 4.203125 -5.734375 C 3.941406 -5.734375 3.71875 -5.820312 3.53125 -6 C 3.351562 -6.1875 3.265625 -6.40625 3.265625 -6.65625 C 3.265625 -6.695312 3.269531 -6.738281 3.28125 -6.78125 C 3.28125 -6.78125 3.273438 -6.78125 3.265625 -6.78125 C 3.066406 -6.78125 2.921875 -6.664062 2.828125 -6.4375 C 2.734375 -6.207031 2.6875 -5.851562 2.6875 -5.375 L 4.4375 -5.375 L 4.4375 -4.4375 L 2.6875 -4.4375 L 2.6875 -0.9375 L 3.96875 -0.9375 L 3.96875 0 L 0.46875 0 L 0.46875 -0.9375 L 1.046875 -0.9375 L 1.046875 -4.4375 Z M 0.234375 -4.4375 "/></g></g></g><g fill="#ffffff" fill-opacity="1"><g transform="translate(16.960886, 10.183829)"><g><path d="M 0.234375 -5.375 L 2.046875 -5.375 L 2.421875 -4.671875 C 2.765625 -5.222656 3.25 -5.5 3.875 -5.5 C 4.300781 -5.5 4.640625 -5.367188 4.890625 -5.109375 C 5.140625 -4.847656 5.265625 -4.507812 5.265625 -4.09375 C 5.265625 -3.832031 5.171875 -3.609375 4.984375 -3.421875 C 4.804688 -3.242188 4.585938 -3.15625 4.328125 -3.15625 C 4.066406 -3.15625 3.84375 -3.242188 3.65625 -3.421875 C 3.476562 -3.609375 3.390625 -3.832031 3.390625 -4.09375 C 3.390625 -4.195312 3.40625 -4.296875 3.4375 -4.390625 C 3.382812 -4.421875 3.328125 -4.4375 3.265625 -4.4375 C 3.140625 -4.4375 3.003906 -4.351562 2.859375 -4.1875 C 2.722656 -4.019531 2.59375 -3.765625 2.46875 -3.421875 L 2.453125 -0.9375 L 3.734375 -0.9375 L 3.734375 0 L 0.234375 0 L 0.234375 -0.9375 L 0.8125 -0.9375 L 0.8125 -4.4375 L 0.234375 -4.4375 Z M 0.234375 -5.375 "/></g></g></g><g fill="#ffffff" fill-opacity="1"><g transform="translate(22.453312, 10.183829)"><g><path d="M 5.265625 -3.515625 L 5.265625 -0.9375 L 5.84375 -0.9375 L 5.84375 0 L 4.03125 0 L 3.765625 -0.609375 C 3.566406 -0.328125 3.332031 -0.128906 3.0625 -0.015625 C 2.800781 0.0859375 2.4375 0.140625 1.96875 0.140625 C 1.726562 0.140625 1.503906 0.09375 1.296875 0 C 1.085938 -0.0820312 0.910156 -0.195312 0.765625 -0.34375 C 0.617188 -0.488281 0.503906 -0.660156 0.421875 -0.859375 C 0.335938 -1.066406 0.296875 -1.285156 0.296875 -1.515625 C 0.296875 -1.921875 0.453125 -2.253906 0.765625 -2.515625 C 1.078125 -2.785156 1.476562 -2.921875 1.96875 -2.921875 C 2.363281 -2.921875 2.691406 -2.882812 2.953125 -2.8125 C 3.210938 -2.738281 3.4375 -2.617188 3.625 -2.453125 L 3.625 -3.6875 C 3.625 -3.863281 3.597656 -4.007812 3.546875 -4.125 C 3.503906 -4.25 3.429688 -4.34375 3.328125 -4.40625 C 3.234375 -4.46875 3.128906 -4.507812 3.015625 -4.53125 C 2.898438 -4.5625 2.757812 -4.578125 2.59375 -4.578125 C 2.457031 -4.578125 2.335938 -4.546875 2.234375 -4.484375 C 2.285156 -4.359375 2.3125 -4.226562 2.3125 -4.09375 C 2.3125 -3.832031 2.222656 -3.609375 2.046875 -3.421875 C 1.867188 -3.242188 1.648438 -3.15625 1.390625 -3.15625 C 1.128906 -3.15625 0.90625 -3.242188 0.71875 -3.421875 C 0.539062 -3.609375 0.453125 -3.832031 0.453125 -4.09375 C 0.453125 -4.226562 0.476562 -4.351562 0.53125 -4.46875 C 0.582031 -4.582031 0.65625 -4.679688 0.75 -4.765625 C 0.820312 -4.847656 0.898438 -4.921875 0.984375 -4.984375 C 1.066406 -5.054688 1.171875 -5.125 1.296875 -5.1875 C 1.429688 -5.25 1.570312 -5.300781 1.71875 -5.34375 C 1.863281 -5.394531 2.039062 -5.429688 2.25 -5.453125 C 2.46875 -5.484375 2.703125 -5.5 2.953125 -5.5 C 3.273438 -5.5 3.578125 -5.445312 3.859375 -5.34375 C 4.140625 -5.25 4.382812 -5.117188 4.59375 -4.953125 C 4.800781 -4.785156 4.960938 -4.578125 5.078125 -4.328125 C 5.203125 -4.078125 5.265625 -3.804688 5.265625 -3.515625 Z M 3.625 -1.296875 L 3.625 -1.703125 C 3.5 -1.816406 3.359375 -1.910156 3.203125 -1.984375 C 3.054688 -2.066406 2.921875 -2.109375 2.796875 -2.109375 C 2.515625 -2.109375 2.316406 -2.0625 2.203125 -1.96875 C 2.097656 -1.875 2.046875 -1.722656 2.046875 -1.515625 C 2.046875 -1.273438 2.09375 -1.09375 2.1875 -0.96875 C 2.28125 -0.851562 2.460938 -0.796875 2.734375 -0.796875 C 2.878906 -0.796875 3.03125 -0.84375 3.1875 -0.9375 C 3.351562 -1.039062 3.5 -1.160156 3.625 -1.296875 Z M 3.625 -1.296875 "/></g></g></g><g fill="#ffffff" fill-opacity="1"><g transform="translate(28.588469, 10.183829)"><g><path d="M 2.96875 -7.25 C 3.289062 -7.320312 3.625 -7.359375 3.96875 -7.359375 C 4.320312 -7.359375 4.65625 -7.320312 4.96875 -7.25 C 5.289062 -7.175781 5.578125 -7.070312 5.828125 -6.9375 C 6.085938 -6.8125 6.320312 -6.65625 6.53125 -6.46875 C 6.75 -6.289062 6.9375 -6.09375 7.09375 -5.875 C 7.257812 -5.65625 7.394531 -5.421875 7.5 -5.171875 C 7.613281 -4.929688 7.695312 -4.679688 7.75 -4.421875 C 7.800781 -4.160156 7.828125 -3.894531 7.828125 -3.625 C 7.828125 -3.351562 7.800781 -3.085938 7.75 -2.828125 C 7.695312 -2.566406 7.613281 -2.3125 7.5 -2.0625 C 7.394531 -1.8125 7.257812 -1.578125 7.09375 -1.359375 C 6.9375 -1.140625 6.75 -0.941406 6.53125 -0.765625 C 6.320312 -0.585938 6.085938 -0.429688 5.828125 -0.296875 C 5.578125 -0.171875 5.289062 -0.0703125 4.96875 0 C 4.65625 0.0703125 4.320312 0.109375 3.96875 0.109375 C 3.625 0.109375 3.289062 0.0703125 2.96875 0 C 2.65625 -0.0703125 2.367188 -0.171875 2.109375 -0.296875 C 1.859375 -0.429688 1.625 -0.585938 1.40625 -0.765625 C 1.1875 -0.941406 1 -1.140625 0.84375 -1.359375 C 0.6875 -1.578125 0.550781 -1.8125 0.4375 -2.0625 C 0.332031 -2.3125 0.25 -2.566406 0.1875 -2.828125 C 0.132812 -3.085938 0.109375 -3.351562 0.109375 -3.625 C 0.109375 -3.894531 0.132812 -4.160156 0.1875 -4.421875 C 0.25 -4.679688 0.332031 -4.929688 0.4375 -5.171875 C 0.550781 -5.421875 0.6875 -5.65625 0.84375 -5.875 C 1 -6.09375 1.1875 -6.289062 1.40625 -6.46875 C 1.625 -6.65625 1.859375 -6.8125 2.109375 -6.9375 C 2.367188 -7.070312 2.65625 -7.175781 2.96875 -7.25 Z M 4.609375 -6.28125 C 4.421875 -6.375 4.207031 -6.421875 3.96875 -6.421875 C 3.738281 -6.421875 3.523438 -6.375 3.328125 -6.28125 C 3.128906 -6.1875 2.960938 -6.050781 2.828125 -5.875 C 2.691406 -5.707031 2.578125 -5.503906 2.484375 -5.265625 C 2.398438 -5.035156 2.332031 -4.78125 2.28125 -4.5 C 2.238281 -4.226562 2.21875 -3.9375 2.21875 -3.625 C 2.21875 -3.226562 2.253906 -2.863281 2.328125 -2.53125 C 2.410156 -2.195312 2.519531 -1.898438 2.65625 -1.640625 C 2.800781 -1.390625 2.984375 -1.1875 3.203125 -1.03125 C 3.429688 -0.882812 3.6875 -0.8125 3.96875 -0.8125 C 4.257812 -0.8125 4.515625 -0.882812 4.734375 -1.03125 C 4.960938 -1.1875 5.144531 -1.390625 5.28125 -1.640625 C 5.425781 -1.898438 5.535156 -2.195312 5.609375 -2.53125 C 5.691406 -2.863281 5.734375 -3.226562 5.734375 -3.625 C 5.734375 -3.9375 5.707031 -4.226562 5.65625 -4.5 C 5.613281 -4.78125 5.546875 -5.035156 5.453125 -5.265625 C 5.359375 -5.503906 5.242188 -5.707031 5.109375 -5.875 C 4.972656 -6.050781 4.804688 -6.1875 4.609375 -6.28125 Z M 4.609375 -6.28125 "/></g></g></g><g fill="#ffffff" fill-opacity="1"><g transform="translate(36.534958, 10.183829)"><g><path d="M 1.875 -6.546875 L 2.453125 -6.546875 L 2.453125 -5.375 L 4.09375 -5.375 L 4.09375 -4.4375 L 2.453125 -4.4375 L 2.453125 -1.40625 C 2.453125 -1.269531 2.488281 -1.15625 2.5625 -1.0625 C 2.632812 -0.976562 2.753906 -0.9375 2.921875 -0.9375 C 3.097656 -0.9375 3.25 -0.992188 3.375 -1.109375 C 3.507812 -1.234375 3.59375 -1.410156 3.625 -1.640625 L 4.328125 -1.515625 C 4.296875 -1.285156 4.238281 -1.070312 4.15625 -0.875 C 4.070312 -0.6875 3.960938 -0.515625 3.828125 -0.359375 C 3.703125 -0.210938 3.539062 -0.0976562 3.34375 -0.015625 C 3.144531 0.0664062 2.925781 0.109375 2.6875 0.109375 C 2.101562 0.109375 1.644531 -0.0234375 1.3125 -0.296875 C 0.976562 -0.566406 0.8125 -0.9375 0.8125 -1.40625 L 0.8125 -4.4375 L 0.234375 -4.4375 L 0.234375 -5.375 L 0.34375 -5.375 C 0.644531 -5.375 0.910156 -5.457031 1.140625 -5.625 C 1.367188 -5.800781 1.613281 -6.109375 1.875 -6.546875 Z M 1.875 -6.546875 "/></g></g></g><g fill="#ffffff" fill-opacity="1"><g transform="translate(41.092503, 10.183829)"><g><path d="M 5.265625 -3.515625 L 5.265625 -0.9375 L 5.84375 -0.9375 L 5.84375 0 L 4.03125 0 L 3.765625 -0.609375 C 3.566406 -0.328125 3.332031 -0.128906 3.0625 -0.015625 C 2.800781 0.0859375 2.4375 0.140625 1.96875 0.140625 C 1.726562 0.140625 1.503906 0.09375 1.296875 0 C 1.085938 -0.0820312 0.910156 -0.195312 0.765625 -0.34375 C 0.617188 -0.488281 0.503906 -0.660156 0.421875 -0.859375 C 0.335938 -1.066406 0.296875 -1.285156 0.296875 -1.515625 C 0.296875 -1.921875 0.453125 -2.253906 0.765625 -2.515625 C 1.078125 -2.785156 1.476562 -2.921875 1.96875 -2.921875 C 2.363281 -2.921875 2.691406 -2.882812 2.953125 -2.8125 C 3.210938 -2.738281 3.4375 -2.617188 3.625 -2.453125 L 3.625 -3.6875 C 3.625 -3.863281 3.597656 -4.007812 3.546875 -4.125 C 3.503906 -4.25 3.429688 -4.34375 3.328125 -4.40625 C 3.234375 -4.46875 3.128906 -4.507812 3.015625 -4.53125 C 2.898438 -4.5625 2.757812 -4.578125 2.59375 -4.578125 C 2.457031 -4.578125 2.335938 -4.546875 2.234375 -4.484375 C 2.285156 -4.359375 2.3125 -4.226562 2.3125 -4.09375 C 2.3125 -3.832031 2.222656 -3.609375 2.046875 -3.421875 C 1.867188 -3.242188 1.648438 -3.15625 1.390625 -3.15625 C 1.128906 -3.15625 0.90625 -3.242188 0.71875 -3.421875 C 0.539062 -3.609375 0.453125 -3.832031 0.453125 -4.09375 C 0.453125 -4.226562 0.476562 -4.351562 0.53125 -4.46875 C 0.582031 -4.582031 0.65625 -4.679688 0.75 -4.765625 C 0.820312 -4.847656 0.898438 -4.921875 0.984375 -4.984375 C 1.066406 -5.054688 1.171875 -5.125 1.296875 -5.1875 C 1.429688 -5.25 1.570312 -5.300781 1.71875 -5.34375 C 1.863281 -5.394531 2.039062 -5.429688 2.25 -5.453125 C 2.46875 -5.484375 2.703125 -5.5 2.953125 -5.5 C 3.273438 -5.5 3.578125 -5.445312 3.859375 -5.34375 C 4.140625 -5.25 4.382812 -5.117188 4.59375 -4.953125 C 4.800781 -4.785156 4.960938 -4.578125 5.078125 -4.328125 C 5.203125 -4.078125 5.265625 -3.804688 5.265625 -3.515625 Z M 3.625 -1.296875 L 3.625 -1.703125 C 3.5 -1.816406 3.359375 -1.910156 3.203125 -1.984375 C 3.054688 -2.066406 2.921875 -2.109375 2.796875 -2.109375 C 2.515625 -2.109375 2.316406 -2.0625 2.203125 -1.96875 C 2.097656 -1.875 2.046875 -1.722656 2.046875 -1.515625 C 2.046875 -1.273438 2.09375 -1.09375 2.1875 -0.96875 C 2.28125 -0.851562 2.460938 -0.796875 2.734375 -0.796875 C 2.878906 -0.796875 3.03125 -0.84375 3.1875 -0.9375 C 3.351562 -1.039062 3.5 -1.160156 3.625 -1.296875 Z M 3.625 -1.296875 "/></g></g></g><g fill="#ffffff" fill-opacity="1"><g transform="translate(47.22766, 10.183829)"><g><path d="M 3.5 -4.4375 L 3.5 -5.375 L 6.3125 -5.375 L 6.3125 -4.4375 L 5.546875 -4.4375 L 4.390625 -3.171875 L 5.953125 -0.9375 L 6.421875 -0.9375 L 6.421875 0 L 3.625 0 L 3.625 -0.9375 L 4 -0.9375 L 2.6875 -2.8125 L 4.171875 -4.4375 Z M 0.234375 -7.25 L 2.453125 -7.25 L 2.453125 -0.9375 L 3.03125 -0.9375 L 3.03125 0 L 0.234375 0 L 0.234375 -0.9375 L 0.8125 -0.9375 L 0.8125 -6.3125 L 0.234375 -6.3125 Z M 0.234375 -7.25 "/></g></g></g><g fill="#ffffff" fill-opacity="1"><g transform="translate(53.888687, 10.183829)"><g><path d="M 0.234375 -5.375 L 2.453125 -5.375 L 2.453125 -2.109375 C 2.453125 -1.796875 2.476562 -1.550781 2.53125 -1.375 C 2.59375 -1.207031 2.675781 -1.09375 2.78125 -1.03125 C 2.882812 -0.96875 3.023438 -0.9375 3.203125 -0.9375 C 3.367188 -0.9375 3.535156 -1.003906 3.703125 -1.140625 C 3.878906 -1.273438 4.046875 -1.46875 4.203125 -1.71875 L 4.203125 -4.4375 L 3.625 -4.4375 L 3.625 -5.375 L 5.84375 -5.375 L 5.84375 -0.9375 L 6.421875 -0.9375 L 6.421875 0 L 4.609375 0 L 4.203125 -0.796875 C 3.878906 -0.191406 3.335938 0.109375 2.578125 0.109375 C 2.296875 0.109375 2.050781 0.0703125 1.84375 0 C 1.644531 -0.0703125 1.476562 -0.171875 1.34375 -0.296875 C 1.21875 -0.429688 1.113281 -0.597656 1.03125 -0.796875 C 0.957031 -0.992188 0.898438 -1.207031 0.859375 -1.4375 C 0.828125 -1.664062 0.8125 -1.925781 0.8125 -2.21875 L 0.8125 -4.4375 L 0.234375 -4.4375 Z M 0.234375 -5.375 "/></g></g></g></g></g></g></g></g></svg>