<?xml version="1.0" encoding="UTF-8"?>
<svg version="1.1" xmlns="http://www.w3.org/2000/svg" width="512" height="512">
<path d="M0 0 C4.09327927 2.68539977 5.92497068 5.50736519 7.77734375 10.08203125 C8.17750784 13.49101557 8.12730182 16.86460239 8.0703125 20.29296875 C8.06606766 21.26110504 8.06182281 22.22924133 8.05744934 23.22671509 C8.04072331 26.30377598 8.00308206 29.38016997 7.96484375 32.45703125 C7.94978907 34.54946967 7.93610204 36.64191842 7.92382812 38.734375 C7.89339784 43.85072095 7.83466438 48.96563399 7.77734375 54.08203125 C20.31734375 54.08203125 32.85734375 54.08203125 45.77734375 54.08203125 C45.74253906 51.21515625 45.70773438 48.34828125 45.671875 45.39453125 C45.64843504 42.59782913 45.63024376 39.80113822 45.61254883 37.00439453 C45.597523 35.0704249 45.57709649 33.13648899 45.55102539 31.20263672 C45.51436784 28.41234989 45.49755507 25.62251614 45.484375 22.83203125 C45.46889114 21.97649658 45.45340729 21.12096191 45.43745422 20.23950195 C45.43580497 14.26933919 45.95762506 8.11728852 50.22956848 3.51879883 C55.48957198 -0.97027978 59.04898719 -1.26375446 65.79296875 -1.19921875 C71.09541784 -0.69951151 73.6499903 1.83280175 77.08984375 5.64453125 C79.62691812 9.30919423 79.90768939 12.08945296 79.93847656 16.4362793 C79.94808411 17.53139328 79.95769165 18.62650726 79.96759033 19.75480652 C79.97184021 20.93915787 79.97609009 22.12350922 79.98046875 23.34375 C79.98616882 24.56351028 79.9918689 25.78327057 79.9977417 27.03999329 C80.00719627 29.62487927 80.01372749 32.20977733 80.01757812 34.79467773 C80.02726231 38.73638169 80.05827361 42.67755955 80.08984375 46.61914062 C80.09637601 49.13150732 80.10162561 51.64387775 80.10546875 54.15625 C80.11781555 55.33048019 80.13016235 56.50471039 80.1428833 57.71452332 C80.11886034 66.60676677 78.88434559 73.7795734 72.62109375 80.47265625 C65.74170329 86.47754793 59.23480493 87.62015035 50.26953125 87.2578125 C49.44710937 87.19980469 48.6246875 87.14179687 47.77734375 87.08203125 C47.77734375 89.06203125 47.77734375 91.04203125 47.77734375 93.08203125 C48.71835938 93.035625 49.659375 92.98921875 50.62890625 92.94140625 C60.83949635 92.64544712 60.83949635 92.64544712 65.40234375 94.76953125 C69.88954673 99.13864995 72.58730382 102.23450071 72.90039158 108.573246 C72.89946979 109.51347485 72.89854799 110.45370369 72.89759827 111.42242432 C72.89966026 113.04618988 72.89966026 113.04618988 72.90176392 114.70275879 C72.896371 116.47652893 72.896371 116.47652893 72.89086914 118.28613281 C72.89101517 119.53517395 72.89116119 120.78421509 72.89131165 122.07110596 C72.89073449 125.49227128 72.88572028 128.9133762 72.87873769 132.33453083 C72.87248506 135.9113122 72.87189884 139.48809438 72.87071228 143.06488037 C72.8676046 149.83628786 72.85939879 156.6076792 72.84936279 163.37907958 C72.83818418 171.08881785 72.83268679 178.7985569 72.82766736 186.50830126 C72.81721572 202.36622061 72.79962716 218.22412385 72.77734375 234.08203125 C77.47450138 234.18697427 82.16597208 234.22520452 86.86425781 234.20410156 C88.45878132 234.20603745 90.05339138 234.22557709 91.64746094 234.26367188 C101.16302354 234.70381074 101.16302354 234.70381074 109.52001953 230.89672852 C111.50116796 228.38095899 113.10807265 225.80839965 114.77734375 223.08203125 C126.27972087 212.25873033 139.44481592 209.76296857 154.68359375 209.88671875 C156.0173725 209.89045581 157.35115403 209.8932995 158.68493652 209.89529419 C162.17016376 209.90287619 165.65522035 209.92247689 169.14038086 209.94470215 C172.70684502 209.96527869 176.27333715 209.97432098 179.83984375 209.984375 C186.81907985 210.0057288 193.79820357 210.03979786 200.77734375 210.08203125 C200.77734375 208.43203125 200.77734375 206.78203125 200.77734375 205.08203125 C199.99410736 205.0909137 199.21087097 205.09979614 198.40390015 205.10894775 C190.96192682 205.18965497 183.52017068 205.25027714 176.07787132 205.28927994 C172.2532191 205.31000694 168.4289335 205.33804536 164.60449219 205.38378906 C160.90211091 205.42778721 157.20007847 205.45127971 153.4974556 205.46154022 C152.09668117 205.46883627 150.69592218 205.48307825 149.29529953 205.50495148 C131.17583869 205.7762317 116.21529724 200.43884594 102.41796875 188.69140625 C91.02344965 177.43173353 83.6289355 161.83030361 83.49517822 145.74691772 C83.49765564 144.84075714 83.50013306 143.93459656 83.50268555 143.00097656 C83.49757462 142.02421967 83.49246368 141.04746277 83.48719788 140.04110718 C83.47336451 136.83072683 83.4742543 133.62056276 83.4765625 130.41015625 C83.47267145 128.16347169 83.46833594 125.91678787 83.46357727 123.67010498 C83.45612797 118.96624363 83.4563965 114.26245735 83.46166992 109.55859375 C83.46745531 103.55579437 83.45054951 97.55330446 83.42732525 91.55055618 C83.4125302 86.910891 83.41172418 82.27129929 83.41483498 77.63161469 C83.41432442 75.41982156 83.40913701 73.20802403 83.39902306 70.99625397 C83.30849791 48.42735696 86.82278274 31.95430034 102.796875 14.9296875 C115.51087596 2.64027284 131.59536871 -1.38340035 148.79833984 -1.32202148 C150.17114818 -1.32773756 151.54395178 -1.33470656 152.91674805 -1.34281921 C156.61059922 -1.36061697 160.30421117 -1.35960932 163.99809217 -1.35387683 C167.08993832 -1.35076935 170.18173953 -1.35689375 173.27357924 -1.36291558 C180.56474907 -1.37691141 187.85580157 -1.3754373 195.14697266 -1.36401367 C202.66066531 -1.35250144 210.1740023 -1.36667112 217.68764818 -1.39341015 C224.15501136 -1.41556097 230.62226281 -1.422207 237.08966124 -1.41633373 C240.94568845 -1.41296578 244.80148699 -1.41536996 248.65748215 -1.43258476 C252.27744836 -1.44804519 255.8968852 -1.44410919 259.51683044 -1.42527962 C261.47551292 -1.41983669 263.43421916 -1.43410938 265.39285278 -1.44897461 C266.56181091 -1.43914047 267.73076904 -1.42930634 268.93515015 -1.41917419 C269.94866232 -1.41896491 270.96217449 -1.41875563 272.00639915 -1.41854 C275.52289603 -0.7832847 277.20197816 0.65915419 279.77734375 3.08203125 C283.21547772 8.0673255 282.90770701 15.03461972 283.3125 20.890625 C283.39951172 22.13134766 283.48652344 23.37207031 283.57617188 24.65039062 C283.66318359 25.92720703 283.75019531 27.20402344 283.83984375 28.51953125 C283.97616211 30.47536133 283.97616211 30.47536133 284.11523438 32.47070312 C284.33819739 35.67432959 284.55882875 38.87809883 284.77734375 42.08203125 C286.33263495 42.78568727 287.89699202 43.46932503 289.46484375 44.14453125 C290.77001953 44.71880859 290.77001953 44.71880859 292.1015625 45.3046875 C295.14088552 46.18764411 296.78309342 46.02489613 299.77734375 45.08203125 C301.80362394 43.5013244 301.80362394 43.5013244 303.58984375 41.45703125 C307.45657441 37.39442493 311.47167147 33.67428805 315.77734375 30.08203125 C316.44894531 29.5096875 317.12054688 28.93734375 317.8125 28.34765625 C322.02911234 24.93536881 325.14465819 22.97961879 330.77734375 23.08203125 C337.58280088 25.20719063 341.72583918 29.4021007 346.703125 34.37109375 C347.53192673 35.18895355 348.36072845 36.00681335 349.21464539 36.84945679 C350.95856171 38.57754952 352.69722242 40.31096022 354.4309082 42.04931641 C357.07954672 44.69673895 359.75612516 47.31347014 362.43554688 49.9296875 C364.13069481 51.6166943 365.82411383 53.3054405 367.515625 54.99609375 C368.31454666 55.77143463 369.11346832 56.54677551 369.93659973 57.34561157 C374.65239535 62.14052339 377.54226219 66.18959042 377.77734375 73.08203125 C376.0876778 80.23061797 370.69471094 84.86193097 365.77734375 90.08203125 C363.92775525 92.15155132 362.10057291 94.23697152 360.2890625 96.33984375 C358.98347916 97.84446951 357.6341682 99.31094497 356.27734375 100.76953125 C354.55511522 102.94626924 354.55511522 102.94626924 354.83984375 105.39453125 C355.64170362 107.6931962 356.47891424 109.97157231 357.3359375 112.25 C357.60591553 112.96824951 357.87589355 113.68649902 358.15405273 114.42651367 C358.46258179 115.24599487 358.46258179 115.24599487 358.77734375 116.08203125 C360.32059326 116.18692871 360.32059326 116.18692871 361.89501953 116.29394531 C365.7318905 116.55946447 369.56671629 116.84831348 373.40136719 117.14404297 C375.05747984 117.26852625 376.71407367 117.38677807 378.37109375 117.49853516 C380.76067082 117.66080812 383.14758829 117.84583313 385.53515625 118.03515625 C386.26977081 118.08013245 387.00438538 118.12510864 387.76126099 118.17144775 C392.78317297 118.60000928 395.87749761 119.91108059 399.77734375 123.08203125 C402.63545277 127.36919478 402.90050391 131.15334329 402.92260742 136.22021484 C402.9321772 137.71734512 402.9321772 137.71734512 402.94194031 139.24472046 C402.94360954 140.84641586 402.94360954 140.84641586 402.9453125 142.48046875 C402.9486409 143.58879059 402.9519693 144.69711243 402.95539856 145.83901978 C402.96045523 148.18076157 402.96280727 150.52251056 402.96264648 152.86425781 C402.96483148 156.43697038 402.98299677 160.00937334 403.00195312 163.58203125 C403.00488764 165.86067603 403.00687205 168.13932227 403.0078125 170.41796875 C403.01499802 171.48171722 403.02218353 172.5454657 403.02958679 173.64144897 C402.99115893 186.18654278 402.99115893 186.18654278 399.4453125 190.82421875 C393.96120578 195.02050094 389.25987749 195.20039336 382.5078125 195.6171875 C381.82680984 195.66016464 381.14580719 195.70314178 380.44416809 195.74742126 C378.28457798 195.88297985 376.12473248 196.01382585 373.96484375 196.14453125 C372.49412119 196.23601625 371.0234178 196.32780988 369.55273438 196.41992188 C365.96115234 196.6441971 362.36932601 196.8642489 358.77734375 197.08203125 C358.07368773 198.63732245 357.39004997 200.20167952 356.71484375 201.76953125 C356.33199219 202.63964844 355.94914062 203.50976562 355.5546875 204.40625 C354.67345986 207.43962152 354.8479654 209.09153672 355.77734375 212.08203125 C357.12910747 213.87837423 357.12910747 213.87837423 358.90234375 215.39453125 C362.80530357 219.08243002 366.31930346 222.9765605 369.77734375 227.08203125 C370.42445313 227.82839844 371.0715625 228.57476562 371.73828125 229.34375 C375.43641417 233.78905671 378.00106895 237.04145077 377.77734375 243.08203125 C375.64344166 249.94100226 371.39019681 254.03607863 366.34765625 259.0078125 C365.52030975 259.83661423 364.69296326 260.66541595 363.84054565 261.51933289 C362.09529641 263.26292708 360.34511252 265.00159424 358.59033203 266.7355957 C355.90619473 269.39072189 353.24127016 272.06407071 350.578125 274.74023438 C348.87741342 276.4347099 347.17562648 278.12810695 345.47265625 279.8203125 C344.67667023 280.61923416 343.8806842 281.41815582 343.06057739 282.24128723 C342.30984955 282.9793309 341.5591217 283.71737457 340.78564453 284.4777832 C340.13073029 285.12729446 339.47581604 285.77680573 338.80105591 286.44599915 C335.25167813 289.31542698 332.51314331 290.08203125 327.96484375 290.08203125 C319.26597649 288.59725242 312.84903894 280.48633674 306.70068359 274.66503906 C302.47186372 270.58699105 302.47186372 270.58699105 297.77734375 267.08203125 C293.02432006 267.3536326 288.26299284 269.52817895 283.77734375 271.08203125 C283.78894531 271.67886719 283.80054688 272.27570313 283.8125 272.890625 C284.1201696 302.47085929 284.1201696 302.47085929 279.02734375 311.01953125 C273.46712168 316.11640148 266.48354018 315.32581261 259.40234375 315.20703125 C258.38011719 315.19800781 257.35789062 315.18898438 256.3046875 315.1796875 C253.79532853 315.15623555 251.28646039 315.1234148 248.77734375 315.08203125 C249.10734375 317.39203125 249.43734375 319.70203125 249.77734375 322.08203125 C250.78796875 321.83453125 251.79859375 321.58703125 252.83984375 321.33203125 C257.66938039 321.025394 260.10109601 322.17523071 263.77734375 325.08203125 C266.53871601 327.72902715 269.27007424 330.38703724 271.93359375 333.1328125 C274.73274078 335.47565384 274.73274078 335.47565384 278.62109375 334.875 C279.66265625 334.61332031 280.70421875 334.35164063 281.77734375 334.08203125 C281.76574219 333.41558594 281.75414062 332.74914062 281.7421875 332.0625 C281.56570706 314.03628397 281.56570706 314.03628397 284.71484375 308.95703125 C288.60529638 305.42025613 292.30701313 305.88859582 297.328125 305.84375 C298.17908249 305.83567825 299.03003998 305.82760651 299.90678406 305.81929016 C301.70988934 305.80544831 303.51302084 305.7947266 305.31616211 305.78686523 C308.06870442 305.76966336 310.82004213 305.72578076 313.57226562 305.68164062 C315.32420992 305.67151262 317.07616442 305.66299685 318.828125 305.65625 C319.64912186 305.63874191 320.47011871 305.62123383 321.31599426 305.60319519 C325.29330251 305.61822909 327.30679051 305.79325915 330.77416992 307.92114258 C333.71687462 311.09553371 333.91713845 313.8057634 334.09375 317.96875 C334.13564453 318.90654297 334.17753906 319.84433594 334.22070312 320.81054688 C334.27967773 322.27524414 334.27967773 322.27524414 334.33984375 323.76953125 C334.38302734 324.75759766 334.42621094 325.74566406 334.47070312 326.76367188 C334.57676029 329.20298671 334.67882089 331.64240238 334.77734375 334.08203125 C337.95814585 335.10251986 337.95814585 335.10251986 341.77734375 335.08203125 C344.38932347 333.5441297 346.33301643 331.46509743 348.40234375 329.26953125 C355.48294436 322.01358558 355.48294436 322.01358558 359.77734375 321.08203125 C365.90130753 321.30611224 368.96577045 323.378441 373.11328125 327.62109375 C373.67810211 328.18017426 374.24292297 328.73925476 374.82485962 329.3152771 C376.01025315 330.4966034 377.18816639 331.68547828 378.35888672 332.88134766 C380.14729907 334.70189593 381.96547634 336.48820123 383.7890625 338.2734375 C384.94073068 339.4290708 386.09053608 340.58656412 387.23828125 341.74609375 C387.77987885 342.27554596 388.32147644 342.80499817 388.87948608 343.35049438 C392.49121387 347.09942356 393.64123995 349.89201657 393.77734375 355.08203125 C391.76667738 360.80077437 387.77645382 364.44437232 383.453125 368.49414062 C381.73753974 370.15044622 381.73753974 370.15044622 379.77734375 373.08203125 C379.80708367 376.87311537 379.80708367 376.87311537 380.77734375 380.08203125 C381.38731201 380.09661377 381.99728027 380.11119629 382.62573242 380.1262207 C385.40605439 380.200979 388.18521199 380.29754607 390.96484375 380.39453125 C391.92455078 380.41708984 392.88425781 380.43964844 393.87304688 380.46289062 C402.89467717 380.80627448 402.89467717 380.80627448 406.77734375 384.08203125 C409.36139284 387.95810488 409.10109916 391.23174859 409.11328125 395.73046875 C409.11993805 396.58001129 409.12659485 397.42955383 409.13345337 398.30484009 C409.14357681 400.10196773 409.14827048 401.89913294 409.14794922 403.69628906 C409.15231678 406.44008692 409.1886224 409.18226863 409.2265625 411.92578125 C409.23243194 413.67317159 409.23640048 415.42056956 409.23828125 417.16796875 C409.2598378 418.39475845 409.2598378 418.39475845 409.28182983 419.64633179 C409.24983653 423.65376858 409.07670041 425.61115298 406.87353516 429.07666016 C400.65715371 435.02370851 388.84361756 433.22244994 380.77734375 433.08203125 C379.80708367 436.29094713 379.80708367 436.29094713 379.77734375 440.08203125 C381.48308095 442.48034615 382.92334604 444.17366491 385.02734375 446.14453125 C388.80545623 449.82118547 391.98578472 452.98647388 393.77734375 458.08203125 C393.65388085 463.47564178 392.41986113 466.12514052 388.75123596 469.81356812 C387.91531166 470.60774643 387.91531166 470.60774643 387.0625 471.41796875 C386.49156113 471.98278961 385.92062225 472.54761047 385.3323822 473.12954712 C383.51517332 474.91993447 381.67790281 476.68808301 379.83984375 478.45703125 C378.60740681 479.66793172 377.37627194 480.88015892 376.14648438 482.09375 C366.04331866 492.00805619 366.04331866 492.00805619 362.86376953 492.19384766 C356.08179536 491.78906273 353.12229627 489.36884115 348.65234375 484.45703125 C345.48806951 480.95573437 345.48806951 480.95573437 341.77734375 478.08203125 C337.94345537 478.01336954 337.94345537 478.01336954 334.77734375 479.08203125 C334.77323486 479.71705566 334.76912598 480.35208008 334.76489258 481.00634766 C334.73182277 483.90749602 334.66116629 486.80658139 334.58984375 489.70703125 C334.58114258 491.20556641 334.58114258 491.20556641 334.57226562 492.734375 C334.54326172 493.70761719 334.51425781 494.68085938 334.484375 495.68359375 C334.46866455 496.57385254 334.4529541 497.46411133 334.43676758 498.38134766 C333.51357703 502.16229318 331.91360871 504.81754486 328.77734375 507.08203125 C325.67667179 507.94408155 322.69946516 507.92439283 319.49609375 507.87890625 C318.15943665 507.88751678 318.15943665 507.88751678 316.79577637 507.89630127 C314.91639659 507.90037453 313.03693126 507.88936984 311.15771484 507.86425781 C308.28550155 507.83212252 305.41891388 507.86396461 302.546875 507.90234375 C300.71743553 507.89837872 298.88799956 507.89069099 297.05859375 507.87890625 C296.2032605 507.89105164 295.34792725 507.90319702 294.4666748 507.91571045 C288.73468188 507.78092953 288.73468188 507.78092953 286.12409973 505.87509155 C283.34736288 502.79377622 282.12886124 499.98619789 281.8515625 495.90234375 C281.77744141 494.97421875 281.70332031 494.04609375 281.62695312 493.08984375 C281.57345703 492.13851563 281.51996094 491.1871875 281.46484375 490.20703125 C281.39201172 489.2325 281.31917969 488.25796875 281.24414062 487.25390625 C281.06840787 484.86394079 280.91344754 482.47452552 280.77734375 480.08203125 C278.79734375 479.42203125 276.81734375 478.76203125 274.77734375 478.08203125 C273.8853125 478.92507813 272.99328125 479.768125 272.07421875 480.63671875 C270.89215392 481.74373185 269.70984966 482.85048932 268.52734375 483.95703125 C267.64755859 484.79041016 267.64755859 484.79041016 266.75 485.640625 C266.17636719 486.17558594 265.60273438 486.71054687 265.01171875 487.26171875 C264.48803711 487.75397949 263.96435547 488.24624023 263.42480469 488.75341797 C259.60739273 491.8320125 256.66096041 492.40052799 251.77734375 492.08203125 C251.11734375 491.75203125 250.45734375 491.42203125 249.77734375 491.08203125 C249.72835938 492.06945312 249.679375 493.056875 249.62890625 494.07421875 C249.55414063 495.35554688 249.479375 496.636875 249.40234375 497.95703125 C249.33273437 499.23320312 249.263125 500.509375 249.19140625 501.82421875 C248.77734375 505.08203125 248.77734375 505.08203125 246.77734375 507.08203125 C244.90653324 507.33930016 244.90653324 507.33930016 242.58668518 507.34945679 C241.26855583 507.36225174 241.26855583 507.36225174 239.92379761 507.37530518 C238.95709137 507.3743988 237.99038513 507.37349243 236.99438477 507.37255859 C235.97788345 507.37927582 234.96138214 507.38599304 233.91407776 507.39291382 C230.53641937 507.41198729 227.15895898 507.41582377 223.78125 507.41796875 C221.43391335 507.42439395 219.08657751 507.4311221 216.73924255 507.43814087 C211.8070185 507.45013966 206.87486458 507.4538194 201.94262695 507.45263672 C195.64130263 507.45243424 189.34043295 507.47965097 183.03921604 507.51418114 C178.18425969 507.53649937 173.32941149 507.54047262 168.4744091 507.53941727 C166.15292747 507.54176909 163.83144267 507.55056888 161.51001167 507.566082 C158.24797707 507.58582556 154.98690588 507.57986891 151.72485352 507.56787109 C150.77636536 507.57911011 149.8278772 507.59034912 148.85064697 507.60192871 C137.33640215 507.49509386 126.16335576 502.80781386 117.5859375 495.1171875 C108.36293366 485.43915881 103.57570582 473.49545149 103.38256836 460.19970703 C103.36435846 459.45182608 103.34614857 458.70394512 103.32738686 457.93340111 C103.26948446 455.46482282 103.22451163 452.99619133 103.1796875 450.52734375 C103.14113824 448.76686953 103.10180884 447.00641225 103.06175232 445.24597168 C102.95697059 440.53864307 102.86350524 435.83115324 102.77239227 431.12354279 C102.67639531 426.25849587 102.57013497 421.39367225 102.46533203 416.52880859 C102.22055125 405.04684222 101.99534556 393.56453428 101.77734375 382.08203125 C101.76137901 381.24258972 101.74541428 380.40314819 101.72896576 379.53826904 C101.37821303 361.05339951 101.05774677 342.56811317 100.77734375 324.08203125 C99.79143753 324.0909137 98.80553131 324.09979614 97.78974915 324.10894775 C88.44911253 324.19041752 79.10854903 324.25017956 69.7676363 324.28927994 C64.96660236 324.3100584 60.16585773 324.33819561 55.36499023 324.38378906 C50.72246183 324.42759741 46.0802098 324.45124139 41.43749046 324.46154022 C39.67585087 324.46886935 37.91422453 324.48317941 36.15270424 324.50495148 C19.91578549 324.69745711 6.86994151 322.48165134 -5.44140625 311.015625 C-14.33825929 301.73700401 -18.45744564 290.09236941 -18.49008179 277.34033203 C-18.4946129 276.60410173 -18.49914401 275.86787144 -18.50381243 275.10933113 C-18.51637869 272.66526983 -18.51484117 270.22143359 -18.51318359 267.77734375 C-18.51917354 266.01576453 -18.52598015 264.25418793 -18.53353882 262.49261475 C-18.55115424 257.72409423 -18.55589219 252.95564556 -18.55717039 248.18709564 C-18.55859457 245.20530964 -18.56286913 242.22354175 -18.56816483 239.24176025 C-18.58664723 228.83238571 -18.59483729 218.42306229 -18.59326172 208.01367188 C-18.59205938 198.32058394 -18.61318441 188.62771833 -18.64474905 178.93468666 C-18.67091551 170.60154997 -18.68162892 162.26848591 -18.6803509 153.93530846 C-18.67984157 148.9629979 -18.68550952 143.99088524 -18.706707 139.01861572 C-18.72609672 134.34322135 -18.72620886 129.66821363 -18.71167374 124.99280548 C-18.70958576 123.28039229 -18.71428586 121.56795484 -18.72639465 119.85558319 C-18.83343472 103.66600098 -18.83343472 103.66600098 -14.22265625 97.08203125 C-8.17341795 91.93374334 -1.87756863 92.66762998 5.77734375 93.08203125 C5.77734375 91.10203125 5.77734375 89.12203125 5.77734375 87.08203125 C5.02710937 87.14003906 4.276875 87.19804688 3.50390625 87.2578125 C-5.10431708 87.63726819 -11.51772496 86.26971851 -18.0703125 80.4375 C-25.21956115 72.65588537 -25.68099724 65.16223123 -25.65625 54.95703125 C-25.66149185 53.69616699 -25.6667337 52.43530273 -25.6721344 51.13623047 C-25.67854365 48.47656766 -25.67868095 45.81776747 -25.66870117 43.15820312 C-25.65720472 39.76542617 -25.67744838 36.37368905 -25.70661831 32.98104858 C-25.72946667 29.72303829 -25.72251031 26.46510283 -25.71875 23.20703125 C-25.72998398 21.99644043 -25.74121796 20.78584961 -25.75279236 19.53857422 C-25.69757074 12.83918142 -25.33064877 8.47688161 -21.22265625 3.08203125 C-15.2390063 -1.77968434 -7.27492307 -3.00458158 0 0 Z M248.77734375 117.08203125 C248.77734375 143.15203125 248.77734375 169.22203125 248.77734375 196.08203125 C260.85385063 193.39836305 268.93558806 189.86097955 276.77734375 180.08203125 C282.94456188 170.22952424 285.33859158 159.96408824 283.3125 148.4375 C280.50682767 137.89547675 274.70698585 129.36068585 265.77734375 123.08203125 C260.08892791 119.90599907 255.2424882 118.15955532 248.77734375 117.08203125 Z M290.4375 391.2734375 C285.48569574 396.66799132 284.48629851 402.94172135 284.77734375 410.08203125 C286.17156947 416.83715304 289.24067482 421.43409966 294.6328125 425.67578125 C300.05573565 429.23179643 305.2540098 430.86933018 311.77734375 430.08203125 C319.38201984 428.12548837 324.58620645 424.78553538 328.77734375 418.08203125 C331.83785866 411.88911014 332.24944545 406.40235887 330.703125 399.6953125 C328.36541347 393.09645591 323.97507173 388.3048498 317.77734375 385.08203125 C307.05928032 381.46780056 298.51623662 383.54804523 290.4375 391.2734375 Z " fill="#3863CC" transform="translate(62.22265625,2.91796875)"/>
<path d="M0 0 C1.2325074 -0.002062 1.2325074 -0.002062 2.48991394 -0.00416565 C3.38255447 -0.00057037 4.27519501 0.0030249 5.19488525 0.00672913 C6.61490593 0.00651009 6.61490593 0.00651009 8.06361389 0.00628662 C11.19105322 0.00698299 14.3184329 0.01476253 17.44586182 0.02259827 C19.61490852 0.02446342 21.78395565 0.02588687 23.95300293 0.02688599 C29.66090051 0.03070346 35.36877263 0.0405272 41.07666016 0.05158997 C46.90154679 0.06182062 52.72643754 0.06638716 58.55133057 0.07142639 C69.97972897 0.08215013 81.40810179 0.09974074 92.83648682 0.12025452 C92.83648682 12.33025452 92.83648682 24.54025452 92.83648682 37.12025452 C87.44304932 37.15763733 82.04961182 37.19502014 76.49273682 37.23353577 C73.06562219 37.26382978 69.6385586 37.29498695 66.21148682 37.32923889 C60.77791993 37.38346303 55.34445399 37.43457687 49.91070557 37.46669006 C45.52739847 37.49279583 41.14443241 37.53324915 36.76133728 37.58344078 C35.09334064 37.60006047 33.42528508 37.61160514 31.75721741 37.61786842 C29.41153639 37.62756326 27.0667183 37.65568468 24.72125244 37.68788147 C23.69841156 37.68572884 23.69841156 37.68572884 22.65490723 37.68353271 C14.73902654 37.83611472 8.38028805 40.4504578 2.83648682 46.12025452 C-0.99752103 51.86467223 -1.74830911 56.98712478 -1.69696045 63.77406311 C-1.70557602 64.70526474 -1.71419159 65.63646637 -1.72306824 66.59588623 C-1.74564685 69.65377636 -1.73900337 72.71074384 -1.72991943 75.76869202 C-1.73515913 77.90806854 -1.74143687 80.04744275 -1.748703 82.18681335 C-1.75909271 86.66376133 -1.75456692 91.14039119 -1.7399292 95.61732483 C-1.72275648 101.33583921 -1.74622623 107.05334737 -1.7814188 112.7717495 C-1.80345112 117.18834509 -1.80193694 121.60470216 -1.79365349 126.0213356 C-1.79283693 128.12872546 -1.79964351 130.23613335 -1.81442451 132.34347153 C-2.40786293 147.63853765 -2.40786293 147.63853765 3.83648682 161.12025452 C9.27698789 166.19027401 14.21713686 167.26851657 21.42901611 167.32557678 C22.21244039 167.3356095 22.99586466 167.34564222 23.80302906 167.35597897 C26.33889115 167.38736046 28.87476888 167.41213368 31.41070557 167.43666077 C32.97634389 167.45506453 34.54197718 167.47390123 36.10760498 167.49317932 C41.91300607 167.56162153 47.71850357 167.62167781 53.52398682 167.68275452 C66.49711182 167.82712952 79.47023682 167.97150452 92.83648682 168.12025452 C92.83648682 205.41025452 92.83648682 242.70025452 92.83648682 281.12025452 C77.07898682 281.22337952 61.32148682 281.32650452 45.08648682 281.43275452 C37.65423584 281.50103455 37.65423584 281.50103455 30.07183838 281.57069397 C23.96881104 281.59327698 23.96881104 281.59327698 21.1015625 281.59747314 C19.12119918 281.60509478 17.14085743 281.62256231 15.16064453 281.64813232 C0.20137444 281.8314531 -11.25640865 281.09571312 -23.19866943 271.05384827 C-32.53516564 261.86584504 -35.57496278 250.04669668 -35.74363708 237.26171875 C-35.74198954 235.92810524 -35.74001203 234.5944921 -35.73773193 233.26087952 C-35.74990684 231.84135338 -35.76389267 230.42184178 -35.77955627 229.00234985 C-35.80916597 226.00796799 -35.82717465 223.01384926 -35.83538818 220.01933289 C-35.84850791 215.30625053 -35.88826395 210.59362754 -35.93304443 205.88075256 C-35.976748 201.18864962 -36.01963975 196.49656818 -36.05349731 191.80438232 C-36.12823878 181.57369665 -36.29330792 171.35011535 -36.5982666 161.12358093 C-37.35458406 135.72822353 -37.69307441 110.32136003 -38.00842285 84.91729736 C-38.09887863 77.67611746 -38.20826464 70.43578783 -38.34751892 63.19537354 C-38.41595391 59.40174312 -38.46373167 55.60809052 -38.50454712 51.81407166 C-38.52677016 50.13336685 -38.55761408 48.45274838 -38.59811401 46.77238464 C-38.86412027 35.46835345 -37.60885691 26.39245184 -30.88226318 16.90150452 C-30.15007568 16.14869202 -29.41788818 15.39587952 -28.66351318 14.62025452 C-27.93132568 13.84681702 -27.19913818 13.07337952 -26.44476318 12.27650452 C-22.43120276 8.48286521 -18.6678198 5.66665952 -13.60101318 3.43275452 C-12.67159912 3.01638733 -11.74218506 2.60002014 -10.78460693 2.17103577 C-7.10947171 0.69769542 -3.95872999 -0.00512789 0 0 Z " fill="#DFEAFB" transform="translate(209.16351318359375,220.87974548339844)"/>
<path d="M0 0 C1.39120471 0.00015906 2.78241534 0.00585033 4.17358398 0.01586914 C4.90463852 0.01728409 5.63569305 0.01869904 6.38890076 0.02015686 C8.73253406 0.02577131 11.07607313 0.03832617 13.41967773 0.05102539 C15.00496282 0.05603853 16.59024939 0.06060176 18.17553711 0.06469727 C22.06945383 0.07574542 25.96329979 0.09301967 29.85717773 0.11352539 C30.81098516 5.53268917 31.16831742 10.87919033 31.37475586 16.36743164 C31.55212036 21.60068189 31.55212036 21.60068189 33.85717773 26.11352539 C36.52289136 27.76142196 36.52289136 27.76142196 39.66967773 28.98852539 C40.70737305 29.43969727 41.74506836 29.89086914 42.81420898 30.35571289 C46.52926661 31.28090054 47.59368448 31.06859024 50.85717773 29.11352539 C53.76959454 26.69288714 56.43124215 24.02364601 59.12866211 21.36938477 C59.95527344 20.57564453 59.95527344 20.57564453 60.79858398 19.76586914 C61.29044189 19.28110107 61.7822998 18.79633301 62.2890625 18.296875 C64.28662164 16.78945336 65.32615553 16.17079881 67.85717773 16.11352539 C70.34667969 17.95605469 70.34667969 17.95605469 73.09545898 20.68774414 C73.58048386 21.16798538 74.06550873 21.64822662 74.56523132 22.14302063 C75.58740807 23.1617947 76.60329652 24.1869113 77.61328125 25.21777344 C79.1641571 26.7954095 80.73986695 28.34462369 82.32006836 29.89282227 C83.30930573 30.88536367 84.29699095 31.87945498 85.28295898 32.87524414 C86.63514526 34.23588989 86.63514526 34.23588989 88.01464844 35.62402344 C89.85717773 38.11352539 89.85717773 38.11352539 89.72949219 40.34057617 C88.68034879 42.47292416 87.49140544 43.70352041 85.73217773 45.30102539 C85.11600586 45.91204102 84.49983398 46.52305664 83.86499023 47.15258789 C82.49410445 48.49146855 81.09098103 49.79792174 79.66186523 51.07446289 C77.38327629 53.40503486 75.98981326 55.0424267 74.85717773 58.11352539 C75.82224315 63.87901297 77.64589256 69.90224021 81.85717773 74.11352539 C84.79643802 74.39749775 87.66136024 74.58047277 90.60717773 74.67602539 C92.20626023 74.73663578 93.80522756 74.80037565 95.40405273 74.86743164 C96.11400391 74.89135986 96.82395508 74.91528809 97.55541992 74.93994141 C100.36003951 75.15144804 103.08955633 75.62072592 105.85717773 76.11352539 C105.88183062 80.79491793 105.90001513 85.47627298 105.91210938 90.15771484 C105.91714931 91.75147154 105.92398123 93.34522358 105.93261719 94.93896484 C105.94469772 97.22502792 105.95040929 99.51103006 105.95483398 101.79711914 C105.95999527 102.51379257 105.96515656 103.230466 105.97047424 103.96885681 C105.97067036 105.68416211 105.91909781 107.39933805 105.85717773 109.11352539 C104.33708147 110.63362166 102.93286903 110.29225569 100.81420898 110.35961914 C99.98727539 110.39249023 99.1603418 110.42536133 98.30834961 110.45922852 C96.56887541 110.51974316 94.82928839 110.57710863 93.08959961 110.63110352 C86.26667218 110.90532347 86.26667218 110.90532347 79.85717773 113.11352539 C78.28756745 115.25250346 78.28756745 115.25250346 77.48217773 117.86352539 C77.00651367 119.12422852 77.00651367 119.12422852 76.52124023 120.41040039 C75.7305321 123.62904762 75.35490518 125.81108337 75.85717773 129.11352539 C77.54001616 131.58283473 79.59393352 133.59894377 81.73217773 135.67602539 C82.84018479 136.7750347 83.94195579 137.88037301 85.03686523 138.99243164 C85.52912598 139.47268799 86.02138672 139.95294434 86.52856445 140.44775391 C88.17847536 142.51635775 88.97122509 144.63448599 89.85717773 147.11352539 C86.81327749 150.28089887 83.75336797 153.43161573 80.67749023 156.56787109 C79.63320629 157.63732046 78.59345104 158.71121135 77.55834961 159.78955078 C76.07065845 161.33780408 74.56747547 162.86941675 73.06030273 164.39868164 C71.7092041 165.7890564 71.7092041 165.7890564 70.33081055 167.20751953 C67.85717773 169.11352539 67.85717773 169.11352539 65.73461914 169.09204102 C63.64454556 168.00270227 62.26272821 166.85736292 60.61499023 165.17211914 C60.02331055 164.58881836 59.43163086 164.00551758 58.82202148 163.40454102 C57.5973693 162.17078844 56.3785731 160.93119482 55.16577148 159.68579102 C51.53931658 156.09685435 51.53931658 156.09685435 46.77514648 154.56274414 C43.57945938 155.16594612 40.98369298 156.09741831 38.04467773 157.48852539 C37.08948242 157.92938477 36.13428711 158.37024414 35.15014648 158.82446289 C32.72838026 159.90402838 32.72838026 159.90402838 31.85717773 162.11352539 C31.64804064 164.86716381 31.48230929 167.60599663 31.35717773 170.36352539 C31.28746124 171.86888534 31.2145994 173.37410327 31.13842773 174.87915039 C31.10813477 175.54720703 31.0778418 176.21526367 31.04663086 176.90356445 C30.8104429 179.65868483 30.31177804 182.38592359 29.85717773 185.11352539 C18.96717773 185.11352539 8.07717773 185.11352539 -3.14282227 185.11352539 C-4.27624877 182.84667238 -4.32361577 181.4230842 -4.42407227 178.90258789 C-4.48014648 177.65348633 -4.48014648 177.65348633 -4.53735352 176.37915039 C-4.58956055 175.07204102 -4.58956055 175.07204102 -4.64282227 173.73852539 C-4.71198664 172.02222424 -4.78477701 170.30606454 -4.86157227 168.59008789 C-4.89186523 167.82776855 -4.9221582 167.06544922 -4.95336914 166.2800293 C-5.14454046 164.09387684 -5.42628531 162.18960946 -6.14282227 160.11352539 C-8.46066373 158.52540691 -8.46066373 158.52540691 -11.33032227 157.36352539 C-12.27262695 156.93555664 -13.21493164 156.50758789 -14.18579102 156.06665039 C-17.63759501 154.95404778 -19.54963203 154.44177464 -23.14282227 155.11352539 C-25.96440642 157.19354666 -28.34107491 159.65501196 -30.76782227 162.17602539 C-32.06114016 163.51135066 -33.36539817 164.83619247 -34.68188477 166.14868164 C-35.53580811 167.03632202 -35.53580811 167.03632202 -36.40698242 167.94189453 C-38.14282227 169.11352539 -38.14282227 169.11352539 -40.10913086 169.04882812 C-42.81221348 167.80566972 -44.24609826 166.41222821 -46.14282227 164.11352539 C-46.64898014 161.40201664 -46.64898014 161.40201664 -46.65748596 158.23731995 C-46.67021042 157.03582306 -46.68293488 155.83432617 -46.69604492 154.59642029 C-46.68951904 153.28150101 -46.68299316 151.96658173 -46.67626953 150.61181641 C-46.68332826 149.21048066 -46.69207308 147.80915255 -46.70237732 146.40783691 C-46.72488753 142.60401553 -46.72192787 138.8006099 -46.71305585 134.99674726 C-46.70794697 131.82073958 -46.71523774 128.64481012 -46.72252792 125.4688105 C-46.7395323 117.97588232 -46.735956 110.48315776 -46.71923828 102.99023438 C-46.70231696 95.261327 -46.71814999 87.5329844 -46.75046116 79.80413872 C-46.77715647 73.16704968 -46.78443325 66.53013645 -46.77594608 59.89299911 C-46.77101652 55.92951579 -46.77323355 51.96637228 -46.7937336 48.00293159 C-46.8120901 44.27543466 -46.80613368 40.54874998 -46.78153419 36.82129669 C-46.77413931 34.80290972 -46.79138221 32.78447954 -46.80935669 30.76615906 C-46.7057727 20.90774961 -46.7057727 20.90774961 -43.6033783 17.76158142 C-42.79139481 17.21772293 -41.97941132 16.67386444 -41.14282227 16.11352539 C-37.49181263 17.10925529 -35.39630057 18.69749747 -32.83032227 21.36352539 C-27.58816305 27.04322868 -27.58816305 27.04322868 -21.14282227 31.11352539 C-17.77464787 30.83284419 -15.13720199 29.62176462 -12.14282227 28.11352539 C-10.98782227 27.61852539 -9.83282227 27.12352539 -8.64282227 26.61352539 C-5.84454289 25.30333954 -5.84454289 25.30333954 -5.14282227 22.11352539 C-5.00705147 20.49932256 -4.91874903 18.88085612 -4.86157227 17.26196289 C-4.82418945 16.32868164 -4.78680664 15.39540039 -4.74829102 14.43383789 C-4.67769912 12.46249371 -4.60738882 10.49113942 -4.53735352 8.51977539 C-4.4999707 7.58907227 -4.46258789 6.65836914 -4.42407227 5.69946289 C-4.3937793 4.84400879 -4.36348633 3.98855469 -4.33227539 3.10717773 C-4.01582203 -0.22292301 -3.44430869 0.12441572 0 0 Z M-4.48266602 77.30493164 C-9.43447028 82.69948546 -10.43386751 88.97321549 -10.14282227 96.11352539 C-8.74859655 102.86864718 -5.6794912 107.4655938 -0.28735352 111.70727539 C5.13556964 115.26329057 10.33384378 116.90082432 16.85717773 116.11352539 C24.46185383 114.15698251 29.66604044 110.81702952 33.85717773 104.11352539 C36.91769264 97.92060428 37.32927943 92.43385301 35.78295898 85.72680664 C33.44524746 79.12795005 29.05490571 74.33634394 22.85717773 71.11352539 C12.13911431 67.4992947 3.5960706 69.57953937 -4.48266602 77.30493164 Z " fill="#4570C6" transform="translate(357.142822265625,316.886474609375)"/>
<path d="M0 0 C7.26 0 14.52 0 22 0 C25.6917285 3.6917285 25.45092652 4.98661548 25.6953125 10.08203125 C25.73308807 10.7738298 25.77086365 11.46562836 25.80978394 12.1783905 C25.92811532 14.38931324 26.02729136 16.60057846 26.125 18.8125 C26.2335359 21.0133668 26.34607152 23.21396608 26.4616394 25.41447449 C26.56511964 27.41894275 26.65808231 29.42394578 26.75048828 31.42895508 C27.05585287 36.26737973 27.05585287 36.26737973 28 41 C29.74866906 42.54711441 29.74866906 42.54711441 32.078125 43.37109375 C32.90957031 43.71720703 33.74101562 44.06332031 34.59765625 44.41992188 C35.91056641 44.92362305 35.91056641 44.92362305 37.25 45.4375 C38.53970703 45.98180664 38.53970703 45.98180664 39.85546875 46.53710938 C44.38936456 48.36394104 47.16534985 49.43462172 52 48 C54.40749276 46.25722972 54.40749276 46.25722972 56.6875 44 C57.98494141 42.78570312 57.98494141 42.78570312 59.30859375 41.546875 C60.19675781 40.70640625 61.08492188 39.8659375 62 39 C64.57040369 36.65983805 67.15407748 34.3357148 69.74609375 32.01953125 C71.10515424 30.80179421 72.45470736 29.57315217 73.78515625 28.32421875 C75.97115289 26.33949035 77.44887436 25.07478597 80.42021179 24.67158508 C83.66105667 25.08415453 84.66384728 26.03103495 86.96411133 28.31713867 C88.07469658 29.40408272 88.07469658 29.40408272 89.2077179 30.51298523 C89.9912413 31.30662979 90.77476471 32.10027435 91.58203125 32.91796875 C92.39621017 33.72736404 93.2103891 34.53675934 94.04924011 35.37068176 C95.76741777 37.08545666 97.47929606 38.80656317 99.18530273 40.53344727 C101.8025012 43.17739899 104.44525718 45.79365917 107.09179688 48.40820312 C108.75681389 50.07652416 110.42027922 51.74639555 112.08203125 53.41796875 C112.87567581 54.20149216 113.66932037 54.98501556 114.48701477 55.7922821 C115.21164413 56.53267227 115.9362735 57.27306244 116.68286133 58.03588867 C117.32508133 58.68208664 117.96730133 59.32828461 118.62898254 59.99406433 C120.37711604 62.55175849 120.44315945 63.95900797 120 67 C118.20866101 69.29726725 116.47827598 71.26447974 114.4375 73.3125 C113.33002167 74.46546666 112.22324778 75.6191104 111.1171875 76.7734375 C110.31039551 77.60439941 110.31039551 77.60439941 109.48730469 78.45214844 C107.05260787 80.98595964 104.75287779 83.62838401 102.47265625 86.30078125 C101.49252231 87.43170503 100.47870037 88.53429962 99.43359375 89.60546875 C97.79826985 91.26375335 97.79826985 91.26375335 96 94 C96.33164765 98.82961895 98.04300159 102.79836654 100 107.1875 C102.92586751 113.77760252 102.92586751 113.77760252 104 117 C107.64075536 118.51740337 111.82396838 118.28832213 115.72265625 118.46484375 C117.24545807 118.54332228 118.76824411 118.62210757 120.29101562 118.70117188 C122.68287067 118.8210477 125.07477963 118.93807228 127.46704102 119.04956055 C129.78189851 119.15909039 132.09594891 119.27993745 134.41015625 119.40234375 C135.12583267 119.43263168 135.84150909 119.46291962 136.57887268 119.49412537 C140.20340673 119.69318426 141.90582834 119.93721889 145 122 C145.38095093 124.31506348 145.38095093 124.31506348 145.38818359 127.24414062 C145.39764008 128.33867554 145.40709656 129.43321045 145.4168396 130.56091309 C145.40773056 132.34060486 145.40773056 132.34060486 145.3984375 134.15625 C145.40274277 135.97606384 145.40274277 135.97606384 145.40713501 137.8326416 C145.40917952 140.40161607 145.40362281 142.97060596 145.39111328 145.53955078 C145.37506611 149.48375075 145.39095004 153.42692585 145.41015625 157.37109375 C145.40817389 159.86198144 145.40433036 162.35286849 145.3984375 164.84375 C145.40451019 166.03021118 145.41058289 167.21667236 145.4168396 168.43908691 C145.40265488 170.08088928 145.40265488 170.08088928 145.38818359 171.75585938 C145.38579681 172.72245483 145.38341003 173.68905029 145.38095093 174.68493652 C145.25523712 175.44890747 145.12952332 176.21287842 145 177 C138.90845855 181.06102763 130.7430044 180.25169752 123.625 180.5 C116.69935325 180.74347977 109.87924005 181.14543602 103 182 C102.82984375 182.61746094 102.6596875 183.23492187 102.484375 183.87109375 C100.97022611 189.16256087 99.2049082 194.00284033 96.671875 198.89453125 C95.78741338 201.66618714 96.11392324 203.24574169 97 206 C98.2510416 207.91113133 98.2510416 207.91113133 99.9375 209.625 C100.56398438 210.30691406 101.19046875 210.98882812 101.8359375 211.69140625 C102.55007813 212.45324219 103.26421875 213.21507812 104 214 C106.54577158 216.79071175 109.08493744 219.58726683 111.62109375 222.38671875 C113.05757167 223.96472158 114.50499209 225.53299166 115.97265625 227.08203125 C119.90545307 231.34953419 119.90545307 231.34953419 120.35575867 234.44755554 C119.90883741 237.65405984 118.95001923 238.68291046 116.68286133 240.96411133 C115.95823196 241.7045015 115.2336026 242.44489166 114.48701477 243.2077179 C113.69337021 243.9912413 112.89972565 244.77476471 112.08203125 245.58203125 C111.27263596 246.39621017 110.46324066 247.2103891 109.62931824 248.04924011 C107.91454334 249.76741777 106.19343683 251.47929606 104.46655273 253.18530273 C101.82260101 255.8025012 99.20634083 258.44525718 96.59179688 261.09179688 C94.92347584 262.75681389 93.25360445 264.42027922 91.58203125 266.08203125 C90.40674614 267.27249809 90.40674614 267.27249809 89.2077179 268.48701477 C88.46732773 269.21164413 87.72693756 269.9362735 86.96411133 270.68286133 C86.31791336 271.32508133 85.67171539 271.96730133 85.00593567 272.62898254 C82.45484282 274.37260417 81.03290699 274.42739941 78 274 C75.86341214 272.37029919 74.07415767 270.81684859 72.1875 268.9375 C71.12563276 267.92121345 70.06313213 266.90558828 69 265.890625 C68.48695313 265.39369141 67.97390625 264.89675781 67.4453125 264.38476562 C64.97796112 262.02077626 62.397125 259.7942808 59.80078125 257.57421875 C58.55769842 256.48753245 57.34798745 255.36188964 56.16796875 254.20703125 C55.28044922 253.36205078 55.28044922 253.36205078 54.375 252.5 C53.86710937 251.9946875 53.35921875 251.489375 52.8359375 250.96875 C49.9616713 249.45211592 48.09422749 250.19378391 45 251 C42.57972159 251.93929217 40.18363653 252.942773 37.8125 254 C31.22239748 256.92586751 31.22239748 256.92586751 28 258 C26.48259663 261.64075536 26.71167787 265.82396838 26.53515625 269.72265625 C26.45667772 271.24545807 26.37789243 272.76824411 26.29882812 274.29101562 C26.1789523 276.68287067 26.06192772 279.07477963 25.95043945 281.46704102 C25.84090961 283.78189851 25.72006255 286.09594891 25.59765625 288.41015625 C25.56736832 289.12583267 25.53708038 289.84150909 25.50587463 290.57887268 C25.30681574 294.20340673 25.06278111 295.90582834 23 299 C15.41 299 7.82 299 0 299 C0 277.88 0 256.76 0 235 C5.28 234.01 10.56 233.02 16 232 C32.68371748 227.21368761 44.88609522 220.27260222 57 208 C57.75152344 207.2471875 58.50304687 206.494375 59.27734375 205.71875 C74.88125609 189.1863899 80.82891539 167.19239622 80.31640625 144.9609375 C79.75784928 133.06531002 76.68574164 121.4636758 71 111 C70.50886719 110.03964844 70.01773438 109.07929687 69.51171875 108.08984375 C58.12306892 87.02491865 38.65371229 73.863644 16.14453125 67.0078125 C10.82542353 65.71438197 5.39962787 64.89993798 0 64 C0 42.88 0 21.76 0 0 Z " fill="#4570C6" transform="translate(311,10)"/>
<path d="M0 0 C0.9667717 -0.00014603 1.9335434 -0.00029205 2.92961121 -0.0004425 C6.100233 0.00024981 9.27079481 0.00801012 12.44140625 0.01586914 C14.6495765 0.01773574 16.85774716 0.0191585 19.06591797 0.02015686 C24.85924435 0.02396296 30.6525454 0.03377688 36.44586182 0.04486084 C42.36494606 0.05511605 48.28403442 0.05966327 54.203125 0.06469727 C65.8033983 0.07540094 77.4036462 0.09298221 89.00390625 0.11352539 C89.00390625 12.65352539 89.00390625 25.19352539 89.00390625 38.11352539 C84.61368164 38.11968872 84.61368164 38.11968872 80.13476562 38.12597656 C70.45155652 38.14319386 60.76861077 38.18772884 51.08556366 38.24561596 C45.21617041 38.27986876 39.34703699 38.30499336 33.47753906 38.30908203 C27.81035669 38.31336853 22.14376028 38.34186136 16.47676086 38.38695717 C14.31752437 38.39992078 12.15821772 38.40424391 9.99894714 38.39967918 C6.96805994 38.39476531 3.93888012 38.42090186 0.90820312 38.45410156 C0.02059296 38.44547592 -0.86701721 38.43685028 -1.78152466 38.42796326 C-7.95744548 38.54095512 -12.33311851 39.95380581 -16.99609375 44.11352539 C-20.36431778 48.83918934 -20.42724244 53.17027059 -20.38427734 58.76171875 C-20.39216278 60.03363823 -20.39216278 60.03363823 -20.40020752 61.33125305 C-20.41336423 64.12214822 -20.40468403 66.91246859 -20.39453125 69.70336914 C-20.39655342 71.65100717 -20.39946605 73.59864446 -20.40322876 75.54627991 C-20.40764641 79.62402571 -20.4012397 83.70157406 -20.38720703 87.77929688 C-20.37012693 92.99574244 -20.3799525 98.21172451 -20.39792442 103.42815304 C-20.40878703 107.44913701 -20.40530435 111.47001189 -20.39754105 115.49099922 C-20.3955453 117.41385516 -20.39797626 119.33672113 -20.40497971 121.25956535 C-20.41263371 123.95195457 -20.40093441 126.64360316 -20.38427734 129.3359375 C-20.39035004 130.12420929 -20.39642273 130.91248108 -20.40267944 131.72463989 C-20.3372873 137.45567767 -19.36008223 142.36785127 -15.49609375 146.85571289 C-11.57954494 149.81352319 -8.79875055 151.22797021 -3.91487122 151.27174377 C-3.08616013 151.28153259 -2.25744904 151.29132141 -1.40362549 151.30140686 C-0.49803894 151.30716232 0.40754761 151.31291779 1.34057617 151.31884766 C2.29686417 151.32874725 3.25315216 151.33864685 4.23841858 151.34884644 C7.40371208 151.38046925 10.5690206 151.40522203 13.734375 151.42993164 C15.92727553 151.45050049 18.12017208 151.47149694 20.31306458 151.49290466 C26.08833604 151.54813247 31.86364333 151.59753867 37.63897705 151.64575195 C43.53083489 151.69596176 49.42264063 151.75165055 55.31445312 151.80688477 C66.87756134 151.91447505 78.44071374 152.01541192 90.00390625 152.11352539 C90.00390625 164.65352539 90.00390625 177.19352539 90.00390625 190.11352539 C76.89474186 190.18144491 63.78569536 190.23642447 50.67639446 190.26896191 C44.58847679 190.28458238 38.50068629 190.30575452 32.4128418 190.33984375 C26.53192211 190.37256623 20.65112436 190.39040559 14.77012062 190.39815712 C12.53236791 190.40367753 10.29462147 190.41445728 8.05692101 190.43071556 C4.90979235 190.45266104 1.7631603 190.45548517 -1.3840332 190.45410156 C-2.2982605 190.46488739 -3.21248779 190.47567322 -4.15441895 190.48678589 C-18.85162456 190.4173863 -32.18748577 184.59676847 -42.74609375 174.46118164 C-54.41596265 162.28480802 -59.30467565 149.13030824 -59.28662109 132.37207031 C-59.29333832 131.45514908 -59.30005554 130.53822784 -59.30697632 129.59352112 C-59.32581221 126.59362209 -59.32987305 123.59394845 -59.33203125 120.59399414 C-59.3384687 118.48708508 -59.34519774 116.3801769 -59.35220337 114.27326965 C-59.3641398 109.8680311 -59.3678879 105.46287076 -59.36669922 101.05761719 C-59.36649613 95.44275219 -59.3938046 89.82839388 -59.42824364 84.2136488 C-59.45059674 79.86474858 -59.4545342 75.51596874 -59.45347977 71.16701698 C-59.45582283 69.09838426 -59.46457235 67.02974755 -59.4801445 64.9611721 C-59.60489411 46.68048734 -57.22917145 30.10695975 -44.1640625 16.09008789 C-31.06654304 4.148926 -17.47389411 -0.07004037 0 0 Z " fill="#DEEAFB" transform="translate(212.99609375,9.886474609375)"/>
<path d="M0 0 C0.96208468 -0.00072321 1.92416937 -0.00144642 2.91540813 -0.00219154 C6.02282803 0.00227911 9.12807511 0.0479253 12.23510742 0.09521484 C14.15611736 0.10403915 16.07714169 0.11015862 17.99816895 0.11352539 C25.11252503 0.14495285 32.22657206 0.2287207 39.34057617 0.30615234 C55.24245117 0.42990234 71.14432617 0.55365234 87.52807617 0.68115234 C87.52807617 33.02115234 87.52807617 65.36115234 87.52807617 98.68115234 C71.79120117 98.76365234 56.05432617 98.84615234 39.84057617 98.93115234 C34.87422119 98.96756836 29.90786621 99.00398438 24.79101562 99.04150391 C18.71984863 99.05957031 18.71984863 99.05957031 15.87638855 99.06292725 C13.89323843 99.06906392 11.9101031 99.08312068 9.92704773 99.10345459 C6.92050302 99.1327383 3.91486911 99.13677635 0.90820312 99.13525391 C0.02683087 99.14964634 -0.85454138 99.16403877 -1.76262188 99.17886734 C-5.86912361 99.15103457 -7.94203265 99.01470583 -11.49568176 96.777771 C-15.056936 92.99959412 -14.63802017 89.60469657 -14.66479492 84.65478516 C-14.67297241 83.82532379 -14.6811499 82.99586243 -14.6895752 82.14126587 C-14.71444127 79.38894374 -14.73094916 76.63667326 -14.74536133 73.88427734 C-14.75068501 72.94480003 -14.75600868 72.00532272 -14.76149368 71.0373764 C-14.78823179 66.06382564 -14.80760372 61.09030002 -14.82202148 56.11669922 C-14.83866215 50.9806174 -14.88343313 45.84517814 -14.93439293 40.70933914 C-14.96806022 36.75961577 -14.9795984 32.81004491 -14.98524857 28.86019135 C-14.99196352 26.96716151 -15.00719196 25.07414179 -15.03113937 23.18125153 C-15.06278033 20.52866911 -15.06282949 17.87781946 -15.05541992 15.22509766 C-15.07182526 14.44564789 -15.08823059 13.66619812 -15.10513306 12.86312866 C-15.05905534 8.82519258 -14.54503631 6.81243042 -12.52745056 3.18972778 C-8.30543371 -0.27653146 -5.31007739 -0.12869897 0 0 Z " fill="#6ADBDC" transform="translate(214.471923828125,55.31884765625)"/>
<path d="M0 0 C0.75416986 -0.00048214 1.50833971 -0.00096428 2.2853632 -0.00146103 C4.70318987 0.00150157 7.11975038 0.0318518 9.53735352 0.06347656 C11.0393413 0.06936492 12.54133731 0.07344118 14.04333496 0.07568359 C19.58443587 0.09657157 25.12536054 0.15241684 30.66625977 0.20410156 C43.06188477 0.28660156 55.45750977 0.36910156 68.22875977 0.45410156 C68.22875977 38.40410156 68.22875977 76.35410156 68.22875977 115.45410156 C55.50313477 115.57785156 42.77750977 115.70160156 29.66625977 115.82910156 C23.65362915 115.9110376 23.65362915 115.9110376 17.51953125 115.99462891 C12.59997559 116.02172852 12.59997559 116.02172852 10.29212952 116.02676392 C8.69066854 116.03593832 7.08924736 116.05696054 5.48805237 116.08755493 C-9.72425994 116.3635249 -9.72425994 116.3635249 -14.25537109 112.66748047 C-17.32335354 109.34406194 -19.01655933 105.95181255 -19.03866577 101.40689087 C-19.04719574 100.61071854 -19.05572571 99.8145462 -19.06451416 98.99424744 C-19.06360779 98.12973465 -19.06270142 97.26522186 -19.06176758 96.37451172 C-19.07184341 94.99820839 -19.07184341 94.99820839 -19.0821228 93.59410095 C-19.10112331 90.56040026 -19.10502803 87.52692056 -19.10717773 84.49316406 C-19.11360418 82.38333037 -19.12033243 80.27349758 -19.12734985 78.16366577 C-19.13932772 73.74027439 -19.14303014 69.31696114 -19.1418457 64.89355469 C-19.14164248 59.22850532 -19.1689465 53.5639574 -19.20339012 47.89902687 C-19.22563934 43.54096175 -19.22968385 39.18301768 -19.22862625 34.82490158 C-19.23098511 32.73652798 -19.23982465 30.64815119 -19.25529099 28.55983353 C-19.27491078 25.63702638 -19.26912848 22.71530551 -19.25708008 19.79248047 C-19.26831909 18.93201614 -19.27955811 18.07155182 -19.2911377 17.18501282 C-19.234975 11.81702535 -18.50670502 8.59182605 -14.77124023 4.45410156 C-10.1619122 0.77458561 -5.8600355 -0.12280007 0 0 Z " fill="#6ADCDC" transform="translate(233.771240234375,265.5458984375)"/>
<path d="M0 0 C1.26488754 -0.01260864 2.52977509 -0.02521729 3.83299255 -0.03820801 C5.21036334 -0.0310474 6.58772903 -0.02284321 7.96508789 -0.01367188 C9.38229132 -0.01636777 10.79949295 -0.02025101 12.21669006 -0.02526855 C15.185004 -0.03116107 18.15283593 -0.02261071 21.12109375 -0.00390625 C24.91883523 0.01886332 28.7154447 0.00577283 32.51314449 -0.01819611 C35.43950362 -0.03267913 38.36559624 -0.02803649 41.29196358 -0.01768494 C42.69174904 -0.01502344 44.09155898 -0.01826713 45.49131584 -0.02760315 C47.45123685 -0.03780556 49.41124307 -0.0194876 51.37109375 0 C52.484879 0.00318237 53.59866425 0.00636475 54.74620056 0.00964355 C58.77692318 0.69117274 60.20190638 1.25443341 62.75024414 4.51757812 C63.4861178 8.61254489 63.38045898 12.66379444 63.31787109 16.81347656 C63.31860123 18.07227127 63.31933136 19.33106598 63.32008362 20.62800598 C63.32151794 24.07636365 63.29212736 27.5238513 63.25721383 30.9720068 C63.22595206 34.57677229 63.22301977 38.18155785 63.21708679 41.78643799 C63.20154769 48.611154 63.16051878 55.43546942 63.11033934 62.26000905 C63.05444758 70.03015124 63.02695988 77.80031258 63.00186217 85.57060575 C62.94960261 101.55316186 62.86165957 117.53531833 62.75024414 133.51757812 C61.46972168 133.53216064 60.18919922 133.54674316 58.86987305 133.56176758 C54.07988763 133.62011687 49.29035444 133.69734545 44.50073242 133.7800293 C42.43505236 133.81310729 40.36928563 133.84119148 38.3034668 133.86401367 C35.31920738 133.89787659 32.33573004 133.95020605 29.35180664 134.00585938 C28.44097321 134.0122493 27.53013977 134.01863922 26.59170532 134.02522278 C11.70683232 134.3599736 0.04918891 141.09852904 -10.24975586 151.51757812 C-10.34315542 132.42028593 -10.41371355 113.32304001 -10.45700455 94.22556686 C-10.47763869 85.35847086 -10.50577548 76.49151669 -10.55151367 67.62451172 C-10.59135546 59.89693237 -10.61718248 52.16945572 -10.62610984 44.44177651 C-10.63132913 40.3491547 -10.64361376 36.25682674 -10.67267609 32.16429901 C-10.6998034 28.31309678 -10.70820643 24.46230974 -10.70218658 20.61102104 C-10.70328804 19.19685295 -10.7112583 17.78267113 -10.72657776 16.36858559 C-10.74645927 14.43892052 -10.73931482 12.50903325 -10.73077393 10.57928467 C-10.7344611 9.49894329 -10.73814827 8.41860191 -10.74194717 7.30552292 C-9.64722883 1.10465302 -5.72023895 0.01635589 0 0 Z " fill="#DFEAFB" transform="translate(63.249755859375,103.482421875)"/>
<path d="M0 0 C19.85138111 0 38.30085044 9.59529213 52.328125 23.26953125 C67.15644475 38.87961616 74.5721691 57.88465731 74.35107422 79.31958008 C73.68951887 101.05144195 64.49730315 120.73561057 48.77734375 135.65625 C35.14571082 147.15973771 18.05362414 155 0 155 C0 145.43 0 135.86 0 126 C6 124 6 124 8.89453125 123.140625 C20.32354523 119.65225125 30.52097907 113.54779581 36.76171875 103.03125 C43.2906122 90.25801536 45.01840581 77.73260095 42.34765625 63.53125 C38.25197367 51.29693637 29.22944988 41.00490061 17.8125 35.125 C11.77348359 32.34779801 6.66578019 30.95225431 0 30 C0 20.1 0 10.2 0 0 Z " fill="#A2C7FE" transform="translate(310,82)"/>
<path d="M0 0 C0.84691406 -0.01611328 1.69382812 -0.03222656 2.56640625 -0.04882812 C14.00096126 -0.05758353 25.48492741 4.65547024 33.875 12.5 C42.99521423 22.43138713 47.7226722 33.1356628 47.625 46.5625 C47.61927979 47.4812793 47.61355957 48.40005859 47.60766602 49.34667969 C47.29723824 61.24118494 43.30921213 70.58046028 35.125 79.3125 C34.47917969 80.01117188 33.83335937 80.70984375 33.16796875 81.4296875 C24.56573626 89.88828346 13.01386521 94.34206211 1 94.5625 C-12.11371348 94.38480741 -23.49863605 89.66817318 -33.125 80.8125 C-42.62809158 70.77977752 -47.46238663 57.96492218 -47.1171875 44.1953125 C-46.04312051 31.41045064 -40.60563239 19.91300664 -31.1796875 11.12890625 C-21.4866739 3.48949723 -12.25086428 -0.04619481 0 0 Z M-17.21484375 31.50390625 C-22.16664801 36.89846007 -23.16604524 43.1721901 -22.875 50.3125 C-21.48077428 57.06762179 -18.41166893 61.66456841 -13.01953125 65.90625 C-7.5966081 69.46226518 -2.39833395 71.09979893 4.125 70.3125 C11.72967609 68.35595712 16.9338627 65.01600413 21.125 58.3125 C24.18551491 52.11957889 24.5971017 46.63282762 23.05078125 39.92578125 C20.71306972 33.32692466 16.32272798 28.53531855 10.125 25.3125 C-0.59306343 21.69826931 -9.13610713 23.77851398 -17.21484375 31.50390625 Z " fill="#A2C7FE" transform="translate(369.875,362.6875)"/>
<path d="M0 0 C7.7343624 5.79166541 13.5653214 13.36770591 15.8125 22.875 C17.13621219 34.48818629 15.17326113 44.77538471 8.1875 54.25 C4.0794081 59.02613675 -0.54053698 62.14824461 -6.1875 64.875 C-6.93515625 65.24753906 -7.6828125 65.62007813 -8.453125 66.00390625 C-18.03865554 69.05758241 -29.83614119 67.73194683 -38.70703125 63.3515625 C-47.86655954 57.89911889 -54.01152198 49.93679061 -56.71875 39.54296875 C-58.57741037 28.96409347 -57.13682149 19.25305767 -51.4375 10.125 C-39.42234826 -6.65478088 -17.44844485 -11.35993917 0 0 Z " fill="#A2C7FE" transform="translate(110.1875,251.125)"/>
<path d="M0 0 C3.98053679 0.89358989 6.67634022 2.39604883 9.0625 5.6875 C9.94429779 9.33427009 9.8768028 12.90326069 9.83203125 16.640625 C9.84336594 17.69658875 9.85470062 18.75255249 9.86637878 19.84051514 C9.89708695 23.20667833 9.88725579 26.57124403 9.875 29.9375 C9.88914737 33.31752198 9.91147145 36.69737924 9.93717957 40.07733154 C9.95026888 42.17954981 9.95494782 44.28183964 9.95063782 46.38409424 C9.95150642 47.8012674 9.95150642 47.8012674 9.95239258 49.24707031 C9.94856316 50.50019012 9.94856316 50.50019012 9.94465637 51.77862549 C9.85163204 53.69736309 9.85163204 53.69736309 11.0625 54.6875 C12.6531331 54.78604422 14.24811477 54.81548694 15.84179688 54.81689453 C16.859552 54.82004669 17.87730713 54.82319885 18.92590332 54.82644653 C20.03316772 54.8244223 21.14043213 54.82239807 22.28125 54.8203125 C23.9735675 54.82174759 23.9735675 54.82174759 25.70007324 54.82321167 C28.09090226 54.82389368 30.48173311 54.82203797 32.87255859 54.81787109 C36.54659151 54.81252316 40.22050217 54.81781543 43.89453125 54.82421875 C46.21093777 54.82355797 48.52734422 54.82227682 50.84375 54.8203125 C51.9510144 54.82233673 53.05827881 54.82436096 54.19909668 54.82644653 C55.72572937 54.82171829 55.72572937 54.82171829 57.28320312 54.81689453 C58.18397583 54.81609894 59.08474854 54.81530334 60.01281738 54.81448364 C62.05573069 54.91494606 62.05573069 54.91494606 63.0625 53.6875 C63.15892759 52.2099043 63.18765546 50.72780886 63.18847656 49.24707031 C63.19228333 48.30228821 63.19609009 47.3575061 63.20001221 46.38409424 C63.20103943 45.35499939 63.20206665 44.32590454 63.203125 43.265625 C63.22145551 41.10415615 63.24102604 38.94269753 63.26171875 36.78125 C63.29068869 33.35985148 63.31249977 29.93910724 63.31298828 26.51757812 C63.31632119 23.22466416 63.35086977 19.93327464 63.390625 16.640625 C63.3835553 15.61962708 63.3764856 14.59862915 63.36920166 13.54669189 C63.4911277 6.43563608 63.4911277 6.43563608 66.47338867 2.53076172 C69.11328315 0.65134604 69.99116682 0.05161666 73.125 0.5625 C73.77597656 0.64242188 74.42695312 0.72234375 75.09765625 0.8046875 C78.24225283 2.21756787 79.25938941 3.71173384 81.0625 6.6875 C81.66552675 10.46133692 81.6228504 14.200504 81.59375 18.015625 C81.59949036 19.67099274 81.59949036 19.67099274 81.60534668 21.35980225 C81.60806598 23.69316521 81.60070366 26.02655864 81.58398438 28.35986328 C81.56265803 31.91118395 81.58374484 35.46046262 81.609375 39.01171875 C81.60673013 41.2838586 81.60160188 43.55599718 81.59375 45.828125 C81.60184692 46.8815509 81.60994385 47.93497681 81.61828613 49.02032471 C81.53608071 55.56773743 80.70142943 61.11291094 77.0625 66.6875 C72.23605222 71.28270859 67.70199766 72.80175834 61.1574707 72.88037109 C59.94223221 72.89643402 58.72699371 72.91249695 57.47492981 72.92904663 C51.91208114 72.97354618 46.34936143 73.01500562 40.78637695 73.03759766 C37.85409175 73.05091257 34.92250649 73.07872107 31.99047852 73.11962891 C28.44021399 73.16915393 24.89058195 73.1937428 21.3399868 73.20082474 C19.34144408 73.21073585 17.3430689 73.24493293 15.34480286 73.27963257 C8.04028439 73.26272099 2.45161512 72.97115248 -2.9375 67.6875 C-8.54067985 61.66190131 -8.67450924 55.4457441 -8.6015625 47.5234375 C-8.60634613 46.37259674 -8.61112976 45.22175598 -8.61605835 44.03604126 C-8.61944769 41.61385727 -8.61031343 39.19162694 -8.58935547 36.76953125 C-8.56253022 33.06667159 -8.58916487 29.36682979 -8.62109375 25.6640625 C-8.61779044 23.30468083 -8.61138586 20.94530103 -8.6015625 18.5859375 C-8.61168365 17.48269135 -8.62180481 16.37944519 -8.63223267 15.24276733 C-8.50208807 6.6977146 -8.50208807 6.6977146 -5.57958984 2.98681641 C-2.9375 0.6875 -2.9375 0.6875 0 0 Z " fill="#A1C7FE" transform="translate(52.9375,9.3125)"/>
<path d="M0 0 C16.83 0 33.66 0 51 0 C50.34 2.31 49.68 4.62 49 7 C48.71530887 10.41151313 48.71530887 10.41151313 48.77294922 13.94506836 C48.77265717 14.59957977 48.77236511 15.25409119 48.77206421 15.92843628 C48.77344406 18.06571276 48.78894064 20.2026291 48.8046875 22.33984375 C48.80842243 23.83199371 48.81126714 25.32414614 48.81326294 26.81629944 C48.82086161 30.72403863 48.84047726 34.63162672 48.8626709 38.53930664 C48.88682878 43.23837411 48.89592827 47.93749238 48.90757751 52.63660431 C48.92690425 59.75784096 48.96525276 66.87874675 49 74 C32.83 74 16.66 74 0 74 C1.65 72.35 3.3 70.7 5 69 C14.82251218 58.15777787 18.4771536 46.19767868 18.33984375 31.734375 C17.36417564 21.01324033 12.11739317 11.58077974 4.21875 4.375 C2.83313613 3.22467905 1.4196611 2.10802817 0 1 C0 0.67 0 0.34 0 0 Z " fill="#DCE8FB" transform="translate(115,245)"/>
<path d="M0 0 C1.52016724 0.00749268 1.52016724 0.00749268 3.07104492 0.01513672 C11.26791291 0.20541061 17.47980919 1.54585305 24.75 5.5 C26.07837891 6.16902344 26.07837891 6.16902344 27.43359375 6.8515625 C40.78371273 14.12605656 49.17131894 26.21626769 53.75 40.5 C57.6111614 54.10798505 55.69921088 67.80013014 49.75 80.5 C41.80540827 94.5710182 29.80855323 104.37326599 14.3125 108.9375 C-1.80864157 112.75393351 -16.0958632 109.91182079 -30.25 101.5 C-43.07505096 93.25128881 -51.06326427 80.33048824 -54.5 65.625 C-57.05457921 50.89589467 -54.14791299 37.17777791 -46.25 24.5 C-43.47243433 20.91800274 -40.47877016 17.67761007 -37.25 14.5 C-36.6621875 13.91347656 -36.074375 13.32695312 -35.46875 12.72265625 C-25.72786815 3.69396151 -13.01159294 -0.08427337 0 0 Z M-35.5 23.6875 C-44.60450552 34.50601161 -48.16443853 46.58021354 -47.25 60.5 C-46.15257317 72.19898412 -39.62872589 83.4400547 -31.125 91.30859375 C-20.11467881 99.70097172 -8.0304057 103.46668518 5.75 102.5 C8.6561574 101.99257569 11.00492034 101.44002728 13.75 100.5 C14.65363281 100.21640625 15.55726563 99.9328125 16.48828125 99.640625 C27.89503432 95.55727371 36.56308391 87.69017709 42.56640625 77.1796875 C45.85262541 69.73960055 47.28274209 63.27861596 47.1875 55.125 C47.17847656 54.19961426 47.16945313 53.27422852 47.16015625 52.32080078 C46.82633323 39.15101892 41.75314285 30.10132797 32.875 20.46484375 C21.67236986 9.84568393 9.43278447 8.00103449 -5.28125 8.2265625 C-17.47429662 8.68745236 -27.21960592 15.01429785 -35.5 23.6875 Z " fill="#3863CC" transform="translate(370.25,354.5)"/>
<path d="M0 0 C6.34363115 3.52091478 10.44177132 8.03351555 12.75 14.9375 C13.90493773 22.85186275 12.49274228 29.46292105 7.75 35.9375 C1.07480607 42.21703234 -4.30700772 43.56237743 -13.40234375 43.34375 C-19.85901366 42.66203054 -23.63669315 39.87273595 -27.8671875 35.12109375 C-32.51970193 29.03602544 -32.82139209 23.35439345 -32.25 15.9375 C-31.16123106 9.3570284 -27.53613295 5.85784148 -22.6015625 1.6015625 C-15.53122529 -3.40169938 -7.77193911 -3.56360406 0 0 Z " fill="#3964CD" transform="translate(99.25,261.0625)"/>
<path d="M0 0 C7.50326743 4.93105727 12.24733633 11.46154891 15 20 C16.44511508 29.38764678 14.79868657 38.3740971 9.45703125 46.28515625 C4.20694146 52.71261171 -2.0186759 56.76444485 -10 59 C-19.66592976 59.97452516 -27.36067348 59.25723755 -35.18359375 53.3515625 C-42.46692403 47.23089228 -47.28336926 41.22972066 -48.39453125 31.5703125 C-48.87686048 20.60012666 -46.14873099 12.30246959 -38.8125 4.0625 C-27.7316474 -5.83025243 -12.96700503 -6.94731472 0 0 Z M-34.33984375 12.19140625 C-39.29164801 17.58596007 -40.29104524 23.8596901 -40 31 C-38.60577428 37.75512179 -35.53666893 42.35206841 -30.14453125 46.59375 C-24.7216081 50.14976518 -19.52333395 51.78729893 -13 51 C-5.39532391 49.04345712 -0.1911373 45.70350413 4 39 C7.06051491 32.80707889 7.4721017 27.32032762 5.92578125 20.61328125 C3.58806972 14.01442466 -0.80227202 9.22281855 -7 6 C-17.71806343 2.38576931 -26.26110713 4.46601398 -34.33984375 12.19140625 Z " fill="#3863CD" transform="translate(387,382)"/>
<path d="M0 0 C4.89842359 1.67917563 7.68120095 4.14745126 10.19287109 8.77709961 C11.85993598 13.36833547 11.52889756 18.17656756 11.4375 23 C11.44458984 24.05445312 11.45167969 25.10890625 11.45898438 26.1953125 C11.39661963 33.8517844 10.58126887 38.96700907 5.5 44.9375 C1.85715045 47.66282385 -1.87049855 47.7600859 -6.3046875 47.5546875 C-10.61933829 46.66674487 -13.39352226 44.50316688 -16 41 C-18.77241233 35.15710758 -18.3680088 29.41400663 -18.375 23.0625 C-18.39949219 21.89525391 -18.42398438 20.72800781 -18.44921875 19.52539062 C-18.47130487 13.06520174 -18.46507812 8.84663935 -14 4 C-9.60759125 0.20655608 -5.7187273 -1.0729527 0 0 Z " fill="#4672C6" transform="translate(254,78)"/>
<path d="M0 0 C3.44524521 3.03509697 5.19851782 5.67989397 5.94140625 10.265625 C6.31843808 16.63867923 3.66103961 19.96796954 -0.4375 24.6875 C-4.98531779 27.2033141 -9.29815327 27.04308881 -14.375 26.3125 C-18.19478202 24.53902978 -19.85836877 23.05300477 -22.25 19.625 C-24.16157011 13.99648801 -24.37146417 9.42500403 -21.8125 4 C-15.29017536 -3.19128102 -8.77901521 -4.38950761 0 0 Z " fill="#4570C6" transform="translate(98.375,269.6875)"/>
<path d="M0 0 C10.23 0 20.46 0 31 0 C31 1.65 31 3.3 31 5 C20.77 5 10.54 5 0 5 C0 3.35 0 1.7 0 0 Z " fill="#4570C6" transform="translate(271,208)"/>
<path d="M0 0 C8.25 0 16.5 0 25 0 C25 1.98 25 3.96 25 6 C16.75 6 8.5 6 0 6 C0 4.02 0 2.04 0 0 Z " fill="#4671C6" transform="translate(77,90)"/>
</svg>
