<?xml version="1.0" encoding="UTF-8"?>
<svg version="1.1" xmlns="http://www.w3.org/2000/svg" width="512" height="512">
<path d="M0 0 C1.01545898 0.19867676 2.03091797 0.39735352 3.07714844 0.60205078 C52.9758035 10.58327711 96.53871388 34.88580573 133 70 C133.7940625 70.7528125 134.588125 71.505625 135.40625 72.28125 C140.75597303 77.46114055 145.38660506 83.16405541 150 89 C151.19109375 90.48306641 151.19109375 90.48306641 152.40625 91.99609375 C175.32205725 121.03970389 191.22147176 154.85685587 199.6875 190.8125 C199.97306763 191.99936401 199.97306763 191.99936401 200.2644043 193.21020508 C204.22851721 210.89052902 205.555362 228.61292655 205.4375 246.6875 C205.43293793 248.18546112 205.43293793 248.18546112 205.42828369 249.71368408 C205.35621635 265.78341917 204.43972751 281.25213186 201 297 C200.78037598 298.02625488 200.56075195 299.05250977 200.33447266 300.10986328 C191.83138831 338.85817193 174.61772522 375.56726438 149 406 C148.57138672 406.51739746 148.14277344 407.03479492 147.70117188 407.56787109 C137.18164284 420.2564129 126.03816903 431.86528878 113 442 C111.52660156 443.18142578 111.52660156 443.18142578 110.0234375 444.38671875 C70.29759115 476.0035908 18.37047678 496.93437939 -32.79296875 497.203125 C-33.69337387 497.21018463 -34.59377899 497.21724426 -35.52146912 497.22451782 C-72.98691069 497.45161655 -72.98691069 497.45161655 -90 494 C-91.01545898 493.80132324 -92.03091797 493.60264648 -93.07714844 493.39794922 C-142.9758035 483.41672289 -186.53871388 459.11419427 -223 424 C-223.7940625 423.2471875 -224.588125 422.494375 -225.40625 421.71875 C-230.75597303 416.53885945 -235.38660506 410.83594459 -240 405 C-240.7940625 404.01128906 -241.588125 403.02257812 -242.40625 402.00390625 C-266.9776499 370.86198961 -283.32468106 334.48759715 -291.25 295.6875 C-291.47671387 294.57942993 -291.47671387 294.57942993 -291.70800781 293.44897461 C-292.18439803 290.97158418 -292.60252786 288.49133778 -293 286 C-293.17805176 284.88423584 -293.35610352 283.76847168 -293.53955078 282.61889648 C-295.19998488 270.98027732 -295.3987437 259.43103747 -295.375 247.6875 C-295.37445618 246.6738739 -295.37391235 245.6602478 -295.37335205 244.61590576 C-295.33347417 228.41878779 -294.46747801 212.87491635 -291 197 C-290.78037598 195.97374512 -290.56075195 194.94749023 -290.33447266 193.89013672 C-279.82149525 145.98280374 -255.85138923 104.15003587 -222 69 C-221.2471875 68.2059375 -220.494375 67.411875 -219.71875 66.59375 C-214.53885945 61.24402697 -208.83594459 56.61339494 -203 52 C-202.01128906 51.2059375 -201.02257812 50.411875 -200.00390625 49.59375 C-167.66655102 24.07913264 -130.33332447 7.86607287 -90 0 C-89.17274414 -0.16661133 -88.34548828 -0.33322266 -87.49316406 -0.50488281 C-59.91781494 -5.80488028 -27.50199116 -5.57960557 0 0 Z " fill="#AD2E0D" transform="translate(301,9)"/>
<path d="M0 0 C0.82838379 -0.00708481 1.65676758 -0.01416962 2.51025391 -0.02146912 C3.4105986 -0.0189917 4.3109433 -0.01651428 5.23857117 -0.01396179 C6.19351471 -0.01907272 7.14845825 -0.02418365 8.13233948 -0.02944946 C11.29110472 -0.04335601 14.44965198 -0.04238759 17.60844421 -0.04008484 C19.80556316 -0.04397176 22.00268136 -0.04830642 24.19979858 -0.05307007 C28.80731134 -0.06053499 33.41474748 -0.06023943 38.02226257 -0.05497742 C43.92029744 -0.04918866 49.81801769 -0.0660983 55.71600056 -0.08932209 C60.25510485 -0.10407227 64.79413366 -0.10492926 69.33325768 -0.10181236 C71.5073172 -0.10232513 73.68138099 -0.10755451 75.85541725 -0.11762428 C78.90000805 -0.12999321 81.94398974 -0.12319349 84.98857117 -0.11161804 C85.88284317 -0.11926178 86.77711517 -0.12690552 87.69848633 -0.13478088 C95.61337025 -0.06843934 101.22591865 2.14692202 107.13822937 7.49458313 C110.09000131 10.61729711 112.27300864 14.16223713 114.49516296 17.82319641 C119.62926767 27.11870667 119.62926767 27.11870667 127.80766296 33.26069641 C130.30751657 33.55565679 130.30751657 33.55565679 133.0428009 33.50552368 C134.10244553 33.50946136 135.16209015 33.51339905 136.25384521 33.51745605 C137.41129745 33.51176102 138.56874969 33.50606598 139.76127625 33.50019836 C140.98450089 33.50221252 142.20772552 33.50422668 143.46801758 33.50630188 C146.12704115 33.50984992 148.78581636 33.50990712 151.44481277 33.50452614 C155.65696298 33.49690546 159.86894374 33.50758571 164.08106995 33.52172852 C176.05830003 33.55943213 188.03545429 33.57768767 200.01274109 33.56611633 C206.62936557 33.55988151 213.24571667 33.57157625 219.86227405 33.60256165 C224.0412047 33.62113075 228.21935588 33.61797916 232.39827275 33.59839404 C235.62483318 33.58983742 238.85118482 33.61399529 242.0776825 33.63301086 C243.79564278 33.61535927 243.79564278 33.61535927 245.54830933 33.59735107 C252.92523475 33.68229998 258.6951481 34.96702884 264.80766296 39.26069641 C270.02476904 44.74149452 272.90831841 49.79955192 272.84672546 57.42475891 C272.84108582 58.32919739 272.83544617 59.23363586 272.82963562 60.16548157 C272.82238464 60.85690247 272.81513367 61.54832336 272.80766296 62.26069641 C273.82078552 62.23974915 274.83390808 62.21880188 275.87773132 62.19721985 C279.67397152 62.12424971 283.47015107 62.07869206 287.26689148 62.04096985 C288.9030656 62.02098309 290.53916948 61.99378398 292.1750946 61.9589386 C311.31040065 61.56186786 311.31040065 61.56186786 319.14750671 68.26069641 C319.67473328 68.92069641 320.20195984 69.58069641 320.74516296 70.26069641 C321.56307312 71.25069641 321.56307312 71.25069641 322.39750671 72.26069641 C326.52183041 78.11015273 326.64626172 83.23382126 325.80766296 90.26069641 C324.54828858 95.57373734 322.63553247 100.69643562 320.77280998 105.8216877 C319.47641444 109.39043864 318.22261703 112.97376013 316.96556568 116.55652142 C316.29180598 118.47593275 315.61597543 120.39461829 314.93818951 122.31261158 C311.36587437 132.44074907 308.00098014 142.6348002 304.65011215 152.83792496 C302.92258025 158.09381131 301.1834199 163.34585209 299.44633484 168.59858704 C297.32107939 175.02844332 295.19940543 181.45943513 293.08769226 187.89375305 C291.33651736 193.22844871 289.57506505 198.55965307 287.80673409 203.88868523 C287.14553589 205.88759736 286.48809077 207.88775541 285.83466911 209.8892231 C284.92973913 212.65969149 284.01171422 215.42549829 283.09062195 218.19062805 C282.83136932 218.9951239 282.5721167 219.79961975 282.30500793 220.62849426 C279.95198711 227.61236231 276.64771096 234.18225488 270.99516296 239.07319641 C270.39059265 239.61589172 269.78602234 240.15858704 269.16313171 240.71772766 C262.34018546 245.18715348 255.99417433 245.69583671 248.06681824 245.64164734 C247.0079873 245.64632731 245.94915637 245.65100728 244.85823965 245.65582907 C241.32237184 245.66776242 237.78689279 245.65832804 234.25102234 245.64888 C231.71112848 245.65294643 229.1712364 245.6582887 226.63134766 245.66481018 C220.45609616 245.67706219 214.28098782 245.67527921 208.10573447 245.66657226 C203.085485 245.65978782 198.06526617 245.65888227 193.04501343 245.66214371 C192.32958857 245.66260341 191.61416371 245.66306311 190.87705931 245.66353673 C189.42353442 245.66449594 187.97000955 245.66546858 186.51648468 245.66645451 C172.89754988 245.67500224 159.27867573 245.66518397 145.65975088 245.64905341 C133.9826248 245.63565078 122.30558821 245.63797904 110.62846375 245.65180969 C97.05714206 245.66787642 83.48587349 245.67417832 69.91454363 245.6649729 C68.46646659 245.66401729 67.01838955 245.66307417 65.5703125 245.66214371 C64.85789354 245.66168088 64.14547458 245.66121805 63.41146716 245.6607412 C58.39920688 245.65815459 53.38698039 245.66251521 48.37472534 245.66958237 C41.62446647 245.67889116 34.87440238 245.6722317 28.12415123 245.6548996 C25.64739449 245.65093426 23.17062352 245.65206958 20.69387245 245.65868759 C17.31189255 245.66689096 13.9304532 245.65659534 10.54850769 245.64164734 C9.56951177 245.6483395 8.59051585 245.65503167 7.58185339 245.66192663 C-0.48594377 245.59281063 -7.52897654 243.95948595 -13.46634865 238.14434624 C-21.96179851 228.87287444 -20.90451746 217.75291358 -20.83930969 205.97505188 C-20.84609213 203.91760994 -20.85499877 201.86017408 -20.86585999 199.80274963 C-20.88858227 194.23671396 -20.87984681 188.67114358 -20.86396456 183.10510015 C-20.85127239 177.27122116 -20.86305457 171.43738099 -20.87089539 165.60350037 C-20.87998082 155.81028618 -20.86803146 146.01726081 -20.8441925 136.22407532 C-20.81696831 124.90970652 -20.82580948 113.59578807 -20.85332453 102.28143013 C-20.87602788 92.5554548 -20.87921009 82.82961487 -20.86613119 73.1036216 C-20.85834544 67.29968199 -20.85727148 61.49595397 -20.87381363 55.69202805 C-20.88827734 50.2367803 -20.87820139 44.78211242 -20.84934235 39.32692719 C-20.84274243 37.32749264 -20.84461043 35.32800913 -20.85565567 33.32859421 C-20.86936556 30.5943596 -20.85213026 27.86197107 -20.82725525 25.12785339 C-20.83840886 24.34087818 -20.84956247 23.55390297 -20.86105406 22.74308002 C-20.7405144 15.89019393 -17.92055715 11.19877961 -13.31343079 6.23725891 C-12.75784485 5.79124329 -12.20225891 5.34522766 -11.62983704 4.88569641 C-11.07167297 4.42421204 -10.51350891 3.96272766 -9.93843079 3.48725891 C-6.64386944 1.17295855 -4.05295977 0.01159963 0 0 Z " fill="#AD2E0D" transform="translate(103.19233703613281,132.7393035888672)"/>
<path d="M0 0 C0.91403091 -0.00978378 1.82806183 -0.01956757 2.76979065 -0.02964783 C5.8046828 -0.05964074 8.83953063 -0.0810012 11.87451172 -0.09985352 C12.91078579 -0.10642534 13.94705986 -0.11299717 15.01473618 -0.11976814 C20.50281153 -0.15238308 25.99086733 -0.17682551 31.47900391 -0.19628906 C36.01868023 -0.21408598 40.55773351 -0.24887775 45.09716797 -0.29882812 C50.57845501 -0.35907465 56.05916528 -0.38977171 61.54076767 -0.39946175 C63.62753886 -0.40801231 65.71429481 -0.42682051 67.80087662 -0.45620537 C70.72860707 -0.49520662 73.65410175 -0.4961429 76.58203125 -0.48828125 C77.86665504 -0.51828217 77.86665504 -0.51828217 79.17723083 -0.54888916 C85.7044399 -0.47053253 89.47988193 1.74881037 94.17919922 6.20874023 C96.29321289 8.75415039 96.29321289 8.75415039 97.84716797 11.24780273 C98.43046875 12.15788086 99.01376953 13.06795898 99.61474609 14.00561523 C100.19289063 14.93889648 100.77103516 15.87217773 101.36669922 16.83374023 C106.20039204 24.99528332 106.20039204 24.99528332 113.17919922 31.20874023 C113.96528564 31.72787491 114.75137207 32.24700958 115.5612793 32.78187561 C120.86916713 34.8752435 125.8588037 34.61508666 131.51513672 34.57763672 C133.37467987 34.58328644 133.37467987 34.58328644 135.27178955 34.58905029 C137.95983865 34.59547969 140.6472797 34.5966019 143.33526611 34.58886528 C147.58851866 34.57724793 151.8415004 34.58947299 156.09472656 34.60548401 C166.65680325 34.64161776 177.21887295 34.64790831 187.78100586 34.64538574 C195.99492272 34.64367352 204.2086173 34.65081835 212.422472 34.68536431 C216.64759309 34.70213326 220.87217131 34.70038618 225.09729004 34.68454158 C228.34600067 34.67737175 231.5945863 34.69598697 234.84326172 34.71044922 C236.00915833 34.70070572 237.17505493 34.69096222 238.37628174 34.68092346 C244.61732269 34.73644375 248.45501734 34.97691667 253.17919922 39.20874023 C256.13139771 42.5545652 256.31231719 45.08276405 256.24951172 49.38842773 C256.23936035 50.29061035 256.22920898 51.19279297 256.21875 52.12231445 C256.20569824 52.81083496 256.19264648 53.49935547 256.17919922 54.20874023 C255.19043667 54.20836321 254.20167412 54.20798618 253.18294907 54.20759773 C229.0943881 54.19978428 205.00605193 54.2264529 180.91756821 54.28901863 C169.2684029 54.31848184 157.61941964 54.33685029 145.97021484 54.32885742 C135.81357768 54.32191706 125.6572224 54.3360409 115.50065446 54.37517631 C110.12561992 54.39515936 104.75102771 54.4047859 99.37596893 54.38916397 C94.30978619 54.37477318 89.24444612 54.38868908 84.17837143 54.4236927 C82.32576114 54.43161749 80.47307404 54.42947455 78.62049484 54.41613197 C67.98124002 54.34602822 59.16947085 54.70107069 50.17919922 61.20874023 C45.40353989 66.00375577 42.69454959 71.79055579 40.06982422 77.95483398 C39.52379547 79.20134483 39.52379547 79.20134483 38.96673584 80.47303772 C37.77778545 83.19329828 36.60356692 85.91965653 35.42919922 88.64624023 C34.58908939 90.57507722 33.74792516 92.50345526 32.90576172 94.43139648 C31.17078239 98.4068769 29.44127528 102.38466706 27.71630859 106.36450195 C24.26456636 114.32399664 20.77124601 122.26513633 17.27883911 130.20684814 C16.17662432 132.71459863 15.07596201 135.2230246 13.97583008 137.73168945 C7.55728258 152.36691419 1.10063379 166.98520952 -5.36572266 181.59936523 C-9.87489447 191.79202149 -14.36313705 201.99344648 -18.82080078 212.20874023 C-19.15080078 212.20874023 -19.48080078 212.20874023 -19.82080078 212.20874023 C-19.91421197 186.10525502 -19.98476429 160.00179483 -20.02804947 133.89817619 C-20.04868107 121.77800792 -20.07681324 109.65794345 -20.12255859 97.5378418 C-20.16240788 86.9748589 -20.18822924 76.41195117 -20.19715476 65.84889519 C-20.2023727 60.2550025 -20.21464946 54.66132488 -20.24372101 49.06750107 C-20.27085979 43.80294604 -20.2792488 38.5386948 -20.27323151 33.27407646 C-20.27433242 31.34151115 -20.28229536 29.40893574 -20.29762268 27.47643089 C-20.31752656 24.83758209 -20.31273864 22.19988001 -20.30181885 19.56100464 C-20.31347021 18.79640108 -20.32512158 18.03179752 -20.33712602 17.24402416 C-20.27939797 12.0823408 -19.06137099 9.19114304 -15.82080078 5.20874023 C-10.42884722 0.45868591 -7.03382738 0.04722085 0 0 Z " fill="#AD2E0E" transform="translate(110.82080078125,140.791259765625)"/>
<path d="M0 0 C0.82838379 -0.00708481 1.65676758 -0.01416962 2.51025391 -0.02146912 C3.4105986 -0.0189917 4.3109433 -0.01651428 5.23857117 -0.01396179 C6.19351471 -0.01907272 7.14845825 -0.02418365 8.13233948 -0.02944946 C11.29110472 -0.04335601 14.44965198 -0.04238759 17.60844421 -0.04008484 C19.80556316 -0.04397176 22.00268136 -0.04830642 24.19979858 -0.05307007 C28.80731134 -0.06053499 33.41474748 -0.06023943 38.02226257 -0.05497742 C43.92029744 -0.04918866 49.81801769 -0.0660983 55.71600056 -0.08932209 C60.25510485 -0.10407227 64.79413366 -0.10492926 69.33325768 -0.10181236 C71.5073172 -0.10232513 73.68138099 -0.10755451 75.85541725 -0.11762428 C78.90000805 -0.12999321 81.94398974 -0.12319349 84.98857117 -0.11161804 C85.88284317 -0.11926178 86.77711517 -0.12690552 87.69848633 -0.13478088 C95.61337025 -0.06843934 101.22591865 2.14692202 107.13822937 7.49458313 C110.09000131 10.61729711 112.27300864 14.16223713 114.49516296 17.82319641 C119.62926767 27.11870667 119.62926767 27.11870667 127.80766296 33.26069641 C130.30751657 33.55565679 130.30751657 33.55565679 133.0428009 33.50552368 C134.10244553 33.50946136 135.16209015 33.51339905 136.25384521 33.51745605 C137.41129745 33.51176102 138.56874969 33.50606598 139.76127625 33.50019836 C140.98450089 33.50221252 142.20772552 33.50422668 143.46801758 33.50630188 C146.12704115 33.50984992 148.78581636 33.50990712 151.44481277 33.50452614 C155.65696298 33.49690546 159.86894374 33.50758571 164.08106995 33.52172852 C176.05830003 33.55943213 188.03545429 33.57768767 200.01274109 33.56611633 C206.62936557 33.55988151 213.24571667 33.57157625 219.86227405 33.60256165 C224.0412047 33.62113075 228.21935588 33.61797916 232.39827275 33.59839404 C235.62483318 33.58983742 238.85118482 33.61399529 242.0776825 33.63301086 C243.79564278 33.61535927 243.79564278 33.61535927 245.54830933 33.59735107 C252.92523475 33.68229998 258.6951481 34.96702884 264.80766296 39.26069641 C270.02476904 44.74149452 272.90831841 49.79955192 272.84672546 57.42475891 C272.84108582 58.32919739 272.83544617 59.23363586 272.82963562 60.16548157 C272.82238464 60.85690247 272.81513367 61.54832336 272.80766296 62.26069641 C273.82078552 62.23974915 274.83390808 62.21880188 275.87773132 62.19721985 C279.67397152 62.12424971 283.47015107 62.07869206 287.26689148 62.04096985 C288.9030656 62.02098309 290.53916948 61.99378398 292.1750946 61.9589386 C311.31040065 61.56186786 311.31040065 61.56186786 319.14750671 68.26069641 C319.67473328 68.92069641 320.20195984 69.58069641 320.74516296 70.26069641 C321.56307312 71.25069641 321.56307312 71.25069641 322.39750671 72.26069641 C326.52183041 78.11015273 326.64626172 83.23382126 325.80766296 90.26069641 C324.54828858 95.57373734 322.63553247 100.69643562 320.77280998 105.8216877 C319.47641444 109.39043864 318.22261703 112.97376013 316.96556568 116.55652142 C316.29180598 118.47593275 315.61597543 120.39461829 314.93818951 122.31261158 C311.36587437 132.44074907 308.00098014 142.6348002 304.65011215 152.83792496 C302.92258025 158.09381131 301.1834199 163.34585209 299.44633484 168.59858704 C297.32107939 175.02844332 295.19940543 181.45943513 293.08769226 187.89375305 C291.33651736 193.22844871 289.57506505 198.55965307 287.80673409 203.88868523 C287.14553589 205.88759736 286.48809077 207.88775541 285.83466911 209.8892231 C284.92973913 212.65969149 284.01171422 215.42549829 283.09062195 218.19062805 C282.83136932 218.9951239 282.5721167 219.79961975 282.30500793 220.62849426 C279.95198711 227.61236231 276.64771096 234.18225488 270.99516296 239.07319641 C270.39059265 239.61589172 269.78602234 240.15858704 269.16313171 240.71772766 C262.34018546 245.18715348 255.99417433 245.69583671 248.06681824 245.64164734 C247.0079873 245.64632731 245.94915637 245.65100728 244.85823965 245.65582907 C241.32237184 245.66776242 237.78689279 245.65832804 234.25102234 245.64888 C231.71112848 245.65294643 229.1712364 245.6582887 226.63134766 245.66481018 C220.45609616 245.67706219 214.28098782 245.67527921 208.10573447 245.66657226 C203.085485 245.65978782 198.06526617 245.65888227 193.04501343 245.66214371 C192.32958857 245.66260341 191.61416371 245.66306311 190.87705931 245.66353673 C189.42353442 245.66449594 187.97000955 245.66546858 186.51648468 245.66645451 C172.89754988 245.67500224 159.27867573 245.66518397 145.65975088 245.64905341 C133.9826248 245.63565078 122.30558821 245.63797904 110.62846375 245.65180969 C97.05714206 245.66787642 83.48587349 245.67417832 69.91454363 245.6649729 C68.46646659 245.66401729 67.01838955 245.66307417 65.5703125 245.66214371 C64.85789354 245.66168088 64.14547458 245.66121805 63.41146716 245.6607412 C58.39920688 245.65815459 53.38698039 245.66251521 48.37472534 245.66958237 C41.62446647 245.67889116 34.87440238 245.6722317 28.12415123 245.6548996 C25.64739449 245.65093426 23.17062352 245.65206958 20.69387245 245.65868759 C17.31189255 245.66689096 13.9304532 245.65659534 10.54850769 245.64164734 C9.56951177 245.6483395 8.59051585 245.65503167 7.58185339 245.66192663 C-0.48594377 245.59281063 -7.52897654 243.95948595 -13.46634865 238.14434624 C-21.96179851 228.87287444 -20.90451746 217.75291358 -20.83930969 205.97505188 C-20.84609213 203.91760994 -20.85499877 201.86017408 -20.86585999 199.80274963 C-20.88858227 194.23671396 -20.87984681 188.67114358 -20.86396456 183.10510015 C-20.85127239 177.27122116 -20.86305457 171.43738099 -20.87089539 165.60350037 C-20.87998082 155.81028618 -20.86803146 146.01726081 -20.8441925 136.22407532 C-20.81696831 124.90970652 -20.82580948 113.59578807 -20.85332453 102.28143013 C-20.87602788 92.5554548 -20.87921009 82.82961487 -20.86613119 73.1036216 C-20.85834544 67.29968199 -20.85727148 61.49595397 -20.87381363 55.69202805 C-20.88827734 50.2367803 -20.87820139 44.78211242 -20.84934235 39.32692719 C-20.84274243 37.32749264 -20.84461043 35.32800913 -20.85565567 33.32859421 C-20.86936556 30.5943596 -20.85213026 27.86197107 -20.82725525 25.12785339 C-20.83840886 24.34087818 -20.84956247 23.55390297 -20.86105406 22.74308002 C-20.7405144 15.89019393 -17.92055715 11.19877961 -13.31343079 6.23725891 C-12.75784485 5.79124329 -12.20225891 5.34522766 -11.62983704 4.88569641 C-11.07167297 4.42421204 -10.51350891 3.96272766 -9.93843079 3.48725891 C-6.64386944 1.17295855 -4.05295977 0.01159963 0 0 Z M-11.19233704 17.26069641 C-12.75406402 20.38415038 -12.32545537 23.70381295 -12.31259155 27.13194275 C-12.31344598 27.95444562 -12.3143004 28.7769485 -12.31518072 29.6243757 C-12.3168352 32.39591192 -12.31131466 35.16738837 -12.30586243 37.93891907 C-12.30558052 39.91948444 -12.30573835 41.90004992 -12.30630493 43.88061523 C-12.30659278 49.27082986 -12.3006981 54.66102239 -12.29373097 60.05123186 C-12.28749532 65.679351 -12.28689347 71.30747059 -12.28570557 76.93559265 C-12.28259288 87.5992787 -12.27438033 98.26295455 -12.26435608 108.9266361 C-12.25319301 121.06429782 -12.247684 133.20196002 -12.24266064 145.3396256 C-12.23219767 170.31332154 -12.21459943 195.2870084 -12.19233704 220.26069641 C-9.71899858 217.06706125 -8.0727886 214.03149175 -6.46968079 210.31147766 C-6.084095 209.42345963 -6.084095 209.42345963 -5.6907196 208.51750183 C-5.129572 207.2234658 -4.57085239 205.92837483 -4.01426697 204.63237 C-3.10662909 202.51916252 -2.19267884 200.40878468 -1.27705383 198.29902649 C-0.288782 196.02154943 0.69902939 193.74388174 1.68496704 191.46539307 C5.21898852 183.29841415 8.79351689 175.14936463 12.37303162 167.00224304 C13.50423197 164.42755474 14.63474129 161.8525638 15.7651825 159.27754211 C22.20642409 144.60943507 28.67104709 129.95162136 35.16239929 115.30561829 C38.56672152 107.62144459 41.96230095 99.93517375 45.27250671 92.20991516 C45.77467712 91.04460266 46.27684753 89.87929016 46.79423523 88.67866516 C47.67965483 86.61855048 48.55728344 84.5550576 49.42460632 82.48725891 C53.30515995 73.48260503 57.1844672 68.86121944 66.06227875 64.55157089 C73.5024462 61.98726193 81.1895403 62.4316494 88.9785614 62.48774719 C90.89164979 62.47956371 92.80472846 62.46875402 94.7177887 62.45553589 C99.87827404 62.42724092 105.03811746 62.4354053 110.19863415 62.45040369 C115.60387929 62.45981755 121.00897134 62.43530186 126.41416931 62.41447449 C136.63487716 62.38020149 146.85536106 62.37618681 157.07611489 62.38319957 C168.71831917 62.38970269 180.36036707 62.36223568 192.00252485 62.33199716 C215.93758698 62.27058669 239.87253109 62.25156969 263.80766296 62.26069641 C263.85344349 60.6659139 263.88605541 59.07074986 263.91313171 57.47554016 C263.93270935 56.58729553 263.95228699 55.6990509 263.97245789 54.78388977 C263.72621799 51.0136834 262.30189659 49.02457691 259.80766296 46.26069641 C256.21857763 43.71345666 253.79165906 42.88670518 249.40757751 42.89561462 C248.33669891 42.89030228 247.26582031 42.88498993 246.16249084 42.8795166 C244.9977121 42.88880692 243.83293335 42.89809723 242.63285828 42.90766907 C240.78076248 42.90442879 240.78076248 42.90442879 238.89125061 42.90112305 C236.21028124 42.89803531 233.52991315 42.90025386 230.84902191 42.91113663 C226.60343458 42.92753486 222.35812029 42.91901355 218.11253357 42.90629578 C206.80237825 42.87621262 195.49227222 42.8776006 184.1820972 42.89654863 C176.75039145 42.90890819 169.3189962 42.90694509 161.887326 42.87816083 C157.67379341 42.86298507 153.46110688 42.870323 149.24762774 42.894871 C145.9983703 42.90737578 142.74927589 42.88733583 139.50004578 42.87251282 C138.34336395 42.88585159 137.18668213 42.89919037 135.99494934 42.91293335 C127.74318228 42.82942121 121.80002813 41.00726298 115.71391296 35.29585266 C115.01781921 34.31938782 115.01781921 34.31938782 114.30766296 33.32319641 C113.7494989 32.55491516 113.19133484 31.78663391 112.61625671 30.99507141 C111.25644028 28.93919344 109.94361516 26.87627224 108.65531921 24.77632141 C108.08684265 23.85967712 108.08684265 23.85967712 107.50688171 22.92451477 C106.77311605 21.72946644 106.05441952 20.52497168 105.35453796 19.30976868 C102.1768061 14.07826394 97.70627548 9.22602588 91.5789299 7.70884323 C89.12523017 7.49906947 86.73621036 7.47179035 84.27397156 7.5160675 C83.3558519 7.50876617 82.43773224 7.50146484 81.49179077 7.49394226 C78.47912402 7.4778261 75.46864125 7.50486114 72.45610046 7.53413391 C70.35198467 7.53517212 68.24786693 7.53413282 66.14375305 7.53111267 C61.74399174 7.53129168 57.34496675 7.55206178 52.94535828 7.58833313 C47.31170565 7.63376335 41.67912511 7.63478139 36.04533958 7.62129784 C31.70436608 7.61460977 27.36363616 7.62789321 23.02270889 7.6475563 C20.94553019 7.6552418 18.86832436 7.6575644 16.79113388 7.65438461 C13.88775373 7.65364127 10.98573975 7.67893373 8.08256531 7.71138 C7.22838516 7.70642517 6.37420502 7.70147034 5.49414062 7.69636536 C-2.2781141 7.83471402 -6.67628622 10.90477305 -11.19233704 17.26069641 Z M60.57377625 77.57807922 C58.54946574 80.65288207 57.00205716 83.81341857 55.54985046 87.18257141 C55.24972549 87.86213394 54.94960052 88.54169647 54.64038086 89.24185181 C53.64734871 91.49507544 52.66505649 93.75281649 51.68266296 96.01069641 C50.97541536 97.62093939 50.26747368 99.23087769 49.55888367 100.8405304 C47.67976045 105.11382138 45.80948462 109.39092975 43.94090271 113.6688385 C42.10637905 117.86461851 40.26361938 122.0567727 38.42094421 126.24897766 C36.19339213 131.31789576 33.96661231 136.3871451 31.74394226 141.45820618 C26.99529775 152.2912965 22.22470528 163.11443732 17.43656921 173.93013 C15.82430556 177.57241667 14.21489956 181.21594191 12.60844421 184.86079407 C11.8311044 186.62430492 11.0537607 188.38781405 10.27641296 190.15132141 C9.89920105 191.00724884 9.52198914 191.86317627 9.13334656 192.74504089 C6.99180199 197.59815267 4.83133841 202.44211601 2.6499939 207.27746582 C1.38079096 210.09605712 0.12332371 212.91977926 -1.13163757 215.74473572 C-1.70737811 217.03274213 -2.28866331 218.31828637 -2.87583923 219.60112 C-3.66861457 221.33412948 -4.44087307 223.07648179 -5.21186829 224.81929016 C-5.64604065 225.78149475 -6.08021301 226.74369934 -6.52754211 227.73506165 C-7.38481478 230.19298791 -7.38481478 230.19298791 -6.69111633 232.4132843 C-4.13682854 235.56172797 -1.00517438 237.0346607 3.02578521 237.53726554 C5.74007409 237.64774608 8.43963065 237.66040329 11.15614319 237.64164734 C12.717325 237.6486673 12.717325 237.6486673 14.31004584 237.65582907 C17.79684869 237.66779301 21.28325954 237.65831603 24.77006531 237.64888 C27.27025583 237.65294512 29.77044456 237.65828666 32.27062988 237.66481018 C38.3565921 237.67707637 44.44240055 237.67527144 50.52835678 237.66657226 C55.47619044 237.65979319 60.42399301 237.65887996 65.37182999 237.66214371 C66.07642438 237.66260341 66.78101877 237.66306311 67.50696451 237.66353673 C68.93842447 237.66449593 70.36988441 237.66546857 71.80134435 237.66645451 C85.22188315 237.67500748 98.64236046 237.66517639 112.06288917 237.64905341 C123.57061803 237.63565614 135.07825607 237.63797361 146.58598328 237.65180969 C159.95586187 237.66787722 173.32568655 237.67417738 186.69557345 237.6649729 C188.12233709 237.66401728 189.54910075 237.66307417 190.97586441 237.66214371 C192.02879315 237.66144947 192.02879315 237.66144947 193.10299318 237.6607412 C198.04209324 237.65815439 202.98115901 237.66251576 207.92025375 237.66958237 C214.57361776 237.67889253 221.22683709 237.67222949 227.88019371 237.6548996 C230.32147245 237.65093457 232.76276563 237.65206906 235.20403862 237.65868759 C238.53795856 237.66689238 241.87133037 237.65659357 245.20521545 237.64164734 C246.65241 237.65168559 246.65241 237.65168559 248.1288408 237.66192663 C254.76379094 237.60428403 260.26563345 236.65222395 265.89315796 232.8526001 C272.24626395 225.91166772 274.44794576 216.97192124 277.26469421 208.20210266 C277.86479345 206.38382687 278.46679242 204.5661771 279.07055664 202.74911499 C280.34591425 198.90133442 281.61026363 195.05018436 282.86631775 191.19606018 C284.78316914 185.32139518 286.73664055 179.45939694 288.69975281 173.60005188 C291.32668505 165.75464152 293.94681679 157.90704747 296.55570984 150.05561829 C296.87888624 149.08309805 297.20206264 148.11057781 297.53503227 147.10858727 C298.52187925 144.13850239 299.50854194 141.16835635 300.49516296 138.19819641 C302.82945192 131.17148308 305.16484615 124.14514025 307.50271034 117.11961555 C308.42069283 114.35927186 309.33685093 111.59832739 310.25289917 108.83734131 C310.81362745 107.15152605 311.37443928 105.46573858 311.93534851 103.77998352 C312.18309021 103.0315921 312.43083191 102.28320068 312.68608093 101.51213074 C313.87669343 97.93993806 315.1221283 94.40472038 316.47155762 90.88912964 C318.17751412 86.2562994 318.2833519 82.94712673 316.80766296 78.26069641 C313.86149062 74.51826127 310.64235382 71.61664987 305.79286069 71.00769675 C305.07518657 71.0062879 304.35751245 71.00487905 303.61809063 71.00342751 C302.78539518 70.99697861 301.95269973 70.99052972 301.09477109 70.98388541 C300.1851516 70.98698261 299.27553211 70.99007982 298.33834839 70.99327087 C297.36798419 70.98873976 296.39761999 70.98420865 295.39785081 70.97954023 C292.13751555 70.96685263 288.8773464 70.96851942 285.61698914 70.97016907 C283.28295679 70.96418653 280.94892643 70.95738162 278.61489868 70.94981384 C272.26774998 70.93211829 265.92065517 70.92745695 259.57348418 70.92618227 C254.27770297 70.92428494 248.98193437 70.91692928 243.686158 70.90983808 C231.90666317 70.89418992 220.12719174 70.88850137 208.34768745 70.88984878 C207.28748104 70.88996865 207.28748104 70.88996865 206.20585632 70.89009094 C205.49818819 70.8901727 204.79052005 70.89025447 204.06140742 70.8903387 C192.59471628 70.89115146 181.12815654 70.87201667 169.6615034 70.84381421 C157.88547436 70.81507959 146.1095094 70.80127425 134.33344442 70.80300176 C127.72295047 70.80351206 121.11260518 70.79779127 114.50214195 70.77664566 C108.28459661 70.75730064 102.06734229 70.75711347 95.84978676 70.77167892 C93.56772563 70.77377278 91.28564648 70.76903197 89.00361633 70.75695801 C85.88804373 70.74154159 82.77347908 70.75079057 79.65792847 70.76622009 C78.75500114 70.75593297 77.85207382 70.74564584 76.92178506 70.73504698 C69.97068059 70.81111123 65.52166964 72.44524817 60.57377625 77.57807922 Z " fill="#FCF9F8" transform="translate(103.19233703613281,132.7393035888672)"/>
<path d="M0 0 C6.34732399 3.69181089 11.29040741 9.30872222 13.625 16.3125 C14.55887918 24.33051985 13.42476892 30.72435565 8.625 37.3125 C2.33149467 43.44105459 -3.88430605 45.74989993 -12.59375 45.65625 C-16.12794263 45.21943968 -18.51725411 43.99220841 -21.42578125 41.9921875 C-24.47507975 40.92890506 -26.39987455 42.17231785 -29.375 43.3125 C-31.87752034 44.54278644 -34.33268949 45.79926099 -36.78515625 47.12109375 C-37.82004433 47.67217552 -37.82004433 47.67217552 -38.87583923 48.23439026 C-40.32666702 49.008018 -41.77632171 49.78384936 -43.22485352 50.56176758 C-45.43194642 51.74701763 -47.64236479 52.92585615 -49.85351562 54.10351562 C-51.26842694 54.85900472 -52.68314702 55.61485209 -54.09765625 56.37109375 C-54.75298843 56.72119003 -55.40832062 57.07128632 -56.08351135 57.43199158 C-58.83629687 58.91128647 -61.54482634 60.41730267 -64.20483398 62.05883789 C-66.375 63.3125 -66.375 63.3125 -68.375 63.3125 C-68.375 67.2725 -68.375 71.2325 -68.375 75.3125 C-67.51688721 75.57442139 -66.65877441 75.83634277 -65.7746582 76.10620117 C-62.29328208 77.34149592 -59.22857595 78.85758024 -55.98046875 80.61328125 C-55.09298698 81.09065987 -55.09298698 81.09065987 -54.18757629 81.5776825 C-52.31012093 82.58902659 -50.43632046 83.60694006 -48.5625 84.625 C-47.31728557 85.29664736 -46.07184454 85.96787477 -44.82617188 86.63867188 C-43.60665382 87.29665817 -42.38725112 87.95485832 -41.16796875 88.61328125 C-40.57690842 88.93232925 -39.98584808 89.25137726 -39.37687683 89.58009338 C-35.23959616 91.82193157 -31.1540827 94.14256651 -27.10742188 96.54394531 C-25.26586794 97.56278471 -25.26586794 97.56278471 -22.6875 96.75 C-21.924375 96.275625 -21.16125 95.80125 -20.375 95.3125 C-14.21142146 92.73239735 -8.12765327 92.12599933 -1.71875 94.15234375 C5.54829313 97.40281334 9.10259989 101.95562708 13 108.6875 C14.63302941 115.5462235 14.19484398 121.8821766 11.015625 128.20703125 C6.88704784 134.45788262 0.93238265 138.69341325 -6.375 140.3125 C-13.46018881 141.22671791 -18.45559311 139.248856 -24.375 135.3125 C-29.31883924 130.94906956 -32.88068638 125.56222405 -33.65625 118.89453125 C-33.86095032 113.25674332 -32.97755101 109.30072277 -30.375 104.3125 C-31.0858374 104.04083008 -31.7966748 103.76916016 -32.52905273 103.48925781 C-35.41875881 102.29440637 -38.14185324 100.93757474 -40.91015625 99.484375 C-41.96783203 98.93136719 -43.02550781 98.37835938 -44.11523438 97.80859375 C-45.21158203 97.23238281 -46.30792969 96.65617187 -47.4375 96.0625 C-55.70820084 91.72524278 -64.00659423 87.45857481 -72.375 83.3125 C-72.94065674 83.83021973 -73.50631348 84.34793945 -74.08911133 84.88134766 C-80.89080656 91.10662804 -85.70915787 92.91856282 -95.01171875 92.75 C-101.26603515 91.93643039 -106.08333494 89.1228329 -110.06640625 84.23828125 C-114.66419063 77.15166771 -115.04748352 70.64931774 -114.375 62.3125 C-112.64609462 55.1749244 -107.37178847 51.12261422 -101.375 47.3125 C-95.04366877 45.20205626 -87.02652631 45.07349123 -80.9375 48 C-77.4176357 49.98451746 -74.44576098 52.70818373 -71.375 55.3125 C-67.58848387 53.2866965 -63.80228587 51.26029993 -60.01635742 49.23339844 C-58.73356302 48.54671954 -57.450688 47.86019122 -56.16772461 47.17382812 C-54.30299994 46.17619678 -52.43860556 45.17795007 -50.57421875 44.1796875 C-49.65876785 43.69033722 -49.65876785 43.69033722 -48.724823 43.19110107 C-43.94056545 40.62916032 -39.19235287 38.00526821 -34.46020508 35.34814453 C-32.375 34.3125 -32.375 34.3125 -30.375 34.3125 C-30.5915625 33.74402344 -30.808125 33.17554688 -31.03125 32.58984375 C-33.607046 25.44677984 -34.4532252 19.52674523 -31.4765625 12.36328125 C-28.3237991 6.49377492 -23.76809895 1.61105458 -17.609375 -1.0625 C-11.64080046 -2.73203134 -5.6531051 -2.61322783 0 0 Z " fill="#FCF8F7" transform="translate(307.375,224.6875)"/>
<path d="M0 0 C4.36492736 2.40706674 5.93942071 4.83284673 7.8125 9.4375 C8.45596506 14.67714407 7.69268993 18.02120877 4.8125 22.4375 C1.10925825 26.19133248 -2.10302541 28.23706975 -7.4375 28.75 C-11.81355773 28.38532852 -14.91469175 27.32956076 -18.1875 24.4375 C-21.62339266 19.77883377 -23.03044428 15.23274192 -22.1875 9.4375 C-20.42898855 4.50534364 -17.74068059 1.40845153 -13.0390625 -0.90234375 C-8.34602817 -2.57559861 -4.45447532 -1.90552555 0 0 Z " fill="#AE3111" transform="translate(223.1875,280.5625)"/>
<path d="M0 0 C4.42977671 2.1357852 7.19613671 4.39012714 9 9 C9.54454427 13.58324763 9.58720242 17.57835205 7.8125 21.875 C3.78323641 26.59896421 0.41944315 28.80168499 -5.8125 29.3125 C-10.1858685 29.25622504 -12.62397294 27.82644126 -16 25 C-19.7497498 20.73304334 -20.35308146 16.80719951 -20.28125 11.28515625 C-19.72306056 6.74986703 -17.20224255 4.09294778 -13.9375 1.125 C-9.31242228 -0.64630636 -4.88371757 -0.64542523 0 0 Z " fill="#AD300F" transform="translate(303,327)"/>
<path d="M0 0 C3.68652249 1.26531848 6.29975719 3.23199175 8.9375 6.125 C10.75312069 11.03785599 10.96005173 16.08730068 9.30859375 21.09765625 C7.79361278 24.08324636 6.05396008 25.96017232 3.375 27.9375 C-1.2144151 29.38231586 -5.24467413 29.93904539 -10 29 C-14.23154363 26.60083122 -17.17898459 23.52724665 -19 19 C-19.74363233 14.73126439 -19.98070637 10.69225988 -17.76171875 6.86328125 C-12.48685477 0.61983183 -8.09438052 -0.99490868 0 0 Z " fill="#AD300F" transform="translate(302,232)"/>
</svg>
