<?xml version="1.0" encoding="UTF-8"?>
<svg version="1.1" xmlns="http://www.w3.org/2000/svg" width="512" height="512">
<path d="M0 0 C0.95108643 -0.00945648 1.90217285 -0.01891296 2.88208008 -0.02865601 C3.90712646 -0.02258331 4.93217285 -0.01651062 5.98828125 -0.01025391 C7.04233154 -0.01312408 8.09638184 -0.01599426 9.18237305 -0.01895142 C11.41162656 -0.02099354 13.64089792 -0.01545339 15.87011719 -0.00292969 C19.28751593 0.01312129 22.7037319 -0.00277399 26.12109375 -0.02197266 C28.28515887 -0.01999025 30.44922325 -0.01614663 32.61328125 -0.01025391 C33.63832764 -0.0163266 34.66337402 -0.02239929 35.71948242 -0.02865601 C36.67056885 -0.01919952 37.62165527 -0.00974304 38.6015625 0 C39.43856689 0.00238678 40.27557129 0.00477356 41.13793945 0.00723267 C43.80842249 0.4775967 44.67694443 1.25057594 46.30078125 3.38818359 C47.00854492 6.11547852 47.00854492 6.11547852 47.46875 9.36865234 C47.72495117 11.1137207 47.72495117 11.1137207 47.98632812 12.89404297 C48.23479492 14.71645508 48.23479492 14.71645508 48.48828125 16.57568359 C48.66552734 17.80222656 48.84277344 19.02876953 49.02539062 20.29248047 C49.4616871 23.32297218 49.88632477 26.35464082 50.30078125 29.38818359 C51.45191406 29.80970703 52.60304688 30.23123047 53.7890625 30.66552734 C58.09184069 32.27918761 62.29078971 34.08290028 66.48828125 35.95068359 C68.50276391 36.84327186 70.51623952 37.73418427 72.54443359 38.59521484 C74.30078125 39.38818359 74.30078125 39.38818359 76.8515625 40.92333984 C79.59494232 41.728485 79.59494232 41.728485 82.67578125 39.31787109 C83.89922032 38.31784264 85.10718753 37.29865165 86.30078125 36.26318359 C86.9040625 35.76302734 87.50734375 35.26287109 88.12890625 34.74755859 C89.86376973 33.30686762 91.58275074 31.84886873 93.30078125 30.38818359 C99.2009906 25.49067836 99.2009906 25.49067836 103.30078125 25.38818359 C108.09425408 27.7265532 111.59922577 31.33097074 115.3515625 35.03271484 C116.01036911 35.68012131 116.66917572 36.32752777 117.34794617 36.99455261 C118.73320504 38.36098023 120.11562513 39.73029105 121.49536133 41.10229492 C123.60991766 43.19735102 125.74483554 45.27012714 127.88085938 47.34326172 C129.22657292 48.67592204 130.57101861 50.00986411 131.9140625 51.34521484 C132.55459061 51.96104935 133.19511871 52.57688385 133.85505676 53.21138 C138.17895747 57.57968381 138.17895747 57.57968381 138.79394531 61.66113281 C138.16972501 65.11288565 136.89220525 66.94186253 134.73828125 69.70068359 C133.65546875 71.11994141 133.65546875 71.11994141 132.55078125 72.56787109 C131.10756125 74.37690728 129.65034913 76.17491951 128.17578125 77.95849609 C127.21671875 79.13025391 127.21671875 79.13025391 126.23828125 80.32568359 C125.64917969 81.01533203 125.06007813 81.70498047 124.453125 82.41552734 C123.07894819 84.28348622 123.07894819 84.28348622 123.61547852 86.24267578 C124.32571161 88.4662342 125.16799853 90.55478197 126.11328125 92.68896484 C126.64308594 93.9080957 126.64308594 93.9080957 127.18359375 95.15185547 C127.92407912 96.84124953 128.66882536 98.52878285 129.41796875 100.21435547 C131.48920146 105.0031362 132.85109496 109.18165951 133.30078125 114.38818359 C135.20150391 114.56994141 135.20150391 114.56994141 137.140625 114.75537109 C138.83987211 114.92435699 140.5390893 115.09364396 142.23828125 115.26318359 C143.06908203 115.34181641 143.89988281 115.42044922 144.75585938 115.50146484 C159.53505998 116.99663689 159.53505998 116.99663689 162.89477539 119.64439392 C164.70084838 121.88436426 164.68592938 123.12383727 164.70483398 125.97973633 C164.72386024 127.3714933 164.72386024 127.3714933 164.74327087 128.79136658 C164.73886742 130.29141991 164.73886742 130.29141991 164.734375 131.82177734 C164.73961685 132.85125992 164.7448587 133.88074249 164.7502594 134.94142151 C164.75668499 137.11938576 164.7553357 139.29738469 164.74682617 141.4753418 C164.7383224 144.80954785 164.76706133 148.14203779 164.79882812 151.47607422 C164.80044034 153.59130808 164.79986222 155.70654498 164.796875 157.82177734 C164.80810898 158.81978867 164.81934296 159.81779999 164.83091736 160.84605408 C164.76194424 167.69112708 164.76194424 167.69112708 162.58398438 170.9831543 C160.03004731 172.55478687 158.2442084 173.07696845 155.2734375 173.43505859 C153.83774414 173.61875 153.83774414 173.61875 152.37304688 173.80615234 C151.37982422 173.91572266 150.38660156 174.02529297 149.36328125 174.13818359 C148.37392578 174.26322266 147.38457031 174.38826172 146.36523438 174.51708984 C141.9791679 175.05391842 137.72404351 175.45364728 133.30078125 175.38818359 C133.20667969 176.36271484 133.11257813 177.33724609 133.015625 178.34130859 C132.36066292 182.91338131 130.6727737 186.9148061 128.86328125 191.13818359 C128.39438477 192.26933594 128.39438477 192.26933594 127.91601562 193.42333984 C126.55578048 196.66144719 125.26080265 199.44815149 123.30078125 202.38818359 C123.62490792 205.8880383 125.32533423 208.01695165 127.4609375 210.72412109 C128.40356445 211.95001953 128.40356445 211.95001953 129.36523438 213.20068359 C130.69496303 214.90606385 132.03089693 216.6066242 133.37304688 218.30224609 C134.00017578 219.12208984 134.62730469 219.94193359 135.2734375 220.78662109 C135.85359619 221.5257373 136.43375488 222.26485352 137.03149414 223.02636719 C138.76089367 226.2443343 139.00012578 227.77139109 138.30078125 231.38818359 C136.33366076 234.21651762 133.94008248 236.54175848 131.4765625 238.93896484 C130.77814743 239.63837692 130.07973236 240.337789 129.3601532 241.05839539 C127.88179345 242.53207923 126.39605521 243.99839293 124.90356445 245.45776367 C122.62146656 247.69266756 120.36718434 249.95302592 118.11523438 252.21826172 C116.67475458 253.64758766 115.2327467 255.07537558 113.7890625 256.50146484 C113.11490799 257.17744217 112.44075348 257.85341949 111.74617004 258.54988098 C105.67415109 264.44111033 105.67415109 264.44111033 101.30078125 264.38818359 C95.70954863 261.78025884 91.11298279 258.03489653 86.36328125 254.13818359 C85.67943359 253.58388672 84.99558594 253.02958984 84.29101562 252.45849609 C82.62396299 251.10620165 80.96184935 249.74782235 79.30078125 248.38818359 C77.54314453 249.18482422 77.54314453 249.18482422 75.75 249.99755859 C74.16285263 250.71130534 72.57560774 251.42483528 70.98828125 252.13818359 C69.83875977 252.66025391 69.83875977 252.66025391 68.66601562 253.19287109 C62.64454457 255.89128966 56.52529972 258.20176722 50.30078125 260.38818359 C50.19008301 261.16009033 50.07938477 261.93199707 49.96533203 262.72729492 C49.46000659 266.2196143 48.94303877 269.71011245 48.42578125 273.20068359 C48.25175781 274.415625 48.07773437 275.63056641 47.8984375 276.88232422 C47.72441406 278.04570312 47.55039062 279.20908203 47.37109375 280.40771484 C47.21398926 281.48126221 47.05688477 282.55480957 46.89501953 283.66088867 C46.30078125 286.38818359 46.30078125 286.38818359 44.30078125 289.38818359 C41.52777392 290.31251937 39.84772487 290.51914241 36.98461914 290.53344727 C36.11684341 290.53982712 35.24906769 290.54620697 34.35499573 290.55278015 C32.9533744 290.55444939 32.9533744 290.55444939 31.5234375 290.55615234 C30.07909584 290.56114494 30.07909584 290.56114494 28.60557556 290.5662384 C26.56884234 290.57130159 24.53210083 290.57364692 22.49536133 290.57348633 C19.3789301 290.57567262 16.26285295 290.59383426 13.14648438 290.61279297 C11.16796996 290.61572704 9.18945387 290.61771174 7.2109375 290.61865234 C6.27854752 290.62583786 5.34615753 290.63302338 4.38551331 290.64042664 C3.51458542 290.63735001 2.64365753 290.63427338 1.74633789 290.63110352 C0.98261368 290.63252853 0.21888947 290.63395355 -0.56797791 290.63542175 C-3.02745853 290.35010559 -4.61143719 289.70991072 -6.69921875 288.38818359 C-9.25171499 283.02273231 -9.58599386 276.85118654 -10.32421875 271.01318359 C-10.5253125 269.47984375 -10.5253125 269.47984375 -10.73046875 267.91552734 C-11.05868063 265.40705081 -11.38143199 262.89799847 -11.69921875 260.38818359 C-12.25794678 260.16678711 -12.8166748 259.94539063 -13.39233398 259.71728516 C-15.97455426 258.69281878 -18.55563741 257.6655159 -21.13671875 256.63818359 C-22.01521484 256.29013672 -22.89371094 255.94208984 -23.79882812 255.58349609 C-29.49370922 253.31394938 -35.11755258 250.92352088 -40.69921875 248.38818359 C-41.70082031 249.20802734 -42.70242187 250.02787109 -43.734375 250.87255859 C-45.07660911 251.96136389 -46.4190691 253.04989076 -47.76171875 254.13818359 C-48.41849609 254.67701172 -49.07527344 255.21583984 -49.75195312 255.77099609 C-60.38366288 264.36016062 -60.38366288 264.36016062 -64.93847656 264.4152832 C-69.25319071 262.81004776 -71.97360702 259.72404772 -75.1875 256.50146484 C-75.8906987 255.8068364 -76.5938974 255.11220795 -77.31840515 254.39653015 C-78.80012357 252.92628491 -80.27664556 251.45078671 -81.74829102 249.97045898 C-84.0037559 247.70866878 -86.28455342 245.474825 -88.56835938 243.24169922 C-90.00552637 241.80907785 -91.44112783 240.37488391 -92.875 238.93896484 C-93.55927567 238.27310867 -94.24355133 237.6072525 -94.94856262 236.92121887 C-99.53359754 232.24472503 -99.53359754 232.24472503 -100.31494141 228.20385742 C-99.62102763 225.03061888 -98.67163707 223.33429742 -96.671875 220.78662109 C-96.04474609 219.96677734 -95.41761719 219.14693359 -94.77148438 218.30224609 C-94.10826172 217.46435547 -93.44503906 216.62646484 -92.76171875 215.76318359 C-91.45538665 214.08780948 -90.15436757 212.40827554 -88.859375 210.72412109 C-88.27808838 209.98726074 -87.69680176 209.25040039 -87.09790039 208.49121094 C-85.67989065 206.35912228 -84.98825796 204.92330505 -84.69921875 202.38818359 C-85.69330282 200.04039092 -86.72499967 197.92083194 -87.94921875 195.70068359 C-94.69921875 182.86215353 -94.69921875 182.86215353 -94.69921875 175.38818359 C-95.86324219 175.31470703 -95.86324219 175.31470703 -97.05078125 175.23974609 C-103.13518704 174.8186297 -109.20484761 174.29386454 -115.26171875 173.57568359 C-116.96521484 173.38039062 -116.96521484 173.38039062 -118.703125 173.18115234 C-122.42710372 172.19553607 -123.47020797 171.54833755 -125.69921875 168.38818359 C-126.28575651 164.86753826 -126.21143945 161.38319264 -126.16015625 157.82177734 C-126.15923981 156.79133804 -126.15832336 155.76089874 -126.15737915 154.69923401 C-126.15134185 152.52299385 -126.13559209 150.34676206 -126.11083984 148.1706543 C-126.07431692 144.83465055 -126.06982062 141.49975707 -126.0703125 138.16357422 C-126.06048193 136.0496323 -126.0488252 133.93569792 -126.03515625 131.82177734 C-126.03181778 130.32172401 -126.03181778 130.32172401 -126.02841187 128.79136658 C-126.01565216 127.86352859 -126.00289246 126.93569061 -125.98974609 125.97973633 C-125.9821225 125.16351303 -125.9744989 124.34728973 -125.96664429 123.5063324 C-125.69921875 121.38818359 -125.69921875 121.38818359 -123.69921875 118.38818359 C-121.03538403 117.69093826 -118.53312707 117.1764069 -115.82421875 116.76318359 C-115.06568604 116.63838623 -114.30715332 116.51358887 -113.52563477 116.38500977 C-107.27569194 115.39158462 -101.01867426 114.74129382 -94.69921875 114.38818359 C-94.55806641 112.92638672 -94.55806641 112.92638672 -94.4140625 111.43505859 C-93.75910042 106.86298588 -92.0712112 102.86156109 -90.26171875 98.63818359 C-89.94912109 97.88408203 -89.63652344 97.12998047 -89.31445312 96.35302734 C-87.95421798 93.11492 -86.65924015 90.3282157 -84.69921875 87.38818359 C-84.87443734 83.1644933 -87.97492648 80.16330618 -90.51171875 77.01318359 C-99.41806878 65.81812394 -99.41806878 65.81812394 -100.23266602 61.67504883 C-99.42035371 56.66994105 -96.39468111 54.28076369 -92.83984375 50.83740234 C-92.13905701 50.13799026 -91.43827026 49.43857819 -90.71624756 48.7179718 C-89.23359145 47.24436834 -87.74366108 45.77805285 -86.24707031 44.31860352 C-83.95579447 42.08210211 -81.68944935 39.8225114 -79.42578125 37.55810547 C-77.98187655 36.12894736 -76.53660867 34.70116492 -75.08984375 33.27490234 C-74.41052795 32.59892502 -73.73121216 31.92294769 -73.03131104 31.22648621 C-72.3909491 30.60526382 -71.75058716 29.98404144 -71.09082031 29.34399414 C-70.5312262 28.79583542 -69.97163208 28.2476767 -69.39508057 27.6829071 C-67.46933876 26.2126793 -66.08920374 25.71961752 -63.69921875 25.38818359 C-59.98988219 26.48879219 -57.28814125 28.26025931 -54.2734375 30.64599609 C-53.47744141 31.27119141 -52.68144531 31.89638672 -51.86132812 32.54052734 C-51.04470703 33.19150391 -50.22808594 33.84248047 -49.38671875 34.51318359 C-48.55076172 35.17189453 -47.71480469 35.83060547 -46.85351562 36.50927734 C-44.7978356 38.13032788 -42.74664282 39.75672695 -40.69921875 41.38818359 C-39.17554688 40.69982422 -39.17554688 40.69982422 -37.62109375 39.99755859 C-30.13059563 36.64796336 -22.71134402 33.54536907 -14.859375 31.11474609 C-12.74440595 30.58163347 -12.74440595 30.58163347 -11.69921875 29.38818359 C-11.3661762 27.50219407 -11.08734799 25.60657069 -10.83203125 23.70849609 C-10.66832031 22.55220703 -10.50460938 21.39591797 -10.3359375 20.20458984 C-9.99600032 17.75237124 -9.66261746 15.29923473 -9.3359375 12.84521484 C-9.16964844 11.68634766 -9.00335938 10.52748047 -8.83203125 9.33349609 C-8.68652832 8.26631348 -8.54102539 7.19913086 -8.39111328 6.09960938 C-7.1411545 1.20121763 -4.90303541 0.01398137 0 0 Z M-22.07421875 106.51708984 C-32.80827093 118.25745942 -37.68938855 132.67242618 -37.1171875 148.43115234 C-35.34237753 165.23379255 -28.25139967 178.48207359 -15.3203125 189.39599609 C-2.70026209 198.75468516 11.28817898 202.42484184 26.85546875 200.91943359 C42.46746333 198.51214191 55.83954174 190.36611104 65.26953125 177.75537109 C74.23372198 164.42303658 77.11751126 150.08989761 74.83984375 134.16552734 C71.38831886 118.75548386 62.89308631 106.12699885 49.73828125 97.38818359 C25.74427155 83.41999948 -2.3546583 86.63663548 -22.07421875 106.51708984 Z " fill="#55B7DE" transform="translate(236.69921875,-0.38818359375)"/>
<path d="M0 0 C1.0209375 0.01546875 1.0209375 0.01546875 2.0625 0.03125 C2.743125 0.0209375 3.42375 0.010625 4.125 0 C6.89857885 0.76049743 7.57320777 2.11736311 9.0625 4.53125 C9.40307617 6.82128906 9.40307617 6.82128906 9.35546875 9.296875 C9.34580078 10.18632812 9.33613281 11.07578125 9.32617188 11.9921875 C9.30103516 12.91257812 9.27589844 13.83296875 9.25 14.78125 C9.23646484 15.71710938 9.22292969 16.65296875 9.20898438 17.6171875 C9.17369954 19.92246327 9.12440281 22.2265606 9.0625 24.53125 C10.00617778 24.52664104 10.94985556 24.52203207 11.92212963 24.51728344 C34.87312817 24.40633569 57.82409196 24.32414511 80.77530193 24.27218914 C91.87430534 24.24639642 102.9731317 24.21122535 114.07202148 24.15405273 C123.7446801 24.10425063 133.41721051 24.07196676 143.08999377 24.06080753 C148.21275723 24.05428339 153.3351539 24.03892746 158.45779991 24.00259972 C163.27836872 23.96869078 168.09841925 23.95818675 172.91909599 23.96571159 C174.68922491 23.96433476 176.45937095 23.95437182 178.22939682 23.93522263 C180.64552808 23.91036318 183.05969977 23.91631731 185.47587585 23.92997742 C186.17724613 23.91541321 186.87861641 23.900849 187.60124034 23.88584346 C191.4605074 23.94486932 192.97244075 24.45727231 195.99824333 26.9427681 C198.02859818 29.48873869 198.6864266 30.36599726 198.66186523 33.52368164 C198.66794296 34.27118179 198.67402069 35.01868195 198.68028259 35.78883362 C198.65098412 36.97810707 198.65098412 36.97810707 198.62109375 38.19140625 C198.61876236 39.01829453 198.61643097 39.8451828 198.61402893 40.6971283 C198.60431346 42.43954839 198.58257687 44.18193792 198.54956055 45.92407227 C198.50009691 48.58852984 198.48807457 51.25114002 198.48242188 53.91601562 C198.46833665 55.61199878 198.45213252 57.30796593 198.43359375 59.00390625 C198.42823105 59.79877945 198.42286835 60.59365265 198.41734314 61.41261292 C198.26570303 68.47273748 198.26570303 68.47273748 196.0625 71.53125 C193.29149606 72.91675197 191.1290294 72.7189967 188.0625 72.53125 C185.0625 70.53125 185.0625 70.53125 184.0625 67.53125 C184.0625 57.63125 184.0625 47.73125 184.0625 37.53125 C126.3125 37.53125 68.5625 37.53125 9.0625 37.53125 C9.0625 47.43125 9.0625 57.33125 9.0625 67.53125 C7.0625 71.53125 7.0625 71.53125 5.0625 72.53125 C1.01107881 72.78985135 -0.48087669 72.83566554 -3.9375 70.53125 C-7.41760217 60.09094349 -4.9375 48.53629935 -4.9375 37.53125 C-62.6875 37.53125 -120.4375 37.53125 -179.9375 37.53125 C-179.9375 47.43125 -179.9375 57.33125 -179.9375 67.53125 C-181.9375 71.53125 -181.9375 71.53125 -183.9375 72.53125 C-187.98892119 72.78985135 -189.48087669 72.83566554 -192.9375 70.53125 C-194.93445172 64.54039485 -194.24488747 57.63186972 -194.28759766 51.34423828 C-194.30416727 49.55569455 -194.33147079 47.76721731 -194.36962891 45.97900391 C-194.42445586 43.39450902 -194.44627694 40.8115609 -194.4609375 38.2265625 C-194.48360687 37.43057648 -194.50627625 36.63459045 -194.52963257 35.81448364 C-194.52678253 35.0637558 -194.5239325 34.31302795 -194.52099609 33.53955078 C-194.52908295 32.88463654 -194.5371698 32.22972229 -194.54550171 31.55496216 C-193.54304768 28.21832943 -191.59685353 26.71503842 -188.9375 24.53125 C-186.19653748 24.04789459 -184.08226773 23.87325908 -181.35087585 23.92997742 C-180.5952301 23.92570529 -179.83958434 23.92143317 -179.06104022 23.91703159 C-176.53316992 23.90880638 -174.00696501 23.9362767 -171.47924805 23.96362305 C-169.66572611 23.96503363 -167.85220131 23.96424134 -166.03868103 23.96141052 C-161.11739636 23.95997536 -156.19672044 23.98938154 -151.27557731 24.02428031 C-146.13197649 24.05552695 -140.98836187 24.05847322 -135.84468079 24.06440735 C-126.10532163 24.07995074 -116.36624294 24.12098603 -106.62700731 24.1711548 C-95.53887109 24.22703273 -84.45072152 24.25453088 -73.36247957 24.27963197 C-50.55399752 24.33190135 -27.74576447 24.41985341 -4.9375 24.53125 C-4.96106567 23.65388184 -4.96106567 23.65388184 -4.98510742 22.75878906 C-5.04760267 20.09970836 -5.08653569 17.44078236 -5.125 14.78125 C-5.15013672 13.86085938 -5.17527344 12.94046875 -5.20117188 11.9921875 C-5.21567383 10.65800781 -5.21567383 10.65800781 -5.23046875 9.296875 C-5.25403442 8.07145996 -5.25403442 8.07145996 -5.27807617 6.82128906 C-4.77658961 3.44928621 -3.39269208 0.93025428 0 0 Z " fill="#55B7DE" transform="translate(253.9375,292.46875)"/>
<path d="M0 0 C10.07058846 7.32075327 16.85563368 16.07151013 19.625 28.4375 C21.82487896 42.70269448 18.20382977 55.57441948 10.0625 67.4375 C0.36038238 77.13961762 -10.74704025 82.44501823 -24.4375 82.5 C-36.53762243 82.4807891 -46.32805885 78.94217511 -55.5 70.8125 C-56.2425 69.966875 -56.985 69.12125 -57.75 68.25 C-58.22953125 67.78464844 -58.7090625 67.31929688 -59.203125 66.83984375 C-67.03851078 58.78680837 -70.11745844 46.8316066 -69.96875 35.80859375 C-68.74042111 21.4415326 -62.51628773 10.65545606 -51.5859375 1.421875 C-36.133821 -9.70364888 -16.05133249 -10.0081562 0 0 Z " fill="#55B7DE" transform="translate(280.75,106.75)"/>
<path d="M0 0 C2.50341797 1.17651367 2.50341797 1.17651367 4.9921875 2.66796875 C5.93384766 3.22508545 6.87550781 3.78220215 7.84570312 4.35620117 C8.84537109 4.96052979 9.84503906 5.5648584 10.875 6.1875 C13.00739744 7.45902966 15.14022346 8.7298408 17.2734375 10 C18.37268555 10.65742188 19.47193359 11.31484375 20.60449219 11.9921875 C24.02048921 14.01211557 27.46102362 15.9816581 30.9140625 17.9375 C32.01766113 18.5663208 33.12125977 19.1951416 34.25830078 19.84301758 C36.39545878 21.05903118 38.53698934 22.2673964 40.68310547 23.4675293 C42.12387451 24.29377808 42.12387451 24.29377808 43.59375 25.13671875 C44.44646484 25.61842529 45.29917969 26.10013184 46.17773438 26.59643555 C47.07975586 27.29119995 47.07975586 27.29119995 48 28 C48 28.99 48 29.98 48 31 C47.26700684 31.41660889 46.53401367 31.83321777 45.77880859 32.26245117 C42.94758063 33.87281972 40.11733514 35.48489223 37.28762817 37.09793091 C36.01495361 37.82293689 34.74190375 38.54728449 33.46847534 39.27096558 C26.73459012 43.09837363 20.02720508 46.95168618 13.41796875 50.9921875 C12.4242627 51.59651611 11.43055664 52.20084473 10.40673828 52.82348633 C8.54463375 53.96200741 6.68977167 55.11248026 4.84326172 56.27612305 C4.00939941 56.7844165 3.17553711 57.29270996 2.31640625 57.81640625 C1.59912354 58.26443604 0.88184082 58.71246582 0.14282227 59.17407227 C-2.69735326 60.26878729 -4.11419273 59.91350481 -7 59 C-8.81952641 58.12981406 -10.60485887 57.18617912 -12.359375 56.19140625 C-13.38490479 55.61382568 -14.41043457 55.03624512 -15.46704102 54.44116211 C-16.55041748 53.82120361 -17.63379395 53.20124512 -18.75 52.5625 C-19.86366943 51.93158447 -20.97733887 51.30066895 -22.12475586 50.65063477 C-33.87724796 43.97425689 -45.56300167 37.20510261 -57 30 C-54.16001025 26.93057061 -51.40137415 24.90081258 -47.73828125 22.8984375 C-46.70928711 22.33036377 -45.68029297 21.76229004 -44.62011719 21.17700195 C-42.98284668 20.28501099 -42.98284668 20.28501099 -41.3125 19.375 C-39.05258991 18.12774238 -36.79347818 16.87903715 -34.53515625 15.62890625 C-33.42543457 15.01547363 -32.31571289 14.40204102 -31.17236328 13.77001953 C-26.8278351 11.3459908 -22.53076961 8.84707093 -18.25 6.3125 C-17.57880127 5.91530762 -16.90760254 5.51811523 -16.21606445 5.10888672 C-13.55524917 3.52953302 -10.94570221 1.96141566 -8.421875 0.16796875 C-5.17256431 -1.39903754 -3.47909179 -0.8142784 0 0 Z " fill="#53ABDD" transform="translate(449,381)"/>
<path d="M0 0 C2.50341797 1.17651367 2.50341797 1.17651367 4.9921875 2.66796875 C5.93384766 3.22508545 6.87550781 3.78220215 7.84570312 4.35620117 C8.84537109 4.96052979 9.84503906 5.5648584 10.875 6.1875 C13.00739744 7.45902966 15.14022346 8.7298408 17.2734375 10 C18.37268555 10.65742188 19.47193359 11.31484375 20.60449219 11.9921875 C24.02048921 14.01211557 27.46102362 15.9816581 30.9140625 17.9375 C32.01766113 18.5663208 33.12125977 19.1951416 34.25830078 19.84301758 C36.39545878 21.05903118 38.53698934 22.2673964 40.68310547 23.4675293 C42.12387451 24.29377808 42.12387451 24.29377808 43.59375 25.13671875 C44.44646484 25.61842529 45.29917969 26.10013184 46.17773438 26.59643555 C47.07975586 27.29119995 47.07975586 27.29119995 48 28 C48 28.99 48 29.98 48 31 C47.42894531 31.32049316 46.85789062 31.64098633 46.26953125 31.97119141 C34.7155497 38.46226968 23.19760949 45.01031091 11.75 51.6875 C10.72132813 52.2870752 9.69265625 52.88665039 8.6328125 53.50439453 C3.25177628 56.64796487 3.25177628 56.64796487 -2 60 C-5.97928433 59.66261153 -8.91928476 58.14186335 -12.359375 56.19140625 C-13.38490479 55.61382568 -14.41043457 55.03624512 -15.46704102 54.44116211 C-16.55041748 53.82120361 -17.63379395 53.20124512 -18.75 52.5625 C-19.86366943 51.93158447 -20.97733887 51.30066895 -22.12475586 50.65063477 C-33.87724796 43.97425689 -45.56300167 37.20510261 -57 30 C-54.16001025 26.93057061 -51.40137415 24.90081258 -47.73828125 22.8984375 C-46.70928711 22.33036377 -45.68029297 21.76229004 -44.62011719 21.17700195 C-42.98284668 20.28501099 -42.98284668 20.28501099 -41.3125 19.375 C-39.05258991 18.12774238 -36.79347818 16.87903715 -34.53515625 15.62890625 C-33.42543457 15.01547363 -32.31571289 14.40204102 -31.17236328 13.77001953 C-26.8278351 11.3459908 -22.53076961 8.84707093 -18.25 6.3125 C-17.57880127 5.91530762 -16.90760254 5.51811523 -16.21606445 5.10888672 C-13.55524917 3.52953302 -10.94570221 1.96141566 -8.421875 0.16796875 C-5.17256431 -1.39903754 -3.47909179 -0.8142784 0 0 Z " fill="#55B7DE" transform="translate(260,381)"/>
<path d="M0 0 C2.50341797 1.17651367 2.50341797 1.17651367 4.9921875 2.66796875 C5.93384766 3.22508545 6.87550781 3.78220215 7.84570312 4.35620117 C8.84537109 4.96052979 9.84503906 5.5648584 10.875 6.1875 C13.00739744 7.45902966 15.14022346 8.7298408 17.2734375 10 C18.37268555 10.65742188 19.47193359 11.31484375 20.60449219 11.9921875 C24.02048921 14.01211557 27.46102362 15.9816581 30.9140625 17.9375 C32.01766113 18.5663208 33.12125977 19.1951416 34.25830078 19.84301758 C36.39545878 21.05903118 38.53698934 22.2673964 40.68310547 23.4675293 C42.12387451 24.29377808 42.12387451 24.29377808 43.59375 25.13671875 C44.44646484 25.61842529 45.29917969 26.10013184 46.17773438 26.59643555 C47.07975586 27.29119995 47.07975586 27.29119995 48 28 C48 28.99 48 29.98 48 31 C47.42894531 31.32049316 46.85789062 31.64098633 46.26953125 31.97119141 C34.7155497 38.46226968 23.19760949 45.01031091 11.75 51.6875 C10.72132812 52.2870752 9.69265625 52.88665039 8.6328125 53.50439453 C3.25177628 56.64796487 3.25177628 56.64796487 -2 60 C-5.86290675 59.65700189 -8.73014953 58.25394377 -12.078125 56.3671875 C-13.55551147 55.53888428 -13.55551147 55.53888428 -15.06274414 54.69384766 C-16.64043579 53.79351807 -16.64043579 53.79351807 -18.25 52.875 C-19.33724365 52.26060059 -20.4244873 51.64620117 -21.54467773 51.01318359 C-33.49071356 44.22334638 -45.26131933 37.14134528 -57 30 C-54.16001025 26.93057061 -51.40137415 24.90081258 -47.73828125 22.8984375 C-46.70928711 22.33036377 -45.68029297 21.76229004 -44.62011719 21.17700195 C-42.98284668 20.28501099 -42.98284668 20.28501099 -41.3125 19.375 C-39.05258991 18.12774238 -36.79347818 16.87903715 -34.53515625 15.62890625 C-33.42543457 15.01547363 -32.31571289 14.40204102 -31.17236328 13.77001953 C-26.8278351 11.3459908 -22.53076961 8.84707093 -18.25 6.3125 C-17.57880127 5.91530762 -16.90760254 5.51811523 -16.21606445 5.10888672 C-13.55524917 3.52953302 -10.94570221 1.96141566 -8.421875 0.16796875 C-5.17256431 -1.39903754 -3.47909179 -0.8142784 0 0 Z " fill="#57C4DF" transform="translate(71,381)"/>
<path d="M0 0 C4.46431523 1.48810508 7.59320407 2.74470559 11.53515625 5.0546875 C12.59412109 5.67085938 13.65308594 6.28703125 14.74414062 6.921875 C15.83919922 7.56640625 16.93425781 8.2109375 18.0625 8.875 C29.66888594 15.65561081 41.32742041 22.32995452 53 29 C53 49.46 53 69.92 53 91 C48.67347171 89.5578239 45.74271732 88.44628231 41.97265625 86.19921875 C40.5330957 85.3494043 40.5330957 85.3494043 39.06445312 84.48242188 C38.07380859 83.89009766 37.08316406 83.29777344 36.0625 82.6875 C24.14239514 75.60189063 12.08007925 68.82787088 0 62 C0 41.54 0 21.08 0 0 Z " fill="#53ADDD" transform="translate(386,421)"/>
<path d="M0 0 C4.46431523 1.48810508 7.59320407 2.74470559 11.53515625 5.0546875 C12.59412109 5.67085938 13.65308594 6.28703125 14.74414062 6.921875 C15.83919922 7.56640625 16.93425781 8.2109375 18.0625 8.875 C29.66888594 15.65561081 41.32742041 22.32995452 53 29 C53 49.46 53 69.92 53 91 C48.67347171 89.5578239 45.74271732 88.44628231 41.97265625 86.19921875 C40.5330957 85.3494043 40.5330957 85.3494043 39.06445312 84.48242188 C38.07380859 83.89009766 37.08316406 83.29777344 36.0625 82.6875 C24.14239514 75.60189063 12.08007925 68.82787088 0 62 C0 41.54 0 21.08 0 0 Z " fill="#55B9DE" transform="translate(197,421)"/>
<path d="M0 0 C4.32652829 1.4421761 7.25728268 2.55371769 11.02734375 4.80078125 C11.98705078 5.36732422 12.94675781 5.93386719 13.93554688 6.51757812 C15.42151367 7.40606445 15.42151367 7.40606445 16.9375 8.3125 C28.85760486 15.39810937 40.91992075 22.17212912 53 29 C53 49.46 53 69.92 53 91 C48.53568477 89.51189492 45.40679593 88.25529441 41.46484375 85.9453125 C40.40587891 85.32914062 39.34691406 84.71296875 38.25585938 84.078125 C37.16080078 83.43359375 36.06574219 82.7890625 34.9375 82.125 C23.33111406 75.34438919 11.67257959 68.67004548 0 62 C0 41.54 0 21.08 0 0 Z " fill="#57C6DF" transform="translate(8,421)"/>
<path d="M0 0 C0 20.46 0 40.92 0 62 C-5.94 65.3 -11.88 68.6 -18 72 C-22.1972468 74.42327909 -26.38668742 76.85331625 -30.5625 79.3125 C-41.61108493 85.80615624 -41.61108493 85.80615624 -47.08984375 88.91796875 C-47.79874756 89.32168701 -48.50765137 89.72540527 -49.23803711 90.14135742 C-51 91 -51 91 -53 91 C-53.20891563 83.15068854 -53.36863196 75.30203271 -53.46630955 67.45063591 C-53.51320319 63.80430514 -53.57674655 60.1598814 -53.67895508 56.51464844 C-53.77705619 52.99369867 -53.83061652 49.47457711 -53.85389519 45.95236588 C-53.87851872 43.96102742 -53.94873569 41.97042114 -54.01966858 39.98019409 C-54.02458631 31.14845776 -54.02458631 31.14845776 -51.04196167 27.80523682 C-47.62137358 25.42606272 -45.21110225 24 -41 24 C-40.98541748 24.62567871 -40.97083496 25.25135742 -40.95581055 25.89599609 C-40.88147196 28.72296402 -40.78476766 31.54873208 -40.6875 34.375 C-40.66494141 35.35984375 -40.64238281 36.3446875 -40.61914062 37.359375 C-40.58369141 38.30039062 -40.54824219 39.24140625 -40.51171875 40.2109375 C-40.48553467 41.08024902 -40.45935059 41.94956055 -40.43237305 42.84521484 C-40.18654782 45.38600027 -40.18654782 45.38600027 -37 47 C-34.47725873 47.11302585 -34.47725873 47.11302585 -32 46 C-29.88064004 43.4986812 -29.88064004 43.4986812 -28.1875 40.4375 C-27.58292969 39.42558594 -26.97835938 38.41367187 -26.35546875 37.37109375 C-25.90816406 36.58863281 -25.46085937 35.80617188 -25 35 C-22.80692353 35.54477696 -20.62016282 36.10190754 -18.4375 36.6875 C-15.74474036 37.30360761 -15.74474036 37.30360761 -13 35 C-11.90801142 31.72403425 -11.93447823 29.41901474 -12 25.9765625 C-11.99871094 24.790625 -11.99742187 23.6046875 -11.99609375 22.3828125 C-11.99869003 19.88518857 -12.0323641 17.38739671 -12.09765625 14.890625 C-12.01080829 5.99353373 -12.01080829 5.99353373 -9 3.03417969 C-6.04394949 1.35363655 -3.44175098 0 0 0 Z M-36.5625 62.375 C-37.59020508 62.99375 -37.59020508 62.99375 -38.63867188 63.625 C-41.36724258 65.2851706 -43.73138153 66.73138153 -46 69 C-46.35877543 71.79844834 -46.33812547 73.403308 -44.9375 75.875 C-41.81282537 77.68932721 -39.45523343 76.74420412 -36 76 C-33.56639583 74.73692133 -31.39133692 73.50039898 -29.125 72 C-28.54492188 71.63132812 -27.96484375 71.26265625 -27.3671875 70.8828125 C-24.53664392 69.13214658 -24.53664392 69.13214658 -22 67 C-21.58297878 64.0842309 -21.58297878 64.0842309 -22 61 C-23.7109211 59.02901574 -23.7109211 59.02901574 -26 58 C-30.25210362 58 -33.04929552 60.20791455 -36.5625 62.375 Z " fill="#52A8DD" transform="translate(504,421)"/>
<path d="M0 0 C0 20.46 0 40.92 0 62 C-5.94 65.3 -11.88 68.6 -18 72 C-22.1972468 74.42327909 -26.38668742 76.85331625 -30.5625 79.3125 C-41.61108493 85.80615624 -41.61108493 85.80615624 -47.08984375 88.91796875 C-47.79874756 89.32168701 -48.50765137 89.72540527 -49.23803711 90.14135742 C-51 91 -51 91 -53 91 C-53.20891563 83.15068854 -53.36863196 75.30203271 -53.46630955 67.45063591 C-53.51320319 63.80430514 -53.57674655 60.1598814 -53.67895508 56.51464844 C-53.77705619 52.99369867 -53.83061652 49.47457711 -53.85389519 45.95236588 C-53.87851872 43.96102742 -53.94873569 41.97042114 -54.01966858 39.98019409 C-54.02458631 31.14845776 -54.02458631 31.14845776 -51.04196167 27.80523682 C-47.62137358 25.42606272 -45.21110225 24 -41 24 C-40.98541748 24.62567871 -40.97083496 25.25135742 -40.95581055 25.89599609 C-40.88147196 28.72296402 -40.78476766 31.54873208 -40.6875 34.375 C-40.66494141 35.35984375 -40.64238281 36.3446875 -40.61914062 37.359375 C-40.58369141 38.30039062 -40.54824219 39.24140625 -40.51171875 40.2109375 C-40.48553467 41.08024902 -40.45935059 41.94956055 -40.43237305 42.84521484 C-40.18654782 45.38600027 -40.18654782 45.38600027 -37 47 C-34.47725873 47.11302585 -34.47725873 47.11302585 -32 46 C-29.88064004 43.4986812 -29.88064004 43.4986812 -28.1875 40.4375 C-27.58292969 39.42558594 -26.97835938 38.41367187 -26.35546875 37.37109375 C-25.90816406 36.58863281 -25.46085937 35.80617188 -25 35 C-22.80692353 35.54477696 -20.62016282 36.10190754 -18.4375 36.6875 C-15.74474036 37.30360761 -15.74474036 37.30360761 -13 35 C-11.90801142 31.72403425 -11.93447823 29.41901474 -12 25.9765625 C-11.99871094 24.790625 -11.99742187 23.6046875 -11.99609375 22.3828125 C-11.99869003 19.88518857 -12.0323641 17.38739671 -12.09765625 14.890625 C-12.01080829 5.99353373 -12.01080829 5.99353373 -9 3.03417969 C-6.04394949 1.35363655 -3.44175098 0 0 0 Z M-36.5625 62.375 C-37.59020508 62.99375 -37.59020508 62.99375 -38.63867188 63.625 C-41.36724258 65.2851706 -43.73138153 66.73138153 -46 69 C-46.35877543 71.79844834 -46.33812547 73.403308 -44.9375 75.875 C-41.81282537 77.68932721 -39.45523343 76.74420412 -36 76 C-33.56639583 74.73692133 -31.39133692 73.50039898 -29.125 72 C-28.54492188 71.63132812 -27.96484375 71.26265625 -27.3671875 70.8828125 C-24.53664392 69.13214658 -24.53664392 69.13214658 -22 67 C-21.58297878 64.0842309 -21.58297878 64.0842309 -22 61 C-23.7109211 59.02901574 -23.7109211 59.02901574 -26 58 C-30.25210362 58 -33.04929552 60.20791455 -36.5625 62.375 Z " fill="#54B5DE" transform="translate(315,421)"/>
<path d="M0 0 C0 20.46 0 40.92 0 62 C-8.25 66.62 -16.5 71.24 -25 76 C-30.46358393 79.17978889 -35.91082938 82.37831968 -41.33789062 85.61914062 C-42.29501953 86.18439453 -43.25214844 86.74964844 -44.23828125 87.33203125 C-45.06368408 87.82421143 -45.88908691 88.3163916 -46.73950195 88.82348633 C-49 90 -49 90 -53 91 C-53 70.54 -53 50.08 -53 29 C-44 24 -44 24 -41 24 C-40.98541748 24.62567871 -40.97083496 25.25135742 -40.95581055 25.89599609 C-40.88147196 28.72296402 -40.78476766 31.54873208 -40.6875 34.375 C-40.66494141 35.35984375 -40.64238281 36.3446875 -40.61914062 37.359375 C-40.58369141 38.30039062 -40.54824219 39.24140625 -40.51171875 40.2109375 C-40.48553467 41.08024902 -40.45935059 41.94956055 -40.43237305 42.84521484 C-40.18654782 45.38600027 -40.18654782 45.38600027 -37 47 C-34.47725873 47.11302585 -34.47725873 47.11302585 -32 46 C-29.88064004 43.4986812 -29.88064004 43.4986812 -28.1875 40.4375 C-27.58292969 39.42558594 -26.97835937 38.41367187 -26.35546875 37.37109375 C-25.90816406 36.58863281 -25.46085937 35.80617188 -25 35 C-22.80692353 35.54477696 -20.62016282 36.10190754 -18.4375 36.6875 C-15.74474036 37.30360761 -15.74474036 37.30360761 -13 35 C-11.90801142 31.72403425 -11.93447823 29.41901474 -12 25.9765625 C-11.99871094 24.790625 -11.99742188 23.6046875 -11.99609375 22.3828125 C-11.99869003 19.88518857 -12.0323641 17.38739671 -12.09765625 14.890625 C-12.01080829 5.99353373 -12.01080829 5.99353373 -9 3.03417969 C-6.04394949 1.35363655 -3.44175098 0 0 0 Z M-36.5625 62.375 C-37.59020508 62.99375 -37.59020508 62.99375 -38.63867188 63.625 C-41.36724258 65.2851706 -43.73138153 66.73138153 -46 69 C-46.35877543 71.79844834 -46.33812547 73.403308 -44.9375 75.875 C-41.81282537 77.68932721 -39.45523343 76.74420412 -36 76 C-33.56639583 74.73692133 -31.39133692 73.50039898 -29.125 72 C-28.54492188 71.63132812 -27.96484375 71.26265625 -27.3671875 70.8828125 C-24.53664392 69.13214658 -24.53664392 69.13214658 -22 67 C-21.58297878 64.0842309 -21.58297878 64.0842309 -22 61 C-23.7109211 59.02901574 -23.7109211 59.02901574 -26 58 C-30.25210362 58 -33.04929552 60.20791455 -36.5625 62.375 Z " fill="#56C2DF" transform="translate(126,421)"/>
<path d="M0 0 C0 2.97 0 5.94 0 9 C-2.31 9 -4.62 9 -7 9 C-7.3125 6.1875 -7.3125 6.1875 -7 3 C-4.61107499 1.11400657 -3.08148442 0 0 0 Z " fill="#52A9DE" transform="translate(481,434)"/>
<path d="M0 0 C0 2.97 0 5.94 0 9 C-2.31 9 -4.62 9 -7 9 C-7.3125 6.1875 -7.3125 6.1875 -7 3 C-4.61107499 1.11400657 -3.08148442 0 0 0 Z " fill="#54B5DF" transform="translate(292,434)"/>
<path d="M0 0 C0 2.97 0 5.94 0 9 C-2.31 9 -4.62 9 -7 9 C-7.3125 6.1875 -7.3125 6.1875 -7 3 C-4.61107499 1.11400657 -3.08148442 0 0 0 Z " fill="#56C4E0" transform="translate(103,434)"/>
</svg>
