<?xml version="1.0" encoding="UTF-8"?>
<svg version="1.1" xmlns="http://www.w3.org/2000/svg" width="512" height="512">
<path d="M0 0 C0.8946698 -0.0065712 1.7893396 -0.0131424 2.71112061 -0.01991272 C5.67566003 -0.03964259 8.64014877 -0.05130863 11.60473633 -0.0612793 C12.6180282 -0.06535482 13.63132008 -0.06943035 14.67531776 -0.07362938 C20.04021628 -0.09449038 25.40508923 -0.10879108 30.77001953 -0.11816406 C36.30371825 -0.12921888 41.83701381 -0.16360821 47.37057018 -0.20333576 C51.6317671 -0.22951942 55.89286828 -0.23785755 60.15413857 -0.24144554 C62.19342072 -0.2463082 64.23269869 -0.25791302 66.27190208 -0.27648354 C69.13211074 -0.30090831 71.99128084 -0.2999036 74.8515625 -0.29296875 C75.68770584 -0.30577881 76.52384918 -0.31858887 77.3853302 -0.33178711 C82.58964392 -0.28599542 86.08443514 0.70172153 90.56720448 3.37955952 C92.36261554 4.44427867 92.36261554 4.44427867 94.93676758 3.55200195 C96.08145508 2.87137695 96.08145508 2.87137695 97.24926758 2.17700195 C101.89540496 -0.20868668 106.15877764 -0.11265817 111.25878906 -0.09765625 C112.1569635 -0.10276718 113.05513794 -0.10787811 113.98052979 -0.11314392 C116.94387511 -0.12702213 119.90698741 -0.12608453 122.87036133 -0.1237793 C124.93392523 -0.12766708 126.99748834 -0.13200193 129.06105042 -0.13676453 C133.38431392 -0.14422285 137.70749575 -0.14393817 142.03076172 -0.13867188 C147.56679018 -0.13287658 153.10248414 -0.1498117 158.6384573 -0.17301655 C162.8995814 -0.18775852 167.16062501 -0.18862497 171.4217701 -0.18550682 C173.46268438 -0.18601976 175.5036032 -0.19125232 177.54449272 -0.20131874 C180.39999928 -0.2136752 183.25485518 -0.20689618 186.11035156 -0.1953125 C186.95054337 -0.20295624 187.79073517 -0.21059998 188.65638733 -0.21847534 C194.43821804 -0.16671583 198.74994388 0.82438908 203.11254883 4.9309082 C203.59079102 5.52774414 204.0690332 6.12458008 204.56176758 6.73950195 C205.05290039 7.33891602 205.5440332 7.93833008 206.05004883 8.5559082 C208.41479874 11.75255711 208.37484598 13.92759827 208.37625122 17.86412048 C208.37907104 19.07417252 208.38189087 20.28422455 208.38479614 21.53094482 C208.38285166 22.87902847 208.38080348 24.22711197 208.37866211 25.57519531 C208.38001655 26.98932439 208.38179673 28.40345312 208.38397217 29.81758118 C208.38854177 33.66465768 208.38675876 37.51170745 208.38359308 41.35878444 C208.38106656 45.37994253 208.38340789 49.40109829 208.38497925 53.42225647 C208.38680029 60.17701632 208.38439655 66.93176525 208.37963867 73.68652344 C208.37419838 81.50043455 208.37595728 89.31431956 208.38146508 97.12823004 C208.38600067 103.8305995 208.38664449 110.53296109 208.38402641 117.23533159 C208.38246582 121.24113522 208.38226389 125.24692657 208.3855629 129.25272942 C208.388448 133.01931799 208.3864541 136.78587288 208.38066864 140.55245781 C208.37934439 141.93638554 208.3797295 143.32031609 208.3819313 144.70424271 C208.38465593 146.59046071 208.38063651 148.4766849 208.37625122 150.36289978 C208.3758742 151.41944228 208.37549717 152.47598478 208.37510872 153.56454372 C208.24926758 156.17700195 208.24926758 156.17700195 207.24926758 159.17700195 C208.09231445 159.15379883 208.93536133 159.1305957 209.80395508 159.10668945 C210.8996582 159.08864258 211.99536133 159.0705957 213.12426758 159.05200195 C214.21481445 159.02879883 215.30536133 159.0055957 216.42895508 158.98168945 C219.24926758 159.17700195 219.24926758 159.17700195 221.24926758 161.17700195 C222.53496586 169.62221565 220.26924873 178.55846495 218.87817383 186.88793945 C218.63330384 188.38853659 218.38908828 189.88924065 218.14549255 191.39004517 C217.63658075 194.51563345 217.12264727 197.64033523 216.60449219 200.7644043 C215.94102493 204.76463137 215.28595078 208.76617192 214.63406467 212.76830101 C214.00967587 216.6002697 213.38178802 220.43166195 212.75317383 224.26293945 C212.57446841 225.35365816 212.57446841 225.35365816 212.39215279 226.46641159 C212.05418041 228.52439382 211.71379708 230.58196141 211.37255859 232.6394043 C211.17936539 233.8083725 210.98617218 234.9773407 210.78712463 236.18173218 C210.36151937 238.55188344 209.87661501 240.85412152 209.24926758 243.17700195 C210.03172852 243.16540039 210.81418945 243.15379883 211.62036133 243.1418457 C212.63227539 243.13282227 213.64418945 243.12379883 214.68676758 243.11450195 C215.69610352 243.10290039 216.70543945 243.09129883 217.74536133 243.0793457 C220.24926758 243.17700195 220.24926758 243.17700195 221.24926758 244.17700195 C221.3490482 245.57645542 221.38001505 246.98089289 221.38298035 248.38389587 C221.38724533 249.29110886 221.39151031 250.19832184 221.39590454 251.13302612 C221.39545135 252.13616852 221.39499817 253.13931091 221.39453125 254.17285156 C221.39956917 255.74833015 221.39956917 255.74833015 221.40470886 257.3556366 C221.41425109 260.84688481 221.41616359 264.33808524 221.41723633 267.8293457 C221.42044657 270.24451213 221.42381046 272.65967835 221.42732239 275.07484436 C221.43332181 280.14495291 221.43516145 285.2150444 221.43457031 290.28515625 C221.43446863 296.79688144 221.4481237 303.30849775 221.46534252 309.82019711 C221.47643533 314.81031298 221.47849036 319.8004023 221.47796059 324.79052925 C221.47914471 327.1920058 221.48359047 329.59348295 221.49129295 331.99494743 C221.50103836 335.34729619 221.49823645 338.69940559 221.4921875 342.05175781 C221.49780701 343.05287598 221.50342651 344.05399414 221.50921631 345.08544922 C221.50292458 346.45049843 221.50292458 346.45049843 221.49650574 347.84312439 C221.4970505 348.63641112 221.49759527 349.42969786 221.49815655 350.24702358 C221.24926758 352.17700195 221.24926758 352.17700195 219.24926758 354.17700195 C216.80984807 354.3739066 214.48398903 354.44478596 212.04341125 354.42868423 C211.2886881 354.43159112 210.53396494 354.434498 209.75637138 354.43749297 C207.20094593 354.44485242 204.64575615 354.43782217 202.09033203 354.43096924 C200.25036908 354.43327133 198.41040706 354.43644615 196.57044697 354.44042373 C191.49370021 354.44881502 186.41702812 354.4446269 181.34028101 354.43845129 C175.87328223 354.43394543 170.40629672 354.44090124 164.93930054 354.44641113 C154.22129333 354.45532682 143.50331406 354.45337347 132.78530574 354.44758585 C124.07827318 354.44307789 115.37124848 354.44245269 106.66421509 354.44463348 C105.4272524 354.44493995 104.19028971 354.44524642 102.91584331 354.44556217 C100.40335583 354.44620159 97.89086836 354.44685001 95.37838089 354.44750735 C72.4651484 354.4530541 49.55192815 354.44729181 26.63869853 354.43682216 C5.70647118 354.42733043 -15.22573184 354.42817966 -36.15795898 354.43774414 C-59.65704142 354.4484455 -83.15611314 354.45266763 -106.6551981 354.44651961 C-109.15869204 354.44588248 -111.66218598 354.44525374 -114.16567993 354.44463348 C-115.39760171 354.44432493 -116.62952349 354.44401638 -117.89877623 354.44369848 C-126.60019455 354.44196815 -135.30160426 354.44489391 -144.00302124 354.44959259 C-154.60018616 354.4551889 -165.19732144 354.45371141 -175.79448295 354.4430311 C-181.20627332 354.43775749 -186.61801417 354.43574623 -192.02980423 354.44232941 C-196.97666112 354.44825622 -201.92342226 354.44506828 -206.87027037 354.4343743 C-208.66700318 354.4321263 -210.46374395 354.43330756 -212.2604717 354.43812588 C-214.68872417 354.444142 -217.11664162 354.43803679 -219.5448761 354.42868423 C-220.60944462 354.43570773 -220.60944462 354.43570773 -221.69551957 354.44287312 C-226.52243167 354.40530271 -226.52243167 354.40530271 -228.75073242 352.17700195 C-228.99962139 350.24702358 -228.99962139 350.24702358 -228.99797058 347.84312439 C-229.00216507 346.93309158 -229.00635956 346.02305878 -229.01068115 345.08544922 C-229.00506165 344.08433105 -228.99944214 343.08321289 -228.99365234 342.05175781 C-228.99555069 340.99968643 -228.99744904 339.94761505 -228.99940491 338.86366272 C-229.00312107 335.37298215 -228.99239716 331.88250789 -228.98120117 328.3918457 C-228.98000982 325.97571334 -228.97955611 323.55958052 -228.97981262 321.14344788 C-228.97824634 316.0750947 -228.96994512 311.00681201 -228.95654297 305.93847656 C-228.93954388 299.42558615 -228.9357288 292.91277324 -228.93648815 286.39986324 C-228.93621689 281.40978753 -228.93074285 276.41972893 -228.92348671 271.42965889 C-228.92029357 269.02736096 -228.91833114 266.62506109 -228.917593 264.22276115 C-228.91543676 260.87275733 -228.90670837 257.5228375 -228.89599609 254.17285156 C-228.89644928 253.16970917 -228.89690247 252.16656677 -228.89736938 251.13302612 C-228.8931044 250.22581314 -228.88883942 249.31860016 -228.88444519 248.38389587 C-228.88276935 247.59098617 -228.8810935 246.79807646 -228.87936687 245.98113918 C-228.75073242 244.17700195 -228.75073242 244.17700195 -227.75073242 243.17700195 C-225.89785741 243.10473694 -224.04239365 243.09318976 -222.18823242 243.11450195 C-221.17631836 243.12352539 -220.1644043 243.13254883 -219.12182617 243.1418457 C-217.94813477 243.15924805 -217.94813477 243.15924805 -216.75073242 243.17700195 C-216.97623779 241.8772644 -216.97623779 241.8772644 -217.20629883 240.55126953 C-218.92617971 230.62132989 -220.62737305 220.68829446 -222.31347656 210.75256348 C-222.60455075 209.03805362 -222.89605341 207.32361645 -223.18798828 205.60925293 C-224.04371793 200.58202105 -224.89034809 195.55340338 -225.72454834 190.52255249 C-225.98965665 188.93127744 -226.2575512 187.34046379 -226.52838135 185.75015259 C-229.70151223 167.08588055 -229.70151223 167.08588055 -228.75073242 161.17700195 C-226.75073242 159.17700195 -226.75073242 159.17700195 -223.12719727 158.94995117 C-221.57198553 158.95026839 -220.01675192 158.96159897 -218.46166992 158.98168945 C-217.64324615 158.98451935 -216.82482239 158.98734924 -215.9815979 158.99026489 C-213.36282849 159.00147663 -210.74439878 159.02658266 -208.12573242 159.05200195 C-206.35229985 159.06203048 -204.57886194 159.07115655 -202.80541992 159.0793457 C-198.45372616 159.10141917 -194.10228692 159.13595551 -189.75073242 159.17700195 C-189.75739426 158.38852875 -189.76405609 157.60005554 -189.7709198 156.78768921 C-189.83112616 149.34320785 -189.87675503 141.89884519 -189.90616894 134.45418358 C-189.92179951 130.62714596 -189.9429896 126.80031016 -189.97705078 122.97338867 C-190.00973804 119.27754366 -190.02760505 115.58189231 -190.03536415 111.88591385 C-190.04089093 110.47855202 -190.05168343 109.07120034 -190.06792259 107.66392136 C-190.08981878 105.6871049 -190.09095886 103.71009199 -190.09130859 101.7331543 C-190.09797043 100.60952484 -190.10463226 99.48589539 -190.11149597 98.32821655 C-189.69411825 94.68248583 -188.64551083 92.30428222 -186.75073242 89.17700195 C-185.43975586 88.19860352 -185.43975586 88.19860352 -184.10229492 87.20043945 C-181.462176 85.34899734 -181.462176 85.34899734 -181.14916992 82.15356445 C-181.14143555 81.04754883 -181.13370117 79.9415332 -181.12573242 78.80200195 C-180.85469737 72.43267823 -179.99416963 68.69237095 -175.68823242 63.86450195 C-172.63663366 62.11145586 -171.0069994 61.85330606 -167.56713867 61.5715332 C-166.66552002 61.49394775 -165.76390137 61.4163623 -164.83496094 61.33642578 C-164.14716553 61.28381592 -163.45937012 61.23120605 -162.75073242 61.17700195 C-162.76120605 60.06663574 -162.77167969 58.95626953 -162.7824707 57.81225586 C-162.81861191 53.70112316 -162.84161138 49.59000457 -162.8605957 45.47875977 C-162.87066674 43.69781128 -162.88432427 41.91687938 -162.90161133 40.13598633 C-162.92581155 37.57930412 -162.93720426 35.0228401 -162.94604492 32.46606445 C-162.95636749 31.66705719 -162.96669006 30.86804993 -162.97732544 30.04483032 C-162.97772469 28.08742976 -162.87314311 26.13057119 -162.75073242 24.17700195 C-160.11057431 21.53684384 -158.91450733 21.92395942 -155.23120117 21.91821289 C-153.49930542 21.90875641 -153.49930542 21.90875641 -151.73242188 21.89910889 C-150.48033936 21.90315735 -149.22825684 21.90720581 -147.93823242 21.91137695 C-146.65843506 21.9094635 -145.3786377 21.90755005 -144.06005859 21.90557861 C-141.34980449 21.90262814 -138.63968216 21.9069224 -135.92944336 21.91625977 C-132.45224012 21.92765443 -128.9753456 21.92109452 -125.49815369 21.90911484 C-122.18648838 21.9001577 -118.87490651 21.9064256 -115.56323242 21.91137695 C-114.3111499 21.90732849 -113.05906738 21.90328003 -111.76904297 21.89910889 C-110.6144458 21.90541321 -109.45984863 21.91171753 -108.27026367 21.91821289 C-107.25037354 21.91980408 -106.2304834 21.92139526 -105.1796875 21.92303467 C-102.75073242 22.17700195 -102.75073242 22.17700195 -100.75073242 24.17700195 C-100.57548188 26.97384992 -100.51930053 29.67028275 -100.55541992 32.46606445 C-100.55824982 33.28448822 -100.56107971 34.10291199 -100.56399536 34.94613647 C-100.5752071 37.56490588 -100.60031313 40.18333559 -100.62573242 42.80200195 C-100.63576095 44.57543452 -100.64488702 46.34887244 -100.65307617 48.12231445 C-100.67514964 52.47400821 -100.70968598 56.82544745 -100.75073242 61.17700195 C-99.57567139 61.16652832 -98.40061035 61.15605469 -97.18994141 61.14526367 C-92.80846228 61.10891979 -88.42699635 61.08604927 -84.04541016 61.06713867 C-82.15313472 61.0571138 -80.26087464 61.0434904 -78.36865234 61.02612305 C-75.64050492 61.00171973 -72.91256327 60.9904835 -70.18432617 60.98168945 C-69.345504 60.97136688 -68.50668182 60.96104431 -67.6424408 60.95040894 C-61.94470139 60.94933345 -56.75720478 61.37076513 -51.75463867 64.3762207 C-47.70022934 68.56248075 -47.28990277 72.43311097 -47.37573242 78.11450195 C-47.45351602 80.47596771 -47.5868659 82.81914471 -47.75073242 85.17700195 C-47.00823242 85.38325195 -46.26573242 85.58950195 -45.50073242 85.80200195 C-41.84072798 87.63200417 -40.7307164 89.61987224 -38.75073242 93.17700195 C-38.26971436 96.40414429 -38.26971436 96.40414429 -38.29663086 99.91674805 C-38.29604675 100.56135986 -38.29546265 101.20597168 -38.29486084 101.87011719 C-38.29762667 103.98079069 -38.32864267 106.09001564 -38.36010742 108.20043945 C-38.36757527 109.6715925 -38.37326563 111.14275554 -38.3772583 112.61392212 C-38.39247215 116.47092542 -38.43171604 120.3273185 -38.47607422 124.18408203 C-38.5171195 128.12564847 -38.53528897 132.06731428 -38.55541992 136.0090332 C-38.59821569 143.7319988 -38.66852932 151.45433685 -38.75073242 159.17700195 C-32.81073242 159.17700195 -26.87073242 159.17700195 -20.75073242 159.17700195 C-21.08073242 158.18700195 -21.41073242 157.19700195 -21.75073242 156.17700195 C-21.84804556 154.26249457 -21.88571216 152.34475134 -21.89117432 150.42778015 C-21.89688446 149.22910309 -21.9025946 148.03042603 -21.90847778 146.79542542 C-21.91015457 144.82001015 -21.91015457 144.82001015 -21.91186523 142.8046875 C-21.91649407 141.40512969 -21.92151882 140.00557314 -21.9269104 138.60601807 C-21.94003036 134.80219563 -21.94647861 130.99839085 -21.95092106 127.19454932 C-21.95385253 124.81768859 -21.95795749 122.44083268 -21.96242523 120.06397438 C-21.9760993 112.62624436 -21.98576631 105.18852535 -21.98962712 97.75078362 C-21.99410735 89.16705744 -22.01165388 80.58349053 -22.04062772 71.99981278 C-22.06224977 65.36361671 -22.07233169 58.72746543 -22.07366824 52.09123451 C-22.07471593 48.12832854 -22.08061585 44.16557233 -22.09848785 40.20270348 C-22.1149776 36.47378086 -22.11711978 32.74512042 -22.10834885 29.01617432 C-22.10721247 26.99915155 -22.12092298 24.98213744 -22.13510132 22.96516418 C-22.12674759 21.15445938 -22.12674759 21.15445938 -22.1182251 19.30717468 C-22.11969166 18.26207072 -22.12115822 17.21696676 -22.12266922 16.14019299 C-21.47498791 10.98016728 -19.25741982 7.12432876 -15.25073242 3.86450195 C-14.66291992 3.37336914 -14.07510742 2.88223633 -13.46948242 2.3762207 C-9.35411723 -0.49518183 -4.79843136 0.01524644 0 0 Z " fill="#D85841" transform="translate(259.750732421875,78.822998046875)"/>
<path d="M0 0 C14.09049676 0.18299346 25.64012817 3.96808392 38.25 9.80859375 C51.41788234 15.80895831 64.2430551 18.08571037 78.75 17.1875 C79.7709375 17.12949219 80.791875 17.07148438 81.84375 17.01171875 C91.46519198 16.00341107 99.79765334 12.05317919 108.54052734 8.16845703 C127.45067336 -0.2272299 150.20929507 -3.63616777 170.22265625 3.41015625 C174.81327439 5.22033691 179.34929166 7.13251744 183.86669922 9.11767578 C203.4252384 17.70575299 223.22019838 20.52197105 243.75 13.1875 C247.82011917 11.56580087 251.84797426 9.85051273 255.875 8.125 C276.71429911 -0.77853743 299.34451989 -3.77561252 320.9375 4.875 C324.26635113 6.24572868 327.57092871 7.66936141 330.86669922 9.11767578 C350.01280781 17.52465635 371.54419714 20.9797842 391.75634766 13.43896484 C394.96425939 12.06827515 398.0803522 10.53331983 401.1953125 8.96484375 C414.45146914 2.33676543 427.87050129 -0.91563525 442.75 0.1875 C444.30608064 1.74358064 443.87913663 3.22923662 443.88371277 5.39439392 C443.88797775 6.3016069 443.89224274 7.20881989 443.89663696 8.14352417 C443.89618378 9.14666656 443.89573059 10.14980896 443.89526367 11.18334961 C443.90030159 12.7588282 443.90030159 12.7588282 443.90544128 14.36613464 C443.91498352 17.85738286 443.91689602 21.34858329 443.91796875 24.83984375 C443.92117899 27.25501018 443.92454288 29.6701764 443.92805481 32.08534241 C443.93405423 37.15545096 443.93589387 42.22554244 443.93530273 47.2956543 C443.93520105 53.80737949 443.94885612 60.31899579 443.96607494 66.83069515 C443.97716775 71.82081103 443.97922278 76.81090035 443.97869301 81.8010273 C443.97987713 84.20250385 443.98432289 86.60398099 443.99202538 89.00544548 C444.00177078 92.35779424 443.99896887 95.70990364 443.99291992 99.06225586 C443.99853943 100.06337402 444.00415894 101.06449219 444.00994873 102.09594727 C444.003657 103.46099648 444.003657 103.46099648 443.99723816 104.85362244 C443.99778293 105.64690917 443.99832769 106.4401959 443.99888897 107.25752163 C443.75 109.1875 443.75 109.1875 441.75 111.1875 C439.31058049 111.38440464 436.98472145 111.45528401 434.54414368 111.43918228 C433.78942052 111.44208916 433.03469736 111.44499604 432.2571038 111.44799101 C429.70167835 111.45535047 427.14648857 111.44832022 424.59106445 111.44146729 C422.75110151 111.44376937 420.91113948 111.44694419 419.07117939 111.45092177 C413.99443264 111.45931307 408.91776054 111.45512495 403.84101343 111.44894934 C398.37401465 111.44444347 392.90702914 111.45139929 387.44003296 111.45690918 C376.72202575 111.46582486 366.00404648 111.46387152 355.28603816 111.4580839 C346.5790056 111.45357594 337.8719809 111.45295074 329.16494751 111.45513153 C327.92798482 111.455438 326.69102214 111.45574446 325.41657573 111.45606022 C322.90408826 111.45669964 320.39160079 111.45734806 317.87911332 111.4580054 C294.96588083 111.46355214 272.05266057 111.45778985 249.13943096 111.4473202 C228.2072036 111.43782848 207.27500058 111.43867771 186.34277344 111.44824219 C162.843691 111.45894355 139.34461928 111.46316568 115.84553432 111.45701766 C113.34204038 111.45638053 110.83854644 111.45575179 108.33505249 111.45513153 C107.10313071 111.45482298 105.87120893 111.45451443 104.60195619 111.45419653 C95.90053787 111.45246619 87.19912816 111.45539196 78.49771118 111.46009064 C67.90054626 111.46568695 57.30341098 111.46420945 46.70624948 111.45352915 C41.29445911 111.44825553 35.88271825 111.44624428 30.47092819 111.45282745 C25.5240713 111.45875426 20.57731016 111.45556633 15.63046205 111.44487235 C13.83372924 111.44262435 12.03698847 111.4438056 10.24026072 111.44862393 C7.81200825 111.45464005 5.3840908 111.44853484 2.95585632 111.43918228 C1.89128781 111.44620578 1.89128781 111.44620578 0.80521286 111.45337117 C-4.02169924 111.41580076 -4.02169924 111.41580076 -6.25 109.1875 C-6.49888897 107.25752163 -6.49888897 107.25752163 -6.49723816 104.85362244 C-6.50143265 103.94358963 -6.50562714 103.03355682 -6.50994873 102.09594727 C-6.50432922 101.0948291 -6.49870972 100.09371094 -6.49291992 99.06225586 C-6.49481827 98.01018448 -6.49671661 96.9581131 -6.49867249 95.87416077 C-6.50238864 92.3834802 -6.49166474 88.89300594 -6.48046875 85.40234375 C-6.4792774 82.98621139 -6.47882369 80.57007856 -6.4790802 78.15394592 C-6.47751392 73.08559274 -6.4692127 68.01731006 -6.45581055 62.94897461 C-6.43881146 56.4360842 -6.43499637 49.92327129 -6.43575573 43.41036129 C-6.43548446 38.42028558 -6.43001043 33.43022698 -6.42275429 28.44015694 C-6.41956115 26.03785901 -6.41759872 23.63555914 -6.41686058 21.2332592 C-6.41470434 17.88325537 -6.40597594 14.53333554 -6.39526367 11.18334961 C-6.39571686 10.18020721 -6.39617004 9.17706482 -6.39663696 8.14352417 C-6.39237198 7.23631119 -6.38810699 6.32909821 -6.38371277 5.39439392 C-6.38203692 4.60148421 -6.38036108 3.8085745 -6.37863445 2.99163723 C-6.10292849 -0.8752225 -3.24681685 0.0212488 0 0 Z " fill="#6CA5EF" transform="translate(37.25,321.8125)"/>
<path d="M0 0 C0.8946698 -0.0065712 1.7893396 -0.0131424 2.71112061 -0.01991272 C5.67566003 -0.03964259 8.64014877 -0.05130863 11.60473633 -0.0612793 C12.6180282 -0.06535482 13.63132008 -0.06943035 14.67531776 -0.07362938 C20.04021628 -0.09449038 25.40508923 -0.10879108 30.77001953 -0.11816406 C36.30371825 -0.12921888 41.83701381 -0.16360821 47.37057018 -0.20333576 C51.6317671 -0.22951942 55.89286828 -0.23785755 60.15413857 -0.24144554 C62.19342072 -0.2463082 64.23269869 -0.25791302 66.27190208 -0.27648354 C69.13211074 -0.30090831 71.99128084 -0.2999036 74.8515625 -0.29296875 C75.68770584 -0.30577881 76.52384918 -0.31858887 77.3853302 -0.33178711 C82.58964392 -0.28599542 86.08443514 0.70172153 90.56720448 3.37955952 C92.36261554 4.44427867 92.36261554 4.44427867 94.93676758 3.55200195 C96.08145508 2.87137695 96.08145508 2.87137695 97.24926758 2.17700195 C101.89540496 -0.20868668 106.15877764 -0.11265817 111.25878906 -0.09765625 C112.1569635 -0.10276718 113.05513794 -0.10787811 113.98052979 -0.11314392 C116.94387511 -0.12702213 119.90698741 -0.12608453 122.87036133 -0.1237793 C124.93392523 -0.12766708 126.99748834 -0.13200193 129.06105042 -0.13676453 C133.38431392 -0.14422285 137.70749575 -0.14393817 142.03076172 -0.13867188 C147.56679018 -0.13287658 153.10248414 -0.1498117 158.6384573 -0.17301655 C162.8995814 -0.18775852 167.16062501 -0.18862497 171.4217701 -0.18550682 C173.46268438 -0.18601976 175.5036032 -0.19125232 177.54449272 -0.20131874 C180.39999928 -0.2136752 183.25485518 -0.20689618 186.11035156 -0.1953125 C186.95054337 -0.20295624 187.79073517 -0.21059998 188.65638733 -0.21847534 C194.43821804 -0.16671583 198.74994388 0.82438908 203.11254883 4.9309082 C203.59079102 5.52774414 204.0690332 6.12458008 204.56176758 6.73950195 C205.05290039 7.33891602 205.5440332 7.93833008 206.05004883 8.5559082 C208.41479874 11.75255711 208.37484598 13.92759827 208.37625122 17.86412048 C208.37907104 19.07417252 208.38189087 20.28422455 208.38479614 21.53094482 C208.38285166 22.87902847 208.38080348 24.22711197 208.37866211 25.57519531 C208.38001655 26.98932439 208.38179673 28.40345312 208.38397217 29.81758118 C208.38854177 33.66465768 208.38675876 37.51170745 208.38359308 41.35878444 C208.38106656 45.37994253 208.38340789 49.40109829 208.38497925 53.42225647 C208.38680029 60.17701632 208.38439655 66.93176525 208.37963867 73.68652344 C208.37419838 81.50043455 208.37595728 89.31431956 208.38146508 97.12823004 C208.38600067 103.8305995 208.38664449 110.53296109 208.38402641 117.23533159 C208.38246582 121.24113522 208.38226389 125.24692657 208.3855629 129.25272942 C208.388448 133.01931799 208.3864541 136.78587288 208.38066864 140.55245781 C208.37934439 141.93638554 208.3797295 143.32031609 208.3819313 144.70424271 C208.38465593 146.59046071 208.38063651 148.4766849 208.37625122 150.36289978 C208.37568568 151.94771353 208.37568568 151.94771353 208.37510872 153.56454372 C208.24926758 156.17700195 208.24926758 156.17700195 207.24926758 159.17700195 C132.00926758 159.17700195 56.76926758 159.17700195 -20.75073242 159.17700195 C-21.80753586 156.00659165 -21.88168442 153.75830797 -21.89117432 150.42778015 C-21.89973953 148.62976456 -21.89973953 148.62976456 -21.90847778 146.79542542 C-21.90959564 145.4784819 -21.9107135 144.16153839 -21.91186523 142.8046875 C-21.91649407 141.40512969 -21.92151882 140.00557314 -21.9269104 138.60601807 C-21.94003036 134.80219563 -21.94647861 130.99839085 -21.95092106 127.19454932 C-21.95385253 124.81768859 -21.95795749 122.44083268 -21.96242523 120.06397438 C-21.9760993 112.62624436 -21.98576631 105.18852535 -21.98962712 97.75078362 C-21.99410735 89.16705744 -22.01165388 80.58349053 -22.04062772 71.99981278 C-22.06224977 65.36361671 -22.07233169 58.72746543 -22.07366824 52.09123451 C-22.07471593 48.12832854 -22.08061585 44.16557233 -22.09848785 40.20270348 C-22.1149776 36.47378086 -22.11711978 32.74512042 -22.10834885 29.01617432 C-22.10721247 26.99915155 -22.12092298 24.98213744 -22.13510132 22.96516418 C-22.12953217 21.75802765 -22.12396301 20.55089111 -22.1182251 19.30717468 C-22.11969166 18.26207072 -22.12115822 17.21696676 -22.12266922 16.14019299 C-21.47498791 10.98016728 -19.25741982 7.12432876 -15.25073242 3.86450195 C-14.66291992 3.37336914 -14.07510742 2.88223633 -13.46948242 2.3762207 C-9.35411723 -0.49518183 -4.79843136 0.01524644 0 0 Z " fill="#DE6C58" transform="translate(259.750732421875,78.822998046875)"/>
<path d="M0 0 C1.73189575 -0.00945648 1.73189575 -0.00945648 3.4987793 -0.019104 C4.75086182 -0.01505554 6.00294434 -0.01100708 7.29296875 -0.00683594 C8.57276611 -0.00874939 9.85256348 -0.01066284 11.17114258 -0.01263428 C13.88139668 -0.01558475 16.59151902 -0.01129049 19.30175781 -0.00195312 C22.77896106 0.00944154 26.25585557 0.00288163 29.73304749 -0.00909805 C33.04471279 -0.01805519 36.35629466 -0.01178729 39.66796875 -0.00683594 C40.92005127 -0.0108844 42.17213379 -0.01493286 43.4621582 -0.019104 C44.61675537 -0.01279968 45.77135254 -0.00649536 46.9609375 0 C47.98082764 0.00159119 49.00071777 0.00318237 50.05151367 0.00482178 C52.48046875 0.25878906 52.48046875 0.25878906 54.48046875 2.25878906 C54.6557193 5.05563703 54.71190064 7.75206986 54.67578125 10.54785156 C54.67295135 11.36627533 54.67012146 12.1846991 54.66720581 13.02792358 C54.65599407 15.64669299 54.63088804 18.2651227 54.60546875 20.88378906 C54.59544022 22.65722163 54.58631415 24.43065955 54.578125 26.20410156 C54.55605153 30.55579532 54.52151519 34.90723456 54.48046875 39.25878906 C55.65552979 39.24831543 56.83059082 39.2378418 58.04125977 39.22705078 C62.4227389 39.1907069 66.80420483 39.16783638 71.18579102 39.14892578 C73.07806646 39.13890091 74.97032653 39.12527751 76.86254883 39.10791016 C79.59069625 39.08350684 82.3186379 39.07227061 85.046875 39.06347656 C85.88569717 39.05315399 86.72451935 39.04283142 87.58876038 39.03219604 C93.28649978 39.03112056 98.47399639 39.45255224 103.4765625 42.45800781 C107.53097183 46.64426786 107.94129841 50.51489808 107.85546875 56.19628906 C107.77768515 58.55775482 107.64433528 60.90093182 107.48046875 63.25878906 C108.22296875 63.46503906 108.96546875 63.67128906 109.73046875 63.88378906 C112.48046875 65.25878906 112.48046875 65.25878906 116.48046875 71.25878906 C116.48046875 93.03878906 116.48046875 114.81878906 116.48046875 137.25878906 C66.65046875 137.25878906 16.82046875 137.25878906 -34.51953125 137.25878906 C-34.51953125 73.25878906 -34.51953125 73.25878906 -31.51953125 67.25878906 C-30.20855469 66.28039062 -30.20855469 66.28039062 -28.87109375 65.28222656 C-26.23097483 63.43078445 -26.23097483 63.43078445 -25.91796875 60.23535156 C-25.91023438 59.12933594 -25.9025 58.02332031 -25.89453125 56.88378906 C-25.6234962 50.51446534 -24.76296846 46.77415806 -20.45703125 41.94628906 C-17.40543249 40.19324297 -15.77579822 39.93509317 -12.3359375 39.65332031 C-11.43431885 39.57573486 -10.5327002 39.49814941 -9.60375977 39.41821289 C-8.91596436 39.36560303 -8.22816895 39.31299316 -7.51953125 39.25878906 C-7.53000488 38.14842285 -7.54047852 37.03805664 -7.55126953 35.89404297 C-7.58741074 31.78291027 -7.61041021 27.67179168 -7.62939453 23.56054688 C-7.63946556 21.77959839 -7.6531231 19.99866649 -7.67041016 18.21777344 C-7.69461038 15.66109123 -7.70600309 13.10462721 -7.71484375 10.54785156 C-7.72516632 9.7488443 -7.73548889 8.94983704 -7.74612427 8.12661743 C-7.74652351 6.16921687 -7.64194194 4.2123583 -7.51953125 2.25878906 C-4.87937314 -0.38136905 -3.68330616 0.00574653 0 0 Z " fill="#E6EBF5" transform="translate(104.51953125,100.7412109375)"/>
<path d="M0 0 C0.89846649 -0.00525696 1.79693298 -0.01051392 2.72262573 -0.01593018 C5.67520837 -0.02907118 8.62724642 -0.02041373 11.57983398 -0.01025391 C13.64053958 -0.01227616 15.70124448 -0.01518886 17.76194763 -0.01895142 C22.07330157 -0.02336663 26.38446862 -0.01696883 30.69580078 -0.00292969 C36.21609887 0.01417236 41.73595969 0.00430932 47.2562418 -0.01364708 C51.50879704 -0.02449737 55.76124891 -0.02103302 60.0138073 -0.0132637 C62.04913319 -0.0112657 64.08446854 -0.01370688 66.1197834 -0.02070236 C68.96552457 -0.02833843 71.81056118 -0.01668276 74.65625 0 C75.49329971 -0.00607269 76.33034943 -0.01214539 77.19276428 -0.0184021 C82.96199965 0.04411606 87.27447103 1.04532917 91.62670898 5.14208984 C92.10495117 5.73892578 92.58319336 6.33576172 93.07592773 6.95068359 C93.81262695 7.84980469 93.81262695 7.84980469 94.56420898 8.76708984 C97.17084662 12.29072052 96.90176067 15.01595893 96.92456055 19.3605957 C96.9320079 20.4364518 96.9320079 20.4364518 96.93960571 21.53404236 C96.95423378 23.9112137 96.96102985 26.28831835 96.96655273 28.66552734 C96.972303 30.31458031 96.97806075 31.96363324 96.98382568 33.61268616 C96.99433705 37.07195345 97.00017904 40.53119749 97.00366211 43.99047852 C97.0091517 48.42718914 97.03318888 52.8635936 97.06163406 57.30020809 C97.08023844 60.7068014 97.08546483 64.11332058 97.08699799 67.5199604 C97.09002929 69.15586588 97.09807385 70.7917699 97.11118317 72.42762566 C97.12820063 74.71411471 97.12637455 76.99985062 97.11987305 79.28637695 C97.12534149 81.23923866 97.12534149 81.23923866 97.13092041 83.23155212 C96.76342773 86.38818359 96.76342773 86.38818359 95.53265858 88.0620842 C93.24607468 89.77595751 91.9308897 89.76297624 89.08824158 89.7624054 C88.12779434 89.76941971 87.16734711 89.77643402 86.17779541 89.78366089 C84.599711 89.77219528 84.599711 89.77219528 82.98974609 89.76049805 C81.32604729 89.76597404 81.32604729 89.76597404 79.6287384 89.77156067 C75.95342823 89.77968325 72.27855653 89.7660423 68.60327148 89.75146484 C66.05644226 89.75094648 63.50961264 89.75146325 60.96278381 89.75297546 C55.62209622 89.75288567 50.28156335 89.74277713 44.94091797 89.72436523 C38.7623019 89.7031867 32.58387166 89.69968999 26.40522665 89.70592719 C20.46516902 89.71161698 14.52516752 89.70587632 8.58511543 89.69475365 C6.0552554 89.69089399 3.52538975 89.68975658 0.99552727 89.69133949 C-2.53385338 89.69170869 -6.0629474 89.67913088 -9.59228516 89.6628418 C-11.17340591 89.66655792 -11.17340591 89.66655792 -12.78646851 89.67034912 C-13.74409592 89.66326431 -14.70172333 89.6561795 -15.68836975 89.64888 C-16.52330491 89.64682714 -17.35824007 89.64477427 -18.2184763 89.64265919 C-20.23657227 89.38818359 -20.23657227 89.38818359 -22.23657227 87.38818359 C-22.51745605 84.36094666 -22.51745605 84.36094666 -22.55883789 80.41918945 C-22.5687677 79.70183624 -22.57869751 78.98448303 -22.58892822 78.24539185 C-22.61820843 75.86456489 -22.63178601 73.48400504 -22.64282227 71.10302734 C-22.65432863 69.44592788 -22.66584406 67.78882847 -22.67736816 66.13172913 C-22.69840302 62.65055094 -22.71007638 59.16946524 -22.71704102 55.68823242 C-22.72797003 51.24497949 -22.77592687 46.80296506 -22.83298492 42.36009884 C-22.87040538 38.93264826 -22.88065792 35.50548977 -22.88371277 32.07785225 C-22.8897368 30.44127243 -22.90569574 28.80469596 -22.93208313 27.16831779 C-23.1613788 11.84575249 -23.1613788 11.84575249 -18.20959473 5.04469299 C-12.60757042 0.34134769 -7.00658467 -0.05095514 0 0 Z " fill="#365E7D" transform="translate(371.236572265625,78.61181640625)"/>
<path d="M0 0 C0.33 0 0.66 0 1 0 C1.02315533 9.07505018 1.0409314 18.1500902 1.05181217 27.22516346 C1.057034 31.43893794 1.06411899 35.65269222 1.07543945 39.86645508 C1.08629315 43.93184801 1.09228212 47.9972215 1.09487724 52.06262779 C1.096727 53.61478672 1.10033904 55.16694456 1.10573006 56.71909523 C1.1129734 58.89063453 1.11398954 61.06209317 1.11352539 63.23364258 C1.115746 64.47052322 1.11796661 65.70740387 1.12025452 66.98176575 C1 70 1 70 0 73 C-38.94 73 -77.88 73 -118 73 C-118 49.9 -118 26.8 -118 3 C-105.47417969 2.92652344 -105.47417969 2.92652344 -92.6953125 2.8515625 C-86.74725682 2.81169917 -80.79922007 2.77058819 -74.85118675 2.72766876 C-67.13795724 2.67217907 -59.42474434 2.61967361 -51.71142578 2.578125 C-44.9551559 2.54172126 -38.19903004 2.49502501 -31.44286728 2.44193649 C-28.85999671 2.42334543 -26.27709859 2.40825508 -23.69418716 2.39665604 C-20.08781932 2.37987408 -16.48174846 2.35085873 -12.87548828 2.31884766 C-11.79799316 2.31668747 -10.72049805 2.31452728 -9.61035156 2.31230164 C-8.63156036 2.30113815 -7.65276917 2.28997467 -6.64431763 2.2784729 C-5.36394717 2.27017676 -5.36394717 2.27017676 -4.05771065 2.26171303 C-1.77681973 2.18497991 -1.77681973 2.18497991 0 0 Z " fill="#B3E59F" transform="translate(467,165)"/>
<path d="M0 0 C1.485 0.99 1.485 0.99 3 2 C5.1080669 2.30992718 5.1080669 2.30992718 7.46086121 2.2784729 C8.83014015 2.29521812 8.83014015 2.29521812 10.2270813 2.31230164 C11.22617523 2.31446182 12.22526917 2.31662201 13.25463867 2.31884766 C14.83537422 2.33391609 14.83537422 2.33391609 16.44804382 2.34928894 C19.93801315 2.38022737 23.4279054 2.39718581 26.91796875 2.4140625 C29.33507455 2.43276556 31.75217376 2.45233831 34.16926575 2.4727478 C40.53636804 2.52416602 46.90349152 2.5637399 53.27069092 2.60089111 C60.90742047 2.64789699 68.54404408 2.70953624 76.18068695 2.76873779 C87.7870821 2.85706805 99.39345574 2.92674827 111 3 C111 26.1 111 49.2 111 73 C74.7 73 38.4 73 1 73 C-0.15190466 69.54428603 -0.12007093 66.87950974 -0.11352539 63.23364258 C-0.11367142 62.55045456 -0.11381744 61.86726654 -0.1139679 61.16337585 C-0.11327169 58.90706193 -0.10549296 56.65083074 -0.09765625 54.39453125 C-0.09579103 52.82940211 -0.09436762 51.26427239 -0.09336853 49.69914246 C-0.08955152 45.58096707 -0.07972818 41.46282698 -0.06866455 37.34466553 C-0.05843291 33.14189125 -0.05386715 28.93911127 -0.04882812 24.73632812 C-0.03810519 16.49086922 -0.02103854 8.245439 0 0 Z " fill="#E9B24F" transform="translate(238,165)"/>
<path d="M0 0 C1.20361176 0.00729126 2.40722351 0.01458252 3.64730835 0.02209473 C4.32483028 0.02353485 5.00235222 0.02497498 5.70040512 0.02645874 C8.01407927 0.03409674 10.32738405 0.0564714 12.64096069 0.07873535 C14.32012546 0.08768528 15.99929463 0.09583845 17.6784668 0.10327148 C22.46466085 0.12774483 27.25065501 0.16645599 32.03672791 0.20800781 C35.34615689 0.23599386 38.65559705 0.26080769 41.96505737 0.28479004 C58.20430401 0.40289352 74.44325885 0.54665492 90.68222046 0.69854736 C97.30777865 0.76013967 103.93335475 0.81973095 110.55892944 0.8795166 C123.44827016 0.99610503 136.33759098 1.11475303 149.22689819 1.23498535 C149.26602978 3.12804697 149.29373624 5.0213466 149.31674194 6.91467285 C149.33341919 7.96896484 149.35009644 9.02325684 149.36727905 10.10949707 C148.9813348 18.70229411 144.58949724 24.89004668 138.80111694 30.9654541 C131.80330835 37.134994 124.37496106 40.36498332 115.06996155 40.35523987 C114.05338974 40.35661453 113.03681793 40.3579892 111.98944092 40.35940552 C110.88532867 40.35581024 109.78121643 40.35221497 108.64364624 40.34851074 C106.88690834 40.34872978 106.88690834 40.34872978 105.09468079 40.34895325 C101.22597396 40.34825692 97.35731535 40.34047757 93.48861694 40.3326416 C90.80533263 40.33077643 88.12205097 40.32930379 85.43876648 40.32835388 C79.09946655 40.32524866 72.76018391 40.31704617 66.42089158 40.30700439 C59.20205202 40.29581814 51.98321163 40.29032647 44.76436555 40.28530896 C29.91853376 40.27486288 15.07271712 40.2572791 0.22689819 40.23498535 C-0.62111328 35.77931657 -1.44880542 31.32009716 -2.27310181 26.85998535 C-2.51157837 25.60830566 -2.75005493 24.35662598 -2.99575806 23.0670166 C-5.69657139 8.32829241 -5.69657139 8.32829241 -4.77310181 2.23498535 C-2.77310181 0.23498535 -2.77310181 0.23498535 0 0 Z " fill="#D95841" transform="translate(35.773101806640625,237.7650146484375)"/>
<path d="M0 0 C1.73189575 -0.00945648 1.73189575 -0.00945648 3.4987793 -0.019104 C4.75086182 -0.01505554 6.00294434 -0.01100708 7.29296875 -0.00683594 C8.57276611 -0.00874939 9.85256348 -0.01066284 11.17114258 -0.01263428 C13.88139668 -0.01558475 16.59151902 -0.01129049 19.30175781 -0.00195312 C22.77896106 0.00944154 26.25585557 0.00288163 29.73304749 -0.00909805 C33.04471279 -0.01805519 36.35629466 -0.01178729 39.66796875 -0.00683594 C40.92005127 -0.0108844 42.17213379 -0.01493286 43.4621582 -0.019104 C44.61675537 -0.01279968 45.77135254 -0.00649536 46.9609375 0 C47.98082764 0.00159119 49.00071777 0.00318237 50.05151367 0.00482178 C52.48046875 0.25878906 52.48046875 0.25878906 54.48046875 2.25878906 C54.6557193 5.05563703 54.71190064 7.75206986 54.67578125 10.54785156 C54.67295135 11.36627533 54.67012146 12.1846991 54.66720581 13.02792358 C54.65599407 15.64669299 54.63088804 18.2651227 54.60546875 20.88378906 C54.59544022 22.65722163 54.58631415 24.43065955 54.578125 26.20410156 C54.55605153 30.55579532 54.52151519 34.90723456 54.48046875 39.25878906 C55.65552979 39.24831543 56.83059082 39.2378418 58.04125977 39.22705078 C62.4227389 39.1907069 66.80420483 39.16783638 71.18579102 39.14892578 C73.07806646 39.13890091 74.97032653 39.12527751 76.86254883 39.10791016 C79.59069625 39.08350684 82.3186379 39.07227061 85.046875 39.06347656 C85.88569717 39.05315399 86.72451935 39.04283142 87.58876038 39.03219604 C93.28649978 39.03112056 98.47399639 39.45255224 103.4765625 42.45800781 C109.86549769 49.05471325 107.48046875 52.70857793 107.48046875 63.25878906 C63.59046875 63.25878906 19.70046875 63.25878906 -25.51953125 63.25878906 C-25.51953125 47.62242543 -25.51953125 47.62242543 -20.45703125 41.94628906 C-17.40543249 40.19324297 -15.77579822 39.93509317 -12.3359375 39.65332031 C-11.43431885 39.57573486 -10.5327002 39.49814941 -9.60375977 39.41821289 C-8.91596436 39.36560303 -8.22816895 39.31299316 -7.51953125 39.25878906 C-7.53000488 38.14842285 -7.54047852 37.03805664 -7.55126953 35.89404297 C-7.58741074 31.78291027 -7.61041021 27.67179168 -7.62939453 23.56054688 C-7.63946556 21.77959839 -7.6531231 19.99866649 -7.67041016 18.21777344 C-7.69461038 15.66109123 -7.70600309 13.10462721 -7.71484375 10.54785156 C-7.72516632 9.7488443 -7.73548889 8.94983704 -7.74612427 8.12661743 C-7.74652351 6.16921687 -7.64194194 4.2123583 -7.51953125 2.25878906 C-4.87937314 -0.38136905 -3.68330616 0.00574653 0 0 Z " fill="#C3D3EE" transform="translate(104.51953125,100.7412109375)"/>
<path d="M0 0 C1.1325119 0.00444122 2.2650238 0.00888245 3.43185425 0.01345825 C4.71303131 0.01360931 5.99420837 0.01376038 7.31420898 0.01391602 C8.71784621 0.02413008 10.12148186 0.03456209 11.52511597 0.04519653 C12.95715132 0.04892612 14.38918922 0.05177335 15.82122803 0.05377197 C19.59259064 0.06141276 23.3637995 0.08106495 27.13510132 0.10317993 C31.6588371 0.12722336 36.18262426 0.13641723 40.70640564 0.14808655 C47.58097855 0.16748924 54.45521404 0.20580836 61.32980347 0.24050903 C61.32980347 16.41050903 61.32980347 32.58050903 61.32980347 49.24050903 C45.4378019 49.32072665 45.4378019 49.32072665 38.67745972 49.33816528 C34.05973734 49.35013323 29.44209408 49.36430989 24.82443237 49.39138794 C21.10268155 49.41307643 17.38101552 49.42506918 13.65920639 49.43026352 C12.23739155 49.43396649 10.8155815 49.44119723 9.39380264 49.45196915 C7.40653233 49.46643023 5.41917716 49.46732549 3.43185425 49.46755981 C2.29934235 49.47200104 1.16683044 49.47644226 0 49.48101807 C-2.67019653 49.24050903 -2.67019653 49.24050903 -4.67019653 47.24050903 C-4.92416382 45.30508423 -4.92416382 45.30508423 -4.9289856 42.91433716 C-4.93528992 42.02000977 -4.94159424 41.12568237 -4.9480896 40.20425415 C-4.94404114 39.23653076 -4.93999268 38.26880737 -4.93582153 37.27175903 C-4.93773499 36.28051025 -4.93964844 35.28926147 -4.94161987 34.26797485 C-4.94298239 32.16978705 -4.93928135 30.07159085 -4.93093872 27.97341919 C-4.92024024 24.75366357 -4.93083189 21.53446595 -4.94363403 18.31472778 C-4.94231245 16.2795703 -4.93975008 14.24441316 -4.93582153 12.20925903 C-4.94189423 10.75767395 -4.94189423 10.75767395 -4.9480896 9.27676392 C-4.94178528 8.38243652 -4.93548096 7.48810913 -4.9289856 6.56668091 C-4.92739441 5.77773437 -4.92580322 4.98878784 -4.92416382 4.17593384 C-4.49131801 0.87731795 -3.16990007 0.28551816 0 0 Z " fill="#81B4FA" transform="translate(159.67019653320313,180.75949096679688)"/>
<path d="M0 0 C1.73189575 -0.00945648 1.73189575 -0.00945648 3.4987793 -0.019104 C4.75086182 -0.01505554 6.00294434 -0.01100708 7.29296875 -0.00683594 C8.57276611 -0.00874939 9.85256348 -0.01066284 11.17114258 -0.01263428 C13.88139668 -0.01558475 16.59151902 -0.01129049 19.30175781 -0.00195312 C22.77896106 0.00944154 26.25585557 0.00288163 29.73304749 -0.00909805 C33.04471279 -0.01805519 36.35629466 -0.01178729 39.66796875 -0.00683594 C41.54609253 -0.01290863 41.54609253 -0.01290863 43.4621582 -0.019104 C44.61675537 -0.01279968 45.77135254 -0.00649536 46.9609375 0 C47.98082764 0.00159119 49.00071777 0.00318237 50.05151367 0.00482178 C52.48046875 0.25878906 52.48046875 0.25878906 54.48046875 2.25878906 C54.6557365 5.12677246 54.71198686 7.89951629 54.67578125 10.76660156 C54.67376709 11.51159912 54.67175293 12.25659668 54.66967773 13.02416992 C54.65920285 15.81077214 54.63128027 18.5972867 54.60546875 21.38378906 C54.56421875 27.61253906 54.52296875 33.84128906 54.48046875 40.25878906 C34.02046875 40.25878906 13.56046875 40.25878906 -7.51953125 40.25878906 C-7.58140625 30.91566406 -7.58140625 30.91566406 -7.64453125 21.38378906 C-7.66273926 19.41812988 -7.68094727 17.4524707 -7.69970703 15.42724609 C-7.70554683 13.8737007 -7.7106436 12.32015226 -7.71484375 10.76660156 C-7.72507568 9.95634521 -7.73530762 9.14608887 -7.74584961 8.3112793 C-7.7464823 6.29237271 -7.64268061 4.27393632 -7.51953125 2.25878906 C-4.87937314 -0.38136905 -3.68330616 0.00574653 0 0 Z " fill="#E6EBF6" transform="translate(104.51953125,100.7412109375)"/>
<path d="M0 0 C49.5 0 99 0 150 0 C150 0.33 150 0.66 150 1 C141.09 1 132.18 1 123 1 C123 4.63 123 8.26 123 12 C120.94563779 24.2180489 114.45721464 34.27326466 104.43359375 41.5 C96.95898008 46.10714551 89.67954658 49.12950738 80.84306335 49.12025452 C79.82649155 49.12162918 78.80991974 49.12300385 77.76254272 49.12442017 C76.65843048 49.12082489 75.55431824 49.11722961 74.41674805 49.11352539 C72.66001015 49.11374443 72.66001015 49.11374443 70.86778259 49.1139679 C66.99907576 49.11327157 63.13041716 49.10549222 59.26171875 49.09765625 C56.57843443 49.09579108 53.89515278 49.09431844 51.21186829 49.09336853 C44.87256835 49.0902633 38.53328571 49.08206082 32.19399339 49.07201904 C24.97515383 49.06083279 17.75631343 49.05534112 10.53746736 49.05032361 C-4.30836467 49.03987753 -19.15418058 49.02209177 -34 49 C-34.33 46.03 -34.66 43.06 -35 40 C-33.51661636 39.99413376 -32.03323273 39.98826752 -30.50489807 39.98222351 C-16.512542 39.92496384 -2.52033021 39.85236062 11.47186184 39.76428509 C18.66506417 39.71939767 25.85821778 39.67996695 33.05151367 39.65356445 C39.32418486 39.630527 45.59670092 39.59706535 51.86924893 39.55129844 C55.18783968 39.52744313 58.50624598 39.51021953 61.82491875 39.50238609 C65.53772556 39.49273663 69.24997696 39.46466532 72.96264648 39.43237305 C74.05237762 39.43380814 75.14210876 39.43524323 76.26486206 39.4367218 C86.91146664 39.30611565 95.95270643 36.52895412 103.9140625 29.25 C111.969434 20.7490122 113.01320027 12.84159677 114 1 C76.38 1 38.76 1 0 1 C0 0.67 0 0.34 0 0 Z " fill="#E28573" transform="translate(71,238)"/>
<path d="M0 0 C4.6939932 3.57637577 8.10466509 6.99230652 9.140625 12.98046875 C9.35360696 19.10370015 8.93506694 23.34966461 4.625 28 C-0.27327692 32.68085992 -4.22957783 34.42439814 -10.9609375 34.34765625 C-16.37657394 33.5677345 -20.18904479 30.27718254 -23.8125 26.375 C-26.99056755 21.54433733 -26.98838789 16.60568378 -26.375 11 C-22.22190011 -0.96273338 -11.11354128 -3.29290112 0 0 Z " fill="#FAECEA" transform="translate(432.375,262)"/>
<path d="M0 0 C4.86450826 2.44301631 7.89062566 6.41920943 9.828125 11.38671875 C10.8678252 16.71201244 10.41029155 21.03296679 7.703125 25.76171875 C4.59255415 30.13595901 0.92105537 32.68907529 -4.171875 34.38671875 C-10.33486863 34.90030155 -14.28154721 34.28946209 -19.171875 30.38671875 C-23.51837369 25.98406374 -25.33822512 22.82116632 -25.484375 16.63671875 C-25.43383919 11.35572666 -24.86596363 8.38032808 -21.171875 4.38671875 C-14.87464243 -1.16084327 -8.24277941 -2.32754742 0 0 Z " fill="#FAECEA" transform="translate(343.171875,261.61328125)"/>
<path d="M0 0 C4.83735148 2.61364524 8.06265925 6.09032151 9.79296875 11.28125 C10.57768779 17.803423 9.57331109 22.86848711 5.79296875 28.28125 C1.55507367 32.4104811 -2.17681452 34.04827431 -8.01953125 34.71875 C-12.97992186 34.58747312 -16.43349754 32.3519526 -20.20703125 29.28125 C-25.02420096 24.09352878 -25.56081027 19.87993729 -25.48828125 13.0078125 C-24.95922907 7.8789455 -22.31040678 5.2532713 -18.58203125 1.96875 C-13.24883834 -1.82062391 -6.21556716 -2.0241847 0 0 Z " fill="#FAECEA" transform="translate(387.20703125,261.71875)"/>
<path d="M0 0 C3.29714793 0.32971479 4.6226839 0.6226839 7 3 C7.25396729 5.00462341 7.25396729 5.00462341 7.25878906 7.49389648 C7.26509338 8.42503769 7.27139771 9.35617889 7.27789307 10.3155365 C7.2738446 11.32387039 7.26979614 12.33220428 7.265625 13.37109375 C7.26753845 14.40436295 7.2694519 15.43763214 7.27142334 16.50221252 C7.27278609 18.69036095 7.26908343 20.87851744 7.26074219 23.06665039 C7.25005491 26.42026927 7.26062903 29.77335111 7.2734375 33.12695312 C7.27211571 35.25000119 7.26955291 37.37304891 7.265625 39.49609375 C7.26967346 40.50240341 7.27372192 41.50871307 7.27789307 42.54551697 C7.27158875 43.47981033 7.26528442 44.4141037 7.25878906 45.37670898 C7.25640228 46.61009254 7.25640228 46.61009254 7.25396729 47.86839294 C7 50 7 50 5 53 C2.5 53.3125 2.5 53.3125 0 53 C-2.49261318 50.50738682 -2.25242752 49.7449321 -2.25878906 46.30664062 C-2.26509338 45.33223022 -2.27139771 44.35781982 -2.27789307 43.35388184 C-2.2738446 42.29866333 -2.26979614 41.24344482 -2.265625 40.15625 C-2.26753845 39.07621704 -2.2694519 37.99618408 -2.27142334 36.88342285 C-2.27278607 34.59692146 -2.26908352 32.31041236 -2.26074219 30.02392578 C-2.25004412 26.51447245 -2.26063473 23.00553107 -2.2734375 19.49609375 C-2.27211592 17.2786447 -2.26955356 15.06119597 -2.265625 12.84375 C-2.26967346 11.78853149 -2.27372192 10.73331299 -2.27789307 9.64611816 C-2.27158875 8.67170776 -2.26528442 7.69729736 -2.25878906 6.69335938 C-2.25719788 5.83335327 -2.25560669 4.97334717 -2.25396729 4.08728027 C-2 2 -2 2 0 0 Z " fill="#69889F" transform="translate(439,97)"/>
<path d="M0 0 C3.0625 0.1875 3.0625 0.1875 5.0625 2.1875 C5.31646729 4.23681641 5.31646729 4.23681641 5.32128906 6.7890625 C5.32759338 7.74345215 5.33389771 8.6978418 5.34039307 9.68115234 C5.3363446 10.71449707 5.33229614 11.7478418 5.328125 12.8125 C5.33003845 13.87033691 5.3319519 14.92817383 5.33392334 16.01806641 C5.33528602 18.25748939 5.33158382 20.49692026 5.32324219 22.73632812 C5.31254402 26.17335677 5.32313488 29.6098627 5.3359375 33.046875 C5.33461592 35.21875116 5.33205356 37.39062699 5.328125 39.5625 C5.33217346 40.59584473 5.33622192 41.62918945 5.34039307 42.69384766 C5.33408875 43.6482373 5.32778442 44.60262695 5.32128906 45.5859375 C5.31890228 46.84929932 5.31890228 46.84929932 5.31646729 48.13818359 C5.0625 50.1875 5.0625 50.1875 3.0625 52.1875 C0 52.375 0 52.375 -2.9375 52.1875 C-4.56504644 50.55995356 -4.06487077 48.74611677 -4.06689453 46.5 C-4.07004669 45.50226563 -4.07319885 44.50453125 -4.07644653 43.4765625 C-4.0744223 42.39117187 -4.07239807 41.30578125 -4.0703125 40.1875 C-4.07126923 39.08148438 -4.07222595 37.97546875 -4.07321167 36.8359375 C-4.07389367 34.49218692 -4.07203804 32.14843447 -4.06787109 29.8046875 C-4.06252314 26.20308212 -4.06781547 22.60160147 -4.07421875 19 C-4.07355797 16.72916639 -4.07227682 14.45833286 -4.0703125 12.1875 C-4.07233673 11.10210937 -4.07436096 10.01671875 -4.07644653 8.8984375 C-4.07329437 7.90070313 -4.07014221 6.90296875 -4.06689453 5.875 C-4.06609894 4.99199219 -4.06530334 4.10898438 -4.06448364 3.19921875 C-3.85957545 -0.0470076 -3.30684176 0.21107501 0 0 Z " fill="#E9F7E4" transform="translate(396.9375,176.8125)"/>
<path d="M0 0 C3.29714793 0.32971479 4.6226839 0.6226839 7 3 C7.26069641 5.00462341 7.26069641 5.00462341 7.2746582 7.49389648 C7.28419022 8.42503769 7.29372223 9.35617889 7.30354309 10.3155365 C7.30263168 11.32387039 7.30172028 12.33220428 7.30078125 13.37109375 C7.30506638 14.40436295 7.3093515 15.43763214 7.31376648 16.50221252 C7.31951683 18.69035102 7.32000488 20.87850863 7.31567383 23.06665039 C7.31251609 26.42041559 7.3359571 29.77329724 7.36132812 33.12695312 C7.3636012 35.24999888 7.36430457 37.37304702 7.36328125 39.49609375 C7.372491 40.50240341 7.38170074 41.50871307 7.39118958 42.54551697 C7.38496078 43.47981033 7.37873199 44.4141037 7.37231445 45.37670898 C7.37294388 46.19896469 7.3735733 47.0212204 7.3742218 47.86839294 C6.91021505 50.5114246 6.15178062 51.43229442 4 53 C-0.42105263 52.57894737 -0.42105263 52.57894737 -2 51 C-2.10358779 49.47613769 -2.13851138 47.94753014 -2.14526367 46.42016602 C-2.15164352 45.44568008 -2.15802338 44.47119415 -2.16459656 43.46717834 C-2.16570938 42.40679855 -2.1668222 41.34641876 -2.16796875 40.25390625 C-2.17129715 39.17245834 -2.17462555 38.09101044 -2.17805481 36.97679138 C-2.18312877 34.68432034 -2.18546299 32.39184188 -2.18530273 30.09936523 C-2.18748845 26.58109433 -2.20563728 23.06313719 -2.22460938 19.54492188 C-2.22754328 17.32291775 -2.22952809 15.10091212 -2.23046875 12.87890625 C-2.23765427 11.82055069 -2.24483978 10.76219513 -2.25224304 9.67176819 C-2.24916641 8.6941301 -2.24608978 7.716492 -2.24291992 6.70922852 C-2.24434494 5.84620621 -2.24576996 4.9831839 -2.24723816 4.0940094 C-2 2 -2 2 0 0 Z " fill="#69889F" transform="translate(417,97)"/>
<path d="M0 0 C3.29714793 0.32971479 4.6226839 0.6226839 7 3 C7.26069641 5.00462341 7.26069641 5.00462341 7.2746582 7.49389648 C7.28419022 8.42503769 7.29372223 9.35617889 7.30354309 10.3155365 C7.30263168 11.32387039 7.30172028 12.33220428 7.30078125 13.37109375 C7.30506638 14.40436295 7.3093515 15.43763214 7.31376648 16.50221252 C7.31951683 18.69035102 7.32000488 20.87850863 7.31567383 23.06665039 C7.31251609 26.42041559 7.3359571 29.77329724 7.36132812 33.12695312 C7.3636012 35.24999888 7.36430457 37.37304702 7.36328125 39.49609375 C7.372491 40.50240341 7.38170074 41.50871307 7.39118958 42.54551697 C7.38496078 43.47981033 7.37873199 44.4141037 7.37231445 45.37670898 C7.37294388 46.19896469 7.3735733 47.0212204 7.3742218 47.86839294 C6.91021505 50.5114246 6.15178062 51.43229442 4 53 C-0.42105263 52.57894737 -0.42105263 52.57894737 -2 51 C-2.10358779 49.47613769 -2.13851138 47.94753014 -2.14526367 46.42016602 C-2.15164352 45.44568008 -2.15802338 44.47119415 -2.16459656 43.46717834 C-2.16570938 42.40679855 -2.1668222 41.34641876 -2.16796875 40.25390625 C-2.17129715 39.17245834 -2.17462555 38.09101044 -2.17805481 36.97679138 C-2.18312877 34.68432034 -2.18546299 32.39184188 -2.18530273 30.09936523 C-2.18748845 26.58109433 -2.20563728 23.06313719 -2.22460938 19.54492188 C-2.22754328 17.32291775 -2.22952809 15.10091212 -2.23046875 12.87890625 C-2.23765427 11.82055069 -2.24483978 10.76219513 -2.25224304 9.67176819 C-2.24916641 8.6941301 -2.24608978 7.716492 -2.24291992 6.70922852 C-2.24434494 5.84620621 -2.24576996 4.9831839 -2.24723816 4.0940094 C-2 2 -2 2 0 0 Z " fill="#69879F" transform="translate(395,97)"/>
<path d="M0 0 C3.29714793 0.32971479 4.6226839 0.6226839 7 3 C7.26069641 5.00462341 7.26069641 5.00462341 7.2746582 7.49389648 C7.28419022 8.42503769 7.29372223 9.35617889 7.30354309 10.3155365 C7.30263168 11.32387039 7.30172028 12.33220428 7.30078125 13.37109375 C7.30506638 14.40436295 7.3093515 15.43763214 7.31376648 16.50221252 C7.31951683 18.69035102 7.32000488 20.87850863 7.31567383 23.06665039 C7.31251609 26.42041559 7.3359571 29.77329724 7.36132812 33.12695312 C7.3636012 35.24999888 7.36430457 37.37304702 7.36328125 39.49609375 C7.372491 40.50240341 7.38170074 41.50871307 7.39118958 42.54551697 C7.38496078 43.47981033 7.37873199 44.4141037 7.37231445 45.37670898 C7.37294388 46.19896469 7.3735733 47.0212204 7.3742218 47.86839294 C6.91021505 50.5114246 6.15178062 51.43229442 4 53 C-0.42105263 52.57894737 -0.42105263 52.57894737 -2 51 C-2.10358779 49.47613769 -2.13851138 47.94753014 -2.14526367 46.42016602 C-2.15164352 45.44568008 -2.15802338 44.47119415 -2.16459656 43.46717834 C-2.16570938 42.40679855 -2.1668222 41.34641876 -2.16796875 40.25390625 C-2.17129715 39.17245834 -2.17462555 38.09101044 -2.17805481 36.97679138 C-2.18312877 34.68432034 -2.18546299 32.39184188 -2.18530273 30.09936523 C-2.18748845 26.58109433 -2.20563728 23.06313719 -2.22460938 19.54492188 C-2.22754328 17.32291775 -2.22952809 15.10091212 -2.23046875 12.87890625 C-2.23765427 11.82055069 -2.24483978 10.76219513 -2.25224304 9.67176819 C-2.24916641 8.6941301 -2.24608978 7.716492 -2.24291992 6.70922852 C-2.24434494 5.84620621 -2.24576996 4.9831839 -2.24723816 4.0940094 C-2 2 -2 2 0 0 Z " fill="#68879F" transform="translate(373,97)"/>
<path d="M0 0 C2.375 0.75 2.375 0.75 3.375 1.75 C3.47858779 3.27386231 3.51351138 4.80246986 3.52026367 6.32983398 C3.52664352 7.30431992 3.53302338 8.27880585 3.53959656 9.28282166 C3.54070938 10.34320145 3.5418222 11.40358124 3.54296875 12.49609375 C3.54629715 13.57754166 3.54962555 14.65898956 3.55305481 15.77320862 C3.55812877 18.06567966 3.56046299 20.35815812 3.56030273 22.65063477 C3.56248845 26.16890567 3.58063728 29.68686281 3.59960938 33.20507812 C3.60254328 35.42708225 3.60452809 37.64908788 3.60546875 39.87109375 C3.61265427 40.92944931 3.61983978 41.98780487 3.62724304 43.07823181 C3.62416641 44.0558699 3.62108978 45.033508 3.61791992 46.04077148 C3.61934494 46.90379379 3.62076996 47.7668161 3.62223816 48.6559906 C3.375 50.75 3.375 50.75 1.375 52.75 C-1.6875 52.5 -1.6875 52.5 -4.625 51.75 C-5.81155283 49.37689434 -5.76412339 47.90400279 -5.78613281 45.25610352 C-5.79574036 44.32496231 -5.8053479 43.39382111 -5.81524658 42.4344635 C-5.81949646 41.42612961 -5.82374634 40.41779572 -5.828125 39.37890625 C-5.83382507 38.34563705 -5.83952515 37.31236786 -5.84539795 36.24778748 C-5.85485453 34.05965196 -5.86138454 31.87150217 -5.86523438 29.68334961 C-5.87495027 26.32966413 -5.90597203 22.97658869 -5.9375 19.62304688 C-5.94402884 17.50000365 -5.94927978 15.37695603 -5.953125 13.25390625 C-5.9654718 12.24759659 -5.9778186 11.24128693 -5.99053955 10.20448303 C-5.9860379 8.80304298 -5.9860379 8.80304298 -5.98144531 7.37329102 C-5.98509094 6.55103531 -5.98873657 5.7287796 -5.99249268 4.88160706 C-5.34781349 1.14220545 -3.77202779 -0.35924074 0 0 Z " fill="#EFB4AA" transform="translate(287.625,97.25)"/>
<path d="M0 0 C2.375 0.75 2.375 0.75 3.375 1.75 C3.47858779 3.27386231 3.51351138 4.80246986 3.52026367 6.32983398 C3.52664352 7.30431992 3.53302338 8.27880585 3.53959656 9.28282166 C3.54070938 10.34320145 3.5418222 11.40358124 3.54296875 12.49609375 C3.54629715 13.57754166 3.54962555 14.65898956 3.55305481 15.77320862 C3.55812877 18.06567966 3.56046299 20.35815812 3.56030273 22.65063477 C3.56248845 26.16890567 3.58063728 29.68686281 3.59960938 33.20507812 C3.60254328 35.42708225 3.60452809 37.64908788 3.60546875 39.87109375 C3.61265427 40.92944931 3.61983978 41.98780487 3.62724304 43.07823181 C3.62416641 44.0558699 3.62108978 45.033508 3.61791992 46.04077148 C3.61934494 46.90379379 3.62076996 47.7668161 3.62223816 48.6559906 C3.375 50.75 3.375 50.75 1.375 52.75 C-1.6875 52.5 -1.6875 52.5 -4.625 51.75 C-5.81155283 49.37689434 -5.76412339 47.90400279 -5.78613281 45.25610352 C-5.79574036 44.32496231 -5.8053479 43.39382111 -5.81524658 42.4344635 C-5.81949646 41.42612961 -5.82374634 40.41779572 -5.828125 39.37890625 C-5.83382507 38.34563705 -5.83952515 37.31236786 -5.84539795 36.24778748 C-5.85485453 34.05965196 -5.86138454 31.87150217 -5.86523438 29.68334961 C-5.87495027 26.32966413 -5.90597203 22.97658869 -5.9375 19.62304688 C-5.94402884 17.50000365 -5.94927978 15.37695603 -5.953125 13.25390625 C-5.9654718 12.24759659 -5.9778186 11.24128693 -5.99053955 10.20448303 C-5.9860379 8.80304298 -5.9860379 8.80304298 -5.98144531 7.37329102 C-5.98509094 6.55103531 -5.98873657 5.7287796 -5.99249268 4.88160706 C-5.34781349 1.14220545 -3.77202779 -0.35924074 0 0 Z " fill="#EFB5AA" transform="translate(265.625,97.25)"/>
<path d="M0 0 C1.010625 0.0825 2.02125 0.165 3.0625 0.25 C5.18422816 3.43259223 5.3142325 4.22676824 5.32128906 7.87329102 C5.32759338 8.80758438 5.33389771 9.74187775 5.34039307 10.70448303 C5.3363446 11.71079269 5.33229614 12.71710236 5.328125 13.75390625 C5.33003845 14.78813217 5.3319519 15.82235809 5.33392334 16.88792419 C5.33528455 19.07429243 5.33159256 21.26066877 5.32324219 23.44702148 C5.3125311 26.80275516 5.32314538 30.15795478 5.3359375 33.51367188 C5.33461611 35.63541785 5.33205413 37.7571635 5.328125 39.87890625 C5.33217346 40.88724014 5.33622192 41.89557404 5.34039307 42.9344635 C5.33408875 43.86560471 5.32778442 44.79674591 5.32128906 45.75610352 C5.31890228 46.98829369 5.31890228 46.98829369 5.31646729 48.24537659 C5.0625 50.25 5.0625 50.25 3.0625 52.25 C0 52.4375 0 52.4375 -2.9375 52.25 C-4.56504644 50.62245356 -4.06487077 48.80861677 -4.06689453 46.5625 C-4.07004669 45.56476563 -4.07319885 44.56703125 -4.07644653 43.5390625 C-4.0744223 42.45367187 -4.07239807 41.36828125 -4.0703125 40.25 C-4.07126923 39.14398438 -4.07222595 38.03796875 -4.07321167 36.8984375 C-4.07389367 34.55468692 -4.07203804 32.21093447 -4.06787109 29.8671875 C-4.06252314 26.26558212 -4.06781547 22.66410147 -4.07421875 19.0625 C-4.07355797 16.79166639 -4.07227682 14.52083286 -4.0703125 12.25 C-4.07233673 11.16460937 -4.07436096 10.07921875 -4.07644653 8.9609375 C-4.07329437 7.96320313 -4.07014221 6.96546875 -4.06689453 5.9375 C-4.06609894 5.05449219 -4.06530334 4.17148438 -4.06448364 3.26171875 C-3.85995703 0.0215375 -3.2980721 0.28068699 0 0 Z " fill="#E8F7E3" transform="translate(374.9375,176.75)"/>
<path d="M0 0 C0.94875 0.04125 1.8975 0.0825 2.875 0.125 C4.09118998 2.55737995 4.00188905 4.11639783 4.00439453 6.83422852 C4.00754669 7.81186661 4.01069885 8.7895047 4.01394653 9.79676819 C4.0119223 10.85512375 4.00989807 11.91347931 4.0078125 13.00390625 C4.00876923 14.08631088 4.00972595 15.16871552 4.01071167 16.28392029 C4.01139298 18.57461607 4.00954211 20.86531377 4.00537109 23.15600586 C4.00001701 26.67631328 4.00532044 30.19649341 4.01171875 33.71679688 C4.01105806 35.93750028 4.00977709 38.15820361 4.0078125 40.37890625 C4.00983673 41.43928604 4.01186096 42.49966583 4.01394653 43.59217834 C4.01079437 44.56666428 4.00764221 45.54115021 4.00439453 46.54516602 C4.00320114 47.83850609 4.00320114 47.83850609 4.00198364 49.15797424 C3.875 51.125 3.875 51.125 2.875 52.125 C-0.0625 52.3125 -0.0625 52.3125 -3.125 52.125 C-5.60065035 49.64934965 -5.37734962 48.93194267 -5.38378906 45.5234375 C-5.39009338 44.56904785 -5.39639771 43.6146582 -5.40289307 42.63134766 C-5.3988446 41.59800293 -5.39479614 40.5646582 -5.390625 39.5 C-5.39253845 38.44216309 -5.3944519 37.38432617 -5.39642334 36.29443359 C-5.39778602 34.05501061 -5.39408382 31.81557974 -5.38574219 29.57617188 C-5.37504402 26.13914323 -5.38563488 22.7026373 -5.3984375 19.265625 C-5.39711592 17.09374884 -5.39455356 14.92187301 -5.390625 12.75 C-5.39669769 11.19998291 -5.39669769 11.19998291 -5.40289307 9.61865234 C-5.39658875 8.6642627 -5.39028442 7.70987305 -5.38378906 6.7265625 C-5.38219788 5.88432129 -5.38060669 5.04208008 -5.37896729 4.17431641 C-4.92398653 0.50297923 -3.51324178 0.14052967 0 0 Z " fill="#F5DBAD" transform="translate(287.125,176.875)"/>
<path d="M0 0 C2.5 0.25 2.5 0.25 4.5 2.25 C4.74723816 4.3440094 4.74723816 4.3440094 4.74291992 6.95922852 C4.74599655 7.93686661 4.74907318 8.9145047 4.75224304 9.92176819 C4.74505753 10.98012375 4.73787201 12.03847931 4.73046875 13.12890625 C4.72978142 14.7525132 4.72978142 14.7525132 4.7290802 16.40892029 C4.72605559 18.69962661 4.71816309 20.99033084 4.70581055 23.28100586 C4.68755785 26.80134303 4.68530078 30.32141734 4.68554688 33.84179688 C4.68063175 36.06250229 4.67480346 38.28320591 4.66796875 40.50390625 C4.66685593 41.56428604 4.6657431 42.62466583 4.66459656 43.71717834 C4.65821671 44.69166428 4.65183685 45.66615021 4.64526367 46.67016602 C4.64145187 47.53239273 4.63764008 48.39461945 4.63371277 49.28297424 C4.5 51.25 4.5 51.25 3.5 52.25 C0.5625 52.4375 0.5625 52.4375 -2.5 52.25 C-4.97565035 49.77434965 -4.75234962 49.05694267 -4.75878906 45.6484375 C-4.76509338 44.69404785 -4.77139771 43.7396582 -4.77789307 42.75634766 C-4.7738446 41.72300293 -4.76979614 40.6896582 -4.765625 39.625 C-4.76753845 38.56716309 -4.7694519 37.50932617 -4.77142334 36.41943359 C-4.77278602 34.18001061 -4.76908382 31.94057974 -4.76074219 29.70117188 C-4.75004402 26.26414323 -4.76063488 22.8276373 -4.7734375 19.390625 C-4.77211592 17.21874884 -4.76955356 15.04687301 -4.765625 12.875 C-4.77169769 11.32498291 -4.77169769 11.32498291 -4.77789307 9.74365234 C-4.77158875 8.7892627 -4.76528442 7.83487305 -4.75878906 6.8515625 C-4.75719788 6.00932129 -4.75560669 5.16708008 -4.75396729 4.29931641 C-4.3516549 1.05297163 -3.16589597 0.3165896 0 0 Z " fill="#F5DBAE" transform="translate(264.5,176.75)"/>
<path d="M0 0 C2.5 0.25 2.5 0.25 4.5 2.25 C4.75396729 4.29931641 4.75396729 4.29931641 4.75878906 6.8515625 C4.76509338 7.80595215 4.77139771 8.7603418 4.77789307 9.74365234 C4.7738446 10.77699707 4.76979614 11.8103418 4.765625 12.875 C4.76753845 13.93283691 4.7694519 14.99067383 4.77142334 16.08056641 C4.77278602 18.31998939 4.76908382 20.55942026 4.76074219 22.79882812 C4.75004402 26.23585677 4.76063488 29.6723627 4.7734375 33.109375 C4.77211592 35.28125116 4.76955356 37.45312699 4.765625 39.625 C4.76967346 40.65834473 4.77372192 41.69168945 4.77789307 42.75634766 C4.77158875 43.7107373 4.76528442 44.66512695 4.75878906 45.6484375 C4.75640228 46.91179932 4.75640228 46.91179932 4.75396729 48.20068359 C4.5 50.25 4.5 50.25 2.5 52.25 C-0.625 52.375 -0.625 52.375 -3.5 52.25 C-4.70144213 49.84711573 -4.63312026 48.33160248 -4.64526367 45.6484375 C-4.65164352 44.69404785 -4.65802338 43.7396582 -4.66459656 42.75634766 C-4.66570938 41.72300293 -4.6668222 40.6896582 -4.66796875 39.625 C-4.67129715 38.56716309 -4.67462555 37.50932617 -4.67805481 36.41943359 C-4.68312356 34.18001745 -4.68546315 31.94059375 -4.68530273 29.70117188 C-4.68749096 26.26419734 -4.70565216 22.82754276 -4.72460938 19.390625 C-4.72754288 17.2187511 -4.72952796 15.04687567 -4.73046875 12.875 C-4.73765427 11.84165527 -4.74483978 10.80831055 -4.75224304 9.74365234 C-4.74916641 8.7892627 -4.74608978 7.83487305 -4.74291992 6.8515625 C-4.74434494 6.00932129 -4.74576996 5.16708008 -4.74723816 4.29931641 C-4.35531329 1.05071565 -3.16489292 0.31648929 0 0 Z " fill="#E9F8E5" transform="translate(441.5,176.75)"/>
<path d="M0 0 C2.5 0.25 2.5 0.25 4.5 2.25 C4.75396729 4.29931641 4.75396729 4.29931641 4.75878906 6.8515625 C4.76509338 7.80595215 4.77139771 8.7603418 4.77789307 9.74365234 C4.7738446 10.77699707 4.76979614 11.8103418 4.765625 12.875 C4.76753845 13.93283691 4.7694519 14.99067383 4.77142334 16.08056641 C4.77278602 18.31998939 4.76908382 20.55942026 4.76074219 22.79882812 C4.75004402 26.23585677 4.76063488 29.6723627 4.7734375 33.109375 C4.77211592 35.28125116 4.76955356 37.45312699 4.765625 39.625 C4.76967346 40.65834473 4.77372192 41.69168945 4.77789307 42.75634766 C4.77158875 43.7107373 4.76528442 44.66512695 4.75878906 45.6484375 C4.75640228 46.91179932 4.75640228 46.91179932 4.75396729 48.20068359 C4.5 50.25 4.5 50.25 2.5 52.25 C-0.625 52.375 -0.625 52.375 -3.5 52.25 C-4.70144213 49.84711573 -4.63312026 48.33160248 -4.64526367 45.6484375 C-4.65164352 44.69404785 -4.65802338 43.7396582 -4.66459656 42.75634766 C-4.66570938 41.72300293 -4.6668222 40.6896582 -4.66796875 39.625 C-4.67129715 38.56716309 -4.67462555 37.50932617 -4.67805481 36.41943359 C-4.68312356 34.18001745 -4.68546315 31.94059375 -4.68530273 29.70117188 C-4.68749096 26.26419734 -4.70565216 22.82754276 -4.72460938 19.390625 C-4.72754288 17.2187511 -4.72952796 15.04687567 -4.73046875 12.875 C-4.73765427 11.84165527 -4.74483978 10.80831055 -4.75224304 9.74365234 C-4.74916641 8.7892627 -4.74608978 7.83487305 -4.74291992 6.8515625 C-4.74434494 6.00932129 -4.74576996 5.16708008 -4.74723816 4.29931641 C-4.35531329 1.05071565 -3.16489292 0.31648929 0 0 Z " fill="#E9F8E4" transform="translate(419.5,176.75)"/>
<path d="M0 0 C3 0.125 3 0.125 4 1.125 C4.09846967 2.68499048 4.12798618 4.24940544 4.12939453 5.8125 C4.13254669 6.81023437 4.13569885 7.80796875 4.13894653 8.8359375 C4.1369223 9.92132813 4.13489807 11.00671875 4.1328125 12.125 C4.13376923 13.23101562 4.13472595 14.33703125 4.13571167 15.4765625 C4.13639367 17.82031308 4.13453804 20.16406553 4.13037109 22.5078125 C4.12502314 26.10941788 4.13031547 29.71089853 4.13671875 33.3125 C4.13605797 35.58333361 4.13477682 37.85416714 4.1328125 40.125 C4.13483673 41.21039063 4.13686096 42.29578125 4.13894653 43.4140625 C4.13579437 44.41179687 4.13264221 45.40953125 4.12939453 46.4375 C4.12820114 47.76201172 4.12820114 47.76201172 4.12698364 49.11328125 C4 51.125 4 51.125 3 52.125 C0 52.25 0 52.25 -3 52.125 C-4.62754644 50.49745356 -4.12737077 48.68361677 -4.12939453 46.4375 C-4.13254669 45.43976563 -4.13569885 44.44203125 -4.13894653 43.4140625 C-4.1369223 42.32867187 -4.13489807 41.24328125 -4.1328125 40.125 C-4.13376923 39.01898438 -4.13472595 37.91296875 -4.13571167 36.7734375 C-4.13639367 34.42968692 -4.13453804 32.08593447 -4.13037109 29.7421875 C-4.12502314 26.14058212 -4.13031547 22.53910147 -4.13671875 18.9375 C-4.13605797 16.66666639 -4.13477682 14.39583286 -4.1328125 12.125 C-4.13483673 11.03960937 -4.13686096 9.95421875 -4.13894653 8.8359375 C-4.13579437 7.83820313 -4.13264221 6.84046875 -4.12939453 5.8125 C-4.12859894 4.92949219 -4.12780334 4.04648438 -4.12698364 3.13671875 C-3.9197166 -0.14687735 -3.35325808 0.13971909 0 0 Z " fill="#F5DDB2" transform="translate(331,176.875)"/>
<path d="M0 0 C3 0.125 3 0.125 4 1.125 C4.09846967 2.68499048 4.12798618 4.24940544 4.12939453 5.8125 C4.13254669 6.81023437 4.13569885 7.80796875 4.13894653 8.8359375 C4.1369223 9.92132813 4.13489807 11.00671875 4.1328125 12.125 C4.13376923 13.23101562 4.13472595 14.33703125 4.13571167 15.4765625 C4.13639367 17.82031308 4.13453804 20.16406553 4.13037109 22.5078125 C4.12502314 26.10941788 4.13031547 29.71089853 4.13671875 33.3125 C4.13605797 35.58333361 4.13477682 37.85416714 4.1328125 40.125 C4.13483673 41.21039063 4.13686096 42.29578125 4.13894653 43.4140625 C4.13579437 44.41179687 4.13264221 45.40953125 4.12939453 46.4375 C4.12820114 47.76201172 4.12820114 47.76201172 4.12698364 49.11328125 C4 51.125 4 51.125 3 52.125 C0 52.25 0 52.25 -3 52.125 C-4.62754644 50.49745356 -4.12737077 48.68361677 -4.12939453 46.4375 C-4.13254669 45.43976563 -4.13569885 44.44203125 -4.13894653 43.4140625 C-4.1369223 42.32867187 -4.13489807 41.24328125 -4.1328125 40.125 C-4.13376923 39.01898438 -4.13472595 37.91296875 -4.13571167 36.7734375 C-4.13639367 34.42968692 -4.13453804 32.08593447 -4.13037109 29.7421875 C-4.12502314 26.14058212 -4.13031547 22.53910147 -4.13671875 18.9375 C-4.13605797 16.66666639 -4.13477682 14.39583286 -4.1328125 12.125 C-4.13483673 11.03960937 -4.13686096 9.95421875 -4.13894653 8.8359375 C-4.13579437 7.83820313 -4.13264221 6.84046875 -4.12939453 5.8125 C-4.12859894 4.92949219 -4.12780334 4.04648438 -4.12698364 3.13671875 C-3.9197166 -0.14687735 -3.35325808 0.13971909 0 0 Z " fill="#F5DDB2" transform="translate(309,176.875)"/>
<path d="M0 0 C4.55555556 0.55555556 4.55555556 0.55555556 6 2 C6.10358779 3.52386231 6.13851138 5.05246986 6.14526367 6.57983398 C6.15164352 7.55431992 6.15802338 8.52880585 6.16459656 9.53282166 C6.16570938 10.59320145 6.1668222 11.65358124 6.16796875 12.74609375 C6.17129715 13.82754166 6.17462555 14.90898956 6.17805481 16.02320862 C6.18312877 18.31567966 6.18546299 20.60815812 6.18530273 22.90063477 C6.18748845 26.41890567 6.20563728 29.93686281 6.22460938 33.45507812 C6.22754328 35.67708225 6.22952809 37.89908788 6.23046875 40.12109375 C6.23765427 41.17944931 6.24483978 42.23780487 6.25224304 43.32823181 C6.24916641 44.3058699 6.24608978 45.283508 6.24291992 46.29077148 C6.24434494 47.15379379 6.24576996 48.0168161 6.24723816 48.9059906 C6 51 6 51 4 53 C-0.55555556 52.44444444 -0.55555556 52.44444444 -2 51 C-2.10358779 49.47613769 -2.13851138 47.94753014 -2.14526367 46.42016602 C-2.15164352 45.44568008 -2.15802338 44.47119415 -2.16459656 43.46717834 C-2.16570938 42.40679855 -2.1668222 41.34641876 -2.16796875 40.25390625 C-2.17129715 39.17245834 -2.17462555 38.09101044 -2.17805481 36.97679138 C-2.18312877 34.68432034 -2.18546299 32.39184188 -2.18530273 30.09936523 C-2.18748845 26.58109433 -2.20563728 23.06313719 -2.22460938 19.54492188 C-2.22754328 17.32291775 -2.22952809 15.10091212 -2.23046875 12.87890625 C-2.23765427 11.82055069 -2.24483978 10.76219513 -2.25224304 9.67176819 C-2.24916641 8.6941301 -2.24608978 7.716492 -2.24291992 6.70922852 C-2.24434494 5.84620621 -2.24576996 4.9831839 -2.24723816 4.0940094 C-2 2 -2 2 0 0 Z " fill="#EFB8AE" transform="translate(329,97)"/>
<path d="M0 0 C4.55555556 0.55555556 4.55555556 0.55555556 6 2 C6.10358779 3.52386231 6.13851138 5.05246986 6.14526367 6.57983398 C6.15164352 7.55431992 6.15802338 8.52880585 6.16459656 9.53282166 C6.16570938 10.59320145 6.1668222 11.65358124 6.16796875 12.74609375 C6.17129715 13.82754166 6.17462555 14.90898956 6.17805481 16.02320862 C6.18312877 18.31567966 6.18546299 20.60815812 6.18530273 22.90063477 C6.18748845 26.41890567 6.20563728 29.93686281 6.22460938 33.45507812 C6.22754328 35.67708225 6.22952809 37.89908788 6.23046875 40.12109375 C6.23765427 41.17944931 6.24483978 42.23780487 6.25224304 43.32823181 C6.24916641 44.3058699 6.24608978 45.283508 6.24291992 46.29077148 C6.24434494 47.15379379 6.24576996 48.0168161 6.24723816 48.9059906 C6 51 6 51 4 53 C-0.55555556 52.44444444 -0.55555556 52.44444444 -2 51 C-2.10358779 49.47613769 -2.13851138 47.94753014 -2.14526367 46.42016602 C-2.15164352 45.44568008 -2.15802338 44.47119415 -2.16459656 43.46717834 C-2.16570938 42.40679855 -2.1668222 41.34641876 -2.16796875 40.25390625 C-2.17129715 39.17245834 -2.17462555 38.09101044 -2.17805481 36.97679138 C-2.18312877 34.68432034 -2.18546299 32.39184188 -2.18530273 30.09936523 C-2.18748845 26.58109433 -2.20563728 23.06313719 -2.22460938 19.54492188 C-2.22754328 17.32291775 -2.22952809 15.10091212 -2.23046875 12.87890625 C-2.23765427 11.82055069 -2.24483978 10.76219513 -2.25224304 9.67176819 C-2.24916641 8.6941301 -2.24608978 7.716492 -2.24291992 6.70922852 C-2.24434494 5.84620621 -2.24576996 4.9831839 -2.24723816 4.0940094 C-2 2 -2 2 0 0 Z " fill="#EFB8AE" transform="translate(307,97)"/>
<path d="M0 0 C0.66 0.33 1.32 0.66 2 1 C1.01 1.33 0.02 1.66 -1 2 C-2.78550058 9.14200233 -2.77560612 14.80418079 0.7890625 21.23828125 C3.24025576 24.80437209 5.94961159 26.64987053 10 28 C11.89470816 28.0685495 13.7916834 28.08480372 15.6875 28.0625 C16.68136719 28.05347656 17.67523438 28.04445313 18.69921875 28.03515625 C19.45847656 28.02355469 20.21773438 28.01195312 21 28 C17.05916699 32.15385101 14.56498101 34.11028406 8.8125 34.375 C3.48725066 34.31428869 0.03785611 32.35269953 -4 29 C-8.57820608 24.06962422 -9.35756328 20.11417636 -9.28125 13.5703125 C-8.70452972 8.29972995 -6.20380022 5.06700474 -2.25 1.5625 C-1.5075 1.046875 -0.765 0.53125 0 0 Z " fill="#F9DAD6" transform="translate(415,262)"/>
<path d="M0 0 C0.66 0.33 1.32 0.66 2 1 C1.01 1.33 0.02 1.66 -1 2 C-2.79682258 6.64441861 -2.50949674 12.12439928 -2 17 C0.45567552 22.00230198 3.9970307 25.49851535 9 28 C11.04055005 28.07065617 13.08334257 28.08421976 15.125 28.0625 C16.22070312 28.05347656 17.31640625 28.04445313 18.4453125 28.03515625 C19.28835938 28.02355469 20.13140625 28.01195312 21 28 C16.81923764 32.32129219 14.19395381 33.78768189 8.125 34.375 C2.89872795 34.21752288 -0.86930076 32.15822766 -4.51171875 28.46875 C-9.03492801 23.18087212 -9.34645839 19.79865207 -9.28125 12.984375 C-8.77360473 7.59769461 -6.19862747 5.03517827 -2.25 1.625 C-1.5075 1.08875 -0.765 0.5525 0 0 Z " fill="#F9DBD7" transform="translate(327,262)"/>
<path d="M0 0 C0.66 0.33 1.32 0.66 2 1 C1.01 1.33 0.02 1.66 -1 2 C-3.05482365 7.37599212 -2.69040783 13.96713251 -0.875 19.3125 C2.4168859 24.03086979 4.65816991 26.46193666 10.28125 27.75390625 C13.51772494 28.25696703 16.74108827 28.6760429 20 29 C16.36044737 32.80640891 13.46716343 33.83163698 8.1875 34.4375 C3.22710939 34.30622312 -0.22646629 32.0707026 -4 29 C-8.81716971 23.81227878 -9.35377902 19.59868729 -9.28125 12.7265625 C-8.74592205 7.53685547 -6.05345349 4.90980074 -2.25 1.625 C-1.5075 1.08875 -0.765 0.5525 0 0 Z " fill="#F9DBD7" transform="translate(371,262)"/>
</svg>
