<?xml version="1.0" encoding="UTF-8"?>
<svg version="1.1" xmlns="http://www.w3.org/2000/svg" width="512" height="512">
<path d="M0 0 C1.22814926 -0.00960754 2.45629852 -0.01921509 3.72166443 -0.02911377 C5.06322036 -0.0339612 6.40477845 -0.03824016 7.74633789 -0.04199219 C9.12252301 -0.04774576 10.49870811 -0.05350346 11.87489319 -0.05926514 C14.75904717 -0.0697641 17.64317336 -0.07561428 20.52734375 -0.07910156 C24.22072915 -0.08459026 27.91374664 -0.10863046 31.60701656 -0.13707352 C34.44919405 -0.15570603 37.29128291 -0.16090576 40.13351631 -0.16243744 C41.49507221 -0.16546211 42.85662661 -0.17348446 44.21812248 -0.18662262 C46.12320526 -0.20369715 48.02844012 -0.199956 49.93359375 -0.1953125 C51.01708603 -0.19895813 52.10057831 -0.20260376 53.21690369 -0.20635986 C56.38945468 0.20787065 57.76239121 0.93973315 60.03149414 3.16113281 C60.54907227 5.38183594 60.54907227 5.38183594 60.56274414 7.94238281 C60.57047852 9.32876953 60.57047852 9.32876953 60.57836914 10.74316406 C60.56290039 11.70609375 60.54743164 12.66902344 60.53149414 13.66113281 C60.55469727 15.10552734 60.55469727 15.10552734 60.57836914 16.57910156 C60.57321289 17.50335938 60.56805664 18.42761719 60.56274414 19.37988281 C60.55823242 20.22486328 60.5537207 21.06984375 60.54907227 21.94042969 C60.03149414 24.16113281 60.03149414 24.16113281 58.51477051 25.78820801 C54.99843073 27.73228084 51.68366548 27.48307158 47.78149414 27.34863281 C47.03641602 27.33509766 46.29133789 27.3215625 45.52368164 27.30761719 C43.69263998 27.27240485 41.86197245 27.21860132 40.03149414 27.16113281 C40.02319545 37.65340276 40.04696742 48.14506168 40.11177254 58.63714981 C40.14085448 63.50904369 40.15885539 68.38045536 40.15161133 73.25244141 C40.14502759 77.95363838 40.16744803 82.65388167 40.21004868 87.35488129 C40.22119705 89.14900061 40.22186443 90.94321645 40.21191788 92.73734283 C40.1997734 95.24978331 40.22476924 97.75930012 40.25854492 100.27148438 C40.24021355 101.38602745 40.24021355 101.38602745 40.22151184 102.52308655 C40.21420106 104.87147262 40.21420106 104.87147262 41.03149414 108.16113281 C43.85619808 110.61942979 43.85619808 110.61942979 47.03149414 112.16113281 C50.31977772 115.22263822 50.75314163 118.5904728 51.09399414 122.91503906 C50.96176509 127.66702058 48.86938857 130.3651331 45.53149414 133.53613281 C43.03149414 135.16113281 43.03149414 135.16113281 40.03149414 135.16113281 C41.79442425 141.17583553 43.54903521 143.95891821 48.44555664 147.80175781 C51.70948451 150.59941027 51.9695024 153.47922371 52.34399414 157.59863281 C51.93297727 162.28422509 50.46893524 165.43620349 47.46899414 169.03613281 C46.03149414 170.16113281 46.03149414 170.16113281 44.03149414 170.16113281 C47.87482862 174.58529276 51.74802031 178.98187897 55.65649414 183.34863281 C56.40930664 184.19167969 57.16211914 185.03472656 57.93774414 185.90332031 C59.61488371 187.71187753 61.31233036 189.34462148 63.15649414 190.97363281 C65.03149414 193.16113281 65.03149414 193.16113281 64.84399414 195.97363281 C64.57586914 196.69550781 64.30774414 197.41738281 64.03149414 198.16113281 C60.08077848 197.64340304 58.14281769 196.76764144 55.36743164 193.92285156 C54.72032227 193.26736328 54.07321289 192.611875 53.40649414 191.93652344 C52.74649414 191.24751953 52.08649414 190.55851563 51.40649414 189.84863281 C50.73875977 189.17123047 50.07102539 188.49382812 49.38305664 187.79589844 C46.33848941 184.68130616 43.65726501 181.66216063 41.03149414 178.16113281 C40.70149414 194.00113281 40.37149414 209.84113281 40.03149414 226.16113281 C38.38149414 226.16113281 36.73149414 226.16113281 35.03149414 226.16113281 C34.03149414 225.16113281 34.03149414 225.16113281 33.91123962 223.02879333 C33.91346024 222.08947464 33.91568085 221.15015594 33.91796875 220.18237305 C33.91804428 219.12134872 33.91811981 218.0603244 33.91819763 216.96714783 C33.92335892 215.81299881 33.9285202 214.65884979 33.93383789 213.46972656 C33.93596031 211.70726341 33.93596031 211.70726341 33.93812561 209.90919495 C33.94374422 206.13898217 33.95629988 202.36882778 33.96899414 198.59863281 C33.97400674 196.04980554 33.97857006 193.50097735 33.98266602 190.95214844 C33.9937197 184.68845649 34.01047593 178.42479882 34.03149414 172.16113281 C33.09950195 171.88527344 32.16750977 171.60941406 31.20727539 171.32519531 C27.25949885 169.87816283 25.00093828 167.81413404 23.03149414 164.16113281 C22.36277677 161.42725885 22.1780185 158.99393706 22.03149414 156.16113281 C23.90649414 155.09863281 23.90649414 155.09863281 26.03149414 154.16113281 C28.03149414 155.16113281 28.03149414 155.16113281 28.77758789 156.93847656 C29.23752762 158.37546339 29.69586851 159.81296297 30.15258789 161.25097656 C30.99109316 163.51265134 30.99109316 163.51265134 34.03149414 165.16113281 C37.66276681 165.62469954 39.35117283 165.6575835 42.34399414 163.47363281 C44.25828042 160.85035161 44.95227789 159.40899902 45.03149414 156.16113281 C43.63664757 152.9839823 42.27895459 151.35291466 39.53149414 149.22363281 C36.5469246 146.76136294 35.40129776 144.76587918 34.03149414 141.16113281 C33.84399414 137.78613281 33.84399414 137.78613281 34.03149414 135.16113281 C33.30961914 135.11988281 32.58774414 135.07863281 31.84399414 135.03613281 C27.9506167 133.82485983 25.92688842 131.66032225 24.03149414 128.16113281 C22.72346506 123.69469204 22.6574507 120.26248295 24.15649414 115.84863281 C26.58363829 112.3697262 29.23907934 110.05734021 33.03149414 108.16113281 C33.52649414 68.06613281 33.52649414 68.06613281 34.03149414 27.16113281 C24.13149414 27.65613281 24.13149414 27.65613281 14.03149414 28.16113281 C11.45856299 34.11519895 11.45856299 34.11519895 9.63034058 40.13996887 C9.39521255 41.0680838 9.16008453 41.99619873 8.91783142 42.95243835 C8.54846214 44.44756706 8.54846214 44.44756706 8.17163086 45.97290039 C7.76837837 47.57500366 7.76837837 47.57500366 7.35697937 49.20947266 C6.46964964 52.74020703 5.5904916 56.2729247 4.71118164 59.80566406 C4.08741402 62.29267974 3.46306492 64.77954964 2.83816528 67.26628113 C1.35737594 73.16377196 -0.11854264 79.06246036 -1.5917815 84.96184129 C-4.66984371 97.28689831 -7.76007045 109.6089085 -10.85131836 121.93066406 C-11.31867779 123.79502798 -11.31867779 123.79502798 -11.79547882 125.69705582 C-16.69365741 145.22847446 -21.71115464 164.72317984 -26.96850586 184.16113281 C-26.02698669 184.12006912 -25.08546753 184.07900543 -24.11541748 184.03669739 C-20.96850586 184.16113281 -20.96850586 184.16113281 -18.61791992 186.15209961 C-16.54173247 189.93969735 -16.46058081 193.10246004 -16.57788086 197.30566406 C-16.58354065 198.0754509 -16.58920044 198.84523773 -16.59503174 199.63835144 C-16.61732714 202.08409224 -16.66750711 204.52833892 -16.71850586 206.97363281 C-16.73857986 208.63702303 -16.75682906 210.30043634 -16.77319336 211.96386719 C-16.81716902 216.03019339 -16.88614607 220.09541025 -16.96850586 224.16113281 C-16.03264648 224.35642578 -16.03264648 224.35642578 -15.07788086 224.55566406 C-12.96850586 225.16113281 -12.96850586 225.16113281 -11.21850586 226.84863281 C-9.57927412 229.88121153 -9.70552393 231.72797186 -9.96850586 235.16113281 C-11.11083984 238.29467773 -11.11083984 238.29467773 -12.71459961 241.64160156 C-13.00118942 242.24831192 -13.28777924 242.85502228 -13.58305359 243.4801178 C-14.5128968 245.44182758 -15.45882905 247.39524123 -16.40600586 249.34863281 C-17.05064955 250.69617187 -17.69436266 252.04415649 -18.3371582 253.39257812 C-19.30108588 255.41288364 -20.26638883 257.43245249 -21.23687744 259.44961548 C-23.12555702 263.3760937 -24.9674288 267.31908404 -26.76147461 271.29003906 C-27.16245361 272.16958252 -27.56343262 273.04912598 -27.9765625 273.95532227 C-28.70192814 275.55017537 -29.41906158 277.14880775 -30.12646484 278.75170898 C-32.47057319 283.83149097 -32.47057319 283.83149097 -35.21069336 285.64550781 C-36.08081055 285.90074219 -36.08081055 285.90074219 -36.96850586 286.16113281 C-37.30908054 289.15252928 -37.30908054 289.15252928 -35.50756836 290.73144531 C-34.87592773 291.24449219 -34.24428711 291.75753906 -33.59350586 292.28613281 C-32.6537793 293.0634375 -32.6537793 293.0634375 -31.69506836 293.85644531 C-28.31216572 296.41275636 -25.56889447 296.60972856 -21.41381836 296.58300781 C-17.05621933 295.83121756 -14.22433729 292.99103508 -10.96850586 290.16113281 C-6.67807846 286.970815 -2.28655355 285.80348633 3.03149414 286.16113281 C6.07765799 287.03829365 9.05591893 288.07008857 12.03149414 289.16113281 C12.02625732 288.30583984 12.02102051 287.45054687 12.015625 286.56933594 C11.96526637 277.09936336 11.96778174 267.63100035 12.03149414 258.16113281 C12.04019531 256.70489502 12.04019531 256.70489502 12.04907227 255.21923828 C12.07529527 253.00994981 12.135376 250.80637244 12.21899414 248.59863281 C12.25379883 247.46296875 12.28860352 246.32730469 12.32446289 245.15722656 C13.24823922 241.24266057 14.90422217 238.62579758 18.03149414 236.16113281 C20.85682345 235.16173935 23.11361984 234.60712455 26.03149414 234.16113281 C27.00038574 233.9906543 27.96927734 233.82017578 28.9675293 233.64453125 C32.25535092 233.07713059 35.54772781 232.55207015 38.84399414 232.03613281 C40.54072266 231.76349609 40.54072266 231.76349609 42.27172852 231.48535156 C50.63023709 230.16113281 50.63023709 230.16113281 54.03149414 230.16113281 C54.24805664 229.3915625 54.46461914 228.62199219 54.68774414 227.82910156 C56.53009611 222.80012338 59.02210922 218.19812594 61.53149414 213.47363281 C62.06033203 212.46937256 62.58916992 211.4651123 63.1340332 210.43041992 C64.22489801 208.35983318 65.31768275 206.29025683 66.41235352 204.22167969 C67.96199778 201.29249687 69.50581631 198.36033684 71.04711914 195.42675781 C73.37149826 191.00290028 75.70018259 186.58134078 78.03149414 182.16113281 C77.10208008 181.8659375 76.17266602 181.57074219 75.21508789 181.26660156 C71.64830047 180.02807293 69.55305602 178.98833856 67.03149414 176.16113281 C67.22306033 170.09231579 69.52653077 165.6027432 72.40649414 160.34863281 C72.80610352 159.58615234 73.20571289 158.82367188 73.61743164 158.03808594 C76.63445622 152.42582476 76.63445622 152.42582476 80.03149414 150.16113281 C86.91255735 150.29791236 92.98521273 154.61197871 98.86352539 157.83105469 C99.7259082 158.28416016 100.58829102 158.73726562 101.47680664 159.20410156 C102.25556152 159.62715576 103.03431641 160.05020996 103.83666992 160.48608398 C106.03252792 161.40010852 106.03252792 161.40010852 108.17260742 160.40332031 C110.58789607 158.78932128 112.64899737 156.94653189 114.78149414 154.97363281 C115.66063477 154.16925781 116.53977539 153.36488281 117.44555664 152.53613281 C118.29891602 151.75238281 119.15227539 150.96863281 120.03149414 150.16113281 C122.66480058 147.78636918 125.33043618 145.45839625 128.03149414 143.16113281 C129.0350293 142.26974609 129.0350293 142.26974609 130.05883789 141.36035156 C133.38888491 138.57998601 135.10233271 137.19431715 139.53149414 137.03613281 C143.62172171 138.35084882 147.28700374 140.07005376 151.03149414 142.16113281 C151.29704102 141.31292969 151.56258789 140.46472656 151.83618164 139.59082031 C153.0758988 136.03372335 154.5563203 132.69519882 156.15649414 129.28613281 C156.96473633 127.5575 156.96473633 127.5575 157.78930664 125.79394531 C158.19922852 124.92511719 158.60915039 124.05628906 159.03149414 123.16113281 C158.15211182 122.88567627 157.27272949 122.61021973 156.36669922 122.32641602 C151.2048208 120.52291366 146.52935525 117.92683673 141.71899414 115.34863281 C140.19822266 114.56649414 140.19822266 114.56649414 138.64672852 113.76855469 C137.20330078 112.99415039 137.20330078 112.99415039 135.73071289 112.20410156 C134.8524585 111.74028076 133.9742041 111.27645996 133.06933594 110.79858398 C131.03149414 109.16113281 131.03149414 109.16113281 130.13232422 106.60766602 C130.03149414 104.16113281 130.03149414 104.16113281 131.71899414 101.97363281 C134.03149414 100.16113281 134.03149414 100.16113281 136.12915039 99.43066406 C138.35099827 98.2667667 138.35099827 98.2667667 138.64086914 95.34082031 C138.68727539 94.25027344 138.73368164 93.15972656 138.78149414 92.03613281 C138.83821289 90.94042969 138.89493164 89.84472656 138.95336914 88.71582031 C138.97915039 87.87277344 139.00493164 87.02972656 139.03149414 86.16113281 C144.61353138 84.93779316 147.46360522 85.3329201 152.48071289 88.02050781 C153.06061478 88.32555237 153.64051666 88.63059692 154.23799133 88.94488525 C156.074559 89.91680805 157.89619459 90.9136745 159.71899414 91.91113281 C160.95317161 92.56637946 162.18819207 93.22004091 163.42407227 93.87207031 C173.03921659 98.99038822 173.03921659 98.99038822 177.03149414 102.16113281 C176.41423847 106.15011347 175.1515273 109.28347676 173.33618164 112.87988281 C172.78792725 113.97187988 172.23967285 115.06387695 171.67480469 116.18896484 C171.09126221 117.33478027 170.50771973 118.4805957 169.90649414 119.66113281 C169.31843994 120.82628418 168.73038574 121.99143555 168.12451172 123.19189453 C164.21363894 130.91431634 160.24207663 138.59739555 156.03149414 146.16113281 C156.96348633 146.46019531 157.89547852 146.75925781 158.85571289 147.06738281 C166.25957735 149.61729923 166.25957735 149.61729923 168.03149414 153.16113281 C168.34205082 160.69989613 167.4640697 168.00042597 166.53149414 175.47363281 C166.24821458 177.7819784 165.96687976 180.09056371 165.68774414 182.39941406 C165.49921875 183.91595581 165.49921875 183.91595581 165.30688477 185.46313477 C164.96379774 188.37235072 164.96379774 188.37235072 165.03149414 192.16113281 C165.682229 192.46817139 166.33296387 192.77520996 167.00341797 193.09155273 C169.957602 194.49573286 172.90066781 195.92184301 175.84399414 197.34863281 C177.38023437 198.07276367 177.38023437 198.07276367 178.94750977 198.81152344 C179.93041992 199.29169922 180.91333008 199.771875 181.92602539 200.26660156 C182.83199463 200.70125732 183.73796387 201.13591309 184.67138672 201.58374023 C187.4570898 203.44558233 188.59357398 205.15901284 190.03149414 208.16113281 C189.95463619 213.12274065 186.90667368 217.58157621 184.59399414 221.84863281 C184.18600586 222.62013672 183.77801758 223.39164063 183.35766602 224.18652344 C180.30598897 229.88663798 180.30598897 229.88663798 178.03149414 232.16113281 C173.14767243 232.71611255 170.27876893 231.47782815 166.03149414 229.16113281 C165.37149414 229.16113281 164.71149414 229.16113281 164.03149414 229.16113281 C163.65452393 229.89001709 163.27755371 230.61890137 162.88916016 231.36987305 C161.76281596 233.54694601 160.63580393 235.72367352 159.50830078 237.90014648 C158.22696706 240.3739441 156.94926234 242.84957212 155.67382812 245.32641602 C152.87770873 250.74638331 150.07296304 256.152497 147.06274414 261.45800781 C146.42743774 262.5921814 146.42743774 262.5921814 145.77929688 263.74926758 C145.01477048 265.10336901 144.23408437 266.44853293 143.43408203 267.78198242 C140.63126183 272.78802117 141.07137403 275.73560203 142.03149414 281.16113281 C141.70149414 282.15113281 141.37149414 283.14113281 141.03149414 284.16113281 C141.36149414 284.82113281 141.69149414 285.48113281 142.03149414 286.16113281 C143.73305664 286.06832031 143.73305664 286.06832031 145.46899414 285.97363281 C153.42724727 286.01573997 159.30632917 288.90554429 165.40258789 293.85644531 C168.15977395 296.06483895 169.99949314 296.32014758 173.46899414 296.34863281 C174.25145508 296.3628125 175.03391602 296.37699219 175.84008789 296.39160156 C178.32355401 296.30199345 178.32355401 296.30199345 181.03149414 294.16113281 C183.71899414 294.03613281 183.71899414 294.03613281 186.03149414 294.16113281 C186.65649414 296.03613281 186.65649414 296.03613281 187.03149414 298.16113281 C186.37149414 298.82113281 185.71149414 299.48113281 185.03149414 300.16113281 C184.72661474 302.38928431 184.72661474 302.38928431 184.75805664 304.95800781 C184.73743164 305.91707031 184.71680664 306.87613281 184.69555664 307.86425781 C184.66971636 309.87979961 184.65136747 311.89545272 184.64086914 313.91113281 C184.4949858 319.97339593 184.04476372 323.52407789 180.03149414 328.16113281 C176.11176369 331.71338853 172.53556488 332.28460965 167.36057663 332.29256058 C166.42051262 332.29640172 165.4804486 332.30024287 164.5118978 332.30420041 C163.48234103 332.30333393 162.45278427 332.30246745 161.39202881 332.30157471 C159.74765567 332.30603139 159.74765567 332.30603139 158.07006288 332.31057811 C154.38369636 332.31927423 150.69736229 332.32077413 147.01098633 332.32226562 C144.37316229 332.32689314 141.73534122 332.33189707 139.09751892 332.33731079 C131.92182934 332.35088858 124.74614535 332.35691798 117.57044506 332.36132145 C113.08914001 332.36408483 108.60783711 332.36832237 104.12653351 332.37282562 C91.71693431 332.38501761 79.30733684 332.39531703 66.89773178 332.39870071 C66.10359733 332.39892028 65.30946289 332.39913985 64.49126376 332.39936607 C63.69523883 332.39958434 62.89921389 332.39980262 62.07906699 332.40002751 C60.46604141 332.40047098 58.85301582 332.40091754 57.23999023 332.40136719 C56.43987535 332.40158862 55.63976047 332.40181005 54.81539968 332.40203819 C41.85241371 332.4059857 28.88948397 332.4234386 15.92651972 332.44672671 C2.61480614 332.47044814 -10.69687924 332.48290293 -24.0086143 332.48406863 C-31.48151509 332.48498495 -38.95434261 332.49072642 -46.42722321 332.50888824 C-52.79091622 332.52429993 -59.15451333 332.52940342 -65.51822147 332.52115014 C-68.76380036 332.51724736 -72.00914609 332.51979197 -75.25470924 332.53220749 C-78.77700779 332.54489141 -82.29881096 332.53906897 -85.82110596 332.52862549 C-86.84173984 332.53668189 -87.86237372 332.5447383 -88.9139359 332.55303884 C-94.96045716 332.51111791 -99.4771914 331.75656699 -104.96850586 329.16113281 C-108.70384324 325.33001755 -110.04568741 322.17117793 -110.21459961 316.88769531 C-110.2474707 316.06269531 -110.2803418 315.23769531 -110.31420898 314.38769531 C-110.37512685 312.66125695 -110.43245226 310.93468788 -110.48608398 309.20800781 C-110.673399 304.6700364 -111.2435165 301.38773011 -112.96850586 297.16113281 C-112.82635147 296.46317093 -112.68419708 295.76520905 -112.53773499 295.0460968 C-111.7972704 291.29327816 -111.79140915 287.6004808 -111.76318359 283.79077148 C-111.753284 282.96098785 -111.7433844 282.13120422 -111.73318481 281.27627563 C-111.70169307 278.54391293 -111.67686129 275.81153285 -111.65209961 273.07910156 C-111.63151943 271.18052224 -111.61052268 269.28194738 -111.58912659 267.38337708 C-111.53401579 262.39396799 -111.48455814 257.40451831 -111.4362793 252.41503906 C-111.38598389 247.3206014 -111.33033984 242.22622247 -111.27514648 237.13183594 C-111.1676994 227.14165177 -111.0662247 217.15141654 -110.96850586 207.16113281 C-111.95850586 206.83113281 -112.94850586 206.50113281 -113.96850586 206.16113281 C-113.47350586 204.18113281 -113.47350586 204.18113281 -112.96850586 202.16113281 C-112.30850586 202.16113281 -111.64850586 202.16113281 -110.96850586 202.16113281 C-111.08306267 200.24381363 -111.21056844 198.32726531 -111.34350586 196.41113281 C-111.41311523 195.34378906 -111.48272461 194.27644531 -111.55444336 193.17675781 C-111.94505624 190.33191684 -112.67270291 188.6625959 -113.96850586 186.16113281 C-113.47350586 185.17113281 -113.47350586 185.17113281 -112.96850586 184.16113281 C-112.30850586 184.16113281 -111.64850586 184.16113281 -110.96850586 184.16113281 C-111.06193396 179.35528223 -111.16800245 174.54994187 -111.28588867 169.74462891 C-111.32421438 168.10929041 -111.35906093 166.47386658 -111.39038086 164.83837891 C-111.43595428 162.48992371 -111.49395953 160.14205787 -111.55444336 157.79394531 C-111.57177017 156.69386642 -111.57177017 156.69386642 -111.58944702 155.57156372 C-111.58718683 151.41136176 -111.58718683 151.41136176 -113.96850586 148.16113281 C-114.22729492 146.12988281 -114.22729492 146.12988281 -114.23413086 143.66113281 C-114.23670898 142.77425781 -114.23928711 141.88738281 -114.24194336 140.97363281 C-114.2303418 139.58144531 -114.2303418 139.58144531 -114.21850586 138.16113281 C-114.22624023 137.23300781 -114.23397461 136.30488281 -114.24194336 135.34863281 C-114.23936523 134.46175781 -114.23678711 133.57488281 -114.23413086 132.66113281 C-114.231875 131.84644531 -114.22961914 131.03175781 -114.22729492 130.19238281 C-113.96850586 128.16113281 -113.96850586 128.16113281 -111.96850586 126.16113281 C-109.08607955 125.93648894 -106.30265367 125.83295867 -103.41772461 125.82519531 C-102.56676712 125.81853851 -101.71580963 125.81188171 -100.83906555 125.80502319 C-99.03596155 125.79488696 -97.23281996 125.79020647 -95.4296875 125.79052734 C-92.67701835 125.7861661 -89.92596795 125.74989159 -87.17358398 125.71191406 C-85.42163634 125.70604362 -83.66968108 125.70207575 -81.91772461 125.70019531 C-81.09672775 125.68582428 -80.2757309 125.67145325 -79.42985535 125.65664673 C-75.64558733 125.68673238 -73.36759307 125.95554635 -69.95336914 127.71435547 C-67.30797204 130.97538496 -67.23886049 133.73841989 -67.26147461 137.77050781 C-67.2463533 138.4973175 -67.23123199 139.2241272 -67.21565247 139.97296143 C-67.17279018 142.28600114 -67.16393998 144.59773563 -67.15600586 146.91113281 C-67.13286005 148.48278206 -67.10749451 150.05440029 -67.07983398 151.62597656 C-67.01699751 155.47114392 -66.98465069 159.31549739 -66.96850586 163.16113281 C-66.7660022 162.56392929 -66.56349854 161.96672577 -66.3548584 161.35142517 C-46.94053202 104.09829009 -46.94053202 104.09829009 -37.91894531 77.64160156 C-34.7637384 68.38644075 -31.6169478 59.12858389 -28.49072266 49.86358643 C-26.92725608 45.23083451 -25.36069652 40.59913086 -23.79400635 35.96746826 C-23.04222667 33.74196656 -22.29199369 31.51594172 -21.543396 29.28936768 C-20.50539707 26.2023243 -19.46210996 23.11711412 -18.41772461 20.03222656 C-18.11220169 19.11887039 -17.80667877 18.20551422 -17.49189758 17.26448059 C-13.14224311 4.46534147 -13.14224311 4.46534147 -8.96850586 1.16113281 C-5.74601427 0.08696895 -3.38937912 0.02137505 0 0 Z " fill="#79A2EE" transform="translate(217.968505859375,89.8388671875)"/>
<path d="M0 0 C1.22814926 -0.00960754 2.45629852 -0.01921509 3.72166443 -0.02911377 C5.06322036 -0.0339612 6.40477845 -0.03824016 7.74633789 -0.04199219 C9.12252301 -0.04774576 10.49870811 -0.05350346 11.87489319 -0.05926514 C14.75904717 -0.0697641 17.64317336 -0.07561428 20.52734375 -0.07910156 C24.22072915 -0.08459026 27.91374664 -0.10863046 31.60701656 -0.13707352 C34.44919405 -0.15570603 37.29128291 -0.16090576 40.13351631 -0.16243744 C41.49507221 -0.16546211 42.85662661 -0.17348446 44.21812248 -0.18662262 C46.12320526 -0.20369715 48.02844012 -0.199956 49.93359375 -0.1953125 C51.01708603 -0.19895813 52.10057831 -0.20260376 53.21690369 -0.20635986 C56.38945468 0.20787065 57.76239121 0.93973315 60.03149414 3.16113281 C60.54907227 5.38183594 60.54907227 5.38183594 60.56274414 7.94238281 C60.57047852 9.32876953 60.57047852 9.32876953 60.57836914 10.74316406 C60.56290039 11.70609375 60.54743164 12.66902344 60.53149414 13.66113281 C60.55469727 15.10552734 60.55469727 15.10552734 60.57836914 16.57910156 C60.57321289 17.50335938 60.56805664 18.42761719 60.56274414 19.37988281 C60.55823242 20.22486328 60.5537207 21.06984375 60.54907227 21.94042969 C60.03149414 24.16113281 60.03149414 24.16113281 58.51477051 25.78820801 C54.99843073 27.73228084 51.68366548 27.48307158 47.78149414 27.34863281 C47.03641602 27.33509766 46.29133789 27.3215625 45.52368164 27.30761719 C43.69263998 27.27240485 41.86197245 27.21860132 40.03149414 27.16113281 C40.02319545 37.65340276 40.04696742 48.14506168 40.11177254 58.63714981 C40.14085448 63.50904369 40.15885539 68.38045536 40.15161133 73.25244141 C40.14502759 77.95363838 40.16744803 82.65388167 40.21004868 87.35488129 C40.22119705 89.14900061 40.22186443 90.94321645 40.21191788 92.73734283 C40.1997734 95.24978331 40.22476924 97.75930012 40.25854492 100.27148438 C40.24021355 101.38602745 40.24021355 101.38602745 40.22151184 102.52308655 C40.21420106 104.87147262 40.21420106 104.87147262 41.03149414 108.16113281 C43.85619808 110.61942979 43.85619808 110.61942979 47.03149414 112.16113281 C50.31977772 115.22263822 50.75314163 118.5904728 51.09399414 122.91503906 C50.96176509 127.66702058 48.86938857 130.3651331 45.53149414 133.53613281 C43.03149414 135.16113281 43.03149414 135.16113281 40.03149414 135.16113281 C41.79442425 141.17583553 43.54903521 143.95891821 48.44555664 147.80175781 C51.70948451 150.59941027 51.9695024 153.47922371 52.34399414 157.59863281 C51.93297727 162.28422509 50.46893524 165.43620349 47.46899414 169.03613281 C46.03149414 170.16113281 46.03149414 170.16113281 44.03149414 170.16113281 C47.87482862 174.58529276 51.74802031 178.98187897 55.65649414 183.34863281 C56.40930664 184.19167969 57.16211914 185.03472656 57.93774414 185.90332031 C59.61488371 187.71187753 61.31233036 189.34462148 63.15649414 190.97363281 C65.03149414 193.16113281 65.03149414 193.16113281 64.84399414 195.97363281 C64.57586914 196.69550781 64.30774414 197.41738281 64.03149414 198.16113281 C60.08077848 197.64340304 58.14281769 196.76764144 55.36743164 193.92285156 C54.72032227 193.26736328 54.07321289 192.611875 53.40649414 191.93652344 C52.74649414 191.24751953 52.08649414 190.55851563 51.40649414 189.84863281 C50.73875977 189.17123047 50.07102539 188.49382812 49.38305664 187.79589844 C46.33848941 184.68130616 43.65726501 181.66216063 41.03149414 178.16113281 C40.70149414 194.00113281 40.37149414 209.84113281 40.03149414 226.16113281 C38.38149414 226.16113281 36.73149414 226.16113281 35.03149414 226.16113281 C34.03149414 225.16113281 34.03149414 225.16113281 33.91123962 223.02879333 C33.91346024 222.08947464 33.91568085 221.15015594 33.91796875 220.18237305 C33.91804428 219.12134872 33.91811981 218.0603244 33.91819763 216.96714783 C33.92335892 215.81299881 33.9285202 214.65884979 33.93383789 213.46972656 C33.93596031 211.70726341 33.93596031 211.70726341 33.93812561 209.90919495 C33.94374422 206.13898217 33.95629988 202.36882778 33.96899414 198.59863281 C33.97400674 196.04980554 33.97857006 193.50097735 33.98266602 190.95214844 C33.9937197 184.68845649 34.01047593 178.42479882 34.03149414 172.16113281 C33.09950195 171.88527344 32.16750977 171.60941406 31.20727539 171.32519531 C27.25949885 169.87816283 25.00093828 167.81413404 23.03149414 164.16113281 C22.36277677 161.42725885 22.1780185 158.99393706 22.03149414 156.16113281 C23.90649414 155.09863281 23.90649414 155.09863281 26.03149414 154.16113281 C28.03149414 155.16113281 28.03149414 155.16113281 28.77758789 156.93847656 C29.23752762 158.37546339 29.69586851 159.81296297 30.15258789 161.25097656 C30.99109316 163.51265134 30.99109316 163.51265134 34.03149414 165.16113281 C37.66276681 165.62469954 39.35117283 165.6575835 42.34399414 163.47363281 C44.25828042 160.85035161 44.95227789 159.40899902 45.03149414 156.16113281 C43.63664757 152.9839823 42.27895459 151.35291466 39.53149414 149.22363281 C36.5469246 146.76136294 35.40129776 144.76587918 34.03149414 141.16113281 C33.84399414 137.78613281 33.84399414 137.78613281 34.03149414 135.16113281 C33.30961914 135.11988281 32.58774414 135.07863281 31.84399414 135.03613281 C27.9506167 133.82485983 25.92688842 131.66032225 24.03149414 128.16113281 C22.72346506 123.69469204 22.6574507 120.26248295 24.15649414 115.84863281 C26.58363829 112.3697262 29.23907934 110.05734021 33.03149414 108.16113281 C33.52649414 68.06613281 33.52649414 68.06613281 34.03149414 27.16113281 C24.13149414 27.65613281 24.13149414 27.65613281 14.03149414 28.16113281 C11.45856299 34.11519895 11.45856299 34.11519895 9.63034058 40.13996887 C9.39521255 41.0680838 9.16008453 41.99619873 8.91783142 42.95243835 C8.54846214 44.44756706 8.54846214 44.44756706 8.17163086 45.97290039 C7.76837837 47.57500366 7.76837837 47.57500366 7.35697937 49.20947266 C6.46964964 52.74020703 5.5904916 56.2729247 4.71118164 59.80566406 C4.08741402 62.29267974 3.46306492 64.77954964 2.83816528 67.26628113 C1.35737594 73.16377196 -0.11854264 79.06246036 -1.5917815 84.96184129 C-4.66984371 97.28689831 -7.76007045 109.6089085 -10.85131836 121.93066406 C-11.31867779 123.79502798 -11.31867779 123.79502798 -11.79547882 125.69705582 C-16.69365741 145.22847446 -21.71115464 164.72317984 -26.96850586 184.16113281 C-26.02698669 184.12006912 -25.08546753 184.07900543 -24.11541748 184.03669739 C-20.96850586 184.16113281 -20.96850586 184.16113281 -18.61791992 186.15209961 C-16.54173247 189.93969735 -16.46058081 193.10246004 -16.57788086 197.30566406 C-16.58354065 198.0754509 -16.58920044 198.84523773 -16.59503174 199.63835144 C-16.61732714 202.08409224 -16.66750711 204.52833892 -16.71850586 206.97363281 C-16.73857986 208.63702303 -16.75682906 210.30043634 -16.77319336 211.96386719 C-16.81716902 216.03019339 -16.88614607 220.09541025 -16.96850586 224.16113281 C-16.03264648 224.35642578 -16.03264648 224.35642578 -15.07788086 224.55566406 C-12.96850586 225.16113281 -12.96850586 225.16113281 -11.21850586 226.84863281 C-9.57927412 229.88121153 -9.70552393 231.72797186 -9.96850586 235.16113281 C-11.11083984 238.29467773 -11.11083984 238.29467773 -12.71459961 241.64160156 C-13.14448433 242.55173508 -13.14448433 242.55173508 -13.58305359 243.48025513 C-14.51283799 245.44195027 -15.45874025 247.39532702 -16.40600586 249.34863281 C-17.05062635 250.69545032 -17.69433963 252.0427024 -18.3371582 253.39038086 C-19.30115567 255.40987431 -20.26644842 257.42867192 -21.23687744 259.44508362 C-23.13081484 263.38276671 -24.97206444 267.33850943 -26.76147461 271.32519531 C-27.16245361 272.20925049 -27.56343262 273.09330566 -27.9765625 274.00415039 C-28.70349574 275.61134815 -29.42067489 277.22300531 -30.12646484 278.83959961 C-31.10131836 280.96191406 -31.10131836 280.96191406 -32.96850586 284.16113281 C-35.08520508 284.86108398 -35.08520508 284.86108398 -36.96850586 285.16113281 C-38.73967717 279.22204873 -36.86136329 275.75866846 -34.23413086 270.50878906 C-33.64338776 269.2812516 -33.64338776 269.2812516 -33.04071045 268.02891541 C-31.78126649 265.41975853 -30.50057903 262.82173338 -29.21850586 260.22363281 C-27.95570876 257.62689171 -26.69728339 255.02806411 -25.43914795 252.42906189 C-24.65602184 250.81553771 -23.86931157 249.20374646 -23.07843018 247.5940094 C-18.63306689 239.24846152 -18.63306689 239.24846152 -16.96850586 230.16113281 C-18.07581055 229.66226563 -19.18311523 229.16339844 -20.32397461 228.64941406 C-21.44993042 228.13991211 -21.44993042 228.13991211 -22.59863281 227.62011719 C-24.35403434 226.83316105 -26.11462199 226.05770255 -27.87939453 225.29199219 C-33.11884612 222.99694176 -38.13443045 220.54467275 -43.10131836 217.70410156 C-65.52307739 205.49934381 -87.9596411 206.41816977 -112.96850586 207.16113281 C-113.29850586 205.84113281 -113.62850586 204.52113281 -113.96850586 203.16113281 C-112.97850586 202.83113281 -111.98850586 202.50113281 -110.96850586 202.16113281 C-111.08306267 200.24381363 -111.21056844 198.32726531 -111.34350586 196.41113281 C-111.41311523 195.34378906 -111.48272461 194.27644531 -111.55444336 193.17675781 C-111.94505624 190.33191684 -112.67270291 188.6625959 -113.96850586 186.16113281 C-113.47350586 185.17113281 -113.47350586 185.17113281 -112.96850586 184.16113281 C-112.30850586 184.16113281 -111.64850586 184.16113281 -110.96850586 184.16113281 C-111.06193396 179.35528223 -111.16800245 174.54994187 -111.28588867 169.74462891 C-111.32421438 168.10929041 -111.35906093 166.47386658 -111.39038086 164.83837891 C-111.43595428 162.48992371 -111.49395953 160.14205787 -111.55444336 157.79394531 C-111.57177017 156.69386642 -111.57177017 156.69386642 -111.58944702 155.57156372 C-111.58718683 151.41136176 -111.58718683 151.41136176 -113.96850586 148.16113281 C-114.22729492 146.12988281 -114.22729492 146.12988281 -114.23413086 143.66113281 C-114.23670898 142.77425781 -114.23928711 141.88738281 -114.24194336 140.97363281 C-114.2303418 139.58144531 -114.2303418 139.58144531 -114.21850586 138.16113281 C-114.22624023 137.23300781 -114.23397461 136.30488281 -114.24194336 135.34863281 C-114.23936523 134.46175781 -114.23678711 133.57488281 -114.23413086 132.66113281 C-114.231875 131.84644531 -114.22961914 131.03175781 -114.22729492 130.19238281 C-113.96850586 128.16113281 -113.96850586 128.16113281 -111.96850586 126.16113281 C-109.08607955 125.93648894 -106.30265367 125.83295867 -103.41772461 125.82519531 C-102.56676712 125.81853851 -101.71580963 125.81188171 -100.83906555 125.80502319 C-99.03596155 125.79488696 -97.23281996 125.79020647 -95.4296875 125.79052734 C-92.67701835 125.7861661 -89.92596795 125.74989159 -87.17358398 125.71191406 C-85.42163634 125.70604362 -83.66968108 125.70207575 -81.91772461 125.70019531 C-81.09672775 125.68582428 -80.2757309 125.67145325 -79.42985535 125.65664673 C-75.64558733 125.68673238 -73.36759307 125.95554635 -69.95336914 127.71435547 C-67.30797204 130.97538496 -67.23886049 133.73841989 -67.26147461 137.77050781 C-67.2463533 138.4973175 -67.23123199 139.2241272 -67.21565247 139.97296143 C-67.17279018 142.28600114 -67.16393998 144.59773563 -67.15600586 146.91113281 C-67.13286005 148.48278206 -67.10749451 150.05440029 -67.07983398 151.62597656 C-67.01699751 155.47114392 -66.98465069 159.31549739 -66.96850586 163.16113281 C-66.7660022 162.56392929 -66.56349854 161.96672577 -66.3548584 161.35142517 C-46.94053202 104.09829009 -46.94053202 104.09829009 -37.91894531 77.64160156 C-34.7637384 68.38644075 -31.6169478 59.12858389 -28.49072266 49.86358643 C-26.92725608 45.23083451 -25.36069652 40.59913086 -23.79400635 35.96746826 C-23.04222667 33.74196656 -22.29199369 31.51594172 -21.543396 29.28936768 C-20.50539707 26.2023243 -19.46210996 23.11711412 -18.41772461 20.03222656 C-18.11220169 19.11887039 -17.80667877 18.20551422 -17.49189758 17.26448059 C-13.14224311 4.46534147 -13.14224311 4.46534147 -8.96850586 1.16113281 C-5.74601427 0.08696895 -3.38937912 0.02137505 0 0 Z " fill="#1E3864" transform="translate(217.968505859375,89.8388671875)"/>
<path d="M0 0 C3.96706391 1.73047969 7.75553292 3.75736863 11.5625 5.8125 C12.57763672 6.34681641 13.59277344 6.88113281 14.63867188 7.43164062 C19.60184003 10.06720934 24.40786724 12.75803277 29 16 C28.38274433 19.98898066 27.12003316 23.12234395 25.3046875 26.71875 C24.48230591 28.35674561 24.48230591 28.35674561 23.64331055 30.02783203 C23.05976807 31.17364746 22.47622559 32.31946289 21.875 33.5 C21.2869458 34.66515137 20.6988916 35.83030273 20.09301758 37.03076172 C16.1821448 44.75318352 12.21058249 52.43626273 8 60 C8.93199219 60.2990625 9.86398437 60.598125 10.82421875 60.90625 C18.22808321 63.45616642 18.22808321 63.45616642 20 67 C20.31055668 74.53876331 19.43257556 81.83929316 18.5 89.3125 C18.21672044 91.62084559 17.93538562 93.92943089 17.65625 96.23828125 C17.53056641 97.24930908 17.40488281 98.26033691 17.27539062 99.30200195 C16.9323036 102.21121791 16.9323036 102.21121791 17 106 C17.65073486 106.30703857 18.30146973 106.61407715 18.97192383 106.93041992 C21.92610786 108.33460005 24.86917367 109.7607102 27.8125 111.1875 C28.83666016 111.67025391 29.86082031 112.15300781 30.91601562 112.65039062 C31.89892578 113.13056641 32.88183594 113.61074219 33.89453125 114.10546875 C34.80050049 114.54012451 35.70646973 114.97478027 36.63989258 115.42260742 C39.42559566 117.28444952 40.56207984 118.99788003 42 122 C41.92314205 126.96160784 38.87517953 131.42044339 36.5625 135.6875 C36.15451172 136.45900391 35.74652344 137.23050781 35.32617188 138.02539062 C32.27449483 143.72550517 32.27449483 143.72550517 30 146 C25.11617829 146.55497974 22.24727479 145.31669534 18 143 C17.34 143 16.68 143 16 143 C15.62302979 143.72888428 15.24605957 144.45776855 14.85766602 145.20874023 C13.73132182 147.38581319 12.60430979 149.56254071 11.47680664 151.73901367 C10.19547292 154.21281129 8.9177682 156.68843931 7.64233398 159.1652832 C4.84621459 164.58525049 2.0414689 169.99136419 -0.96875 175.296875 C-1.3922876 176.05299072 -1.8158252 176.80910645 -2.25219727 177.58813477 C-3.01672366 178.9422362 -3.79740977 180.28740012 -4.59741211 181.62084961 C-7.37120192 186.57503799 -7.09407082 189.63609605 -6 195 C-7.65 195.33 -9.3 195.66 -11 196 C-14.60900842 189.63287183 -17.99011394 183.1770773 -21.25 176.625 C-21.72163574 175.68052002 -22.19327148 174.73604004 -22.67919922 173.76293945 C-26.30887919 166.46395418 -29.82997675 159.11700645 -33.27050781 151.72705078 C-34.75759824 148.11724321 -34.75759824 148.11724321 -37 145 C-37.58378418 146.14774902 -38.16756836 147.29549805 -38.76904297 148.47802734 C-40.98364226 152.82983015 -43.20265392 157.17937139 -45.42285156 161.52832031 C-46.37420894 163.39328787 -47.32444627 165.25882731 -48.2734375 167.125 C-54.59975271 179.56317906 -61.13173864 191.85219444 -68 204 C-69.32 204 -70.64 204 -72 204 C-71.58597129 197.39354189 -69.0162969 192.62494128 -65.875 186.875 C-64.79202191 184.84816188 -63.71004162 182.8207904 -62.62890625 180.79296875 C-62.0477002 179.70935059 -61.46649414 178.62573242 -60.86767578 177.50927734 C-57.80179054 171.74861925 -54.81412549 165.94777837 -51.82354736 160.14776611 C-50.82159163 158.20512728 -49.81805747 156.26331243 -48.81396484 154.32177734 C-45.88133015 148.67396134 -45.88133015 148.67396134 -43 143 C-52.66869983 143.5784099 -62.09976625 145.08937763 -71.625 146.75 C-81.32421616 148.42556398 -91.01900326 150.04457747 -100.7734375 151.3671875 C-101.55498199 151.47470337 -102.33652649 151.58221924 -103.14175415 151.69299316 C-106.88735069 152.2072708 -110.6338796 152.70454634 -114.38525391 153.17480469 C-115.73610192 153.35799305 -117.08685623 153.54187424 -118.4375 153.7265625 C-119.61183594 153.87689941 -120.78617188 154.02723633 -121.99609375 154.18212891 C-125.59672632 155.16247019 -126.92273798 155.89174969 -129 159 C-129.40608006 161.85546668 -129.58138371 164.33995503 -129.57421875 167.1953125 C-129.58838333 167.98396698 -129.60254791 168.77262146 -129.61714172 169.58517456 C-129.6589993 172.09858918 -129.67427499 174.61128607 -129.6875 177.125 C-129.71655154 179.64552145 -129.75107615 182.16586099 -129.78999329 184.68624878 C-129.81248778 186.25316138 -129.8283029 187.82018674 -129.83683777 189.38723755 C-129.89045128 194.78090256 -129.89045128 194.78090256 -131 197 C-132.65 197 -134.3 197 -136 197 C-136.06479708 188.66609925 -136.0664362 180.3339107 -136 172 C-135.99419922 171.1229541 -135.98839844 170.2459082 -135.98242188 169.34228516 C-135.95530605 167.16352884 -135.89303415 164.98984579 -135.8125 162.8125 C-135.77769531 161.62269531 -135.74289063 160.43289063 -135.70703125 159.20703125 C-134.75783156 154.90154537 -133.24510827 152.97002624 -130 150 C-127.17467069 149.00060654 -124.9178743 148.44599173 -122 148 C-121.0311084 147.82952148 -120.0622168 147.65904297 -119.06396484 147.48339844 C-115.77614322 146.91599778 -112.48376633 146.39093734 -109.1875 145.875 C-107.49077148 145.60236328 -107.49077148 145.60236328 -105.75976562 145.32421875 C-97.40125705 144 -97.40125705 144 -94 144 C-93.7834375 143.23042969 -93.566875 142.46085938 -93.34375 141.66796875 C-91.50139803 136.63899056 -89.00938492 132.03699313 -86.5 127.3125 C-85.97116211 126.30823975 -85.44232422 125.30397949 -84.89746094 124.26928711 C-83.80659613 122.19870037 -82.71381139 120.12912402 -81.61914062 118.06054688 C-80.06949636 115.13136405 -78.52567783 112.19920403 -76.984375 109.265625 C-74.65999588 104.84176746 -72.33131156 100.42020797 -70 96 C-70.92941406 95.70480469 -71.85882813 95.40960938 -72.81640625 95.10546875 C-76.38319367 93.86694011 -78.47843812 92.82720575 -81 90 C-80.80843381 83.93118298 -78.50496337 79.44161039 -75.625 74.1875 C-75.22539062 73.42501953 -74.82578125 72.66253906 -74.4140625 71.87695312 C-71.39703792 66.26469195 -71.39703792 66.26469195 -68 64 C-61.11893679 64.13677954 -55.04628141 68.45084589 -49.16796875 71.66992188 C-48.30558594 72.12302734 -47.44320312 72.57613281 -46.5546875 73.04296875 C-45.38655518 73.67755005 -45.38655518 73.67755005 -44.19482422 74.32495117 C-41.99896622 75.23897571 -41.99896622 75.23897571 -39.85888672 74.2421875 C-37.44359807 72.62818846 -35.38249677 70.78539908 -33.25 68.8125 C-32.37085938 68.008125 -31.49171875 67.20375 -30.5859375 66.375 C-29.73257813 65.59125 -28.87921875 64.8075 -28 64 C-25.36669356 61.62523637 -22.70105796 59.29726344 -20 57 C-19.33097656 56.40574219 -18.66195312 55.81148437 -17.97265625 55.19921875 C-14.64260923 52.4188532 -12.92916143 51.03318434 -8.5 50.875 C-4.40977243 52.189716 -0.7444904 53.90892095 3 56 C3.26554688 55.15179688 3.53109375 54.30359375 3.8046875 53.4296875 C5.04440466 49.87259054 6.52482616 46.53406601 8.125 43.125 C8.66382813 41.97257812 9.20265625 40.82015625 9.7578125 39.6328125 C10.16773438 38.76398438 10.57765625 37.89515625 11 37 C10.12061768 36.72454346 9.24123535 36.44908691 8.33520508 36.1652832 C3.17332665 34.36178084 -1.50213889 31.76570391 -6.3125 29.1875 C-7.32634766 28.66607422 -8.34019531 28.14464844 -9.38476562 27.60742188 C-10.34705078 27.09115234 -11.30933594 26.57488281 -12.30078125 26.04296875 C-13.17903564 25.57914795 -14.05729004 25.11532715 -14.9621582 24.63745117 C-17 23 -17 23 -17.89916992 20.4465332 C-18 18 -18 18 -16.3125 15.8125 C-14 14 -14 14 -11.89453125 13.265625 C-11.26933594 12.84796875 -10.64414062 12.4303125 -10 12 C-9.36950085 9.15103261 -9.36950085 9.15103261 -9.375 5.9375 C-9.31372029 3.95533692 -9.2033665 1.972655 -9 0 C-5.88473743 -1.55763129 -3.23170828 -0.90550625 0 0 Z " fill="#213A65" transform="translate(366,176)"/>
<path d="M0 0 C3.89903692 1.84691223 6.94091164 3.88140353 10.1875 6.6875 C14.5291879 10.25733228 18.82865986 10.45855184 24.33984375 10.41796875 C29.05182793 9.67761294 32.33480078 6.90102641 36 4 C40.60045583 0.50365357 43.1728844 -0.72838945 49 0 C53.59094181 1.72160318 56.83511362 4.41313949 60.38671875 7.6953125 C64.10271603 10.70050159 68.59105337 10.38765347 73.14453125 10.3515625 C77.62511047 9.799918 80.53623274 7.77101381 84 5 C84.94875 4.2575 85.8975 3.515 86.875 2.75 C87.926875 1.88375 87.926875 1.88375 89 1 C92.07194908 -0.53597454 94.60244293 -0.2265038 98 0 C102.80671656 1.86382887 106.12258044 4.71262255 110 8 C114.51758614 10.70867717 118.86744049 10.62611042 124 10 C129.54148492 8.19511495 133.68330395 4.80280367 138 1 C141.07194908 -0.53597454 143.60244293 -0.2265038 147 0 C151.65580484 1.78307419 155.36384347 4.65555247 159.265625 7.6953125 C163.49163861 10.87434076 167.89363629 10.53316445 173 10 C177.693943 8.51188401 181.27426362 5.81839876 185.0625 2.75 C187.89884089 0.55752514 188.93973767 0.00935105 192.625 -0.5625 C198.964154 0.49402567 203.30774903 3.83278122 208.265625 7.6953125 C212.49710572 10.8784534 216.88962809 10.41560253 222 10 C227.15782554 8.42642611 230.55988273 5.93207276 234.421875 2.3046875 C237.45697096 -0.2045255 240.96775132 -0.4501685 244.80859375 -0.421875 C248.99479945 0.38402556 251.8529521 3.28269604 255 6 C259.10927915 9.28585489 262.12891183 10.15156789 267.375 10.1875 C268.31085938 10.20167969 269.24671875 10.21585937 270.2109375 10.23046875 C273.16118154 9.98668108 275.32364112 9.23112508 278 8 C278.11681812 11.54138618 278.187455 15.0822724 278.25 18.625 C278.28351563 19.62402344 278.31703125 20.62304688 278.3515625 21.65234375 C278.43302217 27.8025487 278.10839862 31.32099046 274 36 C270.08026955 39.55225572 266.50407074 40.12347684 261.32908249 40.13142776 C259.91898647 40.13718948 259.91898647 40.13718948 258.48040366 40.1430676 C257.45084689 40.14220112 256.42129013 40.14133463 255.36053467 40.14044189 C253.71616153 40.14489858 253.71616153 40.14489858 252.03856874 40.1494453 C248.35220222 40.15814142 244.66586815 40.15964132 240.97949219 40.16113281 C238.34166815 40.16576033 235.70384708 40.17076426 233.06602478 40.17617798 C225.8903352 40.18975577 218.71465121 40.19578517 211.53895092 40.20018864 C207.05764587 40.20295202 202.57634297 40.20718955 198.09503937 40.21169281 C185.68544017 40.2238848 173.2758427 40.23418422 160.86623764 40.2375679 C160.07210319 40.23778747 159.27796875 40.23800703 158.45976962 40.23823325 C157.66374469 40.23845153 156.86771975 40.23866981 156.04757285 40.2388947 C154.43454726 40.23933817 152.82152168 40.23978473 151.20849609 40.24023438 C150.40838121 40.2404558 149.60826633 40.24067723 148.78390554 40.24090537 C135.82091957 40.24485289 122.85798983 40.26230579 109.89502558 40.2855939 C96.583312 40.30931533 83.27162662 40.32177011 69.95989156 40.32293582 C62.48699077 40.32385214 55.01416325 40.32959361 47.54128265 40.34775543 C41.17758964 40.36316712 34.81399253 40.36827061 28.45028439 40.36001733 C25.20470549 40.35611455 21.95935977 40.35865916 18.71379662 40.37107468 C15.19149807 40.38375859 11.6696949 40.37793616 8.1473999 40.36749268 C7.12676602 40.37554908 6.10613214 40.38360548 5.05456996 40.39190602 C-0.9919513 40.34998509 -5.50868554 39.59543418 -11 37 C-15.16636357 32.7268066 -16.1002424 29.29345514 -16.31640625 23.45703125 C-16.37924805 21.84731445 -16.37924805 21.84731445 -16.44335938 20.20507812 C-16.48267578 19.08552734 -16.52199219 17.96597656 -16.5625 16.8125 C-16.60568359 15.68134766 -16.64886719 14.55019531 -16.69335938 13.38476562 C-16.79949099 10.58996646 -16.90154385 7.79507838 -17 5 C-16.22398438 4.70351563 -15.44796875 4.40703125 -14.6484375 4.1015625 C-11.9517091 3.08576494 -11.9517091 3.08576494 -9.625 1.375 C-6.11157844 -0.46536368 -3.92922045 -0.47421626 0 0 Z " fill="#C4EFFD" transform="translate(124,382)"/>
<path d="M0 0 C-5.29646384 11.5259091 -10.91666589 22.86345177 -16.75 34.125 C-17.07147003 34.74651947 -17.39294006 35.36803894 -17.72415161 36.00839233 C-21.04554892 42.42332574 -24.37514961 48.81649896 -28.06347656 55.03076172 C-29.15409102 57.32400891 -29.59190219 59.50215995 -30 62 C-27.55171171 61.63753225 -26.34036635 61.43724566 -24.78903198 59.4443512 C-24.45501373 58.7725029 -24.12099548 58.1006546 -23.77685547 57.40844727 C-23.19507034 56.26443199 -23.19507034 56.26443199 -22.60153198 55.0973053 C-22.1941983 54.26210861 -21.78686462 53.42691193 -21.3671875 52.56640625 C-20.93044708 51.70047348 -20.49370667 50.83454071 -20.04373169 49.94236755 C-18.64099705 47.15544934 -17.25728755 44.35960802 -15.875 41.5625 C-14.06572083 37.93587028 -12.24875063 34.31313682 -10.4296875 30.69140625 C-9.98437683 29.80184235 -9.53906616 28.91227844 -9.08026123 27.99575806 C-4.6442547 19.18538126 0.13047847 10.57665389 5 2 C8.21412808 5.81283196 10.16654825 10.17858913 12.30859375 14.640625 C12.71658707 15.48163757 13.12458038 16.32265015 13.54493713 17.18914795 C14.84648055 19.87417304 16.14213907 22.56198761 17.4375 25.25 C18.73059311 27.9230844 20.02487747 30.59558933 21.3193512 33.26800537 C22.12296158 34.92816359 22.92554563 36.58881916 23.72691345 38.25006104 C24.46025301 39.76915787 25.19688474 41.286671 25.93722534 42.80236816 C26.66079549 44.2985845 27.36784018 45.80288 28.06008911 47.31384277 C28.96586467 49.24578468 29.97549528 51.1283112 31 53 C32.485 53.495 32.485 53.495 34 54 C35.1875 57.0625 35.1875 57.0625 36 60 C33.33333333 62 30.66666667 64 28 66 C27.31421875 66.54011719 26.6284375 67.08023438 25.921875 67.63671875 C22.09175785 70.35361079 18.56560873 70.38691599 14 70 C11 68.3125 11 68.3125 8 66 C6.77539757 65.0979374 5.54613715 64.20216704 4.3125 63.3125 C3.47138672 62.68794922 3.47138672 62.68794922 2.61328125 62.05078125 C-1.77652662 59.19156014 -6.97453274 59.32894354 -12 60 C-16.09678875 61.77196745 -19.34806272 64.47845017 -22.8125 67.25 C-26.69310988 70.3544879 -30.17082797 70.33304635 -35 70 C-39.10794495 68.10402541 -42.57828866 65.08468474 -46.1328125 62.3046875 C-50.59119442 59.18941645 -55.7835014 59.42745747 -61 60 C-64.95585778 61.42163639 -68.06640022 64.00328842 -71.25 66.6875 C-74.92172787 69.77508935 -77.99501221 70.48745339 -82.79296875 70.3984375 C-87.09505067 69.62177846 -90.33579255 67.43432992 -93 64 C-93.64852877 60.8840219 -93.50076545 58.12978408 -93 55 C-91.68 55 -90.36 55 -89 55 C-88.99589111 53.87505127 -88.99178223 52.75010254 -88.98754883 51.59106445 C-88.96573322 47.40668275 -88.91141903 43.22323815 -88.84741211 39.03930664 C-88.82425315 37.23047892 -88.80984131 35.42151675 -88.80444336 33.61254883 C-88.79513804 31.00777617 -88.75411645 28.40511176 -88.70703125 25.80078125 C-88.71293022 24.59268547 -88.71293022 24.59268547 -88.71894836 23.36018372 C-88.61347207 19.27705316 -88.31696916 17.44156029 -85.87207031 14.03564453 C-82.54035959 11.67421951 -80.37748086 11.13002846 -76.33984375 10.62890625 C-75.68941605 10.54122482 -75.03898834 10.4535434 -74.36885071 10.36320496 C-72.96221983 10.17572389 -71.55430047 9.99771351 -70.14538574 9.82824707 C-67.13224826 9.46557773 -64.1258423 9.05734288 -61.11837769 8.65066528 C-59.53413758 8.43646678 -57.94959613 8.2244865 -56.36477661 8.01461792 C-47.29189804 6.80223419 -38.27338279 5.28218947 -29.25 3.75 C-27.7017693 3.48884902 -26.1535115 3.22785867 -24.60522461 2.96704102 C-21.88524484 2.50826478 -19.16566079 2.04734452 -16.44628906 1.58496094 C-15.30901367 1.39192383 -14.17173828 1.19888672 -13 1 C-11.94006836 0.81083008 -10.88013672 0.62166016 -9.78808594 0.42675781 C-6.49783515 -0.07686376 -3.32326837 -0.06646537 0 0 Z " fill="#79A2EF" transform="translate(324,318)"/>
<path d="M0 0 C1.07699661 0.00888245 2.15399323 0.01776489 3.2636261 0.0269165 C5.09518501 0.02736969 5.09518501 0.02736969 6.96374512 0.02783203 C8.2825618 0.04847717 9.60137848 0.06912231 10.9601593 0.09039307 C12.32349824 0.09785481 13.68684791 0.10354806 15.05020142 0.10754395 C18.63600859 0.12280597 22.22116616 0.16209134 25.80671692 0.20635986 C29.46649894 0.2473011 33.12638609 0.26555242 36.78633118 0.28570557 C43.96569787 0.32858639 51.14439538 0.39893937 58.32344055 0.48101807 C58.32344055 5.43101807 58.32344055 10.38101807 58.32344055 15.48101807 C57.04702698 15.48512695 55.7706134 15.48923584 54.45552063 15.49346924 C49.71211061 15.51526886 44.96952911 15.56956752 40.22651672 15.63360596 C38.17516531 15.65677866 36.12369505 15.67117996 34.07221985 15.67657471 C31.12005105 15.6858695 28.16974969 15.72687171 25.2179718 15.77398682 C24.30320572 15.77005417 23.38843964 15.76612152 22.44595337 15.7620697 C18.09045351 15.86149335 15.93915376 16.03697193 12.32783508 18.64141846 C10.17047484 21.6977226 9.23965566 23.99544453 8.3585968 27.62164307 C8.04052063 28.89209473 7.72244446 30.16254639 7.39472961 31.47149658 C7.05825029 32.89128583 6.72199544 34.31112829 6.38594055 35.73101807 C6.01613254 37.23393823 5.64465492 38.73644837 5.27168274 40.23858643 C4.42638522 43.65855461 3.59301048 47.0811738 2.76728821 50.50592041 C0.82634258 58.55315072 -1.15135834 66.59135707 -3.12612915 74.63034058 C-4.66254697 80.8859332 -6.19492604 87.14242217 -7.71537781 93.4019165 C-10.27726631 103.92423926 -12.87380617 114.41761309 -15.83879089 124.83406067 C-18.65448787 134.80884896 -21.00241186 144.90560383 -23.42655945 154.98101807 C-24.16568934 158.04973128 -24.90573676 161.11820803 -25.64878845 164.18597412 C-26.10633098 166.07513818 -26.56162471 167.96484866 -27.01438904 169.85516357 C-27.21840332 170.6978479 -27.4224176 171.54053223 -27.63261414 172.40875244 C-27.81072632 173.1494397 -27.9888385 173.89012695 -28.17234802 174.65325928 C-28.67655945 176.48101807 -28.67655945 176.48101807 -29.67655945 178.48101807 C-40.89655945 178.48101807 -52.11655945 178.48101807 -63.67655945 178.48101807 C-62.39544807 172.71601686 -61.15587261 167.55783653 -59.28495789 162.04156494 C-59.05327219 161.35423971 -58.82158649 160.66691448 -58.58288002 159.95876122 C-57.82167154 157.70423323 -57.05386641 155.45201384 -56.28593445 153.19976807 C-55.74367765 151.59826868 -55.20182644 149.99663191 -54.66035461 148.39486694 C-53.21891925 144.13474002 -51.7717161 139.87659413 -50.32328033 135.61884308 C-48.82138131 131.20080522 -47.32475884 126.78098034 -45.82743835 122.36138916 C-42.45092151 112.3988451 -39.06533701 102.43939732 -35.67655945 92.48101807 C-35.26635559 91.27530151 -34.85615173 90.06958496 -34.43351746 88.82733154 C-31.79113205 81.06206815 -29.14766416 73.29718564 -26.48490906 65.53887939 C-23.80190887 57.72014948 -21.13884558 49.89535658 -18.50779724 42.05895996 C-17.03284376 37.66732245 -15.55257126 33.27748485 -14.0721283 28.88769531 C-13.35750282 26.76363268 -12.64549087 24.63868872 -11.93626404 22.51281738 C-10.95656732 19.57676995 -9.96790806 16.6438813 -8.9773407 13.71148682 C-8.68737717 12.83448624 -8.39741364 11.95748566 -8.09866333 11.0539093 C-7.68536522 9.8386985 -7.68536522 9.8386985 -7.26371765 8.59893799 C-6.91069328 7.54533333 -6.91069328 7.54533333 -6.55053711 6.47044373 C-4.0258402 0.72350415 -4.0258402 0.72350415 0 0 Z " fill="#7AA3EF" transform="translate(214.6765594482422,95.51898193359375)"/>
<path d="M0 0 C0.11681812 3.54138618 0.187455 7.0822724 0.25 10.625 C0.28351563 11.62402344 0.31703125 12.62304688 0.3515625 13.65234375 C0.43302217 19.8025487 0.10839862 23.32099046 -4 28 C-7.91973045 31.55225572 -11.49592926 32.12347684 -16.67091751 32.13142776 C-18.08101353 32.13718948 -18.08101353 32.13718948 -19.51959634 32.1430676 C-20.54915311 32.14220112 -21.57870987 32.14133463 -22.63946533 32.14044189 C-24.28383847 32.14489858 -24.28383847 32.14489858 -25.96143126 32.1494453 C-29.64779778 32.15814142 -33.33413185 32.15964132 -37.02050781 32.16113281 C-39.65833185 32.16576033 -42.29615292 32.17076426 -44.93397522 32.17617798 C-52.1096648 32.18975577 -59.28534879 32.19578517 -66.46104908 32.20018864 C-70.94235413 32.20295202 -75.42365703 32.20718955 -79.90496063 32.21169281 C-92.31455983 32.2238848 -104.7241573 32.23418422 -117.13376236 32.2375679 C-117.92789681 32.23778747 -118.72203125 32.23800703 -119.54023038 32.23823325 C-120.33625531 32.23845153 -121.13228025 32.23866981 -121.95242715 32.2388947 C-123.56545274 32.23933817 -125.17847832 32.23978473 -126.79150391 32.24023438 C-127.59161879 32.2404558 -128.39173367 32.24067723 -129.21609446 32.24090537 C-142.17908043 32.24485289 -155.14201017 32.26230579 -168.10497442 32.2855939 C-181.416688 32.30931533 -194.72837338 32.32177011 -208.04010844 32.32293582 C-215.51300923 32.32385214 -222.98583675 32.32959361 -230.45871735 32.34775543 C-236.82241036 32.36316712 -243.18600747 32.36827061 -249.54971561 32.36001733 C-252.79529451 32.35611455 -256.04064023 32.35865916 -259.28620338 32.37107468 C-262.80850193 32.38375859 -266.3303051 32.37793616 -269.8526001 32.36749268 C-270.87323398 32.37554908 -271.89386786 32.38360548 -272.94543004 32.39190602 C-280.01064664 32.34292241 -286.09662539 31.68562151 -291.5 26.6875 C-293.26638859 23.52272044 -293.11801016 21.56489019 -293 18 C-292.43557817 17.99940291 -291.87115635 17.99880582 -291.28963083 17.99819064 C-257.83722576 17.96229653 -224.38492772 17.90565736 -190.93260887 17.82207905 C-186.91592906 17.81206159 -182.89924885 17.80221746 -178.88256836 17.79248047 C-177.68309548 17.78956841 -177.68309548 17.78956841 -176.45939083 17.78659752 C-163.51167144 17.7555766 -150.56396978 17.73859662 -137.61622023 17.72680578 C-124.33058005 17.71439469 -111.0450329 17.68689426 -97.75945145 17.64538693 C-89.56154161 17.62025028 -81.36378604 17.60688284 -73.16583712 17.60857043 C-67.54415381 17.60860018 -61.92262766 17.59397275 -56.30100559 17.56783572 C-53.0575694 17.5531881 -49.81452036 17.5471605 -46.57104874 17.55419731 C-43.05238626 17.56081506 -39.53466565 17.54296804 -36.01609802 17.51898193 C-34.48252164 17.53062256 -34.48252164 17.53062256 -32.91796392 17.54249835 C-26.75592037 17.46804823 -23.00603598 16.68368036 -18 13 C-15.95277976 9.72444762 -14.88198552 6.72037528 -14 3 C-13.39671875 2.95101563 -12.7934375 2.90203125 -12.171875 2.8515625 C-11.37265625 2.77679688 -10.5734375 2.70203125 -9.75 2.625 C-8.96109375 2.55539062 -8.1721875 2.48578125 -7.359375 2.4140625 C-4.84174358 1.97222652 -2.41526596 0 0 0 Z " fill="#9AE0FE" transform="translate(402,390)"/>
<path d="M0 0 C4.88141461 1.81817872 9.47743335 4.1634989 14.125 6.5 C15.01243896 6.94504883 15.89987793 7.39009766 16.81420898 7.84863281 C23.35825166 11.14358413 29.85566676 14.52016088 36.32910156 17.95141602 C41.21286497 20.53868375 46.10981277 23.09906015 51.01953125 25.63671875 C51.62694656 25.95079681 52.23436188 26.26487488 52.86018372 26.58847046 C55.88103696 28.14998554 58.90292838 29.70943121 61.92602539 31.26660156 C63.03067139 31.83733398 64.13531738 32.40806641 65.2734375 32.99609375 C66.74949463 33.75684204 66.74949463 33.75684204 68.25537109 34.53295898 C70.89194542 35.94224337 73.45114471 37.43855742 76 39 C74.71087652 42.31772137 73.30460873 45.51903331 71.71484375 48.703125 C71.04835815 50.03899658 71.04835815 50.03899658 70.3684082 51.40185547 C69.66010864 52.81168701 69.66010864 52.81168701 68.9375 54.25 C68.4530542 55.21695801 67.9686084 56.18391602 67.46948242 57.18017578 C63.10639658 65.85497507 58.59465655 74.44599743 54 83 C53.34 83 52.68 83 52 83 C44.66666667 67.66666667 37.33333333 52.33333333 30 37 C19.44856422 37.85144375 9.06643714 39.73790976 -1.36401367 41.49145508 C-3.8319755 41.90520092 -6.3007029 42.31411793 -8.76953125 42.72265625 C-9.52168411 42.85076187 -10.27383698 42.97886749 -11.04878235 43.1108551 C-14.73656774 43.71964245 -18.26017677 44.15036545 -22 44 C-20.45466689 38.71731235 -18.09614065 34.13141829 -15.5 29.3125 C-14.6066321 27.63549056 -13.71340745 25.95840481 -12.8203125 24.28125 C-12.35915039 23.41886719 -11.89798828 22.55648438 -11.42285156 21.66796875 C-9.05411608 17.2263865 -6.71598282 12.7687522 -4.375 8.3125 C-3.52878709 6.70435275 -2.68244616 5.09627284 -1.8359375 3.48828125 C-1.23007812 2.33714844 -0.62421875 1.18601562 0 0 Z " fill="#FDE895" transform="translate(301,275)"/>
<path d="M0 0 C1.68662458 1.64646685 3.35511706 3.31183067 5 5 C8.72566613 7.48377742 11.68303259 7.64515565 16 7 C19.93268424 5.16926768 22.96036468 3.09977721 26.25 0.3125 C30.4844057 -3.24825025 34.04253794 -3.34334504 39.3671875 -3.28125 C46.16914756 -2.55463112 50.42462931 1.16317956 55 6 C59.65029122 7.55009707 63.46921572 7.59356941 68.0625 5.8125 C71.34820914 3.78514755 74.05613826 1.49588278 77 -1 C81.51758614 -3.70867717 85.86744049 -3.62611042 91 -3 C96.54148492 -1.19511495 100.68330395 2.19719633 105 6 C108.07194908 7.53597454 110.60244293 7.2265038 114 7 C118.79659664 5.14009518 122.16271097 2.32565049 126 -1 C130.23714445 -3.82476297 134.28218135 -4.48295732 139.2421875 -3.6015625 C144.37491769 -2.09193597 148.23495521 0.33626666 152.37109375 3.6953125 C155.12827981 5.90370613 156.967999 6.15901477 160.4375 6.1875 C161.21996094 6.20167969 162.00242187 6.21585937 162.80859375 6.23046875 C165.29205987 6.14086064 165.29205987 6.14086064 168 4 C170.6875 3.875 170.6875 3.875 173 4 C173.33 5.32 173.66 6.64 174 8 C168.6540439 12.28901922 164.40926359 13.70588656 157.54296875 13.35546875 C151.39182325 12.49563121 147.52134886 8.91850234 143 5 C139.27433387 2.51622258 136.31696741 2.35484435 132 3 C128.06684866 4.83094976 125.07661261 6.87332773 121.8125 9.6875 C117.47180007 13.25651994 113.17720627 13.45442589 107.66796875 13.421875 C102.94869124 12.67563493 99.65481479 9.92242972 96 7 C91.41385275 3.37434774 87.90508066 2.32236779 82 3 C79.85779001 4.31531694 77.97998325 5.81683699 76.02734375 7.3984375 C70.61698215 11.67251892 65.49110133 13.79559327 58.52734375 13.52734375 C53.93585997 12.56930618 50.60163893 9.87990973 47 7 C42.38314153 3.35006849 38.93376044 2.49713895 33 3 C29.83068302 4.77481751 27.22817204 6.81078416 24.4375 9.125 C19.68234288 12.78281317 15.47252431 13.50104958 9.5625 13.38671875 C3.31904309 12.44448974 -1.2244033 7.82047736 -6 4 C-9.61930698 2.79356434 -12.19231005 2.67731441 -16 3 C-19.17537078 4.77820764 -21.80168931 6.83946278 -24.625 9.125 C-30.15478806 13.49062216 -35.09220056 13.79478942 -42 13 C-45.98234857 11.60466954 -49.05349427 9.00100359 -52.25 6.3125 C-56.42141119 2.80472241 -59.65462539 2.54700215 -65 3 C-67.89863093 4.63835661 -70.41690127 6.53847398 -73.0234375 8.6015625 C-77.94862304 12.24792794 -81.46695693 13.8169234 -87.65234375 13.38671875 C-93.86929279 12.36262897 -97.95122951 9.50375173 -102.421875 5.3046875 C-105.90542693 2.4247213 -109.69247298 2.70292917 -114 3 C-116.58944746 4.33700035 -116.58944746 4.33700035 -119 6 C-120.98451771 6.71143088 -122.98202112 7.38991336 -125 8 C-125.6875 6.1875 -125.6875 6.1875 -126 4 C-123.74541808 0.61812712 -119.75516734 -1.59607174 -116 -3 C-110.35438861 -3.92551006 -105.57598663 -3.77300318 -100.625 -0.75 C-99.39491976 0.13727099 -98.18433557 1.05253154 -97 2 C-96.05125 2.7425 -95.1025 3.485 -94.125 4.25 C-93.073125 5.11625 -93.073125 5.11625 -92 6 C-88.7835333 7.60823335 -85.48910471 7.46652812 -82 7 C-79.07661328 5.38280735 -76.60956934 3.49197526 -74.015625 1.3984375 C-68.82957882 -2.48190202 -65.08226787 -3.79000319 -58.57421875 -3.390625 C-51.9783543 -2.3897351 -47.83052965 0.73115985 -43 5 C-39.47013541 6.7649323 -35.84355692 6.66310567 -32 6 C-29.03204505 4.33118547 -26.57241566 2.21623503 -24 0 C-16.63180403 -4.96924845 -7.29270552 -5.6721043 0 0 Z " fill="#203C68" transform="translate(231,380)"/>
<path d="M0 0 C1.20076172 0.06960937 1.20076172 0.06960937 2.42578125 0.140625 C3.56817261 0.20685059 3.56817261 0.20685059 4.73364258 0.27441406 C5.72593872 0.33193848 5.72593872 0.33193848 6.73828125 0.390625 C4.75928635 7.11187371 2.65763148 13.78053669 0.4375 20.42578125 C0.12502319 21.36457626 -0.18745361 22.30337128 -0.50939941 23.27061462 C-1.529205 26.3320553 -2.55151645 29.39265087 -3.57421875 32.453125 C-3.92930511 33.51716553 -4.28439148 34.58120605 -4.65023804 35.67749023 C-9.95251041 51.56313086 -15.31665031 67.42661834 -20.74584961 83.26928711 C-24.20679059 93.36916677 -27.65128276 103.47442956 -31.078125 113.5859375 C-31.49618912 114.81938904 -31.91425323 116.05284058 -32.34498596 117.32366943 C-34.01061436 122.23878797 -35.67593015 127.15401124 -37.33950806 132.06982422 C-42.57361416 147.53608796 -47.8712975 162.97810861 -53.26171875 178.390625 C-56.56171875 178.390625 -59.86171875 178.390625 -63.26171875 178.390625 C-61.60686117 169.6995762 -58.71923966 161.46262104 -55.87109375 153.109375 C-55.32883695 151.50787561 -54.78698574 149.90623884 -54.24551392 148.30447388 C-52.80407855 144.04434696 -51.3568754 139.78620107 -49.90843964 135.52845001 C-48.40654061 131.11041215 -46.90991814 126.69058727 -45.41259766 122.27099609 C-42.03608081 112.30845204 -38.65049631 102.34900426 -35.26171875 92.390625 C-34.85151489 91.18490845 -34.44131104 89.97919189 -34.01867676 88.73693848 C-31.37629135 80.97167509 -28.73282346 73.20679258 -26.07006836 65.44848633 C-23.38706818 57.62975641 -20.72400488 49.80496352 -18.09295654 41.96856689 C-16.61800306 37.57692938 -15.13773056 33.18709179 -13.6572876 28.79730225 C-12.94266212 26.67323961 -12.23065017 24.54829565 -11.52142334 22.42242432 C-10.54172662 19.48637688 -9.55306736 16.55348823 -8.5625 13.62109375 C-8.27253647 12.74409317 -7.98257294 11.86709259 -7.68382263 10.96351624 C-4.20190595 0.72571778 -4.20190595 0.72571778 0 0 Z " fill="#F9F9FB" transform="translate(214.26171875,95.609375)"/>
<path d="M0 0 C11.3261163 -0.02312255 22.65222703 -0.04091464 33.97836208 -0.05181217 C39.23696664 -0.05704119 44.4955551 -0.06413918 49.75415039 -0.07543945 C54.82453127 -0.08626766 59.89489662 -0.09227669 64.96528816 -0.09487724 C66.90426948 -0.09673161 68.84324991 -0.10035245 70.78222466 -0.10573006 C73.4882176 -0.1129396 76.19414556 -0.11399098 78.90014648 -0.11352539 C80.11502495 -0.1189183 80.11502495 -0.1189183 81.35444641 -0.12442017 C86.88594784 -0.11405216 86.88594784 -0.11405216 88 1 C88.08790975 3.29151417 88.10694038 5.58572524 88.09765625 7.87890625 C88.0962413 8.5655687 88.09482635 9.25223114 88.09336853 9.95970154 C88.08775479 12.16067801 88.07520007 14.36155409 88.0625 16.5625 C88.05748676 18.05143083 88.05292355 19.54036324 88.04882812 21.02929688 C88.03778093 24.68623075 88.02050713 28.34310558 88 32 C84.07822564 30.8241377 80.58918349 29.3396436 77.00628662 27.35972595 C51.6037074 13.35587427 28.62164788 11.72928763 0 13 C0 8.71 0 4.42 0 0 Z " fill="#FDE895" transform="translate(107,279)"/>
<path d="M0 0 C12.21 0 24.42 0 37 0 C37 11.55 37 23.1 37 35 C24.79 35 12.58 35 0 35 C0 23.45 0 11.9 0 0 Z " fill="#FBE796" transform="translate(107,239)"/>
<path d="M0 0 C2.74965592 0.82080426 4.98714112 1.88376184 7.48779297 3.28735352 C8.37402344 3.78041992 9.26025391 4.27348633 10.17333984 4.78149414 C11.08535156 5.29776367 11.99736328 5.8140332 12.93701172 6.34594727 C13.86835938 6.86608398 14.79970703 7.3862207 15.75927734 7.92211914 C18.05114967 9.203217 20.33932784 10.49046831 22.62451172 11.78344727 C22.85633014 19.44848044 22.14826534 26.81791369 21.12451172 34.40844727 C20.98142578 35.50801758 20.83833984 36.60758789 20.69091797 37.74047852 C20.34111938 40.42226771 19.98555449 43.1031528 19.62451172 45.78344727 C15.93237555 45.19216385 13.06934943 44.16399306 9.77294922 42.41235352 C8.84748291 41.92476563 7.9220166 41.43717773 6.96850586 40.93481445 C5.98873779 40.41048828 5.00896973 39.88616211 3.99951172 39.34594727 C2.99073975 38.81259766 1.98196777 38.27924805 0.94262695 37.72973633 C-1.13921226 36.62861444 -3.2196903 35.52491535 -5.29882812 34.41870117 C-9.11854137 32.38851237 -12.94754707 30.37631643 -16.77734375 28.36523438 C-20.31217622 26.50864752 -23.84385272 24.64610686 -27.37548828 22.78344727 C-23.48935898 18.84589471 -19.49317695 15.04617346 -15.43798828 11.28344727 C-14.54563477 10.45006836 -14.54563477 10.45006836 -13.63525391 9.59985352 C-12.45749849 8.50576378 -11.27352336 7.41832591 -10.08300781 6.33813477 C-8.96374619 5.31905298 -7.85971895 4.28292622 -6.7734375 3.22875977 C-2.99256806 -0.27280656 -2.99256806 -0.27280656 0 0 Z " fill="#FDE896" transform="translate(357.37548828125,233.216552734375)"/>
<path d="M0 0 C4.95 0 9.9 0 15 0 C15 26.4 15 52.8 15 80 C10.545 80.99 10.545 80.99 6 82 C4.02 82.99 2.04 83.98 0 85 C0 56.95 0 28.9 0 0 Z " fill="#F9FBFE" transform="translate(107,297)"/>
<path d="M0 0 C-0.49524472 3.72021946 -1.472436 6.19592569 -4 9 C-9.80952808 11.05770991 -15.77561541 11.61667828 -21.875 12.3125 C-23.63245622 12.54536617 -25.38937828 12.78229807 -27.14575195 13.02319336 C-32.42448162 13.73525956 -37.7101207 14.37686961 -43 15 C-44.56982566 15.18553464 -46.13964994 15.37108101 -47.70947266 15.55664062 C-48.81657593 15.68713554 -48.81657593 15.68713554 -49.94604492 15.82026672 C-52.05406875 16.07107988 -54.16111456 16.3289761 -56.26806641 16.58862305 C-58.82872452 16.898218 -61.39232854 17.18457411 -63.95849609 17.44458008 C-65.10012207 17.57759521 -66.24174805 17.71061035 -67.41796875 17.84765625 C-68.89946411 18.0024646 -68.89946411 18.0024646 -70.41088867 18.16040039 C-74.01986854 19.33072399 -75.10253114 20.73240936 -77 24 C-77.46618718 26.78412765 -77.71663822 29.2197541 -77.79296875 32.01171875 C-77.82932938 32.77998489 -77.86569 33.54825104 -77.90315247 34.33979797 C-78.01553487 36.78864207 -78.10232083 39.23757322 -78.1875 41.6875 C-78.28873646 44.11403396 -78.39524702 46.5402966 -78.50222778 48.96658325 C-78.57046995 50.52497782 -78.63648824 52.08347153 -78.70016479 53.64205933 C-78.93104452 59.12405134 -79.36477731 64.54813223 -80 70 C-84.17752761 69.74934834 -86.79446749 69.11958255 -90.4375 67 C-93.58412394 63.31614758 -93.53055762 61.45790046 -93.2109375 56.79296875 C-93.14132813 56.20128906 -93.07171875 55.60960937 -93 55 C-91.68 55 -90.36 55 -89 55 C-88.99589111 53.87505127 -88.99178223 52.75010254 -88.98754883 51.59106445 C-88.96573322 47.40668275 -88.91141903 43.22323815 -88.84741211 39.03930664 C-88.82425315 37.23047892 -88.80984131 35.42151675 -88.80444336 33.61254883 C-88.79513804 31.00777617 -88.75411645 28.40511176 -88.70703125 25.80078125 C-88.71293022 24.59268547 -88.71293022 24.59268547 -88.71894836 23.36018372 C-88.61347207 19.27705316 -88.31696916 17.44156029 -85.87207031 14.03564453 C-82.54035959 11.67421951 -80.37748086 11.13002846 -76.33984375 10.62890625 C-75.68941605 10.54122482 -75.03898834 10.4535434 -74.36885071 10.36320496 C-72.96221983 10.17572389 -71.55430047 9.99771351 -70.14538574 9.82824707 C-67.13224826 9.46557773 -64.1258423 9.05734288 -61.11837769 8.65066528 C-59.53413758 8.43646678 -57.94959613 8.2244865 -56.36477661 8.01461792 C-47.29189804 6.80223419 -38.27338279 5.28218947 -29.25 3.75 C-27.7017693 3.48884902 -26.1535115 3.22785867 -24.60522461 2.96704102 C-21.88524484 2.50826478 -19.16566079 2.04734452 -16.44628906 1.58496094 C-15.30901367 1.39192383 -14.17173828 1.19888672 -13 1 C-11.94006836 0.81083008 -10.88013672 0.62166016 -9.78808594 0.42675781 C-6.49783515 -0.07686376 -3.32326837 -0.06646537 0 0 Z " fill="#F8F9FB" transform="translate(324,318)"/>
<path d="M0 0 C1.42671564 0.46196792 2.85227329 0.92751297 4.27734375 1.39453125 C5.46831665 1.78282104 5.46831665 1.78282104 6.68334961 2.17895508 C9.5919473 3.20979226 12.28554319 4.53836941 15 6 C14.42792741 10.5096002 13.24517555 14.08114548 11.3046875 18.18359375 C10.75643311 19.35188721 10.20817871 20.52018066 9.64331055 21.72387695 C9.20938492 22.63491684 9.20938492 22.63491684 8.76669312 23.56436157 C7.86788906 25.45243762 6.97926375 27.3450142 6.09301758 29.23901367 C3.63152181 34.48995919 1.14694981 39.72826086 -1.41796875 44.9296875 C-1.74716309 45.60588135 -2.07635742 46.2820752 -2.41552734 46.97875977 C-3.24031274 48.66492284 -4.0822446 50.34267026 -4.92578125 52.01953125 C-6.17817164 55.49434532 -6.04773989 58.33270849 -6 62 C-6.66 62.99 -7.32 63.98 -8 65 C-8.55300781 64.84273438 -9.10601562 64.68546875 -9.67578125 64.5234375 C-17.51549432 62.75785506 -23.64331609 63.6350154 -30.41796875 67.90625 C-30.94003906 68.2671875 -31.46210938 68.628125 -32 69 C-30.43317698 63.78418331 -28.19516926 59.07833767 -25.78125 54.21875 C-25.36659485 53.37549667 -24.9519397 52.53224335 -24.52471924 51.66343689 C-23.64127504 49.86685349 -22.75632672 48.07100906 -21.86999512 46.27584839 C-14.31389605 30.96587746 -6.88122475 15.62762357 0 0 Z " fill="#4F86EE" transform="translate(187,314)"/>
<path d="M0 0 C3.21412808 3.81283196 5.16654825 8.17858913 7.30859375 12.640625 C7.71658707 13.48163757 8.12458038 14.32265015 8.54493713 15.18914795 C9.84648055 17.87417304 11.14213907 20.56198761 12.4375 23.25 C13.73059311 25.9230844 15.02487747 28.59558933 16.3193512 31.26800537 C17.12296158 32.92816359 17.92554563 34.58881916 18.72691345 36.25006104 C19.46025301 37.76915787 20.19688474 39.286671 20.93722534 40.80236816 C21.66079549 42.2985845 22.36784018 43.80288 23.06008911 45.31384277 C23.96586467 47.24578468 24.97549528 49.1283112 26 51 C26.99 51.33 27.98 51.66 29 52 C30.1875 55.0625 30.1875 55.0625 31 58 C28.33333333 60 25.66666667 62 23 64 C21.97132813 64.81017578 21.97132813 64.81017578 20.921875 65.63671875 C17.09752599 68.34951917 13.55749449 68.31982417 9 68 C6.5625 66.5 6.5625 66.5 5 65 C5.66 64.29875 6.32 63.5975 7 62.875 C9.47975616 59.31035052 9.54543462 58.29107417 9 54 C7.55102959 50.39475997 5.74847965 46.99706585 3.9375 43.5625 C3.44540039 42.5825708 2.95330078 41.6026416 2.44628906 40.59301758 C0.24839855 36.22411878 -1.9767052 31.94639517 -4.60546875 27.8203125 C-6.77766928 24.24720683 -8.34718719 21.20109471 -9 17 C-7.34148298 10.69250727 -3.67910459 5.30128474 0 0 Z " fill="#4E86EE" transform="translate(329,320)"/>
<path d="M0 0 C4.8726693 2.44171287 7.88193337 6.37738923 9.89453125 11.38671875 C10.95336397 16.31932973 10.33005811 20.22957491 7.89453125 24.63671875 C4.61218739 29.25973828 0.49935441 32.59575755 -5.1171875 33.828125 C-10.41776023 34.15094967 -14.77786174 32.36134885 -19.10546875 29.38671875 C-23.97103124 24.27164023 -24.45877328 19.94044755 -24.38671875 13.11328125 C-23.85766657 7.98441425 -21.20884428 5.35874005 -17.48046875 2.07421875 C-12.31069269 -1.59904318 -6.07991185 -1.77095763 0 0 Z " fill="#243F6B" transform="translate(149.10546875,318.61328125)"/>
<path d="M0 0 C5.28 2.64 10.56 5.28 16 8 C14.65808829 11.35477929 13.31900767 14.4901941 11.71484375 17.703125 C11.27052002 18.59370605 10.82619629 19.48428711 10.3684082 20.40185547 C9.8962085 21.34174316 9.42400879 22.28163086 8.9375 23.25 C8.4530542 24.21695801 7.9686084 25.18391602 7.46948242 26.18017578 C3.10639658 34.85497507 -1.40534345 43.44599743 -6 52 C-6.66 52 -7.32 52 -8 52 C-9.86073789 48.72196272 -11.62432247 45.40042863 -13.375 42.0625 C-13.90222656 41.13630859 -14.42945313 40.21011719 -14.97265625 39.25585938 C-16.40826788 36.45346682 -17.45587141 34.10471699 -18 31 C-17.02998161 28.30591878 -15.70844457 26.55690009 -13.89990234 24.34204102 C-11.83048161 21.79103188 -10.34180603 19.20076538 -8.7890625 16.30859375 C-8.26699219 15.34501953 -7.74492187 14.38144531 -7.20703125 13.38867188 C-6.68496094 12.41478516 -6.16289062 11.44089844 -5.625 10.4375 C-4.80708984 8.92446289 -4.80708984 8.92446289 -3.97265625 7.38085938 C-2.64453807 4.92267573 -1.32171154 2.46163428 0 0 Z " fill="#FCCD70" transform="translate(361,306)"/>
<path d="M0 0 C4.29183459 1.64557388 8.04580299 3.67400176 12 6 C9.79625369 11.7884355 6.88293401 17.20566582 4.0324707 22.69311523 C3.06476209 24.55814036 2.10348956 26.42638747 1.14257812 28.29492188 C0.52382616 29.48978468 -0.09530187 30.68445283 -0.71484375 31.87890625 C-1.27292725 32.9572876 -1.83101074 34.03566895 -2.40600586 35.14672852 C-6.04239236 41.65591047 -6.04239236 41.65591047 -9.3046875 42.828125 C-10.15289062 42.96734375 -11.00109375 43.1065625 -11.875 43.25 C-12.71804688 43.39953125 -13.56109375 43.5490625 -14.4296875 43.703125 C-16.97902977 43.99757791 -19.43626124 44.05513417 -22 44 C-20.45466689 38.71731235 -18.09614065 34.13141829 -15.5 29.3125 C-14.6066321 27.63549056 -13.71340745 25.95840481 -12.8203125 24.28125 C-12.35915039 23.41886719 -11.89798828 22.55648438 -11.42285156 21.66796875 C-9.05411608 17.2263865 -6.71598282 12.7687522 -4.375 8.3125 C-3.52878709 6.70435275 -2.68244616 5.09627284 -1.8359375 3.48828125 C-1.23007812 2.33714844 -0.62421875 1.18601562 0 0 Z " fill="#FBFBFB" transform="translate(301,275)"/>
<path d="M0 0 C4.95 0 9.9 0 15 0 C15 11.22 15 22.44 15 34 C10.05 34 5.1 34 0 34 C0 22.78 0 11.56 0 0 Z " fill="#FFFEFC" transform="translate(107,240)"/>
<path d="M0 0 C11.3261163 -0.02312255 22.65222703 -0.04091464 33.97836208 -0.05181217 C39.23696664 -0.05704119 44.4955551 -0.06413918 49.75415039 -0.07543945 C54.82453127 -0.08626766 59.89489662 -0.09227669 64.96528816 -0.09487724 C66.90426948 -0.09673161 68.84324991 -0.10035245 70.78222466 -0.10573006 C73.4882176 -0.1129396 76.19414556 -0.11399098 78.90014648 -0.11352539 C80.11502495 -0.1189183 80.11502495 -0.1189183 81.35444641 -0.12442017 C86.88594784 -0.11405216 86.88594784 -0.11405216 88 1 C88.08790975 3.29151417 88.10694038 5.58572524 88.09765625 7.87890625 C88.0962413 8.5655687 88.09482635 9.25223114 88.09336853 9.95970154 C88.08775479 12.16067801 88.07520007 14.36155409 88.0625 16.5625 C88.05748676 18.05143083 88.05292355 19.54036324 88.04882812 21.02929688 C88.03778093 24.68623075 88.02050713 28.34310558 88 32 C82.71833268 30.37487159 78.15196391 28.28976174 73 26 C73.33 17.75 73.66 9.5 74 1 C49.58 1 25.16 1 0 1 C0 0.67 0 0.34 0 0 Z " fill="#EFC875" transform="translate(107,279)"/>
<path d="M0 0 C3.80787607 1.63194689 7.19333944 3.81735729 10.625 6.125 C6.08092011 10.72733733 1.35674281 15.11009761 -3.4375 19.44921875 C-5.1494951 21.00868237 -6.84585518 22.58633421 -8.5 24.20703125 C-11.11053021 26.69519286 -12.63490113 28.09350643 -16.3125 28.25 C-20.17055782 26.83275427 -23.76979254 25.09230864 -27.375 23.125 C-23.4888707 19.18744744 -19.49268867 15.38772619 -15.4375 11.625 C-14.54514648 10.79162109 -14.54514648 10.79162109 -13.63476562 9.94140625 C-3.10929552 0.16364713 -3.10929552 0.16364713 0 0 Z " fill="#FBFBFB" transform="translate(357.375,232.875)"/>
<path d="M0 0 C3.74561717 1.66471874 5.82011374 3.56225221 8 7 C8.6635265 10.4005733 8.61221119 13.59147284 8 17 C5.5625 20.0625 5.5625 20.0625 3 22 C2.67 22.33 2.34 22.66 2 23 C-2.07493843 23.53718586 -6.23242614 23.91195544 -9.9609375 21.98828125 C-12.59390581 19.84979723 -13.92257423 18.23227732 -15 15 C-15.57199211 7.90729783 -15.57199211 7.90729783 -13.1875 4.125 C-8.99834003 0.05553031 -5.69166479 -0.72398867 0 0 Z " fill="#FBFBFC" transform="translate(145,323)"/>
<path d="M0 0 C3.37913187 1.30957795 6.62652588 2.75399367 9.86328125 4.3828125 C10.74951172 4.82753906 11.63574219 5.27226562 12.54882812 5.73046875 C13.46083984 6.19066406 14.37285156 6.65085938 15.3125 7.125 C16.24384766 7.59292969 17.17519531 8.06085938 18.13476562 8.54296875 C20.42409489 9.69350346 22.71246641 10.84590035 25 12 C23.79312667 15.89132055 22.40730242 19.34521158 20.375 22.875 C19.92898438 23.65617187 19.48296875 24.43734375 19.0234375 25.2421875 C18.51683594 26.11230469 18.51683594 26.11230469 18 27 C0.65957447 18.42553191 0.65957447 18.42553191 -7 14 C-5.06745228 11.9754262 -3.36841312 10.57894208 -1 9 C-0.42006301 6.80545319 -0.42006301 6.80545319 -0.3125 4.375 C-0.24675781 3.55773437 -0.18101562 2.74046875 -0.11328125 1.8984375 C-0.07589844 1.27195313 -0.03851563 0.64546875 0 0 Z " fill="#F89193" transform="translate(363,182)"/>
<path d="M0 0 C4.50727647 0.60266785 7.8587963 2.36599794 11.8125 4.5625 C12.7087207 5.0565332 12.7087207 5.0565332 13.62304688 5.56054688 C15.08533998 6.36773267 16.5431399 7.18304917 18 8 C16.65150163 12.35970831 14.95092154 16.31341438 12.875 20.375 C12.33617187 21.43460937 11.79734375 22.49421875 11.2421875 23.5859375 C10.83226562 24.38257813 10.42234375 25.17921875 10 26 C5.64029169 24.65150163 1.68658562 22.95092154 -2.375 20.875 C-3.43460937 20.33617187 -4.49421875 19.79734375 -5.5859375 19.2421875 C-6.38257813 18.83226562 -7.17921875 18.42234375 -8 18 C-7.39733215 13.49272353 -5.63400206 10.1412037 -3.4375 6.1875 C-2.9434668 5.2912793 -2.9434668 5.2912793 -2.43945312 4.37695312 C-1.63226733 2.91466002 -0.81695083 1.4568601 0 0 Z " fill="#FA9192" transform="translate(364,280)"/>
<path d="M0 0 C6.16356805 1.6658292 11.48259656 4.87805286 17 8 C16.47729735 12.90309806 14.9987369 16.18388507 12.4375 20.375 C11.79683594 21.43460937 11.15617187 22.49421875 10.49609375 23.5859375 C10.00238281 24.38257813 9.50867188 25.17921875 9 26 C4.64029169 24.65150163 0.68658562 22.95092154 -3.375 20.875 C-4.43460937 20.33617187 -5.49421875 19.79734375 -6.5859375 19.2421875 C-7.38257813 18.83226562 -8.17921875 18.42234375 -9 18 C-7.70333967 13.77175979 -6.08774719 10.04949188 -3.9375 6.1875 C-3.41027344 5.23230469 -2.88304687 4.27710938 -2.33984375 3.29296875 C-1 1 -1 1 0 0 Z " fill="#F99192" transform="translate(342,268)"/>
<path d="M0 0 C4.14032846 1.54385129 7.93553053 3.51028938 11.8125 5.625 C12.40998047 5.94984375 13.00746094 6.2746875 13.62304688 6.609375 C15.08337135 7.40379151 16.54187491 8.20155376 18 9 C16.69721449 13.26251183 15.0542834 16.99019046 12.875 20.875 C12.33617187 21.84179688 11.79734375 22.80859375 11.2421875 23.8046875 C10.83226562 24.52914063 10.42234375 25.25359375 10 26 C5.49272353 25.39733215 2.1412037 23.63400206 -1.8125 21.4375 C-2.40998047 21.10814453 -3.00746094 20.77878906 -3.62304688 20.43945312 C-5.08533998 19.63226733 -6.5431399 18.81695083 -8 18 C-7.39733215 13.49272353 -5.63400206 10.1412037 -3.4375 6.1875 C-2.9434668 5.2912793 -2.9434668 5.2912793 -2.43945312 4.37695312 C-1.63226733 2.91466002 -0.81695083 1.4568601 0 0 Z " fill="#FA9293" transform="translate(319,256)"/>
<path d="M0 0 C3.3 1.65 6.6 3.3 10 5 C10.17107065 12.68392329 9.52642643 20.01464906 8.5 27.625 C8.28537109 29.27435547 8.28537109 29.27435547 8.06640625 30.95703125 C7.71660766 33.63882045 7.36104277 36.31970553 7 39 C2.2026522 38.11236977 -0.84575052 36.52513204 -5 34 C-4.87447754 33.42459473 -4.74895508 32.84918945 -4.61962891 32.25634766 C-3.16553169 25.33122682 -2.21135649 18.39868763 -1.375 11.375 C-1.17390625 9.72564453 -1.17390625 9.72564453 -0.96875 8.04296875 C-0.64241899 5.36239262 -0.32072402 2.68125277 0 0 Z " fill="#FBCC70" transform="translate(370,240)"/>
<path d="M0 0 C4.95 2.31 9.9 4.62 15 7 C13.50748294 11.47755118 11.99752948 15.22222494 9.875 19.375 C9.33617187 20.43460937 8.79734375 21.49421875 8.2421875 22.5859375 C7.83226562 23.38257813 7.42234375 24.17921875 7 25 C2.85701333 24.40165275 -0.18194377 22.99335715 -3.8125 20.9375 C-4.78832031 20.38964844 -5.76414062 19.84179688 -6.76953125 19.27734375 C-7.50558594 18.85582031 -8.24164063 18.43429687 -9 18 C-6.64119414 11.67411157 -3.22713122 5.91640723 0 0 Z " fill="#F86465" transform="translate(387,291)"/>
<path d="M0 0 C3.75345656 0.71971619 6.86091969 2.33112202 10.25 4.0625 C11.32765625 4.61035156 12.4053125 5.15820312 13.515625 5.72265625 C14.74539063 6.35494141 14.74539063 6.35494141 16 7 C14.45614871 11.14032846 12.48971062 14.93553053 10.375 18.8125 C10.05015625 19.40998047 9.7253125 20.00746094 9.390625 20.62304688 C8.59620849 22.08337135 7.79844624 23.54187491 7 25 C3.10867945 23.79312667 -0.34521158 22.40730242 -3.875 20.375 C-4.65617187 19.92898438 -5.43734375 19.48296875 -6.2421875 19.0234375 C-6.82226562 18.68570312 -7.40234375 18.34796875 -8 18 C-6.65150163 13.64029169 -4.95092154 9.68658562 -2.875 5.625 C-2.33617187 4.56539062 -1.79734375 3.50578125 -1.2421875 2.4140625 C-0.83226562 1.61742187 -0.42234375 0.82078125 0 0 Z " fill="#FAF9FA" transform="translate(299,246)"/>
<path d="M0 0 C4.95 0 9.9 0 15 0 C15 4.95 15 9.9 15 15 C10.05 15 5.1 15 0 15 C0 10.05 0 5.1 0 0 Z " fill="#4E85EC" transform="translate(258,96)"/>
<path d="M0 0 C2.9375 1.5625 2.9375 1.5625 5 4 C5.625 7.4375 5.625 7.4375 5 11 C2.55401113 14.38121991 1.10703441 15.76936783 -3 16.625 C-7.10703441 15.76936783 -8.55401113 14.38121991 -11 11 C-11.63007693 7.00951279 -11.63021887 4.98314143 -9.4375 1.5625 C-6.04295632 -0.61348954 -3.9634351 -0.55627159 0 0 Z " fill="#F6E394" transform="translate(258,204)"/>
<path d="M0 0 C4.95 0 9.9 0 15 0 C15 3.96 15 7.92 15 12 C10.05 12 5.1 12 0 12 C0 8.04 0 4.08 0 0 Z " fill="#FDFDFC" transform="translate(107,280)"/>
<path d="M0 0 C4.62 0 9.24 0 14 0 C14 3.96 14 7.92 14 12 C9.38 12 4.76 12 0 12 C0 8.04 0 4.08 0 0 Z " fill="#79A2EF" transform="translate(130,222)"/>
<path d="M0 0 C4.62 0 9.24 0 14 0 C14 3.96 14 7.92 14 12 C9.38 12 4.76 12 0 12 C0 8.04 0 4.08 0 0 Z " fill="#FFFFFF" transform="translate(110,222)"/>
<path d="M0 0 C1.67299959 0.65061095 3.33859237 1.32033324 5 2 C6.051875 2.37125 6.051875 2.37125 7.125 2.75 C9 4 9 4 9.609375 6.3828125 C9.65578125 7.28773438 9.7021875 8.19265625 9.75 9.125 C9.80671875 10.03507813 9.8634375 10.94515625 9.921875 11.8828125 C9.94765625 12.58148438 9.9734375 13.28015625 10 14 C3.16540435 18.19789885 3.16540435 18.19789885 -1.3125 17.4375 C-3.71395644 16.15300004 -5.28821166 15.09218575 -7 13 C-6.030625 12.525625 -5.06125 12.05125 -4.0625 11.5625 C-0.70665906 8.75455145 -0.54308417 8.33436074 -0.125 4.25 C-0.05650211 2.83437696 -0.00605669 1.41726634 0 0 Z " fill="#F9F7F8" transform="translate(363,182)"/>
<path d="M0 0 C2.475 0.99 2.475 0.99 5 2 C3.45614871 6.14032846 1.48971062 9.93553053 -0.625 13.8125 C-0.94984375 14.40998047 -1.2746875 15.00746094 -1.609375 15.62304688 C-2.40379151 17.08337135 -3.20155376 18.54187491 -4 20 C-5.98 19.34 -7.96 18.68 -10 18 C-8.71024828 15.56146943 -7.41828475 13.12415588 -6.125 10.6875 C-5.57779297 9.65206055 -5.57779297 9.65206055 -5.01953125 8.59570312 C-4.66503906 7.92861328 -4.31054688 7.26152344 -3.9453125 6.57421875 C-3.62062988 5.96151123 -3.29594727 5.34880371 -2.96142578 4.7175293 C-2.05452942 3.09741352 -1.0298971 1.54484566 0 0 Z " fill="#F69294" transform="translate(310,251)"/>
<path d="M0 0 C4.62 0 9.24 0 14 0 C14 3.96 14 7.92 14 12 C13.01 12 12.02 12 11 12 C11 8.37 11 4.74 11 1 C7.7 1 4.4 1 1 1 C1 4.63 1 8.26 1 12 C0.67 12 0.34 12 0 12 C0 8.04 0 4.08 0 0 Z " fill="#BACDEF" transform="translate(110,222)"/>
</svg>
