<?xml version="1.0" encoding="UTF-8"?>
<svg version="1.1" xmlns="http://www.w3.org/2000/svg" width="512" height="512">
<path d="M0 0 C16.94661751 6.14314885 32.25330687 23.89294789 39.90722656 39.89697266 C44 49.25083805 44 49.25083805 44 53 C45.258125 52.95359375 46.51625 52.9071875 47.8125 52.859375 C71.30202062 52.25489073 94.30231035 59.30570862 113 74 C111.08599274 87.04792755 98.35904696 98.81256584 88.375 106.6875 C76.56921953 115.10274585 63.90512827 121.02233109 50 125 C49.175 125.24492187 48.35 125.48984375 47.5 125.7421875 C43.60100822 126.8203178 40.03847578 127.20192379 36 127 C35.64421875 128.00546875 35.64421875 128.00546875 35.28125 129.03125 C33.67571784 132.75138549 31.65292815 136.07449417 29.5 139.5 C29.05857666 140.20342529 28.61715332 140.90685059 28.16235352 141.6315918 C23.83708253 148.41968328 19.04501914 154.73637721 14 161 C12.90751953 162.38251953 12.90751953 162.38251953 11.79296875 163.79296875 C-1.66736611 180.60019769 -16.95539493 196.82916881 -34 210 C-35.33724725 211.07519598 -36.67306832 212.15216704 -38.0078125 213.23046875 C-66.26624256 235.88231603 -98.59182375 252.83344507 -133 264 C-134.19761963 264.39614502 -134.19761963 264.39614502 -135.41943359 264.80029297 C-149.38445708 269.38535753 -163.52336152 272.50347902 -178 275 C-178.92151855 275.16661133 -179.84303711 275.33322266 -180.79248047 275.50488281 C-210.82747975 280.74487005 -245.29115647 281.03828355 -275 274 C-275.83160645 273.81808105 -276.66321289 273.63616211 -277.52001953 273.44873047 C-306.07742034 267.16688822 -330.76799345 254.03682738 -352 234 C-352.73734375 233.32710937 -353.4746875 232.65421875 -354.234375 231.9609375 C-381.35538895 206.28253068 -393.22917574 168.05462061 -398 132 C-398.08388568 131.40031749 -398.16777136 130.80063498 -398.25419903 130.18278027 C-399.33100981 121.27319406 -399.10905337 112.33257166 -399.0625 103.375 C-399.05747477 101.68619924 -399.05291368 99.99739704 -399.04882812 98.30859375 C-399.03790399 94.20569289 -399.0206958 90.10286273 -399 86 C-398.21551733 85.99902319 -397.43103466 85.99804638 -396.62277979 85.99703997 C-350.14370252 85.93878727 -303.6646722 85.86500514 -257.18565276 85.77101372 C-251.60676027 85.75974535 -246.02786752 85.74860693 -240.44897461 85.73754883 C-238.78296583 85.7342433 -238.78296583 85.7342433 -237.0833003 85.730871 C-219.09169342 85.69548389 -201.10008659 85.67062773 -183.1084578 85.64965298 C-164.65190357 85.62790219 -146.19539456 85.59485863 -127.73887879 85.55129844 C-116.34721395 85.52476931 -104.95560547 85.50708322 -93.56391127 85.50065396 C-85.75568695 85.49540395 -77.94753361 85.47919997 -70.13934731 85.45433434 C-65.63222744 85.44030613 -61.12523465 85.43115348 -56.61809158 85.43499184 C-52.49178996 85.43839935 -48.36575988 85.42805292 -44.23951388 85.40676448 C-42.74681095 85.4014915 -41.25407985 85.40126704 -39.76137715 85.40660437 C-29.41979818 85.63189011 -29.41979818 85.63189011 -20 82 C-17.59619812 77.50013527 -17.78737947 72.93813386 -17.9453125 67.953125 C-17.97065706 66.36849914 -17.99537496 64.78386317 -18.01953125 63.19921875 C-18.06851656 60.7446181 -18.12387542 58.2905751 -18.19189453 55.83642578 C-18.71375843 35.68097345 -15.92125456 16.73705538 -1.5390625 1.546875 C-1.03117187 1.03640625 -0.52328125 0.5259375 0 0 Z " fill="#1982C2" transform="translate(399,170)"/>
<path d="M0 0 C0.99 0 1.98 0 3 0 C1.08599274 13.04792755 -11.64095304 24.81256584 -21.625 32.6875 C-33.43078047 41.10274585 -46.09487173 47.02233109 -60 51 C-60.825 51.24492187 -61.65 51.48984375 -62.5 51.7421875 C-66.39899178 52.8203178 -69.96152422 53.20192379 -74 53 C-74.35578125 54.00546875 -74.35578125 54.00546875 -74.71875 55.03125 C-76.32428216 58.75138549 -78.34707185 62.07449417 -80.5 65.5 C-80.94142334 66.20342529 -81.38284668 66.90685059 -81.83764648 67.6315918 C-86.16291747 74.41968328 -90.95498086 80.73637721 -96 87 C-96.72832031 87.92167969 -97.45664062 88.84335937 -98.20703125 89.79296875 C-111.66736611 106.60019769 -126.95539493 122.82916881 -144 136 C-145.33724725 137.07519598 -146.67306832 138.15216704 -148.0078125 139.23046875 C-176.26624256 161.88231603 -208.59182375 178.83344507 -243 190 C-243.79841309 190.26409668 -244.59682617 190.52819336 -245.41943359 190.80029297 C-259.38445708 195.38535753 -273.52336152 198.50347902 -288 201 C-288.92151855 201.16661133 -289.84303711 201.33322266 -290.79248047 201.50488281 C-320.82747975 206.74487005 -355.29115647 207.03828355 -385 200 C-386.24740967 199.72712158 -386.24740967 199.72712158 -387.52001953 199.44873047 C-416.07742034 193.16688822 -440.76799345 180.03682738 -462 160 C-462.73734375 159.32710937 -463.4746875 158.65421875 -464.234375 157.9609375 C-477.18907046 145.69532159 -490.27640176 127.31986023 -495 110 C-494.62109375 107.16015625 -494.62109375 107.16015625 -494 105 C-492.21722363 107.67416456 -490.82764621 110.35123339 -489.43823242 113.2409668 C-482.64685075 127.29924283 -474.46293153 139.42041057 -464 151 C-462.92492187 152.20076172 -462.92492187 152.20076172 -461.828125 153.42578125 C-436.83349098 179.87686951 -398.40736959 193.17083222 -363 197 C-362.0821875 197.10957031 -361.164375 197.21914063 -360.21875 197.33203125 C-282.85467814 204.9666436 -203.38741635 177.12071434 -143.83203125 128.421875 C-118.03637316 107.069262 -95.88973914 82.53772607 -78.69140625 53.7421875 C-78.13324219 52.83726562 -77.57507813 51.93234375 -77 51 C-76.38511719 49.88625 -76.38511719 49.88625 -75.7578125 48.75 C-73.08486588 46.08893314 -69.89263043 45.78934588 -66.3125 45.125 C-43.28379281 40.26256129 -19.20906792 28.78676491 -5.70703125 8.69921875 C-4.33779691 6.57678082 -2.99611091 4.4361421 -1.69140625 2.2734375 C-1.13324219 1.52320313 -0.57507813 0.77296875 0 0 Z " fill="#1274B0" transform="translate(509,244)"/>
<path d="M0 0 C17.82 0 35.64 0 54 0 C54 17.82 54 35.64 54 54 C36.18 54 18.36 54 0 54 C0 36.18 0 18.36 0 0 Z " fill="#157FC1" transform="translate(298,192)"/>
<path d="M0 0 C17.82 0 35.64 0 54 0 C54 17.82 54 35.64 54 54 C36.18 54 18.36 54 0 54 C0 36.18 0 18.36 0 0 Z " fill="#1B83C3" transform="translate(234,192)"/>
<path d="M0 0 C17.82 0 35.64 0 54 0 C54 17.82 54 35.64 54 54 C36.18 54 18.36 54 0 54 C0 36.18 0 18.36 0 0 Z " fill="#2286C4" transform="translate(170,192)"/>
<path d="M0 0 C17.82 0 35.64 0 54 0 C54 17.82 54 35.64 54 54 C36.18 54 18.36 54 0 54 C0 36.18 0 18.36 0 0 Z " fill="#288AC6" transform="translate(106,192)"/>
<path d="M0 0 C17.82 0 35.64 0 54 0 C54 17.82 54 35.64 54 54 C36.18 54 18.36 54 0 54 C0 36.18 0 18.36 0 0 Z " fill="#2F8DC8" transform="translate(42,192)"/>
<path d="M0 0 C17.82 0 35.64 0 54 0 C54 17.82 54 35.64 54 54 C36.18 54 18.36 54 0 54 C0 36.18 0 18.36 0 0 Z " fill="#1E85C3" transform="translate(234,128)"/>
<path d="M0 0 C17.82 0 35.64 0 54 0 C54 17.82 54 35.64 54 54 C36.18 54 18.36 54 0 54 C0 36.18 0 18.36 0 0 Z " fill="#2588C5" transform="translate(170,128)"/>
<path d="M0 0 C17.82 0 35.64 0 54 0 C54 17.82 54 35.64 54 54 C36.18 54 18.36 54 0 54 C0 36.18 0 18.36 0 0 Z " fill="#2B8CC7" transform="translate(106,128)"/>
<path d="M0 0 C17.82 0 35.64 0 54 0 C54 17.82 54 35.64 54 54 C36.18 54 18.36 54 0 54 C0 36.18 0 18.36 0 0 Z " fill="#2186C4" transform="translate(234,64)"/>
<path d="M0 0 C0.33 0 0.66 0 1 0 C1.41750113 6.05376634 1.11311805 9.181776 -3 14 C-6.40640273 15.13546758 -9.05256295 15.15565931 -12.64663696 15.19639587 C-13.3322214 15.20540308 -14.01780584 15.21441029 -14.72416556 15.22369045 C-17.05257123 15.25285908 -19.38098717 15.27481771 -21.70947266 15.29663086 C-23.4065675 15.31579323 -25.10365886 15.33526605 -26.80074692 15.35502052 C-31.535074 15.40834751 -36.26944782 15.45440273 -41.00386763 15.49864316 C-44.06306412 15.52757071 -47.12223971 15.55818679 -50.18141556 15.58921623 C-110.75980735 16.19830678 -171.34204636 16.33063741 -231.92287946 16.51740968 C-243.31773231 16.55260022 -254.71257844 16.58957302 -266.10742188 16.62768555 C-266.92207162 16.63040982 -267.73672137 16.63313409 -268.57605748 16.63594092 C-272.66714194 16.64963081 -276.75822631 16.66334901 -280.84931064 16.67708123 C-314.23286023 16.7891012 -347.61642353 16.89629118 -381 17 C-381 14.69 -381 12.38 -381 10 C-380.21551733 9.99902319 -379.43103466 9.99804638 -378.62277979 9.99703997 C-332.14370252 9.93878727 -285.6646722 9.86500514 -239.18565276 9.77101372 C-233.60676027 9.75974535 -228.02786752 9.74860693 -222.44897461 9.73754883 C-220.78296583 9.7342433 -220.78296583 9.7342433 -219.0833003 9.730871 C-201.09169342 9.69548389 -183.10008659 9.67062773 -165.1084578 9.64965298 C-146.65190357 9.62790219 -128.19539456 9.59485863 -109.73887879 9.55129844 C-98.34721395 9.52476931 -86.95560547 9.50708322 -75.56391127 9.50065396 C-67.75568695 9.49540395 -59.94753361 9.47919997 -52.13934731 9.45433434 C-47.63222744 9.44030613 -43.12523465 9.43115348 -38.61809158 9.43499184 C-34.49178996 9.43839935 -30.36575988 9.42805292 -26.23951388 9.40676448 C-24.74681095 9.4014915 -23.25407985 9.40126704 -21.76137715 9.40660437 C-11.41022414 9.65368888 -11.41022414 9.65368888 -2 6 C-0.48026848 2.94818931 -0.48026848 2.94818931 0 0 Z " fill="#4A9CCE" transform="translate(381,246)"/>
<path d="M0 0 C16.94661751 6.14314885 32.25330687 23.89294789 39.90722656 39.89697266 C44 49.25083805 44 49.25083805 44 53 C45.8871875 52.93039063 45.8871875 52.93039063 47.8125 52.859375 C70.19430305 52.28339696 90.2584963 58.65396492 109 71 C109.33 71.66 109.66 72.32 110 73 C105.32056336 71.44871135 100.6469609 69.88254213 95.984375 68.28125 C78.35292875 62.25856127 62.71548543 58.76039919 44 59 C43.56300781 57.89205078 43.56300781 57.89205078 43.1171875 56.76171875 C34.62715393 35.75022058 20.77571923 16.38785961 0 6 C-0.40605469 6.88945312 -0.40605469 6.88945312 -0.8203125 7.796875 C-1.98224105 9.96683429 -3.19984462 11.46201032 -4.875 13.25 C-11.87641857 21.35601131 -13.67185343 30.79578311 -16 41 C-16.33 41 -16.66 41 -17 41 C-17.79294911 27.25554871 -12.69939812 14.01290336 -3.625 3.75 C-2.42969148 2.48753931 -1.22622702 1.23245152 0 0 Z " fill="#3791CA" transform="translate(399,170)"/>
<path d="M0 0 C17.82 0 35.64 0 54 0 C54 1.98 54 3.96 54 6 C36.18 6 18.36 6 0 6 C0 4.02 0 2.04 0 0 Z " fill="#1375B0" transform="translate(298,240)"/>
<path d="M0 0 C17.82 0 35.64 0 54 0 C54 1.98 54 3.96 54 6 C36.18 6 18.36 6 0 6 C0 4.02 0 2.04 0 0 Z " fill="#1978B2" transform="translate(234,240)"/>
<path d="M0 0 C17.82 0 35.64 0 54 0 C54 1.98 54 3.96 54 6 C36.18 6 18.36 6 0 6 C0 4.02 0 2.04 0 0 Z " fill="#1F7CB4" transform="translate(170,240)"/>
<path d="M0 0 C17.82 0 35.64 0 54 0 C54 1.98 54 3.96 54 6 C36.18 6 18.36 6 0 6 C0 4.02 0 2.04 0 0 Z " fill="#2680B6" transform="translate(106,240)"/>
<path d="M0 0 C17.82 0 35.64 0 54 0 C54 1.98 54 3.96 54 6 C36.18 6 18.36 6 0 6 C0 4.02 0 2.04 0 0 Z " fill="#2C83B8" transform="translate(42,240)"/>
<path d="M0 0 C17.82 0 35.64 0 54 0 C54 1.98 54 3.96 54 6 C36.18 6 18.36 6 0 6 C0 4.02 0 2.04 0 0 Z " fill="#1C7AB3" transform="translate(234,176)"/>
<path d="M0 0 C17.82 0 35.64 0 54 0 C54 1.98 54 3.96 54 6 C36.18 6 18.36 6 0 6 C0 4.02 0 2.04 0 0 Z " fill="#227DB5" transform="translate(170,176)"/>
<path d="M0 0 C17.82 0 35.64 0 54 0 C54 1.98 54 3.96 54 6 C36.18 6 18.36 6 0 6 C0 4.02 0 2.04 0 0 Z " fill="#2981B7" transform="translate(106,176)"/>
<path d="M0 0 C17.82 0 35.64 0 54 0 C54 1.98 54 3.96 54 6 C36.18 6 18.36 6 0 6 C0 4.02 0 2.04 0 0 Z " fill="#1F7CB4" transform="translate(234,112)"/>
<path d="M0 0 C17.82 0 35.64 0 54 0 C54 1.65 54 3.3 54 5 C36.18 5 18.36 5 0 5 C0 3.35 0 1.7 0 0 Z " fill="#4499CD" transform="translate(298,192)"/>
<path d="M0 0 C17.82 0 35.64 0 54 0 C54 1.65 54 3.3 54 5 C36.18 5 18.36 5 0 5 C0 3.35 0 1.7 0 0 Z " fill="#499CCE" transform="translate(234,192)"/>
<path d="M0 0 C17.82 0 35.64 0 54 0 C54 1.65 54 3.3 54 5 C36.18 5 18.36 5 0 5 C0 3.35 0 1.7 0 0 Z " fill="#4E9FD0" transform="translate(170,192)"/>
<path d="M0 0 C17.82 0 35.64 0 54 0 C54 1.65 54 3.3 54 5 C36.18 5 18.36 5 0 5 C0 3.35 0 1.7 0 0 Z " fill="#53A2D1" transform="translate(106,192)"/>
<path d="M0 0 C17.82 0 35.64 0 54 0 C54 1.65 54 3.3 54 5 C36.18 5 18.36 5 0 5 C0 3.35 0 1.7 0 0 Z " fill="#59A5D2" transform="translate(42,192)"/>
<path d="M0 0 C17.82 0 35.64 0 54 0 C54 1.65 54 3.3 54 5 C36.18 5 18.36 5 0 5 C0 3.35 0 1.7 0 0 Z " fill="#4C9ECF" transform="translate(234,128)"/>
<path d="M0 0 C17.82 0 35.64 0 54 0 C54 1.65 54 3.3 54 5 C36.18 5 18.36 5 0 5 C0 3.35 0 1.7 0 0 Z " fill="#51A0D0" transform="translate(170,128)"/>
<path d="M0 0 C17.82 0 35.64 0 54 0 C54 1.65 54 3.3 54 5 C36.18 5 18.36 5 0 5 C0 3.35 0 1.7 0 0 Z " fill="#56A3D2" transform="translate(106,128)"/>
<path d="M0 0 C17.82 0 35.64 0 54 0 C54 1.65 54 3.3 54 5 C36.18 5 18.36 5 0 5 C0 3.35 0 1.7 0 0 Z " fill="#4E9FD0" transform="translate(234,64)"/>
<path d="M0 0 C0.33 0 0.66 0 1 0 C1.06469482 0.69746338 1.12938965 1.39492676 1.19604492 2.11352539 C3.15908887 22.70947922 5.86540408 42.88115098 13.20825195 62.33227539 C14.65745137 66.28032142 15.34150073 68.94393307 14 73 C1.55412937 54.33119406 -0.68366181 21.8391966 0 0 Z " fill="#2C83BB" transform="translate(0,279)"/>
</svg>
