<?xml version="1.0" encoding="UTF-8"?>
<svg version="1.1" xmlns="http://www.w3.org/2000/svg" width="512" height="512">
<path d="M0 0 C1.49660156 0.46792969 1.49660156 0.46792969 3.0234375 0.9453125 C12.02647007 4.16261243 19.19294098 9.68324164 24 18 C30.41174714 31.5703171 32.55333547 45.5011095 32.4375 60.4375 C32.43412628 61.13109619 32.43075256 61.82469238 32.42727661 62.53930664 C32.27752134 83.95951638 27.60109321 103.70180904 21 124 C20.55962402 125.35810791 20.55962402 125.35810791 20.11035156 126.74365234 C2.22776714 180.85576 -30.39673127 230.71467874 -67 274 C-67.55526367 274.65967773 -68.11052734 275.31935547 -68.68261719 275.99902344 C-70.28384007 277.89911604 -71.89028475 279.79459881 -73.5 281.6875 C-74.20213623 282.51568237 -74.20213623 282.51568237 -74.91845703 283.3605957 C-75.59303955 284.14696411 -75.59303955 284.14696411 -76.28125 284.94921875 C-76.90673737 285.68088005 -76.90673737 285.68088005 -77.54486084 286.42732239 C-79 288 -79 288 -81.89501953 290.34521484 C-86.54602517 295.00740979 -87.68807938 301.35716234 -89.3984375 307.52734375 C-89.79300096 308.89450419 -90.18932588 310.26115733 -90.58728027 311.62733459 C-91.43209229 314.54130013 -92.26456359 317.45839936 -93.08734131 320.37866211 C-94.38070924 324.96860396 -95.70229618 329.55012123 -97.02783203 334.13085938 C-99.49503815 342.6716058 -101.93346681 351.22040373 -104.36578369 359.77114105 C-105.37393641 363.31414392 -106.38391736 366.85662425 -107.39453125 370.39892578 C-107.67979203 371.39881137 -107.67979203 371.39881137 -107.97081566 372.41889668 C-109.59404102 378.10510582 -111.22807856 383.78818574 -112.86407471 389.47073364 C-113.8528809 392.92277945 -114.82634023 396.37888389 -115.79833984 399.83569336 C-124.27315779 429.64190807 -124.27315779 429.64190807 -137.1484375 437.2734375 C-145.88537552 441.85302211 -155.4385927 442.23234553 -165.078125 440.421875 C-176.51682387 436.82685535 -184.43242428 426.67517326 -192.42709541 418.22015572 C-195.49848248 414.98600067 -198.6112407 411.79146196 -201.71577549 408.58917332 C-204.41653735 405.79883685 -207.10196253 402.99632512 -209.7590332 400.16430664 C-222.728425 384.87306365 -222.728425 384.87306365 -240.33984375 377.71484375 C-242.90160929 377.72661466 -245.43977237 377.8712792 -248 378 C-251.75001023 377.23685386 -255.36132456 376.17883653 -259 375 C-259.83660156 375.86278564 -260.67320312 376.72557129 -261.53515625 377.61450195 C-264.66068914 380.83095603 -267.80308627 384.03048893 -270.95068359 387.2253418 C-272.30718654 388.60689334 -273.6591564 389.99291175 -275.00634766 391.38354492 C-276.95062601 393.38889632 -278.91097748 395.37728578 -280.875 397.36328125 C-281.46804932 397.98213699 -282.06109863 398.60099274 -282.67211914 399.23860168 C-287.20623055 403.7756654 -291.80257943 406.74991214 -298.42578125 407.14453125 C-301.88101878 406.53646667 -304.0440327 405.97064487 -307 404 C-307.63615234 405.57587891 -307.63615234 405.57587891 -308.28515625 407.18359375 C-319.95132019 435.3751442 -344.95448687 452.05544856 -372.14794922 463.81933594 C-385.8452761 469.48962123 -399.96623765 471.81495503 -414.5625 473.875 C-415.33717621 473.984953 -416.11185242 474.09490601 -416.91000366 474.20819092 C-441.27603529 477.60233218 -441.27603529 477.60233218 -447.1875 474.125 C-451.42962571 469.1514733 -450.2691839 463.24630757 -450 457 C-449.56321934 451.8347273 -448.8652148 446.7035444 -448.13842773 441.57226562 C-447.81513653 439.26878551 -447.51521921 436.96306694 -447.21679688 434.65625 C-445.38307278 421.09795557 -442.05867155 407.93467032 -436.6875 395.3125 C-436.39464111 394.61664795 -436.10178223 393.9207959 -435.80004883 393.20385742 C-426.26550619 371.13273747 -410.39972084 346.8376506 -387.8359375 336.55859375 C-384.09954584 335.14389137 -381.0126882 334 -377 334 C-377.16757812 333.43152344 -377.33515625 332.86304688 -377.5078125 332.27734375 C-378.93648514 326.86104684 -379.48133835 323.23838096 -377 318 C-372.61818947 312.49284685 -367.69629559 307.63225874 -362.38671875 303.02734375 C-352.48055809 295.14193393 -352.48055809 295.14193393 -346.42138672 284.55810547 C-346.5689375 279.99174624 -348.18886637 276.25473217 -350.20671082 272.21968079 C-351.12972694 269.63701461 -350.97798337 267.76219427 -350.87353516 265.03222656 C-351.56683487 256.63534555 -357.9634334 251.87949106 -363.734375 246.4296875 C-364.93413041 245.25880145 -366.13137804 244.08534083 -367.32623291 242.90945435 C-370.46644495 239.82983179 -373.63371029 236.77973732 -376.80957031 233.73693848 C-381.8835691 228.86818511 -386.91914329 223.96000447 -391.94672394 219.04339981 C-393.69638758 217.34163497 -395.45996069 215.6554017 -397.22601318 213.97067261 C-405.26546906 206.22133542 -412.14577327 198.29394555 -413.3359375 186.73828125 C-413.46233422 175.6532885 -411.46976256 166.69605459 -404.11061096 158.13493347 C-397.20130559 151.14600582 -388.10841232 148.43534469 -378.87890625 145.85546875 C-377.5958652 145.48569699 -376.31319017 145.11465326 -375.03085327 144.7424469 C-372.29939294 143.95250863 -369.56559176 143.1715346 -366.82955933 142.39758301 C-362.51184903 141.17576723 -358.20112195 139.9304412 -353.89086914 138.68261719 C-340.62929207 134.85044575 -327.3492728 131.08638191 -314.04988098 127.38764954 C-309.28433167 126.06183614 -304.52249163 124.72291144 -299.76142406 123.38110256 C-295.30969798 122.12854111 -290.84950464 120.90963775 -286.38696289 119.69604492 C-284.05842475 119.04333735 -281.73020026 118.38950943 -279.40234375 117.734375 C-278.35936127 117.45896378 -277.31637878 117.18355255 -276.24179077 116.89979553 C-269.33534545 114.9183422 -265.04346862 112.05974421 -260 107 C-258.8677285 106.00473824 -257.72836711 105.01740592 -256.578125 104.04296875 C-256.03462402 103.57592529 -255.49112305 103.10888184 -254.93115234 102.62768555 C-252.53220661 100.57259102 -250.12993622 98.52142456 -247.72558594 96.47265625 C-246.19106361 95.16305825 -244.66157426 93.84756803 -243.1328125 92.53125 C-233.76634817 84.57108201 -223.90355545 77.27344373 -214 70 C-213.28183105 69.47116211 -212.56366211 68.94232422 -211.82373047 68.39746094 C-192.57238118 54.29542268 -172.13607806 42.04587886 -151 31 C-150.0625293 30.5040332 -149.12505859 30.00806641 -148.15917969 29.49707031 C-118.85630618 14.05728214 -87.80793514 2.14407765 -55 -3 C-53.88923096 -3.1750708 -52.77846191 -3.3501416 -51.6340332 -3.53051758 C-34.68880062 -5.71967997 -16.32235495 -5.15629949 0 0 Z " fill="#E8E8FE" transform="translate(465,20)"/>
<path d="M0 0 C3 1.9375 3 1.9375 5 5 C5.89668488 9.84190848 5.58523664 13.12205838 2.83605957 17.24623108 C1.83625346 18.27182828 0.81155546 19.273552 -0.23242188 20.25415039 C-0.7883754 20.81141815 -1.34432892 21.36868591 -1.91712952 21.94284058 C-3.74714296 23.76661872 -5.60684901 25.55649399 -7.46875 27.34765625 C-8.74866037 28.61076797 -10.02658865 29.87589103 -11.3026123 31.14292908 C-14.6565758 34.46262866 -18.03667907 37.7544085 -21.42303467 41.04101562 C-24.87771468 44.40341247 -28.30686537 47.79162799 -31.73828125 51.17773438 C-38.46750859 57.81061462 -45.22464581 64.41426744 -52 71 C-50.63886987 74.04581486 -49.10669904 76.13839026 -46.74365234 78.48339844 C-46.08311859 79.14378113 -45.42258484 79.80416382 -44.74203491 80.48455811 C-44.03052277 81.18574768 -43.31901062 81.88693726 -42.5859375 82.609375 C-41.49147812 83.69958954 -41.49147812 83.69958954 -40.37490845 84.81182861 C-38.0462612 87.12929198 -35.71075174 89.4396995 -33.375 91.75 C-31.79381347 93.32115444 -30.21307875 94.89276371 -28.6328125 96.46484375 C-24.7604331 100.31518653 -20.88239829 104.15976117 -17 108 C-18.89694476 112.11503888 -21.66170908 115.00229226 -24.8203125 118.19140625 C-25.39780243 118.77792465 -25.97529236 119.36444305 -26.57028198 119.96873474 C-27.79313686 121.20607413 -29.01880305 122.44064056 -30.24707031 123.67260742 C-32.11000298 125.54740744 -33.95344429 127.44003183 -35.796875 129.33398438 C-36.99102997 130.53760786 -38.18630775 131.74011862 -39.3828125 132.94140625 C-39.92584015 133.50396622 -40.4688678 134.06652618 -41.02835083 134.64613342 C-45.4110316 138.97888596 -50.0881583 141.76692731 -56.42578125 142.14453125 C-59.88101878 141.53646667 -62.0440327 140.97064487 -65 139 C-65.42410156 140.05058594 -65.84820312 141.10117187 -66.28515625 142.18359375 C-77.95132019 170.3751442 -102.95448687 187.05544856 -130.14794922 198.81933594 C-143.8452761 204.48962123 -157.96623765 206.81495503 -172.5625 208.875 C-173.33717621 208.984953 -174.11185242 209.09490601 -174.91000366 209.20819092 C-199.27603529 212.60233218 -199.27603529 212.60233218 -205.1875 209.125 C-209.42962571 204.1514733 -208.2691839 198.24630757 -208 192 C-207.56321934 186.8347273 -206.8652148 181.7035444 -206.13842773 176.57226562 C-205.81513653 174.26878551 -205.51521921 171.96306694 -205.21679688 169.65625 C-203.38307278 156.09795557 -200.05867155 142.93467032 -194.6875 130.3125 C-194.39464111 129.61664795 -194.10178223 128.9207959 -193.80004883 128.20385742 C-184.26550619 106.13273747 -168.39972084 81.8376506 -145.8359375 71.55859375 C-142.09954584 70.14389137 -139.0126882 69 -135 69 C-135.16757813 68.43152344 -135.33515625 67.86304688 -135.5078125 67.27734375 C-136.93648514 61.86104684 -137.48133835 58.23838096 -135 53 C-128.87486719 45.47172664 -121.82240832 38.69762314 -114.9375 31.875 C-113.96655904 30.90909319 -112.99585477 29.94294838 -112.02539062 28.9765625 C-109.68589498 26.64870613 -107.34407948 24.32323895 -105 22 C-101.95418514 23.36113013 -99.86160974 24.89330096 -97.51660156 27.25634766 C-96.52602753 28.24714828 -96.52602753 28.24714828 -95.51544189 29.25796509 C-94.81425232 29.96947723 -94.11306274 30.68098938 -93.390625 31.4140625 C-92.30041046 32.50852188 -92.30041046 32.50852188 -91.18817139 33.62509155 C-88.87070802 35.9537388 -86.5603005 38.28924826 -84.25 40.625 C-82.67884556 42.20618653 -81.10723629 43.78692125 -79.53515625 45.3671875 C-75.68481347 49.2395669 -71.84023883 53.11760171 -68 57 C-64.11434756 55.41894806 -61.50915136 52.77225628 -58.62060547 49.83178711 C-57.83450897 49.04371925 -57.83450897 49.04371925 -57.03253174 48.23973083 C-55.30610198 46.50682416 -53.58675688 44.76705581 -51.8671875 43.02734375 C-50.66751237 41.82139693 -49.46731978 40.61596467 -48.26663208 39.411026 C-45.11000814 36.24110931 -41.95900239 33.06567127 -38.80957031 29.88861084 C-33.76257386 24.7984627 -28.70881359 19.71505154 -23.65182877 14.63482857 C-21.88453899 12.85729581 -20.12068963 11.07640046 -18.35714722 9.29515076 C-17.27841477 8.20959253 -16.19957348 7.12414245 -15.12060547 6.03881836 C-14.38340775 5.29151459 -14.38340775 5.29151459 -13.63131714 4.52911377 C-9.36499939 0.24846898 -6.09944471 -0.99130555 0 0 Z " fill="#FCC72E" transform="translate(223,285)"/>
<path d="M0 0 C0.96744141 -0.03287109 1.93488281 -0.06574219 2.93164062 -0.09960938 C5.56446238 -0.11970725 7.97651436 -0.05845438 10.5625 0.4375 C12.5859375 2.5234375 12.5859375 2.5234375 13.5625 5.4375 C13.94792969 6.56285156 14.33335937 7.68820313 14.73046875 8.84765625 C15.06691406 10.05292969 15.40335937 11.25820312 15.75 12.5 C16.09417969 13.70785156 16.43835938 14.91570312 16.79296875 16.16015625 C17.5625 19.4375 17.5625 19.4375 17.5625 23.4375 C18.449375 23.581875 19.33625 23.72625 20.25 23.875 C23.5625 24.4375 23.5625 24.4375 25.76953125 25.25390625 C30.13554096 25.54090269 32.95715304 23.21911256 36.5625 20.9375 C43.57088983 16.50230127 43.57088983 16.50230127 47.1328125 16.26953125 C50.87306332 18.06749748 53.52770218 20.70554577 56.4375 23.625 C57.34628906 24.47288086 57.34628906 24.47288086 58.2734375 25.33789062 C62.5207473 29.55141501 62.5207473 29.55141501 62.703125 33.421875 C61.07434249 37.72810821 58.74726421 41.46526597 56.26953125 45.31445312 C54.61641253 48.01928715 53.53233601 49.84220483 53.6953125 53.05859375 C53.98148438 53.84363281 54.26765625 54.62867188 54.5625 55.4375 C54.7790625 56.73107422 54.7790625 56.73107422 55 58.05078125 C57.64380929 62.08919994 62.05926913 62.48355606 66.5625 63.625 C68.3973006 64.11300599 70.23071716 64.60625468 72.0625 65.10546875 C72.8771875 65.31453857 73.691875 65.5236084 74.53125 65.73901367 C76.5625 66.4375 76.5625 66.4375 78.5625 68.4375 C78.82128906 70.56054688 78.82128906 70.56054688 78.828125 73.15625 C78.83070313 74.08824219 78.83328125 75.02023438 78.8359375 75.98046875 C78.82820312 76.95628906 78.82046875 77.93210937 78.8125 78.9375 C78.82023438 79.91332031 78.82796875 80.88914062 78.8359375 81.89453125 C78.83335937 82.82652344 78.83078125 83.75851563 78.828125 84.71875 C78.82586914 85.57533203 78.82361328 86.43191406 78.82128906 87.31445312 C78.5625 89.4375 78.5625 89.4375 76.5625 91.4375 C74.62304688 92.12353516 74.62304688 92.12353516 72.28125 92.7265625 C71.43949219 92.94570312 70.59773437 93.16484375 69.73046875 93.390625 C68.85003906 93.61234375 67.96960938 93.8340625 67.0625 94.0625 C66.18207031 94.29195313 65.30164063 94.52140625 64.39453125 94.7578125 C57.86574591 96.4375 57.86574591 96.4375 55.5625 96.4375 C55.418125 97.324375 55.27375 98.21125 55.125 99.125 C54.5625 102.4375 54.5625 102.4375 53.75 104.67578125 C53.46111734 108.93078214 55.68426225 111.49288272 58 114.9375 C62.24648624 121.31038425 62.24648624 121.31038425 63.265625 124.9453125 C62.06815701 129.18967127 58.96954103 131.78906231 55.875 134.8125 C55.24916016 135.46605469 54.62332031 136.11960938 53.97851562 136.79296875 C49.36435777 141.38296871 49.36435777 141.38296871 46.03515625 141.609375 C42.13173026 139.75941008 38.51358202 137.51249675 34.91015625 135.14453125 C30.3586598 132.35361365 27.69223128 132.21160134 22.5625 133.4375 C21.593125 133.623125 20.62375 133.80875 19.625 134 C18.944375 134.144375 18.26375 134.28875 17.5625 134.4375 C17.46453125 135.18773437 17.3665625 135.93796875 17.265625 136.7109375 C17.11609375 137.73445312 16.9665625 138.75796875 16.8125 139.8125 C16.67328125 140.81023437 16.5340625 141.80796875 16.390625 142.8359375 C15.31253557 147.52460945 13.34926828 151.97057929 11.5625 156.4375 C3.9725 156.4375 -3.6175 156.4375 -11.4375 156.4375 C-14.96691176 145.84926471 -14.96691176 145.84926471 -16.125 142.0625 C-16.50205078 140.84433594 -16.50205078 140.84433594 -16.88671875 139.6015625 C-17.4375 137.4375 -17.4375 137.4375 -17.4375 134.4375 C-19.10225686 134.09475594 -20.76945323 133.76385698 -22.4375 133.4375 C-23.31921875 133.16808594 -24.2009375 132.89867187 -25.109375 132.62109375 C-29.89204824 132.35726084 -32.61616115 134.42619346 -36.5625 136.9375 C-37.95397917 137.81323826 -39.35222849 138.67833419 -40.7578125 139.53125 C-41.36898926 139.91990234 -41.98016602 140.30855469 -42.60986328 140.70898438 C-45.0130104 141.66690463 -46.05702 141.40220392 -48.4375 140.4375 C-51.10246686 138.43423377 -53.39121592 136.03914347 -55.75 133.6875 C-56.40806641 133.06617188 -57.06613281 132.44484375 -57.74414062 131.8046875 C-62.38448514 127.20798259 -62.38448514 127.20798259 -62.61328125 123.8828125 C-60.53396082 119.55837865 -57.77314273 115.73035226 -55.0546875 111.7890625 C-53.08622096 107.70948691 -53.4083056 105.78409772 -54.4375 101.4375 C-54.623125 100.468125 -54.80875 99.49875 -55 98.5 C-55.144375 97.819375 -55.28875 97.13875 -55.4375 96.4375 C-56.03175781 96.32792969 -56.62601562 96.21835938 -57.23828125 96.10546875 C-75.20673077 92.66826923 -75.20673077 92.66826923 -77.4375 90.4375 C-77.52463831 88.72977642 -77.54450007 87.01851351 -77.53515625 85.30859375 C-77.53193359 84.27412109 -77.52871094 83.23964844 -77.52539062 82.17382812 C-77.51701172 81.08521484 -77.50863281 79.99660156 -77.5 78.875 C-77.49548828 77.78251953 -77.49097656 76.69003906 -77.48632812 75.56445312 C-77.47449826 72.85541505 -77.45801543 70.14648401 -77.4375 67.4375 C-67.58614865 64.13344595 -67.58614865 64.13344595 -63.0625 62.75 C-62.25039063 62.49863281 -61.43828125 62.24726563 -60.6015625 61.98828125 C-58.4375 61.4375 -58.4375 61.4375 -55.4375 61.4375 C-55.08481066 59.7748217 -54.75716139 58.10684283 -54.4375 56.4375 C-54.03337891 54.85001953 -54.03337891 54.85001953 -53.62109375 53.23046875 C-53.37652277 48.17773637 -55.12483389 45.84699483 -57.9375 41.8125 C-62.37422239 35.37084475 -62.37422239 35.37084475 -62.609375 31.90234375 C-60.81933253 28.13728775 -58.1410809 25.52364559 -55.1875 22.625 C-54.61386719 22.02751953 -54.04023438 21.43003906 -53.44921875 20.81445312 C-49.29213289 16.67157143 -49.29213289 16.67157143 -45.984375 15.765625 C-41.45146811 16.96142252 -37.81996641 19.7344607 -33.96484375 22.32617188 C-30.13775755 24.87616365 -30.13775755 24.87616365 -25.67578125 25.25 C-24.93714844 24.981875 -24.19851563 24.71375 -23.4375 24.4375 C-21.43852872 24.09805205 -19.43874361 23.76328384 -17.4375 23.4375 C-17.169375 22.2 -16.90125 20.9625 -16.625 19.6875 C-15.75054709 15.78657178 -14.86177015 11.88944138 -13.9375 8 C-13.7003125 6.99066406 -13.463125 5.98132813 -13.21875 4.94140625 C-11.22993136 -1.43275749 -5.62751947 0.03360828 0 0 Z " fill="#FCD159" transform="translate(320.4375,113.5625)"/>
<path d="M0 0 C0.99773437 0.31195312 1.99546875 0.62390625 3.0234375 0.9453125 C12.02647007 4.16261243 19.19294098 9.68324164 24 18 C30.41174714 31.5703171 32.55333547 45.5011095 32.4375 60.4375 C32.43412628 61.13109619 32.43075256 61.82469238 32.42727661 62.53930664 C32.2082825 93.86307731 22.53642695 124.48349795 10 153 C6.0911363 151.41172557 3.46017677 148.73477533 0.54571533 145.78622437 C-0.26182926 144.98124305 -0.26182926 144.98124305 -1.08568788 144.15999949 C-2.88840976 142.36057183 -4.68389035 140.55408914 -6.47949219 138.74755859 C-7.77027659 137.45621006 -9.06150152 136.16530174 -10.35313416 134.87480164 C-13.85934429 131.36916595 -17.35934839 127.85739249 -20.85828686 124.34450102 C-24.51557912 120.67471685 -28.17852572 117.01058551 -31.84088135 113.34585571 C-38.77566734 106.40485043 -45.70533879 99.45876206 -52.63319612 92.51084197 C-60.52036879 84.60132429 -68.41321275 76.69747642 -76.30654287 68.79410434 C-92.54402242 52.53571261 -108.77435172 36.27019858 -125 20 C-122.46591682 17.32756121 -120.34853041 16.11891255 -116.8984375 14.765625 C-115.86372314 14.35973145 -114.82900879 13.95383789 -113.76293945 13.53564453 C-112.64491943 13.11138184 -111.52689941 12.68711914 -110.375 12.25 C-108.63512817 11.58846924 -108.63512817 11.58846924 -106.86010742 10.91357422 C-95.09370175 6.53074543 -83.21040034 2.91909865 -71 0 C-70.0615625 -0.22445801 -69.123125 -0.44891602 -68.15625 -0.68017578 C-46.06680154 -5.73329224 -21.79117172 -6.88392135 0 0 Z " fill="#ED514E" transform="translate(465,20)"/>
<path d="M0 0 C3 1.9375 3 1.9375 5 5 C5.89668488 9.84190848 5.58523664 13.12205838 2.83605957 17.24623108 C1.83625346 18.27182828 0.81155546 19.273552 -0.23242188 20.25415039 C-0.7883754 20.81141815 -1.34432892 21.36868591 -1.91712952 21.94284058 C-3.74714296 23.76661872 -5.60684901 25.55649399 -7.46875 27.34765625 C-8.74866037 28.61076797 -10.02658865 29.87589103 -11.3026123 31.14292908 C-14.6565758 34.46262866 -18.03667907 37.7544085 -21.42303467 41.04101562 C-24.87771468 44.40341247 -28.30686537 47.79162799 -31.73828125 51.17773438 C-38.46750859 57.81061462 -45.22464581 64.41426744 -52 71 C-50.63886987 74.04581486 -49.10669904 76.13839026 -46.74365234 78.48339844 C-46.08311859 79.14378113 -45.42258484 79.80416382 -44.74203491 80.48455811 C-44.03052277 81.18574768 -43.31901062 81.88693726 -42.5859375 82.609375 C-41.49147812 83.69958954 -41.49147812 83.69958954 -40.37490845 84.81182861 C-38.0462612 87.12929198 -35.71075174 89.4396995 -33.375 91.75 C-31.79381347 93.32115444 -30.21307875 94.89276371 -28.6328125 96.46484375 C-24.7604331 100.31518653 -20.88239829 104.15976117 -17 108 C-18.89694476 112.11503888 -21.66170908 115.00229226 -24.8203125 118.19140625 C-25.39780243 118.77792465 -25.97529236 119.36444305 -26.57028198 119.96873474 C-27.79313686 121.20607413 -29.01880305 122.44064056 -30.24707031 123.67260742 C-32.11000298 125.54740744 -33.95344429 127.44003183 -35.796875 129.33398438 C-36.99102997 130.53760786 -38.18630775 131.74011862 -39.3828125 132.94140625 C-39.92584015 133.50396622 -40.4688678 134.06652618 -41.02835083 134.64613342 C-45.31019226 138.8791954 -49.95651498 141.74422445 -56.09597778 142.13258362 C-61.49790942 141.79014994 -63.43982133 139.7943127 -67 136 C-68.0251194 134.96733295 -69.05424966 133.93863678 -70.08670044 132.91329956 C-91.05780029 111.94219971 -112.02890015 90.97109985 -133 70 C-133.53666731 69.51360613 -134.07333462 69.02721226 -134.62626457 68.52607918 C-136.94780037 65.94709099 -136.83104183 63.37916349 -137 60 C-135.70714979 48.57982315 -122.64027014 39.50808607 -114.9375 31.875 C-113.96655904 30.90909319 -112.99585477 29.94294838 -112.02539062 28.9765625 C-109.68589498 26.64870613 -107.34407948 24.32323895 -105 22 C-101.95418514 23.36113013 -99.86160974 24.89330096 -97.51660156 27.25634766 C-96.85621887 27.91688141 -96.19583618 28.57741516 -95.51544189 29.25796509 C-94.81425232 29.96947723 -94.11306274 30.68098938 -93.390625 31.4140625 C-92.66381531 32.14370209 -91.93700562 32.87334167 -91.18817139 33.62509155 C-88.87070802 35.9537388 -86.5603005 38.28924826 -84.25 40.625 C-82.67884556 42.20618653 -81.10723629 43.78692125 -79.53515625 45.3671875 C-75.68481347 49.2395669 -71.84023883 53.11760171 -68 57 C-64.11434756 55.41894806 -61.50915136 52.77225628 -58.62060547 49.83178711 C-57.83450897 49.04371925 -57.83450897 49.04371925 -57.03253174 48.23973083 C-55.30610198 46.50682416 -53.58675688 44.76705581 -51.8671875 43.02734375 C-50.66751237 41.82139693 -49.46731978 40.61596467 -48.26663208 39.411026 C-45.11000814 36.24110931 -41.95900239 33.06567127 -38.80957031 29.88861084 C-33.76257386 24.7984627 -28.70881359 19.71505154 -23.65182877 14.63482857 C-21.88453899 12.85729581 -20.12068963 11.07640046 -18.35714722 9.29515076 C-17.27841477 8.20959253 -16.19957348 7.12414245 -15.12060547 6.03881836 C-14.38340775 5.29151459 -14.38340775 5.29151459 -13.63131714 4.52911377 C-9.36499939 0.24846898 -6.09944471 -0.99130555 0 0 Z " fill="#EC514D" transform="translate(223,285)"/>
<path d="M0 0 C1.5373503 3.07470061 0.13245478 5.69056898 -0.80737305 8.82836914 C-1.01250739 9.53407453 -1.21764174 10.23977991 -1.42899227 10.96687031 C-2.11635345 13.32503776 -2.81405473 15.68001822 -3.51171875 18.03515625 C-3.9970931 19.69314066 -4.48181247 21.35131695 -4.96591187 23.00967407 C-6.26325226 27.44712495 -7.56947414 31.88191302 -8.87782669 36.31612778 C-10.22079195 40.87140018 -11.55730441 45.42856454 -12.89428711 49.9855957 C-14.4778219 55.38180201 -16.06204431 60.77780071 -17.64997864 66.17271423 C-20.46882094 75.75304408 -23.25941905 85.34001649 -25.9921875 94.9453125 C-26.53406388 96.83981878 -27.07612565 98.73427205 -27.6184082 100.62866211 C-28.32887797 103.11079078 -29.03623855 105.59348091 -29.73080444 108.08010864 C-33.55586265 121.76381961 -37.33742349 134.68000011 -50.1484375 142.2734375 C-58.88537552 146.85302211 -68.4385927 147.23234553 -78.078125 145.421875 C-90.15465334 141.62639466 -98.76477926 130.38786617 -107.4765625 121.65625 C-108.53829658 120.5951914 -109.6001789 119.53428113 -110.66220093 118.47351074 C-112.86382673 116.27334463 -115.06367002 114.07141654 -117.26220703 111.86816406 C-120.08562176 109.03898937 -122.91358885 106.21441387 -125.74285316 103.39109039 C-127.9252743 101.21226812 -130.10532655 99.03108826 -132.2846489 96.84916687 C-133.3277682 95.80537968 -134.37163307 94.76233705 -135.41624832 93.720047 C-136.86405713 92.27476034 -138.3083459 90.82595003 -139.75244141 89.37695312 C-140.5749942 88.55360474 -141.397547 87.73025635 -142.24502563 86.88195801 C-144 85 -144 85 -144 84 C-142.9584375 83.90203125 -141.916875 83.8040625 -140.84375 83.703125 C-109.0722566 80.48746249 -81.85671454 67.43675454 -56 49 C-55.31067383 48.50886719 -54.62134766 48.01773438 -53.91113281 47.51171875 C-34.40682268 33.49155082 -16.88543734 17.03722919 0 0 Z " fill="#ED524E" transform="translate(378,315)"/>
<path d="M0 0 C-0.85722656 0.7734375 -1.71445313 1.546875 -2.59765625 2.34375 C-8.17773884 7.4138075 -13.62405173 12.4241109 -18.46875 18.21875 C-20.02093021 20.02434739 -21.66097678 21.6608049 -23.375 23.3125 C-27.50416423 27.38673079 -31.08967153 31.8592905 -34.70507812 36.38867188 C-36.08727834 38.10860427 -37.487746 39.81252619 -38.890625 41.515625 C-62.88645933 70.80380282 -82.71854465 105.45127174 -85 144 C-91.34184988 138.75219906 -97.17273232 133.02633341 -103.0078125 127.23046875 C-103.7831666 126.46122794 -103.7831666 126.46122794 -104.57418442 125.67644691 C-107.30613942 122.96521826 -110.03490071 120.25082015 -112.76123047 117.53393555 C-115.55784186 114.74840569 -118.36594379 111.97476299 -121.17675972 109.203578 C-123.35577764 107.05083394 -125.52573956 104.88912745 -127.69344711 102.72500038 C-128.72418897 101.69909065 -129.75827112 100.67652444 -130.79590225 99.65758324 C-139.9628098 90.64572333 -147.22222758 81.71064113 -147.375 68.3125 C-147.180011 57.41605564 -143.68371144 48.77225791 -136 41 C-128.94942919 35.72126024 -121.27158954 33.20165782 -112.87890625 30.85546875 C-111.59558498 30.48534912 -110.31263542 30.11393859 -109.0300293 29.74134827 C-105.59145545 28.74626463 -102.14813612 27.76869605 -98.7035408 26.79469299 C-95.10089678 25.77299354 -91.50269094 24.73589792 -87.90405273 23.70019531 C-82.69284711 22.20186756 -77.48011447 20.70905773 -72.2655344 19.22251701 C-63.42231253 16.70096212 -54.59099492 14.14053355 -45.76535225 11.55817604 C-41.66128316 10.35801335 -37.55590581 9.1623341 -33.45054531 7.96659756 C-30.1857373 7.01549563 -26.92149681 6.06253932 -23.65847778 5.10531616 C-20.04643428 4.04762384 -16.43183814 2.99916631 -12.81640625 1.953125 C-11.20548096 1.47807274 -11.20548096 1.47807274 -9.56201172 0.99342346 C-8.5883667 0.7136113 -7.61472168 0.43379913 -6.61157227 0.14550781 C-5.76393814 -0.10140808 -4.91630402 -0.34832397 -4.04298401 -0.60272217 C-2 -1 -2 -1 0 0 Z " fill="#ED524E" transform="translate(199,135)"/>
<path d="M0 0 C0.96744141 -0.03287109 1.93488281 -0.06574219 2.93164062 -0.09960938 C5.56446238 -0.11970725 7.97651436 -0.05845438 10.5625 0.4375 C12.5859375 2.5234375 12.5859375 2.5234375 13.5625 5.4375 C13.94792969 6.56285156 14.33335937 7.68820313 14.73046875 8.84765625 C15.06691406 10.05292969 15.40335937 11.25820312 15.75 12.5 C16.09417969 13.70785156 16.43835938 14.91570312 16.79296875 16.16015625 C17.5625 19.4375 17.5625 19.4375 17.5625 23.4375 C18.449375 23.581875 19.33625 23.72625 20.25 23.875 C23.5625 24.4375 23.5625 24.4375 25.76953125 25.25390625 C30.13554096 25.54090269 32.95715304 23.21911256 36.5625 20.9375 C43.57088983 16.50230127 43.57088983 16.50230127 47.1328125 16.26953125 C50.87306332 18.06749748 53.52770218 20.70554577 56.4375 23.625 C57.34628906 24.47288086 57.34628906 24.47288086 58.2734375 25.33789062 C62.5207473 29.55141501 62.5207473 29.55141501 62.703125 33.421875 C61.07434249 37.72810821 58.74726421 41.46526597 56.26953125 45.31445312 C54.61641253 48.01928715 53.53233601 49.84220483 53.6953125 53.05859375 C53.98148438 53.84363281 54.26765625 54.62867188 54.5625 55.4375 C54.7790625 56.73107422 54.7790625 56.73107422 55 58.05078125 C57.64380929 62.08919994 62.05926913 62.48355606 66.5625 63.625 C68.3973006 64.11300599 70.23071716 64.60625468 72.0625 65.10546875 C72.8771875 65.31453857 73.691875 65.5236084 74.53125 65.73901367 C76.5625 66.4375 76.5625 66.4375 78.5625 68.4375 C78.82128906 70.56054688 78.82128906 70.56054688 78.828125 73.15625 C78.83070313 74.08824219 78.83328125 75.02023438 78.8359375 75.98046875 C78.82820312 76.95628906 78.82046875 77.93210937 78.8125 78.9375 C78.82023438 79.91332031 78.82796875 80.88914062 78.8359375 81.89453125 C78.83335937 82.82652344 78.83078125 83.75851563 78.828125 84.71875 C78.82586914 85.57533203 78.82361328 86.43191406 78.82128906 87.31445312 C78.5625 89.4375 78.5625 89.4375 76.5625 91.4375 C74.62304688 92.12353516 74.62304688 92.12353516 72.28125 92.7265625 C71.43949219 92.94570312 70.59773437 93.16484375 69.73046875 93.390625 C68.85003906 93.61234375 67.96960938 93.8340625 67.0625 94.0625 C66.18207031 94.29195313 65.30164063 94.52140625 64.39453125 94.7578125 C57.86574591 96.4375 57.86574591 96.4375 55.5625 96.4375 C55.418125 97.324375 55.27375 98.21125 55.125 99.125 C54.5625 102.4375 54.5625 102.4375 53.75 104.67578125 C53.46111734 108.93078214 55.68426225 111.49288272 58 114.9375 C63.21797777 122.76834331 63.21797777 122.76834331 62.5625 127.4375 C60.5825 128.4275 60.5825 128.4275 58.5625 129.4375 C46.55164466 93.59433369 46.55164466 93.59433369 43.0625 82.5 C42.71904541 81.41295776 42.71904541 81.41295776 42.36865234 80.30395508 C41.37301202 77.12740614 40.42522688 73.94508469 39.53125 70.73828125 C36.26775287 59.19760792 30.8972426 50.62644481 20.5546875 44.1875 C10.65864775 38.90961214 -0.67227985 37.69073939 -11.5625 40.5 C-22.29860473 44.28203689 -29.85525476 50.52080551 -35.4375 60.4375 C-40.24090929 70.60222164 -41.15070977 80.8917983 -37.6875 91.625 C-36.96271421 93.57207263 -36.21419422 95.51054584 -35.4375 97.4375 C-35.13714844 98.18644531 -34.83679688 98.93539062 -34.52734375 99.70703125 C-33.90482971 101.24579971 -33.27966634 102.78349811 -32.65234375 104.3203125 C-30.91135565 108.78754241 -29.29299515 113.29505763 -27.6875 117.8125 C-27.36934326 118.69357422 -27.05118652 119.57464844 -26.72338867 120.48242188 C-26.42795166 121.32095703 -26.13251465 122.15949219 -25.828125 123.0234375 C-25.56032227 123.7767334 -25.29251953 124.5300293 -25.01660156 125.30615234 C-24.4375 127.4375 -24.4375 127.4375 -24.4375 131.4375 C-25.51 131.788125 -26.5825 132.13875 -27.6875 132.5 C-32.76495476 134.35871112 -37.15900184 137.21337941 -41.703125 140.109375 C-44.4375 141.4375 -44.4375 141.4375 -46.39038086 141.20703125 C-50.27089769 139.74830864 -52.86038201 136.56837041 -55.75 133.6875 C-56.40806641 133.06617188 -57.06613281 132.44484375 -57.74414062 131.8046875 C-62.38448514 127.20798259 -62.38448514 127.20798259 -62.61328125 123.8828125 C-60.53396082 119.55837865 -57.77314273 115.73035226 -55.0546875 111.7890625 C-53.08622096 107.70948691 -53.4083056 105.78409772 -54.4375 101.4375 C-54.623125 100.468125 -54.80875 99.49875 -55 98.5 C-55.144375 97.819375 -55.28875 97.13875 -55.4375 96.4375 C-56.03175781 96.32792969 -56.62601562 96.21835938 -57.23828125 96.10546875 C-75.20673077 92.66826923 -75.20673077 92.66826923 -77.4375 90.4375 C-77.52463831 88.72977642 -77.54450007 87.01851351 -77.53515625 85.30859375 C-77.53193359 84.27412109 -77.52871094 83.23964844 -77.52539062 82.17382812 C-77.51701172 81.08521484 -77.50863281 79.99660156 -77.5 78.875 C-77.49548828 77.78251953 -77.49097656 76.69003906 -77.48632812 75.56445312 C-77.47449826 72.85541505 -77.45801543 70.14648401 -77.4375 67.4375 C-67.58614865 64.13344595 -67.58614865 64.13344595 -63.0625 62.75 C-62.25039063 62.49863281 -61.43828125 62.24726563 -60.6015625 61.98828125 C-58.4375 61.4375 -58.4375 61.4375 -55.4375 61.4375 C-55.08481066 59.7748217 -54.75716139 58.10684283 -54.4375 56.4375 C-54.03337891 54.85001953 -54.03337891 54.85001953 -53.62109375 53.23046875 C-53.37652277 48.17773637 -55.12483389 45.84699483 -57.9375 41.8125 C-62.37422239 35.37084475 -62.37422239 35.37084475 -62.609375 31.90234375 C-60.81933253 28.13728775 -58.1410809 25.52364559 -55.1875 22.625 C-54.61386719 22.02751953 -54.04023438 21.43003906 -53.44921875 20.81445312 C-49.29213289 16.67157143 -49.29213289 16.67157143 -45.984375 15.765625 C-41.45146811 16.96142252 -37.81996641 19.7344607 -33.96484375 22.32617188 C-30.13775755 24.87616365 -30.13775755 24.87616365 -25.67578125 25.25 C-24.93714844 24.981875 -24.19851563 24.71375 -23.4375 24.4375 C-21.43852872 24.09805205 -19.43874361 23.76328384 -17.4375 23.4375 C-17.169375 22.2 -16.90125 20.9625 -16.625 19.6875 C-15.75054709 15.78657178 -14.86177015 11.88944138 -13.9375 8 C-13.7003125 6.99066406 -13.463125 5.98132813 -13.21875 4.94140625 C-11.22993136 -1.43275749 -5.62751947 0.03360828 0 0 Z " fill="#FCD159" transform="translate(320.4375,113.5625)"/>
<path d="M0 0 C3.4993716 1.50372631 5.80168655 3.52707762 8.5090332 6.18676758 C9.39287186 7.05139114 10.27671051 7.91601471 11.18733215 8.80683899 C12.14236603 9.75218024 13.09683587 10.6980916 14.05078125 11.64453125 C15.03394827 12.61618807 16.01711786 13.58784229 17.00028992 14.55949402 C19.05591016 16.59414526 21.10686717 18.63338162 23.15551758 20.67504883 C25.78298711 23.29151581 28.4285122 25.88889723 31.07871723 28.48230457 C33.1141842 30.48056325 35.13614829 32.49207448 37.15462303 34.50748253 C38.1245346 35.47133688 39.09945104 36.43018174 40.0793705 37.38385963 C41.44624853 38.71669255 42.79263562 40.07044309 44.13793945 41.42504883 C44.90975052 42.18956863 45.68156158 42.95408844 46.47676086 43.74177551 C48 46 48 46 47.81242371 48.66801453 C44.05154535 59.46326045 30.10997157 67.13435679 20.3269043 71.98730469 C7.15735974 78.17472735 -5.59510444 80.95769732 -20 82 C-21.15113281 82.08507812 -22.30226563 82.17015625 -23.48828125 82.2578125 C-28.8831936 82.47217988 -28.8831936 82.47217988 -31 82 C-32.98026025 80.05417906 -33.93673863 78.85146389 -34.14453125 76.0546875 C-34.03496094 75.33539063 -33.92539063 74.61609375 -33.8125 73.875 C-33.34776924 70.5734752 -32.92973963 67.30114614 -32.6875 63.9765625 C-30.81945144 40.40456691 -21.20290658 17.75070155 -3 2 C-2.01 1.34 -1.02 0.68 0 0 Z " fill="#E9E8FC" transform="translate(98,364)"/>
<path d="M0 0 C8.4671872 5.05637681 13.81812021 11.8675586 16.5234375 21.3828125 C18.30602147 31.59215706 16.4479696 40.00180892 10.5234375 48.6328125 C5.60537449 54.68103645 -1.0686189 59.05466601 -8.7890625 60.3203125 C-18.84921011 61.35147763 -26.41997034 60.19080613 -34.7890625 54.3203125 C-42.08546139 48.14827671 -45.98651753 40.77411163 -47.1640625 31.3046875 C-47.53651194 22.2262324 -45.28955607 15.0122079 -39.4765625 8.0078125 C-29.06004683 -3.00965599 -14.22701296 -6.7590128 0 0 Z " fill="#E8E8FE" transform="translate(335.7890625,163.6796875)"/>
<path d="M0 0 C3.96294409 1.58517764 6.52870589 4.24927526 9.51171875 7.2421875 C10.11757813 7.80744141 10.7234375 8.37269531 11.34765625 8.95507812 C15.59496605 13.16860251 15.59496605 13.16860251 15.77734375 17.0390625 C14.14856124 21.34529571 11.82148296 25.08245347 9.34375 28.93164062 C7.69063128 31.63647465 6.60655476 33.45939233 6.76953125 36.67578125 C7.05570312 37.46082031 7.341875 38.24585938 7.63671875 39.0546875 C7.85328125 40.34826172 7.85328125 40.34826172 8.07421875 41.66796875 C10.71802804 45.70638744 15.13348788 46.10074356 19.63671875 47.2421875 C21.47151935 47.73019349 23.30493591 48.22344218 25.13671875 48.72265625 C25.95140625 48.93172607 26.76609375 49.1407959 27.60546875 49.35620117 C29.63671875 50.0546875 29.63671875 50.0546875 31.63671875 52.0546875 C31.89550781 54.17773438 31.89550781 54.17773438 31.90234375 56.7734375 C31.90621094 58.17142578 31.90621094 58.17142578 31.91015625 59.59765625 C31.90242188 60.57347656 31.8946875 61.54929688 31.88671875 62.5546875 C31.89832031 64.01841797 31.89832031 64.01841797 31.91015625 65.51171875 C31.90757812 66.44371094 31.905 67.37570313 31.90234375 68.3359375 C31.90008789 69.19251953 31.89783203 70.04910156 31.89550781 70.93164062 C31.63671875 73.0546875 31.63671875 73.0546875 29.63671875 75.0546875 C27.69726562 75.74072266 27.69726562 75.74072266 25.35546875 76.34375 C24.51371094 76.56289062 23.67195313 76.78203125 22.8046875 77.0078125 C21.92425781 77.22953125 21.04382813 77.45125 20.13671875 77.6796875 C19.25628906 77.90914063 18.37585938 78.13859375 17.46875 78.375 C10.93996466 80.0546875 10.93996466 80.0546875 8.63671875 80.0546875 C8.49234375 80.9415625 8.34796875 81.8284375 8.19921875 82.7421875 C7.63671875 86.0546875 7.63671875 86.0546875 6.82421875 88.29296875 C6.53533609 92.54796964 8.758481 95.11007022 11.07421875 98.5546875 C16.29219652 106.38553081 16.29219652 106.38553081 15.63671875 111.0546875 C13.65671875 112.0446875 13.65671875 112.0446875 11.63671875 113.0546875 C-3.25013263 68.62888477 -3.25013263 68.62888477 -7.5 54.21484375 C-7.84675781 53.04824219 -8.19351562 51.88164062 -8.55078125 50.6796875 C-8.83308594 49.70257813 -9.11539062 48.72546875 -9.40625 47.71875 C-10.27030379 45.02120256 -10.27030379 45.02120256 -11.82421875 42.703125 C-13.79068231 39.31921056 -14.76981324 35.79957049 -15.80078125 32.0546875 C-16.22974594 30.5453673 -16.65944256 29.03625494 -17.08984375 27.52734375 C-17.30157227 26.77855957 -17.51330078 26.02977539 -17.73144531 25.25830078 C-19.19172661 20.16537226 -20.78856136 15.11314526 -22.36328125 10.0546875 C-21.75742187 9.83554688 -21.1515625 9.61640625 -20.52734375 9.390625 C-14.75828407 7.2072578 -9.78516114 4.60879724 -4.6875 1.12890625 C-2.36328125 0.0546875 -2.36328125 0.0546875 0 0 Z " fill="#FCC730" transform="translate(367.36328125,129.9453125)"/>
<path d="M0 0 C2.41310943 2.41310943 2.91874035 4.26902767 3.98828125 7.50390625 C4.36251221 8.62933838 4.73674316 9.75477051 5.12231445 10.91430664 C5.51507568 12.11821045 5.90783691 13.32211426 6.3125 14.5625 C6.71621826 15.78509521 7.11993652 17.00769043 7.53588867 18.26733398 C9.96835201 25.68309444 12.26001699 33.12398808 14.40209961 40.62792969 C15.63465916 44.89937686 17.09755446 48.96526369 18.8203125 53.05859375 C20.58349272 57.45486761 22.16641025 61.91139997 23.75 66.375 C24.0682373 67.25647705 24.38647461 68.1379541 24.71435547 69.04614258 C25.00971191 69.8842749 25.30506836 70.72240723 25.609375 71.5859375 C25.87717773 72.3392334 26.14498047 73.0925293 26.42089844 73.86865234 C27 76 27 76 27 80 C25.9275 80.350625 24.855 80.70125 23.75 81.0625 C18.67254524 82.92121112 14.27849816 85.77587941 9.734375 88.671875 C7 90 7 90 5.04711914 89.76953125 C1.16660231 88.31080864 -1.42288201 85.13087041 -4.3125 82.25 C-4.97056641 81.62867188 -5.62863281 81.00734375 -6.30664062 80.3671875 C-10.94698514 75.77048259 -10.94698514 75.77048259 -11.17578125 72.4453125 C-9.09646082 68.12087865 -6.33564273 64.29285226 -3.6171875 60.3515625 C-1.64872096 56.27198691 -1.9708056 54.34659772 -3 50 C-3.185625 49.030625 -3.37125 48.06125 -3.5625 47.0625 C-3.706875 46.381875 -3.85125 45.70125 -4 45 C-4.59425781 44.89042969 -5.18851562 44.78085938 -5.80078125 44.66796875 C-23.76923077 41.23076923 -23.76923077 41.23076923 -26 39 C-26.08713831 37.29227642 -26.10700007 35.58101351 -26.09765625 33.87109375 C-26.09443359 32.83662109 -26.09121094 31.80214844 -26.08789062 30.73632812 C-26.07951172 29.64771484 -26.07113281 28.55910156 -26.0625 27.4375 C-26.05798828 26.34501953 -26.05347656 25.25253906 -26.04882812 24.12695312 C-26.03699826 21.41791505 -26.02051543 18.70898401 -26 16 C-16.14864865 12.69594595 -16.14864865 12.69594595 -11.625 11.3125 C-10.81289063 11.06113281 -10.00078125 10.80976563 -9.1640625 10.55078125 C-7 10 -7 10 -4 10 C-3.896875 9.278125 -3.79375 8.55625 -3.6875 7.8125 C-2.94013068 4.75508007 -1.71954811 2.61670365 0 0 Z " fill="#FCC72F" transform="translate(269,165)"/>
<path d="M0 0 C3.05098353 1.97042686 4.64730745 3.36183671 5.42910671 6.99308681 C5.65992225 11.56666483 5.23516884 14.32996918 2.25123596 17.89161682 C0.97400929 19.22201248 -0.32842289 20.52849849 -1.65014648 21.81469727 C-2.35745407 22.53777573 -3.06476166 23.26085419 -3.79350281 24.00584412 C-6.13060963 26.38246388 -8.49898978 28.72475442 -10.87109375 31.06640625 C-12.50995066 32.71132804 -14.14746977 34.3575837 -15.78370667 36.00511169 C-19.21530264 39.44996566 -22.66262128 42.87804357 -26.12182617 46.29516602 C-30.55117895 50.67324066 -34.93889341 55.0904854 -39.31561184 59.52110386 C-42.68891576 62.92695485 -46.08339502 66.31104684 -49.48463631 69.6889782 C-51.11112054 71.30946553 -52.73096448 72.93664643 -54.3439312 74.57058907 C-56.60329815 76.8528584 -58.88959695 79.10421876 -61.18530273 81.34985352 C-61.8448999 82.02766876 -62.50449707 82.70548401 -63.18408203 83.40383911 C-66.62541252 86.70763754 -68.92794179 88.40982283 -73.79701233 88.53672791 C-77.12112697 88.36566414 -78.10746311 87.93201314 -81.0625 86.0625 C-83.66406372 81.9503509 -83.95314605 78.76108344 -83 74 C-81.21510624 70.97206157 -78.8621638 68.70985938 -76.33056641 66.29296875 C-75.62176834 65.58125015 -74.91297028 64.86953156 -74.18269348 64.13624573 C-71.84317248 61.79789288 -69.47332805 59.49310314 -67.1015625 57.1875 C-65.46778895 55.56798187 -63.83592703 53.9465332 -62.2059021 52.32324219 C-57.91588048 48.06186946 -53.59908617 43.82863375 -49.27655029 39.60028076 C-44.8750504 35.28388687 -40.50190808 30.93895726 -36.125 26.59765625 C-29.73940813 20.275496 -23.34764678 13.95969682 -16.92822266 7.671875 C-16.2528093 7.00700577 -15.57739594 6.34213654 -14.8815155 5.65711975 C-14.26453293 5.05451828 -13.64755035 4.45191681 -13.01187134 3.83105469 C-12.47538782 3.30533875 -11.9389043 2.7796228 -11.38616371 2.23797607 C-8.08578846 -0.70957302 -4.19557432 -0.6818811 0 0 Z " fill="#4F5D99" transform="translate(223,285)"/>
<path d="M0 0 C2.29604391 1.70062913 4.3639198 3.48442562 6.4296875 5.45703125 C7.06648438 6.05386719 7.70328125 6.65070313 8.359375 7.265625 C15.88271398 15.03113154 18.89493854 23.86082397 18.9921875 34.51953125 C18.76894747 47.32527046 14.46864714 55.84593942 5.84375 65.171875 C-2.59312879 73.25893199 -14.32829111 75.95353582 -25.63671875 75.734375 C-37.06710279 74.92845914 -45.15659385 69.24577344 -52.8203125 61.14453125 C-56.44916585 56.91798441 -58.72602994 52.68858524 -60.5703125 47.45703125 C-60.92609375 46.50441406 -61.281875 45.55179688 -61.6484375 44.5703125 C-64.45588865 35.08921688 -62.73732752 25.25013923 -58.5703125 16.45703125 C-52.72493436 6.28822827 -44.63733822 -0.63695967 -33.5703125 -4.54296875 C-22.22887444 -7.23060365 -10.07859117 -6.0502181 0 0 Z M-46.5703125 14.45703125 C-52.75152904 22.56791691 -54.54855183 30.3234751 -53.5703125 40.45703125 C-51.56118237 49.91774528 -46.76559658 56.81280299 -38.875 62.34765625 C-30.28775828 67.24810886 -22.11835009 67.8907245 -12.51953125 65.7890625 C-4.78175462 63.33823145 1.0093108 59.48923086 5.21875 52.4765625 C10.45264479 42.29403259 11.83317938 34.30067608 8.52734375 23.19921875 C5.27527479 15.07483295 -0.8857728 9.42282585 -8.5703125 5.45703125 C-22.76737436 -0.26505324 -36.46818282 3.58290476 -46.5703125 14.45703125 Z " fill="#757FAB" transform="translate(342.5703125,157.54296875)"/>
<path d="M0 0 C2.04648864 3.72306504 3.31841872 7.68449265 4.64453125 11.703125 C4.89619553 12.45857605 5.1478598 13.2140271 5.40715027 13.99237061 C5.94058005 15.59567833 6.4725531 17.19947135 7.00317383 18.80371094 C7.79628852 21.20099879 8.59400419 23.59671346 9.39257812 25.9921875 C12.70754082 35.96066273 15.90373558 45.96151219 19 56 C17.71718098 57.37555293 16.43419527 58.75095116 15.1499939 60.12521362 C14.16239553 61.18649822 13.18378603 62.25616415 12.21020508 63.33032227 C10.89453125 64.69140625 10.89453125 64.69140625 8 67 C5.546875 67.01171875 5.546875 67.01171875 3 66 C1.94683594 65.61328125 0.89367187 65.2265625 -0.19140625 64.828125 C-9.15535404 60.63179255 -9.15535404 60.63179255 -11.6640625 55.78515625 C-12.62113008 52.53770175 -13.31990592 49.31383422 -14 46 C-14.62885853 44.64842345 -15.28698848 43.3091359 -16 42 C-16.5625 39.6875 -16.5625 39.6875 -16 37 C-14.39826399 35.16430255 -12.65787741 33.54287321 -10.87890625 31.87890625 C-2.05397972 23.05397972 -0.53602725 11.9589528 0 0 Z " fill="#FCD158" transform="translate(361,188)"/>
<path d="M0 0 C8.78106829 -0.81684356 17.84127417 1.98674968 24.875 7.25 C26.27952033 8.46673647 27.65605767 9.71666683 29 11 C29.63679688 11.59683594 30.27359375 12.19367188 30.9296875 12.80859375 C38.45302648 20.57410029 41.46525104 29.40379272 41.5625 40.0625 C41.33399522 53.17024172 36.7349323 61.74989564 27.90625 71.25390625 C26 73 26 73 24 73 C22.13412821 69.15849926 21.83238548 67.0959176 23 63 C24.3046875 60.859375 24.3046875 60.859375 25.875 58.75 C31.19518326 51.03829206 33.09835389 43.65938892 31.56640625 34.37109375 C29.4964559 25.12702978 25.1107755 18.70419682 17.125 13.5625 C13.71719764 11.63748187 10.92662488 10.70271665 7.0625 10.1875 C4.8515625 9.83203125 4.8515625 9.83203125 3 9 C1.33040881 6.12341137 0.58331793 3.25853465 0 0 Z " fill="#747EAB" transform="translate(320,152)"/>
<path d="M0 0 C3.96 0 7.92 0 12 0 C15.16580123 7.73297778 18.01586178 15.54234192 20.75 23.4375 C21.16121094 24.60732422 21.57242187 25.77714844 21.99609375 26.98242188 C22.38410156 28.10068359 22.77210938 29.21894531 23.171875 30.37109375 C23.5234668 31.38099365 23.87505859 32.39089355 24.23730469 33.43139648 C25 36 25 36 25 39 C20.05 38.34 15.1 37.68 10 37 C8.40525648 32.37651958 6.81721822 27.75177142 5.24536133 23.12060547 C4.70878584 21.54606693 4.1684464 19.97280584 3.62426758 18.40087891 C2.84242053 16.14030561 2.07425389 13.87547406 1.30859375 11.609375 C1.06282089 10.90818542 0.81704803 10.20699585 0.56382751 9.48455811 C-0.72025139 5.63540312 -1.01570856 4.06283425 0 0 Z " fill="#FCC62F" transform="translate(309,115)"/>
<path d="M0 0 C2.83495998 2.83495998 3.59985107 6.26906028 4.8203125 10 C5.21559647 11.18722656 5.21559647 11.18722656 5.61886597 12.3984375 C6.17469772 14.07197508 6.72761251 15.74648387 7.27783203 17.421875 C8.12234472 19.99191938 8.97641209 22.55863453 9.83203125 25.125 C10.37035845 26.74981232 10.90813754 28.37480637 11.4453125 30 C11.70152374 30.77085937 11.95773499 31.54171875 12.22171021 32.3359375 C14 37.76786022 14 37.76786022 14 40 C7.7329582 38.70972669 2.0094237 35.94386535 -3 32 C-5.19034391 27.77833012 -6.05037802 23.62713892 -7 19 C-7.62885853 17.64842345 -8.28698848 16.3091359 -9 15 C-9.5625 12.6875 -9.5625 12.6875 -9 10 C-7.35853134 8.05852402 -5.60691293 6.35855044 -3.7265625 4.6484375 C-1.78605182 2.91606357 -1.78605182 2.91606357 0 0 Z " fill="#FCC730" transform="translate(354,215)"/>
<path d="M0 0 C0.66 0 1.32 0 2 0 C3.9765595 4.76699644 4.48734947 8.0130047 3 13 C0.92827188 15.651812 -1.31832637 17.9624235 -4 20 C-4.66 20 -5.32 20 -6 20 C-7.8694935 16.15104279 -8.19378108 14.09985421 -7 10 C-5.44140625 7.32421875 -5.44140625 7.32421875 -3.5625 4.6875 C-2.94503906 3.80449219 -2.32757813 2.92148438 -1.69140625 2.01171875 C-1.13324219 1.34785156 -0.57507813 0.68398437 0 0 Z " fill="#525F98" transform="translate(350,205)"/>
<path d="M0 0 C5.06654649 -0.20679782 9.29545483 0.00961551 14 2 C16.47605976 5.67415319 17 7.53693206 17 12 C14.7919392 11.53876063 12.59147282 11.05891807 10.39453125 10.546875 C8.46143753 10.10538541 6.51338388 9.72970616 4.5625 9.375 C2 8 2 8 1.19140625 6.09375 C0.625 3.875 0.625 3.875 0 0 Z " fill="#525F99" transform="translate(320,152)"/>
<path d="M0 0 C0.66 0 1.32 0 2 0 C3.03551045 2.93253346 4.05081838 5.87166938 5.0625 8.8125 C5.35705078 9.64587891 5.65160156 10.47925781 5.95507812 11.33789062 C6.3659668 12.54155273 6.3659668 12.54155273 6.78515625 13.76953125 C7.04176025 14.50792236 7.29836426 15.24631348 7.56274414 16.00708008 C8 18 8 18 7 21 C5.50368769 18.77732249 4.01416362 16.55065142 2.53515625 14.31640625 C1.41056513 12.61950413 0.27179965 10.93197282 -0.875 9.25 C-2.20011925 6.5997615 -2.39537781 4.92579582 -2 2 C-1.34 1.34 -0.68 0.68 0 0 Z " fill="#FCC938" transform="translate(261,143)"/>
</svg>
