<?xml version="1.0" encoding="UTF-8"?>
<svg version="1.1" xmlns="http://www.w3.org/2000/svg" width="256" height="256">
<path d="M0 0 C0.8306749 -0.00095673 1.66134979 -0.00191345 2.51719666 -0.00289917 C4.26968461 -0.00357849 6.02217511 -0.00174151 7.7746582 0.00244141 C10.45855342 0.00779994 13.14228181 0.00248455 15.82617188 -0.00390625 C17.52994829 -0.00324556 19.23372459 -0.00196458 20.9375 0 C21.74067154 -0.00202423 22.54384308 -0.00404846 23.37135315 -0.00613403 C26.63927694 0.00764381 29.28013141 0.09207505 32.40234375 1.1328125 C34.02483289 1.41830275 35.65030425 1.68701394 37.27734375 1.9453125 C47.55649624 3.76088658 57.75640691 7.16095615 67.40234375 11.1328125 C67.40234375 11.7928125 67.40234375 12.4528125 67.40234375 13.1328125 C68.005625 13.32617188 68.60890625 13.51953125 69.23046875 13.71875 C70.42929687 14.10933594 70.42929687 14.10933594 71.65234375 14.5078125 C72.44125 14.76304688 73.23015625 15.01828125 74.04296875 15.28125 C76.26862333 16.08454917 78.31166047 17.02992912 80.40234375 18.1328125 C80.40234375 18.7928125 80.40234375 19.4528125 80.40234375 20.1328125 C81.12421875 20.4009375 81.84609375 20.6690625 82.58984375 20.9453125 C85.40000758 22.13182612 87.88650932 23.40766889 90.40234375 25.1328125 C90.40234375 25.7928125 90.40234375 26.4528125 90.40234375 27.1328125 C90.95921875 27.3803125 91.51609375 27.6278125 92.08984375 27.8828125 C94.82645288 29.36206068 97.07885244 31.06748689 99.40234375 33.1328125 C99.40234375 33.7928125 99.40234375 34.4528125 99.40234375 35.1328125 C100.06234375 35.1328125 100.72234375 35.1328125 101.40234375 35.1328125 C104.20130717 37.70483294 106.69036649 40.4438078 109.08984375 43.3828125 C111.10657595 46.15023444 111.10657595 46.15023444 113.40234375 47.1328125 C114.06901042 48.79947917 114.73567708 50.46614583 115.40234375 52.1328125 C116.06234375 52.4628125 116.72234375 52.7928125 117.40234375 53.1328125 C117.40234375 54.4528125 117.40234375 55.7728125 117.40234375 57.1328125 C118.06234375 57.1328125 118.72234375 57.1328125 119.40234375 57.1328125 C121.40234375 61.1328125 123.40234375 65.1328125 125.40234375 69.1328125 C125.96308594 70.19242187 126.52382812 71.25203125 127.1015625 72.34375 C128.40234375 75.1328125 128.40234375 75.1328125 128.40234375 78.1328125 C129.06234375 78.1328125 129.72234375 78.1328125 130.40234375 78.1328125 C131.77602787 83.60244036 133.09626958 89.08418493 134.40234375 94.5703125 C134.675625 95.68341797 134.94890625 96.79652344 135.23046875 97.94335938 C137.0591878 105.68404027 138.043251 113.19048753 138.40234375 121.1328125 C138.44166016 121.95080322 138.48097656 122.76879395 138.52148438 123.61157227 C139.10689888 139.25269072 137.72549855 155.32175485 132.40234375 170.1328125 C131.87993688 171.71562735 131.35909681 173.29896021 130.83984375 174.8828125 C130.36164037 176.29980462 129.88254269 177.7164954 129.40234375 179.1328125 C129.01046875 180.3084375 128.61859375 181.4840625 128.21484375 182.6953125 C127.94671875 183.4996875 127.67859375 184.3040625 127.40234375 185.1328125 C126.74234375 185.1328125 126.08234375 185.1328125 125.40234375 185.1328125 C124.74234375 187.4428125 124.08234375 189.7528125 123.40234375 192.1328125 C122.74234375 192.1328125 122.08234375 192.1328125 121.40234375 192.1328125 C121.17289063 192.97328125 120.9434375 193.81375 120.70703125 194.6796875 C119.16736708 198.7547268 117.07291337 201.87987121 114.52734375 205.3828125 C114.09292969 206.00671875 113.65851563 206.630625 113.2109375 207.2734375 C110.88290278 210.5173057 109.06867136 212.55678932 105.40234375 214.1328125 C104.59063147 216.68801171 104.59063147 216.68801171 104.40234375 219.1328125 C103.08234375 219.4628125 101.76234375 219.7928125 100.40234375 220.1328125 C100.40234375 220.7928125 100.40234375 221.4528125 100.40234375 222.1328125 C96.10001817 226.90025436 96.10001817 226.90025436 92.40234375 228.1328125 C91.74234375 229.1228125 91.08234375 230.1128125 90.40234375 231.1328125 C88.76443663 232.17925316 87.09226354 233.1726308 85.40234375 234.1328125 C84.35046875 234.8546875 83.29859375 235.5765625 82.21484375 236.3203125 C79.40234375 238.1328125 79.40234375 238.1328125 77.40234375 238.1328125 C77.40234375 238.7928125 77.40234375 239.4528125 77.40234375 240.1328125 C76.66371094 240.43574219 75.92507812 240.73867187 75.1640625 241.05078125 C69.95628885 243.20138663 64.80287934 245.39881114 59.71484375 247.8203125 C54.96607198 249.99175942 50.5126417 251.18557659 45.40234375 252.1328125 C41.97605722 252.90271924 38.55053354 253.67596966 35.125 254.44921875 C26.06186049 256.11348886 17.09989301 256.28881548 7.90234375 256.2578125 C6.72414063 256.26167969 5.5459375 256.26554687 4.33203125 256.26953125 C3.21054688 256.26824219 2.0890625 256.26695312 0.93359375 256.265625 C-0.58911133 256.26393311 -0.58911133 256.26393311 -2.14257812 256.26220703 C-4.59765625 256.1328125 -4.59765625 256.1328125 -6.59765625 255.1328125 C-8.08770584 254.96264974 -9.58236409 254.83175462 -11.078125 254.72265625 C-16.51558665 254.22123295 -21.63495442 253.07127769 -26.91015625 251.6953125 C-27.77705078 251.47810547 -28.64394531 251.26089844 -29.53710938 251.03710938 C-33.68335996 249.97910061 -37.67345374 248.87240743 -41.59765625 247.1328125 C-41.59765625 246.4728125 -41.59765625 245.8128125 -41.59765625 245.1328125 C-42.86609375 244.978125 -42.86609375 244.978125 -44.16015625 244.8203125 C-48.01208326 244.0499271 -51.03840656 242.77006736 -54.59765625 241.1328125 C-54.59765625 240.4728125 -54.59765625 239.8128125 -54.59765625 239.1328125 C-55.38140625 238.9471875 -56.16515625 238.7615625 -56.97265625 238.5703125 C-62.02817556 236.5655376 -66.42887945 233.62601678 -70.59765625 230.1328125 C-70.59765625 229.4728125 -70.59765625 228.8128125 -70.59765625 228.1328125 C-71.58765625 228.1328125 -72.57765625 228.1328125 -73.59765625 228.1328125 C-74.96404967 226.4931404 -76.29259815 224.82171122 -77.59765625 223.1328125 C-78.50515625 222.4109375 -79.41265625 221.6890625 -80.34765625 220.9453125 C-81.09015625 220.3471875 -81.83265625 219.7490625 -82.59765625 219.1328125 C-82.59765625 218.4728125 -82.59765625 217.8128125 -82.59765625 217.1328125 C-83.25765625 217.1328125 -83.91765625 217.1328125 -84.59765625 217.1328125 C-84.59765625 216.1428125 -84.59765625 215.1528125 -84.59765625 214.1328125 C-85.58765625 214.1328125 -86.57765625 214.1328125 -87.59765625 214.1328125 C-87.59765625 213.4728125 -87.59765625 212.8128125 -87.59765625 212.1328125 C-88.25765625 212.1328125 -88.91765625 212.1328125 -89.59765625 212.1328125 C-101.59765625 195.96152787 -101.59765625 195.96152787 -101.59765625 190.1328125 C-102.25765625 190.1328125 -102.91765625 190.1328125 -103.59765625 190.1328125 C-107.59662135 181.77762605 -111.04449037 173.47973106 -113.41015625 164.5078125 C-113.60440186 163.78231201 -113.79864746 163.05681152 -113.9987793 162.30932617 C-117.00984467 150.3087033 -117.90670162 138.41036609 -117.78515625 126.0703125 C-117.78451172 124.79220703 -117.78386719 123.51410156 -117.78320312 122.19726562 C-117.73548045 112.08536102 -117.73548045 112.08536102 -116.59765625 107.1328125 C-116.3346875 105.84632812 -116.07171875 104.55984375 -115.80078125 103.234375 C-113.1724326 90.74832087 -110.47995839 78.04956761 -103.59765625 67.1328125 C-102.89479322 65.48108438 -102.21110382 63.81979332 -101.59765625 62.1328125 C-100.93765625 62.1328125 -100.27765625 62.1328125 -99.59765625 62.1328125 C-99.92765625 61.1428125 -100.25765625 60.1528125 -100.59765625 59.1328125 C-99.93765625 59.1328125 -99.27765625 59.1328125 -98.59765625 59.1328125 C-98.13359375 57.9571875 -98.13359375 57.9571875 -97.66015625 56.7578125 C-96.59765625 54.1328125 -96.59765625 54.1328125 -95.59765625 52.1328125 C-94.93765625 52.1328125 -94.27765625 52.1328125 -93.59765625 52.1328125 C-93.26765625 50.8128125 -92.93765625 49.4928125 -92.59765625 48.1328125 C-91.93765625 48.1328125 -91.27765625 48.1328125 -90.59765625 48.1328125 C-90.59765625 47.4728125 -90.59765625 46.8128125 -90.59765625 46.1328125 C-89.93765625 46.1328125 -89.27765625 46.1328125 -88.59765625 46.1328125 C-88.51515625 45.5553125 -88.43265625 44.9778125 -88.34765625 44.3828125 C-87.38630909 41.49877102 -85.7939484 40.19599603 -83.59765625 38.1328125 C-82.93765625 37.1428125 -82.27765625 36.1528125 -81.59765625 35.1328125 C-80.93765625 35.1328125 -80.27765625 35.1328125 -79.59765625 35.1328125 C-79.10265625 34.1428125 -79.10265625 34.1428125 -78.59765625 33.1328125 C-77.4846859 32.05610434 -76.33383281 31.01800397 -75.16015625 30.0078125 C-74.54269531 29.46898438 -73.92523438 28.93015625 -73.2890625 28.375 C-71.59765625 27.1328125 -71.59765625 27.1328125 -69.59765625 27.1328125 C-69.59765625 26.4728125 -69.59765625 25.8128125 -69.59765625 25.1328125 C-67.515625 23.40625 -67.515625 23.40625 -64.78515625 21.5078125 C-63.89183594 20.87617188 -62.99851563 20.24453125 -62.078125 19.59375 C-59.59765625 18.1328125 -59.59765625 18.1328125 -56.59765625 18.1328125 C-56.59765625 17.4728125 -56.59765625 16.8128125 -56.59765625 16.1328125 C-54.51636521 15.14931225 -52.43254266 14.17116792 -50.34765625 13.1953125 C-49.1875 12.65003906 -48.02734375 12.10476563 -46.83203125 11.54296875 C-43.59765625 10.1328125 -43.59765625 10.1328125 -41.42578125 9.62890625 C-39.4669358 9.22758264 -39.4669358 9.22758264 -37.765625 7.66796875 C-34.90578585 5.64289346 -32.34087936 5.23079275 -28.91015625 4.5703125 C-27.67136719 4.32410156 -26.43257813 4.07789063 -25.15625 3.82421875 C-23.39474609 3.48197266 -23.39474609 3.48197266 -21.59765625 3.1328125 C-16.074025 1.9600739 -16.074025 1.9600739 -10.59889221 0.58621216 C-7.11799224 -0.20241991 -3.55277404 -0.00897667 0 0 Z " fill="#7A7A7A" transform="translate(117.59765625,-0.1328125)"/>
<path d="" fill="#FFFFFF" transform="translate(0,0)"/>
<path d="" fill="#FFFFFF" transform="translate(0,0)"/>
</svg>
