<?xml version="1.0" encoding="UTF-8"?>
<svg version="1.1" xmlns="http://www.w3.org/2000/svg" width="512" height="512">
<path d="M0 0 C168.96 0 337.92 0 512 0 C512 168.96 512 337.92 512 512 C343.04 512 174.08 512 0 512 C0 343.04 0 174.08 0 0 Z " fill="#1C1C1C" transform="translate(0,0)"/>
<path d="M0 0 C139.92 0 279.84 0 424 0 C424 18.48 424 36.96 424 56 C284.08 56 144.16 56 0 56 C0 37.52 0 19.04 0 0 Z " fill="#575757" transform="translate(44,216)"/>
<path d="M0 0 C139.92 0 279.84 0 424 0 C424 18.48 424 36.96 424 56 C284.08 56 144.16 56 0 56 C0 37.52 0 19.04 0 0 Z " fill="#585858" transform="translate(44,73)"/>
<path d="M0 0 C1.23750708 0.00138269 1.23750708 0.00138269 2.50001431 0.00279331 C3.44377422 0.00141865 4.38753414 0.00004398 5.35989285 -0.00137234 C6.40358028 0.00222294 7.44726772 0.00581821 8.52258205 0.00952244 C9.61512798 0.00937641 10.70767391 0.00923038 11.83332729 0.00907993 C15.46405899 0.00977961 19.09474012 0.01757454 22.72546291 0.02539158 C25.2351011 0.02725557 27.74473964 0.02867956 30.25437832 0.0296793 C36.1971526 0.03311435 42.1399105 0.0410051 48.08267635 0.05102879 C55.50982591 0.0632853 62.93697771 0.06866991 70.36413479 0.0742197 C83.61870321 0.08495972 96.87324972 0.10255775 110.12780666 0.12304783 C110.12780666 10.68304783 110.12780666 21.24304783 110.12780666 32.12304783 C72.83780666 32.12304783 35.54780666 32.12304783 -2.87219334 32.12304783 C-2.87219334 0.18877172 -2.87219334 0.18877172 0 0 Z " fill="#ABCD2D" transform="translate(187.87219333648682,155.87695217132568)"/>
<path d="M0 0 C36.96 0 73.92 0 112 0 C112 8.91 112 17.82 112 27 C75.04 27 38.08 27 0 27 C0 18.09 0 9.18 0 0 Z " fill="#C5C5C5" transform="translate(328,356)"/>
<path d="M0 0 C28.71 0 57.42 0 87 0 C87 10.56 87 21.12 87 32 C58.29 32 29.58 32 0 32 C0 21.44 0 10.88 0 0 Z " fill="#BFBFBF" transform="translate(70,156)"/>
<path d="M0 0 C27.39 0 54.78 0 83 0 C83 8.91 83 17.82 83 27 C55.61 27 28.22 27 0 27 C0 18.09 0 9.18 0 0 Z " fill="#C5C5C5" transform="translate(328,300)"/>
<path d="M0 0 C19.47 0 38.94 0 59 0 C59 8.91 59 17.82 59 27 C39.53 27 20.06 27 0 27 C0 18.09 0 9.18 0 0 Z " fill="#AFD130" transform="translate(156,412)"/>
<path d="M0 0 C19.14 0 38.28 0 58 0 C58 8.91 58 17.82 58 27 C38.86 27 19.72 27 0 27 C0 18.09 0 9.18 0 0 Z " fill="#68D6F9" transform="translate(242,412)"/>
<path d="M0 0 C19.14 0 38.28 0 58 0 C58 8.91 58 17.82 58 27 C38.86 27 19.72 27 0 27 C0 18.09 0 9.18 0 0 Z " fill="#FB1261" transform="translate(71,412)"/>
<path d="M0 0 C19.14 0 38.28 0 58 0 C58 8.91 58 17.82 58 27 C38.86 27 19.72 27 0 27 C0 18.09 0 9.18 0 0 Z " fill="#C5C5C5" transform="translate(328,412)"/>
<path d="M0 0 C19.14 0 38.28 0 58 0 C58 8.91 58 17.82 58 27 C38.86 27 19.72 27 0 27 C0 18.09 0 9.18 0 0 Z " fill="#67D7F9" transform="translate(242,356)"/>
<path d="M0 0 C19.14 0 38.28 0 58 0 C58 8.91 58 17.82 58 27 C38.86 27 19.72 27 0 27 C0 18.09 0 9.18 0 0 Z " fill="#B1D32F" transform="translate(156,356)"/>
<path d="M0 0 C19.14 0 38.28 0 58 0 C58 8.91 58 17.82 58 27 C38.86 27 19.72 27 0 27 C0 18.09 0 9.18 0 0 Z " fill="#FA1160" transform="translate(71,356)"/>
<path d="M0 0 C19.14 0 38.28 0 58 0 C58 8.91 58 17.82 58 27 C38.86 27 19.72 27 0 27 C0 18.09 0 9.18 0 0 Z " fill="#68D6F9" transform="translate(242,300)"/>
<path d="M0 0 C19.14 0 38.28 0 58 0 C58 8.91 58 17.82 58 27 C38.86 27 19.72 27 0 27 C0 18.09 0 9.18 0 0 Z " fill="#B1D42C" transform="translate(156,300)"/>
<path d="M0 0 C19.14 0 38.28 0 58 0 C58 8.91 58 17.82 58 27 C38.86 27 19.72 27 0 27 C0 18.09 0 9.18 0 0 Z " fill="#FA1160" transform="translate(71,300)"/>
<path d="M0 0 C1.07743973 -0.00307663 2.15487946 -0.00615326 3.26496887 -0.00932312 C4.41204819 -0.0021376 5.5591275 0.00504791 6.7409668 0.01245117 C8.5225544 0.0131385 8.5225544 0.0131385 10.34013367 0.01383972 C12.84232588 0.01685393 15.34451635 0.02471526 17.84667969 0.03710938 C21.69367038 0.05543652 25.54042126 0.05761847 29.38745117 0.05737305 C31.81779181 0.06228578 34.24813081 0.06811302 36.6784668 0.07495117 C37.83566727 0.076064 38.99286774 0.07717682 40.18513489 0.07832336 C41.24681381 0.08470322 42.30849274 0.09108307 43.40234375 0.09765625 C44.81082329 0.10337395 44.81082329 0.10337395 46.24775696 0.10920715 C48.37768555 0.24291992 48.37768555 0.24291992 49.37768555 1.24291992 C49.53593813 3.24074119 49.62887726 5.24380826 49.6940918 7.24682617 C49.73598633 8.46176758 49.77788086 9.67670898 49.82104492 10.9284668 C49.86036133 12.20786133 49.89967773 13.48725586 49.94018555 14.80541992 C49.98336914 16.08868164 50.02655273 17.37194336 50.07104492 18.6940918 C50.17753355 21.87691845 50.27954517 25.05982666 50.37768555 28.24291992 C49.71768555 28.24291992 49.05768555 28.24291992 48.37768555 28.24291992 C48.37768555 28.90291992 48.37768555 29.56291992 48.37768555 30.24291992 C28.57768555 30.24291992 8.77768555 30.24291992 -11.62231445 30.24291992 C-11.62231445 21.00291992 -11.62231445 11.76291992 -11.62231445 2.24291992 C-6.89880138 0.66841556 -4.65256722 -0.00703101 0 0 Z M-10.62231445 2.24291992 C-10.62231445 11.15291992 -10.62231445 20.06291992 -10.62231445 29.24291992 C8.51768555 29.24291992 27.65768555 29.24291992 47.37768555 29.24291992 C47.37768555 20.33291992 47.37768555 11.42291992 47.37768555 2.24291992 C28.23768555 2.24291992 9.09768555 2.24291992 -10.62231445 2.24291992 Z " fill="#521026" transform="translate(81.622314453125,353.757080078125)"/>
<path d="M0 0 C1.07743973 -0.00307663 2.15487946 -0.00615326 3.26496887 -0.00932312 C4.41204819 -0.0021376 5.5591275 0.00504791 6.7409668 0.01245117 C8.5225544 0.0131385 8.5225544 0.0131385 10.34013367 0.01383972 C12.84232588 0.01685393 15.34451635 0.02471526 17.84667969 0.03710938 C21.69367038 0.05543652 25.54042126 0.05761847 29.38745117 0.05737305 C31.81779181 0.06228578 34.24813081 0.06811302 36.6784668 0.07495117 C37.83566727 0.076064 38.99286774 0.07717682 40.18513489 0.07832336 C41.24681381 0.08470322 42.30849274 0.09108307 43.40234375 0.09765625 C44.81082329 0.10337395 44.81082329 0.10337395 46.24775696 0.10920715 C48.37768555 0.24291992 48.37768555 0.24291992 49.37768555 1.24291992 C49.53593813 3.24074119 49.62887726 5.24380826 49.6940918 7.24682617 C49.73598633 8.46176758 49.77788086 9.67670898 49.82104492 10.9284668 C49.86036133 12.20786133 49.89967773 13.48725586 49.94018555 14.80541992 C49.98336914 16.08868164 50.02655273 17.37194336 50.07104492 18.6940918 C50.17753355 21.87691845 50.27954517 25.05982666 50.37768555 28.24291992 C49.71768555 28.24291992 49.05768555 28.24291992 48.37768555 28.24291992 C48.37768555 28.90291992 48.37768555 29.56291992 48.37768555 30.24291992 C28.57768555 30.24291992 8.77768555 30.24291992 -11.62231445 30.24291992 C-11.62231445 21.00291992 -11.62231445 11.76291992 -11.62231445 2.24291992 C-6.89880138 0.66841556 -4.65256722 -0.00703101 0 0 Z M-10.62231445 2.24291992 C-10.62231445 11.15291992 -10.62231445 20.06291992 -10.62231445 29.24291992 C8.51768555 29.24291992 27.65768555 29.24291992 47.37768555 29.24291992 C47.37768555 20.33291992 47.37768555 11.42291992 47.37768555 2.24291992 C28.23768555 2.24291992 9.09768555 2.24291992 -10.62231445 2.24291992 Z " fill="#511026" transform="translate(81.622314453125,297.757080078125)"/>
<path d="M0 0 C19.14 0 38.28 0 58 0 C58 8.91 58 17.82 58 27 C38.86 27 19.72 27 0 27 C0 18.09 0 9.18 0 0 Z M1 1 C1 8.92 1 16.84 1 25 C19.15 25 37.3 25 56 25 C56 17.08 56 9.16 56 1 C37.85 1 19.7 1 1 1 Z " fill="#D0255F" transform="translate(71,412)"/>
<path d="M0 0 C19.14 0 38.28 0 58 0 C58 8.91 58 17.82 58 27 C38.86 27 19.72 27 0 27 C0 18.09 0 9.18 0 0 Z M1 1 C1 8.92 1 16.84 1 25 C19.15 25 37.3 25 56 25 C56 17.08 56 9.16 56 1 C37.85 1 19.7 1 1 1 Z " fill="#D0245E" transform="translate(71,356)"/>
<path d="M0 0 C19.14 0 38.28 0 58 0 C58 8.91 58 17.82 58 27 C38.86 27 19.72 27 0 27 C0 18.09 0 9.18 0 0 Z M1 1 C1 8.92 1 16.84 1 25 C19.15 25 37.3 25 56 25 C56 17.08 56 9.16 56 1 C37.85 1 19.7 1 1 1 Z " fill="#D0245E" transform="translate(71,300)"/>
<path d="M0 0 C19.14 0 38.28 0 58 0 C58 8.91 58 17.82 58 27 C38.86 27 19.72 27 0 27 C0 18.09 0 9.18 0 0 Z M1 1 C1.33 8.92 1.66 16.84 2 25 C20.15 25 38.3 25 57 25 C57 17.08 57 9.16 57 1 C38.52 1 20.04 1 1 1 Z " fill="#AEC749" transform="translate(156,300)"/>
<path d="M0 0 C0.99 0.33 1.98 0.66 3 1 C2.99476318 1.68626465 2.98952637 2.3725293 2.98413086 3.07958984 C2.96339044 6.17805064 2.95034924 9.27649686 2.9375 12.375 C2.92912109 13.45523437 2.92074219 14.53546875 2.91210938 15.6484375 C2.90727539 17.1953125 2.90727539 17.1953125 2.90234375 18.7734375 C2.89448853 20.20308838 2.89448853 20.20308838 2.88647461 21.66162109 C2.84357401 24.02324406 2.84357401 24.02324406 4 26 C2.68 26.33 1.36 26.66 0 27 C0 18.09 0 9.18 0 0 Z " fill="#A3BE34" transform="translate(156,356)"/>
<path d="M0 0 C0.99 0 1.98 0 3 0 C3 8.91 3 17.82 3 27 C2.67 26.34 2.34 25.68 2 25 C1.34 25 0.68 25 0 25 C0 16.75 0 8.5 0 0 Z " fill="#A7A7A7" transform="translate(437,356)"/>
</svg>
