<?xml version="1.0" encoding="UTF-8"?>
<svg version="1.1" xmlns="http://www.w3.org/2000/svg" width="48" height="48">
<path d="M0 0 C1.98 0 3.96 0 6 0 C6 1.32 6 2.64 6 4 C8.64 4 11.28 4 14 4 C14 5.32 14 6.64 14 8 C12.02 8 10.04 8 8 8 C8 11.3 8 14.6 8 18 C6.68 18 5.36 18 4 18 C4 17.34 4 16.68 4 16 C2.68 16 1.36 16 0 16 C0 17.98 0 19.96 0 22 C-5.28 22 -10.56 22 -16 22 C-16 16.72 -16 11.44 -16 6 C-14.68 6 -13.36 6 -12 6 C-12 5.34 -12 4.68 -12 4 C-10.68 4 -9.36 4 -8 4 C-8 4.66 -8 5.32 -8 6 C-6.68 6 -5.36 6 -4 6 C-4 5.34 -4 4.68 -4 4 C-2.68 4 -1.36 4 0 4 C0 2.68 0 1.36 0 0 Z M0 8 C0 9.32 0 10.64 0 12 C1.32 12 2.64 12 4 12 C4 10.68 4 9.36 4 8 C2.68 8 1.36 8 0 8 Z M-12 10 C-12 12.64 -12 15.28 -12 18 C-9.36 18 -6.72 18 -4 18 C-4 15.36 -4 12.72 -4 10 C-6.64 10 -9.28 10 -12 10 Z " fill="#209AEE" transform="translate(21,21)"/>
<path d="M0 0 C5.28 0 10.56 0 16 0 C16 5.28 16 10.56 16 16 C14.68 16 13.36 16 12 16 C12 17.32 12 18.64 12 20 C10.68 20 9.36 20 8 20 C8 18.68 8 17.36 8 16 C5.36 16 2.72 16 0 16 C0 13.69 0 11.38 0 9 C-0.99 9 -1.98 9 -3 9 C-3 7.68 -3 6.36 -3 5 C-2.01 5 -1.02 5 0 5 C0 3.35 0 1.7 0 0 Z M4 4 C4 6.64 4 9.28 4 12 C6.64 12 9.28 12 12 12 C12 9.36 12 6.72 12 4 C9.36 4 6.72 4 4 4 Z " fill="#219BEE" transform="translate(27,5)"/>
<path d="M0 0 C5.28 0 10.56 0 16 0 C16 2.97 16 5.94 16 9 C16.99 9 17.98 9 19 9 C19 10.32 19 11.64 19 13 C18.01 13 17.02 13 16 13 C16 13.99 16 14.98 16 16 C14.68 16 13.36 16 12 16 C12 17.32 12 18.64 12 20 C10.68 20 9.36 20 8 20 C8 18.68 8 17.36 8 16 C5.36 16 2.72 16 0 16 C0 10.72 0 5.44 0 0 Z M4 4 C4 6.64 4 9.28 4 12 C6.64 12 9.28 12 12 12 C12 9.36 12 6.72 12 4 C9.36 4 6.72 4 4 4 Z " fill="#209AEE" transform="translate(5,5)"/>
<path d="M0 0 C1.32 0 2.64 0 4 0 C4 1.32 4 2.64 4 4 C2.68 4 1.36 4 0 4 C0 2.68 0 1.36 0 0 Z " fill="#1E98EC" transform="translate(39,39)"/>
<path d="M0 0 C1.32 0 2.64 0 4 0 C4 1.32 4 2.64 4 4 C2.68 4 1.36 4 0 4 C0 2.68 0 1.36 0 0 Z " fill="#209AEE" transform="translate(31,39)"/>
<path d="M0 0 C1.32 0 2.64 0 4 0 C4 1.32 4 2.64 4 4 C2.68 4 1.36 4 0 4 C0 2.68 0 1.36 0 0 Z " fill="#209AEE" transform="translate(35,35)"/>
<path d="M0 0 C1.32 0 2.64 0 4 0 C4 1.32 4 2.64 4 4 C2.68 4 1.36 4 0 4 C0 2.68 0 1.36 0 0 Z " fill="#209AEE" transform="translate(11,33)"/>
<path d="M0 0 C1.32 0 2.64 0 4 0 C4 1.32 4 2.64 4 4 C2.68 4 1.36 4 0 4 C0 2.68 0 1.36 0 0 Z " fill="#209AEE" transform="translate(39,31)"/>
<path d="M0 0 C1.32 0 2.64 0 4 0 C4 1.32 4 2.64 4 4 C2.68 4 1.36 4 0 4 C0 2.68 0 1.36 0 0 Z " fill="#209AEE" transform="translate(31,31)"/>
<path d="M0 0 C1.32 0 2.64 0 4 0 C4 1.32 4 2.64 4 4 C2.68 4 1.36 4 0 4 C0 2.68 0 1.36 0 0 Z " fill="#209AEE" transform="translate(39,25)"/>
<path d="M0 0 C1.32 0 2.64 0 4 0 C4 1.32 4 2.64 4 4 C2.68 4 1.36 4 0 4 C0 2.68 0 1.36 0 0 Z " fill="#209AEE" transform="translate(33,11)"/>
<path d="M0 0 C1.32 0 2.64 0 4 0 C4 1.32 4 2.64 4 4 C2.68 4 1.36 4 0 4 C0 2.68 0 1.36 0 0 Z " fill="#209AEE" transform="translate(11,11)"/>
</svg>
