<?xml version="1.0" encoding="UTF-8"?>
<svg version="1.1" xmlns="http://www.w3.org/2000/svg" width="512" height="512">
<path d="M0 0 C1.01790619 0.00215515 2.03581238 0.0043103 3.08456421 0.00653076 C17.69363523 0.05620146 32.02575853 0.30709809 46.375 3.3125 C47.34985352 3.51117676 48.32470703 3.70985352 49.32910156 3.91455078 C97.7109774 14.03517194 141.69928269 35.9516877 177.375 70.3125 C178.3640332 71.26068604 178.3640332 71.26068604 179.37304688 72.22802734 C188.86130305 81.37247479 197.6012044 90.66984009 205.375 101.3125 C206.23306152 102.46355017 207.09113451 103.61459177 207.94921875 104.765625 C213.98736829 112.95680614 219.34595521 121.47054105 224.375 130.3125 C224.73948242 130.94430176 225.10396484 131.57610352 225.47949219 132.22705078 C247.08534998 169.97532572 256.85198095 212.74189997 256.6875 255.9375 C256.68534485 256.95540619 256.6831897 257.97331238 256.68096924 259.02206421 C256.63129854 273.63113523 256.38040191 287.96325853 253.375 302.3125 C253.07698486 303.77478027 253.07698486 303.77478027 252.77294922 305.26660156 C242.65232806 353.6484774 220.7358123 397.63678269 186.375 433.3125 C185.74287598 433.97185547 185.11075195 434.63121094 184.45947266 435.31054688 C175.31502521 444.79880305 166.01765991 453.5387044 155.375 461.3125 C154.22394983 462.17056152 153.07290823 463.02863451 151.921875 463.88671875 C143.73224019 469.92427396 135.22961724 475.30707302 126.375 480.3125 C125.66778809 480.7146875 124.96057617 481.116875 124.23193359 481.53125 C101.09654164 494.5566741 75.92537591 503.30551461 49.9375 508.625 C49.21860596 508.77235596 48.49971191 508.91971191 47.7590332 509.0715332 C33.08339502 511.86090125 18.55831162 512.66142619 3.64770508 512.62817383 C0.70811513 512.6250221 -2.2304558 512.64854926 -5.16992188 512.67382812 C-18.54306192 512.71848737 -31.43916711 511.51301542 -44.625 509.3125 C-46.33055054 509.03031616 -46.33055054 509.03031616 -48.07055664 508.74243164 C-91.33802759 500.97044532 -132.38793216 480.98345309 -165.625 452.3125 C-166.37007813 451.67828125 -167.11515625 451.0440625 -167.8828125 450.390625 C-181.38779833 438.57948485 -194.05918743 425.82889772 -204.625 411.3125 C-205.48149066 410.16255169 -206.33826433 409.01281411 -207.1953125 407.86328125 C-213.23534209 399.67315742 -218.61867614 391.16870382 -223.625 382.3125 C-224.0271875 381.60528809 -224.429375 380.89807617 -224.84375 380.16943359 C-237.8691741 357.03404164 -246.61801461 331.86287591 -251.9375 305.875 C-252.08485596 305.15610596 -252.23221191 304.43721191 -252.3840332 303.6965332 C-255.35789088 288.05024391 -255.99800362 272.57681954 -255.9375 256.6875 C-255.93534485 255.66959381 -255.9331897 254.65168762 -255.93096924 253.60293579 C-255.88129854 238.99386477 -255.63040191 224.66174147 -252.625 210.3125 C-252.42632324 209.33764648 -252.22764648 208.36279297 -252.02294922 207.35839844 C-241.90232806 158.9765226 -219.9858123 114.98821731 -185.625 79.3125 C-184.99287598 78.65314453 -184.36075195 77.99378906 -183.70947266 77.31445312 C-174.56502521 67.82619695 -165.26765991 59.0862956 -154.625 51.3125 C-153.47394983 50.45443848 -152.32290823 49.59636549 -151.171875 48.73828125 C-142.98224019 42.70072604 -134.47961724 37.31792698 -125.625 32.3125 C-124.91778809 31.9103125 -124.21057617 31.508125 -123.48193359 31.09375 C-100.34654164 18.0683259 -75.17537591 9.31948539 -49.1875 4 C-48.46860596 3.85264404 -47.74971191 3.70528809 -47.0090332 3.5534668 C-31.36274391 0.57960912 -15.88931954 -0.06050362 0 0 Z " fill="#A9D96C" transform="translate(255.625,-0.3125)"/>
<path d="M0 0 C2.1112779 1.62190885 4.11391748 3.30180219 6.109375 5.0625 C6.90085937 5.65933594 7.69234375 6.25617188 8.5078125 6.87109375 C23.05683774 19.12635375 31.48870192 38.44818497 33.31281281 57.14804077 C33.53920762 61.22176312 33.50312278 65.28576519 33.41183853 69.36334229 C33.36557612 71.57710857 33.351506 73.78919288 33.34542847 76.00341797 C33.32484412 82.28221888 33.26540647 88.55965103 33.14746094 94.83740234 C33.07682096 98.71547887 33.05539278 102.59132946 33.06417465 106.47000122 C33.05792458 107.93087499 33.03335918 109.39180252 32.98913956 110.85202026 C32.68158153 119.3768453 32.68158153 119.3768453 36.26824951 126.89819336 C38.77889312 129.17981136 41.32116414 131.13577631 44.109375 133.0625 C73.35311344 157.08932554 94.99230045 194.81226435 105.109375 231.0625 C105.359375 234.5625 105.359375 234.5625 105.109375 237.0625 C103.50629503 238.66557997 101.90251997 238.38795847 99.671875 238.5 C83.26488737 238.24661023 68.02286756 228.81152515 54.109375 221.0625 C54.10526611 221.73603516 54.10115723 222.40957031 54.09692383 223.10351562 C53.83552008 247.64619115 49.56513396 265.15666137 33.109375 284.0625 C33.70621094 284.32675781 34.30304688 284.59101563 34.91796875 284.86328125 C39.72156367 287.49198649 43.6699287 292.76156388 45.6484375 297.82421875 C46.73902091 303.12001783 46.48373617 308.69185706 46.109375 314.0625 C44.40636258 315.76551242 42.21574523 315.19876608 39.88696289 315.20776367 C38.2150161 315.21733345 38.2150161 315.21733345 36.5092926 315.22709656 C34.68904823 315.22876579 34.68904823 315.22876579 32.83203125 315.23046875 C31.59521103 315.23379715 30.35839081 315.23712555 29.08409119 315.24055481 C26.46207045 315.2456293 23.84004322 315.24796298 21.21801758 315.24780273 C18.52231158 315.24772129 15.82677481 315.25468657 13.13110352 315.26831055 C9.26052602 315.28655346 5.39014733 315.29153586 1.51953125 315.29296875 C-0.29767677 315.30374702 -0.29767677 315.30374702 -2.15159607 315.31474304 C-3.26937943 315.31166641 -4.38716278 315.30858978 -5.53881836 315.30541992 C-6.52619492 315.30684494 -7.51357147 315.30826996 -8.53086853 315.30973816 C-10.890625 315.0625 -10.890625 315.0625 -12.890625 313.0625 C-13.12109375 310.56640625 -13.12109375 310.56640625 -13.078125 307.625 C-13.06845703 306.17287109 -13.06845703 306.17287109 -13.05859375 304.69140625 C-12.890625 302.0625 -12.890625 302.0625 -11.890625 299.0625 C-32.350625 299.0625 -52.810625 299.0625 -73.890625 299.0625 C-73.395625 300.5475 -73.395625 300.5475 -72.890625 302.0625 C-72.77233063 303.9139445 -72.71547639 305.76982138 -72.703125 307.625 C-72.68894531 308.59566406 -72.67476563 309.56632812 -72.66015625 310.56640625 C-72.890625 313.0625 -72.890625 313.0625 -74.890625 315.0625 C-77.25038147 315.30973816 -77.25038147 315.30973816 -80.24243164 315.30541992 C-81.91910667 315.31003487 -81.91910667 315.31003487 -83.62965393 315.31474304 C-84.84112595 315.30755753 -86.05259796 315.30037201 -87.30078125 315.29296875 C-88.5385582 315.29251053 -89.77633514 315.29205231 -91.05162048 315.2915802 C-94.34420547 315.2877786 -97.63659859 315.27475824 -100.92913818 315.25811768 C-104.28414147 315.24466164 -107.6391113 315.24784184 -110.99414062 315.24804688 C-113.53385617 315.24313168 -116.07357015 315.23730335 -118.61328125 315.23046875 C-119.8267775 315.22935593 -121.04027374 315.2282431 -122.2905426 315.22709656 C-123.4051738 315.22071671 -124.51980499 315.21433685 -125.66821289 315.20776367 C-126.65479385 315.20395187 -127.64137482 315.20014008 -128.65785217 315.19621277 C-130.890625 315.0625 -130.890625 315.0625 -131.890625 314.0625 C-132.77399064 304.98907288 -132.28951155 297.58619585 -126.890625 290.0625 C-124.69831895 287.54859534 -122.40596114 285.25163981 -119.890625 283.0625 C-120.45910156 282.50304687 -121.02757812 281.94359375 -121.61328125 281.3671875 C-136.05956666 266.36620332 -140.37231877 249.12744546 -140.09545898 228.88525391 C-140.04081785 226.27702278 -139.9741764 223.66994624 -139.890625 221.0625 C-140.37192871 221.33400879 -140.85323242 221.60551758 -141.34912109 221.88525391 C-170.61336508 238.23697028 -170.61336508 238.23697028 -185.578125 238.1875 C-186.36574219 238.19007813 -187.15335937 238.19265625 -187.96484375 238.1953125 C-189.890625 238.0625 -189.890625 238.0625 -190.890625 237.0625 C-190.24649093 200.99099183 -158.02228302 159.52247203 -133.39404297 135.609375 C-125.02214477 127.71207421 -125.02214477 127.71207421 -121.76914978 125.84461975 C-119.60132333 124.14703151 -119.60132333 124.14703151 -119.4052887 121.12742615 C-119.41148727 119.9270723 -119.41768585 118.72671844 -119.42407227 117.48999023 C-119.42176605 116.82596191 -119.41945984 116.16193359 -119.41708374 115.4777832 C-119.4144529 114.03403639 -119.42090801 112.59025115 -119.43533516 111.14657402 C-119.45729685 108.84323779 -119.45347619 106.54121078 -119.44285583 104.23780823 C-119.42121445 98.50393148 -119.43821636 92.77033967 -119.46435547 87.03649902 C-119.594635 58.02614149 -118.60526064 31.00571075 -96.890625 9.0625 C-69.87064211 -15.89220668 -31.071189 -20.82609425 0 0 Z " fill="#050603" transform="translate(298.890625,104.9375)"/>
<path d="M0 0 C9.07354644 6.30144954 13.86308799 13.8164726 16.25 24.68359375 C16.43369141 25.74126953 16.43369141 25.74126953 16.62109375 26.8203125 C17.94109375 26.8203125 19.26109375 26.8203125 20.62109375 26.8203125 C20.76804687 26.05847656 20.915 25.29664063 21.06640625 24.51171875 C23.38976998 13.81623401 27.36128671 6.6719271 36.359375 0.26171875 C44.59502236 -4.98690625 53.09227764 -5.04066682 62.62109375 -4.1796875 C66.02113404 -3.32606036 68.68013551 -2.06567274 71.62109375 -0.1796875 C72.31589844 0.2328125 73.01070312 0.6453125 73.7265625 1.0703125 C81.13538751 5.96319506 85.24566069 13.39188417 87.62109375 21.8203125 C87.79862976 25.26368713 87.79862976 25.26368713 87.7019043 29.08813477 C87.67280306 30.5417885 87.64398193 31.99544786 87.61540222 33.44911194 C87.59687887 34.2123131 87.57835552 34.97551426 87.55927086 35.76184273 C87.47076237 39.84663471 87.45077878 43.93201575 87.41992188 48.01757812 C87.37836177 53.19767373 87.31672137 58.37462551 87.17211914 63.55297852 C85.60914323 83.16245756 85.60914323 83.16245756 91.81201172 100.83178711 C94.79845667 103.72325703 98.01773022 105.7748065 101.69145203 107.68629456 C105.06604064 109.66948345 107.66755682 112.45961223 110.37109375 115.2578125 C111.20852112 116.10931129 111.20852112 116.10931129 112.06286621 116.97801208 C130.72056133 136.05962492 159.62109375 174.2614724 159.62109375 201.8203125 C144.1311211 199.47758526 128.92556779 192.30776629 115.80859375 183.8203125 C112.82472819 181.55456696 112.82472819 181.55456696 109.62109375 181.8203125 C109.60651123 182.65578613 109.59192871 183.49125977 109.5769043 184.35205078 C109.51495937 187.52459417 109.44065984 190.69656912 109.35864258 193.86865234 C109.30998719 195.88749483 109.27491032 197.90665027 109.24023438 199.92578125 C108.67540124 220.77325869 103.36463526 235.07677099 88.62109375 249.8203125 C85.99609375 249.4453125 85.99609375 249.4453125 83.62109375 248.8203125 C83.61562531 247.48299072 83.61562531 247.48299072 83.61004639 246.11865234 C83.57191336 237.64692172 83.5147788 229.17556621 83.43719101 220.70410156 C83.39796449 216.35057236 83.36565609 211.99723791 83.35009766 207.64355469 C83.33476516 203.42871617 83.3000341 199.21441404 83.25278473 194.99981689 C83.23813958 193.40542306 83.23006264 191.81095257 83.2292099 190.2164917 C83.20791613 170.33404781 79.0081078 152.70641138 64.78125 137.95703125 C64.06839844 137.25191406 63.35554687 136.54679688 62.62109375 135.8203125 C62.10417969 135.26988281 61.58726562 134.71945312 61.0546875 134.15234375 C49.20436126 122.61142551 31.42576566 118.2934123 15.42993164 118.39794922 C-2.83971326 118.99010168 -18.46797376 127.30800509 -31.00390625 140.3828125 C-41.82034268 153.42917777 -46.37506796 169.3698442 -46.58422852 186.13256836 C-46.59412811 186.82609406 -46.60402771 187.51961975 -46.61422729 188.23416138 C-46.64553398 190.50112627 -46.67047617 192.76811204 -46.6953125 195.03515625 C-46.71590875 196.61699432 -46.73690588 198.19882723 -46.75828552 199.78065491 C-46.81323062 203.92501613 -46.86276033 208.06942473 -46.91113281 212.21386719 C-46.96155031 216.45056325 -47.01713022 220.6871913 -47.07226562 224.92382812 C-47.17950959 233.22259859 -47.28102816 241.52142631 -47.37890625 249.8203125 C-52.09814453 250.02246094 -52.09814453 250.02246094 -54.625 248.203125 C-66.81035144 235.64852049 -72.5548172 221.40027522 -72.4765625 203.79296875 C-72.47333984 202.50712891 -72.47011719 201.22128906 -72.46679688 199.89648438 C-72.45844427 198.55859305 -72.44997936 197.22070243 -72.44140625 195.8828125 C-72.43638284 194.51757976 -72.43182142 193.15234524 -72.42773438 191.78710938 C-72.41599476 188.46479793 -72.39957304 185.14257842 -72.37890625 181.8203125 C-76.91683127 183.26407225 -80.61934478 185.02556186 -84.69140625 187.5078125 C-95.18752379 193.70082048 -109.9343922 201.8203125 -122.37890625 201.8203125 C-121.01239 194.64794881 -118.77373094 188.22816639 -115.94140625 181.5078125 C-115.50038574 180.46036865 -115.05936523 179.4129248 -114.60498047 178.33374023 C-103.647243 152.84609691 -88.26012683 130.72194822 -68.81640625 111.0078125 C-68.09432983 110.27159668 -68.09432983 110.27159668 -67.35766602 109.52050781 C-66.86838623 109.03549805 -66.37910645 108.55048828 -65.875 108.05078125 C-65.38402328 107.56258911 -64.89304657 107.07439697 -64.38719177 106.57141113 C-62.37890625 104.8203125 -62.37890625 104.8203125 -59.67175293 103.13140869 C-55.02840046 100.04358605 -51.88746675 97.70462142 -50.39796448 92.18574524 C-49.93780554 87.75290664 -50.09003968 83.33349199 -50.2265625 78.88671875 C-50.23481505 77.24203783 -50.23760209 75.59732135 -50.23521423 73.95262146 C-50.24085645 69.6396692 -50.30850125 65.33010781 -50.39318848 61.01806641 C-50.51934176 54.12339018 -50.55554553 47.22794722 -50.58227348 40.33228874 C-50.60114391 37.93979013 -50.64954249 35.54932201 -50.70240784 33.15736389 C-50.87994756 21.2604506 -48.96871992 12.63712506 -40.6015625 3.80078125 C-29.37454463 -6.20290603 -12.89452883 -7.52326648 0 0 Z " fill="#40403F" transform="translate(237.37890625,135.1796875)"/>
<path d="M0 0 C13.04457331 10.11619971 22.26355333 23.40354679 25 40 C25.08697529 42.49420775 25.12664387 44.95905511 25.11352539 47.45239258 C25.11367142 48.1846405 25.11381744 48.91688843 25.1139679 49.67132568 C25.11327413 52.07909155 25.10550692 54.48677898 25.09765625 56.89453125 C25.09579017 58.56890318 25.09436716 60.24327565 25.09336853 61.91764832 C25.08955835 66.31527221 25.0797409 70.71286284 25.06866455 75.11047363 C25.05841816 79.60163931 25.053864 84.09281037 25.04882812 88.58398438 C25.03811726 97.38933814 25.02105888 106.19466493 25 115 C24.32743164 115.11899658 23.65486328 115.23799316 22.96191406 115.3605957 C22.07213867 115.52648193 21.18236328 115.69236816 20.265625 115.86328125 C18.94739746 116.10365112 18.94739746 116.10365112 17.60253906 116.34887695 C13.50472227 117.37409997 10.18933354 119.25641977 7 122 C6.52677559 122.82369583 6.52677559 122.82369583 6.04399109 123.66403198 C4.561842 126.00901763 3.28484509 127.39898893 1 129 C-4.19624055 130.09516032 -9.36891436 130.01093852 -14.65234375 129.96484375 C-16.19642631 129.97210686 -17.74050089 129.98129816 -19.28456116 129.99232483 C-22.51530706 130.00712739 -25.74469903 129.99621975 -28.9753418 129.9675293 C-33.10337825 129.93326372 -37.22763014 129.96657013 -41.35535336 130.01973629 C-44.5427517 130.05264231 -47.72925569 130.04763078 -50.91674995 130.0315876 C-52.4377153 130.02877886 -53.95875477 130.03800401 -55.47956657 130.05979729 C-67.37206108 130.20046729 -67.37206108 130.20046729 -71.39529419 127.2336731 C-73.24438477 125.08422852 -73.24438477 125.08422852 -74.64527893 122.94581604 C-78.29456519 117.70426492 -85.28786549 116.48233 -91.21484375 115.39453125 C-93 115 -93 115 -94 114 C-94.11539988 111.87658241 -94.15971335 109.74928351 -94.17700195 107.62280273 C-94.18357315 106.95585388 -94.19014435 106.28890503 -94.19691467 105.60174561 C-94.21672554 103.37902718 -94.22834007 101.15637725 -94.23828125 98.93359375 C-94.24235678 98.1711693 -94.2464323 97.40874485 -94.25063133 96.62321663 C-94.27154544 92.57181187 -94.28581233 88.5204413 -94.29516602 84.46899414 C-94.30611842 80.32376097 -94.34036962 76.17908149 -94.38033772 72.0340414 C-94.40679173 68.81735905 -94.41488396 65.60080135 -94.41844749 62.38401985 C-94.42325599 60.85931814 -94.43470122 59.33461975 -94.45348549 57.81002617 C-94.67368271 38.71923698 -90.3085191 21.39330893 -77 7 C-70.45143597 0.80448898 -63.25196611 -3.44445487 -55 -7 C-54.23558594 -7.34160156 -53.47117188 -7.68320312 -52.68359375 -8.03515625 C-36.05118805 -14.25422969 -14.17766062 -9.89139113 0 0 Z " fill="#E3DED4" transform="translate(290,269)"/>
<path d="M0 0 C1.09723389 0.00757324 2.19446777 0.01514648 3.32495117 0.02294922 C11.7301605 0.19332928 18.87245044 1.16252492 26.6875 4.4375 C27.71617187 4.86160156 28.74484375 5.28570312 29.8046875 5.72265625 C42.48288928 11.5133362 51.27468174 20.65230349 59.6875 31.4375 C59.3575 32.0975 59.0275 32.7575 58.6875 33.4375 C58.02363281 33.08816406 57.35976563 32.73882812 56.67578125 32.37890625 C55.79277344 31.92386719 54.90976562 31.46882813 54 31 C53.12988281 30.54753906 52.25976562 30.09507812 51.36328125 29.62890625 C42.88818906 25.85532506 31.44635209 26.13128202 22.75 29.0625 C13.65146939 32.90980152 5.91143511 39.39748934 1.6875 48.4375 C-1.90487333 47.24004222 -2.100328 46.48189029 -3.9375 43.3125 C-8.9963181 35.42927974 -16.45839596 30.10952192 -25.5703125 27.88671875 C-35.84055506 26.20427161 -44.8726114 27.20992399 -54.3125 31.4375 C-55.3025 31.7675 -56.2925 32.0975 -57.3125 32.4375 C-52.83936633 18.96947798 -38.56112539 10.89291099 -26.66015625 4.796875 C-17.79149636 1.19559887 -9.54693963 -0.09273876 0 0 Z " fill="#F79D03" transform="translate(255.3125,98.5625)"/>
<path d="M0 0 C1.8125 1.63671875 1.8125 1.63671875 3 3 C1.07329597 9.22872476 -1.8041361 14.76414818 -4.85766602 20.50610352 C-5.8149671 22.31716737 -6.74803259 24.13952546 -7.68164062 25.96289062 C-8.28814453 27.10564453 -8.89464844 28.24839844 -9.51953125 29.42578125 C-10.06714111 30.47161377 -10.61475098 31.51744629 -11.17895508 32.5949707 C-13 35 -13 35 -15.7175293 35.84838867 C-16.84735229 35.92343628 -16.84735229 35.92343628 -18 36 C-20.87670466 31.42970303 -23.73856498 26.85059788 -26.58789062 22.26318359 C-27.94919007 20.08143292 -29.32534625 17.90964842 -30.703125 15.73828125 C-31.53193473 14.40928094 -32.36008761 13.07987072 -33.1875 11.75 C-33.78485962 10.82175415 -33.78485962 10.82175415 -34.39428711 9.87475586 C-35.89280382 7.43920308 -36.99894312 5.61827232 -37.00390625 2.71484375 C-35.62429783 0.35823636 -34.26341745 -0.16798464 -31.75 -1.1875 C-30.98171875 -1.51105469 -30.2134375 -1.83460938 -29.421875 -2.16796875 C-19.42438545 -5.60259016 -9.41232414 -4.75385966 0 0 Z " fill="#020201" transform="translate(272,179)"/>
<path d="M0 0 C4.22177441 3.48820368 6.49262607 7.68881571 8.203125 12.8203125 C8.203125 15.1303125 8.203125 17.4403125 8.203125 19.8203125 C-7.306875 19.8203125 -22.816875 19.8203125 -38.796875 19.8203125 C-37.71704282 10.10182287 -36.43079304 5.46702735 -28.921875 -0.5546875 C-19.28029244 -7.15629347 -9.52896001 -6.20281359 0 0 Z " fill="#30312E" transform="translate(330.796875,394.1796875)"/>
<path d="M0 0 C4.60990242 4.10927954 7.64708714 8.9474951 9 15 C9 16.65 9 18.3 9 20 C-6.51 20 -22.02 20 -38 20 C-38 12.37556816 -37.24232523 8.66682831 -32.26953125 3.04296875 C-22.81073683 -5.92495011 -10.93246747 -7.61121153 0 0 Z " fill="#30312E" transform="translate(211,394)"/>
<path d="M0 0 C3.27890811 1.81001297 5.45091777 4.11669381 7.4375 7.3125 C8.36580077 11.74771481 8.26882007 15.84584652 5.953125 19.77734375 C3.69550905 22.62723549 1.51196315 24.96706966 -2 26 C-7.22343681 26.48365156 -10.61480585 25.92346277 -15 23 C-18.05055526 19.62833366 -19.27403455 16.97411596 -19.5 12.5 C-19.27403455 8.02588404 -18.05055526 5.37166634 -15 2 C-10.11085886 -1.52472966 -5.64082387 -1.65491076 0 0 Z " fill="#020201" transform="translate(300,149)"/>
<path d="M0 0 C4.26546997 2.48172798 6.23753901 4.69772808 7.5625 9.375 C8.31858831 14.01182731 7.46775879 16.94013876 5 21 C1.62561218 24.12748139 -0.63861318 25.89527794 -5.25 26.25 C-10.74033597 25.8839776 -13.68492361 24.45350549 -17.375 20.375 C-19.45494473 16.05511479 -19.82730415 12.71056853 -19 8 C-17.21413657 4.29089903 -15.63776905 2.45978699 -12.3125 0.0625 C-7.8860267 -1.35731219 -4.4597314 -1.27648841 0 0 Z " fill="#030302" transform="translate(223,149)"/>
<path d="M0 0 C1.0828125 -0.01675781 2.165625 -0.03351563 3.28125 -0.05078125 C6.91115634 0.35890478 9.34715323 1.51290825 12.5 3.3125 C11.25133587 5.66738357 10.00110525 8.02141371 8.75 10.375 C8.40195312 11.03177734 8.05390625 11.68855469 7.6953125 12.36523438 C5.37417105 16.72812062 2.97105672 21.03267428 0.5 25.3125 C-2.85533366 21.32611734 -5.57902405 17.14202667 -8.25 12.6875 C-8.66121094 12.01976562 -9.07242188 11.35203125 -9.49609375 10.6640625 C-12.5 5.67418501 -12.5 5.67418501 -12.5 2.3125 C-8.20490297 0.68890157 -4.58831509 0.01638684 0 0 Z " fill="#F4BB0A" transform="translate(255.5,180.6875)"/>
<path d="M0 0 C2.9375 2.0625 2.9375 2.0625 5 5 C5.06641554 8.85210127 4.87229157 10.99848005 2.3125 13.9375 C-0.73602877 15.33817538 -2.67926952 15.4842732 -6 15 C-8.375 13.4375 -8.375 13.4375 -10 11 C-10.56783945 7.02512383 -10.62340519 4.93510779 -8.375 1.5625 C-5.24316508 -0.49791771 -3.68455227 -0.6767545 0 0 Z " fill="#F4F5F1" transform="translate(297,154)"/>
<path d="M0 0 C2.9375 2.0625 2.9375 2.0625 5 5 C5.06641554 8.85210127 4.87229157 10.99848005 2.3125 13.9375 C-0.73602877 15.33817538 -2.67926952 15.4842732 -6 15 C-8.375 13.4375 -8.375 13.4375 -10 11 C-10.56783945 7.02512383 -10.62340519 4.93510779 -8.375 1.5625 C-5.24316508 -0.49791771 -3.68455227 -0.6767545 0 0 Z " fill="#F4F5F1" transform="translate(220,154)"/>
</svg>
