<?xml version="1.0" encoding="UTF-8"?>
<svg version="1.1" xmlns="http://www.w3.org/2000/svg" width="512" height="512">
<path d="M0 0 C4.61395672 3.82530917 8.55966129 8.09563491 11.75 13.1875 C11.75 13.8475 11.75 14.5075 11.75 15.1875 C12.80814942 15.18473462 13.86629885 15.18196924 14.9565134 15.17912006 C40.74842813 15.11240985 66.54033161 15.06316986 92.33231449 15.03206348 C104.80531449 15.0166194 117.27825737 14.99557699 129.7512207 14.96118164 C140.62742018 14.93120391 151.50357826 14.91190714 162.3798179 14.90523452 C168.13436315 14.90133643 173.88879003 14.89222686 179.6432972 14.87030983 C185.06953667 14.84981225 190.49561002 14.84369283 195.92188454 14.84817696 C197.9038763 14.84735766 199.88587413 14.84147167 201.86783218 14.82988358 C219.04660163 14.73444532 238.136058 15.16236062 251.42578125 27.71484375 C252.23402344 28.55144531 253.04226563 29.38804688 253.875 30.25 C257.2021311 33.49407761 257.2021311 33.49407761 261.609375 34.3828125 C264.74439087 33.85489532 267.7017756 33.08704045 270.75 32.1875 C289.69101921 27.81435292 310.99862951 28.20718095 328.05859375 38.30078125 C342.45327761 48.39168445 352.23721472 61.66737866 356.35522461 78.91601562 C359.52133346 97.13337909 356.2299248 114.01973608 345.75 129.1875 C329.65178332 150.60978443 301.25809559 159.2071962 276.75 167.1875 C276.09 167.1875 275.43 167.1875 274.75 167.1875 C274.75999275 168.00863533 274.75999275 168.00863533 274.77018738 168.84635925 C274.83718255 174.60641534 274.88206318 180.36635861 274.91479492 186.12670898 C274.92976927 188.26900741 274.95015595 190.41127579 274.97631836 192.5534668 C275.29216507 219.10316986 275.29216507 219.10316986 270.75 228.1875 C271.925625 228.5175 273.10125 228.8475 274.3125 229.1875 C298.31407537 237.25082359 323.47462519 256.31756317 335.125 278.9375 C343.84590187 296.89255062 345.21127204 315.34593783 338.6484375 334.3828125 C330.16444226 355.78437469 314.42855736 373.19054064 293.34765625 382.7265625 C271.32296776 391.51587809 247.71797808 390.95757333 225.75 382.1875 C203.67941523 372.33192707 190.52248233 354.16362644 177.703125 334.546875 C166.86906055 317.9527125 166.86906055 317.9527125 152.75 304.1875 C152.74191315 304.84704681 152.73382629 305.50659363 152.72549438 306.18612671 C152.63964428 313.03151207 152.54014997 319.87660129 152.43261719 326.72167969 C152.3942602 329.27859537 152.35941938 331.83556625 152.328125 334.39257812 C152.28262024 338.06139909 152.2246019 341.72983773 152.1640625 345.3984375 C152.15251129 346.54742523 152.14096008 347.69641296 152.12905884 348.88021851 C152.10918915 349.9411673 152.08931946 351.00211609 152.06884766 352.09521484 C152.05552399 353.03231293 152.04220032 353.96941101 152.0284729 354.93490601 C151.75 357.1875 151.75 357.1875 149.75 359.1875 C145.0843884 358.99771241 142.88722902 356.84261105 139.625 353.6875 C138.65717106 352.76978518 137.68705783 351.85447423 136.71484375 350.94140625 C136.2235498 350.47879395 135.73225586 350.01618164 135.22607422 349.53955078 C132.96175847 347.46548849 130.57968322 345.54892608 128.1875 343.625 C123.66128834 339.97294939 119.32280698 336.16320406 115.0390625 332.23046875 C112.67682154 330.12218885 110.2386424 328.14411814 107.75 326.1875 C103.68997725 327.87092407 100.63742871 330.69908967 97.375 333.5625 C96.12373196 334.6471747 94.87242886 335.73180894 93.62109375 336.81640625 C92.98155762 337.37344238 92.34202148 337.93047852 91.68310547 338.50439453 C86.91628583 342.65474242 82.128668 346.78050861 77.30712891 350.8671875 C75.87171488 352.08429616 74.44147146 353.30749589 73.01171875 354.53125 C72.22410156 355.1809375 71.43648437 355.830625 70.625 356.5 C69.96242187 357.05300781 69.29984375 357.60601562 68.6171875 358.17578125 C66.75 359.1875 66.75 359.1875 64.5703125 358.91796875 C62.75 358.1875 62.75 358.1875 61.75 357.1875 C61.65567015 354.97882169 61.63257569 352.76708479 61.63647461 350.55639648 C61.63632858 349.86374695 61.63618256 349.17109741 61.6360321 348.4574585 C61.63673126 346.15780554 61.64452372 343.85823263 61.65234375 341.55859375 C61.65420792 339.96818588 61.65563183 338.37777743 61.65663147 336.78736877 C61.66045671 332.5935407 61.67028705 328.39974705 61.68133545 324.20593262 C61.69154943 319.92961086 61.69612906 315.65328356 61.70117188 311.37695312 C61.71190931 302.98045292 61.72898581 294.58398074 61.75 286.1875 C59.2121692 287.26750038 56.67766252 288.35438675 54.14453125 289.4453125 C53.4342981 289.74671143 52.72406494 290.04811035 51.99230957 290.35864258 C35.43274711 297.51876347 22.44006099 310.16782046 9.91455078 322.81713867 C7.99437817 324.7556756 6.06621544 326.68598211 4.13671875 328.61523438 C-1.33287236 334.10109681 -6.72718392 339.58582966 -11.75439453 345.48510742 C-28.41339606 364.44743482 -51.46916161 381.04552674 -77.1875 383 C-94.68319807 383.95442276 -110.36144338 377.70234074 -123.8125 366.625 C-134.59403065 356.60676356 -142.89212149 342.44593681 -143.48828125 327.5625 C-143.91339356 307.00008543 -138.32307348 291.01920466 -124.07421875 275.875 C-113.933024 266.04916155 -102.33684005 262.01236536 -89.02612305 258.46069336 C-79.16537864 255.76193497 -67.3829422 251.79119928 -60.88671875 243.43359375 C-57.43916843 236.86480445 -57.1939685 230.60533593 -58.91015625 223.42578125 C-63.7355488 208.78249045 -74.43584862 197.29880998 -84.84472656 186.30761719 C-97.34835709 173.06988711 -107.06164925 158.92304925 -108.5625 140.3125 C-108.04233875 125.89247437 -100.93865331 112.98574154 -91.11328125 102.7578125 C-82.64810789 95.15878921 -72.9080203 90.07201656 -62.25 86.1875 C-62.22421875 85.07375 -62.1984375 83.96 -62.171875 82.8125 C-61.70507264 68.6632366 -60.0994347 55.66036125 -52.421875 43.421875 C-50.9403535 41.01761374 -50.9403535 41.01761374 -51.25 37.1875 C-53.03068162 35.14887645 -53.03068162 35.14887645 -55.375 33.1875 C-62.33501884 26.56779753 -66.85758459 18.07373114 -67.5 8.4375 C-67.41594499 2.79530736 -65.49067459 -1.67853971 -62.6875 -6.5 C-45.09148242 -23.19365771 -16.65694788 -12.63717162 0 0 Z " fill="#060402" transform="translate(149.25,68.8125)"/>
<path d="M0 0 C62.7 0 125.4 0 190 0 C190.99 3.3 191.98 6.6 193 10 C197.3967622 19.07886001 204.64279566 24.64553052 214 28 C215.65 28.33 217.3 28.66 219 29 C219 64.97 219 100.94 219 138 C215.7 138.99 212.4 139.98 209 141 C199.92113999 145.3967622 194.35446948 152.64279566 191 162 C190.67 163.65 190.34 165.3 190 167 C180.76 167 171.52 167 162 167 C161.9175 164.834375 161.835 162.66875 161.75 160.4375 C160.77512684 143.70801317 155.04841331 128.64075669 144 116 C143.23623047 115.09507812 143.23623047 115.09507812 142.45703125 114.171875 C132.04268822 102.75466931 115.82186801 95.63000462 100.51953125 94.45703125 C81.86477118 93.68379371 64.91484176 98.53110013 50.8125 111.1875 C34.23295407 126.79395615 29.19479332 144.89632352 28 167 C18.76 167 9.52 167 0 167 C-0.99 163.7 -1.98 160.4 -3 157 C-6.25777764 150.27302552 -10.67809986 145.88345294 -17 142 C-20.96 140.68 -24.92 139.36 -29 138 C-29 102.03 -29 66.06 -29 29 C-25.04 27.68 -21.08 26.36 -17 25 C-6.62423533 18.62631599 -3.49464817 11.64882722 0 0 Z " fill="#FCFCFC" transform="translate(161,126)"/>
<path d="M0 0 C2.325777 -0.00678597 4.65154862 -0.01569457 6.97731018 -0.02655029 C13.25828095 -0.04923207 19.53883842 -0.04055344 25.81981587 -0.02465487 C31.74249253 -0.01323117 37.66511949 -0.02197879 43.58779757 -0.02929084 C56.03141737 -0.04350682 68.4748522 -0.02722058 80.91844165 -0.00028901 C91.5700692 0.02205133 102.22142422 0.01816044 112.87304688 -0.00488281 C125.27730279 -0.03170552 137.68139716 -0.04213941 150.08567804 -0.02682149 C156.63921199 -0.01904941 163.19255868 -0.01792388 169.7460804 -0.03450394 C175.90805957 -0.04900642 182.06952683 -0.03882093 188.23145103 -0.01003265 C190.48518654 -0.00345304 192.73896554 -0.00526556 194.99268341 -0.01634598 C212.95123242 -0.09646187 227.39288049 2.2949818 241.24194336 14.89697266 C253.52962466 27.69749542 257.23389457 42.60741287 257.17333984 59.89233398 C257.17905604 61.28994793 257.18602508 62.68755721 257.19413757 64.0851593 C257.21194913 67.84985908 257.21092313 71.61432425 257.20519519 75.37905335 C257.20208496 78.53715461 257.20821622 81.69521198 257.21423393 84.85330695 C257.22823899 92.31264281 257.22675232 99.77186406 257.21533203 107.23120117 C257.20386257 114.89126647 257.21791582 122.55098116 257.24472851 130.21100026 C257.26698258 136.81947897 257.27350093 143.42784841 257.26765209 150.03636187 C257.26430345 153.96924568 257.26655615 157.90190504 257.28390312 161.83475685 C257.2995255 165.5376436 257.2952504 169.24001686 257.27659798 172.94288445 C257.27123565 174.92488311 257.28531013 176.9069057 257.30029297 178.88885498 C257.16500798 195.60302757 251.98610149 210.07239565 240.43334961 222.17041016 C230.73293178 231.18810063 216.83651611 236.7878986 203.60205078 236.76049805 C202.38116257 236.76042252 201.16027435 236.76034698 199.90238953 236.76026917 C198.59389542 236.75510788 197.28540131 236.74994659 195.93725586 236.74462891 C194.5767675 236.74276226 193.21627846 236.74133952 191.85578918 236.74034119 C188.28673424 236.73653541 184.71772042 236.7267218 181.14868164 236.71563721 C177.50204016 236.70538128 173.855392 236.70083463 170.20874023 236.69580078 C163.0622391 236.68509769 155.9157658 236.66804469 148.76928711 236.64697266 C150.83163968 231.37371475 153.40803716 226.43581706 156.01538086 221.41259766 C157.93253347 217.29648381 159.3333948 212.9546496 160.76928711 208.64697266 C171.98928711 208.31697266 183.20928711 207.98697266 194.76928711 207.64697266 C196.38237854 204.42078979 197.03176252 202.75756246 197.58178711 199.39697266 C199.09340149 192.42293357 202.12961178 187.53102617 207.89428711 183.27197266 C212.28345682 180.54536723 216.49649594 179.62804152 221.58178711 178.97119141 C223.7418268 178.87303128 223.7418268 178.87303128 224.76928711 177.64697266 C224.86730364 176.10576425 224.89560557 174.56006897 224.89627075 173.01574707 C224.90050049 171.51392632 224.90050049 171.51392632 224.90481567 169.98176575 C224.90279144 168.87419418 224.90076721 167.76662262 224.89868164 166.62548828 C224.90043396 165.46627365 224.90218628 164.30705902 224.9039917 163.11271667 C224.90841305 159.25953702 224.90547122 155.40640282 224.90209961 151.55322266 C224.90277257 148.8890375 224.90374081 146.22485375 224.90499878 143.56066895 C224.90682032 137.9685008 224.90441456 132.37634584 224.8996582 126.78417969 C224.89421561 120.31024764 224.89597828 113.83634708 224.90148461 107.36241579 C224.90601617 101.8133786 224.90666608 96.26435092 224.90404594 90.71531248 C224.9024834 87.39701957 224.90267885 84.0787448 224.90558243 80.76045227 C224.90810728 77.06309852 224.90427071 73.36580618 224.89868164 69.66845703 C224.90171799 68.00709969 224.90171799 68.00709969 224.90481567 66.31217957 C224.90199585 65.31096573 224.89917603 64.30975189 224.89627075 63.27819824 C224.89589373 62.40287193 224.8955167 61.52754562 224.89512825 60.62569427 C224.98799302 58.64541131 224.98799302 58.64541131 223.76928711 57.64697266 C222.1051185 57.40031909 220.43777424 57.17498558 218.76928711 56.95947266 C211.93267866 55.74308908 206.5695784 53.1456251 202.17163086 47.65087891 C198.38423174 41.80967153 196.69821326 36.54756691 195.76928711 29.64697266 C194.03118641 27.90887196 191.77934029 28.52197127 189.46259117 28.51322925 C188.31237197 28.51657533 188.31237197 28.51657533 187.13891602 28.51998901 C186.33022379 28.51842902 185.52153156 28.51686903 184.68833351 28.51526177 C181.95748743 28.51124841 179.22669618 28.5144427 176.49584961 28.51757812 C174.54661018 28.51622423 172.59737101 28.51444437 170.64813232 28.51226807 C165.33837004 28.5076923 160.02862709 28.50948388 154.71886444 28.51264715 C149.17528733 28.51517002 143.63171194 28.51283342 138.08813477 28.51126099 C128.77677105 28.50943907 119.46541525 28.51184617 110.15405273 28.51660156 C99.37213061 28.52204422 88.5902274 28.52028158 77.80830574 28.51477516 C68.56927897 28.51024464 59.33025791 28.50959318 50.09123039 28.51221383 C44.56523198 28.51377694 39.03924247 28.51396943 33.51324463 28.51067734 C28.31934977 28.50779951 23.12547941 28.50977267 17.93158722 28.51557159 C16.01951386 28.51689967 14.10743846 28.51650428 12.19536591 28.51430893 C9.59676835 28.51159928 6.9982506 28.51497625 4.3996582 28.51998901 C3.6328454 28.51775829 2.8660326 28.51552757 2.07598305 28.51322925 C-1.36668913 28.21542162 -1.36668913 28.21542162 -4.23071289 29.64697266 C-4.52872817 30.99541804 -4.79391994 32.35117553 -5.04321289 33.70947266 C-6.97284386 42.63401587 -10.86002491 48.00473268 -17.85571289 53.83447266 C-21.86603662 55.98816503 -25.46545713 56.60664558 -29.93774414 57.25244141 C-32.1888019 57.41274073 -32.1888019 57.41274073 -33.23071289 58.64697266 C-33.32872942 60.18818106 -33.35703135 61.73387634 -33.35769653 63.27819824 C-33.36192627 64.780019 -33.36192627 64.780019 -33.36624146 66.31217957 C-33.36421722 67.41975113 -33.36219299 68.52732269 -33.36010742 69.66845703 C-33.36185974 70.82767166 -33.36361206 71.98688629 -33.36541748 73.18122864 C-33.36983884 77.03440829 -33.366897 80.88754249 -33.36352539 84.74072266 C-33.36419835 87.40490781 -33.36516659 90.06909156 -33.36642456 92.73327637 C-33.36824611 98.32544452 -33.36584034 103.91759948 -33.36108398 109.50976562 C-33.35564139 115.98369767 -33.35740406 122.45759824 -33.36291039 128.93152952 C-33.36744195 134.48056671 -33.36809186 140.02959439 -33.36547172 145.57863283 C-33.36390918 148.89692574 -33.36410463 152.21520052 -33.36700821 155.53349304 C-33.36953306 159.2308468 -33.3656965 162.92813913 -33.36010742 166.62548828 C-33.36213165 167.73305984 -33.36415588 168.84063141 -33.36624146 169.98176575 C-33.36342163 170.98297958 -33.36060181 171.98419342 -33.35769653 173.01574707 C-33.35731951 173.89107338 -33.35694248 174.76639969 -33.35655403 175.66825104 C-33.4494188 177.648534 -33.4494188 177.648534 -32.23071289 178.64697266 C-30.67426936 178.96939975 -29.11011544 179.25496684 -27.54321289 179.52197266 C-18.80881426 181.22654903 -13.58388647 185.02402209 -8.54321289 192.33447266 C-6.13930061 196.28321884 -5.2829385 200.10489493 -4.59008789 204.64306641 C-4.42903675 206.63904338 -4.42903675 206.63904338 -3.23071289 207.64697266 C-0.71190772 207.80685756 1.78270977 207.90631491 4.30444336 207.96337891 C5.43431923 207.99455055 5.43431923 207.99455055 6.58702087 208.02635193 C9.00184701 208.0919269 11.41678509 208.15076887 13.83178711 208.20947266 C15.4652624 208.25265035 17.09872621 208.29626439 18.73217773 208.34033203 C22.74443175 208.44761628 26.75679875 208.54886086 30.76928711 208.64697266 C31.16857422 209.77296875 31.56786133 210.89896484 31.97924805 212.05908203 C34.61063423 219.44566131 37.31480631 226.24147607 41.66772461 232.82666016 C42.76928711 234.64697266 42.76928711 234.64697266 42.76928711 236.64697266 C35.02317739 236.71693704 27.27714374 236.77001695 19.53079605 236.80240917 C15.93260672 236.8179674 12.3346359 236.83902178 8.73657227 236.87329102 C5.25466561 236.90624081 1.77296715 236.92389935 -1.70908356 236.93160439 C-3.6630389 236.93972509 -5.6169122 236.96308537 -7.57073975 236.98686218 C-24.41891179 236.98999051 -38.5100224 232.1492485 -50.75415039 220.34619141 C-60.00792028 210.26045798 -65.32144041 197.39756169 -65.37788391 183.67311096 C-65.38503922 182.4748317 -65.39219452 181.27655243 -65.39956665 180.04196167 C-65.40225555 178.73542633 -65.40494446 177.42889099 -65.40771484 176.08276367 C-65.41398498 174.68603854 -65.42063227 173.28931507 -65.42762756 171.89259338 C-65.44861551 167.31203358 -65.45902917 162.73147367 -65.46899414 158.15087891 C-65.47304451 156.56842469 -65.47716151 154.98597064 -65.48134422 153.40351677 C-65.5003891 145.96257651 -65.51461821 138.52164609 -65.52295619 131.08068615 C-65.53270805 122.52135248 -65.55897658 113.96227882 -65.59945709 105.40303665 C-65.62974252 98.76922417 -65.64443701 92.13548566 -65.64773721 85.50160545 C-65.65007472 81.54847938 -65.65886313 77.59563127 -65.68419838 73.64258003 C-65.70770111 69.91519331 -65.71162474 66.18826313 -65.701437 62.46082115 C-65.70071564 60.46442082 -65.71965223 58.4680425 -65.73950195 56.47174072 C-65.64675096 40.12691691 -60.56086657 26.67352386 -49.41040039 14.74462891 C-34.91419449 0.79397914 -19.02770123 -0.09364188 0 0 Z " fill="#FA8B05" transform="translate(160.230712890625,91.35302734375)"/>
<path d="M0 0 C5.74661599 0.51654975 10.07175481 2.81087024 15.0625 5.5 C16.32441162 6.17494507 16.32441162 6.17494507 17.61181641 6.86352539 C41.012946 19.59222004 61.9935202 37.01786829 70.3828125 63.0859375 C75.9088125 82.04855398 72.65209672 100.25353955 63.66015625 117.58203125 C51.94903621 138.18192384 34.15033064 151.54337997 11.78125 158.7109375 C-10.04422996 164.50308411 -34.62175732 160.01614816 -53.97265625 148.94140625 C-71.43193563 137.74493935 -82.42897537 121.0774171 -93.55883789 104.0456543 C-102.75562834 89.50486265 -102.75562834 89.50486265 -115.12182617 77.86547852 C-116.968433 76.33377835 -117.86940282 75.45704152 -118.53314209 73.13420105 C-118.71016893 70.88469099 -118.70151482 68.70817422 -118.62109375 66.453125 C-118.61191673 65.23541412 -118.61191673 65.23541412 -118.60255432 63.99310303 C-118.57569081 61.41078739 -118.50654839 58.83149549 -118.4375 56.25 C-118.4159693 54.4987285 -118.39706023 52.74742267 -118.38085938 50.99609375 C-118.21206458 38.21206458 -118.21206458 38.21206458 -117 37 C-114.81471862 36.90749783 -112.6264427 36.88541241 -110.43920898 36.88989258 C-109.01517231 36.8893494 -107.59113564 36.88876235 -106.167099 36.88813782 C-105.02707082 36.89028007 -105.02707082 36.89028007 -103.86401176 36.89246559 C-99.82398742 36.89598992 -95.78410134 36.87013948 -91.74414062 36.84960938 C-86.60966585 36.8254212 -81.47558778 36.80940099 -76.34106445 36.82495117 C-72.18978999 36.83675098 -68.03950466 36.81883732 -63.88838387 36.78250694 C-62.3190835 36.77399512 -60.74968594 36.77581013 -59.18041801 36.789011 C-41.96842168 36.92273193 -25.94058256 31.80984752 -13.25 19.6875 C-7.66236947 13.82344958 -3.38769088 7.3399969 0 0 Z " fill="#EBECEE" transform="translate(419,297)"/>
<path d="M0 0 C2.12841131 2.12841131 2.76316379 3.63635934 3.9375 6.375 C10.90235053 20.53003446 23.60121761 29.77297316 38.1171875 35.0546875 C42.97163753 36.64652613 46.98447448 37.13919286 52.1394043 37.18945312 C52.85039276 37.19774643 53.56138123 37.20603973 54.29391479 37.21458435 C55.83314006 37.2319429 57.37239113 37.24712106 58.91165733 37.26036072 C61.34447936 37.28142543 63.77717073 37.30844177 66.20991516 37.33703613 C72.24803145 37.40678899 78.28624006 37.46638418 84.32446289 37.52606201 C89.43356333 37.57691122 94.54259114 37.63168918 99.65159035 37.69187927 C102.05413814 37.71852727 104.45669249 37.73929179 106.85929871 37.7598877 C108.32246225 37.77648175 109.78562268 37.7933528 111.2487793 37.81054688 C112.53133102 37.82307495 113.81388275 37.83560303 115.13529968 37.84851074 C118 38 118 38 119 39 C119.08669432 40.4887186 119.10703494 41.981445 119.09765625 43.47265625 C119.09443359 44.37177734 119.09121094 45.27089844 119.08789062 46.19726562 C119.07951172 47.14279297 119.07113281 48.08832031 119.0625 49.0625 C119.05798828 50.01189453 119.05347656 50.96128906 119.04882812 51.93945312 C119.0370011 54.29303065 119.02052025 56.64648477 119 59 C117.98421875 59.4125 116.9684375 59.825 115.921875 60.25 C96.54286088 68.30232671 81.78537428 80.86429612 67.16455078 95.62963867 C65.24437817 97.5681756 63.31621544 99.49848211 61.38671875 101.42773438 C55.91712764 106.91359681 50.52281608 112.39832966 45.49560547 118.29760742 C28.83660394 137.25993482 5.78083839 153.85802674 -19.9375 155.8125 C-37.43319807 156.76692276 -53.11144338 150.51484074 -66.5625 139.4375 C-77.34403065 129.41926356 -85.64212149 115.25843681 -86.23828125 100.375 C-86.66339356 79.81258543 -81.07307348 63.83170466 -66.82421875 48.6875 C-56.683024 38.86166155 -45.08684005 34.82486536 -31.77612305 31.27319336 C-22.02609113 28.60473555 -9.93150496 24.64302727 -3.671875 16.2109375 C-0.99124493 10.87239456 -0.24361413 5.94418478 0 0 Z " fill="#EBECEE" transform="translate(92,296)"/>
<path d="M0 0 C1.68955715 1.17611388 3.35828223 2.38298149 5 3.625 C5.72703125 4.17027344 6.4540625 4.71554688 7.203125 5.27734375 C17.98924556 14.02562855 25.8292698 27.92122993 28 41.625 C29.7657058 59.09732482 25.54268014 75.34866221 14.8515625 89.4609375 C5.16242402 100.90603635 -8.57776465 109.40844685 -23.71728516 110.89111328 C-34.81073211 111.55542478 -45.8757522 111.72484464 -56 106.625 C-56.99902344 106.12742187 -57.99804688 105.62984375 -59.02734375 105.1171875 C-75.57686944 96.14329589 -85.16223276 83.62508105 -90.56640625 65.75170898 C-93.96598589 53.42975047 -92.84661139 40.36810105 -88 28.625 C-87.63777344 27.74457031 -87.27554688 26.86414063 -86.90234375 25.95703125 C-79.63166196 10.06011683 -66.70463493 0.3116685 -51 -6.375 C-34.49014274 -12.26574859 -14.72930448 -8.92624061 0 0 Z " fill="#86C732" transform="translate(288,235.375)"/>
<path d="M0 0 C12.28632615 10.55986587 21.70766357 24.54771354 23.12329102 41.10351562 C23.94615139 60.93602309 20.91093323 76.09131386 7.77734375 91.70703125 C-5.95864925 106.15988584 -24.6972959 112.78341132 -42.97265625 119.51953125 C-43.98632767 119.89413483 -43.98632767 119.89413483 -45.02047729 120.27630615 C-46.95794282 120.98897978 -48.89813932 121.6934991 -50.83984375 122.39453125 C-51.97276855 122.80445313 -53.10569336 123.214375 -54.27294922 123.63671875 C-57.09765625 124.51953125 -57.09765625 124.51953125 -60.09765625 124.51953125 C-60.1057431 123.29115036 -60.11382996 122.06276947 -60.12216187 120.79716492 C-60.19983306 109.18946278 -60.28762454 97.58187483 -60.38518333 85.97432232 C-60.43501112 80.00756315 -60.48134196 74.04082052 -60.51953125 68.07397461 C-60.55655526 62.30968811 -60.60296077 56.54554481 -60.65571976 50.78138161 C-60.67417308 48.58833149 -60.68931402 46.39525078 -60.70100021 44.20215416 C-60.71801863 41.11728803 -60.7470897 38.03274345 -60.77880859 34.94799805 C-60.78096878 34.05247223 -60.78312897 33.15694641 -60.78535461 32.23428345 C-60.9061778 22.96392448 -62.14643665 14.4002429 -66.47265625 6.14453125 C-67.05789063 5.00242187 -67.643125 3.8603125 -68.24609375 2.68359375 C-69.98479011 -0.28759623 -71.94971601 -2.80264017 -74.09765625 -5.48046875 C-74.09765625 -6.14046875 -74.09765625 -6.80046875 -74.09765625 -7.48046875 C-71.57791372 -8.13082246 -69.0569969 -8.77584368 -66.53515625 -9.41796875 C-65.83068359 -9.60037109 -65.12621094 -9.78277344 -64.40039062 -9.97070312 C-42.59013344 -15.49864849 -18.11923922 -14.50910076 0 0 Z " fill="#EAEBED" transform="translate(483.09765625,111.48046875)"/>
<path d="M0 0 C-0.16224217 1.02051484 -0.32448435 2.04102968 -0.49164295 3.09246922 C-0.95157027 6.62774067 -1.12827273 9.96049876 -1.13371277 13.52049255 C-1.13797775 14.78909119 -1.14224274 16.05768982 -1.14663696 17.36473083 C-1.14628753 18.75283817 -1.14582604 20.14094547 -1.14526367 21.52905273 C-1.14825893 23.00477177 -1.15166231 24.48049003 -1.15544128 25.95620728 C-1.16424668 29.95000841 -1.1666179 33.94378809 -1.16725707 37.93759799 C-1.16796937 40.43577276 -1.17010707 42.93394213 -1.17275429 45.43211555 C-1.18199523 54.15567494 -1.18609061 62.87921908 -1.18530273 71.6027832 C-1.18470181 79.72175398 -1.1952598 87.84065834 -1.2110464 95.95961231 C-1.22413786 102.94241409 -1.22948598 109.9251942 -1.22884732 116.90800816 C-1.22859287 121.07320657 -1.23141505 125.23834589 -1.24202538 129.40353203 C-1.25173379 133.32124982 -1.2517668 137.23885231 -1.24450874 141.15657425 C-1.24346641 142.59001014 -1.24580483 144.02345331 -1.2518692 145.45687675 C-1.31996884 162.67549178 3.03475954 176.37836646 14.95703125 189.0859375 C27.40230116 201.13868498 41.85386048 204.18116231 58.5625 204.625 C60.36170898 204.68300781 60.36170898 204.68300781 62.19726562 204.7421875 C65.13136425 204.83570459 68.06546884 204.92145635 71 205 C71.68835938 206.62808594 71.68835938 206.62808594 72.390625 208.2890625 C73.01010239 209.73450973 73.62991175 211.17981472 74.25 212.625 C74.55035156 213.33785156 74.85070312 214.05070313 75.16015625 214.78515625 C76.6277556 218.18873773 78.1269335 221.34134644 80.234375 224.3984375 C82 227 82 227 82 229 C74.25389028 229.06996438 66.50785663 229.12304429 58.76150894 229.15543652 C55.16331961 229.17099475 51.56534879 229.19204913 47.96728516 229.22631836 C44.4853785 229.25926816 41.00368004 229.2769267 37.52162933 229.28463173 C35.56767399 229.29275243 33.61380069 229.31611272 31.65997314 229.33988953 C14.8118011 229.34301785 0.72069049 224.50227585 -11.5234375 212.69921875 C-20.77720739 202.61348532 -26.09072752 189.75058903 -26.14717102 176.02613831 C-26.15432632 174.82785904 -26.16148163 173.62957977 -26.16885376 172.39498901 C-26.17154266 171.08845367 -26.17423157 169.78191833 -26.17700195 168.43579102 C-26.18327209 167.03906589 -26.18991938 165.64234241 -26.19691467 164.24562073 C-26.21790262 159.66506093 -26.22831628 155.08450102 -26.23828125 150.50390625 C-26.24233162 148.92145203 -26.24644862 147.33899799 -26.25063133 145.75654411 C-26.26967621 138.31560385 -26.28390532 130.87467343 -26.2922433 123.4337135 C-26.30199516 114.87437982 -26.32826369 106.31530617 -26.36874419 97.756064 C-26.39902963 91.12225151 -26.41372412 84.488513 -26.41702431 77.85463279 C-26.41936183 73.90150673 -26.42815024 69.94865861 -26.45348549 65.99560738 C-26.47698822 62.26822065 -26.48091185 58.54129048 -26.47072411 54.8138485 C-26.47000275 52.81744816 -26.48893934 50.82106985 -26.50878906 48.82476807 C-26.41481112 32.26372776 -21.19869457 19.09675719 -10.03125 6.984375 C-2.88188976 0 -2.88188976 0 0 0 Z " fill="#D24D20" transform="translate(121,99)"/>
<path d="M0 0 C7.9689261 6.09604485 14.08708378 14.86830475 15.54296875 24.9453125 C16.98948165 40.02417082 14.77673589 50.37610334 5.23046875 62.4453125 C-3.28930655 71.32641755 -14.24162958 75.17411265 -26.33203125 75.4453125 C-37.81862804 75.39015962 -47.22349992 70.81466841 -55.45703125 62.9453125 C-63.80388555 54.05193797 -67.88920036 43.69056592 -67.6640625 31.4921875 C-66.72729112 19.96813207 -62.18274014 10.12536094 -53.76953125 2.1328125 C-37.48326712 -11.06796799 -17.17406853 -11.57856806 0 0 Z " fill="#FBFBFB" transform="translate(281.45703125,253.0546875)"/>
<path d="M0 0 C0.33 43.56 0.66 87.12 1 132 C-1.22159664 129.03787115 -3.10417397 126.21431077 -5 123.0625 C-10.5617153 114.28268528 -17.46617933 106.64746426 -24.59472656 99.12011719 C-37.09835709 85.88238711 -46.81164925 71.73554925 -48.3125 53.125 C-47.79233875 38.70497437 -40.68865331 25.79824154 -30.86328125 15.5703125 C-25.02946228 10.33340543 -7.66556181 -3.8327809 0 0 Z " fill="#E8E9EB" transform="translate(89,156)"/>
<path d="M0 0 C3.54891996 1.41956799 6.97888714 2.8908865 10.4375 4.5 C25.21669921 11.21781782 43.49159163 12.81084939 58.984375 7.2890625 C63.3061509 5.44167125 67.49315935 3.38909089 71.63671875 1.171875 C74 0 74 0 76 0 C76 24.42 76 48.84 76 74 C70.96227945 70.22170959 66.10705282 66.48961596 61.375 62.375 C60.785979 61.87009033 60.19695801 61.36518066 59.59008789 60.8449707 C56.40682049 58.11181976 53.2642353 55.34235499 50.16015625 52.51953125 C49.53641113 51.96152832 48.91266602 51.40352539 48.27001953 50.82861328 C47.07094429 49.75478118 45.88255145 48.66886966 44.70654297 47.56982422 C41.49498866 44.70786221 41.49498866 44.70786221 37.38671875 43.92578125 C34.49252625 45.22840472 32.66223519 46.79691058 30.375 49 C26.04005813 53.05960583 21.57465636 56.84961611 16.95703125 60.58203125 C12.96963059 63.84253456 9.05474806 67.18620645 5.15112305 70.54638672 C1.10830578 74 1.10830578 74 0 74 C0 49.58 0 25.16 0 0 Z " fill="#60C8F5" transform="translate(218,342)"/>
<path d="M0 0 C4.58620249 3.80962507 8.68433165 8.04083162 11.75 13.1875 C11.75 14.1775 11.75 15.1675 11.75 16.1875 C10.46867187 16.22488281 9.18734375 16.26226562 7.8671875 16.30078125 C-12.0571453 17.00028745 -28.16037611 19.73342771 -43.12890625 34.171875 C-45.07745652 36.02353603 -47.0675489 37.62365749 -49.25 39.1875 C-58.61182169 30.72521278 -66.61984158 21.63987626 -67.5 8.4375 C-67.41594499 2.79530736 -65.49067459 -1.67853971 -62.6875 -6.5 C-45.09148242 -23.19365771 -16.65694788 -12.63717162 0 0 Z " fill="#EBECEE" transform="translate(149.25,68.8125)"/>
<path d="M0 0 C-3.00661852 8.78496348 -10.26573586 15.29143431 -18.24609375 19.6875 C-27.04296706 23.88005239 -35.35885096 27.13383261 -45.16723633 27.11352539 C-46.38812454 27.11344986 -47.60901276 27.11337433 -48.86689758 27.11329651 C-50.17539169 27.10813522 -51.4838858 27.10297394 -52.83203125 27.09765625 C-54.19251961 27.09578961 -55.55300865 27.09436687 -56.91349792 27.09336853 C-60.48255287 27.08956275 -64.05156669 27.07974914 -67.62060547 27.06866455 C-71.26724695 27.05840863 -74.91389511 27.05386197 -78.56054688 27.04882812 C-85.70704801 27.03812503 -92.85352131 27.02107204 -100 27 C-98.15588134 22.28223019 -95.91911052 17.82665391 -93.56640625 13.34765625 C-91.48134129 9.27596288 -90.12657018 5.40488942 -89 1 C-88.67 1.66 -88.34 2.32 -88 3 C-77.96810198 2.9154426 -67.93636031 2.82049987 -57.90468597 2.71247292 C-53.24605764 2.66262869 -48.58745068 2.61629797 -43.92871094 2.578125 C-39.42876458 2.54112175 -34.9290024 2.49472179 -30.42921448 2.44193649 C-28.71655015 2.42347219 -27.00384647 2.40833517 -25.29112244 2.39665604 C-22.88334485 2.37965641 -20.47598177 2.35059012 -18.06835938 2.31884766 C-17.36776398 2.31668747 -16.66716858 2.31452728 -15.94534302 2.31230164 C-10.46866162 2.2206806 -5.32255769 0 0 0 Z " fill="#D04C20" transform="translate(409,301)"/>
<path d="M0 0 C9.35078477 7.90038932 16.70929233 17.60649492 18.45800781 30.07080078 C18.61284849 32.36793712 18.65960577 34.63139396 18.640625 36.93359375 C18.63490479 37.75327637 18.62918457 38.57295898 18.62329102 39.41748047 C18.27420513 51.53087807 14.51193282 61.87190349 6.140625 70.80859375 C5.64175781 71.41960937 5.14289063 72.030625 4.62890625 72.66015625 C-2.8134815 81.17109841 -15.15309216 86.24991041 -26.25390625 87.0546875 C-40.05872473 87.51624678 -51.71943851 83.70023327 -62.3046875 74.73828125 C-67.35272939 69.95680263 -71.05538722 65.16911014 -73.859375 58.80859375 C-74.25125 57.96167969 -74.643125 57.11476563 -75.046875 56.2421875 C-79.48096705 45.17235353 -79.77949002 31.93250307 -75.796875 20.68359375 C-69.16915507 6.03577576 -57.52665332 -3.17275122 -42.80859375 -9.00390625 C-28.16625368 -13.51888906 -11.85996866 -9.13060501 0 0 Z M-61.734375 10.62109375 C-69.2493393 19.95622926 -72.88562835 30.85701833 -71.859375 42.80859375 C-70.1176464 54.10805803 -64.47708971 64.176244 -55.734375 71.49609375 C-45.39242203 78.99874183 -35.378051 81.14943292 -22.859375 79.80859375 C-11.32578947 77.41634368 -1.61175789 71.51916343 5.140625 61.80859375 C12.32857576 50.6768116 12.44284539 39.49463305 10.73046875 26.7578125 C8.18984155 16.20832077 0.16178292 7.42958688 -8.859375 1.80859375 C-26.72726515 -7.72289088 -47.86723678 -4.23870296 -61.734375 10.62109375 Z " fill="#060805" transform="translate(285.859375,248.19140625)"/>
<path d="M0 0 C4.87679522 2.39239011 7.80955604 5.71568955 11 10 C12.53553567 14.606607 12.67518286 18.4273691 10.7421875 22.9296875 C7.8948843 27.94758058 3.95279277 31.83421998 0 36 C-0.76183594 36.82628906 -1.52367187 37.65257812 -2.30859375 38.50390625 C-7.95435014 44.44320283 -13.062321 48.98457678 -21.5 49.5625 C-26.57660782 49.29069544 -30.30183619 47.45607182 -34 44 C-37.48142929 39.31232901 -38.75871679 34.85295809 -38 29 C-36.06837884 24.46159075 -33.73547604 21.35981915 -30.25390625 17.890625 C-29.33416016 16.97152344 -28.41441406 16.05242187 -27.46679688 15.10546875 C-26.98976318 14.6367334 -26.51272949 14.16799805 -26.02124023 13.68505859 C-24.56112765 12.24864993 -23.11490996 10.7992626 -21.66992188 9.34765625 C-14.51167473 2.24451108 -10.34958613 -1.31215038 0 0 Z " fill="#0A0806" transform="translate(269,262)"/>
<path d="M0 0 C1.14274621 3.42823863 0.83857544 4.11282015 -0.375 7.375 C-3.71020953 16.44552311 -3.1731038 25.4772544 -3 35 C-2.98324219 36.24265625 -2.96648437 37.4853125 -2.94921875 38.765625 C-2.43635702 51.60182137 0.87892598 63.63986557 10 73 C10.680625 73.70769531 11.36125 74.41539062 12.0625 75.14453125 C20.60955731 83.37107391 31.73190739 88.27903922 43.65820312 88.17578125 C44.41037109 88.15902344 45.16253906 88.14226562 45.9375 88.125 C46.71673828 88.11597656 47.49597656 88.10695313 48.29882812 88.09765625 C50.19935447 88.07433691 52.09972008 88.03847586 54 88 C54 88.66 54 89.32 54 90 C67.30538583 88.90483218 67.30538583 88.90483218 80.15234375 85.48828125 C82 85 82 85 85 86 C68.93760529 98.33108621 52.84518145 101.42427789 33 100 C28.6041076 99.23529788 24.97529465 98.00245841 21 96 C20.00097656 95.50242187 19.00195312 95.00484375 17.97265625 94.4921875 C1.42313056 85.51829589 -8.16223276 73.00008105 -13.56640625 55.12670898 C-17.83081242 39.67014036 -14.71972316 24.28835935 -7.37109375 10.30078125 C-5.19411701 6.64767783 -2.67985778 3.2968697 0 0 Z " fill="#6AAC2D" transform="translate(211,246)"/>
<path d="M0 0 C0.65281167 -0.00226556 1.30562334 -0.00453111 1.97821718 -0.00686532 C4.18158644 -0.0132322 6.38489462 -0.01237425 8.58827209 -0.0115509 C10.16151001 -0.01454072 11.73474719 -0.01794283 13.3079834 -0.02172852 C17.59304968 -0.03059073 21.87809602 -0.03290756 26.16317058 -0.0335443 C29.73445109 -0.03449155 33.30572692 -0.0381677 36.87700564 -0.0417164 C45.29931821 -0.04986938 53.72162009 -0.05229986 62.14393616 -0.05158997 C70.84570546 -0.05098893 79.54741281 -0.06154398 88.24916643 -0.07733363 C95.70818244 -0.09038834 103.16717815 -0.09577474 110.6262055 -0.09513456 C115.08640661 -0.09487896 119.5465527 -0.09776391 124.00674248 -0.10831261 C128.20014043 -0.1179589 132.3934304 -0.11809678 136.58683205 -0.11079597 C138.12921175 -0.10974579 139.67159805 -0.11213851 141.21396637 -0.11815643 C143.31310206 -0.12581859 145.4118594 -0.12127048 147.51098633 -0.11352539 C149.27611525 -0.11434254 149.27611525 -0.11434254 151.07690334 -0.1151762 C153.81898499 0.13371277 153.81898499 0.13371277 155.81898499 2.13371277 C155.2832707 5.66942705 155.2832707 5.66942705 153.81898499 7.13371277 C151.76065107 7.23491625 149.69878826 7.26448973 147.63796997 7.26742554 C146.9851583 7.26969109 146.33234663 7.27195665 145.65975279 7.27429086 C143.45638353 7.28065773 141.25307536 7.27979979 139.04969788 7.27897644 C137.47645996 7.28196626 135.90322278 7.28536837 134.32998657 7.28915405 C130.04492029 7.29801627 125.75987395 7.30033309 121.47479939 7.30096984 C117.90351888 7.30191708 114.33224305 7.30559324 110.76096433 7.30914193 C102.33865176 7.31729492 93.91634988 7.3197254 85.49403381 7.3190155 C76.79226451 7.31841447 68.09055716 7.32896952 59.38880354 7.34475917 C51.92978753 7.35781388 44.47079182 7.36320027 37.01176447 7.36256009 C32.55156336 7.3623045 28.09141727 7.36518945 23.63122749 7.37573814 C19.43782954 7.38538444 15.24453958 7.38552232 11.05113792 7.37822151 C9.50875822 7.37717133 7.96637192 7.37956405 6.4240036 7.38558197 C4.32486791 7.39324413 2.22611057 7.38869601 0.12698364 7.38095093 C-1.63814528 7.38176808 -1.63814528 7.38176808 -3.43893337 7.38260174 C-6.18101501 7.13371277 -6.18101501 7.13371277 -8.18101501 5.13371277 C-7.32528752 -0.51408868 -5.35453753 0.00762798 0 0 Z " fill="#0C0C0C" transform="translate(182.18101501464844,205.8662872314453)"/>
<path d="M0 0 C2.475 0.99 2.475 0.99 5 2 C5.98117798 2.35143066 5.98117798 2.35143066 6.98217773 2.70996094 C9.02038318 3.6047966 10.42262083 4.41677672 12 6 C13.03292067 9.3855549 13.0118798 12.72921616 13.0625 16.25 C13.71916008 29.15368932 16.72480392 39.16594177 24 50 C24 50.66 24 51.32 24 52 C24.66 52.33 25.32 52.66 26 53 C1.65989848 74 1.65989848 74 0 74 C0 49.58 0 25.16 0 0 Z " fill="#0DA2E2" transform="translate(218,342)"/>
<path d="M0 0 C1.79058287 0.00138269 1.79058287 0.00138269 3.61733913 0.00279331 C4.610924 0.00151167 4.610924 0.00151167 5.62458128 0.00020415 C7.86026683 -0.0014525 10.09587855 0.00407369 12.33155727 0.00952244 C13.92774358 0.0098043 15.52393001 0.0096466 17.12011623 0.00907993 C21.46703708 0.0087919 25.81393058 0.01468948 30.16084504 0.02165389 C34.6985776 0.02788655 39.23631072 0.02849116 43.7740469 0.0296793 C52.37301653 0.03279287 60.97197352 0.04100661 69.57093757 0.05102879 C79.35795542 0.06218911 89.14497385 0.06770017 98.93199646 0.07272422 C119.07031743 0.08318921 139.20862698 0.10078915 159.34693813 0.12304783 C159.7291258 1.7791944 160.06088915 3.44761807 160.34693813 5.12304783 C159.34693813 6.12304783 159.34693813 6.12304783 156.69387627 6.24609566 C155.50015435 6.24517386 154.30643244 6.24425207 153.07653713 6.24330235 C152.08295227 6.24458398 152.08295227 6.24458398 151.06929499 6.24589151 C148.83360943 6.24754815 146.59799772 6.24202197 144.36231899 6.23657322 C142.76613269 6.23629136 141.16994626 6.23644905 139.57376003 6.23701572 C135.22683919 6.23730375 130.87994569 6.23140618 126.53303123 6.22444177 C121.99529867 6.2182091 117.45756555 6.2176045 112.91982937 6.21641636 C104.32085973 6.21330278 95.72190275 6.20508904 87.12293869 6.19506687 C77.33592085 6.18390654 67.54890242 6.17839549 57.7618798 6.17337143 C37.62355884 6.16290645 17.48524928 6.1453065 -2.65306187 6.12304783 C-3.03524954 4.46690126 -3.36701288 2.79847758 -3.65306187 1.12304783 C-2.65306187 0.12304783 -2.65306187 0.12304783 0 0 Z " fill="#000000" transform="translate(177.65306186676025,158.87695217132568)"/>
<path d="M0 0 C4.91935902 4.11619836 9.52647956 8.40410362 14 13 C12.1737424 16.99387176 9.87179873 19.84710972 6 22 C1.96725104 22.92334957 -1.20085197 22.39107244 -4.9375 20.5625 C-7.42724271 17.4691833 -8.14080375 15.32034612 -8.4140625 11.390625 C-7.62591243 6.84017367 -4.28675085 4.02442801 -1 1 C-0.67 0.67 -0.34 0.34 0 0 Z " fill="#EAAC00" transform="translate(246,282)"/>
<path d="M0 0 C2.8100346 1.79363911 4.50940468 3.01880935 6 6 C6.27440926 10.21046707 5.96356768 13.72910737 3.37109375 17.1484375 C1.64165149 18.86041064 -0.11142772 20.46645958 -2 22 C-6.91935902 17.88380164 -11.52647956 13.59589638 -16 9 C-12.55030982 1.45581773 -8.01045598 -1.14435085 0 0 Z " fill="#ED4D54" transform="translate(268,269)"/>
<path d="M0 0 C7.48291572 6.15034169 7.48291572 6.15034169 10 10 C5.46705387 12.26647307 1.9747534 12.3948217 -3 12 C-5.5 10.5 -5.5 10.5 -7 9 C-5.44499019 5.18315774 -2.96404505 2.80804268 0 0 Z " fill="#F6CD2E" transform="translate(246,282)"/>
<path d="M0 0 C2 2 2 2 2.22265625 3.91796875 C1.79467889 9.98272104 0.02407217 12.76737258 -4.50390625 16.78515625 C-4.99761719 17.18605469 -5.49132812 17.58695312 -6 18 C-7.65 16.35 -9.3 14.7 -11 13 C-10.28972656 12.31292969 -9.57945312 11.62585938 -8.84765625 10.91796875 C-7.92855469 10.01691406 -7.00945312 9.11585938 -6.0625 8.1875 C-4.68771484 6.84751953 -4.68771484 6.84751953 -3.28515625 5.48046875 C-0.82064892 3.14563407 -0.82064892 3.14563407 0 0 Z " fill="#D02E36" transform="translate(272,273)"/>
</svg>
