<?xml version="1.0" encoding="UTF-8"?>
<svg version="1.1" xmlns="http://www.w3.org/2000/svg" width="244" height="245">
<path d="M0 0 C7.92 0 15.84 0 24 0 C23.74734375 2.84625 23.4946875 5.6925 23.234375 8.625 C21.16653672 27.96815142 21.16653672 27.96815142 27.44091797 45.35009766 C33.54167232 50.9082861 41.70493229 53.73369775 49.33154297 56.55224609 C54.6860393 58.66539419 59.38928658 61.57362735 64.25 64.625 C66.00107422 65.66882809 67.75500421 66.70787998 69.51171875 67.7421875 C72.40743597 69.45977907 75.30166916 71.17977471 78.19384766 72.90332031 C81.47945151 74.8589565 84.77052903 76.80510554 88.0625 78.75 C89.08053711 79.35924316 90.09857422 79.96848633 91.14746094 80.59619141 C92.10040039 81.15741699 93.05333984 81.71864258 94.03515625 82.296875 C94.8744165 82.79541992 95.71367676 83.29396484 96.57836914 83.80761719 C99.17340378 85.085382 101.11029221 85.79561155 104 86 C106.47774881 85.09285189 106.47774881 85.09285189 108.89453125 83.52734375 C109.83748047 82.96466797 110.78042969 82.40199219 111.75195312 81.82226562 C112.76193359 81.20029297 113.77191406 80.57832031 114.8125 79.9375 C116.98544734 78.6337316 119.15863095 77.33035692 121.33203125 76.02734375 C122.44143066 75.35558105 123.55083008 74.68381836 124.69384766 73.99169922 C129.76310316 70.9378677 134.88180765 67.97080262 140 65 C141.9729164 63.8494043 143.94557097 62.69835952 145.91796875 61.546875 C150.1899185 59.05472989 154.46365286 56.56567264 158.73828125 54.078125 C159.83849609 53.43746094 160.93871094 52.79679687 162.07226562 52.13671875 C164.1890089 50.90418469 166.30617809 49.67238173 168.42382812 48.44140625 C169.37322266 47.88839844 170.32261719 47.33539063 171.30078125 46.765625 C172.13778564 46.27868164 172.97479004 45.79173828 173.8371582 45.29003906 C175.58975957 44.24469019 177.30205345 43.13196437 179 42 C179.47359029 40.11185494 179.47359029 40.11185494 179.43237305 37.91748047 C179.46206429 36.65639969 179.46206429 36.65639969 179.49235535 35.36984253 C179.49874527 34.46146637 179.50513519 33.55309021 179.51171875 32.6171875 C179.52966995 31.68778351 179.54762115 30.75837952 179.56611633 29.80081177 C179.62039848 26.82558767 179.6541722 23.85052557 179.6875 20.875 C179.72065729 18.86065444 179.75514544 16.84633032 179.79101562 14.83203125 C179.87864693 9.88799521 179.93856188 4.94470929 180 0 C188.25 0 196.5 0 205 0 C205.50863989 7.75547381 205.94407903 15.45271165 206.20849609 23.21166992 C206.31860757 25.84094471 206.46838694 28.46888741 206.65966797 31.09350586 C208.16315651 52.26696622 208.16315651 52.26696622 202.95596313 58.41229248 C197.70948068 62.64328003 191.837667 65.36188294 185.63000488 67.90054321 C182.40054391 69.2505988 179.58919164 70.88542584 176.62109375 72.734375 C174.89356632 73.74016264 173.16570731 74.74538101 171.4375 75.75 C163.06684173 80.62454668 154.70488162 85.51362073 146.34985352 90.41488647 C136.38252955 96.26166189 126.41367534 102.10583868 116.4375 107.9375 C114.93896484 108.81535156 114.93896484 108.81535156 113.41015625 109.7109375 C112.48976563 110.24847656 111.569375 110.78601563 110.62109375 111.33984375 C109.42117798 112.04161743 109.42117798 112.04161743 108.19702148 112.75756836 C107.47200439 113.1675708 106.7469873 113.57757324 106 114 C105.32791504 114.42337646 104.65583008 114.84675293 103.96337891 115.28295898 C102 116 102 116 100.04663086 115.37939453 C99.35964111 114.96802246 98.67265137 114.55665039 97.96484375 114.1328125 C97.16989502 113.66770264 96.37494629 113.20259277 95.5559082 112.72338867 C94.25979614 111.93218628 94.25979614 111.93218628 92.9375 111.125 C92.0199292 110.58270752 91.1023584 110.04041504 90.15698242 109.48168945 C87.09593219 107.66872552 84.04844861 105.83406045 81 104 C78.84226448 102.71816716 76.68338912 101.43825131 74.5234375 100.16015625 C71.13555111 98.15541033 67.74804441 96.15009531 64.36499023 94.13720703 C56.61318213 89.52734162 48.82099353 84.99163426 41 80.5 C31.60857237 75.10364899 22.25797774 69.64267308 12.9375 64.125 C12.3396167 63.77171631 11.7417334 63.41843262 11.12573242 63.05444336 C9.44607783 62.06146492 7.76792214 61.06595233 6.08984375 60.0703125 C4.64919556 59.21590576 4.64919556 59.21590576 3.17944336 58.34423828 C1 57 1 57 0 56 C-0.09365006 54.2507128 -0.11744438 52.49763746 -0.11352539 50.74584961 C-0.11344986 49.62476303 -0.11337433 48.50367645 -0.11329651 47.34861755 C-0.10813522 46.1288472 -0.10297394 44.90907684 -0.09765625 43.65234375 C-0.0962413 42.41078018 -0.09482635 41.16921661 -0.09336853 39.89002991 C-0.08870591 36.58394509 -0.07971497 33.27792854 -0.06866455 29.97186279 C-0.05844827 26.6003885 -0.05387045 23.22890717 -0.04882812 19.85742188 C-0.03777395 13.23825982 -0.0204966 6.61913929 0 0 Z " fill="#1C1F2A" transform="translate(19,39)"/>
<path d="M0 0 C6.57990744 3.18152208 12.89487247 6.62015912 19.125 10.4375 C26.62759904 14.98543499 34.16681928 19.46268711 41.75 23.875 C42.75434082 24.45950928 43.75868164 25.04401855 44.79345703 25.64624023 C46.84062823 26.83708158 48.88799217 28.02759164 50.93554688 29.21777344 C55.96008514 32.13994754 60.97982747 35.07033438 66 38 C67.96872633 39.14847807 69.93747644 40.29691539 71.90625 41.4453125 C72.89238281 42.02055664 73.87851563 42.59580078 74.89453125 43.18847656 C75.91933594 43.7862793 76.94414063 44.38408203 78 45 C79.70532227 45.99477132 81.41064453 46.98954264 83.1159668 47.98431396 C83.68613525 48.31691223 84.25630371 48.6495105 84.84375 48.9921875 C89.09375 51.47135417 93.34375 53.95052083 97.59375 56.4296875 C98.44646484 56.92710449 99.29917969 57.42452148 100.17773438 57.93701172 C101.07975586 58.46319092 101.07975586 58.46319092 102 59 C103.11568359 58.35998047 103.11568359 58.35998047 104.25390625 57.70703125 C109.91829094 54.46355242 115.58673102 51.22856887 121.27734375 48.03125 C133.69732181 41.04931885 146.01338398 33.9153164 158.25732422 26.62939453 C161.02386864 24.98581989 163.79436979 23.34913665 166.56640625 21.71484375 C167.94638794 20.90116333 167.94638794 20.90116333 169.35424805 20.07104492 C171.18506569 18.99165459 173.01595629 17.91238799 174.84692383 16.83325195 C179.49953582 14.08598337 184.1380603 11.31784677 188.7578125 8.515625 C189.68062012 7.95689697 190.60342773 7.39816895 191.55419922 6.82250977 C193.31600413 5.75397078 195.07555031 4.6816963 196.83251953 3.60522461 C197.61481934 3.13093018 198.39711914 2.65663574 199.203125 2.16796875 C199.89051758 1.74797607 200.57791016 1.3279834 201.28613281 0.89526367 C203 0 203 0 205 0 C205.37974818 4.49765659 205.60897793 8.99120329 205.8125 13.5 C205.92142578 14.7684375 206.03035156 16.036875 206.14257812 17.34375 C206.27494406 21.25363603 206.17208709 24.26071114 205 28 C201.67459486 31.23854999 197.98641149 33.16594783 193.83407593 35.11236572 C190.9155547 36.52483695 188.17908983 38.22560823 185.40625 39.90234375 C183.10499769 41.24884764 180.80292529 42.59386764 178.5 43.9375 C177.24120281 44.6734309 175.9824973 45.40951864 174.72387695 46.14575195 C172.11785202 47.67001442 169.51144108 49.19361375 166.90478516 50.71679688 C163.10499292 52.93782467 159.30790534 55.16344121 155.51171875 57.390625 C154.90289856 57.74780609 154.29407837 58.10498718 153.66680908 58.47299194 C152.44610385 59.18916471 151.22540072 59.90534104 150.00469971 60.621521 C140.21774345 66.36260154 130.42501753 72.09373929 120.625 77.8125 C119.65071045 78.38121826 118.6764209 78.94993652 117.67260742 79.53588867 C115.89846716 80.5704767 114.12142364 81.60011059 112.34082031 82.62353516 C110.86043173 83.49404317 109.39801588 84.39655884 107.96386719 85.34130859 C106.1484375 86.51171875 106.1484375 86.51171875 103 88 C99.33992966 86.87932455 96.14407902 85.03609574 92.84375 83.12109375 C91.83618652 82.53835693 90.82862305 81.95562012 89.79052734 81.35522461 C88.70465332 80.72237549 87.6187793 80.08952637 86.5 79.4375 C85.35869629 78.77564697 84.21739258 78.11379395 83.04150391 77.43188477 C72.02665826 71.04026474 61.04423502 64.59281298 50.0625 58.14453125 C44.51122991 54.88494608 38.95812666 51.62858676 33.39306641 48.39257812 C31.40270407 47.22689107 29.42032432 46.04745067 27.44677734 44.85351562 C22.81706308 42.07521296 18.33329606 39.6491914 13.2890625 37.70703125 C2.94918769 33.44472886 2.94918769 33.44472886 0 29 C-2.26630556 19.56982872 -1.1551884 9.53053817 0 0 Z " fill="#00BD6C" transform="translate(19,110)"/>
<path d="M0 0 C4.18811185 1.27062859 7.72787586 2.84037028 11.47265625 5.09765625 C12.52219482 5.72559082 13.5717334 6.35352539 14.65307617 7.00048828 C16.34074097 8.02118408 16.34074097 8.02118408 18.0625 9.0625 C19.87224754 10.14764506 21.68331142 11.2305715 23.49440002 12.31347656 C24.75215308 13.06574068 26.00950236 13.81868027 27.26646423 14.57226562 C34.04670147 18.63561445 40.86512402 22.63294966 47.6875 26.625 C48.90456956 27.33792327 50.12161063 28.05089519 51.33862305 28.76391602 C57.1005835 32.13867683 62.86647665 35.50660126 68.63671875 38.8671875 C69.6827124 39.47675293 70.72870605 40.08631836 71.80639648 40.71435547 C73.81868013 41.88531916 75.83246606 43.05370584 77.84790039 44.21923828 C82.15447621 46.71664719 86.42431023 49.24053991 90.609375 51.9375 C91.64215576 52.59395508 91.64215576 52.59395508 92.69580078 53.26367188 C93.9297378 54.05444093 95.15338325 54.86165822 96.36279297 55.68945312 C99.07202877 57.41746192 100.56775821 58.06556477 103.78125 57.578125 C108.29432258 55.36540495 112.57784149 52.85388707 116.875 50.25 C118.85374586 49.06570287 120.83292768 47.88213392 122.8125 46.69921875 C123.8334375 46.08739746 124.854375 45.47557617 125.90625 44.84521484 C130.87492812 41.88173085 135.8744867 38.97183731 140.875 36.0625 C141.8647583 35.4857251 142.8545166 34.9089502 143.87426758 34.31469727 C147.96657258 31.92997277 152.05988394 29.54698191 156.15380859 27.16503906 C170.80499913 18.65138979 170.80499913 18.65138979 185.375 10 C185.96385986 9.64647461 186.55271973 9.29294922 187.15942383 8.92871094 C189.79220443 7.34395251 192.41340322 5.7430918 195.0234375 4.12109375 C195.92320312 3.56550781 196.82296875 3.00992188 197.75 2.4375 C198.88695312 1.72400391 198.88695312 1.72400391 200.046875 0.99609375 C202 0 202 0 205 0 C205 9.24 205 18.48 205 28 C202.35097656 29.50626953 202.35097656 29.50626953 199.6484375 31.04296875 C186.50772591 38.52327731 173.41615824 46.07341976 160.4140625 53.79296875 C154.66774207 57.20320747 148.89844238 60.57343226 143.125 63.9375 C142.14217041 64.51032715 141.15934082 65.0831543 140.14672852 65.67333984 C135.98281299 68.09937656 131.81805593 70.52396425 127.65283203 72.94775391 C125.40945752 74.25330055 123.16628911 75.55920143 120.92333984 76.86547852 C118.80826875 78.09727524 116.69272838 79.32826663 114.57666016 80.55834961 C113.62710449 81.11143799 112.67754883 81.66452637 111.69921875 82.234375 C110.86221436 82.72131836 110.02520996 83.20826172 109.1628418 83.70996094 C107.41024043 84.75530981 105.69794655 85.86803563 104 87 C100.15054689 86.66339482 97.39347756 85.28996534 94.10546875 83.33203125 C93.16292236 82.77604248 92.22037598 82.22005371 91.24926758 81.6472168 C90.23888428 81.04176025 89.22850098 80.43630371 88.1875 79.8125 C86.0079276 78.5232429 83.82823692 77.23418573 81.6484375 75.9453125 C80.53823242 75.28563477 79.42802734 74.62595703 78.28417969 73.94628906 C73.31000907 70.99846806 68.31073259 68.09426162 63.3125 65.1875 C57.42511222 61.75469181 51.53996656 58.31804464 45.65863037 54.87487793 C44.4275089 54.15447017 43.1959389 53.43482839 41.96392822 52.71594238 C38.86388967 50.90507005 35.77414848 49.07993953 32.70166016 47.22265625 C26.99683634 43.7923772 21.40362267 40.645169 15.26953125 38.015625 C3.38442963 32.65713144 3.38442963 32.65713144 0 28 C-2.53570195 18.88067896 -1.36498654 9.24277251 0 0 Z " fill="#1C1F2A" transform="translate(19,154)"/>
<path d="M0 0 C0 5.94 0 11.88 0 18 C-1.835625 18.2475 -3.67125 18.495 -5.5625 18.75 C-11.08616979 19.65755331 -15.91377032 20.91377032 -20 25 C-20.12197808 26.38050858 -20.17768899 27.76697647 -20.20532227 29.15258789 C-20.22526749 30.03342545 -20.24521271 30.914263 -20.26576233 31.8217926 C-20.29083107 33.25772011 -20.29083107 33.25772011 -20.31640625 34.72265625 C-20.33718735 35.69786728 -20.35796844 36.67307831 -20.37937927 37.67784119 C-20.44498412 40.8059863 -20.50381028 43.93421822 -20.5625 47.0625 C-20.60567483 49.1777435 -20.64928877 51.29297809 -20.69335938 53.40820312 C-20.80067661 58.60537884 -20.90191284 63.80264222 -21 69 C-26.94 69 -32.88 69 -39 69 C-39 46.89 -39 24.78 -39 2 C-33.06 2 -27.12 2 -21 2 C-20.67 4.31 -20.34 6.62 -20 9 C-19.5875 8.60167969 -19.175 8.20335937 -18.75 7.79296875 C-12.88813607 2.41523198 -8.01660225 0 0 0 Z " fill="#00BB6C" transform="translate(146,20)"/>
</svg>
