<?xml version="1.0" encoding="UTF-8"?>
<svg version="1.1" xmlns="http://www.w3.org/2000/svg" width="512" height="512">
<path d="M0 0 C40.26 0 80.52 0 122 0 C122 12.54 122 25.08 122 38 C125.96 38.99 129.92 39.98 134 41 C137.30309793 42.16747427 140.51723465 43.35886245 143.75 44.6875 C144.59691406 45.02837646 145.44382812 45.36925293 146.31640625 45.72045898 C152.72062437 48.34707655 158.91022596 51.31292212 164.97558594 54.64916992 C168.23133932 56.45584398 168.23133932 56.45584398 171.84667969 56.91992188 C175.07908402 55.53900356 177.23197572 53.13494363 179.640625 50.65234375 C180.16767029 50.12105362 180.69471558 49.58976349 181.23773193 49.04237366 C182.91567187 47.34767175 184.58286728 45.64282783 186.25 43.9375 C187.38732745 42.78512255 188.52534066 41.63342148 189.6640625 40.48242188 C192.45071992 37.66272816 195.22778792 34.83389412 198 32 C201.11465846 33.38434738 203.23098131 34.98319641 205.63201904 37.39151001 C206.33589249 38.09263412 207.03976593 38.79375824 207.76496887 39.51612854 C208.52669907 40.28504929 209.28842926 41.05397003 210.07324219 41.84619141 C210.88337265 42.65602982 211.69350311 43.46586823 212.52818298 44.30024719 C215.20584785 46.97930584 217.87635816 49.66538011 220.546875 52.3515625 C222.40160245 54.2100199 224.25677184 56.06803635 226.11236572 57.92562866 C230.49720961 62.31668561 234.87693083 66.71281532 239.25483155 71.11079347 C244.2399928 76.1183191 249.23084273 81.12015844 254.22217703 86.12152982 C264.48778972 96.40804057 274.74624548 106.70166897 285 117 C283.22352053 120.84228484 280.78920797 123.37447112 277.73828125 126.24609375 C276.69148774 127.25787461 275.64528102 128.27026286 274.59960938 129.28320312 C272.95313265 130.86761371 271.3025558 132.44689215 269.64135742 134.01586914 C268.03513233 135.53754357 266.4483232 137.0774077 264.86328125 138.62109375 C264.36129715 139.08583603 263.85931305 139.55057831 263.34211731 140.02940369 C261.77091741 141.50987184 261.77091741 141.50987184 260 144 C260.16877358 148.43985387 262.43126266 151.96907909 264.5 155.8125 C268.17664567 162.89061621 271.1390471 170.15962878 273.9375 177.625 C274.32679688 178.6560083 274.71609375 179.6870166 275.1171875 180.74926758 C276.91503849 185.62577845 278.13446488 189.80678928 279 195 C291.54 195 304.08 195 317 195 C317 235.26 317 275.52 317 317 C304.46 317 291.92 317 279 317 C278.01 320.96 277.02 324.92 276 329 C274.83252573 332.30309793 273.64113755 335.51723465 272.3125 338.75 C271.97162354 339.59691406 271.63074707 340.44382812 271.27954102 341.31640625 C268.65292345 347.72062437 265.68707788 353.91022596 262.35083008 359.97558594 C260.54415602 363.23133932 260.54415602 363.23133932 260.08007812 366.84667969 C261.46099644 370.07908402 263.86505637 372.23197572 266.34765625 374.640625 C266.87894638 375.16767029 267.41023651 375.69471558 267.95762634 376.23773193 C269.65232825 377.91567187 271.35717217 379.58286728 273.0625 381.25 C274.21487745 382.38732745 275.36657852 383.52534066 276.51757812 384.6640625 C279.33727184 387.45071992 282.16610588 390.22778792 285 393 C283.61565262 396.11465846 282.01680359 398.23098131 279.60848999 400.63201904 C278.90736588 401.33589249 278.20624176 402.03976593 277.48387146 402.76496887 C276.71495071 403.52669907 275.94602997 404.28842926 275.15380859 405.07324219 C274.34397018 405.88337265 273.53413177 406.69350311 272.69975281 407.52818298 C270.02069416 410.20584785 267.33461989 412.87635816 264.6484375 415.546875 C262.7899801 417.40160245 260.93196365 419.25677184 259.07437134 421.11236572 C254.68331439 425.49720961 250.28718468 429.87693083 245.88920653 434.25483155 C240.8816809 439.2399928 235.87984156 444.23084273 230.87847018 449.22217703 C220.59195943 459.48778972 210.29833103 469.74624548 200 480 C196.15771516 478.22352053 193.62552888 475.78920797 190.75390625 472.73828125 C189.74212539 471.69148774 188.72973714 470.64528102 187.71679688 469.59960938 C186.13238629 467.95313265 184.55310785 466.3025558 182.98413086 464.64135742 C181.46245643 463.03513233 179.9225923 461.4483232 178.37890625 459.86328125 C177.91416397 459.36129715 177.44942169 458.85931305 176.97059631 458.34211731 C175.49012816 456.77091741 175.49012816 456.77091741 173 455 C168.56014613 455.16877358 165.03092091 457.43126266 161.1875 459.5 C154.10938379 463.17664567 146.84037122 466.1390471 139.375 468.9375 C138.3439917 469.32679688 137.3129834 469.71609375 136.25073242 470.1171875 C131.37422155 471.91503849 127.19321072 473.13446488 122 474 C122 486.54 122 499.08 122 512 C81.74 512 41.48 512 0 512 C0 499.46 0 486.92 0 474 C-5.94 472.515 -5.94 472.515 -12 471 C-15.30309793 469.83252573 -18.51723465 468.64113755 -21.75 467.3125 C-23.02037109 466.8011853 -23.02037109 466.8011853 -24.31640625 466.27954102 C-30.72062437 463.65292345 -36.91022596 460.68707788 -42.97558594 457.35083008 C-46.23133932 455.54415602 -46.23133932 455.54415602 -49.84667969 455.08007812 C-53.07908402 456.46099644 -55.23197572 458.86505637 -57.640625 461.34765625 C-58.16767029 461.87894638 -58.69471558 462.41023651 -59.23773193 462.95762634 C-60.91567187 464.65232825 -62.58286728 466.35717217 -64.25 468.0625 C-65.38732745 469.21487745 -66.52534066 470.36657852 -67.6640625 471.51757812 C-70.45071992 474.33727184 -73.22778792 477.16610588 -76 480 C-79.11465846 478.61565262 -81.23098131 477.01680359 -83.63201904 474.60848999 C-84.33589249 473.90736588 -85.03976593 473.20624176 -85.76496887 472.48387146 C-86.52669907 471.71495071 -87.28842926 470.94602997 -88.07324219 470.15380859 C-89.28843788 468.93905098 -89.28843788 468.93905098 -90.52818298 467.69975281 C-93.20584785 465.02069416 -95.87635816 462.33461989 -98.546875 459.6484375 C-100.40160245 457.7899801 -102.25677184 455.93196365 -104.11236572 454.07437134 C-108.49720961 449.68331439 -112.87693083 445.28718468 -117.25483155 440.88920653 C-122.2399928 435.8816809 -127.23084273 430.87984156 -132.22217703 425.87847018 C-142.48778972 415.59195943 -152.74624548 405.29833103 -163 395 C-161.22352053 391.15771516 -158.78920797 388.62552888 -155.73828125 385.75390625 C-154.69148774 384.74212539 -153.64528102 383.72973714 -152.59960938 382.71679688 C-150.95313265 381.13238629 -149.3025558 379.55310785 -147.64135742 377.98413086 C-146.03513233 376.46245643 -144.4483232 374.9225923 -142.86328125 373.37890625 C-142.36129715 372.91416397 -141.85931305 372.44942169 -141.34211731 371.97059631 C-139.77091741 370.49012816 -139.77091741 370.49012816 -138 368 C-138.16877358 363.56014613 -140.43126266 360.03092091 -142.5 356.1875 C-146.17664567 349.10938379 -149.1390471 341.84037122 -151.9375 334.375 C-152.52144531 332.82848755 -152.52144531 332.82848755 -153.1171875 331.25073242 C-154.91503849 326.37422155 -156.13446488 322.19321072 -157 317 C-169.54 317 -182.08 317 -195 317 C-195 276.74 -195 236.48 -195 195 C-182.46 195 -169.92 195 -157 195 C-156.01 191.04 -155.02 187.08 -154 183 C-152.83252573 179.69690207 -151.64113755 176.48276535 -150.3125 173.25 C-149.97162354 172.40308594 -149.63074707 171.55617187 -149.27954102 170.68359375 C-146.65292345 164.27937563 -143.68707788 158.08977404 -140.35083008 152.02441406 C-138.54415602 148.76866068 -138.54415602 148.76866068 -138.08007812 145.15332031 C-139.46099644 141.92091598 -141.86505637 139.76802428 -144.34765625 137.359375 C-144.87894638 136.83232971 -145.41023651 136.30528442 -145.95762634 135.76226807 C-147.65232825 134.08432813 -149.35717217 132.41713272 -151.0625 130.75 C-152.21487745 129.61267255 -153.36657852 128.47465934 -154.51757812 127.3359375 C-157.33727184 124.54928008 -160.16610588 121.77221208 -163 119 C-161.61565262 115.88534154 -160.01680359 113.76901869 -157.60848999 111.36798096 C-156.55680382 110.31217079 -156.55680382 110.31217079 -155.48387146 109.23503113 C-154.71495071 108.47330093 -153.94602997 107.71157074 -153.15380859 106.92675781 C-152.34397018 106.11662735 -151.53413177 105.30649689 -150.69975281 104.47181702 C-148.02069416 101.79415215 -145.33461989 99.12364184 -142.6484375 96.453125 C-140.7899801 94.59839755 -138.93196365 92.74322816 -137.07437134 90.88763428 C-132.68331439 86.50279039 -128.28718468 82.12306917 -123.88920653 77.74516845 C-118.8816809 72.7600072 -113.87984156 67.76915727 -108.87847018 62.77782297 C-98.59195943 52.51221028 -88.29833103 42.25375452 -78 32 C-74.15771516 33.77647947 -71.62552888 36.21079203 -68.75390625 39.26171875 C-67.74212539 40.30851226 -66.72973714 41.35471898 -65.71679688 42.40039062 C-64.13238629 44.04686735 -62.55310785 45.6974442 -60.98413086 47.35864258 C-59.46245643 48.96486767 -57.9225923 50.5516768 -56.37890625 52.13671875 C-55.68179283 52.8896949 -55.68179283 52.8896949 -54.97059631 53.65788269 C-53.49012816 55.22908259 -53.49012816 55.22908259 -51 57 C-46.51004089 56.8326413 -42.8947999 54.51911033 -39 52.4375 C-32.50318251 49.08038844 -25.89325527 46.23380069 -19.0625 43.625 C-18.19947266 43.29169678 -17.33644531 42.95839355 -16.44726562 42.61499023 C-10.90933152 40.53933075 -5.91843117 39.31520693 0 38 C0 25.46 0 12.92 0 0 Z M31 30 C31 40.89 31 51.78 31 63 C26.545 63.495 26.545 63.495 22 64 C-3.95055207 69.49679876 -29.75730296 80.08685995 -51.3203125 95.61328125 C-52.20460938 96.07089844 -53.08890625 96.52851562 -54 97 C-57.62125479 95.76678295 -59.89953893 93.33154839 -62.546875 90.6484375 C-63.39121094 89.79765625 -64.23554688 88.946875 -65.10546875 88.0703125 C-65.97816406 87.18085937 -66.85085937 86.29140625 -67.75 85.375 C-68.63816406 84.4778125 -69.52632813 83.580625 -70.44140625 82.65625 C-72.63216969 80.44192996 -74.81812763 78.22307565 -77 76 C-82.39190397 80.4978935 -87.39391684 85.26126542 -92.33984375 90.2421875 C-93.10680069 91.01055939 -93.87375763 91.77893127 -94.66395569 92.57058716 C-97.0908474 95.00303509 -99.51422127 97.43895322 -101.9375 99.875 C-103.59156486 101.53408552 -105.24585945 103.19294202 -106.90039062 104.8515625 C-110.93625433 108.89839709 -114.96924277 112.94807953 -119 117 C-115.81597912 120.76672156 -112.63838094 124.49002591 -109.1328125 127.96484375 C-108.47539063 128.61904297 -107.81796875 129.27324219 -107.140625 129.94726562 C-106.47546875 130.60404297 -105.8103125 131.26082031 -105.125 131.9375 C-104.43664062 132.62134766 -103.74828125 133.30519531 -103.0390625 134.00976562 C-101.36166489 135.67551464 -99.68196209 137.3388622 -98 139 C-99.4040082 143.02056893 -101.40295311 146.49149651 -103.57885742 150.12573242 C-116.64161489 171.94935661 -132 199.90162856 -132 226 C-142.89 226 -153.78 226 -165 226 C-165 245.8 -165 265.6 -165 286 C-154.11 286 -143.22 286 -132 286 C-131.67 288.97 -131.34 291.94 -131 295 C-125.68152435 320.1086833 -115.57081541 344.88701282 -100.87158203 365.9777832 C-99.640625 367.8125 -99.640625 367.8125 -98 371 C-99.18488864 374.62773869 -101.67824737 376.90920407 -104.3515625 379.546875 C-105.20234375 380.39121094 -106.053125 381.23554688 -106.9296875 382.10546875 C-108.26386719 383.41451172 -108.26386719 383.41451172 -109.625 384.75 C-110.5221875 385.63816406 -111.419375 386.52632813 -112.34375 387.44140625 C-114.55807004 389.63216969 -116.77692435 391.81812763 -119 394 C-114.5021065 399.39190397 -109.73873458 404.39391684 -104.7578125 409.33984375 C-103.98944061 410.10680069 -103.22106873 410.87375763 -102.42941284 411.66395569 C-99.99696491 414.0908474 -97.56104678 416.51422127 -95.125 418.9375 C-93.46591448 420.59156486 -91.80705798 422.24585945 -90.1484375 423.90039062 C-86.10160291 427.93625433 -82.05192047 431.96924277 -78 436 C-74.23327844 432.81597912 -70.50997409 429.63838094 -67.03515625 426.1328125 C-66.38095703 425.47539062 -65.72675781 424.81796875 -65.05273438 424.140625 C-64.39595703 423.47546875 -63.73917969 422.8103125 -63.0625 422.125 C-62.37865234 421.43664062 -61.69480469 420.74828125 -60.99023438 420.0390625 C-59.32448536 418.36166489 -57.6611378 416.68196209 -56 415 C-51.97943107 416.4040082 -48.50850349 418.40295311 -44.87426758 420.57885742 C-23.05064339 433.64161489 4.90162856 449 31 449 C31 459.89 31 470.78 31 482 C50.8 482 70.6 482 91 482 C91 471.11 91 460.22 91 449 C93.97 448.67 96.94 448.34 100 448 C125.1086833 442.68152435 149.88701282 432.57081541 170.9777832 417.87158203 C172.8125 416.640625 172.8125 416.640625 176 415 C179.62773869 416.18488864 181.90920407 418.67824737 184.546875 421.3515625 C185.39121094 422.20234375 186.23554688 423.053125 187.10546875 423.9296875 C187.97816406 424.81914062 188.85085938 425.70859375 189.75 426.625 C191.08224609 427.97078125 191.08224609 427.97078125 192.44140625 429.34375 C194.63216969 431.55807004 196.81812763 433.77692435 199 436 C204.39190397 431.5021065 209.39391684 426.73873458 214.33984375 421.7578125 C215.10680069 420.98944061 215.87375763 420.22106873 216.66395569 419.42941284 C219.0908474 416.99696491 221.51422127 414.56104678 223.9375 412.125 C225.59156486 410.46591448 227.24585945 408.80705798 228.90039062 407.1484375 C232.93625433 403.10160291 236.96924277 399.05192047 241 395 C237.81597912 391.23327844 234.63838094 387.50997409 231.1328125 384.03515625 C230.47539062 383.38095703 229.81796875 382.72675781 229.140625 382.05273438 C228.47546875 381.39595703 227.8103125 380.73917969 227.125 380.0625 C226.09246094 379.03672852 226.09246094 379.03672852 225.0390625 377.99023438 C223.36166489 376.32448536 221.68196209 374.6611378 220 373 C221.4040082 368.97943107 223.40295311 365.50850349 225.57885742 361.87426758 C238.64161489 340.05064339 254 312.09837144 254 286 C264.89 286 275.78 286 287 286 C287 266.2 287 246.4 287 226 C276.11 226 265.22 226 254 226 C253.67 223.03 253.34 220.06 253 217 C247.50320124 191.04944793 236.91314005 165.24269704 221.38671875 143.6796875 C220.92910156 142.79539062 220.47148437 141.91109375 220 141 C221.23321705 137.37874521 223.66845161 135.10046107 226.3515625 132.453125 C227.62773438 131.18662109 227.62773438 131.18662109 228.9296875 129.89453125 C229.81914062 129.02183594 230.70859375 128.14914063 231.625 127.25 C232.5221875 126.36183594 233.419375 125.47367187 234.34375 124.55859375 C236.55807004 122.36783031 238.77692435 120.18187237 241 118 C236.5021065 112.60809603 231.73873458 107.60608316 226.7578125 102.66015625 C225.60525467 101.50972084 225.60525467 101.50972084 224.42941284 100.33604431 C221.99696491 97.9091526 219.56104678 95.48577873 217.125 93.0625 C215.46591448 91.40843514 213.80705798 89.75414055 212.1484375 88.09960938 C208.10160291 84.06374567 204.05192047 80.03075723 200 76 C196.23327844 79.18402088 192.50997409 82.36161906 189.03515625 85.8671875 C188.38095703 86.52460937 187.72675781 87.18203125 187.05273438 87.859375 C186.39595703 88.52453125 185.73917969 89.1896875 185.0625 89.875 C184.37865234 90.56335938 183.69480469 91.25171875 182.99023438 91.9609375 C181.32448536 93.63833511 179.6611378 95.31803791 178 97 C173.97943107 95.5959918 170.50850349 93.59704689 166.87426758 91.42114258 C145.05064339 78.35838511 117.09837144 63 91 63 C91 52.11 91 41.22 91 30 C71.2 30 51.4 30 31 30 Z " fill="#000000" transform="translate(195,0)"/>
<path d="M0 0 C1.66300678 1.49866835 3.31685237 3.00763206 4.95703125 4.53125 C6.52334595 5.95097719 8.14346583 7.31264616 9.80078125 8.625 C35.31367444 29.25860405 51.30103603 66.05988103 57.2109375 97.57421875 C57.54931641 99.37246094 57.54931641 99.37246094 57.89453125 101.20703125 C64.64026809 145.03105957 53.82862965 190.15626491 27.7109375 225.88671875 C22.04321064 233.23890989 15.85641742 240.09487583 9.2109375 246.57421875 C8.62570312 247.20457031 8.04046875 247.83492188 7.4375 248.484375 C-19.5610721 276.93826047 -60.91911278 292.55916231 -99.59765625 293.85546875 C-144.00574277 294.72966758 -185.69982902 281.1190397 -218.53515625 250.6171875 C-220.10147095 249.19746031 -221.72159083 247.83579134 -223.37890625 246.5234375 C-248.89179944 225.88983345 -264.87916103 189.08855647 -270.7890625 157.57421875 C-271.12744141 155.77597656 -271.12744141 155.77597656 -271.47265625 153.94140625 C-278.21839309 110.11737793 -267.40675465 64.99217259 -241.2890625 29.26171875 C-237.68495688 24.57827502 -233.85329451 20.15702589 -229.83203125 15.828125 C-228.41230406 14.2618103 -227.05063509 12.64169042 -225.73828125 10.984375 C-205.1046772 -14.52851819 -168.30340022 -30.51587978 -136.7890625 -36.42578125 C-134.99082031 -36.76416016 -134.99082031 -36.76416016 -133.15625 -37.109375 C-86.0313561 -44.36320686 -36.11610577 -31.41190712 0 0 Z M-201.7890625 31.57421875 C-202.57796875 32.30125 -203.366875 33.02828125 -204.1796875 33.77734375 C-226.08815026 54.46015824 -240.56777469 87.33471121 -241.91357422 117.35131836 C-242.91909202 156.47595352 -231.93423201 191.57901224 -204.921875 220.69921875 C-181.48079888 245.32149106 -148.26427391 261.89553435 -113.953125 262.77734375 C-73.73566325 263.26574033 -38.87685856 250.30292319 -9.7890625 221.94921875 C16.09263328 195.95475779 28.51352329 160.94645003 28.45532227 124.70239258 C28.157094 96.7020725 18.65543647 70.19352958 2.2109375 47.57421875 C1.32535156 46.3521875 1.32535156 46.3521875 0.421875 45.10546875 C-21.77717218 16.01054734 -53.78704479 -1.27044101 -89.64453125 -7.046875 C-131.47382872 -11.67477497 -171.79618809 2.27482121 -201.7890625 31.57421875 Z " fill="#000000" transform="translate(362.7890625,128.42578125)"/>
<path d="M0 0 C8.69260016 7.74287754 15.17119936 18.50886765 16.20243835 30.31825256 C16.29620461 32.98858493 16.3295596 35.65223821 16.3359375 38.32421875 C16.3459227 39.79819878 16.3459227 39.79819878 16.35610962 41.30195618 C16.36620026 43.37535746 16.37092775 45.44879098 16.37060547 47.5222168 C16.37496259 50.66055214 16.41127691 53.79746132 16.44921875 56.93554688 C16.53751357 72.56116351 14.94823911 86.03774572 4.03515625 98.1875 C-5.26731213 107.06942279 -16.54098723 111.73197669 -29.3125 112.3125 C-42.58792876 111.91376804 -53.48419401 106.85688912 -63.18359375 97.98046875 C-70.07325757 90.46851271 -75.07100782 79.75285899 -75.16113281 69.48193359 C-75.17554413 68.14937027 -75.17554413 68.14937027 -75.19024658 66.78988647 C-75.19449646 65.83570831 -75.19874634 64.88153015 -75.203125 63.8984375 C-75.20882507 62.90679596 -75.21452515 61.91515442 -75.22039795 60.89346313 C-75.22983976 58.79373233 -75.23637868 56.69398677 -75.24023438 54.59423828 C-75.24990108 51.40760818 -75.28091651 48.221634 -75.3125 45.03515625 C-75.31903453 42.98958714 -75.32428323 40.94401344 -75.328125 38.8984375 C-75.3404718 37.95640472 -75.3528186 37.01437195 -75.36553955 36.04379272 C-75.32198767 22.87724042 -70.29965992 11.72547842 -61.3515625 2.140625 C-43.93000547 -13.718201 -18.562192 -13.78534818 0 0 Z M-42.08959961 28.05053711 C-44.42852148 32.27932439 -44.58106214 35.99380833 -44.53125 40.75 C-44.53699036 41.97541504 -44.53699036 41.97541504 -44.54284668 43.22558594 C-44.54555431 44.943372 -44.53827398 46.66120011 -44.52148438 48.37890625 C-44.5000563 50.99313151 -44.52132325 53.60460918 -44.546875 56.21875 C-44.54423152 57.89583934 -44.53910611 59.57292698 -44.53125 61.25 C-44.53934692 62.02311523 -44.54744385 62.79623047 -44.55578613 63.59277344 C-44.46080892 69.14939534 -43.13855238 72.40032126 -40 77 C-37.04781982 79.53044015 -33.7748047 80.89867597 -29.87890625 81.12109375 C-25.62514885 80.74316067 -22.26936531 79.7244711 -19 77 C-15.28962152 71.59433275 -14.40083348 67.73484488 -14.46875 61.25 C-14.46300964 60.02458496 -14.46300964 60.02458496 -14.45715332 58.77441406 C-14.45444569 57.056628 -14.46172602 55.33879989 -14.47851562 53.62109375 C-14.4999437 51.00686849 -14.47867675 48.39539082 -14.453125 45.78125 C-14.45576848 44.10416066 -14.46089389 42.42707302 -14.46875 40.75 C-14.46065308 39.97688477 -14.45255615 39.20376953 -14.44421387 38.40722656 C-14.53916456 32.85215615 -15.85316076 29.59396615 -19 25 C-22.11169664 22.53167602 -25.62427875 21.27514425 -29.5 20.5 C-35.01629177 21.60325835 -38.86344451 23.34078036 -42.08959961 28.05053711 Z " fill="#000000" transform="translate(232,205)"/>
<path d="M0 0 C1.05692047 0.00141495 2.11384094 0.0028299 3.20278931 0.00428772 C6.56490966 0.00986685 9.92696241 0.02241556 13.2890625 0.03515625 C15.57421779 0.04017394 17.85937412 0.04473638 20.14453125 0.04882812 C25.73442173 0.0589768 31.32416681 0.07855638 36.9140625 0.09765625 C36.9140625 10.32765625 36.9140625 20.55765625 36.9140625 31.09765625 C33.71203125 31.14664063 30.51 31.195625 27.2109375 31.24609375 C24.10981572 31.30010323 21.00877123 31.3574109 17.90771484 31.41503906 C15.75249997 31.45332227 13.59722134 31.48817629 11.44189453 31.51953125 C8.34384374 31.56519575 5.24623159 31.62318837 2.1484375 31.68359375 C0.70292511 31.70092056 0.70292511 31.70092056 -0.77178955 31.71859741 C-2.12273712 31.74840195 -2.12273712 31.74840195 -3.50097656 31.77880859 C-4.29151428 31.79213226 -5.082052 31.80545593 -5.89654541 31.81918335 C-8.39867969 32.13743452 -9.99330712 32.68655608 -12.0859375 34.09765625 C-13.16927083 37.51432292 -13.16927083 37.51432292 -13.0859375 41.09765625 C-11.32062183 43.74562975 -10.15494171 44.07465485 -7.0859375 45.09765625 C-5.3807044 45.18894168 -3.67249456 45.22924367 -1.96484375 45.23828125 C13.06362721 45.46908374 24.59646922 45.92623242 35.94140625 56.859375 C44.11016673 66.12808739 46.43396272 75.44254969 46.2265625 87.5625 C45.29621889 98.08701205 40.22115156 106.33053162 32.5390625 113.34765625 C22.92636264 121.10527368 12.56403468 122.41670588 0.53515625 122.29296875 C-0.51751938 122.29013885 -1.57019501 122.28730896 -2.6547699 122.28439331 C-5.98611266 122.27328187 -9.31717727 122.24819423 -12.6484375 122.22265625 C-14.91991797 122.21261477 -17.19140269 122.20349097 -19.46289062 122.1953125 C-25.0040972 122.17508173 -30.54470942 122.13591559 -36.0859375 122.09765625 C-36.0859375 111.86765625 -36.0859375 101.63765625 -36.0859375 91.09765625 C-32.88390625 91.04867187 -29.681875 90.9996875 -26.3828125 90.94921875 C-23.28169072 90.89520927 -20.18064623 90.8379016 -17.07958984 90.78027344 C-14.92437497 90.74199023 -12.76909634 90.70713621 -10.61376953 90.67578125 C-7.51571874 90.63011675 -4.41810659 90.57212413 -1.3203125 90.51171875 C-0.35663757 90.50016754 0.60703735 90.48861633 1.59991455 90.47671509 C2.95086212 90.44691055 2.95086212 90.44691055 4.32910156 90.41650391 C5.11963928 90.40318024 5.910177 90.38985657 6.72467041 90.37612915 C9.22680469 90.05787798 10.82143212 89.50875642 12.9140625 88.09765625 C13.99739583 84.68098958 13.99739583 84.68098958 13.9140625 81.09765625 C12.14874683 78.44968275 10.98306671 78.12065765 7.9140625 77.09765625 C6.2088294 77.00637082 4.50061956 76.96606883 2.79296875 76.95703125 C-12.23550221 76.72622876 -23.76834422 76.26908008 -35.11328125 65.3359375 C-43.28021705 56.0692955 -45.6146531 46.74855648 -45.39453125 34.62890625 C-44.49921252 24.38374 -39.69174153 16.22296279 -32.171875 9.34765625 C-22.19071252 1.39453874 -12.44146426 -0.06301826 0 0 Z " fill="#000000" transform="translate(309.0859375,194.90234375)"/>
</svg>
