<?xml version="1.0" encoding="UTF-8"?>
<svg version="1.1" xmlns="http://www.w3.org/2000/svg" width="512" height="512">
<path d="M0 0 C4.95 0 9.9 0 15 0 C15 7.59 15 15.18 15 23 C18.96 23 22.92 23 27 23 C27 15.41 27 7.82 27 0 C31.95 0 36.9 0 42 0 C42 7.59 42 15.18 42 23 C46.29 23 50.58 23 55 23 C55 15.41 55 7.82 55 0 C59.95 0 64.9 0 70 0 C70 7.59 70 15.18 70 23 C73.96 23 77.92 23 82 23 C82 15.41 82 7.82 82 0 C86.95 0 91.9 0 97 0 C97 7.59 97 15.18 97 23 C100.3 23 103.6 23 107 23 C112.00945457 24.58632728 116.63305982 26.86652301 120 31 C124 38.85139319 124 38.85139319 124 43 C131.59 43 139.18 43 147 43 C147 47.95 147 52.9 147 58 C139.41 58 131.82 58 124 58 C124 61.63 124 65.26 124 69 C124.80908813 68.98445572 125.61817627 68.96891144 126.45178223 68.95289612 C134.10157845 68.81224823 141.75074209 68.70586857 149.40149689 68.6373148 C153.33430939 68.60088401 157.2660478 68.55152664 161.19824219 68.47192383 C164.99792423 68.39549081 168.79657777 68.35393343 172.5969696 68.3358593 C174.04188723 68.32299096 175.4867527 68.29786065 176.93122864 68.2598896 C189.64923 67.93906976 189.64923 67.93906976 194.546875 72.14453125 C195.72675367 73.40326468 196.8795696 74.68807042 198 76 C199.09017518 77.06882368 200.18825027 78.12966271 201.29492188 79.18139648 C202.3554357 80.24206437 203.41333573 81.30535144 204.46875 82.37109375 C205.31741638 83.22188255 205.31741638 83.22188255 206.18322754 84.08985901 C207.95788577 85.87003423 209.72900099 87.65368519 211.5 89.4375 C212.71591114 90.6584369 213.93205516 91.87914192 215.1484375 93.09960938 C218.10164966 96.06374013 221.05169398 99.03098958 224 102 C224.54269531 101.59007813 225.08539063 101.18015625 225.64453125 100.7578125 C226.35996094 100.21898438 227.07539063 99.68015625 227.8125 99.125 C228.87404297 98.32449219 228.87404297 98.32449219 229.95703125 97.5078125 C234.27651722 94.31981712 236.73195525 93.35559439 242.03515625 93.39453125 C247.07079868 94.42289038 250.90090495 97.41294689 255.01953125 100.34765625 C257.77374255 102.19698922 257.77374255 102.19698922 260.34375 101.96875 C264.17628153 100.57100321 267.93782745 99.04359384 271.6875 97.4375 C273.21087915 96.78716855 274.73556155 96.13987884 276.26171875 95.49609375 C276.93162842 95.20919678 277.60153809 94.9222998 278.29174805 94.62670898 C280 94 280 94 282 94 C282.03738281 93.38253906 282.07476562 92.76507813 282.11328125 92.12890625 C283.23340161 77.69912038 283.23340161 77.69912038 288.5625 72.5 C293.06632718 69.72841404 296.76055705 69.80592531 301.953125 69.76171875 C302.84610291 69.753647 303.73908081 69.74557526 304.65911865 69.73725891 C306.55218563 69.7234143 308.44527762 69.71269384 310.33837891 69.70483398 C313.2247701 69.6876502 316.11000722 69.64377158 318.99609375 69.59960938 C320.83592908 69.5894798 322.67577415 69.58096453 324.515625 69.57421875 C325.37520813 69.55671066 326.23479126 69.53920258 327.12042236 69.52116394 C332.5660958 69.54073742 335.69903266 70.3403391 340 74 C343.74806629 79.75595894 345.44245277 87.14198209 345 94 C346.2375 94.391875 347.475 94.78375 348.75 95.1875 C353.72920821 96.81834826 358.44677313 98.91994319 363.203125 101.109375 C366.42238248 102.13450168 367.83110171 102.10986771 371 101 C372.76635462 99.86855625 374.49418953 98.67559259 376.1875 97.4375 C380.71086071 94.49488362 384.07605394 92.86265188 389.52124023 93.43115234 C397.55313204 95.27438172 404.16857023 103.83416509 409.75 109.4375 C410.58660156 110.25798828 411.42320312 111.07847656 412.28515625 111.92382812 C422.99964259 122.62977022 422.99964259 122.62977022 423.5546875 130.03125 C423.3198487 134.51257748 420.90998097 137.18038218 418.125 140.5 C415.86841532 143.52418146 413.88707286 146.19358871 414.13037109 150.08544922 C415.21296115 154.37352845 417.10291728 158.23497724 419.12744141 162.14794922 C420.47719085 165.01286227 421.22098959 167.93536514 422 171 C423.08539063 171.17015625 424.17078125 171.3403125 425.2890625 171.515625 C426.73450289 171.75966039 428.17980856 172.00449462 429.625 172.25 C430.33785156 172.35957031 431.05070312 172.46914062 431.78515625 172.58203125 C436.6668317 173.4329655 440.13557385 174.71353788 444 178 C447.14265019 182.97477225 447.4426863 186.99371427 447.3984375 192.6875 C447.40130768 193.50822998 447.40417786 194.32895996 447.40713501 195.17456055 C447.40916823 196.90251357 447.40369044 198.63048999 447.39111328 200.35839844 C447.37504841 202.9920637 447.39098658 205.62419454 447.41015625 208.2578125 C447.40817369 209.9427117 447.40432974 211.62760994 447.3984375 213.3125 C447.40451019 214.09391357 447.41058289 214.87532715 447.4168396 215.68041992 C447.34042609 221.66785377 446.09844387 225.91235429 441.72265625 230.265625 C438.62004282 232.24203872 436.03102232 233.00048202 432.4375 233.75 C431.32246094 233.99234375 430.20742188 234.2346875 429.05859375 234.484375 C426 235 426 235 422 235 C421.91878906 235.64839844 421.83757812 236.29679688 421.75390625 236.96484375 C421.0924862 239.62765919 420.2984058 241.57263036 419.08984375 244.00390625 C414.61875544 252.57753394 414.61875544 252.57753394 415.28515625 261.7421875 C417.34944871 264.72030255 419.55576046 267.33231319 422 270 C423.52068677 274.5620603 423.66514907 278.3871643 421.81542969 282.87231445 C419.82903028 286.2945526 417.48716593 288.96319188 414.703125 291.73046875 C414.19126648 292.24756912 413.67940796 292.76466949 413.15203857 293.29743958 C412.07322928 294.38263788 410.99057552 295.46402659 409.90429688 296.54174805 C408.25628977 298.18124271 406.62781484 299.83853093 405 301.49804688 C403.9438403 302.55581895 402.88658359 303.61249706 401.828125 304.66796875 C401.34869446 305.15863327 400.86926392 305.64929779 400.37530518 306.15483093 C395.90545209 310.53552242 391.63034057 312.86625387 385.3125 313.1875 C381.1218734 312.53094148 378.470504 310.25591529 375.125 307.75 C371.13101764 304.82194243 371.13101764 304.82194243 366.4296875 303.96484375 C363.78814117 304.75051267 361.47117161 305.77930077 359 307 C356.83641271 307.90324518 354.66967111 308.79896802 352.5 309.6875 C351.4996875 310.12449219 350.499375 310.56148438 349.46875 311.01171875 C347 312 347 312 345 312 C344.96261719 312.61746094 344.92523438 313.23492187 344.88671875 313.87109375 C344.31822433 321.19463955 343.7579833 328.10101607 338.53588867 333.59008789 C334.41523578 336.92558775 330.33894359 336.72223862 325.21875 336.6640625 C323.82118469 336.67123795 323.82118469 336.67123795 322.39538574 336.67855835 C320.43203028 336.68194997 318.46861778 336.67279934 316.50537109 336.65185547 C313.5088041 336.62507867 310.51598245 336.65162767 307.51953125 336.68359375 C305.60676261 336.68028952 303.69399629 336.67388301 301.78125 336.6640625 C300.89046753 336.67418365 299.99968506 336.68430481 299.08190918 336.69473267 C294.7670164 336.61387622 291.88582152 336.35982224 288.46411133 333.59008789 C282.85578694 327.69504049 282.4741514 319.83167311 282 312 C281.41734375 311.84144531 280.8346875 311.68289063 280.234375 311.51953125 C274.1226818 309.78019718 268.49960708 307.5278501 262.76171875 304.79296875 C259.30589783 303.80070334 258.10985287 304.28907771 255 306 C253.53990747 306.98824934 252.10200046 308.01002891 250.6875 309.0625 C246.23518343 312.0750127 243.39546745 313.08702367 238 313 C232.5280279 311.12408828 228.95625636 308.53224065 224.91796875 304.37890625 C224.37771561 303.83773666 223.83746246 303.29656708 223.28083801 302.73899841 C222.14932651 301.60148289 221.02264062 300.45914849 219.90063477 299.31225586 C218.18542036 297.5603759 216.45458263 295.8251861 214.72070312 294.09179688 C213.61884122 292.98010791 212.51789698 291.86750847 211.41796875 290.75390625 C210.90340622 290.23711807 210.38884369 289.7203299 209.85868835 289.18788147 C205.99331772 285.21928003 204.17691657 282.76916575 203.625 277.25 C203.77458403 271.86497478 206.06340135 267.38442057 209.43164062 263.23730469 C211.71101383 260.30690719 213.08896656 258.243388 212.81762695 254.45117188 C212.03068862 251.57818094 211.02507435 248.97082863 209.8125 246.25 C209.40410889 245.30640625 208.99571777 244.3628125 208.57495117 243.390625 C206.42606512 239.03327981 204.68423028 235.75553994 200.03125 233.921875 C197.27972091 233.18013348 194.6029198 232.86513532 191.76953125 232.625 C186.87873248 231.81409036 185.40411833 230.55036934 182 227 C179.64716677 222.61663259 179.69358836 218.26937128 179.69921875 213.41015625 C179.69493362 212.58801132 179.6906485 211.76586639 179.68623352 210.91880798 C179.68050628 209.184895 179.67997809 207.450958 179.68432617 205.71704102 C179.68748552 203.07461275 179.66400991 200.43330562 179.63867188 197.79101562 C179.63639854 196.1015639 179.63569555 194.41210919 179.63671875 192.72265625 C179.627509 191.93810562 179.61829926 191.15355499 179.60881042 190.3452301 C179.64935015 185.50166639 180.33962761 182.20214768 183 178 C187.50328924 174.17022322 191.70827842 173.12101507 197.375 172.25 C198.11105469 172.12496094 198.84710938 171.99992188 199.60546875 171.87109375 C201.40152115 171.56786412 203.20050871 171.28210552 205 171 C205.0825 170.34257812 205.165 169.68515625 205.25 169.0078125 C205.90283659 166.38966575 206.65748793 164.54849199 207.875 162.1796875 C212.22577744 154.21084153 212.22577744 154.21084153 211.97265625 145.58203125 C210.15507186 142.8277776 208.20004923 140.45272815 206 138 C203.676428 134.12000358 203.31916436 130.44203742 204 126 C205.72612399 121.59571455 208.48446883 118.13886712 212 115 C206.32008352 102.94151918 196.67252968 90.10928773 184 85 C164.90753 80.63560451 143.33177301 82.74061664 124 84 C124 87.3 124 90.6 124 94 C131.59 94 139.18 94 147 94 C147 98.95 147 103.9 147 109 C139.41 109 131.82 109 124 109 C124 112.63 124 116.26 124 120 C131.59 120 139.18 120 147 120 C147 124.62 147 129.24 147 134 C139.41 134 131.82 134 124 134 C124 137.63 124 141.26 124 145 C131.59 145 139.18 145 147 145 C147 149.95 147 154.9 147 160 C139.41 160 131.82 160 124 160 C123.34 162.97 122.68 165.94 122 169 C118.73504908 174.56506146 114.26523035 178.32927191 108 180 C104.37 180 100.74 180 97 180 C97 187.59 97 195.18 97 203 C92.05 203 87.1 203 82 203 C82 195.41 82 187.82 82 180 C78.04 180 74.08 180 70 180 C70 189.57 70 199.14 70 209 C71.65 209.66 73.3 210.32 75 211 C76.71934044 211.89375257 78.42309042 212.81790133 80.11328125 213.765625 C81.10239502 214.31919678 82.09150879 214.87276855 83.1105957 215.44311523 C84.16722412 216.03938721 85.22385254 216.63565918 86.3125 217.25 C87.41102295 217.8675415 88.5095459 218.48508301 89.64135742 219.12133789 C100.21612685 225.08525731 110.72096789 231.17016424 121.17041016 237.35107422 C123.19809887 238.53269713 125.24144611 239.68760695 127.29443359 240.82470703 C128.3767627 241.43040527 129.4590918 242.03610352 130.57421875 242.66015625 C131.56381592 243.20422119 132.55341309 243.74828613 133.57299805 244.30883789 C136.1793998 246.12500779 137.06410593 247.00018286 138 250 C138.22705078 252.74902344 138.22705078 252.74902344 138.1953125 255.859375 C138.18564453 257.53193359 138.18564453 257.53193359 138.17578125 259.23828125 C138.15064453 260.97658203 138.15064453 260.97658203 138.125 262.75 C138.11597656 263.92433594 138.10695312 265.09867187 138.09765625 266.30859375 C138.07410063 269.20593536 138.04120652 272.10286441 138 275 C138.75925781 274.98259766 139.51851562 274.96519531 140.30078125 274.94726562 C141.79158203 274.92696289 141.79158203 274.92696289 143.3125 274.90625 C144.29863281 274.88884766 145.28476563 274.87144531 146.30078125 274.85351562 C149 275 149 275 152 276.5 C156.40655045 282.00818806 157.38581899 288.12117274 158 295 C158.81791016 295.27263672 158.81791016 295.27263672 159.65234375 295.55078125 C160.40644531 295.80214844 161.16054687 296.05351562 161.9375 296.3125 C162.76121094 296.57546875 163.58492187 296.8384375 164.43359375 297.109375 C167 298 167 298 169.28515625 299.078125 C171.62589348 300.11845266 173.43913833 300.80882456 176 301 C178.50673151 299.75969014 180.52802385 298.22833409 182.73828125 296.51953125 C186.2391449 294.16748296 189.82694451 293.46835419 194 294 C198.43056343 295.92694588 201.50418249 298.13618464 204.890625 301.5625 C205.76460938 302.44164062 206.63859375 303.32078125 207.5390625 304.2265625 C208.43367188 305.14179688 209.32828125 306.05703125 210.25 307 C211.16007812 307.91523438 212.07015625 308.83046875 213.0078125 309.7734375 C222.29218666 319.16801194 222.29218666 319.16801194 222.5 324.5625 C222.44427928 330.01517093 220.40197059 333.27080618 217.21484375 337.578125 C215.58177067 340.83376908 216.11233412 342.51116397 217 346 C217.21914063 347.01320313 217.43828125 348.02640625 217.6640625 349.0703125 C218.75910452 352.55129973 219.7813088 355.08244212 222 358 C225.94941356 359.66636386 229.27161521 360.39166186 233.50390625 361.05859375 C237.64192267 362.17285292 238.74824107 363.43792659 241 367 C242.26237731 369.52475462 242.09856404 371.31200466 242.0625 374.125 C242.04896484 375.49011719 242.04896484 375.49011719 242.03515625 376.8828125 C242.01775391 377.93082031 242.01775391 377.93082031 242 379 C242.68016174 378.98889694 243.36032349 378.97779388 244.06109619 378.96635437 C251.13353355 378.85582678 258.20572605 378.78035955 265.27880859 378.7253418 C267.91920942 378.70018121 270.5595405 378.66604937 273.19970703 378.62280273 C276.99268797 378.56222337 280.78474898 378.5338047 284.578125 378.51171875 C286.35174408 378.47300911 286.35174408 378.47300911 288.16119385 378.43351746 C296.16680752 378.43077104 296.16680752 378.43077104 299.75805664 380.88427734 C301.5683838 385.4259316 301.4289405 389.49828108 301.29296875 394.33984375 C301.28309475 396.39257182 301.27467597 398.44530732 301.26757812 400.49804688 C301.2343984 403.72237899 301.18732758 406.94503142 301.11352539 410.16870117 C301.05036526 413.2892881 301.04304728 416.40620501 301.04296875 419.52734375 C300.98727974 420.96665504 300.98727974 420.96665504 300.9304657 422.43504333 C300.95031207 425.22629464 301.06794757 427.36507445 302 430 C304.12387407 432.00484809 306.19509358 433.33016699 308.77192688 434.6955719 C313.09830179 437.22845332 315.43240108 441.29720325 317 446 C317.61240072 453.90097319 318.17347714 461.55837248 313 468 C308.29943056 472.93608858 303.95192196 476.50795205 297.01953125 477.37109375 C289.25234423 477.53192466 283.33002323 476.7274857 277 472 C271.49574008 466.6330605 269.11566582 460.93748457 268.9375 453.33203125 C269.26434843 445.92687152 271.28016646 440.73890961 276.5234375 435.46875 C279.20923281 433.12379166 281.79453819 431.6027309 285 430 C285.33 418.12 285.66 406.24 286 394 C271.48 394 256.96 394 242 394 C242 397.3 242 400.6 242 404 C239.24022005 408.96760391 239.24022005 408.96760391 236 411 C233.82984343 411.51670394 231.63837162 411.94818338 229.4375 412.3125 C224.63668401 413.11747064 224.63668401 413.11747064 221.1171875 416.22265625 C219.85521351 418.78816625 218.87988263 421.28186493 218 424 C217.63132812 424.88300781 217.26265625 425.76601563 216.8828125 426.67578125 C215.72630803 429.72056071 215.92458167 430.91713412 217 434 C217.84303819 435.23682577 218.69854193 436.46519568 219.5625 437.6875 C222.07455198 441.59922904 222.91234229 444.77339923 222.57324219 449.42431641 C221.91699027 452.37297813 221.04451036 453.55928324 219.00390625 455.75390625 C218.37081543 456.43984863 217.73772461 457.12579102 217.08544922 457.83251953 C213.48817995 461.57128757 209.86583774 465.27830365 206.1875 468.9375 C205.42501953 469.70384766 204.66253906 470.47019531 203.87695312 471.25976562 C203.14798828 471.98744141 202.41902344 472.71511719 201.66796875 473.46484375 C200.68219849 474.44892212 200.68219849 474.44892212 199.67651367 475.45288086 C196.5168851 478.36864703 193.72521448 478.4375 189.5703125 478.4375 C186.42707698 477.90248119 184.52640533 476.68888701 181.875 474.9375 C178.01416251 472.4118142 178.01416251 472.4118142 173.4375 471.875 C169.81657815 473.06002897 166.43309317 474.48129514 163.015625 476.16015625 C161 477 161 477 158 477 C157.92523438 477.85722656 157.85046875 478.71445312 157.7734375 479.59765625 C157.00918807 486.24362925 156.26329724 490.94278239 151.53515625 495.828125 C147.93413449 498.57699657 143.78910713 498.19341585 139.48046875 498.23828125 C138.74427811 498.246353 138.00808746 498.25442474 137.24958801 498.26274109 C135.69205058 498.27656035 134.13448313 498.28729215 132.5769043 498.29516602 C130.98924852 498.3066837 129.4016314 498.32713247 127.81420898 498.35668945 C125.51519571 498.3994896 123.21733161 498.41555128 120.91796875 498.42578125 C120.21463913 498.44328934 119.51130951 498.46079742 118.78666687 498.47883606 C113.7312058 498.45678003 110.89855528 497.15952416 107 494 C105.828125 492.140625 105.828125 492.140625 105.25 490.25 C105.04890625 489.63640625 104.8478125 489.0228125 104.640625 488.390625 C104 486 104 486 103.75756836 484.10717773 C103.25052051 480.97849931 102.84172095 478.75413401 100.42333984 476.58740234 C98.34764411 475.36796357 96.30474491 474.43846714 94.0625 473.5625 C92.91104492 473.09638306 92.91104492 473.09638306 91.73632812 472.62084961 C87.78792143 471.24876999 85.77819033 470.7309498 81.74609375 472.125 C78.97870919 474.02694493 78.97870919 474.02694493 76.42578125 476.1796875 C73.23559719 478.57360984 71.05114365 478.73436145 67.16796875 478.63671875 C60.05661128 476.54815791 54.8886079 470.25537415 49.8125 465.1875 C49.00619141 464.40568359 48.19988281 463.62386719 47.36914062 462.81835938 C42.15058351 457.62582997 38.08266578 453.38128623 37.9375 445.6875 C38.97103294 442.10053272 40.15961527 440.20746891 42.25 437.1875 C44.56379811 433.56169357 44.56379811 433.56169357 44.83203125 429.3828125 C44.0575311 426.79590336 43.12940526 424.4527488 42 422 C41.62617187 420.79859375 41.25234375 419.5971875 40.8671875 418.359375 C39.26693224 414.67355372 39.26693224 414.67355372 35.34765625 413.43359375 C33.92614513 413.07326642 32.49703366 412.74187285 31.0625 412.4375 C26.61246325 411.46417963 23.76963904 410.77684315 20.49609375 407.47265625 C19.01942941 404.04509854 18.83559374 402.40961611 18.90649414 398.78295898 C18.91999405 397.88616928 18.93349396 396.98937958 18.94740295 396.06541443 C18.97343849 395.04303429 18.97343849 395.04303429 19 394 C18.33458694 394.00888245 17.66917389 394.01776489 16.9835968 394.0269165 C10.05694164 394.1154219 3.13044716 394.17574791 -3.79663086 394.21972656 C-6.38165817 394.23983972 -8.96664 394.26713386 -11.55151367 394.30175781 C-15.26752955 394.35028654 -18.98294378 394.37297235 -22.69921875 394.390625 C-23.85459641 394.41127014 -25.00997406 394.43191528 -26.20036316 394.45318604 C-27.28110611 394.45348816 -28.36184906 394.45379028 -29.4753418 394.45410156 C-30.42354294 394.46298401 -31.37174408 394.47186646 -32.34867859 394.48101807 C-35.96875953 393.82424204 -37.54277773 392.73653889 -40 390 C-40.4733739 387.30003903 -40.62386306 385.23258392 -40.54833984 382.54101562 C-40.5475795 381.79583176 -40.54681915 381.05064789 -40.54603577 380.28288269 C-40.54152015 378.66827309 -40.52570957 377.05366421 -40.49988937 375.43925476 C-40.46058541 372.8833537 -40.45402606 370.32925229 -40.45645142 367.77307129 C-40.45681492 360.50830286 -40.3928627 353.24432789 -40.31933594 345.97998047 C-40.27658349 341.53366424 -40.26762905 337.08826046 -40.2783699 332.64176941 C-40.27349532 330.12361802 -40.22837985 327.60814619 -40.18270874 325.0904541 C-40.18390974 323.54662761 -40.18718567 322.00280086 -40.19287109 320.45898438 C-40.16919968 319.75964279 -40.14552826 319.06030121 -40.12113953 318.33976746 C-40.08409105 316.11443247 -40.08409105 316.11443247 -41 313 C-43.2181206 311.14653923 -45.32816386 310.22380594 -48 309 C-54.09061738 303.8280088 -56.45007197 297.32086312 -57.4375 289.5625 C-56.49741219 281.90749925 -53.68367532 275.59614054 -47.90625 270.40625 C-41.60594035 265.75848059 -34.65784856 265.04959654 -27 266 C-19.83958309 267.8100259 -15.083274 271.92598854 -11 278 C-7.77159284 284.43521962 -7.84079636 292.59224962 -9.65234375 299.48046875 C-12.57574002 305.96714631 -17.77216316 309.88608158 -24 313 C-24.33 334.78 -24.66 356.56 -25 379 C-10.48 379 4.04 379 19 379 C19 375.37 19 371.74 19 368 C21.14452721 363.85884401 22.35228954 362.63860967 26.640625 360.9765625 C30.90339117 359.73420552 34.54180246 359 39 359 C39.18175781 358.43152344 39.36351563 357.86304688 39.55078125 357.27734375 C40.78671972 353.48079431 42.0452757 349.80120128 43.75 346.1875 C45.07483502 342.8091707 45.16671162 342.23328062 44 339 C43.20666871 337.72423752 42.37032739 336.47453039 41.5 335.25 C38.78525116 331.00425908 38 328.05824104 38 323 C39.61333636 318.66946556 42.11022198 315.55987147 45 312 C44.45098526 311.45320587 43.90197052 310.90641174 43.33631897 310.3430481 C38.16876835 305.19551495 33.00361367 300.04559527 27.84114933 294.8929615 C25.18684383 292.24387984 22.53161394 289.5957386 19.87426758 286.94970703 C17.31095579 284.39724178 14.75007768 281.84235829 12.19088554 279.28576279 C11.21292262 278.30965092 10.23407841 277.33442121 9.25435066 276.36008072 C7.88478292 274.99774673 6.51860211 273.63201037 5.15258789 272.26611328 C4.37315323 271.48889923 3.59371857 270.71168518 2.79066467 269.91091919 C-0.66867319 266.21926479 -0.1351987 262.68278855 -0.11352539 257.87841797 C-0.11367142 257.03931885 -0.11381744 256.20021973 -0.1139679 255.33569336 C-0.11326968 252.55449869 -0.10548155 249.77337051 -0.09765625 246.9921875 C-0.09579175 245.06690508 -0.094368 243.14162218 -0.09336853 241.21633911 C-0.08954591 236.1429921 -0.07971779 231.06967361 -0.06866455 225.99633789 C-0.05844495 220.82178127 -0.05386973 215.64722005 -0.04882812 210.47265625 C-0.03809531 200.31509162 -0.02102193 190.15754818 0 180 C-1.11604614 180.02719116 -1.11604614 180.02719116 -2.25463867 180.05493164 C-3.2366626 180.06903076 -4.21868652 180.08312988 -5.23046875 180.09765625 C-6.68682739 180.12484741 -6.68682739 180.12484741 -8.17260742 180.15258789 C-14.92851128 179.78798726 -19.37988051 176.11717094 -23.7734375 171.26953125 C-25 169 -25 169 -27 160 C-34.59 160 -42.18 160 -50 160 C-50 155.05 -50 150.1 -50 145 C-42.41 145 -34.82 145 -27 145 C-27 141.37 -27 137.74 -27 134 C-34.59 134 -42.18 134 -50 134 C-50 129.38 -50 124.76 -50 120 C-42.41 120 -34.82 120 -27 120 C-27 116.37 -27 112.74 -27 109 C-34.59 109 -42.18 109 -50 109 C-50 104.05 -50 99.1 -50 94 C-42.41 94 -34.82 94 -27 94 C-27 90.7 -27 87.4 -27 84 C-34.59 84 -42.18 84 -50 84 C-50 79.05 -50 74.1 -50 69 C-42.41 69 -34.82 69 -27 69 C-27 65.37 -27 61.74 -27 58 C-34.59 58 -42.18 58 -50 58 C-50 53.05 -50 48.1 -50 43 C-42.41 43 -34.82 43 -27 43 C-26.34 40.03 -25.68 37.06 -25 34 C-21.73504908 28.43493854 -17.26523035 24.67072809 -11 23 C-7.37 23 -3.74 23 0 23 C0 15.41 0 7.82 0 0 Z M-10.6423645 39.83766174 C-12.69844528 44.6268875 -12.54005781 49.08369461 -12.48583984 54.24438477 C-12.48963654 55.37985748 -12.49343323 56.5153302 -12.49734497 57.68521118 C-12.50475295 61.43755738 -12.4833645 65.18912889 -12.4609375 68.94140625 C-12.45855329 71.54784555 -12.4576477 74.15428659 -12.4581604 76.76072693 C-12.45628921 82.22233712 -12.43894903 87.68372464 -12.41162109 93.14526367 C-12.3801564 99.45680705 -12.36962555 105.7681068 -12.3710922 112.07972294 C-12.37231349 118.15648302 -12.36187994 124.233151 -12.34550858 130.30988884 C-12.33913686 132.89391539 -12.33520081 135.47794912 -12.33372116 138.06198311 C-12.32939319 141.66978329 -12.31190295 145.27727556 -12.29052734 148.88500977 C-12.29143372 149.95680984 -12.29234009 151.02860992 -12.29327393 152.13288879 C-12.28474396 153.11561768 -12.27621399 154.09834656 -12.26742554 155.1108551 C-12.26407385 155.96347207 -12.26072216 156.81608904 -12.25726891 157.69454288 C-11.97389833 160.23390418 -11.35915048 161.84538436 -10 164 C-7.62086194 165.18956903 -6.15217319 165.13599026 -3.49649048 165.15390015 C-2.54872238 165.16250061 -1.60095428 165.17110107 -0.62446594 165.17996216 C0.41869278 165.18422211 1.4618515 165.18848206 2.53662109 165.19287109 C4.18065163 165.20513733 4.18065163 165.20513733 5.8578949 165.21765137 C9.49640347 165.24252968 13.13487303 165.25902586 16.7734375 165.2734375 C18.01329029 165.27876118 19.25314308 165.28408485 20.53056717 165.28956985 C25.73941137 165.31080257 30.94824968 165.32993323 36.15712547 165.34119225 C43.62376023 165.35743752 51.08987511 165.39063136 58.55631387 165.44759309 C64.43812771 165.49093735 70.31982521 165.50693459 76.2018013 165.51332474 C78.70492889 165.52005861 81.20804828 165.53533553 83.71107101 165.55921555 C87.20931687 165.59069151 90.70624068 165.59092988 94.20458984 165.58349609 C95.76325523 165.6081041 95.76325523 165.6081041 97.35340881 165.63320923 C102.848702 165.59659257 102.848702 165.59659257 107.6423645 163.16531372 C109.69441583 158.38097636 109.55665866 153.92727194 109.51757812 148.77148438 C109.5245874 147.63761795 109.53159668 146.50375153 109.53881836 145.33552551 C109.55642143 141.58801779 109.54476654 137.84126539 109.53125 134.09375 C109.53394423 131.48970393 109.53782606 128.88565884 109.54284668 126.28161621 C109.55011781 120.82421691 109.54054967 115.36703434 109.52148438 109.90966797 C109.49971634 103.60597727 109.50676812 97.30280411 109.52879 90.99912596 C109.54914921 84.92767712 109.5469689 78.85645719 109.53526306 72.7849884 C109.53259329 70.20457385 109.53587429 67.6241461 109.54518127 65.04374695 C109.55533126 61.4383131 109.53986555 57.83387523 109.51757812 54.22851562 C109.52567505 53.16031082 109.53377197 52.09210602 109.54211426 50.99153137 C109.49426104 46.81640242 109.30019674 43.69800862 107.64038086 39.83865356 C103.41416687 36.89569048 99.26796373 37.3038695 94.23632812 37.35302734 C93.14001572 37.34426575 92.04370331 37.33550415 90.91416931 37.32647705 C87.28612831 37.30444983 83.65930364 37.31904895 80.03125 37.3359375 C77.51305914 37.33257036 74.99486986 37.3277186 72.47668457 37.32144165 C67.19738323 37.3140658 61.91839894 37.32432353 56.63916016 37.34814453 C50.53815119 37.37535587 44.43797765 37.36654141 38.33698893 37.3390125 C32.4646694 37.31357737 26.59266711 37.31628349 20.72032166 37.33092117 C18.22281274 37.33426066 15.72528255 37.33014917 13.22779846 37.31852341 C9.73917872 37.30584849 6.25217127 37.32514768 2.76367188 37.35302734 C1.7277037 37.34290619 0.69173553 37.33278503 -0.37562561 37.32235718 C-5.86022144 37.39727527 -5.86022144 37.39727527 -10.6423645 39.83766174 Z M299 85 C296.96833096 90.46862005 296.96833096 90.46862005 296.5703125 94.21875 C295.41077634 102.76270068 295.41077634 102.76270068 291.83984375 105.89453125 C289.28748283 107.19763535 286.73879924 108.2765721 284.04150391 109.24169922 C281.66965522 110.122704 279.36319891 111.11989952 277.04296875 112.12890625 C275.27966465 112.8800005 273.51533684 113.62869592 271.75 114.375 C270.91090088 114.73376221 270.07180176 115.09252441 269.20727539 115.4621582 C263.86309323 117.62061898 259.76510883 118.76475933 254 118 C251.41397584 116.79478927 249.2480386 115.24498101 247 113.5 C246.41605469 113.07074219 245.83210938 112.64148438 245.23046875 112.19921875 C243.80773038 111.14965766 242.40198087 110.07713164 241 109 C235.93376232 113.23816537 231.19961931 117.67408963 226.5625 122.375 C225.92634766 123.01566406 225.29019531 123.65632813 224.63476562 124.31640625 C223.08749668 125.87530879 221.54263508 127.43651416 220 129 C221.60755214 133.42659284 223.86818388 136.76895143 226.66015625 140.5234375 C229.00870265 144.86448245 229.38059719 148.64949698 228.04370117 153.39331055 C227.54845947 154.54613525 227.05321777 155.69895996 226.54296875 156.88671875 C226.27994461 157.51101273 226.01692047 158.1353067 225.7459259 158.77851868 C224.90860944 160.75522156 224.04848799 162.72101018 223.1875 164.6875 C222.62023861 166.01823917 222.054469 167.34961528 221.49023438 168.68164062 C215.49473265 182.76214776 215.49473265 182.76214776 212.96875 183.9765625 C212.1540625 184.19054687 211.339375 184.40453125 210.5 184.625 C209.7059375 184.84414062 208.911875 185.06328125 208.09375 185.2890625 C203.74982221 186.28728833 199.37059267 187.12588147 195 188 C195 197.9 195 207.8 195 218 C200.78617034 219.19376026 200.78617034 219.19376026 206.57739258 220.36254883 C207.30079834 220.51747803 208.0242041 220.67240723 208.76953125 220.83203125 C209.50792236 220.98389893 210.24631348 221.1357666 211.00708008 221.29223633 C214.70814748 222.60662986 215.79927819 224.60171835 217.54980469 228.07519531 C218.09906628 229.3224322 218.63925277 230.57369218 219.171875 231.828125 C219.45855042 232.49535583 219.74522583 233.16258667 220.04058838 233.85003662 C220.64284113 235.26047955 221.24104256 236.67265835 221.83544922 238.08642578 C222.74411244 240.23607167 223.67793521 242.37357386 224.61328125 244.51171875 C225.19689582 245.88735018 225.77897768 247.26363308 226.359375 248.640625 C226.63948425 249.273172 226.91959351 249.90571899 227.20819092 250.55743408 C229.06817305 255.08700247 229.13850049 258.26402313 228 263 C226.15234375 266.30859375 226.15234375 266.30859375 223.9375 269.4375 C223.20402344 270.48808594 222.47054688 271.53867187 221.71484375 272.62109375 C221.14894531 273.40613281 220.58304687 274.19117188 220 275 C221.48653506 278.46629835 223.45722351 280.69022036 226.1328125 283.328125 C226.93847656 284.12734375 227.74414062 284.9265625 228.57421875 285.75 C229.41597656 286.575 230.25773437 287.4 231.125 288.25 C231.97449219 289.09046875 232.82398438 289.9309375 233.69921875 290.796875 C235.79504923 292.86915683 237.89540713 294.93662393 240 297 C241.43937079 296.21958643 242.87642546 295.43490017 244.3125 294.6484375 C245.11300781 294.21192871 245.91351563 293.77541992 246.73828125 293.32568359 C249.20759765 291.94872734 249.20759765 291.94872734 252 289.625 C256.188573 287.35618963 259.51381628 287.97644156 264 289 C268.53734136 290.61380035 272.91635982 292.53792282 277.3125 294.5 C279.62004126 295.512818 281.92859302 296.52333769 284.23828125 297.53125 C285.24930908 297.98048828 286.26033691 298.42972656 287.30200195 298.89257812 C289.54602999 299.8136632 291.63363837 300.5011511 294 301 C294.11593506 301.57032959 294.23187012 302.14065918 294.35131836 302.72827148 C294.87613125 305.29883176 295.40673615 307.86816218 295.9375 310.4375 C296.21110352 311.78424805 296.21110352 311.78424805 296.49023438 313.15820312 C296.66748047 314.01220703 296.84472656 314.86621094 297.02734375 315.74609375 C297.18968506 316.53685303 297.35202637 317.3276123 297.51928711 318.14233398 C297.83290893 320.00204668 297.83290893 320.00204668 299 321 C301.14558827 321.08775605 303.29404421 321.10695219 305.44140625 321.09765625 C306.74658203 321.09443359 308.05175781 321.09121094 309.39648438 321.08789062 C310.7851569 321.07953401 312.17382877 321.07106905 313.5625 321.0625 C314.95507656 321.05748666 316.34765481 321.05292347 317.74023438 321.04882812 C321.1601987 321.03699434 324.58007844 321.0205088 328 321 C329.93665819 315.3988614 330.91496556 309.89603144 331.828125 304.046875 C332.21484375 303.04140625 332.6015625 302.0359375 333 301 C335.68066406 299.97216797 335.68066406 299.97216797 339 299 C341.10152308 298.15182314 343.19500932 297.28353809 345.28125 296.3984375 C346.45300781 295.90859375 347.62476563 295.41875 348.83203125 294.9140625 C351.28014011 293.88684749 353.72546415 292.85297054 356.16796875 291.8125 C357.33972656 291.32523438 358.51148438 290.83796875 359.71875 290.3359375 C360.78029297 289.88782715 361.84183594 289.4397168 362.93554688 288.97802734 C366.82489939 287.73673144 370.12466922 287.21205372 373.96630859 288.82617188 C374.52141113 289.20322266 375.07651367 289.58027344 375.6484375 289.96875 C376.26074219 290.37480469 376.87304688 290.78085937 377.50390625 291.19921875 C378.12136719 291.62847656 378.73882812 292.05773437 379.375 292.5 C380.01566406 292.92925781 380.65632812 293.35851562 381.31640625 293.80078125 C382.88590978 294.85492541 384.4441417 295.92581838 386 297 C391.06623768 292.76183463 395.80038069 288.32591037 400.4375 283.625 C401.39172852 282.66400391 401.39172852 282.66400391 402.36523438 281.68359375 C403.91250332 280.12469121 405.45736492 278.56348584 407 277 C405.23328699 272.03168017 402.42292865 268.1693637 399.36328125 263.9140625 C397.18229781 259.25213229 398.54391359 255.33182574 400.16748047 250.59082031 C400.64588379 249.43163086 401.12428711 248.27244141 401.6171875 247.078125 C402.00392136 246.13812653 402.00392136 246.13812653 402.39846802 245.17913818 C402.94088785 243.86664393 403.48731828 242.55580051 404.03759766 241.24658203 C404.87672417 239.24588913 405.69885799 237.23879095 406.51953125 235.23046875 C407.05108462 233.95010575 407.5836033 232.67014299 408.1171875 231.390625 C408.83817627 229.6586084 408.83817627 229.6586084 409.57373047 227.89160156 C411.25094352 224.49124015 412.37956063 222.57548128 415.99291992 221.29223633 C416.73131104 221.14036865 417.46970215 220.98850098 418.23046875 220.83203125 C418.95387451 220.67710205 419.67728027 220.52217285 420.42260742 220.36254883 C421.79122925 220.09027466 421.79122925 220.09027466 423.1875 219.8125 C426.095625 219.214375 429.00375 218.61625 432 218 C432 208.1 432 198.2 432 188 C425.88633395 186.8852364 425.88633395 186.8852364 419.7644043 185.81762695 C419.00039307 185.66769287 418.23638184 185.51775879 417.44921875 185.36328125 C416.66893311 185.22188721 415.88864746 185.08049316 415.0847168 184.93481445 C409.14242719 182.27021357 407.00537576 172.36434475 404.59179688 166.6171875 C404.0307892 165.28951273 403.4624171 163.96492568 402.88671875 162.64355469 C402.04858192 160.71947573 401.23308368 158.78712358 400.421875 156.8515625 C399.93299805 155.70510254 399.44412109 154.55864258 398.94042969 153.37744141 C397.47419231 148.11162422 398.20986614 144.41489086 400.84765625 139.69140625 C401.94400391 138.14259766 401.94400391 138.14259766 403.0625 136.5625 C403.79597656 135.51191406 404.52945313 134.46132812 405.28515625 133.37890625 C405.85105469 132.59386719 406.41695312 131.80882812 407 131 C405.51346494 127.53370165 403.54277649 125.30977964 400.8671875 122.671875 C399.65869141 121.47304687 399.65869141 121.47304687 398.42578125 120.25 C397.58402344 119.425 396.74226562 118.6 395.875 117.75 C395.02550781 116.90953125 394.17601562 116.0690625 393.30078125 115.203125 C391.20495077 113.13084317 389.10459287 111.06337607 387 109 C385.22891052 110.12459671 383.45813764 111.24969203 381.6875 112.375 C380.70136719 113.00148438 379.71523438 113.62796875 378.69921875 114.2734375 C376.78712071 115.49651613 374.8885966 116.7409356 373 118 C365.41302967 119.1253401 359.08226162 116.02405436 352.22607422 113.09277344 C350.24776842 112.24904826 348.25997783 111.43179528 346.26953125 110.6171875 C335.27577345 106.01919431 335.27577345 106.01919431 332 102 C331.26799015 99.39415799 330.72628315 97.02524302 330.3125 94.375 C329.6175298 89.54934761 329.6175298 89.54934761 328 85 C318.43 85 308.86 85 299 85 Z M15 180 C13.75536227 192.62789988 12.91425573 205.25697747 12.4375 217.9375 C12.40240326 218.86446056 12.36730652 219.79142113 12.33114624 220.74647141 C11.60272189 242.49891022 11.43990278 261.83171759 26.85093689 278.52400208 C35.66111551 287.40384904 45.51909602 295.18928239 56 302 C56.52819336 301.58210205 57.05638672 301.1642041 57.60058594 300.73364258 C58.65681152 299.91609497 58.65681152 299.91609497 59.734375 299.08203125 C60.42756836 298.5403833 61.12076172 297.99873535 61.83496094 297.44067383 C65.47241671 295.02021527 68.69115429 294.19378516 73 295 C75.04326901 296.13363187 77.04173522 297.35013981 79 298.625 C82.93044072 301.27339272 82.93044072 301.27339272 87.44921875 301.94140625 C89.77702076 301.15734728 91.82111882 300.12877057 94 299 C94.79664063 298.80535156 95.59328125 298.61070312 96.4140625 298.41015625 C99.23681603 297.63320943 100.82456037 296.98646205 103 295 C104.18067998 291.80819234 105.02183911 288.82625542 105.59692383 285.48339844 C106.22528402 282.03969172 106.8412985 280.17112162 109.24609375 277.578125 C113.76305866 274.98967986 117.84687533 275.24834336 123 275 C123 268.73 123 262.46 123 256 C121.39253906 255.10539062 119.78507812 254.21078125 118.12890625 253.2890625 C107.18515649 247.18707239 96.2657075 241.06108059 85.49609375 234.65625 C81.90150908 232.52141638 78.28357038 230.42926063 74.66015625 228.34375 C73.55937744 227.70824219 72.45859863 227.07273438 71.32446289 226.41796875 C69.13719517 225.15607735 66.94763455 223.89815054 64.75561523 222.64453125 C63.26783569 221.78408203 63.26783569 221.78408203 61.75 220.90625 C60.85796875 220.39384766 59.9659375 219.88144531 59.046875 219.35351562 C57 218 57 218 56 216 C55.84323225 213.30344554 55.74163685 210.62870023 55.68359375 207.9296875 C55.66281265 207.13345978 55.64203156 206.33723206 55.62062073 205.51687622 C55.55515851 202.96967315 55.49625585 200.42236575 55.4375 197.875 C55.3943116 196.14972873 55.35069721 194.42446807 55.30664062 192.69921875 C55.19948055 188.46625315 55.09820377 184.23318247 55 180 C50.71 180 46.42 180 42 180 C42 187.59 42 195.18 42 203 C37.05 203 32.1 203 27 203 C27 195.41 27 187.82 27 180 C23.04 180 19.08 180 15 180 Z M-38.8125 283.125 C-41.25055207 286.32929701 -42 287.98935002 -42 292 C-40.77798287 294.82993441 -39.66886714 296.47446153 -37.25 298.375 C-33.85887913 299.31697802 -31.39008797 298.84752199 -28 298 C-25.41666667 296.58333333 -25.41666667 296.58333333 -24 294 C-23.44636118 291.22039065 -23.41848097 288.77646831 -24 286 C-26.57250484 282.65574371 -28.62748893 281.18300148 -32.8125 280.625 C-36.15668938 280.7461809 -36.15668938 280.7461809 -38.8125 283.125 Z M119 289 C118.54625 291.536875 118.0925 294.07375 117.625 296.6875 C115.95019266 304.0321749 115.95019266 304.0321749 113.10546875 306.9296875 C110.45640529 308.23842413 107.81680524 309.10248853 105 310 C103.59792055 310.59486284 102.20247611 311.20550554 100.8125 311.828125 C99.31294448 312.49059038 97.81294224 313.15204546 96.3125 313.8125 C95.60005127 314.12775635 94.88760254 314.4430127 94.15356445 314.76782227 C89.62862248 316.65439682 85.98463603 317.5948253 81 317 C78.48828125 315.65234375 78.48828125 315.65234375 76.3125 313.9375 C74.19710792 312.19636704 74.19710792 312.19636704 72 311 C67.1055071 311.63226732 64.52036089 314.96510101 61.1875 318.3125 C60.27194336 319.18551758 60.27194336 319.18551758 59.33789062 320.07617188 C58.76619141 320.64529297 58.19449219 321.21441406 57.60546875 321.80078125 C56.81885864 322.57675659 56.81885864 322.57675659 56.01635742 323.3684082 C54.7750016 324.97894594 54.7750016 324.97894594 55.26269531 327.08154297 C56.36589946 329.95206555 58.1409383 332.2333005 59.94140625 334.70703125 C61.85474729 338.85142678 61.34670005 342.86506537 60.0378418 347.1496582 C59.59609619 348.18952881 59.15435059 349.22939941 58.69921875 350.30078125 C58.21646484 351.44224609 57.73371094 352.58371094 57.23632812 353.75976562 C56.72521484 354.93216797 56.21410156 356.10457031 55.6875 357.3125 C54.93823242 359.10010742 54.93823242 359.10010742 54.17382812 360.92382812 C50.39565457 369.73623029 50.39565457 369.73623029 47 372 C42.69955245 373.16749386 38.35604678 374.05115813 34 375 C34 382.59 34 390.18 34 398 C39.28 398.99 44.56 399.98 50 401 C50.66 402.98 51.32 404.96 52 407 C52.69731147 408.64322403 53.41849374 410.2765387 54.1640625 411.8984375 C54.76347656 413.23648438 54.76347656 413.23648438 55.375 414.6015625 C56.20673659 416.44697805 57.04786851 418.28818844 57.8984375 420.125 C60.3823161 425.72179139 61.81311168 429.86939605 61 436 C59.06402986 440.02997866 56.57924351 443.31536641 54 447 C58.95 451.95 63.9 456.9 69 462 C73.30131605 460.27947358 76.75371591 458.38180832 80.62109375 455.92578125 C87.16071115 453.38080699 95.16726064 458.30316946 101.1875 460.8125 C102.27998047 461.25142578 103.37246094 461.69035156 104.49804688 462.14257812 C106.0671582 462.79323242 106.0671582 462.79323242 107.66796875 463.45703125 C109.09532349 464.0444812 109.09532349 464.0444812 110.55151367 464.64379883 C114.43430749 466.79445389 115.71525244 469.02974904 116.94921875 473.234375 C117.6328125 476.48958333 118.31640625 479.74479167 119 483 C126.59 483 134.18 483 142 483 C142.185625 480.56625 142.37125 478.1325 142.5625 475.625 C143.33298471 471.15309582 144.58664066 468.04817655 148.30175781 465.29296875 C157.05157553 460.51529051 167.95094304 455.86049356 178 455 C180.671875 455.828125 180.671875 455.828125 182.75 457.25 C185.7693571 459.24053912 188.59960642 460.73971427 192 462 C194.37432028 459.77048251 196.72050145 457.513408 199.0625 455.25 C199.73861328 454.61578125 200.41472656 453.9815625 201.11132812 453.328125 C201.74619141 452.709375 202.38105469 452.090625 203.03515625 451.453125 C203.6269165 450.88754883 204.21867676 450.32197266 204.82836914 449.73925781 C206.23651467 448.05512761 206.23651467 448.05512761 205.75976562 445.90039062 C204.63012812 443.07484488 202.86258962 440.82320867 201.05859375 438.390625 C198.44484187 432.48798238 200.0016981 427.4557259 202.0546875 421.63671875 C202.97903004 419.31397799 203.91960987 416.9976436 204.875 414.6875 C205.53628906 412.91922852 205.53628906 412.91922852 206.2109375 411.11523438 C209.62912593 402.81188499 209.62912593 402.81188499 213.40332031 400.57666016 C215.96840651 399.78174312 218.33629937 399.32056943 221 399 C223.97 398.505 223.97 398.505 227 398 C227 390.41 227 382.82 227 375 C222.20361669 373.88639606 222.20361669 373.88639606 217.3972168 372.81762695 C214.34620133 372.05722254 212.35988105 371.42735875 210.3125 368.99609375 C209.879375 368.00738281 209.44625 367.01867187 209 366 C208.47466675 364.89748901 208.47466675 364.89748901 207.9387207 363.77270508 C206.68303028 361.11754679 205.49466919 358.4386336 204.3125 355.75 C203.89677734 354.84636719 203.48105469 353.94273437 203.05273438 353.01171875 C200.54738535 347.29343444 198.90790524 342.26952025 200 336 C201.3125 333.15234375 201.3125 333.15234375 203 330.9375 C203.556875 330.18339844 204.11375 329.42929687 204.6875 328.65234375 C205.120625 328.10707031 205.55375 327.56179688 206 327 C204.67879172 324.06769807 203.25361803 322.01335101 200.9609375 319.765625 C200.38085938 319.19199219 199.80078125 318.61835938 199.203125 318.02734375 C198.59984375 317.44082031 197.9965625 316.85429687 197.375 316.25 C196.45847656 315.34701172 196.45847656 315.34701172 195.5234375 314.42578125 C194.02011376 312.94594695 192.51065144 311.47235324 191 310 C190.28714844 310.5053125 189.57429687 311.010625 188.83984375 311.53125 C187.88207031 312.1809375 186.92429688 312.830625 185.9375 313.5 C184.52791016 314.47453125 184.52791016 314.47453125 183.08984375 315.46875 C178.50430978 317.74122701 174.707109 317.53008904 169.8503418 316.02197266 C168.81047119 315.5738623 167.77060059 315.12575195 166.69921875 314.6640625 C165.55775391 314.17679687 164.41628906 313.68953125 163.24023438 313.1875 C162.06783203 312.671875 160.89542969 312.15625 159.6875 311.625 C158.49576172 311.11710937 157.30402344 310.60921875 156.07617188 310.0859375 C147.29714816 306.29714816 147.29714816 306.29714816 145 304 C144.37421431 301.44518685 143.84228045 298.95728209 143.375 296.375 C142.92125 293.94125 142.4675 291.5075 142 289 C134.41 289 126.82 289 119 289 Z M287.625 446.0625 C284.71387591 449.32018649 283.8226421 450.65473156 284 455 C286.24721141 459.2420814 286.24721141 459.2420814 290 462 C294.29322859 462.48602588 296.32082639 462.46241608 299.9375 460 C302.79117716 455.84919686 302.7099846 453.9698922 302 449 C299.88915485 445.70708156 298.35652858 445.11224048 294.625 443.9375 C290.85647955 443.69627463 290.85647955 443.69627463 287.625 446.0625 Z " fill="#000000" transform="translate(61,7)"/>
<path d="M0 0 C18.15622111 16.61838346 28.81434508 36.28121066 30.25878906 61.10424805 C30.49137368 84.54877705 22.57638393 105.96600477 6.29785156 123.04174805 C-12.30890422 140.59042202 -33.33294928 147.78776323 -58.54199219 147.2878418 C-80.60005185 146.47981009 -100.68592253 135.93740154 -115.70214844 120.04174805 C-130.80015344 102.15407197 -138.00290522 80.24841832 -136.48339844 56.9362793 C-134.35849722 33.12471687 -122.53232617 13.6314846 -104.70214844 -1.95825195 C-73.88659659 -24.27296191 -29.46227774 -25.97477481 0 0 Z M-104.88964844 19.29174805 C-117.29090703 33.96823755 -122.66219159 51.54631476 -121.47949219 70.63549805 C-119.27068488 90.02153499 -109.64999864 105.82955831 -94.88964844 118.29174805 C-79.86977553 129.75306645 -62.28912953 133.896069 -43.70214844 132.04174805 C-24.8343107 129.24231384 -9.29460077 118.90939137 2.29785156 104.04174805 C13.77523707 87.30200397 16.20453956 69.25734228 13.87207031 49.4206543 C10.01854042 31.99702527 -1.12431962 17.02398225 -15.70214844 7.04174805 C-45.75400607 -10.98936653 -80.8075828 -6.21774405 -104.88964844 19.29174805 Z " fill="#000000" transform="translate(427.7021484375,145.958251953125)"/>
<path d="M0 0 C10.81533135 10.17057121 18.41902388 24.85195102 19.01953125 39.78515625 C19.40824555 58.58702163 15.14987095 75.16799888 1.78125 89.16015625 C-10.73589443 100.22310301 -24.81839166 106.592905 -41.53125 106.47265625 C-42.36084229 106.4670166 -43.19043457 106.46137695 -44.04516602 106.45556641 C-60.43810917 106.13341693 -74.50204042 99.61337161 -86.21875 88.16015625 C-98.04005595 74.70261977 -103.9138299 59.37741043 -103.15625 41.47265625 C-102.45810903 34.34110867 -100.78080408 27.84073412 -98.21875 21.16015625 C-97.89261719 20.2990625 -97.56648437 19.43796875 -97.23046875 18.55078125 C-91.09809261 4.54666409 -78.01543803 -5.9746859 -64.21875 -11.83984375 C-41.64786443 -19.97076067 -18.43743172 -15.28878581 0 0 Z M-75.21875 13.16015625 C-84.26854742 24.39570983 -88.63583847 35.73193226 -88.1015625 50.37109375 C-87.10999255 58.08105599 -84.00877252 64.43822952 -80.21875 71.16015625 C-73.96137558 68.52627359 -67.64547585 63.0726888 -64.21875 57.16015625 C-63.73197512 53.06453316 -64.11892342 49.71306888 -64.75 45.6484375 C-65.61586675 39.20494574 -63.44546781 34.46094734 -59.65625 29.34765625 C-55.1135585 24.50061569 -48.75243379 22.0386411 -42.15625 21.72265625 C-34.56598089 22.56601948 -28.61454847 24.51339041 -23.21875 30.16015625 C-18.15740911 36.65633209 -18.32314804 44.25669975 -19.21875 52.16015625 C-20.87899641 58.36888838 -24.89882285 62.68727242 -30.21875 66.16015625 C-34.15561602 68.11863091 -37.34374551 68.4038771 -41.71875 68.34765625 C-42.8221875 68.34121094 -43.925625 68.33476562 -45.0625 68.328125 C-48.21875 68.16015625 -48.21875 68.16015625 -50.68041992 67.45068359 C-53.24566905 66.88421198 -53.24566905 66.88421198 -55.16333008 68.42358398 C-55.76556396 69.05723877 -56.36779785 69.69089355 -56.98828125 70.34375 C-57.64892578 71.02373047 -58.30957031 71.70371094 -58.99023438 72.40429688 C-59.66376953 73.12810547 -60.33730469 73.85191406 -61.03125 74.59765625 C-61.72412109 75.31759766 -62.41699219 76.03753906 -63.13085938 76.77929688 C-64.84103291 78.56023621 -66.53570799 80.35361727 -68.21875 82.16015625 C-65.64353956 84.87588381 -63.27847623 86.25129221 -59.84375 87.78515625 C-58.90789062 88.21054687 -57.97203125 88.6359375 -57.0078125 89.07421875 C-46.93164309 92.99743317 -34.94650858 92.25311131 -24.9921875 88.41015625 C-10.82817505 82.02637599 -2.73675283 72.70403515 2.78125 58.16015625 C6.20938067 48.02298457 4.37110717 34.52886471 -0.21875 25.16015625 C-2.29849861 21.58751878 -4.60811266 18.36209179 -7.21875 15.16015625 C-7.71890625 14.52335937 -8.2190625 13.8865625 -8.734375 13.23046875 C-16.20030842 4.7464535 -28.31676213 0.04380946 -39.34375 -1.05078125 C-52.25781663 -1.65036291 -66.39067997 3.62417494 -75.21875 13.16015625 Z M-47.59375 38.22265625 C-50.50487409 41.48034274 -51.3961079 42.81488781 -51.21875 47.16015625 C-48.97153859 51.40223765 -48.97153859 51.40223765 -45.21875 54.16015625 C-40.88547826 54.65071532 -38.89874656 54.63760064 -35.28125 52.09765625 C-32.68547891 48.40064895 -32.50621412 46.59371283 -33.21875 42.16015625 C-35.25613665 38.41136482 -36.53384801 37.38845691 -40.59375 36.03515625 C-44.36174705 35.86764449 -44.36174705 35.86764449 -47.59375 38.22265625 Z " fill="#000000" transform="translate(233.21875,347.83984375)"/>
<path d="M0 0 C0.80752213 -0.0066568 1.61504425 -0.0133136 2.44703674 -0.02017212 C4.15420251 -0.03029266 5.86140778 -0.03498932 7.56860352 -0.03466797 C10.17856078 -0.03904098 12.78682636 -0.07536377 15.39648438 -0.11328125 C17.0559838 -0.11914963 18.71549126 -0.12311888 20.375 -0.125 C21.54391029 -0.14655655 21.54391029 -0.14655655 22.73643494 -0.16854858 C26.2596487 -0.13888279 28.34996523 0.04413628 31.24267578 2.13378906 C33.06963758 4.79601773 33.37000481 6.92869109 33.20263672 10.13769531 C32.34960453 14.31653198 30.09742566 17.66337662 27.81640625 21.2109375 C27.34783203 21.96890625 26.87925781 22.726875 26.39648438 23.5078125 C25.53435891 24.90209886 24.66482272 26.29185119 23.78540039 27.67529297 C22.7029779 29.3610931 22.7029779 29.3610931 21.75390625 31.3359375 C22.76759277 31.35781128 22.76759277 31.35781128 23.80175781 31.38012695 C26.86971147 31.45469161 29.93658701 31.55132405 33.00390625 31.6484375 C34.06738281 31.67099609 35.13085938 31.69355469 36.2265625 31.71679688 C37.25136719 31.75224609 38.27617187 31.78769531 39.33203125 31.82421875 C40.2746582 31.85040283 41.21728516 31.87658691 42.18847656 31.90356445 C45.18132928 32.40797463 46.57482827 33.24811846 48.75390625 35.3359375 C49.84398337 38.67884066 50.19371995 40.44573038 48.6171875 43.63671875 C46.34232698 46.93216659 43.75784324 49.75117293 41.00390625 52.6484375 C39.91458456 53.81046719 38.82603791 54.97322393 37.73828125 56.13671875 C37.21814453 56.69182129 36.69800781 57.24692383 36.16210938 57.81884766 C34.48605863 59.62449595 32.86175001 61.46940601 31.25390625 63.3359375 C27.69707587 67.44798043 23.99806941 71.4236337 20.3034668 75.41137695 C15.7378024 80.34258008 11.23638299 85.32900279 6.75390625 90.3359375 C1.42399015 96.28047455 -3.94023227 102.19024474 -9.35083008 108.0612793 C-11.89776533 110.83394399 -14.3868453 113.64096617 -16.80859375 116.5234375 C-19.72575618 119.88939415 -20.24701755 120.22492903 -24.62109375 120.7109375 C-28.24609375 120.3359375 -28.24609375 120.3359375 -30.74609375 118.2734375 C-32.90656037 114.04252371 -31.95899829 110.77276759 -30.64620972 106.28543091 C-29.90103258 104.02918493 -29.11168401 101.79346191 -28.3046875 99.55859375 C-28.01755386 98.74724472 -27.73042023 97.93589569 -27.43458557 97.09996033 C-26.52370974 94.53056167 -25.60381293 91.96450276 -24.68359375 89.3984375 C-24.06124832 87.64799989 -23.43949736 85.89735081 -22.81835938 84.14648438 C-21.30113651 79.87382508 -19.77581949 75.60413556 -18.24609375 71.3359375 C-19.2064856 71.37521362 -19.2064856 71.37521362 -20.1862793 71.4152832 C-23.10179877 71.51955031 -26.01692573 71.58435503 -28.93359375 71.6484375 C-29.94099609 71.69033203 -30.94839844 71.73222656 -31.98632812 71.77539062 C-36.73593685 71.85376701 -39.43623496 71.85165403 -43.515625 69.25390625 C-45.25946135 66.31339665 -45.82819726 64.79400978 -45.05175781 61.44775391 C-43.16610599 56.50506049 -40.33602461 52.04438465 -37.62109375 47.5234375 C-36.60719463 45.80254194 -35.59331471 44.08163472 -34.58056641 42.36006165 C-33.52351168 40.56617596 -32.46166578 38.77518719 -31.39941406 36.984375 C-27.8754462 31.03001561 -24.44282703 25.02269235 -20.99609375 19.0234375 C-19.76248127 16.88107117 -18.52815912 14.73911324 -17.29296875 12.59765625 C-16.77573242 11.70006592 -16.25849609 10.80247559 -15.72558594 9.87768555 C-15.23735352 9.03890869 -14.74912109 8.20013184 -14.24609375 7.3359375 C-13.75012695 6.44366455 -13.25416016 5.5513916 -12.74316406 4.63208008 C-9.46786927 -0.39142734 -5.4325053 0.01547533 0 0 Z M-1.24609375 15.3359375 C-2.06851563 16.79902344 -2.8909375 18.26210937 -3.73828125 19.76953125 C-9.5143269 30.02628809 -15.30714333 40.26578611 -21.34912109 50.36889648 C-23.35096352 53.17555398 -23.35096352 53.17555398 -24.24609375 56.3359375 C-23.66118164 56.3452832 -23.07626953 56.35462891 -22.47363281 56.36425781 C-19.81360795 56.41807029 -17.15532153 56.50169199 -14.49609375 56.5859375 C-13.57570313 56.60011719 -12.6553125 56.61429688 -11.70703125 56.62890625 C-4.9245173 56.87464951 -4.9245173 56.87464951 -1.59765625 59.13671875 C0.16382786 62.00294868 -0.16715473 64.13052922 -0.74609375 67.375 C-1.3619407 69.79027475 -2.32158798 72.02467308 -3.24609375 74.3359375 C-2.91609375 75.3259375 -2.58609375 76.3159375 -2.24609375 77.3359375 C2.2556301 72.93944875 6.58238105 68.47072794 10.6796875 63.6953125 C13.98537485 59.93517096 17.4156906 56.2894014 20.84277344 52.63989258 C23.52341827 50.32546678 23.52341827 50.32546678 24.75390625 47.3359375 C24.16899414 47.3265918 23.58408203 47.31724609 22.98144531 47.30761719 C20.32142045 47.25380471 17.66313403 47.17018301 15.00390625 47.0859375 C14.08351563 47.07175781 13.163125 47.05757812 12.21484375 47.04296875 C8.23724461 46.89885284 5.51057474 46.78643955 2.05078125 44.7265625 C0.59781798 42.04820852 0.41285373 40.35579558 1.04248047 37.37402344 C2.53646 33.09408482 4.95881089 29.3107936 7.31640625 25.4609375 C8.3400588 23.75611838 9.3622777 22.05043729 10.3828125 20.34375 C10.8372876 19.59754395 11.2917627 18.85133789 11.76000977 18.08251953 C12.83633645 16.5260109 12.83633645 16.5260109 12.75390625 15.3359375 C8.13390625 15.3359375 3.51390625 15.3359375 -1.24609375 15.3359375 Z M-4.24609375 77.3359375 C-3.24609375 79.3359375 -3.24609375 79.3359375 -3.24609375 79.3359375 Z " fill="#000000" transform="translate(372.24609375,149.6640625)"/>
<path d="M0 0 C0.72421646 -0.00700928 1.44843292 -0.01401855 2.19459534 -0.02124023 C4.57869275 -0.03878626 6.96159451 -0.02721062 9.34570312 -0.01367188 C11.00809964 -0.01636779 12.67049461 -0.02025104 14.33288574 -0.02526855 C17.81305997 -0.03115897 21.29282289 -0.02261569 24.77294922 -0.00390625 C29.2286325 0.01888341 33.683352 0.00575782 38.13899994 -0.01819611 C41.57060985 -0.03266666 45.00199215 -0.02804241 48.43360901 -0.01768494 C50.07621882 -0.01502111 51.71884945 -0.01827533 53.36143494 -0.02760315 C55.65948026 -0.03778998 57.95597603 -0.02224035 60.25390625 0 C62.21318054 0.00477356 62.21318054 0.00477356 64.21203613 0.00964355 C68.32329976 0.62115269 69.95121684 1.32703402 72.62695312 4.51757812 C73.13123709 7.44123743 73.31214848 9.78735725 73.27392578 12.7109375 C73.28268738 13.53414993 73.29144897 14.35736237 73.30047607 15.20552063 C73.32246957 17.92466048 73.30791825 20.64217197 73.29101562 23.36132812 C73.29438379 25.25175285 73.29923641 27.14217546 73.30551147 29.03259277 C73.31288272 32.99378078 73.30216927 36.9544049 73.27880859 40.91552734 C73.25032058 45.99361807 73.26672322 51.07038762 73.29667091 56.14842987 C73.31473715 60.05183877 73.30898898 63.95493433 73.29603195 67.85835266 C73.29269607 69.73065853 73.29679143 71.60299283 73.30842972 73.4752655 C73.32112759 76.09234988 73.30177818 78.70729388 73.27392578 81.32421875 C73.28404694 82.09836624 73.29416809 82.87251373 73.30459595 83.67012024 C73.23284098 87.30858378 72.91162762 89.17769904 70.54832458 91.9992981 C66.88381692 93.90379702 64.36512515 94.01240236 60.23803711 94.00341797 C59.51221436 94.00721466 58.7863916 94.01101135 58.03857422 94.0149231 C55.64961947 94.02230688 53.26189271 94.00098022 50.87304688 93.97851562 C49.20825849 93.97613 47.54346738 93.97522613 45.87867737 93.97573853 C42.39428792 93.97261438 38.91031106 93.95607777 35.42602539 93.92919922 C30.96149587 93.89519345 26.4974188 93.88757164 22.03277493 93.88908958 C18.59694608 93.88854559 15.16121598 93.87757422 11.72542 93.8630867 C10.07920135 93.8567267 8.43297153 93.85278167 6.78674126 93.85129929 C4.4864587 93.84695922 2.18665426 93.82944431 -0.11352539 93.80810547 C-1.42192886 93.80048187 -2.73033234 93.79285828 -4.0783844 93.78500366 C-7.14323265 93.53623199 -8.86594711 93.24246505 -11.37304688 91.51757812 C-12.94495188 88.37376812 -12.54709082 85.00444929 -12.56591797 81.55126953 C-12.57409546 80.72834915 -12.58227295 79.90542877 -12.59069824 79.05757141 C-12.61555793 76.32810194 -12.63206823 73.59868442 -12.64648438 70.86914062 C-12.65180805 69.93819958 -12.65713173 69.00725853 -12.66261673 68.04810715 C-12.68934872 63.12224907 -12.70872488 58.19641637 -12.72314453 53.27050781 C-12.73980749 48.17682566 -12.78459872 43.08378862 -12.83551598 37.99035072 C-12.86912907 34.07845291 -12.88071533 30.16670948 -12.88637161 26.25468063 C-12.8930988 24.37674393 -12.90835883 22.49881789 -12.93226242 20.62102127 C-12.96379518 17.99436668 -12.9639693 15.36946904 -12.95654297 12.74267578 C-12.9729483 11.9653862 -12.98935364 11.18809662 -13.0062561 10.38725281 C-12.96394183 6.73590511 -12.6678225 4.87002168 -10.2973938 2.03585815 C-6.64156979 0.13780545 -4.11672286 0.01002995 0 0 Z M2.62695312 15.51757812 C2.62695312 36.30757813 2.62695312 57.09757813 2.62695312 78.51757812 C20.77695313 78.51757812 38.92695313 78.51757812 57.62695312 78.51757812 C57.62695312 57.72757812 57.62695312 36.93757812 57.62695312 15.51757812 C39.47695312 15.51757812 21.32695312 15.51757812 2.62695312 15.51757812 Z " fill="#000000" transform="translate(79.373046875,61.482421875)"/>
</svg>
