
<!-- Generator: visioncortex VTracer 0.6.4 -->
<svg version="1.1" xmlns="http://www.w3.org/2000/svg" viewBox="0 0 512 512" preserveAspectRatio="xMidYMid meet">
<path d="M0 0 C6.983 4.161 12.058 10.199 14.438 18 C16.222 27.035 15.039 34.169 10.688 42.25 C6.092 47.867 1.332 51.658 -5.562 54 C-6.882 54 -8.202 54 -9.562 54 C-9.562 77.43 -9.562 100.86 -9.562 125 C-6.262 125 -2.962 125 0.438 125 C3.277 125.343 6.011 125.729 8.812 126.25 C9.478 126.36 10.143 126.469 10.828 126.582 C17.24 127.731 23.301 129.85 29.438 132 C29.401 130.891 29.364 129.782 29.326 128.639 C29.199 124.494 29.119 120.35 29.053 116.204 C29.018 114.415 28.97 112.627 28.909 110.839 C28.353 94.054 28.353 94.054 32.59 89.168 C33.84 88.074 35.122 87.015 36.438 86 C37.495 84.939 38.538 83.863 39.562 82.77 C41.016 81.271 42.471 79.78 43.957 78.314 C45.577 76.686 45.577 76.686 47.438 74 C47.448 71.427 47.448 71.427 46.438 69 C44.204 59.489 43.904 52.791 49.062 44.25 C52.898 38.873 57.89 35.237 64.438 34 C72.898 33.132 79.407 34.049 86.438 39 C92.542 44.201 94.972 50.657 95.812 58.5 C94.961 66.448 92.194 73.32 86.438 79 C79.462 83.571 72.683 84.703 64.438 84 C62.301 83.293 62.301 83.293 60.5 82.438 C57.161 80.87 56.719 80.839 53.438 82 C47.095 85.726 42.274 90.095 39.438 97 C36.905 109.612 37.939 123.218 38.438 136 C39.362 136.297 40.286 136.594 41.238 136.9 C50.878 140.213 59.457 146.414 67.262 152.85 C70.417 155.496 70.417 155.496 74.438 156 C76.625 154.062 76.625 154.062 78.438 152 C78.233 151.408 78.028 150.817 77.816 150.207 C74.186 139.56 72.986 130.63 77.438 120 C81.289 112.831 87.606 107.944 95.336 105.367 C104.567 103.754 112.615 104.45 120.805 109.102 C127.631 114.024 131.872 120.742 133.438 129 C134.521 137.333 132.574 144.938 128.152 152.074 C123.872 157.57 117.978 160.82 111.438 163 C103.455 163.584 96.316 163.932 89.27 159.68 C87.393 158.76 87.393 158.76 85.324 159.758 C83.31 160.993 83.31 160.993 81.438 163 C81.742 166.589 83.405 168.265 85.875 170.75 C93.362 178.909 106.438 195.576 106.438 207 C129.817 209.223 129.817 209.223 150.383 200.809 C155.696 195.313 155.696 195.313 157.328 188.223 C157.034 187.489 156.74 186.756 156.438 186 C153.333 176.322 153.861 169.072 158.438 160 C162.421 154.407 167.786 150.698 174.438 149 C184.221 147.823 190.952 149.634 199.188 154.688 C205.643 161.323 207.806 168.813 207.719 177.859 C207.077 185.026 203.6 191.061 198.438 196 C189.657 201.596 182.696 202.768 172.637 200.668 C170.438 200 170.438 200 167.438 198 C165.375 198.027 165.375 198.027 163.438 199 C161.917 200.689 161.917 200.689 160.594 202.816 C151.69 214.771 151.69 214.771 144.371 216.483 C133.207 218.055 121.617 216.994 110.438 216 C110.853 217.593 110.853 217.593 111.277 219.219 C111.643 220.646 112.009 222.073 112.375 223.5 C112.557 224.196 112.74 224.892 112.928 225.609 C115.031 233.871 115.438 241.382 115.438 250 C138.868 250 162.298 250 186.438 250 C186.767 247.69 187.098 245.38 187.438 243 C190.494 235.813 195.986 230.925 202.688 227.188 C211.321 224.454 219.104 224.214 227.438 228 C234.592 231.992 239.837 238.198 242.438 246 C243.192 255.5 243.487 264.081 237.438 272 C230.953 279.136 223.891 282.42 214.281 283.066 C206.461 282.884 199.425 279.929 193.848 274.434 C189.329 269.495 186.438 264.876 186.438 258 C163.007 258 139.577 258 115.438 258 C115.438 261.3 115.438 264.6 115.438 268 C115.094 270.82 114.712 273.532 114.188 276.312 C114.056 277.034 113.925 277.755 113.79 278.498 C112.405 285.753 110.753 293.369 107.438 300 C108.476 299.979 109.514 299.958 110.583 299.937 C114.479 299.863 118.374 299.818 122.269 299.78 C123.947 299.76 125.625 299.733 127.302 299.698 C139.224 299.457 148.71 299.359 157.914 307.891 C159.313 309.329 160.696 310.782 162.062 312.25 C162.781 312.995 163.499 313.74 164.238 314.508 C165.986 316.325 167.718 318.156 169.438 320 C170.342 319.584 170.342 319.584 171.266 319.16 C172.065 318.798 172.864 318.436 173.688 318.062 C174.476 317.703 175.265 317.343 176.078 316.973 C182.878 314.169 189.289 314.395 196.164 316.895 C202.872 320.157 207.348 325.327 210.438 332 C212.598 339.203 211.69 346.312 208.438 353 C204.194 359.207 199.223 363.564 191.938 365.75 C184.26 366.518 177.706 365.919 171.227 361.488 C165.584 356.821 161.192 351.549 160.438 344 C160.245 340.732 160.169 337.869 161.142 334.721 C162.703 329.687 162.703 329.687 161.276 324.816 C159.427 322.698 157.488 320.854 155.375 319 C154.692 318.346 154.01 317.693 153.307 317.02 C146.842 310.984 142.116 309.696 133.418 309.805 C132.13 309.809 132.13 309.809 130.816 309.813 C128.086 309.824 125.355 309.85 122.625 309.875 C120.769 309.885 118.913 309.894 117.057 309.902 C112.517 309.924 107.977 309.959 103.438 310 C102.979 310.871 102.521 311.742 102.049 312.639 C101.436 313.794 100.823 314.948 100.191 316.137 C99.589 317.276 98.986 318.415 98.365 319.589 C95.469 324.713 92.012 329.335 88.438 334 C87.27 335.562 86.103 337.124 84.938 338.688 C84.113 339.781 83.288 340.874 82.438 342 C86.397 345.96 90.358 349.92 94.438 354 C95.84 353.505 97.243 353.01 98.688 352.5 C107.429 349.92 115.813 349.847 124.184 353.676 C131.264 357.835 135.673 364.143 138.023 371.945 C139.467 379.109 138.835 386.501 135.438 393 C130.292 400.334 124.904 404.178 116.438 407 C106.935 407.882 99.845 406.196 91.688 401.375 C84.445 393.73 82.049 386.064 82.07 375.742 C82.629 370.046 84.731 366.008 87.438 361 C83.478 357.04 79.517 353.08 75.438 349 C70.258 352.807 70.258 352.807 65.277 356.863 C59.105 362.146 46.969 372 38.438 372 C38.352 378.672 38.337 385.341 38.37 392.013 C38.373 394.28 38.361 396.547 38.331 398.813 C37.718 411.558 37.718 411.558 41.387 423.401 C43.624 425.625 45.813 427.27 48.438 429 C49.669 430.314 50.862 431.667 52 433.062 C53.207 434.517 53.207 434.517 54.438 436 C55.654 435.505 56.871 435.01 58.125 434.5 C66.022 431.917 74.224 431.571 81.875 435.062 C88.827 439.092 92.775 444.083 94.969 451.812 C96.527 459.083 94.887 465.579 91.336 471.988 C87.442 477.854 82.341 481.407 75.438 483 C66.255 483.881 58.637 481.919 51.438 476 C46.698 470.46 44.807 464.225 44.438 457 C44.9 453.064 45.998 449.398 47.184 445.627 C47.713 442.962 47.713 442.962 46.114 440.919 C45.451 440.253 44.788 439.586 44.105 438.898 C43.389 438.161 42.673 437.424 41.936 436.664 C41.173 435.909 40.411 435.153 39.625 434.375 C38.138 432.864 36.652 431.351 35.168 429.836 C34.502 429.171 33.836 428.507 33.149 427.822 C30.142 424.621 29.187 422.65 29.21 418.345 C29.211 417.404 29.211 416.463 29.211 415.494 C29.221 414.482 29.232 413.469 29.242 412.426 C29.246 410.867 29.246 410.867 29.251 409.277 C29.262 405.956 29.287 402.634 29.312 399.312 C29.323 397.062 29.332 394.811 29.34 392.561 C29.362 387.04 29.395 381.52 29.438 376 C28.362 376.346 27.287 376.691 26.179 377.048 C24.742 377.505 23.305 377.961 21.867 378.418 C21.162 378.645 20.456 378.873 19.729 379.107 C9.85 382.233 0.839 383 -9.562 383 C-9.562 406.43 -9.562 429.86 -9.562 454 C-7.252 454.33 -4.942 454.66 -2.562 455 C4.624 458.057 9.513 463.549 13.25 470.25 C15.984 478.883 16.223 486.666 12.438 495 C8.446 502.155 2.24 507.399 -5.562 510 C-15.062 510.755 -23.643 511.049 -31.562 505 C-38.455 498.736 -41.896 491.854 -42.559 482.547 C-42.571 474.189 -39.664 467.327 -33.926 461.273 C-29.047 456.822 -24.325 454 -17.562 454 C-17.562 430.57 -17.562 407.14 -17.562 383 C-20.532 383 -23.502 383 -26.562 383 C-29.536 382.651 -32.432 382.255 -35.375 381.75 C-36.092 381.64 -36.81 381.531 -37.549 381.418 C-44.122 380.32 -50.29 378.217 -56.562 376 C-56.547 376.571 -56.531 377.142 -56.515 377.73 C-56.36 383.7 -56.255 389.67 -56.178 395.641 C-56.143 397.866 -56.095 400.091 -56.034 402.316 C-55.949 405.524 -55.91 408.729 -55.879 411.938 C-55.843 412.924 -55.807 413.911 -55.769 414.928 C-55.766 420.299 -56.336 423.365 -59.91 427.49 C-61.106 428.682 -62.323 429.853 -63.562 431 C-64.609 432.072 -65.652 433.148 -66.688 434.23 C-68.141 435.729 -69.596 437.22 -71.082 438.686 C-72.702 440.314 -72.702 440.314 -74.562 443 C-74.573 445.573 -74.573 445.573 -73.562 448 C-71.415 457.146 -71.035 463.897 -75.75 472.25 C-79.574 477.896 -84.868 481.584 -91.562 483 C-100.606 483.917 -106.682 481.995 -114.312 477.312 C-119.784 471.689 -122.33 465.595 -122.691 457.77 C-122.365 450.767 -120.329 444.631 -115.406 439.539 C-108.741 433.976 -102.522 432.444 -93.934 432.531 C-90.999 432.939 -88.635 433.575 -85.852 434.529 C-84.644 434.941 -84.644 434.941 -83.413 435.36 C-82.802 435.571 -82.192 435.782 -81.562 436 C-74.183 430.158 -66.769 423.872 -65.231 414.18 C-64.692 407.779 -64.888 401.411 -65.125 395 C-65.152 392.76 -65.172 390.521 -65.186 388.281 C-65.232 382.851 -65.363 377.427 -65.562 372 C-66.967 371.543 -66.967 371.543 -68.4 371.077 C-81.006 366.785 -91.867 357.89 -101.562 349 C-106.443 352.942 -110.621 357.12 -114.562 362 C-114.202 362.559 -113.841 363.119 -113.469 363.695 C-109.215 371.046 -108.36 377.604 -109.562 386 C-112.634 395.439 -118.868 401.506 -127.562 406 C-134.082 408.142 -141.972 408.018 -148.312 405.438 C-155.99 401.466 -161.575 396.187 -164.562 388 C-166.828 380.428 -166.288 371.989 -162.562 365 C-157.578 357.881 -152.221 352.787 -143.562 351 C-135.612 350.105 -129.056 351.355 -121.562 354 C-117.602 350.04 -113.643 346.08 -109.562 342 C-110.387 340.907 -111.213 339.814 -112.062 338.688 C-112.61 337.953 -113.158 337.218 -113.723 336.461 C-114.97 334.792 -116.229 333.131 -117.496 331.477 C-121.205 326.546 -124.429 321.596 -127.316 316.137 C-128.236 314.406 -128.236 314.406 -129.174 312.639 C-129.632 311.768 -130.09 310.897 -130.562 310 C-136.007 309.926 -141.451 309.871 -146.896 309.835 C-148.746 309.82 -150.597 309.8 -152.447 309.774 C-155.113 309.737 -157.779 309.72 -160.445 309.707 C-161.267 309.692 -162.09 309.676 -162.937 309.66 C-171.818 309.658 -176.875 313.68 -183.062 319.625 C-184.049 320.493 -184.049 320.493 -185.055 321.379 C-186.932 323.189 -188.343 324.691 -189.562 327 C-189.528 329.533 -189.058 331.502 -188.259 333.9 C-186.132 340.312 -187.64 347.082 -190.562 353 C-194.813 359.205 -199.773 363.563 -207.062 365.75 C-214.74 366.518 -221.294 365.919 -227.773 361.488 C-233.416 356.821 -237.808 351.549 -238.562 344 C-239.168 336.132 -237.339 329.765 -232.312 323.688 C-226.818 317.869 -221.352 315.479 -213.438 314.688 C-208.868 315.056 -205.245 316.424 -201.016 318.125 C-198.526 319.168 -198.526 319.168 -195.562 319 C-193.917 317.672 -193.917 317.672 -192.34 315.859 C-191.718 315.201 -191.096 314.542 -190.455 313.863 C-189.172 312.476 -187.896 311.083 -186.627 309.684 C-179.949 302.658 -173.752 299.913 -164.093 299.634 C-160.039 299.592 -155.991 299.666 -151.938 299.75 C-150.249 299.77 -148.56 299.788 -146.871 299.805 C-142.768 299.848 -138.665 299.917 -134.562 300 C-134.832 299.289 -135.101 298.579 -135.378 297.846 C-140.274 284.7 -142.562 272.015 -142.562 258 C-165.993 258 -189.423 258 -213.562 258 C-213.892 260.31 -214.222 262.62 -214.562 265 C-217.619 272.187 -223.111 277.075 -229.812 280.812 C-238.446 283.546 -246.229 283.786 -254.562 280 C-261.717 276.008 -266.962 269.802 -269.562 262 C-270.317 252.5 -270.612 243.919 -264.562 236 C-258.078 228.864 -251.016 225.58 -241.406 224.934 C-233.586 225.116 -226.55 228.071 -220.973 233.566 C-216.454 238.505 -213.562 243.124 -213.562 250 C-190.132 250 -166.702 250 -142.562 250 C-142.562 246.7 -142.562 243.4 -142.562 240 C-142.173 236.878 -141.741 233.839 -141.188 230.75 C-141.061 229.987 -140.935 229.224 -140.805 228.438 C-140.061 224.125 -138.996 220.147 -137.562 216 C-138.732 216.037 -139.902 216.073 -141.107 216.111 C-145.476 216.238 -149.843 216.318 -154.213 216.385 C-156.099 216.42 -157.984 216.467 -159.869 216.528 C-177.571 217.085 -177.571 217.085 -182.469 212.844 C-183.54 211.596 -184.575 210.315 -185.562 209 C-186.61 207.955 -187.672 206.924 -188.75 205.91 C-189.69 204.964 -190.628 204.014 -191.562 203.062 C-192.051 202.569 -192.54 202.076 -193.043 201.568 C-194.219 200.381 -195.391 199.191 -196.562 198 C-197.398 198.307 -197.398 198.307 -198.25 198.621 C-207.915 202.033 -216.345 203.335 -225.988 198.879 C-232.54 194.992 -236.894 189.281 -239.199 181.984 C-240.654 174.04 -239.556 167.03 -235.562 160 C-231.468 154.452 -226.263 150.71 -219.562 149 C-210.403 147.898 -203.027 148.904 -195.598 154.473 C-190.127 159.365 -187.186 165.317 -186.219 172.582 C-186.06 176.899 -186.519 180.359 -188.125 184.375 C-189.711 188.303 -189.711 188.303 -188.562 192 C-184.838 198.037 -178.987 204.574 -172.122 206.786 C-165.834 207.886 -159.539 207.621 -153.188 207.375 C-151.276 207.353 -149.365 207.337 -147.453 207.328 C-142.819 207.292 -138.194 207.17 -133.562 207 C-133.368 206.396 -133.174 205.792 -132.973 205.169 C-132.712 204.369 -132.451 203.569 -132.182 202.745 C-131.926 201.955 -131.669 201.165 -131.405 200.352 C-130.124 196.775 -128.386 193.539 -126.5 190.25 C-126.115 189.57 -125.73 188.891 -125.334 188.191 C-121.332 181.305 -116.54 175.201 -111.562 169 C-110.903 168.01 -110.243 167.02 -109.562 166 C-112.202 163.36 -114.843 160.72 -117.562 158 C-119.068 158.825 -120.574 159.65 -122.125 160.5 C-130.24 164.14 -138.419 164.582 -146.941 161.961 C-154.881 158.403 -160.191 153.503 -163.648 145.48 C-166.555 136.799 -166.189 129.415 -162.562 121 C-158.851 114.126 -152.557 107.803 -144.945 105.445 C-135.443 103.669 -127.56 104.419 -119.125 109.242 C-111.884 114.21 -108.605 120.509 -106.562 129 C-105.427 137.201 -107.422 143.444 -110.562 151 C-107.923 153.64 -105.282 156.28 -102.562 159 C-101.428 158.154 -100.294 157.309 -99.125 156.438 C-98.386 155.887 -97.648 155.337 -96.887 154.77 C-95.411 153.646 -93.953 152.5 -92.52 151.324 C-88.032 147.662 -83.385 144.572 -78.375 141.688 C-77.793 141.35 -77.211 141.012 -76.611 140.665 C-73.017 138.643 -69.479 137.254 -65.562 136 C-65.532 130.573 -65.548 125.149 -65.605 119.722 C-65.618 117.878 -65.619 116.034 -65.607 114.191 C-65.592 111.531 -65.622 108.874 -65.66 106.215 C-65.639 104.989 -65.639 104.989 -65.617 103.739 C-65.737 98.925 -66.54 96.524 -69.989 93.074 C-71.173 92.041 -72.364 91.015 -73.562 90 C-75.381 87.898 -77.139 85.762 -78.887 83.602 C-80.813 81.761 -81.922 81.244 -84.562 81 C-85.573 81.474 -86.584 81.949 -87.625 82.438 C-93.178 85.006 -99.277 84.989 -105.094 83.238 C-112.247 80.222 -116.948 76.501 -120.547 69.555 C-123.363 62.47 -123.156 55.415 -120.625 48.285 C-117.563 41.699 -112.905 37.873 -106.344 34.879 C-99.442 32.698 -91.917 33.063 -85.301 36.035 C-78.876 39.601 -75.322 44.245 -72.562 51 C-70.652 58.194 -72.182 64.577 -74.352 71.527 C-74.838 74.064 -74.838 74.064 -73.156 75.957 C-72.465 76.569 -71.774 77.182 -71.062 77.812 C-67.488 81.118 -64.265 84.538 -61.105 88.238 C-59.629 90.006 -59.629 90.006 -57.987 91.365 C-55.464 94.261 -56.202 98.163 -56.27 101.824 C-56.274 102.686 -56.278 103.547 -56.282 104.435 C-56.299 107.186 -56.337 109.936 -56.375 112.688 C-56.39 114.553 -56.404 116.418 -56.416 118.283 C-56.449 122.856 -56.501 127.428 -56.562 132 C-54.95 131.481 -54.95 131.481 -53.304 130.952 C-51.867 130.495 -50.43 130.039 -48.992 129.582 C-48.287 129.355 -47.581 129.127 -46.854 128.893 C-36.975 125.767 -27.964 125 -17.562 125 C-17.562 101.57 -17.562 78.14 -17.562 54 C-19.873 53.67 -22.183 53.34 -24.562 53 C-31.763 49.938 -36.683 44.435 -40.375 37.688 C-43.134 29.121 -43.506 20.81 -39.371 12.648 C-31.053 -0.905 -14.862 -6.791 0 0 Z " fill="#000000" transform="translate(269.5625,2)"/>
<path d="M0 0 C0.766 0.663 1.531 1.325 2.32 2.008 C3.127 2.67 3.934 3.333 4.766 4.016 C26.095 22.135 41.139 50.911 44.157 78.75 C46.738 114.42 37.608 146.394 14.848 174.008 C-4.96 196.61 -34.419 212.78 -64.68 215.008 C-100.782 216.685 -132.13 207.05 -159.492 183.07 C-182.126 161.76 -196.854 131.686 -197.898 100.465 C-198.638 65.533 -187.315 34.109 -163.227 8.523 C-119.513 -34.654 -47.723 -40.163 0 0 Z " fill="#3887C8" transform="translate(332.6796875,161.9921875)"/>
<path d="M0 0 C0.766 0.663 1.531 1.325 2.32 2.008 C3.127 2.67 3.934 3.333 4.766 4.016 C26.095 22.135 41.139 50.911 44.157 78.75 C46.738 114.42 37.608 146.394 14.848 174.008 C-4.96 196.61 -34.419 212.78 -64.68 215.008 C-100.782 216.685 -132.13 207.05 -159.492 183.07 C-182.126 161.76 -196.854 131.686 -197.898 100.465 C-198.638 65.533 -187.315 34.109 -163.227 8.523 C-119.513 -34.654 -47.723 -40.163 0 0 Z M-95.638 -9.72 C-96.899 -7.629 -97.028 -6.413 -96.973 -3.98 C-96.963 -3.223 -96.953 -2.466 -96.943 -1.686 C-96.918 -0.9 -96.893 -0.114 -96.867 0.695 C-96.854 1.493 -96.84 2.29 -96.826 3.111 C-96.791 5.077 -96.737 7.043 -96.68 9.008 C-97.917 9.235 -99.155 9.462 -100.43 9.695 C-107.537 11.263 -114.616 13.966 -120.68 18.008 C-123.664 17.868 -124.658 17.028 -126.828 14.941 C-128.311 13.278 -129.791 11.612 -131.266 9.941 C-133.538 7.79 -133.538 7.79 -136.479 7.586 C-140.772 8.152 -142.244 9.797 -145.297 12.828 C-145.799 13.324 -146.301 13.821 -146.818 14.332 C-147.872 15.382 -148.919 16.44 -149.959 17.505 C-151.55 19.128 -153.171 20.717 -154.797 22.305 C-155.82 23.331 -156.841 24.36 -157.859 25.391 C-159.247 26.789 -159.247 26.789 -160.664 28.215 C-163.033 31.497 -163.299 33.048 -162.68 37.008 C-160.482 39.743 -160.482 39.743 -157.617 42.133 C-154.77 44.641 -154.77 44.641 -152.68 47.008 C-152.723 48.988 -152.723 48.988 -153.68 51.008 C-154.038 51.826 -154.396 52.645 -154.766 53.488 C-155.191 54.382 -155.616 55.275 -156.055 56.195 C-160.169 64.768 -160.169 64.768 -161.68 74.008 C-162.956 73.973 -164.232 73.938 -165.547 73.902 C-167.216 73.874 -168.885 73.847 -170.555 73.82 C-171.396 73.795 -172.238 73.77 -173.105 73.744 C-173.911 73.734 -174.717 73.725 -175.547 73.715 C-176.291 73.699 -177.034 73.683 -177.8 73.667 C-178.42 73.78 -179.041 73.892 -179.68 74.008 C-182.117 77.664 -181.969 80.406 -181.945 84.633 C-181.947 85.376 -181.949 86.119 -181.951 86.885 C-181.952 88.455 -181.949 90.026 -181.94 91.596 C-181.93 93.999 -181.94 96.401 -181.953 98.805 C-181.952 100.331 -181.949 101.857 -181.945 103.383 C-181.949 104.102 -181.953 104.82 -181.958 105.561 C-181.923 109.261 -181.788 110.845 -179.68 114.008 C-177.749 114.422 -177.749 114.422 -175.547 114.301 C-174.741 114.291 -173.936 114.281 -173.105 114.271 C-172.264 114.246 -171.422 114.221 -170.555 114.195 C-169.705 114.182 -168.856 114.168 -167.98 114.154 C-165.88 114.119 -163.78 114.065 -161.68 114.008 C-161.453 115.245 -161.226 116.483 -160.992 117.758 C-159.424 124.865 -156.722 131.944 -152.68 138.008 C-152.82 140.992 -153.659 141.986 -155.746 144.156 C-157.409 145.64 -159.076 147.119 -160.746 148.594 C-162.898 150.866 -162.898 150.866 -163.102 153.808 C-162.536 158.1 -160.89 159.572 -157.859 162.625 C-157.115 163.378 -157.115 163.378 -156.355 164.146 C-155.305 165.201 -154.247 166.247 -153.183 167.287 C-151.559 168.878 -149.971 170.499 -148.383 172.125 C-147.356 173.148 -146.327 174.169 -145.297 175.188 C-144.365 176.113 -143.433 177.038 -142.472 177.992 C-139.191 180.361 -137.64 180.627 -133.68 180.008 C-130.944 177.811 -130.944 177.811 -128.555 174.945 C-126.047 172.098 -126.047 172.098 -123.68 170.008 C-121.699 170.051 -121.699 170.051 -119.68 171.008 C-118.861 171.366 -118.043 171.725 -117.199 172.094 C-116.306 172.519 -115.413 172.945 -114.492 173.383 C-105.919 177.497 -105.919 177.497 -96.68 179.008 C-96.714 180.2 -96.749 181.393 -96.785 182.621 C-96.813 184.187 -96.841 185.754 -96.867 187.32 C-96.892 188.106 -96.917 188.892 -96.943 189.701 C-96.953 190.458 -96.963 191.216 -96.973 191.996 C-96.988 192.693 -97.004 193.389 -97.02 194.107 C-96.787 196.063 -96.787 196.063 -95.638 197.736 C-92.621 199.695 -89.534 199.416 -86.055 199.371 C-85.311 199.372 -84.568 199.372 -83.802 199.373 C-82.232 199.37 -80.662 199.361 -79.092 199.344 C-76.688 199.32 -74.286 199.323 -71.883 199.33 C-70.357 199.325 -68.831 199.317 -67.305 199.309 C-66.226 199.31 -66.226 199.31 -65.126 199.311 C-61.434 199.259 -59.835 199.111 -56.68 197.008 C-56.265 195.077 -56.265 195.077 -56.387 192.875 C-56.396 192.069 -56.406 191.264 -56.416 190.434 C-56.441 189.592 -56.466 188.75 -56.492 187.883 C-56.506 187.033 -56.519 186.184 -56.533 185.309 C-56.569 183.208 -56.622 181.108 -56.68 179.008 C-55.442 178.781 -54.205 178.554 -52.93 178.32 C-47.872 177.21 -43.305 175.304 -38.574 173.227 C-35.649 171.995 -32.702 170.975 -29.68 170.008 C-29.027 170.73 -28.375 171.452 -27.703 172.195 C-26.829 173.123 -25.955 174.052 -25.055 175.008 C-24.196 175.936 -23.338 176.864 -22.453 177.82 C-19.888 180.212 -19.888 180.212 -16.857 180.446 C-12.589 179.858 -11.101 178.204 -8.062 175.188 C-7.56 174.691 -7.058 174.195 -6.541 173.684 C-5.487 172.633 -4.44 171.576 -3.4 170.511 C-1.809 168.888 -0.189 167.299 1.438 165.711 C2.46 164.684 3.481 163.656 4.5 162.625 C5.888 161.227 5.888 161.227 7.304 159.8 C9.673 156.519 9.94 154.968 9.32 151.008 C7.123 148.273 7.123 148.273 4.258 145.883 C1.41 143.375 1.41 143.375 -0.68 141.008 C-0.637 139.027 -0.637 139.027 0.32 137.008 C0.679 136.189 1.037 135.371 1.406 134.527 C2.044 133.187 2.044 133.187 2.695 131.82 C6.81 123.247 6.81 123.247 8.32 114.008 C9.596 114.043 10.873 114.077 12.188 114.113 C13.857 114.141 15.526 114.169 17.195 114.195 C18.037 114.22 18.879 114.246 19.746 114.271 C20.552 114.281 21.357 114.291 22.188 114.301 C22.931 114.316 23.675 114.332 24.441 114.348 C25.061 114.236 25.681 114.124 26.32 114.008 C28.758 110.351 28.61 107.61 28.586 103.383 C28.589 102.268 28.589 102.268 28.592 101.13 C28.593 99.56 28.589 97.99 28.581 96.42 C28.57 94.017 28.581 91.614 28.594 89.211 C28.592 87.685 28.59 86.159 28.586 84.633 C28.592 83.555 28.592 83.555 28.598 82.455 C28.563 78.754 28.429 77.17 26.32 74.008 C24.39 73.594 24.39 73.594 22.188 73.715 C21.382 73.725 20.576 73.734 19.746 73.744 C18.904 73.769 18.063 73.794 17.195 73.82 C16.346 73.834 15.496 73.847 14.621 73.861 C12.521 73.897 10.42 73.951 8.32 74.008 C8.238 73.384 8.156 72.759 8.072 72.116 C7.159 65.626 4.793 60.479 1.621 54.832 C0.333 52.466 -0.682 50.597 -0.672 47.867 C1.203 44.353 4.436 42.027 7.387 39.422 C9.538 37.149 9.538 37.149 9.742 34.208 C9.176 29.915 7.531 28.444 4.5 25.391 C4.004 24.889 3.507 24.387 2.996 23.869 C1.946 22.815 0.888 21.768 -0.177 20.729 C-1.8 19.137 -3.389 17.517 -4.977 15.891 C-6.003 14.868 -7.032 13.847 -8.062 12.828 C-8.995 11.903 -9.927 10.977 -10.887 10.024 C-14.171 7.653 -15.716 7.393 -19.68 8.008 C-22.555 10.159 -22.555 10.159 -25.055 13.008 C-25.929 13.936 -26.803 14.864 -27.703 15.82 C-28.355 16.542 -29.008 17.264 -29.68 18.008 C-35.376 16.213 -40.71 13.809 -46.145 11.348 C-49.805 9.96 -52.813 9.408 -56.68 9.008 C-56.645 7.732 -56.61 6.455 -56.574 5.141 C-56.546 3.471 -56.519 1.802 -56.492 0.133 C-56.467 -0.709 -56.442 -1.551 -56.416 -2.418 C-56.406 -3.224 -56.397 -4.029 -56.387 -4.859 C-56.371 -5.603 -56.355 -6.347 -56.339 -7.113 C-56.452 -7.733 -56.564 -8.353 -56.68 -8.992 C-60.33 -11.426 -63.082 -11.298 -67.305 -11.293 C-68.42 -11.299 -68.42 -11.299 -69.557 -11.306 C-71.127 -11.312 -72.697 -11.312 -74.268 -11.308 C-76.671 -11.305 -79.073 -11.328 -81.477 -11.354 C-83.003 -11.356 -84.529 -11.356 -86.055 -11.355 C-87.133 -11.369 -87.133 -11.369 -88.233 -11.383 C-91.114 -11.357 -93.184 -11.314 -95.638 -9.72 Z " fill="#CCC2C2" transform="translate(332.6796875,161.9921875)"/>
<path d="M0 0 C12.4 8.888 21.164 20.659 24.441 35.75 C25.935 55.012 22.918 69.945 10.254 84.938 C2.209 93.536 -9.805 100.994 -21.842 101.927 C-41.837 102.417 -56.23 99.273 -71.234 85.234 C-83.279 72.36 -86.06 58.179 -85.836 41.266 C-85.332 26.397 -77.224 13.728 -66.559 3.75 C-47.086 -11.139 -20.907 -13.423 0 0 Z " fill="#CCC2C2" transform="translate(286.55859375,209.25)"/>
<path d="M0 0 C1.115 -0.001 1.115 -0.001 2.252 -0.002 C3.823 0.001 5.393 0.011 6.963 0.027 C9.366 0.051 11.768 0.048 14.172 0.041 C15.698 0.047 17.224 0.054 18.75 0.062 C19.469 0.062 20.188 0.061 20.928 0.06 C24.621 0.112 26.22 0.26 29.375 2.363 C29.716 4.243 29.716 4.243 29.668 6.496 C29.658 7.302 29.649 8.107 29.639 8.938 C29.614 9.779 29.588 10.621 29.562 11.488 C29.542 12.763 29.542 12.763 29.521 14.062 C29.486 16.163 29.432 18.263 29.375 20.363 C29.989 20.445 30.603 20.527 31.236 20.612 C37.882 21.559 43.33 24.023 49.196 27.151 C52.725 29.029 52.725 29.029 56.578 28.824 C59.429 26.506 61.759 23.797 64.18 21.043 C67.162 18.761 68.675 18.896 72.375 19.363 C75.167 21.379 75.167 21.379 77.992 24.184 C78.745 24.928 78.745 24.928 79.513 25.687 C80.568 26.738 81.615 27.796 82.654 28.86 C84.245 30.484 85.866 32.072 87.492 33.66 C88.515 34.687 89.536 35.715 90.555 36.746 C91.943 38.144 91.943 38.144 93.359 39.571 C95.728 42.852 95.995 44.403 95.375 48.363 C93.152 50.996 93.152 50.996 90.312 53.488 C87.488 55.87 87.488 55.87 85.375 58.363 C86.063 63.259 88.768 67.808 90.848 72.256 C92.849 76.682 93.919 80.522 94.375 85.363 C96.289 85.311 96.289 85.311 98.242 85.258 C99.911 85.23 101.581 85.202 103.25 85.176 C104.092 85.151 104.934 85.126 105.801 85.1 C106.606 85.09 107.412 85.08 108.242 85.07 C108.986 85.055 109.729 85.039 110.496 85.023 C111.116 85.135 111.736 85.247 112.375 85.363 C114.813 89.02 114.664 91.761 114.641 95.988 C114.643 96.732 114.644 97.475 114.646 98.241 C114.648 99.811 114.644 101.381 114.636 102.951 C114.625 105.354 114.636 107.757 114.648 110.16 C114.647 111.686 114.645 113.212 114.641 114.738 C114.645 115.457 114.649 116.176 114.653 116.917 C114.618 120.617 114.483 122.201 112.375 125.363 C110.496 125.704 110.496 125.704 108.242 125.656 C107.437 125.647 106.631 125.637 105.801 125.627 C104.959 125.602 104.117 125.577 103.25 125.551 C101.976 125.53 101.976 125.53 100.676 125.51 C98.575 125.474 96.475 125.421 94.375 125.363 C94.035 127.22 94.035 127.22 93.688 129.113 C92.119 136.22 89.417 143.3 85.375 149.363 C85.515 152.348 86.354 153.342 88.441 155.512 C90.104 156.995 91.771 158.474 93.441 159.949 C95.375 162.363 95.375 162.363 95.797 165.163 C95.231 169.456 93.585 170.928 90.555 173.98 C90.058 174.482 89.562 174.985 89.051 175.502 C88.001 176.556 86.943 177.603 85.878 178.643 C84.255 180.234 82.666 181.854 81.078 183.48 C80.051 184.503 79.023 185.524 77.992 186.543 C77.06 187.468 76.128 188.394 75.167 189.347 C71.884 191.718 70.338 191.978 66.375 191.363 C63.602 189.176 63.602 189.176 61 186.363 C60.126 185.435 59.252 184.507 58.352 183.551 C57.699 182.829 57.047 182.107 56.375 181.363 C50.679 183.158 45.344 185.562 39.91 188.023 C36.25 189.411 33.241 189.963 29.375 190.363 C29.41 191.639 29.445 192.916 29.48 194.23 C29.509 195.9 29.536 197.569 29.562 199.238 C29.588 200.08 29.613 200.922 29.639 201.789 C29.648 202.595 29.658 203.4 29.668 204.23 C29.684 204.974 29.699 205.718 29.716 206.484 C29.603 207.104 29.491 207.724 29.375 208.363 C25.724 210.797 22.973 210.669 18.75 210.664 C18.007 210.668 17.263 210.673 16.498 210.677 C14.927 210.683 13.357 210.683 11.787 210.679 C9.384 210.676 6.981 210.699 4.578 210.725 C3.052 210.727 1.526 210.728 0 210.727 C-0.719 210.736 -1.438 210.745 -2.178 210.754 C-5.06 210.728 -7.13 210.685 -9.583 209.091 C-10.844 207 -10.973 205.784 -10.918 203.352 C-10.908 202.594 -10.899 201.837 -10.889 201.057 C-10.864 200.271 -10.838 199.485 -10.812 198.676 C-10.799 197.878 -10.785 197.081 -10.771 196.26 C-10.736 194.294 -10.682 192.329 -10.625 190.363 C-12.481 190.023 -12.481 190.023 -14.375 189.676 C-21.482 188.108 -28.562 185.406 -34.625 181.363 C-37.61 181.503 -38.604 182.343 -40.773 184.43 C-42.257 186.093 -43.736 187.759 -45.211 189.43 C-47.625 191.363 -47.625 191.363 -50.425 191.785 C-54.718 191.219 -56.189 189.574 -59.242 186.543 C-59.744 186.047 -60.246 185.55 -60.763 185.039 C-61.818 183.989 -62.865 182.931 -63.904 181.866 C-65.495 180.243 -67.116 178.654 -68.742 177.066 C-69.765 176.04 -70.786 175.011 -71.805 173.98 C-72.73 173.048 -73.655 172.116 -74.609 171.156 C-76.978 167.875 -77.245 166.323 -76.625 162.363 C-74.402 159.73 -74.402 159.73 -71.562 157.238 C-68.738 154.857 -68.738 154.857 -66.625 152.363 C-66.535 150.309 -66.535 150.309 -67.625 148.363 C-67.983 147.545 -68.342 146.726 -68.711 145.883 C-69.136 144.989 -69.562 144.096 -70 143.176 C-75.625 130.996 -75.625 130.996 -75.625 125.363 C-77.539 125.415 -77.539 125.415 -79.492 125.469 C-81.161 125.497 -82.831 125.524 -84.5 125.551 C-85.342 125.576 -86.184 125.601 -87.051 125.627 C-87.856 125.637 -88.662 125.646 -89.492 125.656 C-90.236 125.672 -90.979 125.688 -91.746 125.704 C-92.366 125.591 -92.986 125.479 -93.625 125.363 C-96.063 121.707 -95.914 118.965 -95.891 114.738 C-95.893 113.995 -95.894 113.252 -95.896 112.486 C-95.898 110.916 -95.894 109.346 -95.886 107.775 C-95.875 105.372 -95.886 102.97 -95.898 100.566 C-95.897 99.04 -95.895 97.514 -95.891 95.988 C-95.895 95.269 -95.899 94.551 -95.903 93.81 C-95.868 90.11 -95.733 88.526 -93.625 85.363 C-91.746 85.023 -91.746 85.023 -89.492 85.07 C-88.687 85.08 -87.881 85.09 -87.051 85.1 C-86.209 85.125 -85.367 85.15 -84.5 85.176 C-83.226 85.196 -83.226 85.196 -81.926 85.217 C-79.825 85.252 -77.725 85.306 -75.625 85.363 C-75.285 83.507 -75.285 83.507 -74.938 81.613 C-73.369 74.506 -70.667 67.427 -66.625 61.363 C-66.765 58.379 -67.604 57.385 -69.691 55.215 C-71.354 53.731 -73.021 52.252 -74.691 50.777 C-76.625 48.363 -76.625 48.363 -77.047 45.563 C-76.481 41.271 -74.835 39.799 -71.805 36.746 C-71.308 36.244 -70.812 35.742 -70.301 35.225 C-69.251 34.17 -68.193 33.124 -67.128 32.084 C-65.505 30.493 -63.916 28.872 -62.328 27.246 C-61.301 26.223 -60.273 25.202 -59.242 24.184 C-58.31 23.258 -57.378 22.333 -56.417 21.379 C-53.136 19.01 -51.585 18.744 -47.625 19.363 C-44.992 21.586 -44.992 21.586 -42.5 24.426 C-40.118 27.25 -40.118 27.25 -37.625 29.363 C-35.57 29.454 -35.57 29.454 -33.625 28.363 C-32.806 28.005 -31.988 27.647 -31.145 27.277 C-30.251 26.852 -29.358 26.427 -28.438 25.988 C-16.258 20.363 -16.258 20.363 -10.625 20.363 C-10.66 19.171 -10.695 17.979 -10.73 16.75 C-10.759 15.184 -10.786 13.617 -10.812 12.051 C-10.838 11.265 -10.863 10.479 -10.889 9.67 C-10.898 8.913 -10.908 8.155 -10.918 7.375 C-10.934 6.679 -10.949 5.982 -10.966 5.264 C-10.625 3.363 -10.625 3.363 -9.583 1.635 C-6.567 -0.324 -3.479 -0.045 0 0 Z M-2.625 8.363 C-2.756 13.493 -2.756 13.493 -2.833 18.624 C-2.918 20.57 -2.918 20.57 -3.625 24.363 C-6.859 27.191 -10.522 28.026 -14.625 29.113 C-20.895 30.928 -26.102 33.667 -31.652 37.07 C-35.286 38.651 -36.886 38.621 -40.625 37.363 C-43.18 35.297 -43.18 35.297 -45.5 32.801 C-46.672 31.561 -46.672 31.561 -47.867 30.297 C-48.447 29.659 -49.027 29.021 -49.625 28.363 C-52.668 29.722 -54.748 31.248 -57.078 33.621 C-57.697 34.246 -58.316 34.871 -58.953 35.516 C-59.587 36.167 -60.222 36.818 -60.875 37.488 C-61.525 38.147 -62.174 38.806 -62.844 39.484 C-64.442 41.106 -66.036 42.733 -67.625 44.363 C-65.76 48.311 -63.444 50.526 -60.184 53.387 C-58.022 56.128 -57.684 57.872 -57.625 61.363 C-58.753 63.882 -59.884 66.033 -61.312 68.363 C-64.96 74.677 -67.116 80.519 -68.836 87.633 C-69.625 90.363 -69.625 90.363 -71.625 92.363 C-74.367 92.67 -77.002 92.874 -79.75 92.988 C-82.349 93.112 -84.947 93.236 -87.625 93.363 C-87.625 101.283 -87.625 109.203 -87.625 117.363 C-82.495 117.494 -82.495 117.494 -77.364 117.571 C-75.418 117.656 -75.418 117.656 -71.625 118.363 C-68.797 121.597 -67.962 125.26 -66.875 129.363 C-65.06 135.633 -62.321 140.841 -58.918 146.391 C-57.337 150.024 -57.367 151.625 -58.625 155.363 C-60.691 157.918 -60.691 157.918 -63.188 160.238 C-64.014 161.019 -64.84 161.801 -65.691 162.605 C-66.329 163.186 -66.968 163.766 -67.625 164.363 C-66.267 167.407 -64.74 169.486 -62.367 171.816 C-61.429 172.745 -61.429 172.745 -60.473 173.691 C-59.822 174.326 -59.171 174.96 -58.5 175.613 C-57.841 176.263 -57.183 176.913 -56.504 177.582 C-54.882 179.18 -53.256 180.774 -51.625 182.363 C-47.677 180.498 -45.462 178.183 -42.602 174.922 C-39.86 172.76 -38.116 172.423 -34.625 172.363 C-32.107 173.491 -29.955 174.622 -27.625 176.051 C-21.312 179.698 -15.469 181.854 -8.355 183.574 C-5.625 184.363 -5.625 184.363 -3.625 186.363 C-3.318 189.105 -3.114 191.74 -3 194.488 C-2.876 197.087 -2.752 199.686 -2.625 202.363 C5.295 202.363 13.215 202.363 21.375 202.363 C21.506 197.233 21.506 197.233 21.583 192.102 C21.668 190.156 21.668 190.156 22.375 186.363 C25.609 183.536 29.272 182.701 33.375 181.613 C39.636 179.792 44.911 177.08 50.5 173.754 C53.584 172.262 55.027 171.661 58.375 172.363 C61.051 174.551 61.051 174.551 63.688 177.363 C64.571 178.291 65.454 179.22 66.363 180.176 C67.027 180.898 67.691 181.62 68.375 182.363 C71.418 181.005 73.498 179.479 75.828 177.105 C76.447 176.48 77.066 175.855 77.703 175.211 C78.337 174.56 78.972 173.909 79.625 173.238 C80.275 172.58 80.924 171.921 81.594 171.242 C83.192 169.62 84.786 167.994 86.375 166.363 C84.51 162.415 82.194 160.201 78.934 157.34 C76.772 154.598 76.434 152.854 76.375 149.363 C77.503 146.845 78.634 144.693 80.062 142.363 C83.71 136.05 85.866 130.207 87.586 123.094 C88.375 120.363 88.375 120.363 90.375 118.363 C93.117 118.056 95.752 117.853 98.5 117.738 C101.099 117.615 103.697 117.491 106.375 117.363 C106.375 109.443 106.375 101.523 106.375 93.363 C101.245 93.233 101.245 93.233 96.114 93.156 C94.168 93.07 94.168 93.07 90.375 92.363 C87.547 89.129 86.712 85.467 85.625 81.363 C83.81 75.093 81.071 69.886 77.668 64.336 C76.087 60.702 76.117 59.102 77.375 55.363 C79.441 52.809 79.441 52.809 81.938 50.488 C82.764 49.707 83.59 48.926 84.441 48.121 C85.079 47.541 85.718 46.961 86.375 46.363 C85.017 43.32 83.49 41.24 81.117 38.91 C80.492 38.291 79.867 37.673 79.223 37.035 C78.572 36.401 77.921 35.767 77.25 35.113 C76.591 34.464 75.933 33.814 75.254 33.145 C73.632 31.546 72.006 29.953 70.375 28.363 C66.427 30.228 64.212 32.544 61.352 35.805 C58.61 37.966 56.866 38.304 53.375 38.363 C50.857 37.235 48.705 36.104 46.375 34.676 C40.062 31.028 34.219 28.872 27.105 27.152 C24.375 26.363 24.375 26.363 22.375 24.363 C22.068 21.622 21.864 18.987 21.75 16.238 C21.626 13.64 21.502 11.041 21.375 8.363 C13.455 8.363 5.535 8.363 -2.625 8.363 Z " fill="#020202" transform="translate(246.625,150.63671875)"/>
<path d="M0 0 C12.636 10.772 21.792 24.348 23.625 41.125 C24.628 60.442 21.241 76.996 8.461 92.176 C-2.533 103.848 -16.08 112.377 -32.442 113.233 C-52.513 113.787 -68.237 110.15 -83.375 96.125 C-84.059 95.495 -84.744 94.864 -85.449 94.215 C-98.206 81.207 -102.761 65.472 -102.604 47.747 C-102.202 30.171 -95.603 16.464 -83.219 3.945 C-60.177 -17.555 -24.924 -19.143 0 0 Z M-82.375 14.125 C-93.573 28.77 -95.602 43.189 -94.375 61.125 C-91.955 74.457 -83.39 86.997 -72.703 95.168 C-57.915 104.964 -42.068 107.611 -24.609 104.441 C-9.305 99.614 3.152 89.277 10.625 75.125 C16.617 62.119 18.373 46.237 14 32.375 C7.809 17.319 -2.272 5.701 -17.156 -1.156 C-40.501 -10.769 -65.353 -4.07 -82.375 14.125 Z " fill="#030303" transform="translate(295.375,205.875)"/>
<path d="M0 0 C1.024 -0.028 2.048 -0.057 3.104 -0.086 C11.51 -0.108 11.51 -0.108 15.223 2.906 C20.557 8.819 18.866 17.663 18.913 25.266 C18.929 27.248 18.956 29.231 18.995 31.213 C19.05 34.075 19.071 36.935 19.086 39.797 C19.109 40.678 19.131 41.56 19.155 42.468 C19.14 46.745 18.927 49.622 16.217 53.044 C11.351 57.546 6.04 56.752 -0.25 56.812 C-1.728 56.856 -1.728 56.856 -3.236 56.9 C-9.072 56.951 -13.037 56.773 -17.438 52.5 C-19.466 47.783 -19.745 43.348 -19.738 38.285 C-19.745 37.124 -19.745 37.124 -19.751 35.94 C-19.757 34.31 -19.758 32.681 -19.753 31.051 C-19.75 28.573 -19.774 26.097 -19.799 23.619 C-19.801 22.029 -19.802 20.438 -19.801 18.848 C-19.81 18.115 -19.819 17.383 -19.829 16.628 C-19.784 11.551 -18.775 8.024 -16.438 3.5 C-11.994 -0.794 -5.808 -0.015 0 0 Z " fill="#080706" transform="translate(233.4375,227.5)"/>
<path d="M0 0 C5.739 3.356 9.075 8.147 11.113 14.379 C12.758 20.795 11.284 25.328 8.258 31 C5.094 35.602 0.894 38.619 -4.375 40.375 C-11.415 41.069 -17.662 40.89 -23.375 36.375 C-29.421 29.696 -30.85 25.016 -30.785 16.004 C-30.097 9.919 -27.334 5.915 -22.746 1.977 C-16.164 -2.675 -7.336 -3.367 0 0 Z " fill="#FBCA00" transform="translate(383.375,116.625)"/>
<path d="M0 0 C5.053 3.643 7.84 8.432 9.75 14.262 C10.483 20.758 9.26 25.71 5.75 31.262 C1.68 35.785 -2.722 38.808 -8.863 39.598 C-15.152 39.689 -20.197 39.256 -25.25 35.262 C-31.134 28.761 -32.614 24.342 -32.527 15.598 C-32.027 9.575 -29.818 5.433 -25.375 1.387 C-17.592 -3.905 -8.275 -4.755 0 0 Z " fill="#FBCA00" transform="translate(145.25,117.73828125)"/>
<path d="M0 0 C5.397 2.871 9.522 7.683 11.832 13.316 C12.765 20.188 12.499 25.946 8.332 31.629 C4.562 35.87 1.021 39.077 -4.875 39.52 C-15.645 39.682 -15.645 39.682 -20.168 36.316 C-25.642 30.74 -28.321 27.516 -28.48 19.566 C-28.423 13.905 -28.264 10.517 -24.168 6.316 C-17.199 -0.352 -9.727 -3.067 0 0 Z " fill="#D96666" transform="translate(492.16796875,236.68359375)"/>
<path d="M0 0 C4.589 3.246 8.046 6.772 10.562 11.812 C11.345 17.837 11.496 23.721 9 29.312 C3.27 35.189 -0.61 38.904 -9.125 39.188 C-15.182 39.136 -18.914 37.812 -23.438 33.812 C-28.767 28.062 -29.958 23.601 -29.816 15.855 C-29.06 9.782 -25.801 5.825 -21.312 1.875 C-15.201 -2.509 -6.973 -2.409 0 0 Z " fill="#D86666" transform="translate(37.4375,237.1875)"/>
<path d="M0 0 C4.252 3.165 8.296 7.216 10.688 12 C11.406 19.251 11.594 25.422 7.113 31.418 C3.206 35.753 -0.699 38.587 -6.57 39.258 C-12.684 39.538 -17.315 38.628 -22.312 35 C-27.361 30.196 -29.615 25.682 -29.812 18.75 C-29.729 13.032 -28.77 9.836 -24.969 5.586 C-17.669 -1.404 -9.813 -2.963 0 0 Z " fill="#41AE5C" transform="translate(265.3125,465)"/>
<path d="M0 0 C3.982 2.891 6.895 6.715 8.754 11.273 C9.622 17.583 9.953 23.53 6.066 28.836 C2.036 33.341 -1.676 36.955 -7.918 37.512 C-14.686 37.675 -18.839 37.467 -24.246 33.273 C-28.829 28.58 -31.551 24.734 -31.684 18.086 C-31.586 11.832 -30.433 7.919 -26.246 3.273 C-18.787 -3.812 -9.019 -5.138 0 0 Z " fill="#41AF5C" transform="translate(267.24609375,10.7265625)"/>
<path d="M0 0 C5.094 3.396 8.167 7.099 10 13 C10.906 18.813 10.387 24.014 7.477 29.176 C4.023 33.442 -0.844 36.281 -6 38 C-12.352 38.538 -16.738 37.707 -22 34 C-26.043 30.305 -29.032 26.486 -30 21 C-30.073 14.617 -29.274 9.967 -25 5 C-17.495 -2.402 -9.928 -3.791 0 0 Z " fill="#FBCA00" transform="translate(142,363)"/>
<path d="M0 0 C6.349 0.538 10.816 3.018 15.062 7.75 C19.025 12.822 20.239 16.81 19.688 23.312 C18.293 30.311 14.47 34.329 8.688 38.312 C3.526 40.735 -1.344 41.355 -6.805 39.438 C-12.813 36.728 -16.076 34.055 -19.312 28.312 C-21.077 22.594 -21.224 16.659 -18.812 11.125 C-15.917 5.973 -11.326 2.341 -5.75 0.438 C-3.83 0.339 -1.914 0.181 0 0 Z " fill="#FBCA00" transform="translate(380.3125,360.6875)"/>
<path d="M0 0 C3.873 2.309 6.62 4.809 8.34 9.059 C9.83 15.233 9.83 15.233 8.152 18.059 C6.34 19.059 6.34 19.059 4.359 18.902 C2.34 18.059 2.34 18.059 1.145 16.027 C0.684 14.805 0.684 14.805 0.215 13.559 C-0.904 10.093 -0.904 10.093 -3.66 8.059 C-5.968 7.884 -8.283 7.791 -10.598 7.746 C-11.844 7.709 -13.091 7.671 -14.375 7.633 C-17.698 7.739 -17.698 7.739 -19.613 9.883 C-21.087 12.946 -20.569 14.844 -19.66 18.059 C-16.777 20.941 -14.554 20.295 -10.535 20.371 C-4.13 20.642 0.586 21.561 5.34 26.059 C9.08 30.281 9.465 35.585 9.34 41.059 C8.515 45.671 6.88 48.907 3.34 51.996 C-2.787 56.208 -9.465 55.616 -16.66 55.059 C-21.382 53.862 -24.488 51.837 -27.16 47.746 C-28.758 43.818 -29.154 41.254 -28.66 37.059 C-28 36.399 -27.34 35.739 -26.66 35.059 C-24.633 35.152 -24.633 35.152 -22.66 36.059 C-21.719 38.09 -21.719 38.09 -21.098 40.559 C-20.536 42.986 -20.536 42.986 -19.66 45.059 C-16.19 46.215 -13.317 46.299 -9.66 46.371 C-7.804 46.427 -7.804 46.427 -5.91 46.484 C-2.631 46.373 -2.631 46.373 -0.75 44.289 C0.365 42.006 0.772 40.582 0.777 38.059 C0.797 37.399 0.816 36.739 0.836 36.059 C0.087 33.037 -1.177 31.904 -3.66 30.059 C-6.954 29.471 -6.954 29.471 -10.535 29.496 C-15.752 29.4 -19.163 28.779 -23.66 26.059 C-28.106 21.132 -29.011 18.107 -28.945 11.602 C-28.424 6.956 -26.001 4.237 -22.598 1.246 C-16.562 -2.453 -6.59 -2.332 0 0 Z " fill="#050404" transform="translate(288.66015625,228.94140625)"/>
<path d="M0 0 C5.045 2.819 7.946 7.026 9.75 12.438 C10.288 18.781 9.431 23.169 5.75 28.438 C1.537 32.881 -2.357 34.59 -8.438 34.812 C-14.234 34.751 -17.958 33.325 -22.25 29.438 C-26.384 24.137 -27.792 20.155 -27.25 13.438 C-25.288 6.533 -22.412 3.023 -16.25 -0.562 C-10.75 -2.396 -5.341 -2.372 0 0 Z " fill="#D66565" transform="translate(65.25,160.5625)"/>
<path d="M0 0 C5.422 3.174 8.697 7.064 10.707 13.094 C11.245 19.438 10.389 23.825 6.707 29.094 C2.529 33.501 -1.387 35.248 -7.418 35.531 C-13.75 35.472 -17.702 33.359 -22.293 29.094 C-25.896 24.508 -25.801 19.578 -25.641 13.934 C-24.984 8.574 -22.102 5.699 -18.23 2.281 C-12.929 -1.667 -6.212 -2.455 0 0 Z " fill="#D86565" transform="translate(458.29296875,159.90625)"/>
<path d="M0 0 C3.976 2.608 6.334 5.498 7.777 10.082 C8.404 15.261 8.594 20.261 6.215 25.02 C2.676 29.465 -0.312 31.666 -5.875 32.461 C-12.187 32.729 -16.254 32.037 -21.223 28.082 C-25.177 23.113 -25.87 19.046 -25.602 12.734 C-24.81 7.196 -22.611 4.21 -18.223 0.645 C-12.724 -2.081 -5.666 -2.34 0 0 Z " fill="#D76665" transform="translate(464.22265625,326.91796875)"/>
<path d="M0 0 C3.649 2.448 5.815 5.082 7.777 9.047 C8.662 14.869 9.01 21.102 5.652 26.172 C2.353 29.866 -0.808 31.755 -5.805 32.359 C-12.17 32.638 -16.203 32.042 -21.223 28.047 C-25.177 23.078 -25.87 19.011 -25.602 12.699 C-24.81 7.16 -22.611 4.175 -18.223 0.609 C-12.738 -2.109 -5.63 -2.414 0 0 Z " fill="#D76665" transform="translate(65.22265625,326.953125)"/>
<path d="M0 0 C4.769 2.663 8.192 5.805 9.793 11.113 C10.619 16.448 10.759 21.375 7.793 26.051 C3.886 30.642 -0.816 32.772 -6.707 33.613 C-12.449 32.793 -16.64 30.761 -20.645 26.551 C-23.791 21.642 -23.802 16.774 -23.207 11.113 C-21.613 5.825 -18.158 2.649 -13.414 0 C-8.767 -1.867 -4.647 -1.867 0 0 Z " fill="#41AD5B" transform="translate(179.20703125,44.88671875)"/>
<path d="M0 0 C3.599 2.425 5.444 5.152 6.797 9.211 C7.384 14.477 7.764 19.558 4.797 24.148 C0.89 28.74 -3.812 30.869 -9.703 31.711 C-15.445 30.891 -19.636 28.858 -23.641 24.648 C-26.795 19.728 -26.69 14.881 -26.203 9.211 C-24.215 3.56 -21.063 0.716 -15.828 -2.039 C-9.817 -3.757 -5.358 -2.928 0 0 Z " fill="#41AE5C" transform="translate(182.203125,445.7890625)"/>
<path d="M0 0 C4.487 2.486 7.115 5.407 8.75 10.312 C9.481 17.17 8.956 21.779 4.75 27.312 C-0.582 31.447 -4.513 32.769 -11.25 32.312 C-16.453 30.335 -20.447 27.29 -23.359 22.48 C-25.118 18.201 -24.961 13.83 -24.25 9.312 C-22.158 4.898 -19.356 2.082 -15.375 -0.688 C-9.71 -2.5 -5.348 -2.445 0 0 Z " fill="#41AD5B" transform="translate(347.25,444.6875)"/>
<path d="M0 0 C4.762 2.673 8.151 5.825 9.789 11.117 C10.551 16.047 10.462 20.494 8.164 24.992 C4.973 29.19 1.775 31.455 -3.211 33.117 C-8.48 33.515 -11.777 33.041 -16.211 30.117 C-20.66 25.626 -23.355 22.369 -23.586 15.93 C-23.529 11.133 -22.889 8.208 -19.754 4.555 C-14.043 -0.766 -7.552 -3.015 0 0 Z " fill="#41AD5B" transform="translate(346.2109375,44.8828125)"/>
<path d="M0 0 C0.895 -0.001 1.789 -0.003 2.711 -0.004 C3.652 -0 4.593 0.004 5.562 0.008 C6.974 0.002 6.974 0.002 8.414 -0.004 C9.756 -0.002 9.756 -0.002 11.125 0 C11.951 0.001 12.778 0.002 13.629 0.003 C15.562 0.133 15.562 0.133 16.562 1.133 C16.664 3.933 16.702 6.707 16.695 9.508 C16.697 10.767 16.697 10.767 16.698 12.052 C16.699 13.831 16.697 15.61 16.693 17.389 C16.688 20.121 16.693 22.853 16.699 25.586 C16.699 27.31 16.697 29.034 16.695 30.758 C16.697 31.581 16.699 32.404 16.701 33.251 C16.677 39.018 16.677 39.018 15.562 40.133 C14.086 40.232 12.605 40.264 11.125 40.266 C9.783 40.268 9.783 40.268 8.414 40.27 C7.473 40.266 6.532 40.262 5.562 40.258 C4.151 40.264 4.151 40.264 2.711 40.27 C1.816 40.268 0.922 40.267 0 40.266 C-0.826 40.264 -1.653 40.263 -2.504 40.262 C-4.438 40.133 -4.438 40.133 -5.438 39.133 C-5.539 36.333 -5.577 33.558 -5.57 30.758 C-5.571 29.918 -5.572 29.078 -5.573 28.213 C-5.574 26.435 -5.572 24.656 -5.568 22.877 C-5.563 20.144 -5.568 17.412 -5.574 14.68 C-5.574 12.956 -5.572 11.232 -5.57 9.508 C-5.572 8.685 -5.574 7.862 -5.576 7.014 C-5.547 0.008 -5.547 0.008 0 0 Z " fill="#CDC3C3" transform="translate(227.4375,235.8671875)"/>
</svg>