<?xml version="1.0" encoding="UTF-8"?>
<svg version="1.1" xmlns="http://www.w3.org/2000/svg" width="512" height="512">
<path d="M0 0 C1.01790619 0.00215515 2.03581238 0.0043103 3.08456421 0.00653076 C17.69363523 0.05620146 32.02575853 0.30709809 46.375 3.3125 C47.34985352 3.51117676 48.32470703 3.70985352 49.32910156 3.91455078 C97.7109774 14.03517194 141.69928269 35.9516877 177.375 70.3125 C178.3640332 71.26068604 178.3640332 71.26068604 179.37304688 72.22802734 C188.86130305 81.37247479 197.6012044 90.66984009 205.375 101.3125 C206.23306152 102.46355017 207.09113451 103.61459177 207.94921875 104.765625 C213.98736829 112.95680614 219.34595521 121.47054105 224.375 130.3125 C224.73948242 130.94430176 225.10396484 131.57610352 225.47949219 132.22705078 C247.08534998 169.97532572 256.85198095 212.74189997 256.6875 255.9375 C256.68534485 256.95540619 256.6831897 257.97331238 256.68096924 259.02206421 C256.63129854 273.63113523 256.38040191 287.96325853 253.375 302.3125 C253.07698486 303.77478027 253.07698486 303.77478027 252.77294922 305.26660156 C242.65232806 353.6484774 220.7358123 397.63678269 186.375 433.3125 C185.74287598 433.97185547 185.11075195 434.63121094 184.45947266 435.31054688 C175.31502521 444.79880305 166.01765991 453.5387044 155.375 461.3125 C154.22394983 462.17056152 153.07290823 463.02863451 151.921875 463.88671875 C143.73224019 469.92427396 135.22961724 475.30707302 126.375 480.3125 C125.66778809 480.7146875 124.96057617 481.116875 124.23193359 481.53125 C101.09654164 494.5566741 75.92537591 503.30551461 49.9375 508.625 C49.21860596 508.77235596 48.49971191 508.91971191 47.7590332 509.0715332 C33.08339502 511.86090125 18.55831162 512.66142619 3.64770508 512.62817383 C0.70811513 512.6250221 -2.2304558 512.64854926 -5.16992188 512.67382812 C-18.54306192 512.71848737 -31.43916711 511.51301542 -44.625 509.3125 C-46.33055054 509.03031616 -46.33055054 509.03031616 -48.07055664 508.74243164 C-91.33802759 500.97044532 -132.38793216 480.98345309 -165.625 452.3125 C-166.37007813 451.67828125 -167.11515625 451.0440625 -167.8828125 450.390625 C-181.38779833 438.57948485 -194.05918743 425.82889772 -204.625 411.3125 C-205.48149066 410.16255169 -206.33826433 409.01281411 -207.1953125 407.86328125 C-213.23534209 399.67315742 -218.61867614 391.16870382 -223.625 382.3125 C-224.0271875 381.60528809 -224.429375 380.89807617 -224.84375 380.16943359 C-237.8691741 357.03404164 -246.61801461 331.86287591 -251.9375 305.875 C-252.08485596 305.15610596 -252.23221191 304.43721191 -252.3840332 303.6965332 C-255.35789088 288.05024391 -255.99800362 272.57681954 -255.9375 256.6875 C-255.93534485 255.66959381 -255.9331897 254.65168762 -255.93096924 253.60293579 C-255.88129854 238.99386477 -255.63040191 224.66174147 -252.625 210.3125 C-252.42632324 209.33764648 -252.22764648 208.36279297 -252.02294922 207.35839844 C-241.90232806 158.9765226 -219.9858123 114.98821731 -185.625 79.3125 C-184.99287598 78.65314453 -184.36075195 77.99378906 -183.70947266 77.31445312 C-174.56502521 67.82619695 -165.26765991 59.0862956 -154.625 51.3125 C-153.47394983 50.45443848 -152.32290823 49.59636549 -151.171875 48.73828125 C-142.98224019 42.70072604 -134.47961724 37.31792698 -125.625 32.3125 C-124.91778809 31.9103125 -124.21057617 31.508125 -123.48193359 31.09375 C-100.34654164 18.0683259 -75.17537591 9.31948539 -49.1875 4 C-48.46860596 3.85264404 -47.74971191 3.70528809 -47.0090332 3.5534668 C-31.36274391 0.57960912 -15.88931954 -0.06050362 0 0 Z " fill="#E05B49" transform="translate(255.625,-0.3125)"/>
<path d="M0 0 C14.19 0 28.38 0 43 0 C49.75 12.125 49.75 12.125 51.85449219 15.91455078 C52.41297852 16.91470215 52.97146484 17.91485352 53.546875 18.9453125 C54.39523926 20.46922607 54.39523926 20.46922607 55.26074219 22.02392578 C56.50180311 24.14752665 57.83123704 26.22047871 59.21582031 28.25341797 C61 31 61 31 61 33 C61.96421875 33.09925781 62.9284375 33.19851562 63.921875 33.30078125 C68.59211262 33.97315466 72.84710541 35.53608372 77.25 37.1875 C78.08901855 37.49558594 78.92803711 37.80367187 79.79248047 38.12109375 C85.3700088 40.2241139 90.43132751 42.67314946 95.3828125 46.03125 C102.61895502 48.70970275 111.52892208 44.95881318 118.625 43 C120.61617256 42.45461423 122.60834204 41.91285314 124.6015625 41.375 C125.47119629 41.13523438 126.34083008 40.89546875 127.23681641 40.6484375 C128.14866699 40.43445313 129.06051758 40.22046875 130 40 C131.12519043 39.68957764 132.25038086 39.37915527 133.40966797 39.05932617 C137.82819104 38.98631508 138.97498043 39.97932384 142.08776855 42.89924622 C142.66724243 43.48550278 143.24671631 44.07175934 143.84375 44.67578125 C144.4577063 45.27496872 145.0716626 45.87415619 145.70422363 46.49150085 C146.99485579 47.76357158 148.27525396 49.04609842 149.54589844 50.33813477 C151.48976665 52.30216053 153.47871191 54.21024219 155.4765625 56.11914062 C164.46729212 64.95501363 164.46729212 64.95501363 165.72265625 69.77416992 C165.51711053 72.43289335 164.92803248 74.50399212 164 77 C163.53910659 78.77407646 163.08084319 80.54883794 162.625 82.32421875 C162.09218408 84.11463694 161.55045219 85.90242508 161 87.6875 C157.33158186 97.41139682 157.33158186 97.41139682 157.93359375 107.16796875 C158.42988281 107.83441406 158.92617188 108.50085938 159.4375 109.1875 C163.71789537 115.68292514 166.27194161 122.78382078 169.0703125 130 C169.39725098 130.82097168 169.72418945 131.64194336 170.06103516 132.48779297 C171 135 171 135 171.73193359 137.60986328 C173.84284861 144.43777716 177.00786883 146.95814155 183.234375 150.3046875 C184.78898438 151.08199219 184.78898438 151.08199219 186.375 151.875 C188.42532714 152.95411955 190.47483093 154.03480516 192.5234375 155.1171875 C193.883479 155.80723877 193.883479 155.80723877 195.27099609 156.51123047 C196.17156738 157.00252441 197.07213867 157.49381836 198 158 C199.07999268 158.52843506 200.15998535 159.05687012 201.27270508 159.60131836 C204.18906752 162.16628667 204.43604687 162.55541384 204.91918945 166.16674805 C205.01946102 167.86334296 205.08185182 169.56245395 205.11328125 171.26171875 C205.14036667 172.16694778 205.16745209 173.07217682 205.19535828 174.00483704 C205.23884173 175.92015894 205.26552071 177.83592564 205.27661133 179.75170898 C205.31225086 182.66711928 205.45945055 185.56325213 205.61132812 188.47460938 C205.95450119 201.58725784 205.95450119 201.58725784 202.57873535 205.75448608 C198.53758152 209.17048476 193.92004017 211.1732877 189 213 C179.77457988 216.37924765 179.77457988 216.37924765 173.6484375 223.63330078 C171.43342682 229.14209502 169.72803053 234.77471722 168.046875 240.46484375 C166.1906342 246.72830481 163.67931337 252.26200128 160.29736328 257.83984375 C156.04069936 265.34575393 159.12993893 272.9787038 161.26953125 280.77148438 C161.8455084 282.8189648 162.42367586 284.8658302 163.00390625 286.91210938 C163.27332031 287.89630859 163.54273438 288.88050781 163.8203125 289.89453125 C164.07055176 290.77987549 164.32079102 291.66521973 164.57861328 292.57739258 C165.03661676 295.21051456 164.84027165 296.49136534 164 299 C162.11150283 301.30007858 160.21713408 303.44219103 158.1640625 305.5859375 C157.27308365 306.51679672 157.27308365 306.51679672 156.36410522 307.46646118 C155.1027213 308.77367539 153.83652565 310.07626117 152.56591797 311.37451172 C151.27520767 312.70483627 149.99893943 314.04933121 148.73779297 315.40771484 C138.32951605 326.61641902 138.32951605 326.61641902 132.97680664 327.49780273 C130.0784385 326.99873416 127.69880276 326.15722017 125 325 C123.33252329 324.53752572 121.65922488 324.09547028 119.98046875 323.67578125 C117.56377347 322.99565695 115.15215078 322.30207325 112.74414062 321.59179688 C104.78643791 319.37300977 100.0394661 320.71335673 92.8125 324.625 C83.14442335 329.66871574 72.65199015 334.229949 61.99414062 336.6953125 C58.13202392 338.37821789 56.80821308 340.74387307 54.9140625 344.3203125 C54.27936035 345.45227051 53.6446582 346.58422852 52.99072266 347.75048828 C52.21003418 349.19407715 51.4293457 350.63766602 50.625 352.125 C48.10875 356.70375 45.5925 361.2825 43 366 C28.81 366 14.62 366 0 366 C-2.206875 361.524375 -4.41375 357.04875 -6.6875 352.4375 C-12.84009797 340.82037008 -12.84009797 340.82037008 -23.67553711 333.98339844 C-27.20041021 333.0865971 -30.7378789 332.33578606 -34.31005859 331.65332031 C-39.04269506 330.50387983 -43.28166629 328.34766106 -47.625 326.1875 C-48.42462158 325.80053955 -49.22424316 325.4135791 -50.0480957 325.01489258 C-53.18767884 323.47810785 -56.08406674 321.94395551 -59 320 C-67.27377626 320.37645273 -74.98327711 322.75565513 -82.91210938 325.00390625 C-84.3884082 325.40802734 -84.3884082 325.40802734 -85.89453125 325.8203125 C-87.22254761 326.19567139 -87.22254761 326.19567139 -88.57739258 326.57861328 C-91.20925252 327.03639724 -92.49076408 326.83234234 -95 326 C-99.40529116 322.55601526 -103.44091337 318.75390943 -107.484375 314.89550781 C-108.82161678 313.63795631 -110.17987671 312.40236644 -111.55859375 311.19042969 C-122.63879406 301.43411127 -122.63879406 301.43411127 -123.23043823 295.80914307 C-122.81475443 290.54390992 -121.00451382 285.83907311 -119 281 C-114.74164023 269.8936752 -114.74164023 269.8936752 -116.98828125 258.484375 C-118.87216381 254.47582046 -120.9724795 250.61065273 -123.10546875 246.73046875 C-125.52021062 242.26180851 -126.76326753 238.28980394 -127.70947266 233.33178711 C-129.1677303 226.02783782 -131.2040055 222.13401301 -137.48828125 217.8515625 C-142.58278989 214.74915481 -147.8244771 211.99696202 -153.2109375 209.43774414 C-154.13132812 208.96328857 -155.05171875 208.48883301 -156 208 C-157.08450439 207.4743042 -158.16900879 206.9486084 -159.28637695 206.40698242 C-162.19576291 203.82635838 -162.43275982 203.43851231 -162.88745117 199.81738281 C-162.9742263 198.11405113 -163.02379586 196.40855783 -163.04296875 194.703125 C-163.06531082 193.79552429 -163.08765289 192.88792358 -163.110672 191.95281982 C-163.14539714 190.03322274 -163.16369394 188.11326809 -163.16674805 186.19335938 C-163.18736869 183.26862395 -163.30895134 180.35931496 -163.43554688 177.4375 C-163.72020457 163.90038035 -163.72020457 163.90038035 -159.34277344 159.06445312 C-155.97294421 156.96998676 -152.68867099 155.4490926 -149 154 C-147.35860176 153.12969861 -145.72871582 152.23693991 -144.1171875 151.3125 C-141.9782804 150.14230083 -139.84020057 148.98210668 -137.671875 147.8671875 C-133.08035129 145.30881082 -131.12699763 143.26983089 -129.62792969 138.21728516 C-129.42071289 137.48558105 -129.21349609 136.75387695 -129 136 C-128.40606004 134.40382802 -127.79455503 132.8141099 -127.16796875 131.23046875 C-126.84691162 130.4096582 -126.52585449 129.58884766 -126.19506836 128.74316406 C-125.69632202 127.47811035 -125.69632202 127.47811035 -125.1875 126.1875 C-124.66845093 124.86637207 -124.66845093 124.86637207 -124.13891602 123.51855469 C-121.86526202 117.8441004 -119.32521474 112.59382999 -115.93359375 107.484375 C-112.90561303 99.42665224 -118.39348579 88.0179958 -120.6484375 80.203125 C-120.96296875 79.0790625 -121.2775 77.955 -121.6015625 76.796875 C-121.89369629 75.77948242 -122.18583008 74.76208984 -122.48681641 73.71386719 C-123.02180333 70.88469751 -122.90627849 69.67593219 -122 67 C-118.51215213 62.61912659 -114.66891602 58.6015775 -110.78564453 54.57055664 C-109.51739831 53.23765028 -108.26826551 51.88627916 -107.03955078 50.5168457 C-96.87096548 39.19640372 -96.87096548 39.19640372 -90.04223633 38.72924805 C-86.1514503 39.48152667 -82.6905238 40.56831294 -79 42 C-77.3461482 42.47530892 -75.68909921 42.93982599 -74.02734375 43.38671875 C-71.95904007 44.03246128 -69.89875309 44.70007923 -67.83789062 45.36914062 C-58.83664343 48.17616463 -54.27218557 46.53031495 -46.1875 42.375 C-35.55288994 36.95633804 -35.55288994 36.95633804 -30.3359375 35.84375 C-22.67200467 34.17157221 -18.49106059 32.25302435 -13.9765625 25.54296875 C-10.88363182 20.45913687 -8.09378121 15.24225239 -5.46948242 9.90258789 C-3.76624493 6.53827645 -1.87088523 3.27404916 0 0 Z " fill="#C1C3C3" transform="translate(235,73)"/>
<path d="M0 0 C14.19 0 28.38 0 43 0 C49.75 12.125 49.75 12.125 51.85449219 15.91455078 C52.41297852 16.91470215 52.97146484 17.91485352 53.546875 18.9453125 C54.39523926 20.46922607 54.39523926 20.46922607 55.26074219 22.02392578 C56.50180311 24.14752665 57.83123704 26.22047871 59.21582031 28.25341797 C61 31 61 31 61 33 C61.96421875 33.09925781 62.9284375 33.19851562 63.921875 33.30078125 C68.59211262 33.97315466 72.84710541 35.53608372 77.25 37.1875 C78.08901855 37.49558594 78.92803711 37.80367187 79.79248047 38.12109375 C85.3700088 40.2241139 90.43132751 42.67314946 95.3828125 46.03125 C102.61895502 48.70970275 111.52892208 44.95881318 118.625 43 C120.61617256 42.45461423 122.60834204 41.91285314 124.6015625 41.375 C125.47119629 41.13523438 126.34083008 40.89546875 127.23681641 40.6484375 C128.14866699 40.43445313 129.06051758 40.22046875 130 40 C131.12519043 39.68957764 132.25038086 39.37915527 133.40966797 39.05932617 C137.82819104 38.98631508 138.97498043 39.97932384 142.08776855 42.89924622 C142.95697937 43.77863106 142.95697937 43.77863106 143.84375 44.67578125 C144.4577063 45.27496872 145.0716626 45.87415619 145.70422363 46.49150085 C146.99485579 47.76357158 148.27525396 49.04609842 149.54589844 50.33813477 C151.48976665 52.30216053 153.47871191 54.21024219 155.4765625 56.11914062 C164.46729212 64.95501363 164.46729212 64.95501363 165.72265625 69.77416992 C165.51711053 72.43289335 164.92803248 74.50399212 164 77 C163.53910659 78.77407646 163.08084319 80.54883794 162.625 82.32421875 C162.09218408 84.11463694 161.55045219 85.90242508 161 87.6875 C157.33158186 97.41139682 157.33158186 97.41139682 157.93359375 107.16796875 C158.42988281 107.83441406 158.92617188 108.50085938 159.4375 109.1875 C163.71789537 115.68292514 166.27194161 122.78382078 169.0703125 130 C169.39725098 130.82097168 169.72418945 131.64194336 170.06103516 132.48779297 C171 135 171 135 171.73193359 137.60986328 C173.84284861 144.43777716 177.00786883 146.95814155 183.234375 150.3046875 C184.78898438 151.08199219 184.78898438 151.08199219 186.375 151.875 C188.42532714 152.95411955 190.47483093 154.03480516 192.5234375 155.1171875 C193.883479 155.80723877 193.883479 155.80723877 195.27099609 156.51123047 C196.17156738 157.00252441 197.07213867 157.49381836 198 158 C199.07999268 158.52843506 200.15998535 159.05687012 201.27270508 159.60131836 C204.18906752 162.16628667 204.43604687 162.55541384 204.91918945 166.16674805 C205.01946102 167.86334296 205.08185182 169.56245395 205.11328125 171.26171875 C205.14036667 172.16694778 205.16745209 173.07217682 205.19535828 174.00483704 C205.23884173 175.92015894 205.26552071 177.83592564 205.27661133 179.75170898 C205.31225086 182.66711928 205.45945055 185.56325213 205.61132812 188.47460938 C205.95450119 201.58725784 205.95450119 201.58725784 202.57873535 205.75448608 C198.53758152 209.17048476 193.92004017 211.1732877 189 213 C179.77457988 216.37924765 179.77457988 216.37924765 173.6484375 223.63330078 C171.43342682 229.14209502 169.72803053 234.77471722 168.046875 240.46484375 C166.1906342 246.72830481 163.67931337 252.26200128 160.29736328 257.83984375 C156.04069936 265.34575393 159.12993893 272.9787038 161.26953125 280.77148438 C161.8455084 282.8189648 162.42367586 284.8658302 163.00390625 286.91210938 C163.27332031 287.89630859 163.54273438 288.88050781 163.8203125 289.89453125 C164.07055176 290.77987549 164.32079102 291.66521973 164.57861328 292.57739258 C165.02614517 295.15031198 164.92094252 296.57514497 164 299 C162.15234375 301.140625 162.15234375 301.140625 159.9375 303.25 C159.20402344 303.95640625 158.47054688 304.6628125 157.71484375 305.390625 C157.14894531 305.92171875 156.58304687 306.4528125 156 307 C150.03881703 302.06002739 144.58513698 296.71470138 139.12890625 291.2265625 C137.74541237 289.8409462 137.74541237 289.8409462 136.33396912 288.42733765 C133.90366186 285.99324569 131.47637504 283.55616403 129.04974365 281.1184082 C126.56430636 278.6226689 124.07597068 276.12982292 121.58789062 273.63671875 C116.72244904 268.7606114 111.86019802 263.88133369 107 259 C107.66 257.35 108.32 255.7 109 254 C108.21625 253.79375 107.4325 253.5875 106.625 253.375 C98.91269104 250.44964143 92.89948049 246.5348165 87.7421875 240.08203125 C85.23373848 237.08426594 82.32820127 234.54644702 79.40625 231.95703125 C78 230 78 230 78.0390625 227.69140625 C79.26486115 224.25817344 80.99580128 221.23005595 82.875 218.125 C85.63650292 213.52249513 87.97595345 208.97737235 90 204 C94.39940702 205.32593296 98.13290163 207.05699708 102.09765625 209.37109375 C103.22880859 210.02787109 104.35996094 210.68464844 105.52539062 211.36132812 C106.70448445 212.05328767 107.88352043 212.74534581 109.0625 213.4375 C110.24515168 214.12615109 111.42809212 214.81430651 112.61132812 215.50195312 C117.42524536 218.30572352 122.22760559 221.12604689 127 224 C128.06982517 220.35045456 129.04423975 216.68096854 130 213 C130.28617188 211.97003906 130.57234375 210.94007813 130.8671875 209.87890625 C137.79808508 181.33020907 132.0009668 152.39555254 117.91015625 127.125 C114.64337871 121.78057866 110.94334559 116.86055841 107 112 C106.31292969 111.14664063 105.62585938 110.29328125 104.91796875 109.4140625 C93.83385403 96.37634686 79.4413239 87.01595602 63.8125 80.3125 C63.19076904 80.03889648 62.56903809 79.76529297 61.9284668 79.48339844 C54.09220729 76.27320074 46.48448198 74.9963487 38 73 C38 90.16 38 107.32 38 125 C41.3 125.99 44.6 126.98 48 128 C62.69222475 135.1378463 73.65572575 148.33131889 79.22265625 163.55078125 C84.43911573 179.9865606 82.44784599 195.36256704 75.0625 210.6875 C74.72669922 211.39567871 74.39089844 212.10385742 74.04492188 212.83349609 C71.55512539 217.74205522 71.55512539 217.74205522 69.09785175 218.88385296 C67 219 67 219 65.22439098 217.85359669 C64.62208314 217.25317397 64.0197753 216.65275126 63.3992157 216.03413391 C62.70231125 215.35132858 62.0054068 214.66852325 61.28738403 213.96502686 C60.53343353 213.2009552 59.77948303 212.43688354 59.00268555 211.6496582 C57.79971077 210.45982582 57.79971077 210.45982582 56.57243347 209.24595642 C53.9144428 206.61004367 51.27524034 203.95617216 48.63671875 201.30078125 C46.80231213 199.46974027 44.96716361 197.63944226 43.13130188 195.80986023 C39.28237719 191.96831838 35.4424457 188.11809738 31.60913086 184.26098633 C27.17405428 179.79869727 22.721251 175.35470774 18.25880975 170.91979724 C13.97057784 166.65696784 9.69651824 162.38024695 5.42829323 158.09737206 C3.60862527 156.27435935 1.78521018 154.45507925 -0.04192543 152.63955116 C-2.59010782 150.10401165 -5.12179973 147.5530946 -7.6496582 144.99731445 C-8.79576569 143.8663887 -8.79576569 143.8663887 -9.96502686 142.71261597 C-10.64783218 142.01571152 -11.33063751 141.31880707 -12.03413391 140.6007843 C-12.63455663 139.99847646 -13.23497934 139.39616861 -13.85359669 138.77560902 C-15 137 -15 137 -14.81280804 134.87700176 C-13.62895246 132.14314716 -11.9286209 131.34853955 -9.375 129.875 C-8.53710938 129.37742188 -7.69921875 128.87984375 -6.8359375 128.3671875 C-4 127 -4 127 3 125 C3 107.84 3 90.68 3 73 C-15.25027219 78.21436348 -30.30807805 83.07262189 -45.265625 94.01953125 C-47.74906223 95.81824936 -50.37057833 97.422347 -53 99 C-69.5 82.5 -86 66 -103 49 C-97 42 -97 42 -94 39 C-91.0234375 39.1875 -91.0234375 39.1875 -87.375 40 C-86.72345947 40.14155518 -86.07191895 40.28311035 -85.40063477 40.42895508 C-79.45402016 41.77242079 -73.61255101 43.50216308 -67.81201172 45.37304688 C-58.83021847 48.19238586 -54.25316057 46.52053661 -46.1875 42.375 C-35.55288994 36.95633804 -35.55288994 36.95633804 -30.3359375 35.84375 C-22.67200467 34.17157221 -18.49106059 32.25302435 -13.9765625 25.54296875 C-10.88363182 20.45913687 -8.09378121 15.24225239 -5.46948242 9.90258789 C-3.76624493 6.53827645 -1.87088523 3.27404916 0 0 Z " fill="#EBEFEF" transform="translate(235,73)"/>
<path d="M0 0 C23.13738422 18.5865001 41.19023833 43.99362267 46.33642578 73.703125 C46.50940186 74.65147217 46.68237793 75.59981934 46.8605957 76.5769043 C52.5027423 109.72608076 45.96882689 142.97865761 26.64501953 170.65234375 C25.75925568 171.86323316 24.8650451 173.06800115 23.96142578 174.265625 C23.54465576 174.82040527 23.12788574 175.37518555 22.69848633 175.94677734 C21.50048828 177.45703125 21.50048828 177.45703125 19.33642578 179.703125 C16.33642578 179.703125 16.33642578 179.703125 14.73095703 178.390625 C14.20888672 177.83375 13.68681641 177.276875 13.14892578 176.703125 C12.61912109 176.14625 12.08931641 175.589375 11.54345703 175.015625 C11.14513672 174.5825 10.74681641 174.149375 10.33642578 173.703125 C10.99642578 172.053125 11.65642578 170.403125 12.33642578 168.703125 C11.55267578 168.496875 10.76892578 168.290625 9.96142578 168.078125 C2.24911682 165.15276643 -3.76409373 161.2379415 -8.92138672 154.78515625 C-11.42983574 151.78739094 -14.33537295 149.24957202 -17.25732422 146.66015625 C-18.66357422 144.703125 -18.66357422 144.703125 -18.62451172 142.39453125 C-17.39871307 138.96129844 -15.66777294 135.93318095 -13.78857422 132.828125 C-11.0270713 128.22562013 -8.68762077 123.68049735 -6.66357422 118.703125 C-2.2641672 120.02905796 1.46932741 121.76012208 5.43408203 124.07421875 C6.56523437 124.73099609 7.69638672 125.38777344 8.86181641 126.06445312 C10.04091024 126.75641267 11.21994621 127.44847081 12.39892578 128.140625 C13.58157746 128.82927609 14.7645179 129.51743151 15.94775391 130.20507812 C20.76167114 133.00884852 25.56403137 135.82917189 30.33642578 138.703125 C31.40625095 135.05357956 32.38066553 131.38409354 33.33642578 127.703125 C33.62259766 126.67316406 33.90876953 125.64320313 34.20361328 124.58203125 C41.13451086 96.03333407 35.33739258 67.09867754 21.24658203 41.828125 C17.97980449 36.48370366 14.27977138 31.56368341 10.33642578 26.703125 C9.64935547 25.84976563 8.96228516 24.99640625 8.25439453 24.1171875 C-2.82972019 11.07947186 -17.22225032 1.71908102 -32.85107422 -4.984375 C-33.47280518 -5.25797852 -34.09453613 -5.53158203 -34.73510742 -5.81347656 C-42.57136693 -9.02367426 -50.17909224 -10.3005263 -58.66357422 -12.296875 C-58.66357422 4.863125 -58.66357422 22.023125 -58.66357422 39.703125 C-55.36357422 40.693125 -52.06357422 41.683125 -48.66357422 42.703125 C-33.97134947 49.8409713 -23.00784847 63.03444389 -17.44091797 78.25390625 C-12.22445849 94.6896856 -14.21572823 110.06569204 -21.60107422 125.390625 C-21.936875 126.09880371 -22.27267578 126.80698242 -22.61865234 127.53662109 C-25.10844883 132.44518022 -25.10844883 132.44518022 -27.56572247 133.58697796 C-29.66357422 133.703125 -29.66357422 133.703125 -31.43918324 132.55672169 C-32.04149108 131.95629897 -32.64379892 131.35587626 -33.26435852 130.73725891 C-33.96126297 130.05445358 -34.65816742 129.37164825 -35.37619019 128.66815186 C-36.13014069 127.9040802 -36.88409119 127.14000854 -37.66088867 126.3527832 C-38.46287186 125.55956161 -39.26485504 124.76634003 -40.09114075 123.94908142 C-42.74913142 121.31316867 -45.38833388 118.65929716 -48.02685547 116.00390625 C-49.86126209 114.17286527 -51.6964106 112.34256726 -53.53227234 110.51298523 C-57.38119703 106.67144338 -61.22112852 102.82122238 -65.05444336 98.96411133 C-69.48951993 94.50182227 -73.94232322 90.05783274 -78.40476447 85.62292224 C-82.69299638 81.36009284 -86.96705598 77.08337195 -91.23528099 72.80049706 C-93.05494895 70.97748435 -94.87836403 69.15820425 -96.70549965 67.34267616 C-99.25368204 64.80713665 -101.78537395 62.2562196 -104.31323242 59.70043945 C-105.07730408 58.94648895 -105.84137573 58.19253845 -106.62860107 57.41574097 C-107.3114064 56.71883652 -107.99421173 56.02193207 -108.69770813 55.3039093 C-109.29813085 54.70160146 -109.89855356 54.09929361 -110.51717091 53.47873402 C-111.66357422 51.703125 -111.66357422 51.703125 -111.47638226 49.58012676 C-110.29252668 46.84627216 -108.59219512 46.05166455 -106.03857422 44.578125 C-105.20068359 44.08054687 -104.36279297 43.58296875 -103.49951172 43.0703125 C-100.66357422 41.703125 -100.66357422 41.703125 -93.66357422 39.703125 C-93.66357422 22.543125 -93.66357422 5.383125 -93.66357422 -12.296875 C-111.91384641 -7.08251152 -126.97165227 -2.22425311 -141.92919922 8.72265625 C-144.43860373 10.54018209 -146.9832149 12.15262517 -149.66357422 13.703125 C-152.30357422 11.063125 -154.94357422 8.423125 -157.66357422 5.703125 C-155.99863085 4.36764039 -154.33160753 3.03474823 -152.66357422 1.703125 C-151.92880859 1.11273438 -151.19404297 0.52234375 -150.43701172 -0.0859375 C-132.58280384 -13.75283929 -112.73083721 -21.00458173 -90.66357422 -24.296875 C-89.53306641 -24.48121094 -88.40255859 -24.66554687 -87.23779297 -24.85546875 C-56.91070403 -28.60078137 -24.05688146 -18.75405845 0 0 Z " fill="#CED0D0" transform="translate(331.66357421875,158.296875)"/>
<path d="M0 0 C0.65871094 0.46019531 1.31742188 0.92039062 1.99609375 1.39453125 C2.76824219 1.90628906 3.54039062 2.41804688 4.3359375 2.9453125 C5.19316406 3.52667969 6.05039063 4.10804688 6.93359375 4.70703125 C20.16098546 13.18885271 34.57127382 16.34986227 50.1484375 13.8984375 C60.57291788 11.47382117 70.04133487 8.02387944 77.86328125 0.5546875 C79.99609375 -0.60546875 79.99609375 -0.60546875 82.80419922 0.14038086 C85.81105906 1.32182793 88.42829696 2.64882563 91.19921875 4.30078125 C92.17181641 4.87554199 93.14441406 5.45030273 94.14648438 6.04248047 C95.16935547 6.65365723 96.19222656 7.26483398 97.24609375 7.89453125 C99.38582457 9.15906636 101.52645963 10.42207257 103.66796875 11.68359375 C104.72951172 12.30911133 105.79105469 12.93462891 106.88476562 13.57910156 C113.85084347 17.6437402 120.92361931 21.51895814 127.99609375 25.39453125 C120.14886357 42.63917776 97.93288422 54.79755736 80.99609375 61.39453125 C60.56288572 68.9360631 38.41301522 71.19102929 16.99609375 66.39453125 C15.88234375 66.1728125 14.76859375 65.95109375 13.62109375 65.72265625 C-2.65667656 62.00402769 -18.3649608 54.30736882 -31.00390625 43.39453125 C-31.90496094 42.63011719 -32.80601562 41.86570312 -33.734375 41.078125 C-38.57869131 36.84918713 -43.17209158 32.57265919 -47.00390625 27.39453125 C-45.54229171 23.00968762 -42.13788048 22.00476711 -38.25390625 19.95703125 C-36.61903006 19.07302165 -34.98494897 18.18754039 -33.3515625 17.30078125 C-32.48547363 16.83285156 -31.61938477 16.36492187 -30.72705078 15.8828125 C-26.01163292 13.30569333 -21.35287233 10.63013416 -16.69140625 7.95703125 C-15.80291992 7.44922119 -14.91443359 6.94141113 -13.99902344 6.41821289 C-13.15887695 5.93731201 -12.31873047 5.45641113 -11.453125 4.9609375 C-10.6698584 4.51637207 -9.8865918 4.07180664 -9.07958984 3.61376953 C-7.39128606 2.62207474 -5.75941321 1.53479256 -4.1484375 0.421875 C-2.00390625 -0.60546875 -2.00390625 -0.60546875 0 0 Z " fill="#DF5B49" transform="translate(216.00390625,301.60546875)"/>
<path d="M0 0 C28.29025165 3.53628146 54.33613068 18.55612303 72 41 C87.59870972 61.72970017 96.43830747 85.15605106 96.3125 111.25 C96.30831055 112.43787109 96.30412109 113.62574219 96.29980469 114.84960938 C96.13454489 127.71174428 93.89245656 139.05445885 89 151 C85.05710627 149.53522385 81.52219567 147.68327785 77.87890625 145.5859375 C77.29769516 145.25260406 76.71648407 144.91927063 76.11766052 144.57583618 C74.26417098 143.51193495 72.41328868 142.4435914 70.5625 141.375 C69.35499175 140.68068681 68.1473107 139.98667405 66.93945312 139.29296875 C64.52536878 137.9060687 62.1122284 136.51754655 59.69970703 135.12792969 C53.80853736 131.73670723 47.9037691 128.36922287 42 125 C42.25266012 123.02347819 42.50532023 121.04695638 42.75798035 119.07043457 C44.50471445 104.12743871 41.82661638 88.42670628 33 76 C23.5495423 64.21297245 14.27542239 57.94809266 0 52 C0 34.84 0 17.68 0 0 Z " fill="#DF5B49" transform="translate(273,146)"/>
<path d="M0 0 C0 17.16 0 34.32 0 52 C-7.92 55.96 -7.92 55.96 -16 60 C-19.66645673 62.97390379 -22.79591458 65.64216768 -26 69 C-26.55816406 69.53882813 -27.11632812 70.07765625 -27.69140625 70.6328125 C-35.49493495 78.74196242 -42.01979873 92.65449257 -41.99291992 103.984375 C-41.84100827 106.00507741 -41.67515892 108.02477886 -41.49560547 110.04321289 C-40.45774837 123.06594659 -40.45774837 123.06594659 -44.4140625 128.02734375 C-47.4901073 130.09820249 -50.88929444 131.42418548 -54.31835938 132.80175781 C-59.39517938 135.07024221 -64.09903152 138.05405263 -68.8706665 140.89620972 C-71.68478892 142.56654112 -74.51600668 144.20622061 -77.3515625 145.83984375 C-78.31916504 146.40050537 -79.28676758 146.96116699 -80.28369141 147.53881836 C-82.81002923 148.89780918 -85.31547743 149.99658566 -88 151 C-88.81645473 147.79265991 -89.62744888 144.58396284 -90.4375 141.375 C-90.78264648 140.01955078 -90.78264648 140.01955078 -91.13476562 138.63671875 C-91.35712891 137.75371094 -91.57949219 136.87070312 -91.80859375 135.9609375 C-92.01282959 135.15446777 -92.21706543 134.34799805 -92.42749023 133.51708984 C-96.44663526 115.8465631 -95.66446922 95.24082125 -90 78 C-89.79101074 77.35998047 -89.58202148 76.71996094 -89.36669922 76.06054688 C-84.35627307 61.3032468 -76.54619575 47.47724032 -66 36 C-65.55285645 35.51047852 -65.10571289 35.02095703 -64.64501953 34.51660156 C-49.38954437 17.99900162 -23.51770802 0 0 0 Z " fill="#DF5B49" transform="translate(238,146)"/>
<path d="M0 0 C0.75355774 0.99509079 0.75355774 0.99509079 1.52233887 2.01028442 C4.69195858 5.8349646 8.14235872 9.31446399 11.64257812 12.83544922 C12.40726913 13.60831772 13.17196014 14.38118622 13.95982361 15.17747498 C16.48056268 17.72294498 19.005354 20.26433513 21.53125 22.8046875 C22.39416153 23.67292271 23.25707306 24.54115791 24.14613342 25.43570328 C28.7056662 30.02190141 33.26882268 34.60446244 37.83447266 39.18457031 C41.6190159 42.98151924 45.39550511 46.78629034 49.16552734 50.59765625 C53.7173054 55.19854185 58.28103896 59.78722914 62.85386658 64.36719131 C64.59649096 66.1165551 66.33483661 67.87019162 68.06886292 69.62807846 C70.48688159 72.07748585 72.91994846 74.51089198 75.35742188 76.94091797 C76.07546494 77.67536636 76.793508 78.40981476 77.53330994 79.16651917 C78.19774612 79.82263687 78.86218231 80.47875458 79.54675293 81.15475464 C80.12044365 81.7317555 80.69413437 82.30875637 81.28520966 82.90324211 C82.96358383 84.22526976 82.96358383 84.22526976 85.13581085 83.79393196 C87.7621072 82.67542925 88.200334 81.31984655 89.359375 78.74609375 C89.75253906 77.89208984 90.14570313 77.03808594 90.55078125 76.15820312 C90.94652344 75.26037109 91.34226562 74.36253906 91.75 73.4375 C92.36681641 72.08495117 92.36681641 72.08495117 92.99609375 70.70507812 C94.01056126 68.47560884 95.01108285 66.24089134 96 64 C100.50802601 65.25805377 103.4912812 66.90407165 107 70 C105.7550659 72.54425853 104.50426112 75.08534361 103.25 77.625 C102.90195312 78.33785156 102.55390625 79.05070312 102.1953125 79.78515625 C100.52400809 83.15871515 98.89324034 86.14724235 96.671875 89.2109375 C94.82504104 91.81005817 94.82504104 91.81005817 94.83984375 94.44921875 C96.61282 98.34737864 99.4793512 100.89829086 102.5625 103.8125 C103.17802734 104.40998047 103.79355469 105.00746094 104.42773438 105.62304688 C105.94293249 107.0912621 107.47030438 108.54689553 109 110 C108.01 110.495 108.01 110.495 107 111 C104.95629883 110.07543945 104.95629883 110.07543945 102.45703125 108.61328125 C101.54759766 108.08669922 100.63816406 107.56011719 99.70117188 107.01757812 C98.74791016 106.45490234 97.79464844 105.89222656 96.8125 105.3125 C95.87857422 104.76916016 94.94464844 104.22582031 93.98242188 103.66601562 C93.06654297 103.13298828 92.15066406 102.59996094 91.20703125 102.05078125 C90.31322754 101.53209473 89.41942383 101.0134082 88.49853516 100.47900391 C86.94958374 99.56210458 85.41451431 98.62072311 83.90380859 97.64208984 C81.91955254 96.332371 81.91955254 96.332371 79 95 C76.7738364 95.41469522 76.7738364 95.41469522 75 97 C74.23945313 97.51175781 73.47890625 98.02351563 72.6953125 98.55078125 C71.84710938 99.13214844 70.99890625 99.71351563 70.125 100.3125 C56.5407517 109.04653347 40.78291514 112.04104208 24.875 109.3125 C8.93479442 105.54956622 -4.5472374 96.38500201 -13.6875 82.8125 C-17.31873972 76.84333881 -19.78026783 70.60717155 -22 64 C-22.2475 63.32710938 -22.495 62.65421875 -22.75 61.9609375 C-27.0929584 48.26855477 -23.56107882 32.66013008 -17.3125 20.25 C-13.96097056 14.48264731 -9.64738906 9.74990499 -5 5 C-4.443125 4.42765625 -3.88625 3.8553125 -3.3125 3.265625 C-2.22232965 2.16306635 -1.11420577 1.07826365 0 0 Z " fill="#C7C9C9" transform="translate(219,207)"/>
<path d="M0 0 C4.28359673 1.8855148 6.15103592 4.35965701 9 8 C8.35599243 8.56545532 8.35599243 8.56545532 7.69897461 9.14233398 C5.75210454 10.88020455 3.84573694 12.65733265 1.9375 14.4375 C1.26138672 15.02982422 0.58527344 15.62214844 -0.11132812 16.23242188 C-3.70497487 19.58198281 -3.70497487 19.58198281 -5.3203125 24.07006836 C-5.10766641 26.48322181 -4.62804114 28.65970822 -4 31 C-3.7728833 31.91499268 -3.5457666 32.82998535 -3.31176758 33.77270508 C-2.27492722 37.78063975 -1.14278138 41.75859616 0.00390625 45.73632812 C2.29154233 54.03858634 2.00850563 58.58808837 -2.23193359 66.06323242 C-2.67102051 66.82611572 -3.11010742 67.58899902 -3.5625 68.375 C-6.67183986 73.82685292 -9.13446186 78.85313791 -10.45703125 85.01953125 C-12.68273558 95.03163009 -14.8306129 102.3171686 -23.65625 108.08203125 C-41.30648176 119 -41.30648176 119 -47 119 C-47 128.9 -47 138.8 -47 149 C-45.02 149.66 -43.04 150.32 -41 151 C-39.19640388 151.93842433 -37.41972406 152.93018232 -35.671875 153.96875 C-34.70765625 154.53980469 -33.7434375 155.11085938 -32.75 155.69921875 C-31.76 156.29347656 -30.77 156.88773438 -29.75 157.5 C-28.74453125 158.09425781 -27.7390625 158.68851563 -26.703125 159.30078125 C-17.38866992 164.84688824 -17.38866992 164.84688824 -16.39672852 167.78979492 C-16.22584717 168.51271729 -16.05496582 169.23563965 -15.87890625 169.98046875 C-12.08117754 185.03301672 -6.67062151 199.99406773 2 213 C1.82533195 218.34278735 0.10531398 223.67147004 -1.2890625 228.80859375 C-1.51779053 229.65292969 -1.74651855 230.49726563 -1.98217773 231.3671875 C-2.44782743 233.06409301 -2.92371418 234.75822659 -3.41040039 236.44921875 C-3.62946045 237.238125 -3.84852051 238.02703125 -4.07421875 238.83984375 C-4.27619873 239.54488037 -4.47817871 240.24991699 -4.6862793 240.97631836 C-5.20737785 244.33770816 -4.40193627 246.33355475 -2.66259766 249.2175293 C1.94705777 255.43045918 6.83060221 261.72772364 14 265 C22.42157122 265.36631296 30.44948521 262.10604399 38.12597656 258.92822266 C42.85275085 257.40161751 45.9094088 257.45025041 50.34765625 259.6875 C51.59050058 260.4509543 52.82852639 261.22228951 54.0625 262 C60.42858107 265.79439302 66.87931904 268.76141582 73.8125 271.375 C75.16468628 271.89018188 75.16468628 271.89018188 76.54418945 272.41577148 C81.12337342 274.10884061 85.41003179 275.32258901 90.25 276.0625 C94.57128676 277.11547177 96.24644645 279.25997947 98.60449219 282.97241211 C99.69597581 284.84482295 100.73028396 286.73180858 101.734375 288.65234375 C102.09072021 289.31314941 102.44706543 289.97395508 102.81420898 290.65478516 C104 293 104 293 105.29711914 296.15380859 C106.91212852 299.62940536 108.3390172 302.23130416 111 305 C116.0107163 306.46472256 120.79286188 306.14559785 125.9375 305.75 C127.3024993 305.68972941 128.66775466 305.63498965 130.03320312 305.5859375 C133.36202577 305.44478601 136.67771219 305.24800311 140 305 C140.4125 304.22809326 140.825 303.45618652 141.25 302.66088867 C142.80387236 299.78141231 144.37882637 296.915738 145.96923828 294.05639648 C146.6508176 292.82061021 147.32384745 291.58006592 147.98779297 290.3347168 C154.22798876 278.65423037 154.22798876 278.65423037 158.96875 276.84375 C160.30476989 276.52781255 161.64942539 276.2464018 163 276 C164.39045117 275.5747185 165.77591796 275.13283952 167.15625 274.67578125 C167.86096436 274.45583496 168.56567871 274.23588867 169.29174805 274.00927734 C179.44237258 270.80641583 189.86394528 266.91645165 198.69384766 260.83300781 C202.97365717 257.9699713 205.75017681 257.65745252 210.63085938 258.47607422 C214.71002844 259.37816581 218.73220157 260.418677 222.75 261.5625 C224.38896299 262.02802705 226.02955849 262.48785185 227.671875 262.94140625 C228.3844043 263.14451416 229.09693359 263.34762207 229.83105469 263.55688477 C232.35546783 264.07262203 234.43032571 264.26999366 237 264 C238.92980526 262.75308301 238.92980526 262.75308301 240.55078125 260.9375 C241.16630859 260.30585938 241.78183594 259.67421875 242.41601562 259.0234375 C243.04185547 258.35570312 243.66769531 257.68796875 244.3125 257 C244.95767578 256.33226562 245.60285156 255.66453125 246.26757812 254.9765625 C247.85688927 253.32838797 249.43337902 251.66970902 251 250 C252.17825358 250.90172468 253.34231577 251.82201502 254.5 252.75 C255.1496875 253.26046875 255.799375 253.7709375 256.46875 254.296875 C258 256 258 256 258 260 C255.61099432 263.45661849 252.60807932 266.36366164 249.6875 269.375 C248.53797852 270.66083984 248.53797852 270.66083984 247.36523438 271.97265625 C241.62505385 277.88909128 241.62505385 277.88909128 237.28491211 278.18530273 C234.40215914 277.68883565 231.77069294 276.93357877 229 276 C227.32839869 275.55266332 225.65525958 275.11102451 223.98046875 274.67578125 C221.56377347 273.99565695 219.15215078 273.30207325 216.74414062 272.59179688 C208.78643791 270.37300977 204.0394661 271.71335673 196.8125 275.625 C187.14442335 280.66871574 176.65199015 285.229949 165.99414062 287.6953125 C162.13202392 289.37821789 160.80821308 291.74387307 158.9140625 295.3203125 C158.27936035 296.45227051 157.6446582 297.58422852 156.99072266 298.75048828 C156.21003418 300.19407715 155.4293457 301.63766602 154.625 303.125 C152.10875 307.70375 149.5925 312.2825 147 317 C132.81 317 118.62 317 104 317 C101.793125 312.524375 99.58625 308.04875 97.3125 303.4375 C91.15990203 291.82037008 91.15990203 291.82037008 80.32446289 284.98339844 C76.79958979 284.0865971 73.2621211 283.33578606 69.68994141 282.65332031 C64.95730494 281.50387983 60.71833371 279.34766106 56.375 277.1875 C55.57537842 276.80053955 54.77575684 276.4135791 53.9519043 276.01489258 C50.81232116 274.47810785 47.91593326 272.94395551 45 271 C36.72622374 271.37645273 29.01672289 273.75565513 21.08789062 276.00390625 C19.6115918 276.40802734 19.6115918 276.40802734 18.10546875 276.8203125 C16.77745239 277.19567139 16.77745239 277.19567139 15.42260742 277.57861328 C12.79074748 278.03639724 11.50923592 277.83234234 9 277 C4.59470884 273.55601526 0.55908663 269.75390943 -3.484375 265.89550781 C-4.82161678 264.63795631 -6.17987671 263.40236644 -7.55859375 262.19042969 C-18.63879406 252.43411127 -18.63879406 252.43411127 -19.23043823 246.80914307 C-18.81475443 241.54390992 -17.00451382 236.83907311 -15 232 C-10.74164023 220.8936752 -10.74164023 220.8936752 -12.98828125 209.484375 C-14.87216381 205.47582046 -16.9724795 201.61065273 -19.10546875 197.73046875 C-21.52021062 193.26180851 -22.76326753 189.28980394 -23.70947266 184.33178711 C-25.1677303 177.02783782 -27.2040055 173.13401301 -33.48828125 168.8515625 C-38.58278989 165.74915481 -43.8244771 162.99696202 -49.2109375 160.43774414 C-50.13132812 159.96328857 -51.05171875 159.48883301 -52 159 C-53.08450439 158.4743042 -54.16900879 157.9486084 -55.28637695 157.40698242 C-58.19576291 154.82635838 -58.43275982 154.43851231 -58.88745117 150.81738281 C-58.9742263 149.11405113 -59.02379586 147.40855783 -59.04296875 145.703125 C-59.06531082 144.79552429 -59.08765289 143.88792358 -59.110672 142.95281982 C-59.14539714 141.03322274 -59.16369394 139.11326809 -59.16674805 137.19335938 C-59.18736869 134.26862395 -59.30895134 131.35931496 -59.43554688 128.4375 C-59.72020457 114.90038035 -59.72020457 114.90038035 -55.34277344 110.06445312 C-51.97294421 107.96998676 -48.68867099 106.4490926 -45 105 C-43.35860176 104.12969861 -41.72871582 103.23693991 -40.1171875 102.3125 C-37.9782804 101.14230083 -35.84020057 99.98210668 -33.671875 98.8671875 C-29.08035129 96.30881082 -27.12699763 94.26983089 -25.62792969 89.21728516 C-25.42071289 88.48558105 -25.21349609 87.75387695 -25 87 C-24.40606004 85.40382802 -23.79455503 83.8141099 -23.16796875 82.23046875 C-22.84691162 81.4096582 -22.52585449 80.58884766 -22.19506836 79.74316406 C-21.69632202 78.47811035 -21.69632202 78.47811035 -21.1875 77.1875 C-20.66845093 75.86637207 -20.66845093 75.86637207 -20.13891602 74.51855469 C-17.86526202 68.8441004 -15.32521474 63.59382999 -11.93359375 58.484375 C-8.90561303 50.42665224 -14.39348579 39.0179958 -16.6484375 31.203125 C-16.96296875 30.0790625 -17.2775 28.955 -17.6015625 27.796875 C-17.89369629 26.77948242 -18.18583008 25.76208984 -18.48681641 24.71386719 C-19.02017664 21.89329992 -19.14617188 20.6049664 -18 18 C-16.23413086 15.89355469 -16.23413086 15.89355469 -13.96484375 13.671875 C-13.15595703 12.87265625 -12.34707031 12.0734375 -11.51367188 11.25 C-10.66353516 10.425 -9.81339844 9.6 -8.9375 8.75 C-8.08349609 7.90953125 -7.22949219 7.0690625 -6.34960938 6.203125 C-4.23964588 4.12852403 -2.12300292 2.06124168 0 0 Z " fill="#CCCECD" transform="translate(131,122)"/>
<path d="M0 0 C14.19 0 28.38 0 43 0 C49.75 12.125 49.75 12.125 51.85449219 15.91455078 C52.41297852 16.91470215 52.97146484 17.91485352 53.546875 18.9453125 C54.39523926 20.46922607 54.39523926 20.46922607 55.26074219 22.02392578 C56.50180311 24.14752665 57.83123704 26.22047871 59.21582031 28.25341797 C61 31 61 31 61 33 C61.96421875 33.09925781 62.9284375 33.19851562 63.921875 33.30078125 C68.59211262 33.97315466 72.84710541 35.53608372 77.25 37.1875 C78.08901855 37.49558594 78.92803711 37.80367187 79.79248047 38.12109375 C85.3700088 40.2241139 90.43132751 42.67314946 95.3828125 46.03125 C102.61895502 48.70970275 111.52892208 44.95881318 118.625 43 C120.61617256 42.45461423 122.60834204 41.91285314 124.6015625 41.375 C125.47119629 41.13523438 126.34083008 40.89546875 127.23681641 40.6484375 C128.14866699 40.43445313 129.06051758 40.22046875 130 40 C131.12519043 39.68957764 132.25038086 39.37915527 133.40966797 39.05932617 C137.82819104 38.98631508 138.97498043 39.97932384 142.08776855 42.89924622 C142.95697937 43.77863106 142.95697937 43.77863106 143.84375 44.67578125 C144.4577063 45.27496872 145.0716626 45.87415619 145.70422363 46.49150085 C146.99485579 47.76357158 148.27525396 49.04609842 149.54589844 50.33813477 C151.48976665 52.30216053 153.47871191 54.21024219 155.4765625 56.11914062 C164.46729212 64.95501363 164.46729212 64.95501363 165.72265625 69.77416992 C165.51711053 72.43289335 164.92803248 74.50399212 164 77 C163.53910659 78.77407646 163.08084319 80.54883794 162.625 82.32421875 C162.09218408 84.11463694 161.55045219 85.90242508 161 87.6875 C157.33158186 97.41139682 157.33158186 97.41139682 157.93359375 107.16796875 C158.42988281 107.83441406 158.92617188 108.50085938 159.4375 109.1875 C163.71789537 115.68292514 166.27194161 122.78382078 169.0703125 130 C169.39725098 130.82097168 169.72418945 131.64194336 170.06103516 132.48779297 C171 135 171 135 171.73193359 137.60986328 C173.84284861 144.43777716 177.00786883 146.95814155 183.234375 150.3046875 C184.78898438 151.08199219 184.78898438 151.08199219 186.375 151.875 C188.42532714 152.95411955 190.47483093 154.03480516 192.5234375 155.1171875 C193.883479 155.80723877 193.883479 155.80723877 195.27099609 156.51123047 C196.17156738 157.00252441 197.07213867 157.49381836 198 158 C199.07999268 158.52843506 200.15998535 159.05687012 201.27270508 159.60131836 C204.18906752 162.16628667 204.43604687 162.55541384 204.91918945 166.16674805 C205.01946102 167.86334296 205.08185182 169.56245395 205.11328125 171.26171875 C205.14036667 172.16694778 205.16745209 173.07217682 205.19535828 174.00483704 C205.23884173 175.92015894 205.26552071 177.83592564 205.27661133 179.75170898 C205.31225086 182.66711928 205.45945055 185.56325213 205.61132812 188.47460938 C205.95450119 201.58725784 205.95450119 201.58725784 202.57873535 205.75448608 C198.53758152 209.17048476 193.92004017 211.1732877 189 213 C179.77457988 216.37924765 179.77457988 216.37924765 173.6484375 223.63330078 C171.43342682 229.14209502 169.72803053 234.77471722 168.046875 240.46484375 C166.1906342 246.72830481 163.67931337 252.26200128 160.29736328 257.83984375 C156.04069936 265.34575393 159.12993893 272.9787038 161.26953125 280.77148438 C161.8455084 282.8189648 162.42367586 284.8658302 163.00390625 286.91210938 C163.27332031 287.89630859 163.54273438 288.88050781 163.8203125 289.89453125 C164.07055176 290.77987549 164.32079102 291.66521973 164.57861328 292.57739258 C165.02614517 295.15031198 164.92094252 296.57514497 164 299 C162.15234375 301.140625 162.15234375 301.140625 159.9375 303.25 C159.20402344 303.95640625 158.47054688 304.6628125 157.71484375 305.390625 C157.14894531 305.92171875 156.58304687 306.4528125 156 307 C154.82174642 306.09827532 153.65768423 305.17798498 152.5 304.25 C151.8503125 303.73953125 151.200625 303.2290625 150.53125 302.703125 C149 301 149 301 149 297 C149.66 296.34 150.32 295.68 151 295 C150.81735693 289.8657003 149.9788771 285.63879886 148.203125 280.828125 C142.57242912 265.23735993 142.57242912 265.23735993 145.80859375 257.5703125 C148.11641146 253.10755959 150.83740027 248.90336412 153.50537109 244.64990234 C156.00277976 240.22212161 157.5017491 235.52787145 159 230.6875 C159.39771606 229.40721924 159.39771606 229.40721924 159.8034668 228.10107422 C160.05394775 227.28783691 160.30442871 226.47459961 160.5625 225.63671875 C160.81394775 224.85216309 161.06539551 224.06760742 161.32446289 223.25927734 C162.02975313 221.04533366 162.02975313 221.04533366 162.39233398 218.90087891 C163.64780881 213.63953667 166.37908492 211.75664527 170.91015625 208.9375 C173.27160183 207.58130755 175.66404995 206.28924258 178.0625 205 C179.28568096 204.31590012 180.50770043 203.62971909 181.72851562 202.94140625 C190.62205263 198 190.62205263 198 193 198 C193 188.1 193 178.2 193 168 C191.02 167.34 189.04 166.68 187 166 C185.62271651 165.31112153 184.26656309 164.57745757 182.94140625 163.79296875 C182.22533203 163.37080078 181.50925781 162.94863281 180.77148438 162.51367188 C179.67803711 161.8572168 179.67803711 161.8572168 178.5625 161.1875 C177.83740234 160.76146484 177.11230469 160.33542969 176.36523438 159.89648438 C174.22514151 158.6255038 172.11348083 157.31461009 170 156 C169.34370605 155.62810547 168.68741211 155.25621094 168.01123047 154.87304688 C162.68346582 151.59829792 161.47241974 148.04308578 160 142.125 C158.23143814 135.85070153 156.30996688 129.88916135 153.5 124 C153.21278076 123.38576172 152.92556152 122.77152344 152.62963867 122.13867188 C151.2843858 119.34448138 149.84709622 116.77889678 148.08203125 114.2265625 C145.14699123 109.91147055 143.86720428 107.37724225 144.37890625 102.0703125 C145.1466891 98.37726006 146.18918199 94.78171715 147.31689453 91.18408203 C148.20040334 88.35925366 148.9972233 85.51500279 149.77392578 82.65917969 C150.28395098 80.79201582 150.82278811 78.9327918 151.36328125 77.07421875 C152.17850174 73.13815419 151.70540311 71.23668601 149.72607422 67.76660156 C145.22350738 61.36593249 140.3905066 55.05739904 133 52 C123.40070171 51.91439168 114.17546734 55.59630246 105.35473633 59.09350586 C98.5732513 60.92595284 93.46500736 58.52592276 87.5625 55.3125 C80.8283308 51.79829824 74.03990415 48.94202794 66.9140625 46.32421875 C66.2950708 46.09605469 65.6760791 45.86789063 65.03833008 45.6328125 C62.95773874 44.93524667 62.95773874 44.93524667 60.5612793 44.6015625 C56.2639421 43.77300294 53.77882893 42.94547025 50.94042969 39.49975586 C48.98079159 36.27309276 47.24612281 33.00366001 45.5625 29.625 C44.6662793 27.91957031 44.6662793 27.91957031 43.75195312 26.1796875 C42.64178153 24.06602002 41.54515574 21.94513853 40.46704102 19.81494141 C39.74085571 18.42154541 39.74085571 18.42154541 39 17 C38.36989014 15.59657349 38.36989014 15.59657349 37.72705078 14.16479492 C36.13589101 11.68759889 36.13589101 11.68759889 32.99731445 11.43237305 C31.7980835 11.45855713 30.59885254 11.48474121 29.36328125 11.51171875 C28.06455078 11.52783203 26.76582031 11.54394531 25.42773438 11.56054688 C24.05597301 11.60232391 22.68422823 11.64464865 21.3125 11.6875 C19.92907618 11.71258255 18.54560923 11.73539582 17.16210938 11.75585938 C13.77365236 11.81489173 10.38736615 11.89719918 7 12 C4.73897707 15.9506161 2.4786581 19.90163378 0.21899414 23.85302734 C-0.55001743 25.19753945 -1.31922217 26.5419411 -2.08862305 27.88623047 C-3.19370359 29.81709332 -4.29809171 31.74835074 -5.40234375 33.6796875 C-5.74716293 34.28183075 -6.09198212 34.883974 -6.44725037 35.50436401 C-7.67405636 37.65120217 -8.89395014 39.78790029 -10 42 C-12.51687943 42.80673086 -15.00945263 43.51574782 -17.5625 44.1875 C-29.54625239 47.52929412 -40.83901881 52.20015922 -51.27734375 59.03125 C-58.68086438 61.66550124 -67.51247133 57.94999991 -74.75 55.9375 C-76.76402848 55.37833199 -78.77961378 54.82473461 -80.796875 54.27734375 C-81.67698242 54.03234131 -82.55708984 53.78733887 -83.46386719 53.53491211 C-86.09361336 52.9802554 -88.32232372 52.76151057 -91 53 C-91.66 53.66 -92.32 54.32 -93 55 C-95.80754639 55 -97.41266933 54.57615862 -99.4375 52.58984375 C-100.67632119 51.10114669 -101.84326078 49.55333552 -103 48 C-100.4141975 44.27896713 -97.86787478 41.40518978 -94 39 C-88.69965562 38.8326207 -83.98752386 40.39839542 -79 42 C-76.72822433 42.68108755 -74.4533829 43.35102061 -72.17773438 44.01904297 C-70.71741267 44.45478412 -69.26130331 44.90498199 -67.81054688 45.37158203 C-58.8325054 48.19824206 -54.24977294 46.51879545 -46.1875 42.375 C-35.55288994 36.95633804 -35.55288994 36.95633804 -30.3359375 35.84375 C-22.67200467 34.17157221 -18.49106059 32.25302435 -13.9765625 25.54296875 C-10.88363182 20.45913687 -8.09378121 15.24225239 -5.46948242 9.90258789 C-3.76624493 6.53827645 -1.87088523 3.27404916 0 0 Z " fill="#FAFDFD" transform="translate(235,73)"/>
<path d="M0 0 C1.17825358 0.90172468 2.34231577 1.82201502 3.5 2.75 C4.47453125 3.51570312 4.47453125 3.51570312 5.46875 4.296875 C7 6 7 6 7 10 C4.91015625 12.33984375 4.91015625 12.33984375 2.0625 14.9375 C-16.36721887 32.50774029 -28.47826973 59.29269816 -29.3359375 84.75 C-29.36522168 87.16652431 -29.37772259 89.58329979 -29.375 92 C-29.37556396 93.26859863 -29.37612793 94.53719727 -29.37670898 95.84423828 C-29.2710855 104.94863633 -28.25344229 113.37912052 -25.97265625 122.1796875 C-25.04609119 125.81896713 -24.46106135 129.28238954 -24 133 C-22.32680603 132.03518554 -20.65363383 131.07033331 -18.98046875 130.10546875 C-17.90345703 129.48454346 -16.82644531 128.86361816 -15.71679688 128.22387695 C-13.35372441 126.86101381 -10.99185757 125.49609185 -8.63085938 124.12963867 C-3.1417888 120.95445052 2.35238689 117.79132171 7.88671875 114.6953125 C8.75772217 114.20393799 9.62872559 113.71256348 10.52612305 113.20629883 C12.14118778 112.29636055 13.76098122 111.39475066 15.38598633 110.50268555 C16.10423584 110.09574463 16.82248535 109.68880371 17.5625 109.26953125 C18.18253906 108.92510986 18.80257812 108.58068848 19.44140625 108.22583008 C21.35123066 106.72375797 22.0636027 105.21608205 23 103 C23.21914062 103.81082031 23.43828125 104.62164062 23.6640625 105.45703125 C27.16734666 117.69004382 32.11389479 126.86580556 41 136 C38.33131723 138.85780802 35.84822633 140.8418934 32.39453125 142.6640625 C31.05406738 143.38082153 31.05406738 143.38082153 29.68652344 144.11206055 C28.7380957 144.61133057 27.78966797 145.11060059 26.8125 145.625 C18.13149987 150.26957948 9.59566907 155.0941704 1.140625 160.13671875 C-0.54625388 161.1375163 -2.24565543 162.12282771 -4 163 C0.52541594 176.55230382 18.52029492 186.93727299 30.63232422 193.07641602 C57.55490218 206.12079497 88.71950596 209.82945608 117.46923828 200.17041016 C134.35269816 194.01793465 148.15961858 185.45593886 161 173 C163.30446754 170.96203551 165.6453847 168.98001741 168 167 C170.31 169.31 172.62 171.62 175 174 C172.98256622 178.03486756 171.22361137 179.91966024 168 183 C167.52949219 183.51433594 167.05898438 184.02867187 166.57421875 184.55859375 C149.9287074 202.44322505 120.87758224 215.76980178 96.58178711 217.20141602 C92.6988961 217.30452404 88.82126549 217.33328816 84.9375 217.3125 C84.25157776 217.31100952 83.56565552 217.30951904 82.85894775 217.3079834 C72.29756532 217.26670995 62.26919428 216.66195874 52 214 C50.89785156 213.7215625 49.79570312 213.443125 48.66015625 213.15625 C17.28079252 204.33199256 -9.59868754 183.11845304 -26 155 C-31.73995827 144.52925279 -36.07850007 133.57276327 -39 122 C-39.16371094 121.35160156 -39.32742187 120.70320313 -39.49609375 120.03515625 C-47.24900836 87.67795063 -39.80618196 55.11803521 -23 27 C-16.49797958 17.01475436 -8.51466515 8.2963404 0 0 Z " fill="#ADADAD" transform="translate(174,164)"/>
<path d="M0 0 C0.86367188 0.2784375 1.72734375 0.556875 2.6171875 0.84375 C18.27425892 6.50175712 30.06374288 18.79357129 37.25 33.5703125 C43.13061004 47.36380223 44.18652841 62.8097952 39 77 C37.77009983 79.93797884 36.4451286 82.81848199 35.0625 85.6875 C34.72669922 86.39567871 34.39089844 87.10385742 34.04492188 87.83349609 C31.55512539 92.74205522 31.55512539 92.74205522 29.09785175 93.88385296 C27 94 27 94 25.22439098 92.85359669 C24.62208314 92.25317397 24.0197753 91.65275126 23.3992157 91.03413391 C22.70231125 90.35132858 22.0054068 89.66852325 21.28738403 88.96502686 C20.53343353 88.2009552 19.77948303 87.43688354 19.00268555 86.6496582 C18.20070236 85.85643661 17.39871918 85.06321503 16.57243347 84.24595642 C13.9144428 81.61004367 11.27524034 78.95617216 8.63671875 76.30078125 C6.80231213 74.46974027 4.96716361 72.63944226 3.13130188 70.80986023 C-0.71762281 66.96831838 -4.5575543 63.11809738 -8.39086914 59.26098633 C-12.82594572 54.79869727 -17.278749 50.35470774 -21.74119025 45.91979724 C-26.02942216 41.65696784 -30.30348176 37.38024695 -34.57170677 33.09737206 C-36.39137473 31.27435935 -38.21478982 29.45507925 -40.04192543 27.63955116 C-42.59010782 25.10401165 -45.12179973 22.5530946 -47.6496582 19.99731445 C-48.41372986 19.24336395 -49.17780151 18.48941345 -49.96502686 17.71261597 C-50.64783218 17.01571152 -51.33063751 16.31880707 -52.03413391 15.6007843 C-52.63455663 14.99847646 -53.23497934 14.39616861 -53.85359669 13.77560902 C-55 12 -55 12 -54.80182171 9.87260723 C-53.01175611 5.69201479 -47.88534535 3.90939897 -44 2 C-29.3890855 -3.7968209 -15.06763075 -4.86864949 0 0 Z " fill="#F3F6F6" transform="translate(275,198)"/>
<path d="M0 0 C4.50802601 1.25805377 7.4912812 2.90407165 11 6 C9.7550659 8.54425853 8.50426112 11.08534361 7.25 13.625 C6.90195312 14.33785156 6.55390625 15.05070312 6.1953125 15.78515625 C4.52400809 19.15871515 2.89324034 22.14724235 0.671875 25.2109375 C-1.17495896 27.81005817 -1.17495896 27.81005817 -1.16015625 30.44921875 C0.61282 34.34737864 3.4793512 36.89829086 6.5625 39.8125 C7.48579102 40.7087207 7.48579102 40.7087207 8.42773438 41.62304688 C9.94293249 43.0912621 11.47030438 44.54689553 13 46 C12.01 46.495 12.01 46.495 11 47 C8.97216797 46.09130859 8.97216797 46.09130859 6.4921875 44.6484375 C5.58726562 44.12636719 4.68234375 43.60429687 3.75 43.06640625 C2.80125 42.50824219 1.8525 41.95007813 0.875 41.375 C-0.05054688 40.84003906 -0.97609375 40.30507813 -1.9296875 39.75390625 C-7.35376079 36.60518574 -12.70071942 33.35413289 -18 30 C-17.04956626 28.66102417 -16.08940853 27.32894573 -15.125 26 C-14.32449219 24.88625 -14.32449219 24.88625 -13.5078125 23.75 C-12.76144531 22.88375 -12.76144531 22.88375 -12 22 C-11.34 22 -10.68 22 -10 22 C-9.75507813 21.35675781 -9.51015625 20.71351563 -9.2578125 20.05078125 C-7.59995748 16.02971054 -5.73899262 12.1163749 -3.875 8.1875 C-3.50246094 7.39923828 -3.12992187 6.61097656 -2.74609375 5.79882812 C-1.83204476 3.86526295 -0.91620158 1.93254612 0 0 Z " fill="#BFC2C2" transform="translate(315,271)"/>
<path d="M0 0 C0.85916016 -0.00773438 1.71832031 -0.01546875 2.60351562 -0.0234375 C7.76624776 -0.00766139 12.04918686 0.57855507 16.9375 2.25 C16.9375 5.88 16.9375 9.51 16.9375 13.25 C15.57625 13.085 14.215 12.92 12.8125 12.75 C2.24571728 11.71872983 -7.68114731 12.0053832 -18.0625 14.25 C-18.0625 10.29 -18.0625 6.33 -18.0625 2.25 C-11.91134931 0.45383549 -6.39176675 -0.05780045 0 0 Z " fill="#BFC2C2" transform="translate(256.0625,183.75)"/>
<path d="M0 0 C3.92175855 1.96087927 5.94122867 3.70880463 8.984375 6.7890625 C9.44483215 7.25234955 9.90528931 7.7156366 10.37969971 8.19296265 C11.84125078 9.66565898 13.29567168 11.14517403 14.75 12.625 C15.74302611 13.62806322 16.73651089 14.63067257 17.73046875 15.6328125 C20.15897941 18.08330835 22.58114675 20.5399667 25 23 C24.34 23.33 23.68 23.66 23 24 C20.97216797 23.09130859 20.97216797 23.09130859 18.4921875 21.6484375 C17.58726562 21.12636719 16.68234375 20.60429687 15.75 20.06640625 C14.80125 19.50824219 13.8525 18.95007813 12.875 18.375 C11.94945312 17.84003906 11.02390625 17.30507813 10.0703125 16.75390625 C4.64623921 13.60518574 -0.70071942 10.35413289 -6 7 C-4.02 4.69 -2.04 2.38 0 0 Z " fill="#A4A4A4" transform="translate(303,294)"/>
<path d="M0 0 C2.93230193 1.32120828 4.98664899 2.74638197 7.234375 5.0390625 C8.09482422 5.90917969 8.09482422 5.90917969 8.97265625 6.796875 C9.55917969 7.40015625 10.14570313 8.0034375 10.75 8.625 C11.35199219 9.23601562 11.95398438 9.84703125 12.57421875 10.4765625 C14.05405305 11.97988624 15.52764676 13.48934856 17 15 C16.01 15.495 16.01 15.495 15 16 C11.97137288 14.74462124 9.19745791 12.97344317 6.375 11.3125 C5.57320313 10.86455078 4.77140625 10.41660156 3.9453125 9.95507812 C3.18734375 9.51228516 2.429375 9.06949219 1.6484375 8.61328125 C0.94895996 8.20891846 0.24948242 7.80455566 -0.47119141 7.38793945 C-0.97569824 6.92991943 -1.48020508 6.47189941 -2 6 C-2 2 -2 2 0 0 Z " fill="#AEACAB" transform="translate(311,302)"/>
</svg>
