<?xml version="1.0" encoding="UTF-8"?>
<svg version="1.1" xmlns="http://www.w3.org/2000/svg" width="96" height="96">
<path d="M0 0 C8.80288754 6.34043826 15.4186507 14.72648904 17.58203125 25.4921875 C18.92007691 37.90936834 17.85729499 48.88109459 10.39453125 59.2421875 C3.58210875 67.3274193 -4.72289951 73.55522767 -15.48876953 74.71533203 C-28.40007937 75.61089799 -39.16843729 74.04490094 -49.3515625 65.46484375 C-57.86959925 57.33325857 -62.42046403 48.68416257 -62.88867188 36.85693359 C-63.04371176 24.34263074 -60.22647828 14.71931927 -51.41796875 5.4921875 C-37.63784493 -7.66275112 -16.31305228 -10.17259803 0 0 Z " fill="#E64B1A" transform="translate(70.41796875,13.5078125)"/>
<path d="M0 0 C2.22265625 0.01171875 2.22265625 0.01171875 5.97265625 0.38671875 C5.36187551 4.54002777 4.3509208 7.89859742 1.97265625 11.38671875 C-1.52734375 12.07421875 -1.52734375 12.07421875 -5.02734375 12.38671875 C-7.6118966 14.2820575 -7.99009881 15.27498392 -9.02734375 18.38671875 C-10.61029157 18.44109482 -12.19378631 18.47968146 -13.77734375 18.51171875 C-14.6590625 18.53492187 -15.54078125 18.558125 -16.44921875 18.58203125 C-19.14092955 18.37811377 -20.72639349 17.75223596 -23.02734375 16.38671875 C-21.77757619 12.73355204 -21.35635622 11.60606039 -18.02734375 9.38671875 C-16.91359375 9.40734375 -15.79984375 9.42796875 -14.65234375 9.44921875 C-10.60030217 9.37935596 -9.14195029 8.9120754 -6.02734375 6.38671875 C-5.42921875 5.33484375 -4.83109375 4.28296875 -4.21484375 3.19921875 C-2.02734375 0.38671875 -2.02734375 0.38671875 0 0 Z " fill="#FEF7F5" transform="translate(62.02734375,49.61328125)"/>
<path d="M0 0 C2.1875 2.9375 2.1875 2.9375 4 6 C5.155 6.12375 6.31 6.2475 7.5 6.375 C11 7 11 7 12.33984375 8.71875 C14.00522364 11.99024359 15 14.29002222 15 18 C9.75149105 18.52485089 9.75149105 18.52485089 7 18 C4.8125 15.1875 4.8125 15.1875 3 12 C-1.2395515 8.46704042 -4.71438056 8.73123969 -10 9 C-11.98 5.535 -11.98 5.535 -14 2 C-9.51029541 -0.57742301 -5.06793092 -1.01358618 0 0 Z " fill="#FDF6F4" transform="translate(53,28)"/>
<path d="M0 0 C2.81986541 1.03395065 3.85795028 1.76530916 5.4375 4.375 C5.623125 5.24125 5.80875 6.1075 6 7 C5.01439389 8.34400833 4.01241685 9.67607028 3 11 C2.69091749 14.4617241 2.4901037 16.98020741 4.0625 20.125 C5.37583963 22.75167927 4.84737719 24.24602412 4 27 C3.34 27.99 2.68 28.98 2 30 C-0.89384836 29.00212126 -1.99477907 28.00720129 -3.8125 25.5 C-5.21942014 21.35328801 -4.86600335 18.58517594 -4.2421875 14.3203125 C-3.84720931 11.91199071 -3.84720931 11.91199071 -4.75 9.3125 C-5.1278973 5.81694998 -3.22490639 4.03400843 -1.12890625 1.35546875 C-0.75636719 0.90816406 -0.38382813 0.46085937 0 0 Z " fill="#FDF6F4" transform="translate(34,33)"/>
<path d="M0 0 C0.66 0.66 1.32 1.32 2 2 C1.67028521 5.29714793 1.3773161 6.6226839 -1 9 C-4.29714793 8.67028521 -5.6226839 8.3773161 -8 6 C-7.75 2.9375 -7.75 2.9375 -7 0 C-4.29393021 -1.35303489 -2.8671629 -0.7884698 0 0 Z " fill="#FDF6F3" transform="translate(63,64)"/>
<path d="M0 0 C3.29714793 0.32971479 4.6226839 0.6226839 7 3 C6.67028521 6.29714793 6.3773161 7.6226839 4 10 C0.70285207 9.67028521 -0.6226839 9.3773161 -3 7 C-2.67028521 3.70285207 -2.3773161 2.3773161 0 0 Z " fill="#FDF5F3" transform="translate(22,43)"/>
<path d="M0 0 C2.4375 0.8125 2.4375 0.8125 4.4375 2.8125 C4.25 5.3125 4.25 5.3125 3.4375 7.8125 C0.4375 9.8125 0.4375 9.8125 -2.25 9.4375 C-3.013125 9.23125 -3.77625 9.025 -4.5625 8.8125 C-5.89091008 3.37809513 -5.89091008 3.37809513 -4.4375 0.875 C-2.5625 -0.1875 -2.5625 -0.1875 0 0 Z " fill="#FDF6F3" transform="translate(60.5625,23.1875)"/>
</svg>
