<?xml version="1.0" encoding="UTF-8"?>
<svg version="1.1" xmlns="http://www.w3.org/2000/svg" width="512" height="512">
<path d="M0 0 C1.17093482 -0.04217846 1.17093482 -0.04217846 2.36552489 -0.08520901 C7.58391665 -0.12290345 10.57110886 0.8074875 14.65151978 4.33981323 C17.85386472 8.29021735 18.08202901 11.89660527 18.03919983 16.81013489 C18.04727814 17.92500278 18.04727814 17.92500278 18.05551964 19.06239325 C18.0698056 21.54818371 18.0626941 24.03344214 18.05557251 26.51925659 C18.06127575 28.30334399 18.06823984 30.08742775 18.07637024 31.87150574 C18.09432183 36.71448584 18.0931295 41.55728495 18.08742785 46.40028834 C18.0843389 50.44361603 18.09042519 54.48690881 18.0964666 58.53023154 C18.11051679 68.06892043 18.10894642 77.60751977 18.0975647 87.14620972 C18.08608266 96.98640644 18.10015948 106.82633064 18.12696117 116.66649145 C18.14911309 125.11589253 18.1557567 133.56520804 18.14988476 142.0146361 C18.14651281 147.06069085 18.14894613 152.10657091 18.16613579 157.15260124 C18.18159472 161.89773125 18.17766106 166.64245734 18.15883064 171.38757133 C18.15514185 173.12822899 18.15826169 174.8689165 18.16871643 176.60954666 C18.18190871 178.98766649 18.1703958 181.36444563 18.15272522 183.74250793 C18.16713273 184.77340535 18.16713273 184.77340535 18.1818313 185.82512897 C18.10641331 190.76504418 16.81126783 193.58238557 13.65151978 197.33981323 C9.31191585 201.01422357 5.0457388 200.76586769 -0.37532043 200.72749329 C-1.28599134 200.73287882 -2.19666225 200.73826436 -3.13492924 200.7438131 C-6.18728866 200.75812379 -9.23921631 200.75098121 -12.29159546 200.74386597 C-14.47961781 200.74956789 -16.66763719 200.75653146 -18.85565186 200.7646637 C-24.79982672 200.78262962 -30.74385424 200.78142025 -36.68804812 200.77572131 C-41.6484595 200.77263448 -46.60884237 200.77871628 -51.56924969 200.78476006 C-63.93937751 200.79961874 -76.3094331 200.79598227 -88.67955966 200.78389675 C-99.41938838 200.77396439 -110.15904482 200.78690499 -120.89884698 200.81083094 C-131.93023467 200.83522107 -142.9615382 200.84443028 -153.99295193 200.83817822 C-160.18476716 200.83480407 -166.37644003 200.83725424 -172.5682354 200.85442924 C-178.39019751 200.86987309 -184.21183017 200.86597103 -190.03377914 200.8471241 C-192.17112603 200.84343118 -194.30849719 200.84656707 -196.44582176 200.85700989 C-199.36248186 200.87017305 -202.27804379 200.85871342 -205.19465637 200.84101868 C-206.04145019 200.85062368 -206.88824402 200.86022869 -207.76069826 200.87012476 C-213.07386183 200.8037539 -216.19851266 199.95947045 -220.34848022 196.33981323 C-223.43893191 192.45612344 -223.72622288 189.44810171 -223.73616028 184.55284119 C-223.74154582 183.88309987 -223.74693135 183.21335855 -223.75248009 182.52332205 C-223.76675131 180.28626393 -223.75965838 178.04979824 -223.75253296 175.81271362 C-223.75823699 174.20596339 -223.76520138 172.59921721 -223.77333069 170.99247742 C-223.79127372 166.6329471 -223.79009157 162.27361794 -223.7843883 157.91406178 C-223.78129808 154.27335582 -223.78738706 150.63268858 -223.79342705 146.99198812 C-223.80747445 138.4025748 -223.80590923 129.81326092 -223.79452515 121.22384644 C-223.78304363 112.36520665 -223.79711962 103.5068696 -223.82392162 94.64826971 C-223.84607919 87.03962385 -223.85271588 79.43107301 -223.84684521 71.82239717 C-223.84347456 67.27935725 -223.8458978 62.73651138 -223.86309624 58.19349861 C-223.87856423 53.92112007 -223.87461165 49.64918996 -223.85579109 45.37682915 C-223.85210478 43.81032777 -223.85521498 42.24379317 -223.86567688 40.67732239 C-223.87888671 38.53562191 -223.86734193 36.39540603 -223.84968567 34.25376892 C-223.84947639 33.05640138 -223.8492671 31.85903383 -223.84905148 30.62538242 C-223.11603013 25.81409463 -220.93319527 22.84606226 -217.44692039 19.53240776 C-208.494492 14.44452521 -193.77062066 15.49043952 -183.54916382 14.64401245 C-181.68644181 14.48644724 -179.8237514 14.32850813 -177.96109009 14.17022705 C-172.9363107 13.74451235 -167.91106503 13.32457409 -162.88567305 12.90615988 C-158.671551 12.55485388 -154.45764999 12.20093344 -150.24373877 11.84710896 C-140.2895876 11.01144609 -130.33503014 10.18075164 -120.38021851 9.35299683 C-110.15671352 8.50279602 -99.93400693 7.64343869 -89.71164072 6.77966297 C-80.89549075 6.03508696 -72.0788381 5.29667919 -63.26177466 4.56299984 C-58.01341305 4.12619216 -52.76527237 3.68707284 -47.51762009 3.24181747 C-42.57524589 2.82270137 -37.63228054 2.4113714 -32.68878937 2.00564957 C-30.89046629 1.8568046 -29.0923557 1.70536187 -27.29450607 1.55090332 C-18.20530405 0.77164842 -9.12283658 0.17306807 0 0 Z " fill="#5EC313" transform="translate(494.3484802246094,40.660186767578125)"/>
<path d="M0 0 C0.91067091 -0.00538554 1.82134181 -0.01077108 2.75960881 -0.01631981 C5.81196822 -0.0306305 8.86389588 -0.02348792 11.91627502 -0.01637268 C14.10429738 -0.02207461 16.29231675 -0.02903817 18.48033142 -0.03717041 C24.42450629 -0.05513634 30.36853381 -0.05392696 36.31272769 -0.04822803 C41.27313906 -0.04514119 46.23352193 -0.05122299 51.19392926 -0.05726677 C63.56405708 -0.07212546 75.93411267 -0.06848898 88.30423922 -0.05640347 C99.04406795 -0.0464711 109.78372439 -0.05941171 120.52352654 -0.08333766 C131.55491424 -0.10772778 142.58621777 -0.11693699 153.61763149 -0.11068493 C159.80944672 -0.10731078 166.0011196 -0.10976096 172.19291496 -0.12693596 C178.01487707 -0.14237981 183.83650973 -0.13847774 189.65845871 -0.11963081 C191.7958056 -0.11593789 193.93317676 -0.11907378 196.07050133 -0.1295166 C198.98716142 -0.14267976 201.90272336 -0.13122013 204.81933594 -0.11352539 C205.66612976 -0.1231304 206.51292358 -0.1327354 207.38537782 -0.14263147 C212.6985414 -0.07626061 215.82319223 0.76802284 219.97315979 4.38768005 C223.17550473 8.33808418 223.40366903 11.94447209 223.36083984 16.85800171 C223.36891815 17.9728696 223.36891815 17.9728696 223.37715966 19.11026007 C223.39144561 21.59605053 223.38433412 24.08130896 223.37721252 26.56712341 C223.38291577 28.35121081 223.38987985 30.13529457 223.39801025 31.91937256 C223.41596185 36.76235266 223.41476951 41.60515177 223.40906787 46.44815516 C223.40597891 50.49148285 223.41206521 54.53477563 223.41810662 58.57809836 C223.43215681 68.11678725 223.43058643 77.65538659 223.41920471 87.19407654 C223.40772268 97.03427326 223.4217995 106.87419746 223.44860119 116.71435827 C223.4707531 125.16375935 223.47739672 133.61307486 223.47152478 142.06250292 C223.46815282 147.10855767 223.47058615 152.15443773 223.4877758 157.20046806 C223.50323474 161.94559808 223.49930107 166.69032416 223.48047066 171.43543816 C223.47678187 173.17609581 223.4799017 174.91678332 223.49035645 176.65741348 C223.50354873 179.03553331 223.49203581 181.41231245 223.47436523 183.79037476 C223.48877274 184.82127217 223.48877274 184.82127217 223.50347131 185.87299579 C223.42805332 190.812911 222.13290785 193.63025239 218.97315979 197.38768005 C214.78582499 200.90237634 210.62257391 200.79605382 205.38414001 200.66499329 C204.54745926 200.65371804 203.71077851 200.6424428 202.8487438 200.63082588 C193.66932234 200.4551236 184.54115892 199.73622901 175.3974762 198.95066833 C173.52421924 198.79562119 171.65090593 198.64125363 169.77754211 198.48750305 C164.7525426 198.07307301 159.728406 197.64895706 154.70439959 197.22267771 C149.41521546 196.7753573 144.12533914 196.33636421 138.83555603 195.89619446 C129.96413454 195.15674063 121.09324527 194.41115697 112.22267151 193.66160583 C101.99677411 192.7975859 91.77017449 191.94231566 81.54313529 191.09192479 C71.65694896 190.26975866 61.77120497 189.44239302 51.88567734 188.61234665 C47.69875166 188.2608182 43.51169625 187.91089864 39.32452774 187.56227493 C34.39100846 187.15120091 29.45790021 186.73549019 24.52506256 186.31631851 C22.72457413 186.16401755 20.92395808 186.01321603 19.12320328 185.8640976 C-10.74104213 183.38777517 -10.74104213 183.38777517 -16.02684021 177.38768005 C-18.30111091 173.8640203 -18.28267458 170.86371137 -18.29426575 166.72096252 C-18.30106242 165.71763219 -18.30106242 165.71763219 -18.30799639 164.69403255 C-18.32065086 162.45398664 -18.31901938 160.21418353 -18.31736755 157.97410583 C-18.32335215 156.36750475 -18.33015754 154.76090655 -18.33772278 153.15431213 C-18.35539683 148.79063357 -18.36007874 144.42703344 -18.36135435 140.06332254 C-18.36325357 136.42018774 -18.37061135 132.77707121 -18.37769854 129.13394344 C-18.39398538 120.53833712 -18.39886722 111.94277269 -18.39744568 103.34715271 C-18.39624409 94.48116186 -18.41734856 85.61541439 -18.44893301 76.74948514 C-18.47508674 69.13662322 -18.48581336 61.52384083 -18.48453486 53.91093433 C-18.48402497 49.36451277 -18.48972322 44.81830749 -18.51089096 40.27193069 C-18.53025824 35.99548092 -18.53040832 31.71945406 -18.5158577 27.44298935 C-18.51376662 25.8748691 -18.51848835 24.30672249 -18.53057861 22.73864746 C-18.54603613 20.5947238 -18.53672187 18.45225756 -18.52131653 16.30836487 C-18.52240606 15.10969851 -18.5234956 13.91103214 -18.52461815 12.67604256 C-17.77396464 7.71716301 -15.63219519 4.74695916 -11.84101772 1.53691006 C-7.85407668 -0.0912432 -4.26871853 -0.03021726 0 0 Z " fill="#FFCD13" transform="translate(289.02684020996094,270.61231994628906)"/>
<path d="M0 0 C0.91067091 -0.00538554 1.82134181 -0.01077108 2.75960881 -0.01631981 C5.81196822 -0.0306305 8.86389588 -0.02348792 11.91627502 -0.01637268 C14.10429738 -0.02207461 16.29231675 -0.02903817 18.48033142 -0.03717041 C24.42450629 -0.05513634 30.36853381 -0.05392696 36.31272769 -0.04822803 C41.27313906 -0.04514119 46.23352193 -0.05122299 51.19392926 -0.05726677 C63.56405708 -0.07212546 75.93411267 -0.06848898 88.30423922 -0.05640347 C99.04406795 -0.0464711 109.78372439 -0.05941171 120.52352654 -0.08333766 C131.55491424 -0.10772778 142.58621777 -0.11693699 153.61763149 -0.11068493 C159.80944672 -0.10731078 166.0011196 -0.10976096 172.19291496 -0.12693596 C178.01487707 -0.14237981 183.83650973 -0.13847774 189.65845871 -0.11963081 C191.7958056 -0.11593789 193.93317676 -0.11907378 196.07050133 -0.1295166 C198.98716142 -0.14267976 201.90272336 -0.13122013 204.81933594 -0.11352539 C205.66612976 -0.1231304 206.51292358 -0.1327354 207.38537782 -0.14263147 C212.6985414 -0.07626061 215.82319223 0.76802284 219.97315979 4.38768005 C223.01081257 8.22449066 223.35072317 11.15477033 223.36083984 15.98483276 C223.36891815 16.9588181 223.36891815 16.9588181 223.37715966 17.9524799 C223.39142619 20.12044651 223.38433917 22.28780139 223.37721252 24.45579529 C223.38291681 26.01328522 223.3898813 27.57077096 223.39801025 29.12825012 C223.41595056 33.35348907 223.41477166 37.57852044 223.40906787 41.80378604 C223.40597724 45.3326527 223.41206708 48.86147941 223.41810662 52.39034039 C223.43215313 60.71606619 223.43058955 69.04168938 223.41920471 77.36741638 C223.40772335 85.95340192 223.42179909 94.53907511 223.44860119 103.12501949 C223.47076055 110.50012233 223.47739504 117.87512713 223.47152478 125.25026089 C223.46815455 129.65357477 223.47057456 134.05668843 223.4877758 138.45997429 C223.50324668 142.60103359 223.49928809 146.74163032 223.48047066 150.88267136 C223.47678513 152.40079599 223.47989227 153.91895491 223.49035645 155.43704796 C223.50357188 157.51307835 223.49201696 159.58757853 223.47436523 161.6635437 C223.47415595 162.82403953 223.47394667 163.98453535 223.47373104 165.18019772 C222.73425941 169.91846865 220.47824643 173.06502816 216.91065979 176.20018005 C207.65674636 181.87193345 191.49356399 177.73015972 181.12477112 176.85887146 C179.12633246 176.69426172 177.12786252 176.53003147 175.12936401 176.3661499 C169.7284595 175.92200854 164.32805063 175.47209675 158.92774415 175.02074862 C154.41225455 174.64384197 149.89653974 174.26967271 145.38082618 173.89546049 C134.72839119 173.01261759 124.0763633 172.12497811 113.42457581 171.23435974 C102.44547118 170.31646068 91.46570797 169.40677119 80.4855898 168.50108397 C71.04373155 167.72198217 61.602309 166.93774911 52.16121691 166.14941728 C46.52863388 165.67915086 40.89590636 165.2108313 35.26275063 164.74747086 C29.96889058 164.3117985 24.67560442 163.86971192 19.38268852 163.42271996 C17.44310054 163.25999248 15.50332248 163.09951223 13.56334686 162.94147301 C10.91027577 162.72497855 8.25801932 162.50028526 5.60580444 162.27357483 C4.84285704 162.21325439 4.07990964 162.15293395 3.29384261 162.09078562 C-9.12471966 161.00034748 -9.12471966 161.00034748 -13.90184021 156.95018005 C-17.25682731 152.90446032 -18.2774357 150.88156114 -18.29426575 145.67642212 C-18.30279572 144.48615921 -18.31132568 143.2958963 -18.32011414 142.06956482 C-18.31920776 140.76197205 -18.31830139 139.45437927 -18.31736755 138.10716248 C-18.32335135 136.71745441 -18.33015655 135.32774967 -18.33772278 133.93804932 C-18.35540736 130.16106732 -18.36007924 126.38417591 -18.36135435 122.60715652 C-18.36325305 119.45368024 -18.37061042 116.30022509 -18.37769854 113.14675695 C-18.39399019 105.7051625 -18.39886687 98.26361645 -18.39744568 90.82200623 C-18.3962447 83.14833049 -18.41733591 75.47493622 -18.44893301 67.8013317 C-18.47509822 61.21183423 -18.48581284 54.62242866 -18.48453486 48.03287965 C-18.4840252 44.09788107 -18.48970994 40.16313245 -18.51089096 36.22818565 C-18.53027717 32.52545047 -18.53039565 28.82320353 -18.5158577 25.12045097 C-18.51277451 23.1177369 -18.52944426 21.11502277 -18.54673767 19.11238098 C-18.46847137 7.92870905 -18.46847137 7.92870905 -14.02684021 3.38768005 C-9.48545946 -0.1554704 -5.51698218 -0.03905342 0 0 Z " fill="#498CF0" transform="translate(18.026840209960938,270.61231994628906)"/>
<path d="M0 0 C4.16910507 4.61981913 5.12454188 7.07863085 5.14717102 13.23638916 C5.15084771 13.88314944 5.1545244 14.52990972 5.1583125 15.1962688 C5.16936567 17.37336682 5.17319593 19.55041715 5.17700195 21.72753906 C5.18326541 23.28458305 5.1899121 24.84162554 5.19691467 26.39866638 C5.21433614 30.63641376 5.22487972 34.87414985 5.2331202 39.11192417 C5.23826831 41.75897226 5.24434415 44.40601683 5.25063133 47.05306244 C5.26968728 55.33334416 5.28391712 63.61361693 5.2922433 71.89391637 C5.30201589 81.45514648 5.32833422 91.0161451 5.36874419 100.57729363 C5.39889776 107.96505438 5.41371148 115.35274874 5.41702431 122.74056983 C5.41937582 127.15401709 5.42834907 131.56721715 5.45348549 135.98059845 C5.47675783 140.13388995 5.48100296 144.28677137 5.47072411 148.44011116 C5.47022841 149.96308569 5.47655877 151.48608035 5.49028015 153.00899315 C5.50799272 155.09171125 5.50089819 157.1729566 5.48774719 159.25567627 C5.49013555 160.42006855 5.4925239 161.58446083 5.49498463 162.78413773 C4.73899667 167.69571074 2.56936781 170.67119179 -1.18582249 173.85077 C-5.17276353 175.47892325 -8.75812168 175.41789731 -13.02684021 175.38768005 C-13.93751112 175.39306559 -14.84818202 175.39845113 -15.78644902 175.40399987 C-18.83880843 175.41831056 -21.89073609 175.41116798 -24.94311523 175.40405273 C-27.13113759 175.40975466 -29.31915696 175.41671823 -31.50717163 175.42485046 C-37.4513465 175.44281639 -43.39537402 175.44160702 -49.3395679 175.43590808 C-54.29997927 175.43282124 -59.26036214 175.43890304 -64.22076946 175.44494683 C-76.59089729 175.45980551 -88.96095288 175.45616904 -101.33107943 175.44408352 C-112.07090816 175.43415115 -122.8105646 175.44709176 -133.55036675 175.47101771 C-144.58175445 175.49540783 -155.61305798 175.50461704 -166.6444717 175.49836498 C-172.83628693 175.49499084 -179.02795981 175.49744101 -185.21975517 175.51461601 C-191.04171728 175.53005986 -196.86334994 175.5261578 -202.68529892 175.50731087 C-204.82264581 175.50361794 -206.96001697 175.50675384 -209.09734154 175.51719666 C-212.01400163 175.53035982 -214.92956357 175.51890019 -217.84617615 175.50120544 C-218.69296997 175.51081045 -219.53976379 175.52041546 -220.41221803 175.53031152 C-225.72538161 175.46394067 -228.85003244 174.61965721 -233 171 C-235.85334626 167.33379675 -236.37688876 164.64363506 -236.38768005 160.04823303 C-236.402537 158.25871468 -236.402537 158.25871468 -236.41769409 156.43304443 C-236.41319244 155.13264221 -236.4086908 153.83223999 -236.40405273 152.49243164 C-236.40975801 151.10242667 -236.41672288 149.71242639 -236.42485046 148.32243347 C-236.44278007 144.55378417 -236.4416139 140.78536772 -236.43590808 137.01668859 C-236.43281585 133.86807534 -236.43890906 130.71950679 -236.44494683 127.5708999 C-236.45898985 120.14171114 -236.45743271 112.71263737 -236.44604492 105.28344727 C-236.4345642 97.62448421 -236.4486389 89.96587135 -236.4754414 82.30695444 C-236.49760783 75.72589755 -236.50423366 69.1449505 -236.49836498 62.56385893 C-236.49499639 58.63561234 -236.49740375 54.7075902 -236.51461601 50.77937508 C-236.53009826 47.08479858 -236.52611601 43.39074027 -236.50731087 39.69618416 C-236.50187578 37.69827593 -236.51612941 35.70034437 -236.53100586 33.70248413 C-236.43924557 22.54442365 -236.43924557 22.54442365 -232 18 C-227.85243435 14.93622579 -223.91825732 14.34893798 -218.90586853 13.91848755 C-218.11590766 13.84100442 -217.32594679 13.76352129 -216.51204771 13.68369019 C-214.00907853 13.44231125 -211.50497177 13.21953102 -209 13 C-207.44105179 12.85741891 -205.88212261 12.71462966 -204.32321358 12.57162094 C-199.38601958 12.12667131 -194.44626059 11.71470003 -189.50610352 11.30419922 C-187.62967815 11.14646651 -185.75326976 10.98853192 -183.87687683 10.83041382 C-178.84037112 10.40668979 -173.80360987 9.98608496 -168.7667706 9.56634665 C-164.54425517 9.21424099 -160.32185729 8.86073599 -156.09945339 8.50729573 C-146.13819389 7.67357014 -136.17670918 6.84257434 -126.21508789 6.01318359 C-115.96490425 5.15970699 -105.71516787 4.30099981 -95.4656263 3.43984973 C-86.62976751 2.69769423 -77.79361832 1.95906799 -68.9572348 1.22318661 C-63.69480263 0.78488591 -58.43249459 0.3452105 -53.1704731 -0.09799576 C-48.22864035 -0.51410334 -43.28645875 -0.92579352 -38.34398079 -1.33416367 C-36.53755141 -1.4841559 -34.73124867 -1.63568295 -32.92509079 -1.78890991 C-5.78095952 -4.08897137 -5.78095952 -4.08897137 0 0 Z " fill="#FF6446" transform="translate(236,66)"/>
</svg>
